<svg xmlns="http://www.w3.org/2000/svg" xmlns:xlink="http://www.w3.org/1999/xlink" viewBox="0 0 762.7 853.68"><defs><style>.cls-1,.cls-22,.cls-25,.cls-46,.cls-59,.cls-6,.cls-60,.cls-61,.cls-67{fill:none;}.cls-2{fill:#ffd169;stroke:#e3a61c;}.cls-14,.cls-18,.cls-19,.cls-2,.cls-20,.cls-22,.cls-23,.cls-25,.cls-29,.cls-31,.cls-32,.cls-33,.cls-34,.cls-35,.cls-36,.cls-37,.cls-4,.cls-5,.cls-57,.cls-58,.cls-59,.cls-6,.cls-60,.cls-61,.cls-62,.cls-66,.cls-67,.cls-68,.cls-8{stroke-linecap:round;}.cls-18,.cls-19,.cls-2,.cls-20,.cls-22,.cls-23,.cls-25,.cls-29,.cls-31,.cls-32,.cls-33,.cls-34,.cls-35,.cls-36,.cls-37,.cls-4,.cls-5,.cls-57,.cls-58,.cls-59,.cls-6,.cls-60,.cls-61,.cls-62,.cls-66,.cls-67,.cls-68,.cls-8{stroke-linejoin:round;}.cls-11,.cls-12,.cls-14,.cls-18,.cls-19,.cls-2,.cls-20,.cls-22,.cls-23,.cls-25,.cls-26,.cls-27,.cls-28,.cls-29,.cls-31,.cls-32,.cls-33,.cls-34,.cls-35,.cls-36,.cls-37,.cls-4,.cls-46,.cls-5,.cls-50,.cls-51,.cls-53,.cls-57,.cls-58,.cls-59,.cls-6,.cls-60,.cls-66,.cls-67,.cls-68,.cls-8{stroke-width:1.4px;}.cls-3{fill:#ffe491;}.cls-34,.cls-35,.cls-36,.cls-38,.cls-4{fill:#dce7f2;}.cls-11,.cls-12,.cls-14,.cls-22,.cls-23,.cls-31,.cls-32,.cls-33,.cls-34,.cls-35,.cls-36,.cls-37,.cls-4,.cls-46,.cls-5,.cls-50,.cls-51,.cls-53,.cls-57,.cls-58,.cls-59,.cls-6,.cls-60,.cls-61,.cls-62,.cls-66,.cls-67,.cls-68,.cls-8{stroke:#004680;}.cls-5,.cls-57,.cls-58,.cls-62,.cls-7{fill:#fff;}.cls-8{fill:#e1eaf2;}.cls-9{fill:#457088;}.cls-20,.cls-32,.cls-34,.cls-55,.cls-57,.cls-9{opacity:0.1;}.cls-10,.cls-15,.cls-44,.cls-48,.cls-52,.cls-54,.cls-55,.cls-56,.cls-63{fill:#004680;}.cls-11,.cls-12,.cls-31,.cls-32,.cls-33,.cls-53{fill:#a0bbfb;}.cls-11,.cls-12,.cls-14,.cls-26,.cls-27,.cls-28,.cls-46,.cls-50,.cls-51,.cls-53{stroke-miterlimit:10;}.cls-11{opacity:0.15;}.cls-12{opacity:0.25;}.cls-13{fill:#0c223d;}.cls-14{fill:#cedefb;}.cls-15,.cls-21,.cls-65{opacity:0.5;}.cls-16{fill:#ff9739;}.cls-16,.cls-17{opacity:0.9;}.cls-17{fill:#ff5656;}.cls-18,.cls-19,.cls-20,.cls-23,.cls-24{fill:#ffb8b8;}.cls-18,.cls-19,.cls-20{stroke:#ff5656;}.cls-19,.cls-44,.cls-46,.cls-48,.cls-56,.cls-59{opacity:0.3;}.cls-22{stroke-dasharray:5.81 5.81;}.cls-25{stroke:#fff;}.cls-26,.cls-27,.cls-28,.cls-29,.cls-37,.cls-39{fill:#c6f2c7;}.cls-26,.cls-27,.cls-28,.cls-29{stroke:#3dd15f;}.cls-26,.cls-36,.cls-58,.cls-60{opacity:0.4;}.cls-27,.cls-33,.cls-35,.cls-47,.cls-63{opacity:0.2;}.cls-30{fill:#3dd15f;}.cls-40{fill:#a7e8a7;}.cls-41{fill:#9dadbd;}.cls-42{fill:#ff8c8c;}.cls-43{fill:#a9f2ab;}.cls-44{font-size:14.97px;}.cls-44,.cls-48,.cls-52{font-family:SFUIDisplay-Bold, SF UI Display;font-weight:700;}.cls-45{letter-spacing:0.01em;}.cls-48{font-size:12.99px;}.cls-49{letter-spacing:0.01em;}.cls-50{fill:#cefbea;}.cls-51{fill:#d3cefb;}.cls-52{font-size:24.15px;}.cls-54{opacity:0.7;}.cls-61,.cls-62{stroke-width:2.2px;}.cls-64{clip-path:url(#clip-path);}.cls-65{fill:url(#linear-gradient);}.cls-66{fill:#c3d5e8;}.cls-67{opacity:0.63;}.cls-68{fill:#cec7ff;}</style><clipPath id="clip-path"><path class="cls-1" d="M270.93,227.43l68.18-65.6,5.59-2.15s8.61,2.15,9.25,2.58,21.3,77.64,19.57,79.15-40,23.23-44.3,22.58-57-31.61-57-31.61Z"/></clipPath><linearGradient id="linear-gradient" x1="320.88" y1="71.85" x2="291.77" y2="145.53" gradientUnits="userSpaceOnUse"><stop offset="0" stop-color="#fff"/><stop offset="1" stop-color="#fff" stop-opacity="0"/></linearGradient></defs><title>APPs</title><g id="Capa_2" data-name="Capa 2"><g id="Capa_1-2" data-name="Capa 1"><path class="cls-2" d="M273,440.31a12.15,12.15,0,0,0,2.39.14c7-.21,15.54-5.28,19-11.31,1.79-3.09,1.91-5.84.67-7.76l-1.48-2.48c-1.1-2-3.62-3.23-7.25-3.12-7,.21-15.53,5.27-19,11.31-1.74,3-1.91,5.66-.79,7.57h0l1.68,2.82h0a5.64,5.64,0,0,0,3.09,2.42"/><path class="cls-2" d="M282.24,435.43a21.78,21.78,0,0,1-8.43,2.2c-7,.21-9.87-4.51-6.37-10.54s12-11.1,19-11.31,9.87,4.5,6.37,10.54a23.08,23.08,0,0,1-8.07,7.76"/><path class="cls-2" d="M283.46,434.82l-.09.05"/><ellipse class="cls-3" cx="280.14" cy="426.7" rx="13.38" ry="7.44" transform="translate(-177.94 201.51) rotate(-30.54)"/><path class="cls-2" d="M283.36,428.17l-2.61-.41a3.84,3.84,0,0,1-3.29,1.07c-1.45-.22-1.61-1.3-.3-2.92a5.06,5.06,0,0,1,4.41-2.18c1.22.2,1.5.93,1,1.81l2.61.41c1.25-1.71.72-3.22-1.58-3.81l1.07-1.32-1.79-.28-1.09,1.36a9.52,9.52,0,0,0-7.44,3.57c-1.88,2.32-1.58,4.1.64,4.84l-1,1.27,1.78.28,1-1.23A8.18,8.18,0,0,0,283.36,428.17Z"/><g id="baloon"><polygon class="cls-4" points="713.75 250.22 713.21 249.95 715.97 243.35 716.52 243.62 713.75 250.22"/><path class="cls-5" d="M708.75,328.13l5.42-3.11a11.09,11.09,0,0,0,5.23-6.92l5.11-25.49-38.65-6.95-26.15,5.64,5.12,26.63a11,11,0,0,0,5.11,6.91l17.7,10.48a8.38,8.38,0,0,0,8.44.06l5.81-3.32"/><line class="cls-6" x1="705.08" y1="330.23" x2="705.28" y2="330.11"/><path class="cls-5" d="M668.86,298.2l20.7,12.25a4.51,4.51,0,0,0,4.47.06l29.1-16.21a2.78,2.78,0,0,0,0-4.84l-28.91-16.69a4.51,4.51,0,0,0-4.43,0l-28.74,16a2.78,2.78,0,0,0-.06,4.83l4.15,2.46"/><path class="cls-4" d="M707.82,285.23l9.54,5.51a1.25,1.25,0,0,1,0,2.18L693,306.49a2.31,2.31,0,0,1-2.29,0l-6.36-3.76-14.09-8.34h0l-3.42-2a1.25,1.25,0,0,1,0-2.17l24-13.39a2.28,2.28,0,0,1,2.26,0l10.67,6.16"/><path class="cls-5" d="M691.81,336.32c-.06-5.82,0-21.14,0-24.7v-.5l.05-44.16"/><path class="cls-7" d="M753.66,204.22a63.21,63.21,0,0,1-7.3,29.62,0,0,0,0,0,0,0c-.3.56-.58,1.11-.91,1.66a61.94,61.94,0,0,1-37.17,29.21l-.2,0-.32.09a61.59,61.59,0,0,1-12,2c-.49,0-1,.06-1.49.08H691l-.78,0h-.56c-.62,0-1.24-.06-1.86-.1h0c-.7-.05-1.39-.11-2.08-.18l-.27,0c-.86-.1-1.72-.21-2.58-.34h-.05l-1.27-.19h0c-.68-.12-1.37-.25-2-.39l-.14,0c-.3-.05-.59-.12-.87-.19l-.61-.15-.57-.13-.12,0-.72-.18-.81-.23-.19-.05-.19-.05-.08,0q-.36-.09-.72-.21c-.47-.13-.94-.28-1.4-.43l-.7-.23-.08,0-.17-.05-.33-.12c-.15,0-.31-.1-.45-.16l-.34-.12c-.14,0-.28-.1-.43-.16l-.25-.09-1.48-.59-.28-.11a62.46,62.46,0,0,1-30.36-27.21,2.91,2.91,0,0,1-.17-.3,63.12,63.12,0,0,1-7.75-27.52q-.06-1.25-.06-2.49c0-.11,0-.21,0-.33v-.23a63.17,63.17,0,0,1,.92-10.81,63,63,0,0,1,24.17-39.68h0a61.86,61.86,0,0,1,9.71-6,60.6,60.6,0,0,1,17.45-5.53l.57-.09a61,61,0,0,1,8.92-.65,59.49,59.49,0,0,1,7.59.48,60.83,60.83,0,0,1,30.42,12.81,62.73,62.73,0,0,1,20.33,28.87.19.19,0,0,1,0,.09A63.28,63.28,0,0,1,753.66,204.22Z"/><path class="cls-8" d="M680.23,155.69a47.36,47.36,0,0,1,11.88-1.53c31.31,0,56.69,31.43,56.69,62.57a72.67,72.67,0,0,1-3,19.19,61.95,61.95,0,0,1-107.62-.43,74.05,74.05,0,0,1-2.76-18.76c0-25.68,17.25-51.54,40.85-59.83"/><path class="cls-5" d="M717.62,210.81c.29,3.81.44,7.67.44,11.52,0,17.28-3.87,32.64-9.9,42.57a62.27,62.27,0,0,1-32.76-.27c-5.81-9.73-9.51-24.7-9.51-42.3,0-33.64,11.68-67.58,26.09-67.58,11,0,20.5,20,24.3,44.47"/><path class="cls-6" d="M717,205.92c0,.15,0,.3,0,.45"/><path class="cls-9" d="M749.86,205.47a57.75,57.75,0,0,1-108,28.41,58.9,58.9,0,0,1-4-8.64,2.12,2.12,0,0,1,3.75-1.9,53.54,53.54,0,0,0,92.85-52.78,1.47,1.47,0,0,1,2.45-1.58A57.56,57.56,0,0,1,749.86,205.47Z"/><path class="cls-6" d="M631.26,193.41a62,62,0,0,1,24.07-38.23s0,0,0,0a61.79,61.79,0,0,1,36.77-12.08,63.9,63.9,0,0,1,7.62.46A61.94,61.94,0,0,1,692.11,267a61.83,61.83,0,0,1-53.93-31.47,61.56,61.56,0,0,1-8-30.47q0-2.75.24-5.43"/><path class="cls-8" d="M696.72,147.54a36.55,36.55,0,0,1,3-4,61.63,61.63,0,0,1,30.51,12.66c-11-4.67-29.51-3.53-37.36-1.43q.82-1.91,1.68-3.54"/><path class="cls-8" d="M689.85,154.78c-7.21-1.93-23.36-3-34.51.39a61.74,61.74,0,0,1,27.83-11.44A42.62,42.62,0,0,1,689.85,154.78Z"/><ellipse class="cls-4" cx="691.33" cy="153.6" rx="6.53" ry="3.49"/><line class="cls-6" x1="724.71" y1="291.27" x2="739.69" y2="245.08"/><line class="cls-6" x1="659.62" y1="290.32" x2="645.05" y2="245.98"/></g><path class="cls-4" d="M685,302.25l-4.59-2.62-12.13-6.89h0l-.11-.06a10.71,10.71,0,0,0,1.13-4.57,13.69,13.69,0,0,1-8.1-2.61c-3.08-2.26-4.21-5.81-4.73-10a2.14,2.14,0,0,1,1.85-2.36,2.11,2.11,0,0,1,2.35,1.84c.38,3.07.87,5.51,3,7.1a9.64,9.64,0,0,0,5.69,1.83,10.87,10.87,0,0,0,2.17-.22A2.07,2.07,0,0,1,673,284a6.37,6.37,0,0,1,4.37-.95,12.44,12.44,0,0,1,5.6,2.54C688.33,289.46,685.89,293.48,685,302.25Z"/><line class="cls-4" x1="659.64" y1="266.95" x2="658.69" y2="272.87"/><path class="cls-4" d="M674.79,285.27c3.49.31,4.87.83,5.23-3.18a4.67,4.67,0,0,0-2.87-5.07l-2,4.38Z"/><path class="cls-10" d="M673.87,274.06a3.14,3.14,0,0,1-.38-3.25c1.3-2.71,4.57-5.22,8.62-3.43,5.08,2.23,6.74,11.59-2.19,14.57s-4.72-6.2-4.72-6.2Z"/><path class="cls-5" d="M674.17,272.33l-.69,7.7a2.84,2.84,0,0,0,2.57,3.08l1.23.11c2.31.2,4.31-.55,4.7-2.83l.12-.71.53-.52a1.54,1.54,0,0,0,.06-2.12h0a1.53,1.53,0,0,0-1.85-.35l-.44.23v-1.61a1.18,1.18,0,0,0-1.25-1.18l-1.91.11a3.13,3.13,0,0,1-3.06-1.91Z"/><path class="cls-11" d="M686.33,425.62l-52.66-30.4c-2-1.18-3.71-4.36-3.71-7.1V354.36c0-2.73,1.66-4,3.71-2.8L686.33,382c2,1.19,3.71,4.37,3.71,7.1v33.76C690,425.55,688.38,426.81,686.33,425.62Z"/><path class="cls-12" d="M671,434.86l-52.65-30.4c-2-1.18-3.71-4.36-3.71-7.1V363.6c0-2.73,1.66-4,3.71-2.81L671,391.19c2.06,1.19,3.72,4.37,3.72,7.1v33.76C674.68,434.79,673,436,671,434.86Z"/><g id="cards"><path class="cls-13" d="M655.26,398.8c2.06,1.18,3.72,4.36,3.72,7.1v33.76c0,2.73-1.66,4-3.72,2.8l-52.65-30.39c-2.05-1.19-3.71-4.37-3.71-7.1V371.21"/><path class="cls-14" d="M635.1,388.19l19.51,11.26c2,1.19,3.72,4.37,3.72,7.1v33.76c0,2.73-1.67,4-3.72,2.81L602,412.72c-2.05-1.19-3.72-4.37-3.72-7.1V371.86c0-2.73,1.67-4,3.72-2.81l28,16.17"/><path class="cls-15" d="M613.29,399.63l-7.18-4.14a2.21,2.21,0,0,1-.92-1.76h0c0-.68.41-1,.92-.7l7.18,4.15a2.19,2.19,0,0,1,.92,1.76h0C614.21,399.62,613.8,399.93,613.29,399.63Z"/><path class="cls-15" d="M624.52,406.12,617.34,402a2.19,2.19,0,0,1-.92-1.76h0c0-.68.41-1,.92-.7l7.18,4.15a2.2,2.2,0,0,1,.93,1.76h0C625.45,406.1,625,406.41,624.52,406.12Z"/><path class="cls-15" d="M635.75,412.6l-7.18-4.14a2.23,2.23,0,0,1-.92-1.77h0c0-.67.41-1,.92-.69l7.18,4.14a2.24,2.24,0,0,1,.93,1.77h0C636.68,412.58,636.26,412.9,635.75,412.6Z"/><path class="cls-15" d="M647,419.09l-7.19-4.15a2.19,2.19,0,0,1-.92-1.76h0c0-.68.41-1,.92-.7l7.19,4.15a2.22,2.22,0,0,1,.92,1.76h0C647.91,419.07,647.49,419.38,647,419.09Z"/><path class="cls-15" d="M629.71,417.86,612.54,408l-6.68-3.86a1.23,1.23,0,0,1-.52-1h0c0-.38.23-.55.52-.39l23.85,13.77a1.24,1.24,0,0,1,.52,1h0C630.23,417.85,630,418,629.71,417.86Z"/><path class="cls-15" d="M629.71,394.93l-23.85-13.77a1.24,1.24,0,0,1-.52-1h0c0-.38.23-.56.52-.39l23.85,13.77a1.23,1.23,0,0,1,.52,1h0C630.23,394.92,630,395.09,629.71,394.93Z"/><path class="cls-15" d="M640.2,401l-8.36-4.82a1.26,1.26,0,0,1-.51-1h0c0-.38.23-.55.51-.39l8.36,4.83a1.21,1.21,0,0,1,.52,1h0C640.72,401,640.49,401.15,640.2,401Z"/><ellipse class="cls-16" cx="646.84" cy="429.69" rx="2.93" ry="5.08" transform="translate(-128.44 385.19) rotate(-30.31)"/><ellipse class="cls-17" cx="650.81" cy="431.99" rx="2.93" ry="5.08" transform="translate(-129.05 387.51) rotate(-30.31)"/><path class="cls-10" d="M666,426.88l27.26,15.74c.51.29.87.08.79-.48h0a2.36,2.36,0,0,0-1.06-1.55l-27.25-15.73c-.51-.3-.87-.09-.8.47h0A2.4,2.4,0,0,0,666,426.88Z"/></g><path class="cls-18" d="M728.55,471.31h0l-.08,0,0,0-2.57,1.47-.51.3c-2.7,1.42-6.36,1.13-10.4-1.2-8.28-4.78-15-16.37-15-25.87,0-4.72,1.65-8,4.34-9.6l.19-.11,2.65-1.53c2.72-1.61,6.51-1.4,10.71,1,8.29,4.79,15,16.37,15,25.88C732.85,466.44,731.21,469.74,728.55,471.31Z"/><path class="cls-18" d="M727.37,452.25A28.23,28.23,0,0,1,730,463.4c0,9.51-6.71,13.34-15,8.55s-15-16.36-15-25.87,6.72-13.34,15-8.55a29.09,29.09,0,0,1,8.93,8.53"/><path class="cls-18" d="M726.08,449.61a1.14,1.14,0,0,0,.1.19"/><path class="cls-17" d="M716.29,462l-8.14-14c-.53-.92-.53-1.91,0-2.22h0c.54-.3,1.41.2,1.94,1.12l8.13,14c.53.92.53,1.92,0,2.22h0C717.69,463.43,716.82,462.93,716.29,462Z"/><path class="cls-17" d="M708.15,455.09l8.14-4.64c.53-.3,1.4.2,1.93,1.12h0c.53.92.53,1.92,0,2.22l-8.13,4.64c-.53.3-1.4-.2-1.94-1.12h0C707.62,456.39,707.62,455.4,708.15,455.09Z"/><ellipse class="cls-19" cx="731.71" cy="445.48" rx="12.21" ry="21.15" transform="translate(-124.81 430.18) rotate(-30.31)"/><ellipse class="cls-20" cx="744.6" cy="438.24" rx="12.21" ry="21.15" transform="matrix(0.86, -0.5, 0.5, 0.86, -119.39, 435.7)"/><g id="love_baloon" data-name="love baloon"><g class="cls-21"><path class="cls-6" d="M154.11,166.22a20.62,20.62,0,0,0,1.69-2.37"/><path class="cls-22" d="M158.3,158.61c9.13-24.89-2.72-75,20.36-75.64,16.16-.44,14.81,25.2-1.54,23-19.77-2.72-13.33-53-2.35-65.78"/><path class="cls-6" d="M176.9,38.19a5.25,5.25,0,0,1,2.7-1"/></g><path class="cls-23" d="M178.2,37.48c.75,2.45-1.51,4.71-1.51,4.71s.38,1.32,2.83,0,4-.57,4-.57,1.88-1.32,2.26-.38-2.08-5.08-2.08-5.08Z"/><path class="cls-24" d="M189.67.7a12.53,12.53,0,0,0-9,3.78,12.56,12.56,0,0,0-21.54,8.79c0,9.78,15.29,23.52,22.6,23.52s20.48-13.92,20.48-23.52A12.56,12.56,0,0,0,189.67.7Z"/><path class="cls-23" d="M164.34,25c5.13,6.42,12.83,11.81,17.41,11.81,7.3,0,20.48-13.92,20.48-23.52a12.56,12.56,0,0,0-21.54-8.79,12.56,12.56,0,0,0-21.54,8.79,13.89,13.89,0,0,0,1.37,5.61"/><path class="cls-25" d="M197.86,13.66a10,10,0,0,0-8.07-9.13"/><path class="cls-5" d="M180.39,4.18A12.21,12.21,0,0,1,183,7.7"/><path class="cls-5" d="M186.06,36.66c-2.41-.63-8.58-.63-8.85,0s1.52,1.16,1.79,1.16S186.06,36.66,186.06,36.66Z"/><path class="cls-5" d="M161.9,21.48c.2.33.4.66.62,1"/></g><ellipse class="cls-26" cx="41.46" cy="490.99" rx="21" ry="12.13" transform="translate(-403.34 278.98) rotate(-59.69)"/><ellipse class="cls-27" cx="28.66" cy="483.8" rx="21" ry="12.13" transform="translate(-403.47 264.37) rotate(-59.69)"/><path class="cls-28" d="M44.6,516.64h0l.08,0,0,0,2.55,1.47.51.29c2.68,1.41,6.32,1.12,10.33-1.19C66.32,512.53,73,501,73,491.59c0-4.69-1.64-8-4.31-9.54l-.2-.11-2.62-1.51c-2.7-1.61-6.47-1.4-10.64,1-8.23,4.75-14.9,16.25-14.9,25.7C40.32,511.8,42,515.08,44.6,516.64Z"/><path class="cls-29" d="M46.69,495.77c0,.08-.08.17-.13.26a29.11,29.11,0,0,0-3.36,12.76c0,9.44,6.67,13.24,14.9,8.49S73,501,73,491.59s-6.67-13.25-14.9-8.5a27.63,27.63,0,0,0-7.62,6.8"/><path class="cls-29" d="M48.08,493.32l-.07.12"/><path class="cls-30" d="M57.14,507.74a1.21,1.21,0,0,1-1.2.12l-4.54-2.58c-.67-.38-.67-1.63,0-2.78s1.75-1.77,2.41-1.39l3.33,1.9,6.18-10.64c.66-1.15,1.74-1.78,2.41-1.4s.67,1.62,0,2.77l-7.38,12.73A3.38,3.38,0,0,1,57.14,507.74Z"/><g id="ui_elements" data-name="ui elements"><path class="cls-31" d="M237.82,410.41l-124.4,71.83c-2.18,1.26-4-.08-4-3v-20c0-2.91,1.77-6.29,4-7.54l124.4-71.83c2.19-1.26,4,.08,4,3v20C241.77,405.77,240,409.15,237.82,410.41Z"/><path class="cls-15" d="M153.09,441.31l69.4-40.07a3.59,3.59,0,0,0,1.5-2.87h0c0-1.1-.67-1.61-1.5-1.13l-69.4,40.07a3.57,3.57,0,0,0-1.5,2.86h0C151.59,441.28,152.26,441.79,153.09,441.31Z"/><path class="cls-15" d="M123,469.62l69.4-40.07a3.59,3.59,0,0,0,1.5-2.87h0c0-1.11-.67-1.61-1.5-1.14L123,465.61a3.62,3.62,0,0,0-1.5,2.87h0C121.53,469.59,122.21,470.09,123,469.62Z"/><path class="cls-15" d="M122.56,458.94l24.33-14.05a3.59,3.59,0,0,0,1.5-2.87h0c0-1.1-.67-1.61-1.5-1.13l-24.33,14a3.61,3.61,0,0,0-1.5,2.87h0C121.06,458.91,121.73,459.42,122.56,458.94Z"/><path class="cls-10" d="M104.52,472.18,77.46,487.81c-.51.3-.87.08-.8-.47h0a2.39,2.39,0,0,1,1.06-1.54l27.06-15.63c.51-.29.87-.08.8.48h0A2.4,2.4,0,0,1,104.52,472.18Z"/></g><path class="cls-32" d="M219.45,317.76,95.05,389.59c-2.18,1.26-4-.08-4-3v-20c0-2.91,1.77-6.29,4-7.54l124.4-71.83c2.18-1.26,4,.08,4,3v20C223.4,313.12,221.63,316.5,219.45,317.76Z"/><path class="cls-33" d="M219.45,358.09,95.05,429.91c-2.18,1.26-4-.07-4-3v-20c0-2.91,1.77-6.29,4-7.55l124.4-71.82c2.18-1.26,4,.07,4,3v20C223.4,353.45,221.63,356.83,219.45,358.09Z"/><path class="cls-33" d="M219.45,398.42,95.05,470.24c-2.18,1.26-4-.08-4-3v-20c0-2.9,1.77-6.28,4-7.54l124.4-71.83c2.18-1.25,4,.08,4,3v20C223.4,393.78,221.63,397.16,219.45,398.42Z"/><path class="cls-33" d="M219.45,438.74,95.05,510.57c-2.18,1.26-4-.08-4-3v-20c0-2.91,1.77-6.28,4-7.54l124.4-71.83c2.18-1.26,4,.08,4,3v20C223.4,434.11,221.63,437.48,219.45,438.74Z"/><path class="cls-32" d="M219.45,479.07,95.05,550.9c-2.18,1.26-4-.08-4-3v-20c0-2.91,1.77-6.29,4-7.54l124.4-71.83c2.18-1.26,4,.08,4,3v20C223.4,474.43,221.63,477.81,219.45,479.07Z"/><path class="cls-33" d="M228,405.82,103.61,477.65c-2.18,1.26-3.94-.08-3.94-3v-20c0-2.91,1.76-6.28,3.94-7.54L228,375.26c2.18-1.26,3.95.08,3.95,3v20C232,401.19,230.2,404.56,228,405.82Z"/><path class="cls-34" d="M56.54,673.76v45.92c0,2.7-1.65,5.85-3.68,7l-11.47,6.62-5.75,11L29.89,740l-11.46,6.62c-2,1.17-3.68-.08-3.68-2.78V697.89c0-2.71,1.65-5.85,3.68-7L52.86,671C54.89,669.81,56.54,671.06,56.54,673.76Z"/><path class="cls-35" d="M65.1,677.94v45.91c0,2.7-1.64,5.85-3.67,7L50,737.49l-5.75,11-5.75-4.35L27,750.75c-2,1.17-3.67-.07-3.67-2.78V702.06c0-2.7,1.64-5.85,3.67-7l34.44-19.88C63.46,674,65.1,675.23,65.1,677.94Z"/><path class="cls-36" d="M75,684.3v45.92c0,2.7-1.64,5.85-3.67,7l-11.47,6.62-5.75,11-5.75-4.35-11.47,6.62c-2,1.17-3.67-.07-3.67-2.78V708.43c0-2.71,1.65-5.85,3.67-7l34.44-19.88C73.34,680.35,75,681.6,75,684.3Z"/><g id="comments"><path class="cls-5" d="M68.71,748.2l-.08,0-5.75,11-5.76-4.35-11.46,6.62c-2,1.17-3.68-.07-3.68-2.78V712.82c0-2.7,1.65-5.85,3.68-7l34.43-19.88c2-1.17,3.68.07,3.68,2.78v45.91c0,2.7-1.65,5.85-3.68,7L73,745.73"/><path class="cls-37" d="M54.43,740.42l-3.83,2.21V729c0-6,3.68-13.08,8.22-15.7L68,708c4.54-2.62,8.22.16,8.22,6.22v2.65c0,6-3.68,13.08-8.22,15.7l-9.52,5.5"/><ellipse class="cls-10" cx="57.74" cy="726.69" rx="2.49" ry="1.41" transform="translate(-633.53 495.28) rotate(-66.95)"/><ellipse class="cls-10" cx="63.19" cy="723.54" rx="2.49" ry="1.41" transform="translate(-627.33 498.38) rotate(-66.95)"/><ellipse class="cls-10" cx="68.63" cy="720.4" rx="2.49" ry="1.41" transform="translate(-621.12 501.48) rotate(-66.95)"/></g><path class="cls-38" d="M509.66,373.23c-6.79,3.92-6.79,10.33,0,14.25s17.9,3.93,24.67,0,6.78-10.32,0-14.25S516.46,369.31,509.66,373.23Z"/><path class="cls-4" d="M517.59,357.23H526a0,0,0,0,1,0,0v19.94a2.53,2.53,0,0,1-2.53,2.53h-3.37a2.53,2.53,0,0,1-2.53-2.53V357.23A0,0,0,0,1,517.59,357.23Z"/><path class="cls-39" d="M536.45,356.3,521,299c-15,61-13.85,56.22-14.16,57.55C506,367.52,536.05,369.41,536.45,356.3Z"/><path class="cls-40" d="M536.45,356.3c-.41,13.11-30.41,11.23-29.65.27a.61.61,0,0,1,0-.17c9,3.54,24.08,1.84,23.21-7.68-1.49-13-5.9-31.92-8.94-48.06-2.31,9.35-4.38,16.94-6.25,23.09,1.66-6.72,3.66-14.86,6.09-24.72Z"/><path class="cls-6" d="M515.69,320.37l-.64,2.62c-8.8,35.72-8,32.47-8.26,33.59-.75,10.94,29.26,12.83,29.66-.28L521,299q-1.58,6.41-2.93,11.87"/><path class="cls-38" d="M506,396.76c-4,2.33-4,6.13,0,8.46a16.24,16.24,0,0,0,14.64,0c4-2.32,4-6.12,0-8.45A16.24,16.24,0,0,0,506,396.76Z"/><path class="cls-4" d="M510.68,387.28h5a0,0,0,0,1,0,0v11.83a1.5,1.5,0,0,1-1.5,1.5h-2a1.5,1.5,0,0,1-1.5-1.5V387.28a0,0,0,0,1,0,0Z"/><path class="cls-39" d="M521.87,386.72l-9.2-34c-8.91,36.2-8.22,33.35-8.4,34.14C503.82,393.38,521.62,394.5,521.87,386.72Z"/><path class="cls-40" d="M521.86,386.72c-.24,7.78-18,6.66-17.59.17a.81.81,0,0,1,0-.11c5.33,2.1,14.29,1.09,13.77-4.55-.89-7.72-3.5-18.94-5.31-28.51-1.36,5.54-2.59,10-3.7,13.69l3.61-14.66Z"/><path class="cls-6" d="M521.87,386.72l-9.2-34c-8.91,36.2-8.22,33.35-8.4,34.14C503.82,393.38,521.62,394.5,521.87,386.72Z"/><path class="cls-38" d="M537.08,379.67c-6.38,3.68-6.38,9.71,0,13.39s16.81,3.69,23.17,0,6.36-9.7,0-13.39S543.46,376,537.08,379.67Z"/><path class="cls-4" d="M544.53,364.65h7.91a0,0,0,0,1,0,0v18.73a2.37,2.37,0,0,1-2.37,2.37H546.9a2.37,2.37,0,0,1-2.37-2.37V364.65A0,0,0,0,1,544.53,364.65Z"/><path class="cls-39" d="M562.24,363.77,547.68,310c-14.11,57.32-13,52.81-13.3,54C533.67,374.31,561.86,376.08,562.24,363.77Z"/><path class="cls-40" d="M562.24,363.77c-.38,12.31-28.56,10.54-27.85.26a.71.71,0,0,1,0-.17c8.43,3.33,22.62,1.73,21.8-7.21-1.4-12.22-5.54-30-8.4-45.14-2.17,8.78-4.12,15.91-5.87,21.69,1.56-6.31,3.44-14,5.72-23.22Z"/><path class="cls-6" d="M541.61,334.62l-.85,3.44c-6.8,27.63-6.15,25-6.38,26-.71,10.28,27.48,12.05,27.86-.26L547.68,310c-2.09,8.49-3.85,15.62-5.33,21.62"/><g id="pos"><path class="cls-4" d="M477.9,759.33l-32.33-18.67,1.73-1c2.07-1.19,2.29-3,.5-4l-18.68-10.79a7.8,7.8,0,0,0-7,.29l-35,20.23a2.9,2.9,0,0,0-1.71,2.27h0V757h0a2.09,2.09,0,0,0,1.21,1.69l18.68,10.78a7.73,7.73,0,0,0,7-.29l1.73-1,32.33,18.67c2.2,1.27,6,1.11,8.57-.35l22.39-12.93c1.46-.84,2.16-1.93,2.09-2.94v-9.07A2.5,2.5,0,0,0,477.9,759.33Z"/><path class="cls-5" d="M431,768.71l15.32,8.85c2.2,1.26,6,1.11,8.57-.36l22.39-12.92c2.53-1.47,2.81-3.68.61-4.95l-32.33-18.67,1.73-1c2.07-1.19,2.29-3,.5-4l-18.68-10.79a7.8,7.8,0,0,0-7,.29l-35,20.23c-2.07,1.19-2.29,3-.5,4l18.68,10.79a7.8,7.8,0,0,0,7-.29l1.73-1,10.09,5.82"/><line class="cls-5" x1="428.35" y1="767.18" x2="428.65" y2="767.35"/><path class="cls-5" d="M440.34,738.2l-30.61,17.67a2.62,2.62,0,0,1-2.37.1l-11.18-6.46c-.61-.35-.53-1,.17-1.36L427,730.47a2.65,2.65,0,0,1,2.37-.1l11.18,6.46C441.12,737.18,441.05,737.79,440.34,738.2Z"/><path class="cls-41" d="M431.74,757.52l-3.35,1.93a2.34,2.34,0,0,1-2.12.08l-3.68-2.12c-.54-.32-.48-.86.15-1.23l3.34-1.93a2.4,2.4,0,0,1,2.13-.09l3.68,2.13C432.43,756.6,432.36,757.15,431.74,757.52Z"/><path class="cls-41" d="M439.11,753.26l-3.34,1.93a2.4,2.4,0,0,1-2.13.09L430,753.15c-.54-.31-.47-.86.15-1.22l3.35-1.93a2.31,2.31,0,0,1,2.12-.09l3.68,2.12C439.81,752.35,439.74,752.9,439.11,753.26Z"/><path class="cls-41" d="M446.48,749l-3.34,1.93A2.38,2.38,0,0,1,441,751l-3.68-2.13c-.55-.31-.48-.86.15-1.22l3.34-1.93a2.38,2.38,0,0,1,2.12-.09l3.69,2.13C447.18,748.09,447.11,748.64,446.48,749Z"/><path class="cls-41" d="M439.53,762,436.19,764a2.34,2.34,0,0,1-2.12.08l-3.69-2.12c-.54-.32-.47-.86.16-1.23l3.34-1.93a2.38,2.38,0,0,1,2.12-.09l3.68,2.13C440.23,761.1,440.16,761.65,439.53,762Z"/><path class="cls-41" d="M446.9,757.76l-3.34,1.93a2.38,2.38,0,0,1-2.12.09l-3.68-2.13c-.55-.31-.48-.86.15-1.22l3.34-1.93a2.31,2.31,0,0,1,2.12-.09l3.69,2.12C447.6,756.85,447.53,757.4,446.9,757.76Z"/><path class="cls-41" d="M454.28,753.5l-3.35,1.93a2.37,2.37,0,0,1-2.12.09l-3.68-2.13c-.54-.31-.48-.86.15-1.22l3.34-1.93a2.4,2.4,0,0,1,2.13-.09l3.68,2.13C455,752.59,454.9,753.14,454.28,753.5Z"/><path class="cls-41" d="M447.06,766.37l-3.34,1.93a2.34,2.34,0,0,1-2.12.08l-3.68-2.12c-.55-.32-.48-.86.15-1.23l3.34-1.93a2.38,2.38,0,0,1,2.12-.09l3.69,2.13C447.76,765.45,447.69,766,447.06,766.37Z"/><path class="cls-41" d="M454.44,762.11,451.1,764a2.4,2.4,0,0,1-2.13.09L445.29,762c-.54-.31-.47-.86.15-1.22l3.35-1.93a2.31,2.31,0,0,1,2.12-.09l3.68,2.12C455.13,761.2,455.07,761.75,454.44,762.11Z"/><path class="cls-41" d="M461.81,757.85l-3.34,1.93a2.38,2.38,0,0,1-2.12.09l-3.68-2.13c-.55-.31-.48-.86.15-1.22l3.34-1.93a2.38,2.38,0,0,1,2.12-.09l3.68,2.13C462.51,756.94,462.44,757.49,461.81,757.85Z"/><path class="cls-42" d="M454.44,770.62l-3.34,1.93a2.33,2.33,0,0,1-2.13.09l-3.68-2.12c-.54-.32-.47-.87.15-1.23l3.35-1.93a2.38,2.38,0,0,1,2.12-.09l3.68,2.13C455.14,769.71,455.07,770.26,454.44,770.62Z"/><path class="cls-41" d="M461.81,766.37l-3.34,1.93a2.34,2.34,0,0,1-2.12.08l-3.68-2.12c-.55-.32-.48-.86.15-1.23l3.34-1.93a2.34,2.34,0,0,1,2.12-.08l3.68,2.12C462.51,765.46,462.44,766,461.81,766.37Z"/><path class="cls-43" d="M469.19,762.11,465.84,764a2.37,2.37,0,0,1-2.12.09L460,762c-.54-.31-.48-.86.15-1.22l3.34-1.93a2.33,2.33,0,0,1,2.13-.09l3.68,2.12C469.88,761.2,469.81,761.75,469.19,762.11Z"/><path class="cls-10" d="M420.67,731.38l-22.74,13.13a1.36,1.36,0,0,1-1.24,0l-.09,0c-.31-.18-.27-.5.09-.71l22.74-13.13a1.4,1.4,0,0,1,1.24,0l.09,0C421.08,730.85,421,731.17,420.67,731.38Z"/><text class="cls-44" transform="matrix(0.87, -0.5, 0.87, 0.5, 413.08, 754.68)"><tspan class="cls-45">***</tspan><tspan x="22.46" y="0">*</tspan></text></g><path class="cls-38" d="M419.43,731.56l-20.83,12c3.27-11.64-3-20.94-11.15-24.25l20.28-10.68C415,711.28,421,720.29,419.43,731.56Z"/><line class="cls-46" x1="405.79" y1="713.27" x2="394.4" y2="719.26"/><line class="cls-46" x1="410.38" y1="714.65" x2="397.04" y2="721.68"/><line class="cls-46" x1="405.3" y1="721.35" x2="399.2" y2="724.57"/><line class="cls-46" x1="412.02" y1="722.06" x2="400.85" y2="727.94"/><line class="cls-46" x1="413.8" y1="725.35" x2="401.82" y2="731.66"/><line class="cls-46" x1="410.48" y1="731.56" x2="402.03" y2="736.01"/><g id="c_cards" data-name="c cards"><path class="cls-7" d="M335.54,810.47l-5.85,3.38a1.84,1.84,0,0,1-1.63-.06h0c-.48-.28-.53-.7-.11-.94l5.85-3.38a1.79,1.79,0,0,1,1.62.07h0C335.9,809.82,336,810.23,335.54,810.47Z"/><path class="cls-7" d="M320,807.88l-6.81,3.93a1,1,0,0,1-.91,0h0c-.27-.15-.3-.39-.06-.52l6.81-3.94a1,1,0,0,1,.91,0h0C320.19,807.51,320.21,807.74,320,807.88Z"/><g class="cls-47"><path class="cls-6" d="M356.36,827.56l-42.91,24.77a7.3,7.3,0,0,1-6.53-.27l-23.86-13.78c-1.93-1.12-2.15-2.81-.47-3.77l42.9-24.77A7.23,7.23,0,0,1,332,810l23.86,13.78C357.82,824.9,358,826.59,356.36,827.56Z"/></g></g><g id="calculator"><path class="cls-4" d="M690.25,718.31h0a1.93,1.93,0,0,0-1.1-1.58l-31.35-17.9L643.4,687a7.15,7.15,0,0,0-6.43.27L602.76,707a2.59,2.59,0,0,0-1.55,2.13h0v3.48l0,3.32a1.89,1.89,0,0,0,1.09,1.58l45.75,26.41a7.16,7.16,0,0,0,6.42-.26l34.21-19.75a2.63,2.63,0,0,0,1.56-2.09h0Z"/><path class="cls-5" d="M688.68,720.61l-34.21,19.75a7.09,7.09,0,0,1-6.42.26L617.88,723.2,602.3,710.89c-1.65-.95-1.44-2.61.46-3.71L637,687.43a7.18,7.18,0,0,1,6.43-.26l14.37,11.62,31.37,18.11C690.79,717.85,690.58,719.51,688.68,720.61Z"/><path class="cls-5" d="M650.34,699.19l-31.43,18.15a2.5,2.5,0,0,1-2.24.09L608,710.6c-.57-.33-.5-.91.16-1.29l31.43-18.15a2.5,2.5,0,0,1,2.24-.09l8.66,6.83C651.08,698.23,651,698.81,650.34,699.19Z"/><text class="cls-48" transform="matrix(0.87, -0.5, 0.87, 0.5, 625.3, 713.57)"><tspan class="cls-49">***</tspan><tspan x="19.49" y="0">*</tspan></text><path class="cls-41" d="M634.68,722.65l-3.61,2.09a2.55,2.55,0,0,1-2.29.09l-4-2.29c-.59-.34-.51-.94.16-1.33l3.61-2.08a2.57,2.57,0,0,1,2.3-.1l4,2.3C635.43,721.67,635.36,722.26,634.68,722.65Z"/><path class="cls-41" d="M643.86,717.35l-3.61,2.09a2.54,2.54,0,0,1-2.29.09l-4-2.3c-.58-.34-.51-.93.17-1.32l3.61-2.08a2.52,2.52,0,0,1,2.29-.1l4,2.3C644.62,716.37,644.54,717,643.86,717.35Z"/><path class="cls-41" d="M653.05,712.05l-3.61,2.08a2.57,2.57,0,0,1-2.3.1l-4-2.3c-.59-.34-.52-.93.16-1.32l3.61-2.09a2.55,2.55,0,0,1,2.29-.09l4,2.29C653.8,711.06,653.73,711.66,653.05,712.05Z"/><path class="cls-41" d="M662.23,706.75l-3.61,2.08a2.58,2.58,0,0,1-2.29.1l-4-2.3c-.59-.34-.51-.93.16-1.32l3.62-2.09a2.54,2.54,0,0,1,2.29-.09l4,2.29C663,705.76,662.91,706.35,662.23,706.75Z"/><path class="cls-41" d="M644.33,728.22l-3.61,2.09a2.57,2.57,0,0,1-2.3.09l-4-2.3c-.58-.33-.51-.93.17-1.32l3.61-2.08a2.52,2.52,0,0,1,2.29-.1l4,2.3C645.08,727.24,645,727.83,644.33,728.22Z"/><path class="cls-41" d="M653.51,722.92,649.9,725a2.52,2.52,0,0,1-2.29.1l-4-2.3c-.59-.34-.52-.93.16-1.32l3.61-2.09a2.57,2.57,0,0,1,2.3-.09l4,2.3C654.26,721.94,654.19,722.53,653.51,722.92Z"/><path class="cls-41" d="M662.69,717.62l-3.61,2.08a2.55,2.55,0,0,1-2.29.1l-4-2.3c-.59-.34-.51-.93.17-1.32l3.61-2.09a2.54,2.54,0,0,1,2.29-.09l4,2.29C663.45,716.63,663.37,717.23,662.69,717.62Z"/><path class="cls-41" d="M671.88,712.31l-3.61,2.09a2.57,2.57,0,0,1-2.3.09l-4-2.29c-.59-.34-.52-.93.16-1.33l3.61-2.08a2.58,2.58,0,0,1,2.29-.1l4,2.3C672.63,711.33,672.56,711.92,671.88,712.31Z"/><path class="cls-41" d="M654.3,734l-3.61,2.09a2.54,2.54,0,0,1-2.29.09l-4-2.29c-.58-.34-.51-.94.17-1.33l3.61-2.08a2.55,2.55,0,0,1,2.29-.1l4,2.3C655.06,733,655,733.59,654.3,734Z"/><path class="cls-41" d="M663.49,728.68l-3.61,2.08a2.54,2.54,0,0,1-2.3.1l-4-2.3c-.59-.34-.52-.93.16-1.32l3.61-2.08a2.52,2.52,0,0,1,2.29-.1l4,2.3C664.24,727.7,664.17,728.29,663.49,728.68Z"/><path class="cls-41" d="M672.67,723.38l-3.61,2.08a2.55,2.55,0,0,1-2.29.1l-4-2.3c-.59-.34-.51-.93.17-1.32l3.61-2.09a2.54,2.54,0,0,1,2.29-.09l4,2.29C673.42,722.39,673.35,723,672.67,723.38Z"/><path class="cls-42" d="M681.86,718.08l-3.62,2.08a2.58,2.58,0,0,1-2.29.1l-4-2.3c-.58-.34-.51-.93.17-1.32l3.61-2.09a2.54,2.54,0,0,1,2.29-.09l4,2.29C682.61,717.09,682.53,717.68,681.86,718.08Z"/></g><path class="cls-50" d="M356.36,814.7l-42.91,24.78a7.27,7.27,0,0,1-6.53-.28l-23.86-13.77c-1.93-1.12-2.15-2.81-.47-3.77l42.9-24.78a7.27,7.27,0,0,1,6.53.28l23.86,13.77C357.82,812.05,358,813.74,356.36,814.7Z"/><path class="cls-7" d="M308.08,826.33l-5.85,3.38a1.82,1.82,0,0,1-1.62-.07h0c-.48-.28-.53-.7-.12-.94l5.85-3.38a1.79,1.79,0,0,1,1.62.07h0C308.44,825.67,308.5,826.09,308.08,826.33Z"/><path class="cls-7" d="M317.23,821l-5.85,3.38a1.79,1.79,0,0,1-1.62-.07h0c-.48-.27-.53-.69-.12-.93L315.5,820a1.79,1.79,0,0,1,1.62.07h0C317.6,820.38,317.65,820.8,317.23,821Z"/><path class="cls-7" d="M326.39,815.76l-5.86,3.38a1.79,1.79,0,0,1-1.62-.07h0c-.48-.28-.53-.7-.11-.94l5.85-3.38a1.86,1.86,0,0,1,1.62.07h0C326.75,815.1,326.8,815.52,326.39,815.76Z"/><path class="cls-7" d="M327.64,822.17l-19.43,11.22a1,1,0,0,1-.91,0h0c-.27-.16-.3-.39-.07-.53l19.44-11.22a1,1,0,0,1,.91,0h0C327.85,821.8,327.88,822,327.64,822.17Z"/><path class="cls-7" d="M311.43,812.81,292,824a1,1,0,0,1-.91,0h0c-.27-.16-.3-.39-.07-.53l19.44-11.22a1,1,0,0,1,.91,0h0C311.63,812.44,311.66,812.68,311.43,812.81Z"/><ellipse class="cls-16" cx="342.97" cy="814.91" rx="4.14" ry="2.39" transform="translate(-3.3 1.39) rotate(-0.23)"/><ellipse class="cls-17" cx="346.21" cy="813.04" rx="4.14" ry="2.39" transform="translate(-3.29 1.41) rotate(-0.23)"/><path class="cls-51" d="M356.36,801l-42.91,24.78a7.27,7.27,0,0,1-6.53-.28l-23.86-13.77c-1.93-1.12-2.15-2.81-.47-3.77l42.9-24.78a7.27,7.27,0,0,1,6.53.28l23.86,13.77C357.82,798.39,358,800.08,356.36,801Z"/><path class="cls-7" d="M308.08,812.67l-5.85,3.38a1.85,1.85,0,0,1-1.62-.07h0c-.48-.28-.53-.7-.12-.94l5.85-3.38a1.79,1.79,0,0,1,1.62.07h0C308.44,812,308.5,812.43,308.08,812.67Z"/><path class="cls-7" d="M317.23,807.38l-5.85,3.38a1.79,1.79,0,0,1-1.62-.07h0c-.48-.27-.53-.69-.12-.93l5.86-3.38a1.79,1.79,0,0,1,1.62.07h0C317.6,806.72,317.65,807.14,317.23,807.38Z"/><path class="cls-7" d="M326.39,802.1l-5.86,3.38a1.79,1.79,0,0,1-1.62-.07h0c-.48-.28-.53-.7-.11-.94l5.85-3.38a1.82,1.82,0,0,1,1.62.07h0C326.75,801.44,326.8,801.86,326.39,802.1Z"/><path class="cls-7" d="M335.54,796.81l-5.85,3.38a1.84,1.84,0,0,1-1.63-.06h0c-.48-.28-.53-.7-.11-.94l5.85-3.38a1.79,1.79,0,0,1,1.62.07h0C335.9,796.16,336,796.57,335.54,796.81Z"/><path class="cls-7" d="M327.64,808.51l-19.43,11.22a1,1,0,0,1-.91,0h0c-.27-.16-.3-.39-.07-.53L326.67,808a1,1,0,0,1,.91,0h0C327.85,808.14,327.88,808.38,327.64,808.51Z"/><path class="cls-7" d="M311.43,799.15,292,810.37a1,1,0,0,1-.91,0h0c-.27-.16-.3-.39-.07-.53l19.44-11.22a1,1,0,0,1,.91,0h0C311.63,798.78,311.66,799,311.43,799.15Z"/><path class="cls-7" d="M320,794.22l-6.81,3.93a1,1,0,0,1-.91,0h0c-.27-.15-.3-.39-.06-.52l6.81-3.94a1,1,0,0,1,.91,0h0C320.19,793.85,320.21,794.08,320,794.22Z"/><ellipse class="cls-16" cx="342.97" cy="801.25" rx="4.14" ry="2.39" transform="translate(-3.24 1.39) rotate(-0.23)"/><ellipse class="cls-17" cx="346.21" cy="799.38" rx="4.14" ry="2.39" transform="translate(-3.23 1.41) rotate(-0.23)"/><path class="cls-5" d="M298.58,786.3l26.91-15.54A7.27,7.27,0,0,1,332,771l23.86,13.77c1.94,1.12,2.15,2.81.48,3.78l-42.91,24.77a7.27,7.27,0,0,1-6.53-.28l-23.86-13.77c-1.93-1.12-2.15-2.81-.47-3.77l9.24-5.34"/><line class="cls-5" x1="296.13" y1="787.72" x2="296.27" y2="787.64"/><path class="cls-15" d="M308.08,800.21l-5.85,3.38a1.82,1.82,0,0,1-1.62-.07h0c-.48-.28-.53-.7-.12-.94l5.85-3.38a1.79,1.79,0,0,1,1.62.07h0C308.44,799.55,308.5,800,308.08,800.21Z"/><path class="cls-15" d="M317.23,794.92l-5.85,3.38a1.79,1.79,0,0,1-1.62-.07h0c-.48-.27-.53-.69-.12-.93l5.86-3.38a1.79,1.79,0,0,1,1.62.07h0C317.6,794.26,317.65,794.68,317.23,794.92Z"/><path class="cls-15" d="M326.39,789.64,320.53,793a1.79,1.79,0,0,1-1.62-.07h0c-.48-.28-.53-.7-.11-.94l5.85-3.37a1.82,1.82,0,0,1,1.62.06h0C326.75,789,326.8,789.4,326.39,789.64Z"/><path class="cls-15" d="M335.54,784.35l-5.85,3.38a1.84,1.84,0,0,1-1.63-.06h0c-.48-.28-.53-.7-.11-.94l5.85-3.38a1.79,1.79,0,0,1,1.62.07h0C335.9,783.7,336,784.11,335.54,784.35Z"/><path class="cls-15" d="M327.64,796.05l-19.43,11.22a1,1,0,0,1-.91,0h0c-.27-.16-.3-.39-.07-.53l19.44-11.22a1,1,0,0,1,.91,0h0C327.85,795.68,327.88,795.92,327.64,796.05Z"/><path class="cls-15" d="M311.43,786.69,292,797.91a1,1,0,0,1-.91,0h0c-.27-.16-.3-.39-.07-.53l19.44-11.22a1,1,0,0,1,.91,0h0C311.63,786.32,311.66,786.56,311.43,786.69Z"/><path class="cls-15" d="M320,781.76l-6.81,3.93a1,1,0,0,1-.91,0h0c-.27-.15-.3-.39-.06-.52l6.81-3.94a1,1,0,0,1,.91,0h0C320.19,781.39,320.21,781.62,320,781.76Z"/><ellipse class="cls-16" cx="342.97" cy="788.79" rx="4.14" ry="2.39" transform="matrix(1, 0, 0, 1, -3.19, 1.39)"/><ellipse class="cls-17" cx="346.21" cy="786.92" rx="4.14" ry="2.39" transform="translate(-3.18 1.41) rotate(-0.23)"/><path class="cls-36" d="M708.56,568.6v42.32c0,2.27-1.38,3.32-3.09,2.33l-11.88-6.86-5.72,4.33-5.72-10.93-11.88-6.86a7.41,7.41,0,0,1-3.1-5.91V544.71c0-2.28,1.39-3.33,3.1-2.34l35.2,20.33A7.38,7.38,0,0,1,708.56,568.6Z"/><path class="cls-35" d="M718.65,562.46v42.31c0,2.27-1.39,3.32-3.09,2.33l-11.89-6.86L698,604.57l-5.71-10.93-11.89-6.86a7.4,7.4,0,0,1-3.09-5.91V538.56c0-2.28,1.38-3.33,3.09-2.34l35.21,20.33A7.41,7.41,0,0,1,718.65,562.46Z"/><path class="cls-34" d="M730.55,556.31v42.31c0,2.28-1.38,3.32-3.09,2.34l-11.88-6.86-5.72,4.32-5.72-10.93-11.88-6.86a7.41,7.41,0,0,1-3.1-5.91V532.41c0-2.28,1.39-3.32,3.1-2.34l35.2,20.33A7.39,7.39,0,0,1,730.55,556.31Z"/><g id="like"><path class="cls-5" d="M656.35,582.18v-31.5c0-2.27,1.39-3.32,3.09-2.33l35.21,20.32a7.4,7.4,0,0,1,3.09,5.91v42.31c0,2.28-1.38,3.32-3.09,2.34l-11.88-6.86-5.72,4.32-5.72-10.93-11.89-6.86a7.41,7.41,0,0,1-3.09-5.91v-6.06"/><path class="cls-24" d="M676.92,576.85c-1.18-3.32-3.34-6.33-5.81-7.76-3.72-2.15-6.75.13-6.75,5.1,0,5.73,6.54,17.3,9.73,22.61,1,1.67,2.44,2.49,3.44,2,3.19-1.63,9.72-5.65,9.72-11.38,0-5-3-10.74-6.75-12.9-1.81-1-3.46-1-4.67-.18"/><path class="cls-6" d="M669.33,588.29c1.7,3.32,3.5,6.41,4.76,8.51,1,1.67,2.44,2.49,3.44,2,3.19-1.63,9.72-5.65,9.72-11.38,0-5-3-10.74-6.75-12.9-1.81-1-3.46-1-4.67-.18"/><path class="cls-6" d="M667.06,583.54c.09.19.17.38.26.58"/><path class="cls-6" d="M676.92,576.85c-1.18-3.32-3.34-6.33-5.81-7.76-3.72-2.15-6.75.13-6.75,5.1a17.61,17.61,0,0,0,1.09,5.26"/></g><g id="calendar"><polygon class="cls-5" points="559.62 738.17 598.35 760.53 560.53 782.37 521.8 760 559.62 738.17"/><polyline class="cls-23" points="532.54 766.21 521.8 760 559.62 738.17 570.37 744.37 543.01 760.16"/><line class="cls-23" x1="538.39" y1="762.83" x2="537.92" y2="763.1"/><text class="cls-52" transform="matrix(0.86, -0.5, 0.87, 0.5, 560.28, 773.52)">12</text><ellipse class="cls-7" cx="534.26" cy="758.01" rx="1.2" ry="2.09" transform="matrix(0.01, -1, 1, 0.01, -226.63, 1288.16)"/><ellipse class="cls-7" cx="555.74" cy="746.51" rx="1.13" ry="1.96" transform="translate(-193.77 1298.2) rotate(-89.69)"/></g><g id="battery"><polygon class="cls-4" points="756.16 641.95 756.16 645.65 752.64 647.23 756.16 641.95"/><path class="cls-4" d="M749.75,644.57l4.68,2.68,1.5-.93a.86.86,0,0,0,0-1.5l-2.22-1.28a2.16,2.16,0,0,0-2.13,0Z"/><path class="cls-4" d="M698.81,669.58l15.19,9a6.24,6.24,0,0,0,6.28,0l40.23-23.11c1.84-1.06,1.87-6.8.66-7.33L745.34,642a6.25,6.25,0,0,0-6.22,0l-40.66,20.2C696.75,663.39,697.1,668.56,698.81,669.58Z"/><path class="cls-4" d="M749.75,641.15l4.68,2.69,1.5-.94a.86.86,0,0,0,0-1.5l-2.22-1.28a2.16,2.16,0,0,0-2.13,0Z"/><path class="cls-5" d="M712.94,653.58l-14.1,8.1a2.59,2.59,0,0,0,0,4.48l15.19,9a6.22,6.22,0,0,0,6.28,0l40.23-23.11a2.76,2.76,0,0,0,0-4.78l-15.17-8.76a6.23,6.23,0,0,0-6.22,0l-23.07,13.25"/><polygon class="cls-4" points="751.79 647.28 722.38 652.81 729.27 656.78 710.97 663.37 739.94 657.81 732.89 653.74 751.79 647.28"/></g><path class="cls-4" d="M629.41,651.33l-4.95,2.85h0l4.95-2.85v-1.17h0s1.43-.87,2.34-.41L600.85,631.9a1.89,1.89,0,0,0-.93-.23,3.15,3.15,0,0,0-1.57.47h0l-35.18,20.31a3.14,3.14,0,0,0-1.24,1.17,1.64,1.64,0,0,0-.19.79h0v1.3h0a1.79,1.79,0,0,0,1,1.42l2.19,1.26h0l-1.76,1a3.09,3.09,0,0,0-1.24,1.18,1.63,1.63,0,0,0-.21.78,1.75,1.75,0,0,0,1,1.46l25.58,14.77a6.61,6.61,0,0,0,5.92-.25l34.86-20.11h0l.3-.16a5.52,5.52,0,0,0,2.51-4.32C631.91,651.17,630.79,650.53,629.41,651.33Z"/><path class="cls-23" d="M632.93,651.69a.57.57,0,0,0,0-.18,2.33,2.33,0,0,0,0-.28.17.17,0,0,0,0-.1,1.07,1.07,0,0,0-.09-.27l0-.1a2.49,2.49,0,0,0-.15-.28l0,0a1.69,1.69,0,0,0-.58-.58h0l0,0L600.85,631.9a1.89,1.89,0,0,0-.93-.23,3.15,3.15,0,0,0-1.57.47h0l-35.18,20.31a3.37,3.37,0,0,0-1.08.92c-.06.08-.11.17-.16.25a1.67,1.67,0,0,0-.21.79h0v1.3h0a1.79,1.79,0,0,0,1,1.42l2.19,1.26,23.39,13.51a6.61,6.61,0,0,0,5.92-.25l29.44-17,.79-.46h0l4.94-2.86a1.82,1.82,0,0,1,1.63-.24.11.11,0,0,1,.07,0,1.67,1.67,0,0,1,.8,1.63,5.49,5.49,0,0,1-2.5,4.31v0l-.31.19-2.3,1.32-32.57,18.79a6.61,6.61,0,0,1-5.92.25l-25.58-14.77a1.75,1.75,0,0,1-1-1.46h0v1.3h0a1.79,1.79,0,0,0,1,1.42l25.58,14.77a6.57,6.57,0,0,0,5.92-.25l35.14-20.3,0,0a7.89,7.89,0,0,0,3.54-6.15C633,652,632.94,651.83,632.93,651.69Z"/><path class="cls-53" d="M633.16,663.61l-29.25,11.28a4.58,4.58,0,0,1-4-.81L586.4,663.14c-1.09-.88-1-2,.09-2.4l29.25-11.28a4.58,4.58,0,0,1,4,.81l13.47,10.94C634.34,662.09,634.3,663.17,633.16,663.61Z"/><path class="cls-10" d="M602.44,665.9l-4,1.54a1.12,1.12,0,0,1-1-.2h0c-.27-.22-.26-.49,0-.6l4-1.54a1.12,1.12,0,0,1,1,.2h0C602.73,665.52,602.72,665.79,602.44,665.9Z"/><path class="cls-10" d="M608.68,663.49l-4,1.54a1.12,1.12,0,0,1-1-.2h0c-.27-.22-.26-.49,0-.59l4-1.54a1.12,1.12,0,0,1,1,.2h0C609,663.12,609,663.39,608.68,663.49Z"/><path class="cls-10" d="M614.92,661.09l-4,1.54a1.12,1.12,0,0,1-1-.2h0c-.27-.22-.26-.49,0-.6l4-1.54a1.12,1.12,0,0,1,1,.2h0C615.21,660.71,615.2,661,614.92,661.09Z"/><path class="cls-10" d="M621.16,658.68l-4,1.54a1.12,1.12,0,0,1-1-.2h0c-.28-.22-.27-.49,0-.6l4-1.53a1.12,1.12,0,0,1,1,.2h0C621.45,658.31,621.44,658.57,621.16,658.68Z"/><path class="cls-10" d="M615.05,665.22l-13.25,5.11a.62.62,0,0,1-.56-.12h0c-.15-.12-.15-.27,0-.33l13.25-5.11a.64.64,0,0,1,.56.11h0C615.21,665,615.21,665.16,615.05,665.22Z"/><path class="cls-7" d="M605.9,657.79l-13.25,5.11a.62.62,0,0,1-.56-.12h0c-.15-.12-.15-.27,0-.33l13.25-5.11a.64.64,0,0,1,.56.11h0C606.07,657.58,606.06,657.73,605.9,657.79Z"/><path class="cls-7" d="M611.73,655.54l-4.64,1.79a.67.67,0,0,1-.57-.11h0c-.15-.12-.14-.27,0-.34l4.64-1.79a.62.62,0,0,1,.56.12h0C611.89,655.33,611.89,655.48,611.73,655.54Z"/><ellipse class="cls-16" cx="625.34" cy="662.18" rx="1.51" ry="2.61" transform="translate(-122.16 1182.54) rotate(-81.48)"/><ellipse class="cls-17" cx="627.55" cy="661.33" rx="1.51" ry="2.61" transform="matrix(0.15, -0.99, 0.99, 0.15, -119.44, 1184)"/><path class="cls-5" d="M629.4,650.08a2.69,2.69,0,0,1,2.34-.35L600.85,631.9a1.89,1.89,0,0,0-.93-.23,3.15,3.15,0,0,0-1.57.47h0l-35.18,20.31a3.27,3.27,0,0,0-.36.25l-.23.17a2.08,2.08,0,0,0-.21.21,2,2,0,0,0-.25.26l0,0c-.06.08-.11.17-.16.25a.11.11,0,0,0,0,0c0,.07-.06.14-.09.2a2.33,2.33,0,0,0-.07.25,1.48,1.48,0,0,0,0,.19s0,.06,0,.1,0,.08,0,.12a.79.79,0,0,0,0,.22.9.9,0,0,0,.08.21c0,.06,0,.13.09.2s.13.16.2.24a1.42,1.42,0,0,0,.12.13,2.61,2.61,0,0,0,.45.33h0l11.4,6.58,14.18,8.19a4.08,4.08,0,0,0,.42.19,6.75,6.75,0,0,0,5.5-.44L622.67,654Z"/><path class="cls-4" d="M583.52,661.79c-5.74,1.39-10.83,5.14-10.9,7.74a3.91,3.91,0,0,0,0,.48l-4.31-2.29c-.69-.42-.77-.54-1.11-.75l-.13-.08c-3.08-2.1,3.2-9.07,8.32-9.81,1-.14,2.34-.43,3.34.14l4.57,2.65C584.25,660.43,584.46,661.56,583.52,661.79Z"/><path class="cls-54" d="M579.93,659.2a1.19,1.19,0,0,0-.73-1,4,4,0,0,0-3.52,0,1.19,1.19,0,0,0-.72,1h0v.52h0a1.17,1.17,0,0,0,.73,1,4.06,4.06,0,0,0,3.52,0,1.19,1.19,0,0,0,.72-1Z"/><ellipse class="cls-10" cx="577.44" cy="659.16" rx="1.38" ry="2.49" transform="translate(-84.62 1233.27) rotate(-89.71)"/><path class="cls-38" d="M157.31,810.64c-6.57,3.79-6.57,10,0,13.79s17.31,3.8,23.86,0,6.55-10,0-13.79S163.88,806.85,157.31,810.64Z"/><path class="cls-4" d="M165,795.17h8.15a0,0,0,0,1,0,0v19.29a2.44,2.44,0,0,1-2.44,2.44h-3.26a2.44,2.44,0,0,1-2.44-2.44V795.17a0,0,0,0,1,0,0Z"/><path class="cls-39" d="M183.22,794.27l-15-55.39c-14.53,59-13.39,54.37-13.68,55.66C153.81,805.12,182.83,807,183.22,794.27Z"/><path class="cls-40" d="M183.22,794.27c-.4,12.68-29.41,10.85-28.68.26a1.36,1.36,0,0,0,0-.17c8.69,3.43,23.29,1.78,22.45-7.42-1.44-12.58-5.71-30.87-8.65-46.48-2.23,9-4.24,16.38-6,22.33l5.89-23.91Z"/><path class="cls-6" d="M162,764.25l-.88,3.55c-7,28.44-6.33,25.72-6.56,26.74-.73,10.58,28.29,12.41,28.68-.27l-15-55.39-5.48,22.26"/><path class="cls-38" d="M113.16,820.53c-3.86,2.23-3.86,5.86,0,8.09a15.5,15.5,0,0,0,14,0c3.85-2.22,3.85-5.86,0-8.09A15.5,15.5,0,0,0,113.16,820.53Z"/><path class="cls-4" d="M117.66,811.46h4.78a0,0,0,0,1,0,0v11.31a1.43,1.43,0,0,1-1.43,1.43h-1.91a1.43,1.43,0,0,1-1.43-1.43V811.46a0,0,0,0,1,0,0Z"/><path class="cls-39" d="M128.35,810.93l-8.79-32.49c-8.52,34.62-7.86,31.89-8,32.65C111.1,817.3,128.12,818.37,128.35,810.93Z"/><path class="cls-40" d="M128.35,810.93c-.23,7.44-17.25,6.37-16.82.16a.62.62,0,0,1,0-.1c5.09,2,13.66,1,13.17-4.36-.85-7.38-3.35-18.11-5.08-27.27-1.31,5.31-2.48,9.62-3.54,13.1l3.45-14Z"/><path class="cls-6" d="M115.89,793.32l-.51,2.08c-4.11,16.69-3.71,15.09-3.85,15.69-.43,6.21,16.59,7.28,16.82-.16l-8.79-32.49c-1.26,5.13-2.32,9.44-3.22,13.06"/><path class="cls-38" d="M4.65,608.74c-6.2,3.57-6.2,9.42,0,13s16.32,3.59,22.5,0,6.18-9.42,0-13S10.85,605.16,4.65,608.74Z"/><path class="cls-4" d="M11.88,594.15h7.69a0,0,0,0,1,0,0v18.19a2.3,2.3,0,0,1-2.3,2.3H14.19a2.3,2.3,0,0,1-2.3-2.3V594.15A0,0,0,0,1,11.88,594.15Z"/><path class="cls-39" d="M29.09,593.29,14.94,541.06C1.24,596.72,2.31,592.34,2,593.55,1.34,603.53,28.71,605.25,29.09,593.29Z"/><path class="cls-40" d="M29.08,593.3c-.37,12-27.73,10.24-27,.25a.53.53,0,0,1,0-.16c8.19,3.23,22,1.67,21.17-7-1.36-11.87-5.38-29.12-8.16-43.84-2.1,8.53-4,15.45-5.7,21.06,1.51-6.13,3.34-13.55,5.55-22.54Z"/><path class="cls-6" d="M9.05,565l-.82,3.35c-6.61,26.82-6,24.26-6.2,25.22-.69,10,26.68,11.7,27.06-.26L14.94,541.06c-2,8.24-3.73,15.17-5.17,21"/><path class="cls-38" d="M8.29,640.89c-3.85,2.23-3.85,5.86,0,8.09a15.52,15.52,0,0,0,14,0c3.84-2.22,3.84-5.86,0-8.09A15.52,15.52,0,0,0,8.29,640.89Z"/><path class="cls-4" d="M12.8,631.82h4.78a0,0,0,0,1,0,0v11.31a1.43,1.43,0,0,1-1.43,1.43H14.23a1.43,1.43,0,0,1-1.43-1.43V631.82A0,0,0,0,1,12.8,631.82Z"/><path class="cls-39" d="M23.49,631.29,14.7,598.8c-8.53,34.62-7.86,31.89-8,32.65C6.24,637.66,23.26,638.73,23.49,631.29Z"/><path class="cls-40" d="M23.49,631.29c-.23,7.44-17.25,6.37-16.82.16a.87.87,0,0,1,0-.1c5.1,2,13.67,1,13.17-4.36-.85-7.38-3.34-18.11-5.07-27.27-1.31,5.31-2.49,9.62-3.54,13.1.93-3.81,2.07-8.42,3.45-14Z"/><path class="cls-6" d="M11,613.68l-.51,2.08c-4.11,16.69-3.72,15.09-3.85,15.69-.43,6.21,16.59,7.28,16.82-.16L14.7,598.8c-1.27,5.13-2.33,9.44-3.22,13.06"/><path class="cls-38" d="M34.73,621.69c-6.45,3.71-6.45,9.79,0,13.51s17,3.73,23.39,0,6.42-9.79,0-13.51S41.17,618,34.73,621.69Z"/><path class="cls-4" d="M42.25,606.52h8a0,0,0,0,1,0,0v18.91a2.4,2.4,0,0,1-2.4,2.4h-3.2a2.4,2.4,0,0,1-2.4-2.4V606.52a0,0,0,0,1,0,0Z"/><path class="cls-39" d="M60.13,605.64l-14.7-54.3C31.18,609.2,32.29,604.64,32,605.9,31.29,616.28,59.74,618.07,60.13,605.64Z"/><path class="cls-40" d="M60.12,605.64c-.38,12.43-28.83,10.64-28.11.26,0-.07,0-.12,0-.17,8.52,3.36,22.83,1.75,22-7.28-1.42-12.33-5.6-30.26-8.48-45.56-2.19,8.86-4.16,16.06-5.92,21.89,1.56-6.37,3.47-14.09,5.77-23.43Z"/><path class="cls-6" d="M39.3,576.21l-.86,3.48C31.58,607.57,32.23,604.9,32,605.9c-.72,10.38,27.73,12.17,28.12-.26l-14.7-54.3c-2.11,8.57-3.89,15.77-5.38,21.83"/><path class="cls-38" d="M287.05,425.11c-7.09,4.09-7.09,10.79,0,14.88s18.69,4.11,25.76,0,7.08-10.78,0-14.88S294.15,421,287.05,425.11Z"/><path class="cls-4" d="M295.34,408.41h8.8a0,0,0,0,1,0,0v20.82a2.64,2.64,0,0,1-2.64,2.64H298a2.64,2.64,0,0,1-2.64-2.64V408.41A0,0,0,0,1,295.34,408.41Z"/><path class="cls-39" d="M315,407.43l-16.19-59.79c-15.69,63.71-14.46,58.7-14.78,60.08C283.27,419.15,314.6,421.12,315,407.43Z"/><path class="cls-40" d="M315,407.44c-.42,13.68-31.75,11.71-31,.28a1.43,1.43,0,0,1,.05-.18c9.38,3.7,25.15,1.92,24.24-8-1.56-13.58-6.17-33.33-9.34-50.18-2.41,9.76-4.58,17.69-6.52,24.11,1.72-7,3.82-15.52,6.35-25.81Z"/><path class="cls-6" d="M292.09,375l-.94,3.84c-7.56,30.7-6.84,27.76-7.09,28.86-.79,11.43,30.54,13.4,31-.29l-16.19-59.79c-2.33,9.43-4.28,17.36-5.92,24"/><path class="cls-38" d="M315.46,428.72c-6,3.46-6,9.13,0,12.6s15.83,3.48,21.82,0,6-9.13,0-12.61S321.47,425.25,315.46,428.72Z"/><path class="cls-4" d="M322.48,414.57h7.45a0,0,0,0,1,0,0v17.63a2.23,2.23,0,0,1-2.23,2.23h-3a2.23,2.23,0,0,1-2.23-2.23V414.57A0,0,0,0,1,322.48,414.57Z"/><path class="cls-39" d="M339.15,413.75l-13.71-50.64c-13.28,54-12.24,49.71-12.51,50.88C312.26,423.67,338.79,425.34,339.15,413.75Z"/><path class="cls-40" d="M339.15,413.75c-.36,11.59-26.89,9.93-26.22.24a1.55,1.55,0,0,1,0-.15c7.94,3.13,21.3,1.62,20.53-6.79-1.33-11.51-5.22-28.23-7.91-42.5-2,8.27-3.88,15-5.53,20.42,1.47-6,3.24-13.14,5.39-21.86Z"/><path class="cls-6" d="M319.73,386.3l-.8,3.25c-6.4,26-5.79,23.51-6,24.44-.67,9.68,25.86,11.35,26.22-.24l-13.71-50.64c-2,8-3.62,14.71-5,20.35"/><path class="cls-38" d="M282.84,448.13c-3.77,2.18-3.77,5.74,0,7.92a15.23,15.23,0,0,0,13.7,0c3.76-2.17,3.76-5.74,0-7.92A15.2,15.2,0,0,0,282.84,448.13Z"/><path class="cls-4" d="M287.25,439.25h4.68a0,0,0,0,1,0,0v11.07a1.4,1.4,0,0,1-1.4,1.4h-1.87a1.4,1.4,0,0,1-1.4-1.4V439.25A0,0,0,0,1,287.25,439.25Z"/><path class="cls-39" d="M297.72,438.73l-8.61-31.79c-8.34,33.88-7.69,31.21-7.86,31.95C280.83,445,297.49,446,297.72,438.73Z"/><path class="cls-40" d="M297.71,438.74c-.22,7.27-16.88,6.23-16.46.15a.62.62,0,0,1,0-.1c5,2,13.37,1,12.88-4.26-.83-7.23-3.27-17.72-5-26.68-1.28,5.19-2.43,9.4-3.47,12.81l3.38-13.72Z"/><path class="cls-6" d="M285.52,421.5l-.5,2c-4,16.33-3.63,14.76-3.77,15.35-.42,6.08,16.24,7.12,16.47-.16l-8.61-31.79c-1.24,5-2.27,9.24-3.15,12.78"/><path class="cls-5" d="M494.6,274.65H511a2.14,2.14,0,0,1,2.14,2.14v3.45a2.18,2.18,0,0,1-2.18,2.18H494.6a0,0,0,0,1,0,0v-7.76a0,0,0,0,1,0,0Z" transform="translate(95.77 -127.57) rotate(15.93)"/><path class="cls-55" d="M483.23,815.26l22.51,7.58,2.61-9.92s-9.92-6.78-11.22-6.44Z"/><g id="note"><path class="cls-38" d="M484.09,815.26c3.55-2.37,20.59-4.52,22.44,7.93,4.6-12.6,6.82-19.49,6.82-19.49s-11.93-9.85-22-4.37C487.2,807.33,484.09,815.26,484.09,815.26Z"/><path class="cls-56" d="M488.88,811.48h0a.64.64,0,0,1-.34-.84c1.14-2.65,2.8-6.38,4.72-10.24a.64.64,0,0,1,.86-.29h0a.63.63,0,0,1,.28.85c-1.91,3.83-3.56,7.54-4.69,10.18A.64.64,0,0,1,488.88,811.48Z"/><path class="cls-56" d="M493,811h0a.64.64,0,0,1-.34-.83c1.09-2.56,2.68-6.18,4.61-10.05a.63.63,0,0,1,.85-.29h0a.63.63,0,0,1,.28.85c-1.9,3.85-3.49,7.44-4.57,10A.64.64,0,0,1,493,811Z"/><path class="cls-56" d="M497.11,811.32h0a.64.64,0,0,1-.34-.83c1.05-2.49,2.59-6,4.39-9.65a.63.63,0,0,1,.85-.29h0a.64.64,0,0,1,.28.85c-1.79,3.65-3.31,7.12-4.36,9.58A.63.63,0,0,1,497.11,811.32Z"/><path class="cls-56" d="M501.15,812.51h0a.63.63,0,0,1-.35-.82c.86-2.05,2.37-5.53,4.24-9.42a.64.64,0,0,1,.85-.3h0a.65.65,0,0,1,.29.85c-1.86,3.86-3.35,7.32-4.21,9.36A.62.62,0,0,1,501.15,812.51Z"/><path class="cls-56" d="M504.56,814.89h0a.63.63,0,0,1-.34-.83c.9-2.15,2.49-5.83,4.44-9.86a.63.63,0,0,1,.85-.29h0a.64.64,0,0,1,.29.85c-1.94,4-3.52,7.65-4.41,9.8A.63.63,0,0,1,504.56,814.89Z"/></g><g id="note-2" data-name="note"><path class="cls-55" d="M417.07,836.16l-2.32,1.7L439,845.41a1.12,1.12,0,0,0,1.43-.8c.68-2.81,3.42-11.34,3.31-11.38S421.18,830,421.18,830Z"/><path class="cls-38" d="M414.53,837.14l6.39-12.21s13.21,7.81,25.42,1.28c-3.55,10.93-6,13.77-6,13.77s-4.12,4-12.5,1.71A94.31,94.31,0,0,1,414.53,837.14Z"/><rect class="cls-56" x="416.97" y="832.08" width="9.85" height="1.25" rx="0.63" transform="translate(-511.51 820.24) rotate(-62.37)"/><rect class="cls-56" x="420.97" y="833.06" width="9.65" height="1.25" rx="0.63" transform="translate(-510.29 824.22) rotate(-62.37)"/><rect class="cls-56" x="425.21" y="834.24" width="9.68" height="1.25" rx="0.63" transform="translate(-508.8 857.33) rotate(-64.12)"/><rect class="cls-56" x="431.05" y="836.55" width="5.27" height="1.25" rx="0.63" transform="translate(-501.8 954.74) rotate(-69.78)"/></g><g id="cloud"><path class="cls-7" d="M474.62,65.52a32.33,32.33,0,0,0-56.84-12A43.94,43.94,0,1,0,435.91,116a17.95,17.95,0,0,0,16.91-11.69A32.35,32.35,0,0,0,474.62,65.52Z"/><path class="cls-38" d="M449.43,101.89a1.16,1.16,0,0,0-.7.67,15.29,15.29,0,0,1-10.43,9,15.92,15.92,0,0,1-3.19.45,1.17,1.17,0,0,0-.95.53A37.5,37.5,0,0,1,390.73,128a1.17,1.17,0,0,1,.35-2.29,37.52,37.52,0,0,0,31.68-17.34,1.17,1.17,0,0,1,.95-.53,16.13,16.13,0,0,0,3.19-.45,15.3,15.3,0,0,0,10.42-9,1.18,1.18,0,0,1,.71-.67,27.6,27.6,0,0,0,10.34-46.21,1.17,1.17,0,0,1,1.15-2,27.6,27.6,0,0,1-.09,52.38Z"/><path class="cls-6" d="M429.11,44.29a32.12,32.12,0,0,0-11.33,9.18,43.94,43.94,0,0,0-63.1,43"/><path class="cls-6" d="M436.35,41.79l-1,.23"/><path class="cls-6" d="M355.87,103.63a43.93,43.93,0,0,0,80,12.34,17.95,17.95,0,0,0,16.91-11.69A32.34,32.34,0,0,0,443.27,41"/></g><g id="cloud-2" data-name="cloud"><path class="cls-7" d="M498.68,287.28a32.34,32.34,0,0,0-56.84-12.06A43.95,43.95,0,1,0,460,337.73,18,18,0,0,0,476.89,326,32.34,32.34,0,0,0,498.68,287.28Z"/><path class="cls-38" d="M473.5,323.65a1.19,1.19,0,0,0-.71.66,15.25,15.25,0,0,1-10.42,9,15.44,15.44,0,0,1-3.19.46,1.14,1.14,0,0,0-.95.53,37.5,37.5,0,0,1-43.43,15.43,1.17,1.17,0,0,1,.35-2.29,37.83,37.83,0,0,0,9.19-1.13,37.42,37.42,0,0,0,22.49-16.21,1.17,1.17,0,0,1,.94-.54,14.78,14.78,0,0,0,3.2-.45,15.27,15.27,0,0,0,10.42-9,1.16,1.16,0,0,1,.71-.66,27.6,27.6,0,0,0,10.33-46.22,1.17,1.17,0,0,1,1.16-2,27.6,27.6,0,0,1-.09,52.38Z"/><path class="cls-6" d="M453.17,266.05a32.29,32.29,0,0,0-11.33,9.17,43.94,43.94,0,0,0-63.09,43"/><path class="cls-6" d="M460.42,263.55c-.33.07-.65.14-1,.23"/><path class="cls-6" d="M379.94,325.39a43.93,43.93,0,0,0,80,12.34A18,18,0,0,0,476.89,326a32.35,32.35,0,0,0-9.56-63.24"/></g><g id="cloud-3" data-name="cloud"><path class="cls-7" d="M376.38,184.2a42.93,42.93,0,0,0-75.46-16,58.34,58.34,0,1,0,24.08,83,24.15,24.15,0,0,0,5.92-.72,23.76,23.76,0,0,0,16.52-14.8A42.94,42.94,0,0,0,376.38,184.2Z"/><path class="cls-38" d="M343,232.48a1.52,1.52,0,0,0-.94.88,20.28,20.28,0,0,1-13.84,12,20.83,20.83,0,0,1-4.24.6,1.51,1.51,0,0,0-1.25.7A49.78,49.78,0,0,1,265,267.12a1.55,1.55,0,0,1,.46-3,49.9,49.9,0,0,0,42.06-23,1.53,1.53,0,0,1,1.26-.71,20.64,20.64,0,0,0,4.23-.6,20.28,20.28,0,0,0,13.84-12,1.57,1.57,0,0,1,.94-.88,36.64,36.64,0,0,0,13.72-61.35,1.55,1.55,0,0,1,1.53-2.61,36.65,36.65,0,0,1-.11,69.54Z"/><path class="cls-6" d="M316,156a42.76,42.76,0,0,0-15,12.17,58.34,58.34,0,0,0-83.76,57.05"/><path class="cls-6" d="M325.58,152.69l-1.29.31"/><path class="cls-6" d="M218.74,234.79A58.32,58.32,0,0,0,325,251.17a24.15,24.15,0,0,0,5.92-.72,23.76,23.76,0,0,0,16.52-14.8,42.94,42.94,0,0,0-12.68-84"/></g><g id="cloud-4" data-name="cloud"><path class="cls-7" d="M110.86,197.25a49.91,49.91,0,0,0-41.42,22.3c-1-.09-1.92-.16-2.9-.16-18.69,0-33.84,15.83-33.84,35.35a36.66,36.66,0,0,0,.89,7.91c-13.3.9-23.83,13-23.83,27.78,0,15.39,11.37,27.86,25.4,27.86A24.56,24.56,0,0,0,54.86,308a26.82,26.82,0,0,0,10.26,2.08c10.28,0,19.29-5.85,24.48-14.66a49.11,49.11,0,0,0,21.26,4.82c27.77,0,50.29-23.06,50.29-51.5S138.63,197.25,110.86,197.25Z"/><path class="cls-38" d="M135.09,208.55a1.28,1.28,0,0,0-1.74,1.84A44.71,44.71,0,0,1,144,239.46c0,24.46-19.36,44.29-43.24,44.29a42.11,42.11,0,0,1-17.27-3.68,1.27,1.27,0,0,0-1.59.48c-4.54,7.05-12,11.66-20.46,11.66a22.75,22.75,0,0,1-8-1.45,1.28,1.28,0,0,0-1.44.4,21,21,0,0,1-16.37,8.1c-9.46,0-17.5-6.62-20.53-15.86a.56.56,0,0,0-1.08.09c-2,15.63,9.15,29.55,23.51,29.55a22.85,22.85,0,0,0,17.83-8.86,1.29,1.29,0,0,1,1.45-.4,24.83,24.83,0,0,0,8.71,1.6c9.23,0,17.37-5,22.29-12.75a1.27,1.27,0,0,1,1.59-.48,45.81,45.81,0,0,0,18.86,4c25.95,0,47-21.54,47-48.13A48.39,48.39,0,0,0,135.09,208.55Z"/><path class="cls-6" d="M32.61,318.24c.54,0,1.09.05,1.64.05A24.56,24.56,0,0,0,53.94,308a26.83,26.83,0,0,0,10.27,2.08c10.27,0,19.29-5.85,24.48-14.66a49,49,0,0,0,21.25,4.82c27.78,0,50.29-23.06,50.29-51.5s-22.51-51.51-50.29-51.51A49.46,49.46,0,0,0,97,199"/><path class="cls-6" d="M22.15,314.65c.59.29,1.19.56,1.8.8"/><path class="cls-6" d="M89.28,201.79a50.8,50.8,0,0,0-20.76,17.76c-1-.09-1.92-.16-2.9-.16-18.68,0-33.83,15.83-33.83,35.35a36.66,36.66,0,0,0,.88,7.91c-13.29.9-23.83,13-23.83,27.78a29.35,29.35,0,0,0,6.64,18.79"/></g><g id="iphone"><path class="cls-57" d="M134.85,691.85,258.39,765a33.79,33.79,0,0,0,34.06.22l82.32-47.29"/><path class="cls-57" d="M392.83,707.53,629.77,571.41a14.15,14.15,0,0,0,0-24.53L490.68,466.56a33.82,33.82,0,0,0-33.75,0L121.35,659.3a14.16,14.16,0,0,0-.16,24.46L130,689"/><path class="cls-58" d="M392.83,689.55,629.77,553.43a14.15,14.15,0,0,0,0-24.53L490.68,448.58a33.82,33.82,0,0,0-33.75,0L121.35,641.32a14.16,14.16,0,0,0-.16,24.46L130,671"/><path class="cls-58" d="M134.85,673.87,258.39,747a33.79,33.79,0,0,0,34.06.23l82.32-47.3"/><path class="cls-38" d="M121.47,600.93c-17.39,11-17,37.44,1,48.08l135.38,80.84a35.72,35.72,0,0,0,36,.24l335.06-192.5c18-10.36,18.38-34.62,3-47.13"/><path class="cls-6" d="M216.91,705.4l41,24.45a35.72,35.72,0,0,0,36,.24l335.06-192.5c18-10.36,18.56-34.62,3.17-47.13"/><path class="cls-6" d="M121.47,600.93c-17.39,11-17,37.44,1,48.08L192,690.5"/><path class="cls-7" d="M121.91,600.67a14.16,14.16,0,0,0-.16,24.46L259,706.34a33.81,33.81,0,0,0,34.07.22L630.34,512.78a14.15,14.15,0,0,0,0-24.53L491.24,407.93a33.79,33.79,0,0,0-33.75,0Z"/><path class="cls-5" d="M135.42,633.22,259,706.34a33.81,33.81,0,0,0,34.07.22l82.32-47.29"/><polyline class="cls-59" points="240.61 543.82 452.01 423.79 487.96 444.27"/><path class="cls-6" d="M213.93,659.36c.46-.08.92-.18,1.37-.28"/><path class="cls-6" d="M191.85,646.57c-1.85,3.5-.38,7.47,4.39,10.23a25.74,25.74,0,0,0,12.76,3"/><path class="cls-6" d="M222.14,656.28c6-4,5.69-10.11-.87-13.92-6.88-4-18.14-4-25,0a14,14,0,0,0-2.23,1.58"/><path class="cls-5" d="M391.21,650.07,630,512.29a14.19,14.19,0,0,0,.15-24.57L490.87,407.44a33.79,33.79,0,0,0-33.75,0L121.54,600.18a14.16,14.16,0,0,0-.16,24.46l8.81,5.21"/><polygon class="cls-60" points="610.2 512.41 310.43 682.57 156.72 592.06 454.5 422.01 610.2 512.41"/><line class="cls-5" x1="383.1" y1="654.75" x2="384.03" y2="654.21"/><line class="cls-6" x1="559.2" y1="465.18" x2="529.68" y2="448.14"/><path class="cls-61" d="M216.25,705l41.61,24.84a35.72,35.72,0,0,0,36,.24l335.06-192.5c14.84-8.52,20.34-28.35,6.08-45.29-4.08-4.85-2.53-3.62-79.47-47.3-96.39-54.71-69.32-54.5-154.75-5.38C117.47,602.51,119.52,598.51,114.33,606.47c-9.83,15.07-5.25,34.59,8.15,42.54l73.84,44.09"/><line class="cls-62" x1="205.72" y1="698.72" x2="206.71" y2="699.31"/></g><line class="cls-6" x1="351.96" y1="312.64" x2="351.96" y2="315.03"/><path class="cls-2" d="M334.18,348.37a11.19,11.19,0,0,0,1.33-1.68c3.44-5.23,4.12-14.06,1.51-19.71-1.34-2.89-3.28-4.39-5.32-4.47l-2.57-.19c-2.05-.24-4.22,1-6,3.68-3.45,5.24-4.13,14.06-1.51,19.71,1.29,2.81,3.15,4.3,5.12,4.46h0l2.92.21h0a5.12,5.12,0,0,0,3.36-1"/><path class="cls-2" d="M335.37,339.1a19.58,19.58,0,0,1-2.72,7.29c-3.45,5.23-8.36,4.89-11-.76s-1.94-14.48,1.51-19.71,8.35-4.89,11,.76a20.66,20.66,0,0,1,1.53,9.88"/><path class="cls-2" d="M335.55,337.9V338"/><ellipse class="cls-3" cx="327.92" cy="336.15" rx="11.94" ry="6.64" transform="translate(-33.29 636.26) rotate(-85.43)"/><path class="cls-2" d="M330.64,334.55l-1.64,1.7a3.43,3.43,0,0,1-.9,2.95c-.92.95-1.78.51-2.29-1.27a4.53,4.53,0,0,1,.67-4.35c.77-.79,1.44-.62,1.81.23l1.64-1.7c-.61-1.79-2-2.17-3.59-.8l-.42-1.46L324.8,331l.43,1.5a8.53,8.53,0,0,0-1.21,7.26c.73,2.57,2.18,3.26,3.86,2l.41,1.4,1.12-1.16-.39-1.36A7.3,7.3,0,0,0,330.64,334.55Z"/><path class="cls-2" d="M274.91,315.58a14.9,14.9,0,0,0,2,2.13c6.31,5.7,18,8.43,26.14,6.08,4.16-1.2,6.57-3.49,7.09-6.21l.79-3.42c.74-2.69-.45-5.86-3.71-8.81-6.31-5.7-18-8.43-26.14-6.08-4,1.16-6.42,3.35-7,6h0l-.9,3.88h0a6.92,6.92,0,0,0,.67,4.72"/><path class="cls-2" d="M287.11,319.09a26.77,26.77,0,0,1-9.23-5.16c-6.31-5.7-4.84-12.22,3.28-14.56s19.83.38,26.14,6.08S312.15,317.67,304,320a28.06,28.06,0,0,1-13.58,0"/><path class="cls-2" d="M288.68,319.58l-.12,0"/><ellipse class="cls-3" cx="292.59" cy="309.69" rx="9.02" ry="16.21" transform="translate(-76.07 523.25) rotate(-76.71)"/><path class="cls-2" d="M294.18,313.67l-1.94-2.55a4.65,4.65,0,0,1-3.78-1.82c-1.08-1.41-.31-2.49,2.19-2.81s4.62.4,5.69,1.81c.9,1.19.53,2.06-.68,2.38l1.94,2.55c2.53-.45,3.33-2.22,1.81-4.66l2-.26-1.33-1.74-2.1.27a11.51,11.51,0,0,0-9.49-3.12c-3.6.45-4.82,2.26-3.51,4.77l-2,.25,1.32,1.74,1.91-.24A9.88,9.88,0,0,0,294.18,313.67Z"/><path class="cls-2" d="M374.22,316.34a9.1,9.1,0,0,0,1.61.1,17,17,0,0,0,12.78-7.6c1.2-2.07,1.28-3.92.45-5.2l-1-1.67c-.74-1.36-2.43-2.17-4.86-2.1a17,17,0,0,0-12.78,7.6c-1.16,2-1.28,3.8-.53,5.08h0l1.13,1.89h0a3.85,3.85,0,0,0,2.08,1.62"/><path class="cls-2" d="M380.44,313.07a14.55,14.55,0,0,1-5.67,1.47c-4.71.15-6.62-3-4.27-7.07a17,17,0,0,1,12.78-7.6c4.71-.14,6.62,3,4.27,7.08a15.49,15.49,0,0,1-5.41,5.21"/><path class="cls-2" d="M381.25,312.66l-.06,0"/><ellipse class="cls-3" cx="379.03" cy="307.21" rx="8.98" ry="4.99" transform="translate(-103.52 235.18) rotate(-30.54)"/><path class="cls-2" d="M381.19,308.19l-1.76-.28a2.56,2.56,0,0,1-2.2.73c-1-.16-1.08-.88-.21-2a3.39,3.39,0,0,1,3-1.47c.82.13,1,.62.64,1.21l1.76.28c.83-1.15.47-2.16-1.07-2.55l.72-.89-1.2-.19-.74.91a6.37,6.37,0,0,0-5,2.4c-1.26,1.56-1.05,2.75.43,3.25l-.69.85,1.2.19.67-.83A5.47,5.47,0,0,0,381.19,308.19Z"/><path class="cls-4" d="M413.14,191.23q-2.46-.79-5-1.73c-70.76-26.21-.84-31.63-.84-31.63s-1.71-5.61-.79-5.59c.76,0,39.75,3.56,55.17,5.07,3.68.36,6,.61,6.17.67.83.3,24.23-9.94,24.23-9.94C497.17,170.39,470.85,209.91,413.14,191.23Z"/><path class="cls-38" d="M462.94,170.67l0,0-2.07.81L426,152.21l-25.8-14.3c26.42,8.07,68.1,20.89,96.9-23.49a1.47,1.47,0,0,1,1.5-.68,1.49,1.49,0,0,1,1.24,1.08C504.08,128.67,500.7,155.44,462.94,170.67Z"/><path class="cls-6" d="M460.84,171.5l2.07-.81,0,0c37.76-15.23,41.14-42,36.94-55.85a1.49,1.49,0,0,0-1.24-1.08,1.47,1.47,0,0,0-1.5.68c-28.8,44.38-70.48,31.56-96.9,23.49"/><path class="cls-63" d="M498.64,113.74c-13.82,29.48-37.95,35.79-71.22,38.37l-1.38.1-25.8-14.3c26.42,8.07,68.1,20.89,96.9-23.49A1.47,1.47,0,0,1,498.64,113.74Z"/><path class="cls-63" d="M462.94,170.67c37.16-23.95,32.51-40.84,35.7-56.93a1.49,1.49,0,0,1,1.24,1.08C504.08,128.67,500.7,155.44,462.94,170.67Z"/><path class="cls-63" d="M413.14,191.23c3-1,7.26-1,13.12.35,36.14,8.09,46.32-15.7,34.85-20.18l1.8-.71,0,0c14.23-5.74,23.58-13.12,29.48-20.83C495.79,172.4,469.36,209.43,413.14,191.23Z"/><ellipse class="cls-4" cx="479.51" cy="236.41" rx="39.44" ry="34.03" transform="translate(-19.5 428.28) rotate(-47.28)"/><path class="cls-5" d="M481.16,287.66h16.4a2.14,2.14,0,0,1,2.14,2.14v3.45a2.18,2.18,0,0,1-2.18,2.18H481.16a0,0,0,0,1,0,0v-7.76A0,0,0,0,1,481.16,287.66Z" transform="translate(98.83 -123.39) rotate(15.93)"/><path class="cls-5" d="M374.15,280.93a7.51,7.51,0,0,1,.17-10.59l67.56-65.41a21.3,21.3,0,0,1,20.48-5.19l73.31,20.52a7.35,7.35,0,0,1,3.35,2,7.5,7.5,0,0,1-.17,10.59l-67.2,65.06a21.3,21.3,0,0,1-20.37,5.23l-73.74-20.2A7.37,7.37,0,0,1,374.15,280.93Z"/><path class="cls-5" d="M426,230.69,382.55,272.8a5.63,5.63,0,0,0-1.1,6.6l5.23,10.22,38-2.95,114.05-45.53-3.92-10.57a6.51,6.51,0,0,0-4.35-4L460.35,207a13.79,13.79,0,0,0-13.26,3.36l-16.64,16.11"/><path class="cls-4" d="M538,244,525.44,256l-5,4.82L480.77,299.1l-5.26,5.07-3,2.88-.88.85a13.82,13.82,0,0,1-13.18,3.38l-34.88-9.88-5.68-1.6h0l-19.73-5.58h0l-4.08-1.16-4.32-1.21a4.57,4.57,0,0,1-1.93-7.69L452.35,222a13.82,13.82,0,0,1,13.26-3.35L496,227.4l12.13,3.49,28.6,8.21A2.89,2.89,0,0,1,538,244Z"/><path class="cls-4" d="M471,258.65c-5.85-.46-13.4,3.07-16.78,7.84s-1.39,9.1,4.41,9.63,13.36-3,16.78-7.84S476.87,259.11,471,258.65Z"/><g class="cls-64"><path class="cls-5" d="M283.46,230.65l60,14.52a2.24,2.24,0,0,0,2.69-2.73l-18.83-72.75-67.53.77,18.72,55.6A7,7,0,0,0,283.46,230.65Z"/><path class="cls-5" d="M289.27,227l60,14.52a2.23,2.23,0,0,0,2.68-2.73L333.08,166l-67.53.77,18.71,55.61A7,7,0,0,0,289.27,227Z"/><path class="cls-5" d="M288.22,223.61,348.17,236a2.24,2.24,0,0,0,2.69-2.73L332,160.56l-67.53.77L283.22,219A7,7,0,0,0,288.22,223.61Z"/><path class="cls-5" d="M301.56,227.45,361.51,242a2.24,2.24,0,0,0,2.69-2.73l-18.83-67.53-67.53.77,18.72,50.38A7,7,0,0,0,301.56,227.45Z"/><path class="cls-5" d="M300.48,223.82l59.95,10.34a2.23,2.23,0,0,0,2.69-2.73l-18.83-68.57-67.53.77,18.72,55.61A7,7,0,0,0,300.48,223.82Z"/></g><path class="cls-63" d="M312.06,227s11.89,23.13,7.88,34.76c10.21,2.46,32.7-.13,32.7-.13S331.05,229.06,330,228.15s-13-6.07-13-6.07"/><line class="cls-6" x1="341.85" y1="290.38" x2="341.85" y2="299.66"/><line class="cls-6" x1="361.12" y1="285.08" x2="361.12" y2="301.11"/><line class="cls-6" x1="351.96" y1="287.28" x2="351.96" y2="308.33"/><path class="cls-4" d="M273.51,118.44q-7.23-3.31-14.49-6.6l-4.39-2c-4.13-1.85-6.77-3-7-3-1.07-.18-19.73-25.35-19.73-25.35-19,20.65-6.9,76,65.91,91.32"/><path class="cls-38" d="M276,121s14.16-6.93,7.81-10.42c-21-11.52-38.68-31.21-40.72-68a1.88,1.88,0,0,0-3.17-1.25c-12.91,12.18-25.63,42.74,5.27,82,0,0,0,0,0,0l1.71,2.12,22.41-4.81Z"/><path class="cls-6" d="M254.22,82.66c-6.13-10.45-10.22-23.54-11.14-40.1a1.88,1.88,0,0,0-3.17-1.25c-12.91,12.18-25.63,42.74,5.27,82,0,0,0,0,0,0l1.71,2.12"/><path class="cls-6" d="M257.14,87.22l-.39-.56"/><path class="cls-6" d="M292.85,115c-12-5.18-23.44-12.47-32.38-23.37"/><path class="cls-7" d="M239.9,42.86c-2.42,31.21,18,63.42,32.61,69.19,25.21,9.25,13.42,2.35,9.34.11-20.91-11.45-38.55-31-40.75-67.67A1.82,1.82,0,0,0,239.9,42.86Z"/><path class="cls-63" d="M245.18,123.28c-25-48.15-9.71-63.29-3.29-82.35a1.83,1.83,0,0,0-2,.38C227,53.49,214.28,84.05,245.18,123.28Z"/><path class="cls-63" d="M293.84,172.78c-2.61-2.85-5.52.16-13.27-4-40.06-21.42-48.83-45.86-33.88-43.63l-1.49-1.86s0,0,0,0c-11.64-14.79-17.1-28.34-18.67-40.15C209.17,105.09,222.91,157.88,293.84,172.78Z"/><path class="cls-7" d="M225.72,87c-2.61,9.2-3.56,24-1,35.15C224.76,122.12,216.55,102,225.72,87Z"/><g id="safe"><path class="cls-5" d="M275.8,243.32a2.07,2.07,0,0,1,2-.5l10.7,3.07a.43.43,0,0,1,.18.73l-10,9.62a2.09,2.09,0,0,1-2,.51l-10.34-2.92a.69.69,0,0,1-.29-1.16Z"/><path class="cls-5" d="M341.69,260.93a2.07,2.07,0,0,1,2-.5l10.7,3.07a.43.43,0,0,1,.18.73l-10,9.62a2.08,2.08,0,0,1-2,.51l-10.33-2.92a.69.69,0,0,1-.29-1.16Z"/><path class="cls-7" d="M442.05,185.37l-172.48,50.8-11.21,3.3-20.81-78.89c-1.49-6-4.62-13.83,2.52-20.74l67.55-65.41a28.73,28.73,0,0,1,22.34-8,28,28,0,0,1,5.38,1l73.31,20.52c6.42,1.8,9,6.18,10.78,11.72Z"/><path class="cls-38" d="M338.76,151.06c-4.75,9.53-14.2,12.72-14.31,28.4-.07,9.73,5,3.09-8.25,15.85-25.46,24.53-18.92,18-33.9,28.91-1.57,1.14-20.45,15.47-22.06,9.35l-2.9-11c-13-49.3-17.35-68.5-16.38-72.91s1.46-5.68,8.4-12.49h0c15.13-14.84,33.5-32.71,48.07-46.77C324.53,64.26,319.55,73.33,323,85c.47,1.61,1,3.45,1.63,5.46C340.36,142.75,343.13,142.27,338.76,151.06Z"/><path class="cls-65" d="M338.76,151.06c-4.75,9.53-14.2,12.72-14.31,28.4-.07,9.73,5,3.09-8.25,15.85-25.46,24.53-18.92,18-33.9,28.91-1.57,1.14-20.45,15.47-22.06,9.35l-2.9-11c-13-49.3-17.35-68.5-16.38-72.91s1.46-5.68,8.4-12.49h0c15.13-14.84,33.5-32.71,48.07-46.77C324.53,64.26,319.55,73.33,323,85c.47,1.61,1,3.45,1.63,5.46C340.36,142.75,343.13,142.27,338.76,151.06Z"/><line class="cls-6" x1="304.08" y1="76.48" x2="304.58" y2="76"/><path class="cls-6" d="M239.89,168.05l-2.34-8.85c-1.49-6-4.62-13.84,2.52-20.74l57.48-55.65"/><path class="cls-6" d="M308.27,72.45A28.66,28.66,0,0,1,330,65.07a27.27,27.27,0,0,1,5.38,1l73.31,20.52c6.42,1.79,9,6.18,10.78,11.72L442.05,184,269.57,234.79l-11.21,3.3-16.87-64"/><path class="cls-5" d="M321.28,263.74l-52.2-14.29a15,15,0,0,1-6.45-25.16l67.56-65.41a28.71,28.71,0,0,1,27.71-7l73.3,20.51a15,15,0,0,1,6.37,25.14l-67.2,65.07a28.7,28.7,0,0,1-27.55,7.06l-16.76-4.59"/><path class="cls-38" d="M314.72,184.28l20.67-20a21.29,21.29,0,0,1,20.49-5.19l73.31,20.51a7.33,7.33,0,0,1,3.35,2,7.51,7.51,0,0,1-.17,10.59l-67.2,65.06a21.33,21.33,0,0,1-20.37,5.22l-73.74-20.19a7.36,7.36,0,0,1-3.39-2,7.51,7.51,0,0,1,.17-10.6l41.89-40.55"/><path class="cls-7" d="M314.72,184.28l20.67-20a21.29,21.29,0,0,1,20.49-5.19l73.31,20.51a7.33,7.33,0,0,1,3.35,2,7.51,7.51,0,0,1-.17,10.59l-67.2,65.06a21.33,21.33,0,0,1-20.37,5.22l-73.74-20.19a7.36,7.36,0,0,1-3.39-2,7.51,7.51,0,0,1,.17-10.6l41.89-40.55"/><path class="cls-6" d="M314.72,184.28l20.67-20a21.29,21.29,0,0,1,20.49-5.19l73.31,20.51a7.33,7.33,0,0,1,3.35,2,7.51,7.51,0,0,1-.17,10.59l-67.2,65.06a21.33,21.33,0,0,1-20.37,5.22l-73.74-20.19a7.36,7.36,0,0,1-3.39-2,7.51,7.51,0,0,1,.17-10.6l41.89-40.55"/><path class="cls-5" d="M390,244.42c-1.75-.86-2.53-.1-1.73,1.68a11.51,11.51,0,0,0,4.65,4.8c1.75.86,2.53.11,1.73-1.67A11.53,11.53,0,0,0,390,244.42Z"/><path class="cls-4" d="M376.12,267.19a11.57,11.57,0,0,1-4.65-4.8c-.83-1.84-1.6-.41,16.7-18.14l6.63,6.85C376.29,269,377.93,268.08,376.12,267.19Z"/><path class="cls-5" d="M431.13,204.62c-1.75-.86-2.53-.11-1.73,1.68a11.57,11.57,0,0,0,4.65,4.8c1.75.86,2.53.11,1.73-1.68A11.45,11.45,0,0,0,431.13,204.62Z"/><path class="cls-4" d="M417.23,227.39a11.53,11.53,0,0,1-4.65-4.81c-.83-1.84-1.6-.41,16.7-18.13l6.63,6.84C417.4,229.21,419,228.27,417.23,227.39Z"/><line class="cls-5" x1="355.58" y1="259.85" x2="329.41" y2="170.05"/></g><path class="cls-2" d="M399.88,263.52a15.82,15.82,0,0,0,2.63-1.19c7.38-4.15,13.65-14.33,14-22.73.18-4.3-1.22-7.3-3.62-8.65l-3-1.83c-2.31-1.55-5.67-1.43-9.48.71-7.38,4.15-13.65,14.32-14,22.72-.18,4.17,1.13,7.12,3.39,8.52h0l3.37,2.07h0a6.83,6.83,0,0,0,4.66.86"/><path class="cls-2" d="M407.05,253.13a26.63,26.63,0,0,1-7.79,7.06c-7.37,4.15-13.06.7-12.69-7.7s6.64-18.58,14-22.73,13.06-.7,12.7,7.71a27.87,27.87,0,0,1-4.29,12.8"/><path class="cls-2" d="M408,251.8l-.07.1"/><ellipse class="cls-3" cx="399.92" cy="244.98" rx="16.13" ry="8.97" transform="matrix(0.53, -0.85, 0.85, 0.53, -19.21, 455.39)"/><path class="cls-2" d="M404.18,244.74l-3,1a4.62,4.62,0,0,1-2.91,3c-1.68.57-2.45-.49-2-2.95s1.84-4.23,3.5-4.79c1.41-.48,2.12.14,2,1.39l3-1c.37-2.52-1-3.84-3.82-3.18l.4-2-2.06.7L399,239a11.43,11.43,0,0,0-5.94,8c-.71,3.53.6,5.26,3.38,4.82l-.39,1.94,2.07-.7.37-1.88A9.81,9.81,0,0,0,404.18,244.74Z"/><g id="shield"><path class="cls-66" d="M469.47,125.05l-2.46-5.4c18.43-23.55,22.35-46.74,23-58.62,2.08-2.47,4.83-5.77,4.83-5.77l-5.26-3.65c-3.25,1-5.49,2.09-7.51,1l.69-3.24-5.26-3.66s-2.73-.68-12.54,5l-1.56.91c-9.81,5.66-12.57,9.52-12.57,9.52A36.49,36.49,0,0,1,438.79,81S436.2,122.8,465.23,124l.08.17c.5-.6.3-2.79.78-3.39Z"/><path class="cls-4" d="M444.48,97.38c1.54,11.56,7,26.9,25,27.67h0c29-34.76,25.42-69.78,25.42-69.78-6.51,2.08-10.59-.71-12.08-5.89,0,0-2.73-.69-12.54,5l-1.57.9c-9.8,5.67-12.56,9.52-12.56,9.52a36.48,36.48,0,0,1-12.08,19.85,56.87,56.87,0,0,0-.1,6.53"/><path class="cls-31" d="M472.25,91.53c7.27-3.93,12.22-6.4,20.13-13.84-2,11.64-7.3,27.56-20.1,43.85l0-24.09"/><path class="cls-5" d="M472.22,83.68V62.22l-.89.52a54.5,54.5,0,0,0-9.15,6.34,47.38,47.38,0,0,1-11.36,19.39A58.5,58.5,0,0,0,452.08,101C460,99.26,465,96,472.22,91.55"/></g><path class="cls-5" d="M375.32,268.53a5.69,5.69,0,0,1-2.81,4.93l-45,13a1.34,1.34,0,0,1-2-1.15s5.87-41.29-10.17-64.17a18.86,18.86,0,0,0-2.22-2.53,3.79,3.79,0,0,1,2-6.44l38.53-6.8a8,8,0,0,1,6.17,1.47,27.33,27.33,0,0,1,2.5,2.05C381.38,227.24,375.32,268.53,375.32,268.53Z"/><line class="cls-31" x1="323.8" y1="220.51" x2="344.22" y2="216.79"/><line class="cls-67" x1="325.9" y1="226.41" x2="361.84" y2="219.4"/><line class="cls-67" x1="327.09" y1="229.86" x2="363.3" y2="222.79"/><line class="cls-67" x1="328.38" y1="233.53" x2="364.72" y2="226.44"/><line class="cls-67" x1="329.51" y1="237.24" x2="366.19" y2="230.08"/><line class="cls-67" x1="330.59" y1="241.38" x2="366.96" y2="234.29"/><line class="cls-67" x1="331.2" y1="245.68" x2="348.11" y2="242.38"/><line class="cls-67" x1="349.25" y1="251.24" x2="370.1" y2="246.36"/><line class="cls-67" x1="349.63" y1="256.76" x2="369.8" y2="252.04"/><line class="cls-67" x1="349.56" y1="259.84" x2="358.97" y2="257.64"/><line class="cls-67" x1="332.43" y1="271.33" x2="344.3" y2="268.38"/><path class="cls-31" d="M345.06,251.29l-11.61,2.28a.65.65,0,0,0-.52.73,35.16,35.16,0,0,1,.44,8.51.66.66,0,0,0,.8.71l11.48-2.66a.67.67,0,0,0,.51-.58,40.25,40.25,0,0,0-.32-8.42A.66.66,0,0,0,345.06,251.29Z"/><path class="cls-2" d="M391.87,351.26c.33-2.44-1.07-5.07-4.27-7.27-6.19-4.25-16.74-5.27-23.57-2.28-3.39,1.49-5.23,3.68-5.46,6h0l-.33,3.5h0c-.24,2.39,1.18,4.95,4.3,7.09,6.18,4.25,16.74,5.27,23.57,2.28,3.5-1.54,5.34-3.83,5.48-6.27Z"/><path class="cls-2" d="M363.73,355.4c-.3-.18-.59-.37-.87-.56-6.19-4.26-5.67-10.13,1.17-13.13s17.38-2,23.57,2.28,5.66,10.13-1.17,13.12c-5.82,2.55-14.35,2.19-20.57-.61"/><path class="cls-2" d="M364.86,356l-.2-.11"/><ellipse class="cls-3" cx="375.23" cy="349.41" rx="7.79" ry="14.01" transform="translate(-9.73 688.07) rotate(-84.3)"/><path class="cls-2" d="M373.1,345.81l1.75,1.6a3.49,3.49,0,0,1,3,.82c1,.89.56,1.78-1.22,2.34a4.52,4.52,0,0,1-4.39-.55c-.82-.75-.67-1.44.17-1.83l-1.75-1.6c-1.78.66-2.13,2.06-.7,3.63l-1.46.46,1.2,1.1,1.5-.47a8.57,8.57,0,0,0,7.34,1c2.56-.81,3.21-2.29,1.92-3.95l1.41-.44-1.2-1.1-1.36.43A7.31,7.31,0,0,0,373.1,345.81Z"/><path class="cls-2" d="M329.54,195.26a9.1,9.1,0,0,0,1.61.1,17,17,0,0,0,12.78-7.6c1.2-2.07,1.29-3.92.45-5.2l-1-1.67c-.73-1.36-2.42-2.17-4.86-2.1a17,17,0,0,0-12.78,7.6c-1.16,2-1.28,3.8-.52,5.08h0l1.13,1.89h0a3.81,3.81,0,0,0,2.08,1.62"/><path class="cls-2" d="M335.76,192a14.55,14.55,0,0,1-5.66,1.47c-4.71.15-6.63-3-4.28-7.07a17,17,0,0,1,12.78-7.6c4.71-.14,6.63,3,4.28,7.08a15.52,15.52,0,0,1-5.42,5.21"/><path class="cls-2" d="M336.58,191.58l-.06,0"/><ellipse class="cls-3" cx="334.35" cy="186.13" rx="8.98" ry="4.99" transform="translate(-48.2 195.69) rotate(-30.54)"/><path class="cls-2" d="M336.51,187.11l-1.75-.28a2.58,2.58,0,0,1-2.21.73c-1-.16-1.08-.88-.2-2a3.38,3.38,0,0,1,3-1.47c.82.13,1,.62.65,1.21l1.75.28c.84-1.15.48-2.16-1.06-2.55l.72-.89-1.2-.19-.74.91a6.35,6.35,0,0,0-5,2.4c-1.26,1.56-1.06,2.75.43,3.25l-.7.85,1.2.19.67-.83A5.46,5.46,0,0,0,336.51,187.11Z"/><path class="cls-2" d="M383.33,199.16a9.49,9.49,0,0,0,1.1-1.39c2.85-4.34,3.41-11.65,1.25-16.33-1.11-2.4-2.72-3.65-4.41-3.71l-2.13-.16c-1.7-.19-3.5.81-5,3.06-2.86,4.33-3.42,11.65-1.25,16.33,1.07,2.32,2.61,3.56,4.24,3.69h0l2.42.18h0a4.23,4.23,0,0,0,2.78-.85"/><path class="cls-2" d="M384.31,191.48a16.23,16.23,0,0,1-2.25,6c-2.86,4.34-6.93,4-9.1-.63s-1.6-12,1.26-16.33,6.92-4.06,9.09.62a17.11,17.11,0,0,1,1.26,8.19"/><path class="cls-2" d="M384.46,190.48v.08"/><ellipse class="cls-3" cx="378.14" cy="189.04" rx="9.9" ry="5.5" transform="matrix(0.08, -1, 1, 0.08, 159.58, 550.92)"/><path class="cls-2" d="M380.39,187.71,379,189.12a2.87,2.87,0,0,1-.74,2.45c-.76.78-1.48.41-1.9-1.06a3.71,3.71,0,0,1,.56-3.6c.63-.66,1.19-.52,1.5.18l1.36-1.4c-.51-1.48-1.65-1.8-3-.66l-.34-1.21-.93,1,.35,1.24a7.06,7.06,0,0,0-1,6c.6,2.12,1.81,2.7,3.2,1.67l.33,1.17.93-1-.32-1.13A6,6,0,0,0,380.39,187.71Z"/><path class="cls-2" d="M376.19,586c1.92-1.23,2.93-3.8,2.56-7.38-.72-6.91-6.34-15-12.56-18-3.08-1.49-5.73-1.47-7.52-.22h0L356,562.24h0c-1.83,1.27-2.78,3.8-2.41,7.29.72,6.91,6.34,15,12.55,18,3.19,1.54,5.91,1.47,7.71.1Z"/><path class="cls-2" d="M356.38,568.61c-.06-.32-.1-.64-.13-1-.72-6.91,3.73-10.07,9.94-7.06s11.84,11.06,12.56,18-3.73,10.08-9.94,7.06c-5.3-2.57-10.17-8.79-11.94-14.85"/><path class="cls-2" d="M356.61,569.79c0-.07,0-.14,0-.21"/><ellipse class="cls-3" cx="367.5" cy="573.12" rx="7.22" ry="12.97" transform="matrix(0.82, -0.57, 0.57, 0.82, -261.14, 311.7)"/><path class="cls-2" d="M368.76,569.45l-.08,2.2a3.18,3.18,0,0,1,1.22,2.6c0,1.23-.91,1.47-2.38.55a4.19,4.19,0,0,1-2.24-3.43c0-1,.61-1.33,1.39-1l.08-2.2c-1.54-.86-2.74-.26-3,1.69l-1.2-.75-.05,1.5,1.23.77a7.93,7.93,0,0,0,3.7,5.78c2.11,1.32,3.55.89,3.94-1l1.15.72.05-1.5-1.11-.7A6.83,6.83,0,0,0,368.76,569.45Z"/><path class="cls-2" d="M390.45,511.12a11.89,11.89,0,0,0,2.21.13c6.48-.2,14.34-4.88,17.57-10.45,1.66-2.85,1.77-5.39.62-7.15l-1.37-2.3c-1-1.87-3.33-3-6.68-2.88-6.48.19-14.35,4.87-17.58,10.44-1.6,2.76-1.76,5.23-.72,7h0l1.55,2.6h0a5.32,5.32,0,0,0,2.86,2.23"/><path class="cls-2" d="M399,506.61a20,20,0,0,1-7.79,2c-6.47.2-9.11-4.16-5.88-9.73s11.1-10.25,17.58-10.44,9.11,4.16,5.88,9.73a21.38,21.38,0,0,1-7.45,7.16"/><path class="cls-2" d="M400.12,506.05l-.08.05"/><ellipse class="cls-3" cx="397.06" cy="498.55" rx="12.35" ry="6.87" transform="translate(-198.24 270.88) rotate(-30.54)"/><path class="cls-2" d="M400,499.91l-2.41-.38a3.55,3.55,0,0,1-3,1c-1.34-.21-1.49-1.2-.28-2.69a4.63,4.63,0,0,1,4.07-2c1.13.18,1.38.86.89,1.67l2.41.38c1.15-1.58.66-3-1.46-3.51l1-1.23-1.65-.26-1,1.26a8.77,8.77,0,0,0-6.86,3.29c-1.74,2.15-1.46,3.79.59,4.47l-.95,1.18,1.65.26.92-1.14A7.52,7.52,0,0,0,400,499.91Z"/><g id="folder"><path class="cls-68" d="M430.4,358.12c5.37-3,12.63-7,13.15-7a2.34,2.34,0,0,1,2.1,1c.63.26.45,2.7.26,23.36L418.73,395l0,20a7.94,7.94,0,0,1-15.88,0c0-27.4-.08-41-.08-41,.47-1.57,1.61-2,2.74-2.65,2.89-1.65,2.47-1.11,2.44-2.43a13.42,13.42,0,0,1,0-3.23,4.94,4.94,0,0,1,3.28-3.53c10.66-5.09,10-4.88,10.69-4.84,2,.12,1.8,2.28,1.81,2.86,0,2,.9,1.15.9,1.15l.62-.34,1-.56"/><path class="cls-5" d="M455.33,354.58v29.9a6.16,6.16,0,0,1-3.12,5.35c-29.16,16.52-29.75,16.49-36.67,20.39a3.09,3.09,0,0,1-4.61-2.71l.1-30.09a6.24,6.24,0,0,1,3.21-5.15L451,352.06A2.9,2.9,0,0,1,455.33,354.58Z"/><path class="cls-5" d="M453,363.26v29.91a6.16,6.16,0,0,1-3.12,5.35C420.68,415,420.09,415,413.17,418.91a3.09,3.09,0,0,1-4.61-2.71l.1-30.1a6.26,6.26,0,0,1,3.21-5.14l36.75-20.21A2.9,2.9,0,0,1,453,363.26Z"/><path class="cls-68" d="M463,384.92v6.53a6.15,6.15,0,0,1-3.12,5.36C397.18,432.34,420.3,419,415,421.69a7.88,7.88,0,0,0,3.65-5.58c.25-1.31.1.64.1-21.18V384.39a6.28,6.28,0,0,1,3.21-5.15L458.69,359a2.9,2.9,0,0,1,4.34,2.51v13.2"/><line class="cls-4" x1="463.03" y1="380.22" x2="463.03" y2="380.74"/><line class="cls-4" x1="444.25" y1="379.28" x2="426.01" y2="390.08"/><line class="cls-4" x1="434.11" y1="392.39" x2="426.55" y2="396.86"/><line class="cls-4" x1="438.58" y1="389.74" x2="437.72" y2="390.25"/></g><g id="coins"><path class="cls-2" d="M504.81,714.59c.29.18.6.36.92.53,6.47,3.36,16.77,3.1,23-.6,3.2-1.89,4.7-4.32,4.54-6.69l-.08-3c0-2.4-1.63-4.77-5-6.51-6.47-3.37-16.76-3.1-23,.6-3.09,1.83-4.6,4.16-4.55,6.46h0l.09,3.41h0a5.84,5.84,0,0,0,1.58,3.76"/><path class="cls-2" d="M512.35,713.81a21.47,21.47,0,0,1-6.61-2c-6.46-3.37-6.66-9.1-.42-12.8s16.53-4,23-.59,6.66,9.09.43,12.79a23.3,23.3,0,0,1-9.83,2.86"/><path class="cls-2" d="M515.92,714.12h-.11"/><ellipse class="cls-3" cx="517.03" cy="705.07" rx="13.9" ry="7.73" transform="translate(-15.83 11.89) rotate(-1.3)"/><path class="cls-2" d="M519.21,708l-2.16-1.7a4,4,0,0,1-3.53-.7c-1.2-.94-.8-2,1.21-2.8a5.23,5.23,0,0,1,5.11.27c1,.79.89,1.59-.05,2.12l2.16,1.7c2-.92,2.28-2.56.5-4.26l1.64-.65-1.48-1.16-1.68.67a9.91,9.91,0,0,0-8.55-.54c-2.89,1.16-3.51,2.92-1.88,4.72l-1.59.63,1.48,1.16,1.53-.61A8.49,8.49,0,0,0,519.21,708Z"/><path class="cls-2" d="M513.84,708.87l.65.35c6.47,3.37,16.77,3.1,23-.59,3.19-1.9,4.7-4.33,4.54-6.69l-.08-3c0-2.39-1.63-4.77-5-6.51-6.47-3.36-16.77-3.1-23,.6-3.09,1.83-4.6,4.17-4.55,6.46h0l.1,3.41h0a6,6,0,0,0,1.58,3.77"/><path class="cls-2" d="M521.71,708a21.58,21.58,0,0,1-7.21-2.13c-6.47-3.37-6.66-9.09-.42-12.79s16.53-4,23-.6,6.66,9.1.42,12.79a22.89,22.89,0,0,1-9.31,2.82"/><path class="cls-2" d="M524.68,708.22h-.11"/><ellipse class="cls-3" cx="525.79" cy="699.18" rx="13.9" ry="7.73" transform="translate(-15.69 12.08) rotate(-1.3)"/><path class="cls-2" d="M528,702.14l-2.17-1.7a4,4,0,0,1-3.52-.69c-1.2-1-.8-2,1.21-2.8a5.21,5.21,0,0,1,5.1.26c1,.79.89,1.6,0,2.12l2.16,1.7c2-.92,2.28-2.56.49-4.25l1.65-.66L531.37,695l-1.69.68a9.87,9.87,0,0,0-8.55-.54c-2.88,1.15-3.51,2.91-1.88,4.71l-1.58.63,1.48,1.17,1.53-.62A8.49,8.49,0,0,0,528,702.14Z"/><path class="cls-2" d="M504.58,701.7c.19.12.4.23.61.34,6.47,3.36,16.76,3.1,23-.6,3.19-1.89,4.7-4.32,4.54-6.69l-.08-3c0-2.4-1.64-4.77-5-6.51-6.47-3.37-16.77-3.1-23,.59-3.1,1.84-4.61,4.17-4.56,6.47h0l.09,3.41h0a5.91,5.91,0,0,0,1.58,3.76"/><path class="cls-2" d="M512,700.76a21.51,21.51,0,0,1-6.78-2.08c-6.47-3.36-6.66-9.09-.43-12.79s16.53-4,23-.59,6.66,9.09.43,12.79a22.65,22.65,0,0,1-9,2.78"/><path class="cls-2" d="M515.37,701h-.1"/><ellipse class="cls-3" cx="516.49" cy="691.99" rx="13.9" ry="7.73" transform="translate(-15.53 11.87) rotate(-1.3)"/><path class="cls-2" d="M518.66,695l-2.16-1.7a4,4,0,0,1-3.53-.69c-1.2-.94-.79-2,1.21-2.8a5.22,5.22,0,0,1,5.11.27c1,.79.89,1.59,0,2.12l2.16,1.7c2-.92,2.29-2.56.5-4.26l1.64-.65-1.47-1.17-1.69.68a9.87,9.87,0,0,0-8.55-.54c-2.88,1.15-3.51,2.92-1.88,4.72l-1.58.63,1.47,1.16,1.53-.61A8.46,8.46,0,0,0,518.66,695Z"/></g></g></g></svg>