<?xml version="1.0" encoding="UTF-8"?>
<svg width="169px" height="40px" viewBox="0 0 169 40" version="1.1" xmlns="http://www.w3.org/2000/svg" xmlns:xlink="http://www.w3.org/1999/xlink">
    <!-- Generator: Sketch 52.5 (67469) - http://www.bohemiancoding.com/sketch -->
    <title>Enlagloria</title>
    <desc>Created with Sketch.</desc>
    <g id="Symbols" stroke="none" stroke-width="1" fill="none" fill-rule="evenodd">
        <g id="Enlagloria" fill="#FFFFFF">
            <path d="M161.515528,17.3664596 C161.540373,16.0993789 159.478261,17.2919255 158.956522,17.515528 C157.962733,17.9627329 157.118012,18.7329193 156.695652,19.7267081 C156.223602,20.8695652 156.223602,22.5093168 157.291925,23.3540373 C158.832298,24.5962733 161.341615,23.1801242 161.416149,21.3167702 C161.465839,20.6459627 161.515528,18.0124224 161.515528,17.3664596 M167.57764,22.931677 C167.57764,23.378882 167.652174,23.826087 167.850932,24.1987578 C168.049689,24.5962733 168.397516,24.8944099 168.670807,25.242236 C168.795031,25.4409938 168.795031,25.6645963 168.645963,25.8385093 C168.173913,26.3354037 167.57764,26.6086957 166.931677,26.7080745 C165.714286,26.9068323 164.198758,27.0310559 163.031056,26.5838509 C162.136646,26.2360248 161.962733,25.5403727 161.565217,24.7453416 C161.440994,24.4968944 161.267081,24.4720497 161.118012,24.6956522 C159.478261,26.9068323 156.298137,27.378882 153.78882,26.4347826 C151.055901,25.3913043 149.888199,21.689441 151.130435,19.1304348 C152.024845,17.2919255 153.639752,16.621118 154.037267,16.4223602 C155.826087,15.5279503 157.78882,15.1552795 159.751553,14.8571429 C160.223602,14.7826087 160.695652,14.7329193 161.167702,14.6335404 C161.267081,14.6086957 161.36646,14.5838509 161.416149,14.5341615 C161.540373,14.4347826 161.540373,14.2608696 161.540373,14.1118012 C161.515528,12.3726708 161.664596,9.51552795 159.354037,9.14285714 C159.031056,9.0931677 158.732919,9.11801242 158.409938,9.14285714 C157.863354,9.19254658 157.36646,9.36645963 156.968944,9.73913043 C156.745342,9.9378882 156.596273,10.2111801 156.621118,10.5341615 C156.621118,10.6583851 156.645963,10.8074534 156.670807,10.931677 C156.745342,11.2795031 156.819876,11.6273292 156.869565,11.9503106 C157.018634,12.9192547 156.770186,13.7639752 155.975155,14.3602484 C154.608696,15.4037267 152.447205,15.0310559 151.652174,13.4409938 C150.981366,12.0993789 151.428571,10.3850932 152.372671,9.31677019 C153.714286,7.7515528 155.900621,7.37888199 157.838509,7.20496894 C160,7.00621118 162.26087,7.08074534 164.273292,8 C166.186335,8.8447205 167.254658,10.4596273 167.552795,12.4968944 C167.801242,14.2608696 167.602484,21.4409938 167.57764,22.931677" id="Shape" fill-rule="nonzero"></path>
            <path d="M144.198758,26.9068323 C143.080745,26.9068323 141.987578,26.9068323 140.89441,26.9068323 C140.720497,26.9068323 140.546584,26.9068323 140.42236,26.8322981 C140.173913,26.6832298 140.124224,26.310559 140.223602,26.0372671 C140.322981,25.7639752 140.521739,25.515528 140.645963,25.2670807 C140.968944,24.6708075 140.993789,23.9254658 140.993789,23.2546584 C141.018634,20 141.068323,16.7204969 141.093168,13.4658385 C141.093168,12.1987578 141.118012,10.8819876 140.596273,9.71428571 C140.173913,8.77018634 140.397516,8.1242236 141.490683,8.1242236 C143.180124,8.09937888 144.869565,8.1242236 146.559006,8.14906832 C146.857143,8.14906832 147.180124,8.17391304 147.354037,8.39751553 C147.503106,8.57142857 147.503106,8.81987578 147.503106,9.06832298 C147.453416,13.2670807 147.428571,17.4409938 147.378882,21.6397516 C147.354037,23.0310559 147.378882,24.4968944 148.049689,25.7142857 C148.149068,25.8881988 148.273292,26.0621118 148.298137,26.2608696 C148.347826,26.4596273 148.298137,26.6832298 148.149068,26.8074534 C148,26.931677 147.826087,26.931677 147.627329,26.931677 C146.484472,26.9068323 145.341615,26.9068323 144.198758,26.9068323" id="Path"></path>
            <path d="M144.223602,0.198757764 C145.167702,0.173913043 146.111801,0.447204969 146.807453,1.0931677 C148.298137,2.43478261 148.149068,4.64596273 146.708075,5.98757764 C145.465839,7.13043478 143.57764,7.20496894 142.136646,6.38509317 C140.496894,5.46583851 139.925466,3.27950311 141.018634,1.68944099 C141.763975,0.670807453 143.006211,0.223602484 144.223602,0.198757764" id="Path"></path>
            <path d="M26.9565217,10.2857143 C27.0807453,10.1614907 27.2298137,10.0124224 27.3540373,9.88819876 C28.7701863,8.29813665 30.7080745,7.20496894 32.8944099,7.30434783 C35.0310559,7.42857143 36.9440994,8.79503106 37.7142857,10.7826087 C38.0124224,11.552795 38.136646,12.3726708 38.136646,13.1925466 C38.136646,16.2732919 38.136646,23.2795031 38.136646,23.7018634 C38.136646,24.173913 38.3602484,24.5465839 38.5838509,24.9440994 C38.7080745,25.1925466 38.8571429,25.4161491 38.9813665,25.6645963 C39.1304348,26.0124224 38.8571429,26.4347826 38.4596273,26.4596273 C38.2608696,26.4596273 38.0621118,26.4596273 37.8385093,26.4596273 C35.7267081,26.4596273 33.6149068,26.4596273 31.4782609,26.4596273 C31.3043478,26.4596273 31.1055901,26.484472 30.9565217,26.3354037 C30.9068323,26.2857143 30.8571429,26.2360248 30.8322981,26.1863354 C30.757764,25.8881988 30.757764,25.6149068 30.931677,25.3416149 C31.4037267,24.6708075 31.6521739,23.9503106 31.6521739,23.1304348 C31.6521739,21.7391304 31.6521739,20.3478261 31.6521739,18.9813665 C31.6521739,17.0931677 31.6770186,12.9689441 31.6770186,12.7950311 C31.7018634,12.2732919 31.6273292,11.7763975 31.4037267,11.3291925 C31.1552795,10.8571429 30.7329193,10.5341615 30.1614907,10.484472 C29.3167702,10.3850932 28.5217391,10.6335404 27.8757764,11.2546584 C27.4285714,11.6770186 27.0310559,12.7453416 27.0062112,13.5652174 C27.0062112,13.8136646 26.9813665,14.0621118 26.9813665,14.2857143 C26.9813665,16.9689441 26.9813665,19.6770186 26.9813665,22.3602484 C26.9813665,22.7826087 27.0062112,23.2049689 27.0062112,23.6273292 C27.0062112,24.173913 27.2298137,24.6459627 27.5031056,25.0931677 C27.6273292,25.3167702 27.7515528,25.5652174 27.826087,25.8136646 C27.9254658,26.1614907 27.6770186,26.4596273 27.3291925,26.4596273 C27.2298137,26.4596273 27.1552795,26.4596273 27.0559006,26.4596273 C24.8695652,26.4596273 22.6832298,26.4596273 20.4968944,26.4596273 C20.4720497,26.4596273 20.447205,26.4596273 20.3975155,26.4596273 C20.1490683,26.4596273 19.8509317,26.484472 19.7515528,26.1863354 C19.6521739,25.8881988 19.6521739,25.5900621 19.8509317,25.2919255 C20.0993789,24.9192547 20.2981366,24.5217391 20.4223602,24.0745342 C20.5714286,23.5031056 20.5714286,22.9068323 20.5714286,22.3354037 C20.5962733,20.0248447 20.5962733,17.7142857 20.5962733,15.4037267 C20.5962733,14.0621118 20.621118,12.7204969 20.621118,11.4037267 C20.621118,11.0559006 20.5962733,10.6832298 20.5217391,10.3602484 C20.4223602,10.0124224 20.3229814,9.66459627 20.1490683,9.31677019 C20,9.06832298 19.8757764,8.77018634 19.7763975,8.49689441 C19.7018634,8.29813665 19.826087,8 20.0496894,7.82608696 C20.2732919,7.65217391 20.5465839,7.55279503 20.8447205,7.55279503 C22.4596273,7.55279503 24.0745342,7.55279503 25.7142857,7.57763975 C25.9875776,7.57763975 26.2608696,7.60248447 26.5341615,7.77639752 C26.6832298,7.8757764 26.757764,7.97515528 26.757764,8.14906832 C26.757764,8.34782609 26.7826087,9.59006211 26.7826087,9.98757764 C26.7826087,10.0869565 26.7826087,10.2111801 26.9565217,10.2857143" id="Path"></path>
            <path d="M139.428571,11.2546584 C138.981366,9.46583851 137.73913,7.7515528 136.248447,7.18012422 C133.565217,6.13664596 131.080745,7.35403727 129.341615,9.41614907 C129.217391,9.56521739 129.093168,9.68944099 128.968944,9.8136646 C128.795031,9.73913043 128.795031,9.61490683 128.795031,9.49068323 C128.795031,9.0931677 128.795031,7.85093168 128.770186,7.65217391 C128.770186,7.47826087 128.695652,7.37888199 128.546584,7.27950311 C128.298137,7.10559006 128.049689,7.08074534 127.776398,7.08074534 C126.26087,7.08074534 124.720497,7.08074534 123.204969,7.05590062 C122.931677,7.05590062 122.68323,7.18012422 122.459627,7.32919255 C122.26087,7.47826087 122.136646,7.80124224 122.21118,8 C122.310559,8.27329193 122.434783,8.57142857 122.559006,8.81987578 C122.732919,9.14285714 122.832298,9.49068323 122.931677,9.86335404 C123.130435,10.7080745 122.981366,23.0310559 122.832298,23.6024845 C122.732919,24.0496894 122.534161,24.447205 122.285714,24.8198758 C122.086957,25.0931677 122.086957,25.4161491 122.186335,25.7142857 C122.285714,26.0124224 122.559006,25.9875776 122.807453,25.9875776 C122.832298,25.9875776 122.857143,25.9875776 122.881988,25.9875776 C124.944099,25.9875776 127.006211,25.9875776 129.068323,25.9875776 C129.142857,25.9875776 129.242236,25.9875776 129.31677,25.9875776 C129.639752,25.9627329 129.888199,25.6645963 129.78882,25.3416149 C129.714286,25.0931677 129.614907,24.8447205 129.490683,24.621118 C129.242236,24.173913 129.018634,23.7018634 129.018634,23.1552795 C129.018634,22.7329193 128.968944,15.0310559 129.043478,14.0621118 C129.118012,12.9937888 129.291925,11.7267081 129.937888,10.8074534 C130.434783,10.1118012 131.180124,9.91304348 132,10.0124224 C133.018634,10.136646 133.614907,11.6024845 133.416149,12.5217391 C133.36646,12.7701863 133.31677,12.9937888 133.267081,13.242236 C132.89441,15.7018634 136.124224,16.7950311 137.913043,15.7267081 C139.52795,14.7826087 139.850932,12.9937888 139.428571,11.2546584" id="Path"></path>
            <path d="M48.0496894,24.0993789 C47.9751553,23.552795 47.8509317,23.0310559 47.8757764,22.484472 C47.9254658,20.6708075 48.2236025,2.48447205 48.1987578,2.28571429 C48.1490683,1.88819876 48,1.73913043 47.6024845,1.73913043 C47.4782609,1.73913043 42.2857143,1.73913043 42.0124224,1.76397516 C41.3416149,1.78881988 40.9440994,2.43478261 41.1677019,3.05590062 C41.2670807,3.35403727 41.3913043,3.62732919 41.515528,3.92546584 C41.6397516,4.2484472 41.7142857,4.59627329 41.7391304,4.94409938 C41.7391304,5.39130435 41.5652174,19.9503106 41.515528,22.484472 C41.4906832,23.0559006 41.4409938,23.6273292 41.3913043,24.1987578 C41.3913043,24.3229814 41.3167702,24.4223602 41.2670807,24.5217391 C41.068323,24.8944099 40.8695652,25.2670807 40.6956522,25.6397516 C40.4968944,26.0621118 40.7453416,26.4596273 41.2173913,26.4596273 C41.2670807,26.4596273 41.3416149,26.4596273 41.3913043,26.4596273 C43.6273292,26.4596273 45.863354,26.4596273 48.0993789,26.4596273 C48.1987578,26.4596273 48.2981366,26.4596273 48.3975155,26.4596273 C48.5465839,26.4596273 48.6708075,26.3602484 48.7453416,26.2111801 C48.9192547,25.8881988 48.8198758,25.5900621 48.6459627,25.2919255 C48.3975155,24.9192547 48.1242236,24.5465839 48.0496894,24.0993789" id="Path"></path>
            <path d="M99.2546584,24.0993789 C99.1801242,23.552795 99.0559006,23.0310559 99.0807453,22.484472 C99.1304348,20.6708075 99.3291925,5.0931677 99.4285714,2.88198758 C99.4285714,2.68322981 99.4285714,2.48447205 99.4285714,2.28571429 C99.378882,1.88819876 99.2298137,1.73913043 98.8322981,1.73913043 C98.7080745,1.73913043 98.5590062,1.73913043 98.4347826,1.73913043 C96.9689441,1.73913043 95.5279503,1.73913043 94.0621118,1.73913043 C93.7888199,1.73913043 93.515528,1.73913043 93.242236,1.73913043 C92.5714286,1.76397516 92.173913,2.40993789 92.3975155,3.0310559 C92.4968944,3.32919255 92.621118,3.60248447 92.7453416,3.90062112 C92.8695652,4.22360248 92.9440994,4.57142857 92.9689441,4.91925466 C92.9689441,5.36645963 92.9937888,5.78881988 92.9937888,6.23602484 C92.9689441,9.0931677 92.9192547,11.9751553 92.8944099,14.8322981 C92.8695652,17.3664596 92.8198758,19.9006211 92.7701863,22.4347826 C92.7453416,23.0062112 92.6956522,23.5776398 92.6459627,24.1490683 C92.6459627,24.2732919 92.5714286,24.3726708 92.5217391,24.4720497 C92.3229814,24.8447205 92.1242236,25.2173913 91.9503106,25.5900621 C91.7515528,26.0124224 92,26.4099379 92.4720497,26.4099379 C92.5217391,26.4099379 92.5962733,26.4099379 92.6459627,26.4099379 C94.8819876,26.4099379 97.1180124,26.4099379 99.3540373,26.4099379 C99.4534161,26.4099379 99.552795,26.4099379 99.6521739,26.4099379 C99.8012422,26.4099379 99.9254658,26.310559 100,26.1614907 C100.173913,25.8385093 100.074534,25.5403727 99.9006211,25.242236 C99.5776398,24.9192547 99.3291925,24.5465839 99.2546584,24.0993789" id="Path"></path>
            <path d="M110.956522,23.7515528 C109.068323,23.7515528 107.552795,20.5217391 107.552795,16.5217391 C107.552795,12.5217391 109.068323,9.29192547 110.956522,9.29192547 C112.84472,9.29192547 114.360248,12.5217391 114.360248,16.5217391 C114.360248,20.5217391 112.819876,23.7515528 110.956522,23.7515528 M110.956522,6.50931677 C105.490683,6.50931677 101.068323,11.0062112 101.068323,16.5465839 C101.068323,22.0869565 105.490683,26.5838509 110.956522,26.5838509 C116.42236,26.5838509 120.84472,22.0869565 120.84472,16.5465839 C120.84472,10.9813665 116.42236,6.50931677 110.956522,6.50931677" id="Shape" fill-rule="nonzero"></path>
            <path d="M81.9130435,36.4720497 C78.3850932,36.4720497 76.8447205,34.9565217 76.8447205,34.0124224 C76.8447205,33.8385093 76.8944099,33.3913043 76.9689441,33.2173913 C78.484472,33.5900621 80.0248447,33.7142857 81.0931677,33.7142857 C82.8571429,33.7142857 84.0248447,33.5403727 84.7453416,33.5403727 C85.8385093,33.5403727 86.0372671,34.3850932 86.0372671,34.757764 C86.0372671,35.5776398 84.8944099,36.4720497 81.9130435,36.4720497 Z M79.5279503,9.44099379 C81.2670807,9.44099379 82.6832298,12.5217391 82.6832298,16.3229814 C82.6832298,20.1242236 81.2670807,23.2049689 79.5279503,23.2049689 C77.7888199,23.2049689 76.3726708,20.1242236 76.3726708,16.3229814 C76.3726708,12.5217391 77.7888199,9.44099379 79.5279503,9.44099379 Z M86.1863354,28 C84.9192547,28 83.1801242,28.0745342 81.242236,28.0248447 C80.3726708,28 79.5279503,27.9254658 78.7080745,27.7267081 C78.2857143,27.6273292 77.863354,27.4534161 77.6645963,27.2546584 C77.068323,26.6086957 77.4161491,25.7391304 77.8385093,25.5900621 C78.0869565,25.515528 79.552795,25.6397516 79.7763975,25.6397516 C84.1987578,25.6397516 88.4223602,22.9565217 89.3167702,18.310559 C89.7391304,16.1242236 89.4906832,13.3416149 88.2981366,11.4037267 C88.9440994,11.1055901 89.515528,10.6086957 89.8881988,9.88819876 C90.0124224,9.66459627 90.1118012,9.41614907 90.2111801,9.19254658 C90.310559,8.94409938 90.4099379,8.67080745 90.4596273,8.37267081 C90.7329193,7.10559006 90.5590062,5.71428571 89.3913043,4.99378882 C88.7204969,4.57142857 87.7763975,4.54658385 87.0807453,4.89440994 C86.4099379,5.2173913 85.863354,6.0621118 85.9627329,6.85714286 C85.9875776,7.0310559 86.0372671,7.22981366 86.0621118,7.40372671 C86.0621118,7.45341615 86.0621118,7.50310559 86.0621118,7.55279503 C86.0869565,7.95031056 85.9875776,8.32298137 85.8136646,8.64596273 C85.7639752,8.72049689 85.7391304,8.79503106 85.689441,8.86956522 C84.9440994,8.42236025 84.1242236,8.07453416 83.2795031,7.80124224 C81.863354,7.37888199 80.3726708,7.20496894 78.9068323,7.32919255 C74.7329193,7.70186335 70.8074534,10.6832298 70.0372671,15.0807453 C69.5403727,17.9130435 70.2857143,21.5403727 72.6459627,23.3291925 C72.7453416,23.4037267 72.8695652,23.5031056 72.9689441,23.5776398 C71.8012422,24.0745342 70.7329193,25.1925466 70.6335404,27.1055901 C70.5590062,28.4223602 71.0559006,30.8571429 72.8944099,32 C71.5031056,32.1987578 70.5093168,33.3913043 70.4347826,34.6086957 C70.3850932,35.826087 71.1304348,36.9937888 72.1987578,37.7639752 C73.2670807,38.5590062 74.6086957,39.0062112 75.9751553,39.3043478 C78.8819876,39.9751553 82.2111801,40.0993789 85.1428571,39.5031056 C87.826087,38.9565217 89.5652174,38.3850932 91.0310559,36.3726708 C91.7763975,35.3291925 92.1987578,34.0869565 92.1490683,32.8447205 C92.0745342,31.4285714 91.0559006,28 86.1863354,28 Z" id="Shape" fill-rule="nonzero"></path>
            <path d="M60.9689441,16.9937888 C60.9937888,15.7267081 58.931677,16.9192547 58.4099379,17.1428571 C57.4161491,17.5900621 56.5714286,18.3602484 56.1490683,19.3540373 C55.6770186,20.4968944 55.6770186,22.136646 56.7453416,22.9813665 C58.2857143,24.2236025 60.7950311,22.8074534 60.8695652,20.9440994 C60.8944099,20.2981366 60.9689441,17.6645963 60.9689441,16.9937888 M67.0310559,22.5590062 C67.0310559,23.0062112 67.1055901,23.4534161 67.3043478,23.826087 C67.5031056,24.2236025 67.8509317,24.5217391 68.1242236,24.8695652 C68.2484472,25.068323 68.2484472,25.2919255 68.0993789,25.4658385 C67.6273292,25.9627329 67.0310559,26.2360248 66.3850932,26.3354037 C65.1677019,26.5341615 63.6521739,26.6583851 62.484472,26.2111801 C61.5900621,25.863354 61.4161491,25.1677019 61.0186335,24.3726708 C60.8944099,24.1242236 60.7204969,24.0993789 60.5714286,24.3229814 C58.931677,26.5341615 55.7515528,27.0062112 53.242236,26.0621118 C50.5093168,25.0186335 49.3416149,21.3167702 50.5838509,18.757764 C51.4782609,16.9192547 53.0931677,16.2484472 53.4906832,16.0496894 C55.2795031,15.1552795 57.242236,14.7826087 59.2049689,14.484472 C59.6770186,14.4099379 60.1490683,14.3602484 60.621118,14.2608696 C60.7204969,14.2360248 60.8198758,14.2111801 60.8695652,14.1614907 C60.9937888,14.0621118 60.9937888,13.8881988 60.9937888,13.7391304 C60.9689441,12 61.1180124,9.14285714 58.8074534,8.77018634 C58.484472,8.72049689 58.1863354,8.74534161 57.863354,8.77018634 C57.3167702,8.81987578 56.8198758,8.99378882 56.4223602,9.36645963 C56.1987578,9.56521739 56.0496894,9.83850932 56.0745342,10.1614907 C56.0745342,10.2857143 56.0993789,10.4347826 56.1242236,10.5590062 C56.1987578,10.9068323 56.2732919,11.2546584 56.3229814,11.5776398 C56.4720497,12.5465839 56.2236025,13.3913043 55.4285714,13.9875776 C54.0621118,15.0310559 51.9006211,14.6583851 51.1055901,13.068323 C50.4347826,11.7267081 50.8819876,10.0124224 51.826087,8.94409938 C53.1677019,7.37888199 55.3540373,7.00621118 57.2919255,6.83229814 C59.4534161,6.63354037 61.7142857,6.70807453 63.7267081,7.62732919 C65.6397516,8.47204969 66.7080745,10.0869565 67.0062112,12.1242236 C67.2546584,13.8881988 67.0310559,21.068323 67.0310559,22.5590062" id="Shape" fill-rule="nonzero"></path>
            <path d="M6.95652174,13.4409938 C7.0310559,12.9689441 7.27950311,12.5217391 7.55279503,12.1242236 C8.54658385,10.6832298 10.3602484,9.11801242 12.2732919,9.73913043 C12.7453416,9.88819876 13.1925466,10.1863354 13.4658385,10.6086957 C13.7142857,10.9565217 13.8136646,11.4037267 13.8136646,11.826087 C13.8136646,12.5217391 13.4906832,13.2173913 12.9689441,13.7142857 C12.5217391,14.136646 11.9254658,14.4099379 11.3043478,14.5590062 C11.1055901,14.6086957 10.8819876,14.6335404 10.6832298,14.6583851 C10.2608696,14.7080745 9.83850932,14.7080745 9.41614907,14.7080745 C8.74534161,14.7080745 8.04968944,14.6583851 7.45341615,14.3850932 C7.30434783,14.310559 7.1552795,14.2360248 7.05590062,14.0869565 C6.93167702,13.9130435 6.9068323,13.6645963 6.95652174,13.4409938 M17.0931677,20.0993789 C17.068323,20.0993789 17.0434783,20.0745342 17.0186335,20.0745342 C16.5962733,20.0248447 16.1987578,20.3478261 15.8509317,20.621118 C13.515528,22.4347826 8.59627329,22.2608696 7.13043478,19.3043478 C6.9068323,18.8571429 6.75776398,18.3850932 6.65838509,17.8881988 C6.60869565,17.6397516 6.58385093,17.3664596 6.58385093,17.0931677 C6.53416149,16.3229814 7.25465839,16.8695652 7.65217391,17.0186335 C8.89440994,17.4658385 10.2111801,17.7391304 11.5279503,17.8385093 C12.9689441,17.9378882 14.6832298,17.9378882 15.9751553,17.2173913 C18.5341615,15.7763975 19.1304348,11.9503106 17.515528,9.59006211 C15.6273292,6.85714286 11.826087,6.53416149 8.81987578,6.9068323 C5.9378882,7.25465839 3.13043478,8.9689441 1.56521739,11.4782609 C0.298136646,13.515528 -0.124223602,16 0.248447205,18.3602484 C0.844720497,22.0869565 3.45341615,25.068323 7.10559006,26.0869565 C9.24223602,26.6832298 11.6024845,26.5341615 13.6645963,25.7391304 C14.6086957,25.3664596 15.5031056,24.8695652 16.2236025,24.173913 C16.9440994,23.4782609 17.4906832,22.5590062 17.6645963,21.5652174 C17.7142857,21.2919255 17.7391304,20.9937888 17.6397516,20.7204969 C17.5652174,20.4223602 17.3664596,20.173913 17.0931677,20.0993789" id="Shape" fill-rule="nonzero"></path>
            <path d="M99.4782609,37.2173913 C99.0062112,37.5403727 98.484472,37.5403727 98.2857143,37.5403727 C98.0124224,37.5403727 96.9192547,37.515528 96.5714286,36.4968944 C96.4720497,36.2236025 96.447205,35.9254658 96.447205,35.6521739 L96.447205,34.7826087 L97.3416149,34.7826087 L97.3416149,35.1552795 C97.3416149,35.6770186 97.3416149,35.9006211 97.4161491,36.1490683 C97.4906832,36.3478261 97.7142857,36.6956522 98.2608696,36.6956522 C98.6335404,36.6956522 98.9813665,36.5217391 99.1304348,36.1987578 C99.2049689,36.0248447 99.2049689,35.826087 99.2049689,35.7515528 C99.2049689,35.1055901 98.9068323,34.8322981 98.484472,34.4099379 L97.4658385,33.3416149 C96.8695652,32.7204969 96.5962733,32.3229814 96.5962733,31.4285714 C96.5962733,31.3291925 96.5962733,31.0310559 96.6708075,30.7080745 C96.8198758,30.2111801 97.242236,29.6645963 98.3602484,29.6645963 C98.6086957,29.6645963 99.6521739,29.6645963 99.9006211,30.6583851 C99.9751553,30.9068323 99.9751553,31.2795031 99.9751553,31.552795 L99.9751553,32.0496894 L99.1304348,32.0496894 C99.1304348,31.5776398 99.1304348,31.7018634 99.1304348,31.4285714 C99.1304348,31.0807453 99.0807453,30.757764 98.7329193,30.5838509 C98.5590062,30.5093168 98.4099379,30.5093168 98.3354037,30.5093168 C98.1118012,30.5093168 97.9130435,30.5590062 97.7639752,30.7080745 C97.689441,30.7826087 97.6397516,30.8819876 97.6149068,30.9068323 C97.5652174,31.0062112 97.5403727,31.1552795 97.5403727,31.4037267 C97.5403727,31.4782609 97.5403727,31.6521739 97.6149068,31.8509317 C97.7391304,32.1987578 98.0621118,32.4968944 98.310559,32.7701863 L99.5031056,34.0372671 C99.5776398,34.136646 99.6770186,34.2360248 99.7515528,34.3354037 C99.9254658,34.5838509 100.173913,34.9813665 100.173913,35.7018634 C100.173913,36.5962733 99.8012422,36.9937888 99.4782609,37.2173913" id="Path"></path>
            <path d="M105.242236,31.2298137 L104.546584,35.1304348 L105.987578,35.1304348 L105.242236,31.2298137 Z M106.409938,37.4161491 L106.136646,35.9503106 L104.372671,35.9503106 L104.124224,37.4161491 L103.15528,37.4161491 L104.795031,29.8136646 L105.73913,29.8136646 L107.428571,37.4161491 L106.409938,37.4161491 Z" id="Shape" fill-rule="nonzero"></path>
            <polygon id="Path" points="110.63354 37.4161491 110.63354 29.8136646 111.602484 29.8136646 111.602484 36.5714286 113.838509 36.5714286 113.838509 37.4161491"></polygon>
            <path d="M118.708075,31.2298137 L118.012422,35.1304348 L119.453416,35.1304348 L118.708075,31.2298137 Z M119.875776,37.4161491 L119.602484,35.9503106 L117.838509,35.9503106 L117.590062,37.4161491 L116.621118,37.4161491 L118.26087,29.8136646 L119.204969,29.8136646 L120.89441,37.4161491 L119.875776,37.4161491 Z" id="Shape" fill-rule="nonzero"></path>
            <path d="M126.857143,32.0496894 C126.857143,31.4534161 126.807453,31.1304348 126.583851,30.9068323 C126.310559,30.6583851 125.838509,30.6832298 125.515528,30.6832298 L125.018634,30.6832298 L125.018634,36.5714286 L125.639752,36.5714286 C125.888199,36.5714286 126.161491,36.5714286 126.385093,36.447205 C126.559006,36.3726708 126.68323,36.2484472 126.757764,35.8757764 C126.807453,35.5776398 126.832298,34.7826087 126.832298,33.9130435 C126.881988,33.3167702 126.881988,32.6708075 126.857143,32.0496894 M127.801242,34.931677 C127.801242,35.2049689 127.801242,35.5031056 127.776398,35.7763975 C127.726708,36.3726708 127.52795,36.9192547 126.981366,37.242236 C126.534161,37.4906832 126.012422,37.4409938 125.540373,37.4409938 L124.124224,37.4409938 L124.124224,29.8136646 L125.565217,29.8136646 C126.037267,29.8136646 126.484472,29.7888199 126.931677,29.9875776 C127.652174,30.310559 127.751553,30.9813665 127.776398,31.2049689 C127.826087,31.5279503 127.826087,32.3229814 127.826087,33.2173913 C127.801242,33.7888199 127.801242,34.3602484 127.801242,34.931677" id="Shape" fill-rule="nonzero"></path>
            <polygon id="Path" points="139.130435 37.4161491 139.130435 33.8881988 137.391304 33.8881988 137.391304 37.4161491 136.447205 37.4161491 136.447205 29.8136646 137.391304 29.8136646 137.391304 33.0434783 139.130435 33.0434783 139.130435 29.8136646 140.074534 29.8136646 140.074534 37.4161491"></polygon>
            <path d="M146.559006,31.9254658 C146.559006,31.6273292 146.559006,31.1552795 146.409938,30.8571429 C146.335404,30.7080745 146.086957,30.484472 145.689441,30.484472 C145.590062,30.484472 145.341615,30.484472 145.118012,30.6583851 C144.745342,30.9565217 144.745342,31.4534161 144.745342,32.3478261 L144.745342,32.8695652 C144.745342,33.5900621 144.745342,34.3354037 144.745342,35.0559006 C144.745342,35.6024845 144.745342,35.9254658 144.819876,36.173913 C144.89441,36.3975155 145.068323,36.7453416 145.639752,36.7453416 C145.962733,36.7453416 146.26087,36.5962733 146.385093,36.2981366 C146.534161,35.9751553 146.559006,35.3540373 146.559006,34.5093168 C146.559006,34.1863354 146.559006,33.8385093 146.559006,33.4906832 C146.583851,32.9937888 146.583851,32.447205 146.559006,31.9254658 M147.503106,34.8571429 C147.503106,35.0807453 147.503106,35.3043478 147.478261,35.5279503 C147.428571,36.0745342 147.354037,36.7453416 146.906832,37.1180124 C146.658385,37.3416149 146.285714,37.515528 145.590062,37.515528 C145.36646,37.515528 144.571429,37.5403727 144.124224,36.8944099 C144.049689,36.8198758 143.950311,36.6459627 143.900621,36.3975155 C143.776398,35.9751553 143.776398,35.1055901 143.776398,33.9875776 C143.776398,33.2919255 143.776398,32.621118 143.801242,31.9254658 C143.826087,31.0559006 143.950311,30.6335404 144.198758,30.2857143 C144.447205,29.9875776 144.869565,29.6645963 145.73913,29.6645963 C145.962733,29.6645963 146.906832,29.6645963 147.304348,30.5093168 C147.403727,30.7329193 147.478261,30.9565217 147.478261,31.1801242 C147.552795,31.7267081 147.552795,32.9440994 147.52795,33.4658385 C147.552795,33.9627329 147.52795,34.4099379 147.503106,34.8571429" id="Shape" fill-rule="nonzero"></path>
            <path d="M153.888199,37.2919255 C153.440994,37.5403727 152.944099,37.5403727 152.795031,37.5403727 C152.322981,37.5403727 151.751553,37.4409938 151.403727,37.0931677 C151.329193,37.0186335 151.180124,36.8447205 151.080745,36.5714286 C150.931677,36.173913 150.956522,35.6273292 150.956522,35.5279503 L150.956522,29.8136646 L151.925466,29.8136646 L151.925466,34.8571429 C151.925466,35.5031056 151.900621,35.9751553 152,36.2484472 C152.099379,36.5217391 152.347826,36.6459627 152.447205,36.6708075 C152.546584,36.6956522 152.621118,36.7204969 152.819876,36.7204969 C153.118012,36.7204969 153.31677,36.6708075 153.515528,36.447205 C153.540373,36.3975155 153.614907,36.3229814 153.639752,36.173913 C153.664596,36.0248447 153.689441,35.6521739 153.689441,35.2298137 L153.689441,29.8136646 L154.658385,29.8136646 L154.658385,35.5031056 C154.658385,36.1987578 154.608696,36.8944099 153.888199,37.2919255" id="Path"></path>
            <path d="M161.167702,37.2173913 C160.695652,37.5403727 160.173913,37.5403727 159.975155,37.5403727 C159.701863,37.5403727 158.608696,37.515528 158.26087,36.4968944 C158.161491,36.2236025 158.136646,35.9254658 158.136646,35.6521739 L158.136646,34.7826087 L159.031056,34.7826087 L159.031056,35.1552795 C159.031056,35.6770186 159.031056,35.9006211 159.10559,36.1490683 C159.180124,36.3478261 159.403727,36.6956522 159.950311,36.6956522 C160.322981,36.6956522 160.670807,36.5217391 160.819876,36.1987578 C160.89441,36.0248447 160.89441,35.826087 160.89441,35.7515528 C160.89441,35.1055901 160.596273,34.8322981 160.173913,34.4099379 L159.15528,33.3416149 C158.559006,32.7204969 158.285714,32.3229814 158.285714,31.4285714 C158.285714,31.3291925 158.285714,31.0310559 158.360248,30.7080745 C158.509317,30.2111801 158.931677,29.6645963 160.049689,29.6645963 C160.298137,29.6645963 161.341615,29.6645963 161.590062,30.6583851 C161.664596,30.9068323 161.664596,31.2795031 161.664596,31.552795 L161.664596,32.0496894 L160.819876,32.0496894 C160.819876,31.5776398 160.819876,31.7018634 160.819876,31.4285714 C160.819876,31.0807453 160.770186,30.757764 160.42236,30.5838509 C160.248447,30.5093168 160.099379,30.5093168 160.024845,30.5093168 C159.801242,30.5093168 159.602484,30.5590062 159.453416,30.7080745 C159.378882,30.7826087 159.329193,30.8819876 159.304348,30.9068323 C159.254658,31.0062112 159.229814,31.1552795 159.229814,31.4037267 C159.229814,31.4782609 159.229814,31.6521739 159.304348,31.8509317 C159.428571,32.1987578 159.751553,32.4968944 160,32.7701863 L161.192547,34.0372671 C161.267081,34.136646 161.36646,34.2360248 161.440994,34.3354037 C161.614907,34.5838509 161.863354,34.9813665 161.863354,35.7018634 C161.863354,36.5962733 161.490683,36.9937888 161.167702,37.2173913" id="Path"></path>
            <polygon id="Path" points="165.36646 29.8136646 165.36646 37.4161491 168.795031 37.4161491 168.795031 36.5714286 166.310559 36.5714286 166.310559 33.7888199 168.42236 33.7888199 168.42236 32.9192547 166.310559 32.9192547 166.310559 30.6583851 168.720497 30.6583851 168.720497 29.8136646"></polygon>
        </g>
    </g>
</svg>