<?xml version="1.0" encoding="UTF-8"?>
<svg width="65px" height="101px" viewBox="0 0 65 101" version="1.1" xmlns="http://www.w3.org/2000/svg" xmlns:xlink="http://www.w3.org/1999/xlink">
    <!-- Generator: Sketch 60.1 (88133) - https://sketch.com -->
    <title>Group 2</title>
    <desc>Created with Sketch.</desc>
    <defs>
        <filter x="-33.7%" y="-214.3%" width="167.5%" height="528.6%" filterUnits="objectBoundingBox" id="filter-1">
            <feGaussianBlur stdDeviation="5" in="SourceGraphic"></feGaussianBlur>
        </filter>
    </defs>
    <g id="Page-1" stroke="none" stroke-width="1" fill="none" fill-rule="evenodd">
        <g id="vv" transform="translate(-20.000000, -24.000000)" fill-rule="nonzero">
            <g id="Group-2" transform="translate(22.000000, 24.000000)">
                <g id="pin_mapa" transform="translate(0.000000, 0.000000)">
                    <g id="Group-5-Copy-4">
                        <g id="Group-3">
                            <g id="Group">
                                <path d="M55.7178384,47.9114856 L54.4501099,41.9186278 C54.4647188,41.9118037 54.4796524,41.9066044 54.4939367,41.8994553 C54.9033107,41.6921327 55.2078252,41.3376046 55.3506678,40.9008623 C55.4938351,40.464445 55.4584491,39.9984566 55.2513273,39.5886858 C55.1851002,39.458378 55.0997193,39.3430182 55.0058977,39.2357824 L60.4482022,32.2882008 L55.8460721,47.9147352 C55.8035439,47.9095358 55.7606911,47.9127854 55.7178384,47.9114856 L55.7178384,47.9114856 Z M43.0304902,57.470747 L43.7362627,54.6978885 C43.7641819,54.6995133 43.7917765,54.7037377 43.8196958,54.7037377 C44.0800589,54.7037377 44.3446425,54.6442706 44.5923446,54.5188372 C45.0017186,54.3111896 45.3062331,53.9566615 45.4490758,53.5202442 C45.5166014,53.3138965 45.5412742,53.1010496 45.5299117,52.8904774 L53.9193197,50.3710855 L43.4648617,57.7937543 C43.3385758,57.6588971 43.1924867,57.5500365 43.0304902,57.470747 L43.0304902,57.470747 Z M42.4532761,54.0249025 C42.6279337,54.2543221 42.8522615,54.4310988 43.1048333,54.5461336 L42.3990608,57.318992 C42.1607733,57.3141177 41.9189147,57.3586368 41.6916651,57.4736716 C41.1556805,57.7453357 40.8563603,58.2967878 40.8722678,58.8615631 L28.0735672,60.3930857 L42.4532761,54.0249025 Z M12.5968919,53.9293651 C12.4248314,53.5884852 12.1339519,53.3350187 11.7781438,53.2024362 L12.1173951,48.1782753 C12.3436708,48.1773004 12.5673494,48.1288818 12.7796655,48.0385438 L24.5684037,60.0203599 L12.7186328,54.9243836 C12.791028,54.5877281 12.7543434,54.240349 12.5968919,53.9293651 L12.5968919,53.9293651 Z M10.4289302,46.1417695 C10.3584828,46.5118956 10.4042574,46.8927453 10.5772917,47.2346001 C10.7678568,47.6115502 11.0866556,47.893288 11.4755772,48.0482925 L11.1337288,53.1081986 C10.9983529,53.1192472 10.8655742,53.1549925 10.7360419,53.2034111 L2.63848741,41.2680638 L10.4289302,46.1417695 Z M2.50863047,24.7839678 L2.50895511,24.7839678 C2.84431067,24.6140152 3.08292281,24.3319525 3.21505225,24.0082953 L5.74499018,24.154526 C5.75018446,24.4086424 5.80602295,24.660809 5.92386812,24.8941282 C6.06443827,25.1722914 6.27253402,25.3929373 6.51601579,25.5521662 L1.86778644,38.2417388 L2.1287989,24.9139506 C2.25768192,24.887954 2.38559101,24.8463595 2.50863047,24.7839678 L2.50863047,24.7839678 Z M7.44319438,22.4046323 C7.18120799,22.406582 6.9214941,22.4618247 6.68125875,22.5833587 C6.29558363,22.7789828 6.00827514,23.1078393 5.85601787,23.5098112 L3.32932636,23.3639055 C3.31958709,23.1598325 3.26991681,22.9544596 3.17187481,22.7604602 C3.10727098,22.6327521 3.02221468,22.5235666 2.92969161,22.4231548 L9.78483974,11.1874401 L7.44319438,22.4046323 Z M26.7276,2.54813206 L22.3403831,10.2739858 C21.9170495,10.1472526 21.469043,10.1829978 21.0736286,10.3834963 C20.7424934,10.5511742 20.4853767,10.8182889 20.3217569,11.1438958 L12.0492202,9.40862519 C12.0488956,9.29554014 12.0381824,9.18245509 12.0118864,9.07001995 L26.5824849,2.37363013 C26.6266362,2.43634684 26.6756572,2.49386424 26.7276,2.54813206 L26.7276,2.54813206 Z M42.5302163,3.75762219 C42.5445006,3.76379637 42.5594341,3.76574611 42.574043,3.77127038 L42.4652878,6.67573645 C42.3386773,6.70693232 42.21369,6.74852682 42.0942216,6.80896883 C41.8695691,6.9227038 41.6806272,7.08420745 41.52837,7.27593211 L29.4568684,1.93168855 L41.6397223,2.62319714 C41.7231554,3.11160758 42.0422788,3.54964968 42.5302163,3.75762219 L42.5302163,3.75762219 Z M44.5764371,8.5348157 C44.6140956,8.20465934 44.5559846,7.87027854 44.4027534,7.56676866 C44.195307,7.15667287 43.8411222,6.85218812 43.4051275,6.70920702 C43.3100073,6.67801115 43.2132638,6.65916364 43.1161958,6.64486553 L43.2200813,3.86908245 C43.3762343,3.85835887 43.5320626,3.82911273 43.6817228,3.76867072 C43.7739212,3.73162562 43.86125,3.68580668 43.9427352,3.63251372 L54.2280546,12.2974933 L44.5764371,8.5348157 Z M55.785364,24.0196688 C55.873342,23.8890361 55.949633,23.7506044 55.9999526,23.5968997 C56.1431199,23.1604824 56.1077338,22.694494 55.9002874,22.2847231 C55.7068005,21.9019237 55.3815089,21.6166114 54.9844713,21.4632317 L56.0252747,14.8409321 C56.0372864,14.8402822 56.0492982,14.8399572 56.0616346,14.8389824 L60.4887825,29.3999826 L55.785364,24.0196688 Z M54.493612,38.8367352 C54.4160225,38.7974154 54.3377837,38.7587455 54.2537013,38.7311241 C54.2215617,38.7207255 54.1887728,38.7178009 54.1563086,38.709352 L54.6793074,24.7495223 C54.8370836,24.7206011 54.9932366,24.6715326 55.1432214,24.5954927 C55.2084745,24.562672 55.2656115,24.5201026 55.3253457,24.4801329 L60.0323354,29.8646712 C59.7086669,30.3079126 59.6330253,30.9094081 59.8972841,31.431939 C59.9479283,31.5323507 60.0112336,31.6220389 60.0797331,31.7055528 L54.493612,38.8367352 Z M27.1697629,60.0824267 C27.0967184,59.98234 27.0136099,59.8923269 26.919139,59.8140122 L32.3309272,49.2382852 C32.5373997,49.323099 32.7594551,49.3689179 32.9850816,49.3689179 C33.2454447,49.3689179 33.5097036,49.3094508 33.7577304,49.1840174 L33.7577304,49.1840174 C33.9710204,49.0758067 34.1515216,48.9289261 34.2963121,48.7563739 L42.1484369,52.6090646 C42.0857809,52.8872279 42.084807,53.1715653 42.1607733,53.4435543 L27.1697629,60.0824267 Z M53.5083224,38.6635331 C53.3294445,38.6856301 53.153813,38.7343737 52.9862975,38.8136632 L41.7101697,25.0689551 C41.8273656,24.9162253 41.9244337,24.7469227 41.9861157,24.5584476 C42.0318903,24.4196909 42.0526674,24.2776847 42.0624067,24.1353535 L52.6902237,23.3986759 C52.7207401,23.549131 52.7635929,23.6973114 52.8346895,23.8376928 C53.0817424,24.3257783 53.5316967,24.6416366 54.0296981,24.7423733 L53.5083224,38.6635331 Z M8.23239996,25.651928 C8.44179429,25.545992 8.62262008,25.4007362 8.76935843,25.2262343 L17.7216962,31.3922942 C17.6843624,31.4673593 17.6467038,31.5427493 17.6197585,31.6239886 C17.4769159,32.0604059 17.5119773,32.5267193 17.7194237,32.9364901 C17.8294775,33.1538864 17.9827087,33.3387869 18.1654823,33.4885921 L12.479696,44.7879985 C12.2751713,44.7425045 12.0638291,44.7343806 11.8521623,44.7662264 L8.13241012,25.6954723 C8.16552364,25.6811742 8.19961109,25.6688258 8.23239996,25.651928 L8.23239996,25.651928 Z M20.6986667,13.1908002 C20.8707271,13.3464547 21.0720054,13.4679886 21.2979565,13.5446785 L19.1309687,30.4450444 C18.909238,30.4603174 18.686858,30.5191346 18.4764897,30.6257206 C18.343711,30.6929867 18.2271644,30.7804001 18.1184092,30.8765874 L9.08783259,24.6565846 C9.08815723,24.6556097 9.08880652,24.6546349 9.08913116,24.65366 C9.23229844,24.2172427 9.19691242,23.7509293 8.9897906,23.3414834 C8.95635243,23.2761671 8.91382428,23.2183247 8.87356863,23.1585326 L20.6986667,13.1908002 Z M20.8843621,32.6956969 C20.9853259,32.3879626 20.9927927,32.0659302 20.9184496,31.7585208 L38.8552648,24.8531836 C39.0101192,25.1332966 39.2315253,25.3633662 39.5055234,25.5180457 L32.9847569,45.9380215 C32.7221212,45.9370466 32.4562391,45.9887148 32.2062645,46.115448 C32.1306229,46.1537929 32.0627726,46.2018866 31.9949223,46.2499802 L20.6418543,33.1587607 C20.7428181,33.0177294 20.8288483,32.8653245 20.8843621,32.6956969 L20.8843621,32.6956969 Z M21.941073,13.6327418 C22.1764387,13.6203934 22.408558,13.5615762 22.6247698,13.4520657 C22.8296192,13.3484044 23.0078478,13.208023 23.1526383,13.0390453 L38.8039713,23.3002139 C38.669894,23.5894257 38.6160033,23.9111331 38.6556097,24.2334905 L20.6463993,31.166774 C20.4266164,30.8577399 20.1208033,30.6348193 19.7753838,30.524334 L21.941073,13.6327418 Z M52.0857396,39.829154 C52.0078254,40.0676724 51.9880223,40.3143148 52.0152922,40.5560829 L34.4222733,46.7286419 C34.2258647,46.4209076 33.9466722,46.1947375 33.6259256,46.0644297 L40.1210453,25.7243934 C40.1989595,25.735442 40.2771983,25.743241 40.3557618,25.743241 C40.6216438,25.743241 40.8855781,25.6805242 41.1293845,25.5570406 C41.1628227,25.5404678 41.1904173,25.5167459 41.2222322,25.4982233 L52.4620001,39.1987373 C52.2954586,39.3781136 52.1646277,39.5896606 52.0857396,39.829154 L52.0857396,39.829154 Z M52.7350243,22.5251913 C52.7113254,22.5986316 52.6996383,22.6730468 52.6856787,22.747462 L41.9812461,23.4893389 C41.9543007,23.4071248 41.9263815,23.3249106 41.8867751,23.246271 C41.6770562,22.8316258 41.3205989,22.5407893 40.912848,22.4000829 L42.7772691,10.0559396 C42.8087594,10.0578894 42.8402498,10.0634136 42.8717401,10.0634136 C43.1372975,10.0634136 43.4015564,10.0010219 43.6453628,9.87753821 C43.6521803,9.87396368 43.6576992,9.86908932 43.6645167,9.8655148 L53.1456969,21.861954 C52.9629233,22.0481544 52.8187821,22.2701001 52.7350243,22.5251913 L52.7350243,22.5251913 Z M41.2066494,8.76066084 C41.2374904,8.88316965 41.27872,9.00405367 41.3371556,9.11941342 C41.5127871,9.4667925 41.7981478,9.73195745 42.1451905,9.89378606 L40.2703808,22.30812 C40.035989,22.3194935 39.8006233,22.3757111 39.5782433,22.4884712 C39.4289078,22.5641862 39.301648,22.664273 39.185426,22.7734585 L23.473385,12.4723202 C23.4756575,12.4658211 23.4795532,12.4602968 23.481501,12.4534727 C23.548702,12.2487498 23.5730502,12.0375277 23.562337,11.8279304 L41.2066494,8.76066084 Z M13.8214429,46.4394302 C13.8188457,46.1791396 13.7636565,45.9207987 13.6428896,45.6816303 C13.5075137,45.4145157 13.3078587,45.2045934 13.0763887,45.0466643 L18.7365283,33.7989261 C18.9063162,33.852219 19.0806492,33.8804903 19.2540082,33.8804903 C19.5198903,33.8804903 19.7838245,33.8177736 20.0276309,33.6942899 C20.0782751,33.6689433 20.1217772,33.6344978 20.1688504,33.6046018 L31.5436695,46.720843 C31.465106,46.8430268 31.3962818,46.9720348 31.3495333,47.113716 C31.3342751,47.1605099 31.3290809,47.2086035 31.318043,47.2560472 L13.8214429,46.4394302 Z M44.6416902,51.4778892 C44.5498164,51.4278458 44.4537223,51.3839766 44.3521092,51.350506 C43.9157899,51.2071999 43.4502528,51.2426203 43.0412034,51.4499428 C42.7805156,51.5818754 42.569498,51.7784744 42.4084754,52.0127684 L34.6125137,48.1876991 C34.702115,47.91571 34.7167239,47.6219489 34.6625086,47.333387 L52.2071558,41.1774008 C52.2681886,41.2914607 52.3409085,41.394797 52.4223937,41.4887096 L44.6416902,51.4778892 Z M54.5945758,14.0194407 C54.7620912,14.3508969 55.0425822,14.5981892 55.3847553,14.7336963 L54.3452504,21.347872 C54.1180008,21.3507966 53.8936729,21.3988902 53.6810322,21.4921529 L44.1745299,9.46321798 C44.2547165,9.36963035 44.3219175,9.26564409 44.3806778,9.15580861 L54.4595246,13.0855142 C54.40466,13.4026722 54.4468635,13.7273043 54.5945758,14.0194407 L54.5945758,14.0194407 Z M27.8145026,3.01119585 C28.0424016,3.01119585 28.2738716,2.95920273 28.4907327,2.84936725 L28.4910573,2.84936725 C28.6929849,2.74700578 28.8582278,2.60272485 28.989708,2.43537197 L41.2274265,7.85338078 C41.202429,7.93721969 41.1826259,8.02203348 41.1706141,8.10717223 L23.4032622,11.1962139 C23.3951462,11.1780163 23.3909258,11.1588438 23.3821605,11.1412962 C23.268211,10.9164259 23.1071884,10.7273009 22.915974,10.575221 L27.2707267,2.90688464 C27.4434364,2.97350084 27.6275086,3.01119585 27.8145026,3.01119585 L27.8145026,3.01119585 Z M10.5045719,10.915451 C10.520804,10.9161009 10.5370361,10.9193505 10.5529436,10.9193505 C10.7860368,10.9193505 11.0171822,10.8647577 11.2307968,10.756547 C11.5444013,10.597643 11.7723003,10.340277 11.909624,10.0435913 L20.141905,11.770088 C20.1146351,12.0778224 20.169175,12.3868565 20.3074726,12.670869 L8.41257648,22.6974186 C8.3093402,22.6282027 8.19961109,22.5693855 8.08176591,22.5232416 L10.5045719,10.915451 Z M2.84723245,39.4795002 C2.72484228,39.2374072 2.54012078,39.042433 2.31839004,38.8991269 L7.11725345,25.7988086 C7.22990435,25.8215556 7.34385382,25.8371535 7.45975114,25.8371535 C7.47241219,25.8371535 7.48507324,25.8352038 7.49805894,25.8348788 L11.2337186,44.9875221 C11.0048457,45.1240041 10.8146053,45.3072798 10.6727366,45.5279257 L2.91410878,40.6740423 C2.91995234,40.6584443 2.92904233,40.6444712 2.9342366,40.6282233 C3.05954856,40.2460739 3.02838289,39.8379278 2.84723245,39.4795002 L2.84723245,39.4795002 Z M13.3237661,47.6654931 C13.4873859,47.5007399 13.6159443,47.3054407 13.7026238,47.0847949 L31.2901238,47.9056364 C31.3173937,48.0843627 31.3654408,48.2604895 31.4491985,48.4262175 C31.5371766,48.6000696 31.6530739,48.7498748 31.7852034,48.8785578 L26.3390031,59.5218758 C25.984169,59.4289381 25.6124535,59.4620837 25.2822922,59.6294366 C25.240738,59.6505588 25.2060013,59.6788301 25.1676935,59.7032019 L13.3237661,47.6654931 Z M54.9870684,48.0664901 C54.400115,48.3638258 54.0985223,48.9952173 54.1826046,49.6136106 L45.369863,52.2600608 C45.361747,52.243163 45.3578513,52.2246404 45.3497352,52.2080676 C45.2919489,52.0940077 45.2205276,51.9903464 45.1413148,51.8935092 L52.9333808,41.8897066 C53.1765379,42.0144901 53.4456665,42.0843559 53.7212878,42.0843559 C53.7540767,42.0843559 53.7871902,42.0807813 53.8203037,42.0788316 L55.0795915,48.0304199 C55.0487504,48.0434181 55.0169355,48.0512171 54.9870684,48.0664901 L54.9870684,48.0664901 Z M62.5814272,30.0719937 C62.2983391,29.5124177 61.7113857,29.2069581 61.1224844,29.2521271 L56.680403,14.6420584 C57.004396,14.4568329 57.2488517,14.1663213 57.3660476,13.8088685 C57.4913596,13.4263941 57.4601939,13.018573 57.2790435,12.6598204 C56.9044062,11.9189184 55.9973554,11.6215827 55.2574955,11.9962581 C55.1802306,12.035253 55.1097832,12.0830217 55.0416083,12.13339 L44.3939881,3.16295079 C44.4335945,3.09828434 44.4732008,3.03329293 44.5033926,2.96180238 C44.8283596,2.19815333 44.4715776,1.31199547 43.7083434,0.986713465 C42.9451092,0.66175642 42.0601342,1.01888421 41.7354918,1.78253327 L41.7354918,1.78285822 C41.7085465,1.84589989 41.6932883,1.91024139 41.6757576,1.97425792 L29.2903268,1.27105088 C29.2663033,1.11994585 29.2263723,0.969490742 29.1536524,0.825859728 C28.7793397,0.0849576661 27.8726136,-0.213027944 27.132429,0.162297443 C26.5266464,0.46938185 26.224729,1.13326909 26.3383538,1.77083481 L11.7333432,8.48282257 C11.299621,7.9303956 10.5221025,7.74029572 9.87216854,8.06947721 C9.51376337,8.2511282 9.24723199,8.56178713 9.12224468,8.94361166 C8.99693273,9.3260861 9.02809839,9.73423215 9.20924883,10.0926598 C9.27807301,10.2284918 9.3699468,10.3458013 9.47220915,10.4523872 L2.39500564,22.0527038 C2.0054348,21.8937998 1.55418192,21.892175 1.15065146,22.096898 C0.410466877,22.4718984 0.113094472,23.3795034 0.487731759,24.1204055 C0.694528944,24.5298514 1.06494588,24.8011905 1.47951418,24.9009523 L1.20941173,38.6892047 C1.07793157,38.7158511 0.948723914,38.7535462 0.826009101,38.8156129 C0.467603933,38.9972639 0.201072553,39.3079229 0.0757606008,39.6900724 C-0.0495513513,40.0722218 -0.0187103268,40.4803679 0.163089396,40.8387955 C0.344564477,41.197873 0.654597933,41.4646628 1.03605271,41.5897712 C1.19058247,41.6404645 1.3486833,41.6654862 1.50645949,41.6654862 C1.69215492,41.6654862 1.87622714,41.629091 2.05185866,41.5605251 L10.1899934,53.5556645 C9.7484798,54.0037803 9.61375322,54.6972386 9.91274883,55.2889854 C10.1773324,55.8124912 10.707798,56.1147012 11.2574175,56.1147012 C11.4856411,56.1147012 11.7171111,56.0623831 11.9342968,55.9525477 C12.1414187,55.8475865 12.3128298,55.6958316 12.4491796,55.5158054 L24.4901648,60.6939959 C24.430106,61.0095292 24.4638688,61.3448849 24.6193725,61.6529441 C24.883956,62.176125 25.4144217,62.478335 25.9640412,62.478335 C26.1922648,62.478335 26.4234101,62.4263419 26.6405959,62.3165064 L26.6405959,62.3165064 C27.1155476,62.0760382 27.404804,61.615899 27.4544743,61.1216394 L41.02907,59.4975041 C41.2936535,60.0206849 41.8241192,60.32257 42.373414,60.32257 C42.6016376,60.32257 42.8331076,60.2705769 43.0499687,60.1604164 C43.7193813,59.8214862 44.020974,59.0477635 43.7966462,58.3549551 L54.7361199,50.5881568 C54.8731189,50.6963675 55.0266748,50.7844308 55.1974367,50.8406484 C55.3516418,50.8910167 55.5100672,50.9163634 55.6678434,50.9163634 C55.9002874,50.9163634 56.1317574,50.8614456 56.345372,50.7532349 C56.7037772,50.571584 56.9703086,50.260925 57.0956205,49.8791005 C57.2206079,49.4966261 57.1897668,49.088805 57.0082917,48.7300524 C56.8820059,48.4801604 56.6901422,48.278687 56.4583476,48.1347311 L61.136444,32.2501808 C61.1715054,32.2524555 61.2065668,32.2573299 61.2419528,32.2573299 C61.4698517,32.2573299 61.7013217,32.2053367 61.9181828,32.0955013 L61.9185075,32.0955013 C62.6583674,31.7205008 62.9557398,30.8128958 62.5814272,30.0719937 L62.5814272,30.0719937 Z" id="Fill-1" fill="#FEFEFE" style="mix-blend-mode: darken;"></path>
                                <path d="M55.7178384,47.9114856 L54.4501099,41.9186278 C54.4647188,41.9118037 54.4796524,41.9066044 54.4939367,41.8994553 C54.9033107,41.6921327 55.2078252,41.3376046 55.3506678,40.9008623 C55.4938351,40.464445 55.4584491,39.9984566 55.2513273,39.5886858 C55.1851002,39.458378 55.0997193,39.3430182 55.0058977,39.2357824 L60.4482022,32.2882008 L55.8460721,47.9147352 C55.8035439,47.9095358 55.7606911,47.9127854 55.7178384,47.9114856 L55.7178384,47.9114856 Z M43.0304902,57.470747 L43.7362627,54.6978885 C43.7641819,54.6995133 43.7917765,54.7037377 43.8196958,54.7037377 C44.0800589,54.7037377 44.3446425,54.6442706 44.5923446,54.5188372 C45.0017186,54.3111896 45.3062331,53.9566615 45.4490758,53.5202442 C45.5166014,53.3138965 45.5412742,53.1010496 45.5299117,52.8904774 L53.9193197,50.3710855 L43.4648617,57.7937543 C43.3385758,57.6588971 43.1924867,57.5500365 43.0304902,57.470747 L43.0304902,57.470747 Z M42.4532761,54.0249025 C42.6279337,54.2543221 42.8522615,54.4310988 43.1048333,54.5461336 L42.3990608,57.318992 C42.1607733,57.3141177 41.9189147,57.3586368 41.6916651,57.4736716 C41.1556805,57.7453357 40.8563603,58.2967878 40.8722678,58.8615631 L28.0735672,60.3930857 L42.4532761,54.0249025 Z M12.5968919,53.9293651 C12.4248314,53.5884852 12.1339519,53.3350187 11.7781438,53.2024362 L12.1173951,48.1782753 C12.3436708,48.1773004 12.5673494,48.1288818 12.7796655,48.0385438 L24.5684037,60.0203599 L12.7186328,54.9243836 C12.791028,54.5877281 12.7543434,54.240349 12.5968919,53.9293651 L12.5968919,53.9293651 Z M10.4289302,46.1417695 C10.3584828,46.5118956 10.4042574,46.8927453 10.5772917,47.2346001 C10.7678568,47.6115502 11.0866556,47.893288 11.4755772,48.0482925 L11.1337288,53.1081986 C10.9983529,53.1192472 10.8655742,53.1549925 10.7360419,53.2034111 L2.63848741,41.2680638 L10.4289302,46.1417695 Z M2.50863047,24.7839678 L2.50895511,24.7839678 C2.84431067,24.6140152 3.08292281,24.3319525 3.21505225,24.0082953 L5.74499018,24.154526 C5.75018446,24.4086424 5.80602295,24.660809 5.92386812,24.8941282 C6.06443827,25.1722914 6.27253402,25.3929373 6.51601579,25.5521662 L1.86778644,38.2417388 L2.1287989,24.9139506 C2.25768192,24.887954 2.38559101,24.8463595 2.50863047,24.7839678 L2.50863047,24.7839678 Z M7.44319438,22.4046323 C7.18120799,22.406582 6.9214941,22.4618247 6.68125875,22.5833587 C6.29558363,22.7789828 6.00827514,23.1078393 5.85601787,23.5098112 L3.32932636,23.3639055 C3.31958709,23.1598325 3.26991681,22.9544596 3.17187481,22.7604602 C3.10727098,22.6327521 3.02221468,22.5235666 2.92969161,22.4231548 L9.78483974,11.1874401 L7.44319438,22.4046323 Z M26.7276,2.54813206 L22.3403831,10.2739858 C21.9170495,10.1472526 21.469043,10.1829978 21.0736286,10.3834963 C20.7424934,10.5511742 20.4853767,10.8182889 20.3217569,11.1438958 L12.0492202,9.40862519 C12.0488956,9.29554014 12.0381824,9.18245509 12.0118864,9.07001995 L26.5824849,2.37363013 C26.6266362,2.43634684 26.6756572,2.49386424 26.7276,2.54813206 L26.7276,2.54813206 Z M42.5302163,3.75762219 C42.5445006,3.76379637 42.5594341,3.76574611 42.574043,3.77127038 L42.4652878,6.67573645 C42.3386773,6.70693232 42.21369,6.74852682 42.0942216,6.80896883 C41.8695691,6.9227038 41.6806272,7.08420745 41.52837,7.27593211 L29.4568684,1.93168855 L41.6397223,2.62319714 C41.7231554,3.11160758 42.0422788,3.54964968 42.5302163,3.75762219 L42.5302163,3.75762219 Z M44.5764371,8.5348157 C44.6140956,8.20465934 44.5559846,7.87027854 44.4027534,7.56676866 C44.195307,7.15667287 43.8411222,6.85218812 43.4051275,6.70920702 C43.3100073,6.67801115 43.2132638,6.65916364 43.1161958,6.64486553 L43.2200813,3.86908245 C43.3762343,3.85835887 43.5320626,3.82911273 43.6817228,3.76867072 C43.7739212,3.73162562 43.86125,3.68580668 43.9427352,3.63251372 L54.2280546,12.2974933 L44.5764371,8.5348157 Z M55.785364,24.0196688 C55.873342,23.8890361 55.949633,23.7506044 55.9999526,23.5968997 C56.1431199,23.1604824 56.1077338,22.694494 55.9002874,22.2847231 C55.7068005,21.9019237 55.3815089,21.6166114 54.9844713,21.4632317 L56.0252747,14.8409321 C56.0372864,14.8402822 56.0492982,14.8399572 56.0616346,14.8389824 L60.4887825,29.3999826 L55.785364,24.0196688 Z M54.493612,38.8367352 C54.4160225,38.7974154 54.3377837,38.7587455 54.2537013,38.7311241 C54.2215617,38.7207255 54.1887728,38.7178009 54.1563086,38.709352 L54.6793074,24.7495223 C54.8370836,24.7206011 54.9932366,24.6715326 55.1432214,24.5954927 C55.2084745,24.562672 55.2656115,24.5201026 55.3253457,24.4801329 L60.0323354,29.8646712 C59.7086669,30.3079126 59.6330253,30.9094081 59.8972841,31.431939 C59.9479283,31.5323507 60.0112336,31.6220389 60.0797331,31.7055528 L54.493612,38.8367352 Z M27.1697629,60.0824267 C27.0967184,59.98234 27.0136099,59.8923269 26.919139,59.8140122 L32.3309272,49.2382852 C32.5373997,49.323099 32.7594551,49.3689179 32.9850816,49.3689179 C33.2454447,49.3689179 33.5097036,49.3094508 33.7577304,49.1840174 L33.7577304,49.1840174 C33.9710204,49.0758067 34.1515216,48.9289261 34.2963121,48.7563739 L42.1484369,52.6090646 C42.0857809,52.8872279 42.084807,53.1715653 42.1607733,53.4435543 L27.1697629,60.0824267 Z M53.5083224,38.6635331 C53.3294445,38.6856301 53.153813,38.7343737 52.9862975,38.8136632 L41.7101697,25.0689551 C41.8273656,24.9162253 41.9244337,24.7469227 41.9861157,24.5584476 C42.0318903,24.4196909 42.0526674,24.2776847 42.0624067,24.1353535 L52.6902237,23.3986759 C52.7207401,23.549131 52.7635929,23.6973114 52.8346895,23.8376928 C53.0817424,24.3257783 53.5316967,24.6416366 54.0296981,24.7423733 L53.5083224,38.6635331 Z M8.23239996,25.651928 C8.44179429,25.545992 8.62262008,25.4007362 8.76935843,25.2262343 L17.7216962,31.3922942 C17.6843624,31.4673593 17.6467038,31.5427493 17.6197585,31.6239886 C17.4769159,32.0604059 17.5119773,32.5267193 17.7194237,32.9364901 C17.8294775,33.1538864 17.9827087,33.3387869 18.1654823,33.4885921 L12.479696,44.7879985 C12.2751713,44.7425045 12.0638291,44.7343806 11.8521623,44.7662264 L8.13241012,25.6954723 C8.16552364,25.6811742 8.19961109,25.6688258 8.23239996,25.651928 L8.23239996,25.651928 Z M20.6986667,13.1908002 C20.8707271,13.3464547 21.0720054,13.4679886 21.2979565,13.5446785 L19.1309687,30.4450444 C18.909238,30.4603174 18.686858,30.5191346 18.4764897,30.6257206 C18.343711,30.6929867 18.2271644,30.7804001 18.1184092,30.8765874 L9.08783259,24.6565846 C9.08815723,24.6556097 9.08880652,24.6546349 9.08913116,24.65366 C9.23229844,24.2172427 9.19691242,23.7509293 8.9897906,23.3414834 C8.95635243,23.2761671 8.91382428,23.2183247 8.87356863,23.1585326 L20.6986667,13.1908002 Z M20.8843621,32.6956969 C20.9853259,32.3879626 20.9927927,32.0659302 20.9184496,31.7585208 L38.8552648,24.8531836 C39.0101192,25.1332966 39.2315253,25.3633662 39.5055234,25.5180457 L32.9847569,45.9380215 C32.7221212,45.9370466 32.4562391,45.9887148 32.2062645,46.115448 C32.1306229,46.1537929 32.0627726,46.2018866 31.9949223,46.2499802 L20.6418543,33.1587607 C20.7428181,33.0177294 20.8288483,32.8653245 20.8843621,32.6956969 L20.8843621,32.6956969 Z M21.941073,13.6327418 C22.1764387,13.6203934 22.408558,13.5615762 22.6247698,13.4520657 C22.8296192,13.3484044 23.0078478,13.208023 23.1526383,13.0390453 L38.8039713,23.3002139 C38.669894,23.5894257 38.6160033,23.9111331 38.6556097,24.2334905 L20.6463993,31.166774 C20.4266164,30.8577399 20.1208033,30.6348193 19.7753838,30.524334 L21.941073,13.6327418 Z M52.0857396,39.829154 C52.0078254,40.0676724 51.9880223,40.3143148 52.0152922,40.5560829 L34.4222733,46.7286419 C34.2258647,46.4209076 33.9466722,46.1947375 33.6259256,46.0644297 L40.1210453,25.7243934 C40.1989595,25.735442 40.2771983,25.743241 40.3557618,25.743241 C40.6216438,25.743241 40.8855781,25.6805242 41.1293845,25.5570406 C41.1628227,25.5404678 41.1904173,25.5167459 41.2222322,25.4982233 L52.4620001,39.1987373 C52.2954586,39.3781136 52.1646277,39.5896606 52.0857396,39.829154 L52.0857396,39.829154 Z M52.7350243,22.5251913 C52.7113254,22.5986316 52.6996383,22.6730468 52.6856787,22.747462 L41.9812461,23.4893389 C41.9543007,23.4071248 41.9263815,23.3249106 41.8867751,23.246271 C41.6770562,22.8316258 41.3205989,22.5407893 40.912848,22.4000829 L42.7772691,10.0559396 C42.8087594,10.0578894 42.8402498,10.0634136 42.8717401,10.0634136 C43.1372975,10.0634136 43.4015564,10.0010219 43.6453628,9.87753821 C43.6521803,9.87396368 43.6576992,9.86908932 43.6645167,9.8655148 L53.1456969,21.861954 C52.9629233,22.0481544 52.8187821,22.2701001 52.7350243,22.5251913 L52.7350243,22.5251913 Z M41.2066494,8.76066084 C41.2374904,8.88316965 41.27872,9.00405367 41.3371556,9.11941342 C41.5127871,9.4667925 41.7981478,9.73195745 42.1451905,9.89378606 L40.2703808,22.30812 C40.035989,22.3194935 39.8006233,22.3757111 39.5782433,22.4884712 C39.4289078,22.5641862 39.301648,22.664273 39.185426,22.7734585 L23.473385,12.4723202 C23.4756575,12.4658211 23.4795532,12.4602968 23.481501,12.4534727 C23.548702,12.2487498 23.5730502,12.0375277 23.562337,11.8279304 L41.2066494,8.76066084 Z M13.8214429,46.4394302 C13.8188457,46.1791396 13.7636565,45.9207987 13.6428896,45.6816303 C13.5075137,45.4145157 13.3078587,45.2045934 13.0763887,45.0466643 L18.7365283,33.7989261 C18.9063162,33.852219 19.0806492,33.8804903 19.2540082,33.8804903 C19.5198903,33.8804903 19.7838245,33.8177736 20.0276309,33.6942899 C20.0782751,33.6689433 20.1217772,33.6344978 20.1688504,33.6046018 L31.5436695,46.720843 C31.465106,46.8430268 31.3962818,46.9720348 31.3495333,47.113716 C31.3342751,47.1605099 31.3290809,47.2086035 31.318043,47.2560472 L13.8214429,46.4394302 Z M44.6416902,51.4778892 C44.5498164,51.4278458 44.4537223,51.3839766 44.3521092,51.350506 C43.9157899,51.2071999 43.4502528,51.2426203 43.0412034,51.4499428 C42.7805156,51.5818754 42.569498,51.7784744 42.4084754,52.0127684 L34.6125137,48.1876991 C34.702115,47.91571 34.7167239,47.6219489 34.6625086,47.333387 L52.2071558,41.1774008 C52.2681886,41.2914607 52.3409085,41.394797 52.4223937,41.4887096 L44.6416902,51.4778892 Z M54.5945758,14.0194407 C54.7620912,14.3508969 55.0425822,14.5981892 55.3847553,14.7336963 L54.3452504,21.347872 C54.1180008,21.3507966 53.8936729,21.3988902 53.6810322,21.4921529 L44.1745299,9.46321798 C44.2547165,9.36963035 44.3219175,9.26564409 44.3806778,9.15580861 L54.4595246,13.0855142 C54.40466,13.4026722 54.4468635,13.7273043 54.5945758,14.0194407 L54.5945758,14.0194407 Z M27.8145026,3.01119585 C28.0424016,3.01119585 28.2738716,2.95920273 28.4907327,2.84936725 L28.4910573,2.84936725 C28.6929849,2.74700578 28.8582278,2.60272485 28.989708,2.43537197 L41.2274265,7.85338078 C41.202429,7.93721969 41.1826259,8.02203348 41.1706141,8.10717223 L23.4032622,11.1962139 C23.3951462,11.1780163 23.3909258,11.1588438 23.3821605,11.1412962 C23.268211,10.9164259 23.1071884,10.7273009 22.915974,10.575221 L27.2707267,2.90688464 C27.4434364,2.97350084 27.6275086,3.01119585 27.8145026,3.01119585 L27.8145026,3.01119585 Z M10.5045719,10.915451 C10.520804,10.9161009 10.5370361,10.9193505 10.5529436,10.9193505 C10.7860368,10.9193505 11.0171822,10.8647577 11.2307968,10.756547 C11.5444013,10.597643 11.7723003,10.340277 11.909624,10.0435913 L20.141905,11.770088 C20.1146351,12.0778224 20.169175,12.3868565 20.3074726,12.670869 L8.41257648,22.6974186 C8.3093402,22.6282027 8.19961109,22.5693855 8.08176591,22.5232416 L10.5045719,10.915451 Z M2.84723245,39.4795002 C2.72484228,39.2374072 2.54012078,39.042433 2.31839004,38.8991269 L7.11725345,25.7988086 C7.22990435,25.8215556 7.34385382,25.8371535 7.45975114,25.8371535 C7.47241219,25.8371535 7.48507324,25.8352038 7.49805894,25.8348788 L11.2337186,44.9875221 C11.0048457,45.1240041 10.8146053,45.3072798 10.6727366,45.5279257 L2.91410878,40.6740423 C2.91995234,40.6584443 2.92904233,40.6444712 2.9342366,40.6282233 C3.05954856,40.2460739 3.02838289,39.8379278 2.84723245,39.4795002 L2.84723245,39.4795002 Z M13.3237661,47.6654931 C13.4873859,47.5007399 13.6159443,47.3054407 13.7026238,47.0847949 L31.2901238,47.9056364 C31.3173937,48.0843627 31.3654408,48.2604895 31.4491985,48.4262175 C31.5371766,48.6000696 31.6530739,48.7498748 31.7852034,48.8785578 L26.3390031,59.5218758 C25.984169,59.4289381 25.6124535,59.4620837 25.2822922,59.6294366 C25.240738,59.6505588 25.2060013,59.6788301 25.1676935,59.7032019 L13.3237661,47.6654931 Z M54.9870684,48.0664901 C54.400115,48.3638258 54.0985223,48.9952173 54.1826046,49.6136106 L45.369863,52.2600608 C45.361747,52.243163 45.3578513,52.2246404 45.3497352,52.2080676 C45.2919489,52.0940077 45.2205276,51.9903464 45.1413148,51.8935092 L52.9333808,41.8897066 C53.1765379,42.0144901 53.4456665,42.0843559 53.7212878,42.0843559 C53.7540767,42.0843559 53.7871902,42.0807813 53.8203037,42.0788316 L55.0795915,48.0304199 C55.0487504,48.0434181 55.0169355,48.0512171 54.9870684,48.0664901 L54.9870684,48.0664901 Z M62.5814272,30.0719937 C62.2983391,29.5124177 61.7113857,29.2069581 61.1224844,29.2521271 L56.680403,14.6420584 C57.004396,14.4568329 57.2488517,14.1663213 57.3660476,13.8088685 C57.4913596,13.4263941 57.4601939,13.018573 57.2790435,12.6598204 C56.9044062,11.9189184 55.9973554,11.6215827 55.2574955,11.9962581 C55.1802306,12.035253 55.1097832,12.0830217 55.0416083,12.13339 L44.3939881,3.16295079 C44.4335945,3.09828434 44.4732008,3.03329293 44.5033926,2.96180238 C44.8283596,2.19815333 44.4715776,1.31199547 43.7083434,0.986713465 C42.9451092,0.66175642 42.0601342,1.01888421 41.7354918,1.78253327 L41.7354918,1.78285822 C41.7085465,1.84589989 41.6932883,1.91024139 41.6757576,1.97425792 L29.2903268,1.27105088 C29.2663033,1.11994585 29.2263723,0.969490742 29.1536524,0.825859728 C28.7793397,0.0849576661 27.8726136,-0.213027944 27.132429,0.162297443 C26.5266464,0.46938185 26.224729,1.13326909 26.3383538,1.77083481 L11.7333432,8.48282257 C11.299621,7.9303956 10.5221025,7.74029572 9.87216854,8.06947721 C9.51376337,8.2511282 9.24723199,8.56178713 9.12224468,8.94361166 C8.99693273,9.3260861 9.02809839,9.73423215 9.20924883,10.0926598 C9.27807301,10.2284918 9.3699468,10.3458013 9.47220915,10.4523872 L2.39500564,22.0527038 C2.0054348,21.8937998 1.55418192,21.892175 1.15065146,22.096898 C0.410466877,22.4718984 0.113094472,23.3795034 0.487731759,24.1204055 C0.694528944,24.5298514 1.06494588,24.8011905 1.47951418,24.9009523 L1.20941173,38.6892047 C1.07793157,38.7158511 0.948723914,38.7535462 0.826009101,38.8156129 C0.467603933,38.9972639 0.201072553,39.3079229 0.0757606008,39.6900724 C-0.0495513513,40.0722218 -0.0187103268,40.4803679 0.163089396,40.8387955 C0.344564477,41.197873 0.654597933,41.4646628 1.03605271,41.5897712 C1.19058247,41.6404645 1.3486833,41.6654862 1.50645949,41.6654862 C1.69215492,41.6654862 1.87622714,41.629091 2.05185866,41.5605251 L10.1899934,53.5556645 C9.7484798,54.0037803 9.61375322,54.6972386 9.91274883,55.2889854 C10.1773324,55.8124912 10.707798,56.1147012 11.2574175,56.1147012 C11.4856411,56.1147012 11.7171111,56.0623831 11.9342968,55.9525477 C12.1414187,55.8475865 12.3128298,55.6958316 12.4491796,55.5158054 L24.4901648,60.6939959 C24.430106,61.0095292 24.4638688,61.3448849 24.6193725,61.6529441 C24.883956,62.176125 25.4144217,62.478335 25.9640412,62.478335 C26.1922648,62.478335 26.4234101,62.4263419 26.6405959,62.3165064 L26.6405959,62.3165064 C27.1155476,62.0760382 27.404804,61.615899 27.4544743,61.1216394 L41.02907,59.4975041 C41.2936535,60.0206849 41.8241192,60.32257 42.373414,60.32257 C42.6016376,60.32257 42.8331076,60.2705769 43.0499687,60.1604164 C43.7193813,59.8214862 44.020974,59.0477635 43.7966462,58.3549551 L54.7361199,50.5881568 C54.8731189,50.6963675 55.0266748,50.7844308 55.1974367,50.8406484 C55.3516418,50.8910167 55.5100672,50.9163634 55.6678434,50.9163634 C55.9002874,50.9163634 56.1317574,50.8614456 56.345372,50.7532349 C56.7037772,50.571584 56.9703086,50.260925 57.0956205,49.8791005 C57.2206079,49.4966261 57.1897668,49.088805 57.0082917,48.7300524 C56.8820059,48.4801604 56.6901422,48.278687 56.4583476,48.1347311 L61.136444,32.2501808 C61.1715054,32.2524555 61.2065668,32.2573299 61.2419528,32.2573299 C61.4698517,32.2573299 61.7013217,32.2053367 61.9181828,32.0955013 L61.9185075,32.0955013 C62.6583674,31.7205008 62.9557398,30.8128958 62.5814272,30.0719937 L62.5814272,30.0719937 Z" id="Fill-1" fill="#285E7A"></path>
                            </g>
                        </g>
                    </g>
                    <g id="Oval-3" opacity="0.5" transform="translate(7.000000, 81.000000)" fill="#285E7A">
                        <g id="path-1-link">
                            <ellipse id="path-1" filter="url(#filter-1)" cx="22.6470588" cy="4.08333337" rx="22.2352941" ry="3.5"></ellipse>
                        </g>
                    </g>
                </g>
                <path d="M55.7178384,47.9114856 L54.4501099,41.9186278 C54.4647188,41.9118037 54.4796524,41.9066044 54.4939367,41.8994553 C54.9033107,41.6921327 55.2078252,41.3376046 55.3506678,40.9008623 C55.4938351,40.464445 55.4584491,39.9984566 55.2513273,39.5886858 C55.1851002,39.458378 55.0997193,39.3430182 55.0058977,39.2357824 L60.4482022,32.2882008 L55.8460721,47.9147352 C55.8035439,47.9095358 55.7606911,47.9127854 55.7178384,47.9114856 L55.7178384,47.9114856 Z M43.0304902,57.470747 L43.7362627,54.6978885 C43.7641819,54.6995133 43.7917765,54.7037377 43.8196958,54.7037377 C44.0800589,54.7037377 44.3446425,54.6442706 44.5923446,54.5188372 C45.0017186,54.3111896 45.3062331,53.9566615 45.4490758,53.5202442 C45.5166014,53.3138965 45.5412742,53.1010496 45.5299117,52.8904774 L53.9193197,50.3710855 L43.4648617,57.7937543 C43.3385758,57.6588971 43.1924867,57.5500365 43.0304902,57.470747 L43.0304902,57.470747 Z M42.4532761,54.0249025 C42.6279337,54.2543221 42.8522615,54.4310988 43.1048333,54.5461336 L42.3990608,57.318992 C42.1607733,57.3141177 41.9189147,57.3586368 41.6916651,57.4736716 C41.1556805,57.7453357 40.8563603,58.2967878 40.8722678,58.8615631 L28.0735672,60.3930857 L42.4532761,54.0249025 Z M12.5968919,53.9293651 C12.4248314,53.5884852 12.1339519,53.3350187 11.7781438,53.2024362 L12.1173951,48.1782753 C12.3436708,48.1773004 12.5673494,48.1288818 12.7796655,48.0385438 L24.5684037,60.0203599 L12.7186328,54.9243836 C12.791028,54.5877281 12.7543434,54.240349 12.5968919,53.9293651 L12.5968919,53.9293651 Z M10.4289302,46.1417695 C10.3584828,46.5118956 10.4042574,46.8927453 10.5772917,47.2346001 C10.7678568,47.6115502 11.0866556,47.893288 11.4755772,48.0482925 L11.1337288,53.1081986 C10.9983529,53.1192472 10.8655742,53.1549925 10.7360419,53.2034111 L2.63848741,41.2680638 L10.4289302,46.1417695 Z M2.50863047,24.7839678 L2.50895511,24.7839678 C2.84431067,24.6140152 3.08292281,24.3319525 3.21505225,24.0082953 L5.74499018,24.154526 C5.75018446,24.4086424 5.80602295,24.660809 5.92386812,24.8941282 C6.06443827,25.1722914 6.27253402,25.3929373 6.51601579,25.5521662 L1.86778644,38.2417388 L2.1287989,24.9139506 C2.25768192,24.887954 2.38559101,24.8463595 2.50863047,24.7839678 L2.50863047,24.7839678 Z M7.44319438,22.4046323 C7.18120799,22.406582 6.9214941,22.4618247 6.68125875,22.5833587 C6.29558363,22.7789828 6.00827514,23.1078393 5.85601787,23.5098112 L3.32932636,23.3639055 C3.31958709,23.1598325 3.26991681,22.9544596 3.17187481,22.7604602 C3.10727098,22.6327521 3.02221468,22.5235666 2.92969161,22.4231548 L9.78483974,11.1874401 L7.44319438,22.4046323 Z M26.7276,2.54813206 L22.3403831,10.2739858 C21.9170495,10.1472526 21.469043,10.1829978 21.0736286,10.3834963 C20.7424934,10.5511742 20.4853767,10.8182889 20.3217569,11.1438958 L12.0492202,9.40862519 C12.0488956,9.29554014 12.0381824,9.18245509 12.0118864,9.07001995 L26.5824849,2.37363013 C26.6266362,2.43634684 26.6756572,2.49386424 26.7276,2.54813206 L26.7276,2.54813206 Z M42.5302163,3.75762219 C42.5445006,3.76379637 42.5594341,3.76574611 42.574043,3.77127038 L42.4652878,6.67573645 C42.3386773,6.70693232 42.21369,6.74852682 42.0942216,6.80896883 C41.8695691,6.9227038 41.6806272,7.08420745 41.52837,7.27593211 L29.4568684,1.93168855 L41.6397223,2.62319714 C41.7231554,3.11160758 42.0422788,3.54964968 42.5302163,3.75762219 L42.5302163,3.75762219 Z M44.5764371,8.5348157 C44.6140956,8.20465934 44.5559846,7.87027854 44.4027534,7.56676866 C44.195307,7.15667287 43.8411222,6.85218812 43.4051275,6.70920702 C43.3100073,6.67801115 43.2132638,6.65916364 43.1161958,6.64486553 L43.2200813,3.86908245 C43.3762343,3.85835887 43.5320626,3.82911273 43.6817228,3.76867072 C43.7739212,3.73162562 43.86125,3.68580668 43.9427352,3.63251372 L54.2280546,12.2974933 L44.5764371,8.5348157 Z M55.785364,24.0196688 C55.873342,23.8890361 55.949633,23.7506044 55.9999526,23.5968997 C56.1431199,23.1604824 56.1077338,22.694494 55.9002874,22.2847231 C55.7068005,21.9019237 55.3815089,21.6166114 54.9844713,21.4632317 L56.0252747,14.8409321 C56.0372864,14.8402822 56.0492982,14.8399572 56.0616346,14.8389824 L60.4887825,29.3999826 L55.785364,24.0196688 Z M54.493612,38.8367352 C54.4160225,38.7974154 54.3377837,38.7587455 54.2537013,38.7311241 C54.2215617,38.7207255 54.1887728,38.7178009 54.1563086,38.709352 L54.6793074,24.7495223 C54.8370836,24.7206011 54.9932366,24.6715326 55.1432214,24.5954927 C55.2084745,24.562672 55.2656115,24.5201026 55.3253457,24.4801329 L60.0323354,29.8646712 C59.7086669,30.3079126 59.6330253,30.9094081 59.8972841,31.431939 C59.9479283,31.5323507 60.0112336,31.6220389 60.0797331,31.7055528 L54.493612,38.8367352 Z M27.1697629,60.0824267 C27.0967184,59.98234 27.0136099,59.8923269 26.919139,59.8140122 L32.3309272,49.2382852 C32.5373997,49.323099 32.7594551,49.3689179 32.9850816,49.3689179 C33.2454447,49.3689179 33.5097036,49.3094508 33.7577304,49.1840174 L33.7577304,49.1840174 C33.9710204,49.0758067 34.1515216,48.9289261 34.2963121,48.7563739 L42.1484369,52.6090646 C42.0857809,52.8872279 42.084807,53.1715653 42.1607733,53.4435543 L27.1697629,60.0824267 Z M53.5083224,38.6635331 C53.3294445,38.6856301 53.153813,38.7343737 52.9862975,38.8136632 L41.7101697,25.0689551 C41.8273656,24.9162253 41.9244337,24.7469227 41.9861157,24.5584476 C42.0318903,24.4196909 42.0526674,24.2776847 42.0624067,24.1353535 L52.6902237,23.3986759 C52.7207401,23.549131 52.7635929,23.6973114 52.8346895,23.8376928 C53.0817424,24.3257783 53.5316967,24.6416366 54.0296981,24.7423733 L53.5083224,38.6635331 Z M8.23239996,25.651928 C8.44179429,25.545992 8.62262008,25.4007362 8.76935843,25.2262343 L17.7216962,31.3922942 C17.6843624,31.4673593 17.6467038,31.5427493 17.6197585,31.6239886 C17.4769159,32.0604059 17.5119773,32.5267193 17.7194237,32.9364901 C17.8294775,33.1538864 17.9827087,33.3387869 18.1654823,33.4885921 L12.479696,44.7879985 C12.2751713,44.7425045 12.0638291,44.7343806 11.8521623,44.7662264 L8.13241012,25.6954723 C8.16552364,25.6811742 8.19961109,25.6688258 8.23239996,25.651928 L8.23239996,25.651928 Z M20.6986667,13.1908002 C20.8707271,13.3464547 21.0720054,13.4679886 21.2979565,13.5446785 L19.1309687,30.4450444 C18.909238,30.4603174 18.686858,30.5191346 18.4764897,30.6257206 C18.343711,30.6929867 18.2271644,30.7804001 18.1184092,30.8765874 L9.08783259,24.6565846 C9.08815723,24.6556097 9.08880652,24.6546349 9.08913116,24.65366 C9.23229844,24.2172427 9.19691242,23.7509293 8.9897906,23.3414834 C8.95635243,23.2761671 8.91382428,23.2183247 8.87356863,23.1585326 L20.6986667,13.1908002 Z M20.8843621,32.6956969 C20.9853259,32.3879626 20.9927927,32.0659302 20.9184496,31.7585208 L38.8552648,24.8531836 C39.0101192,25.1332966 39.2315253,25.3633662 39.5055234,25.5180457 L32.9847569,45.9380215 C32.7221212,45.9370466 32.4562391,45.9887148 32.2062645,46.115448 C32.1306229,46.1537929 32.0627726,46.2018866 31.9949223,46.2499802 L20.6418543,33.1587607 C20.7428181,33.0177294 20.8288483,32.8653245 20.8843621,32.6956969 L20.8843621,32.6956969 Z M21.941073,13.6327418 C22.1764387,13.6203934 22.408558,13.5615762 22.6247698,13.4520657 C22.8296192,13.3484044 23.0078478,13.208023 23.1526383,13.0390453 L38.8039713,23.3002139 C38.669894,23.5894257 38.6160033,23.9111331 38.6556097,24.2334905 L20.6463993,31.166774 C20.4266164,30.8577399 20.1208033,30.6348193 19.7753838,30.524334 L21.941073,13.6327418 Z M52.0857396,39.829154 C52.0078254,40.0676724 51.9880223,40.3143148 52.0152922,40.5560829 L34.4222733,46.7286419 C34.2258647,46.4209076 33.9466722,46.1947375 33.6259256,46.0644297 L40.1210453,25.7243934 C40.1989595,25.735442 40.2771983,25.743241 40.3557618,25.743241 C40.6216438,25.743241 40.8855781,25.6805242 41.1293845,25.5570406 C41.1628227,25.5404678 41.1904173,25.5167459 41.2222322,25.4982233 L52.4620001,39.1987373 C52.2954586,39.3781136 52.1646277,39.5896606 52.0857396,39.829154 L52.0857396,39.829154 Z M52.7350243,22.5251913 C52.7113254,22.5986316 52.6996383,22.6730468 52.6856787,22.747462 L41.9812461,23.4893389 C41.9543007,23.4071248 41.9263815,23.3249106 41.8867751,23.246271 C41.6770562,22.8316258 41.3205989,22.5407893 40.912848,22.4000829 L42.7772691,10.0559396 C42.8087594,10.0578894 42.8402498,10.0634136 42.8717401,10.0634136 C43.1372975,10.0634136 43.4015564,10.0010219 43.6453628,9.87753821 C43.6521803,9.87396368 43.6576992,9.86908932 43.6645167,9.8655148 L53.1456969,21.861954 C52.9629233,22.0481544 52.8187821,22.2701001 52.7350243,22.5251913 L52.7350243,22.5251913 Z M41.2066494,8.76066084 C41.2374904,8.88316965 41.27872,9.00405367 41.3371556,9.11941342 C41.5127871,9.4667925 41.7981478,9.73195745 42.1451905,9.89378606 L40.2703808,22.30812 C40.035989,22.3194935 39.8006233,22.3757111 39.5782433,22.4884712 C39.4289078,22.5641862 39.301648,22.664273 39.185426,22.7734585 L23.473385,12.4723202 C23.4756575,12.4658211 23.4795532,12.4602968 23.481501,12.4534727 C23.548702,12.2487498 23.5730502,12.0375277 23.562337,11.8279304 L41.2066494,8.76066084 Z M13.8214429,46.4394302 C13.8188457,46.1791396 13.7636565,45.9207987 13.6428896,45.6816303 C13.5075137,45.4145157 13.3078587,45.2045934 13.0763887,45.0466643 L18.7365283,33.7989261 C18.9063162,33.852219 19.0806492,33.8804903 19.2540082,33.8804903 C19.5198903,33.8804903 19.7838245,33.8177736 20.0276309,33.6942899 C20.0782751,33.6689433 20.1217772,33.6344978 20.1688504,33.6046018 L31.5436695,46.720843 C31.465106,46.8430268 31.3962818,46.9720348 31.3495333,47.113716 C31.3342751,47.1605099 31.3290809,47.2086035 31.318043,47.2560472 L13.8214429,46.4394302 Z M44.6416902,51.4778892 C44.5498164,51.4278458 44.4537223,51.3839766 44.3521092,51.350506 C43.9157899,51.2071999 43.4502528,51.2426203 43.0412034,51.4499428 C42.7805156,51.5818754 42.569498,51.7784744 42.4084754,52.0127684 L34.6125137,48.1876991 C34.702115,47.91571 34.7167239,47.6219489 34.6625086,47.333387 L52.2071558,41.1774008 C52.2681886,41.2914607 52.3409085,41.394797 52.4223937,41.4887096 L44.6416902,51.4778892 Z M54.5945758,14.0194407 C54.7620912,14.3508969 55.0425822,14.5981892 55.3847553,14.7336963 L54.3452504,21.347872 C54.1180008,21.3507966 53.8936729,21.3988902 53.6810322,21.4921529 L44.1745299,9.46321798 C44.2547165,9.36963035 44.3219175,9.26564409 44.3806778,9.15580861 L54.4595246,13.0855142 C54.40466,13.4026722 54.4468635,13.7273043 54.5945758,14.0194407 L54.5945758,14.0194407 Z M27.8145026,3.01119585 C28.0424016,3.01119585 28.2738716,2.95920273 28.4907327,2.84936725 L28.4910573,2.84936725 C28.6929849,2.74700578 28.8582278,2.60272485 28.989708,2.43537197 L41.2274265,7.85338078 C41.202429,7.93721969 41.1826259,8.02203348 41.1706141,8.10717223 L23.4032622,11.1962139 C23.3951462,11.1780163 23.3909258,11.1588438 23.3821605,11.1412962 C23.268211,10.9164259 23.1071884,10.7273009 22.915974,10.575221 L27.2707267,2.90688464 C27.4434364,2.97350084 27.6275086,3.01119585 27.8145026,3.01119585 L27.8145026,3.01119585 Z M10.5045719,10.915451 C10.520804,10.9161009 10.5370361,10.9193505 10.5529436,10.9193505 C10.7860368,10.9193505 11.0171822,10.8647577 11.2307968,10.756547 C11.5444013,10.597643 11.7723003,10.340277 11.909624,10.0435913 L20.141905,11.770088 C20.1146351,12.0778224 20.169175,12.3868565 20.3074726,12.670869 L8.41257648,22.6974186 C8.3093402,22.6282027 8.19961109,22.5693855 8.08176591,22.5232416 L10.5045719,10.915451 Z M2.84723245,39.4795002 C2.72484228,39.2374072 2.54012078,39.042433 2.31839004,38.8991269 L7.11725345,25.7988086 C7.22990435,25.8215556 7.34385382,25.8371535 7.45975114,25.8371535 C7.47241219,25.8371535 7.48507324,25.8352038 7.49805894,25.8348788 L11.2337186,44.9875221 C11.0048457,45.1240041 10.8146053,45.3072798 10.6727366,45.5279257 L2.91410878,40.6740423 C2.91995234,40.6584443 2.92904233,40.6444712 2.9342366,40.6282233 C3.05954856,40.2460739 3.02838289,39.8379278 2.84723245,39.4795002 L2.84723245,39.4795002 Z M13.3237661,47.6654931 C13.4873859,47.5007399 13.6159443,47.3054407 13.7026238,47.0847949 L31.2901238,47.9056364 C31.3173937,48.0843627 31.3654408,48.2604895 31.4491985,48.4262175 C31.5371766,48.6000696 31.6530739,48.7498748 31.7852034,48.8785578 L26.3390031,59.5218758 C25.984169,59.4289381 25.6124535,59.4620837 25.2822922,59.6294366 C25.240738,59.6505588 25.2060013,59.6788301 25.1676935,59.7032019 L13.3237661,47.6654931 Z M54.9870684,48.0664901 C54.400115,48.3638258 54.0985223,48.9952173 54.1826046,49.6136106 L45.369863,52.2600608 C45.361747,52.243163 45.3578513,52.2246404 45.3497352,52.2080676 C45.2919489,52.0940077 45.2205276,51.9903464 45.1413148,51.8935092 L52.9333808,41.8897066 C53.1765379,42.0144901 53.4456665,42.0843559 53.7212878,42.0843559 C53.7540767,42.0843559 53.7871902,42.0807813 53.8203037,42.0788316 L55.0795915,48.0304199 C55.0487504,48.0434181 55.0169355,48.0512171 54.9870684,48.0664901 L54.9870684,48.0664901 Z M62.5814272,30.0719937 C62.2983391,29.5124177 61.7113857,29.2069581 61.1224844,29.2521271 L56.680403,14.6420584 C57.004396,14.4568329 57.2488517,14.1663213 57.3660476,13.8088685 C57.4913596,13.4263941 57.4601939,13.018573 57.2790435,12.6598204 C56.9044062,11.9189184 55.9973554,11.6215827 55.2574955,11.9962581 C55.1802306,12.035253 55.1097832,12.0830217 55.0416083,12.13339 L44.3939881,3.16295079 C44.4335945,3.09828434 44.4732008,3.03329293 44.5033926,2.96180238 C44.8283596,2.19815333 44.4715776,1.31199547 43.7083434,0.986713465 C42.9451092,0.66175642 42.0601342,1.01888421 41.7354918,1.78253327 L41.7354918,1.78285822 C41.7085465,1.84589989 41.6932883,1.91024139 41.6757576,1.97425792 L29.2903268,1.27105088 C29.2663033,1.11994585 29.2263723,0.969490742 29.1536524,0.825859728 C28.7793397,0.0849576661 27.8726136,-0.213027944 27.132429,0.162297443 C26.5266464,0.46938185 26.224729,1.13326909 26.3383538,1.77083481 L11.7333432,8.48282257 C11.299621,7.9303956 10.5221025,7.74029572 9.87216854,8.06947721 C9.51376337,8.2511282 9.24723199,8.56178713 9.12224468,8.94361166 C8.99693273,9.3260861 9.02809839,9.73423215 9.20924883,10.0926598 C9.27807301,10.2284918 9.3699468,10.3458013 9.47220915,10.4523872 L2.39500564,22.0527038 C2.0054348,21.8937998 1.55418192,21.892175 1.15065146,22.096898 C0.410466877,22.4718984 0.113094472,23.3795034 0.487731759,24.1204055 C0.694528944,24.5298514 1.06494588,24.8011905 1.47951418,24.9009523 L1.20941173,38.6892047 C1.07793157,38.7158511 0.948723914,38.7535462 0.826009101,38.8156129 C0.467603933,38.9972639 0.201072553,39.3079229 0.0757606008,39.6900724 C-0.0495513513,40.0722218 -0.0187103268,40.4803679 0.163089396,40.8387955 C0.344564477,41.197873 0.654597933,41.4646628 1.03605271,41.5897712 C1.19058247,41.6404645 1.3486833,41.6654862 1.50645949,41.6654862 C1.69215492,41.6654862 1.87622714,41.629091 2.05185866,41.5605251 L10.1899934,53.5556645 C9.7484798,54.0037803 9.61375322,54.6972386 9.91274883,55.2889854 C10.1773324,55.8124912 10.707798,56.1147012 11.2574175,56.1147012 C11.4856411,56.1147012 11.7171111,56.0623831 11.9342968,55.9525477 C12.1414187,55.8475865 12.3128298,55.6958316 12.4491796,55.5158054 L24.4901648,60.6939959 C24.430106,61.0095292 24.4638688,61.3448849 24.6193725,61.6529441 C24.883956,62.176125 25.4144217,62.478335 25.9640412,62.478335 C26.1922648,62.478335 26.4234101,62.4263419 26.6405959,62.3165064 L26.6405959,62.3165064 C27.1155476,62.0760382 27.404804,61.615899 27.4544743,61.1216394 L41.02907,59.4975041 C41.2936535,60.0206849 41.8241192,60.32257 42.373414,60.32257 C42.6016376,60.32257 42.8331076,60.2705769 43.0499687,60.1604164 C43.7193813,59.8214862 44.020974,59.0477635 43.7966462,58.3549551 L54.7361199,50.5881568 C54.8731189,50.6963675 55.0266748,50.7844308 55.1974367,50.8406484 C55.3516418,50.8910167 55.5100672,50.9163634 55.6678434,50.9163634 C55.9002874,50.9163634 56.1317574,50.8614456 56.345372,50.7532349 C56.7037772,50.571584 56.9703086,50.260925 57.0956205,49.8791005 C57.2206079,49.4966261 57.1897668,49.088805 57.0082917,48.7300524 C56.8820059,48.4801604 56.6901422,48.278687 56.4583476,48.1347311 L61.136444,32.2501808 C61.1715054,32.2524555 61.2065668,32.2573299 61.2419528,32.2573299 C61.4698517,32.2573299 61.7013217,32.2053367 61.9181828,32.0955013 L61.9185075,32.0955013 C62.6583674,31.7205008 62.9557398,30.8128958 62.5814272,30.0719937 L62.5814272,30.0719937 Z" id="Fill-1" fill="#285E7A"></path>
                <path d="M55.7178384,47.9114856 L54.4501099,41.9186278 C54.4647188,41.9118037 54.4796524,41.9066044 54.4939367,41.8994553 C54.9033107,41.6921327 55.2078252,41.3376046 55.3506678,40.9008623 C55.4938351,40.464445 55.4584491,39.9984566 55.2513273,39.5886858 C55.1851002,39.458378 55.0997193,39.3430182 55.0058977,39.2357824 L60.4482022,32.2882008 L55.8460721,47.9147352 C55.8035439,47.9095358 55.7606911,47.9127854 55.7178384,47.9114856 L55.7178384,47.9114856 Z M43.0304902,57.470747 L43.7362627,54.6978885 C43.7641819,54.6995133 43.7917765,54.7037377 43.8196958,54.7037377 C44.0800589,54.7037377 44.3446425,54.6442706 44.5923446,54.5188372 C45.0017186,54.3111896 45.3062331,53.9566615 45.4490758,53.5202442 C45.5166014,53.3138965 45.5412742,53.1010496 45.5299117,52.8904774 L53.9193197,50.3710855 L43.4648617,57.7937543 C43.3385758,57.6588971 43.1924867,57.5500365 43.0304902,57.470747 L43.0304902,57.470747 Z M42.4532761,54.0249025 C42.6279337,54.2543221 42.8522615,54.4310988 43.1048333,54.5461336 L42.3990608,57.318992 C42.1607733,57.3141177 41.9189147,57.3586368 41.6916651,57.4736716 C41.1556805,57.7453357 40.8563603,58.2967878 40.8722678,58.8615631 L28.0735672,60.3930857 L42.4532761,54.0249025 Z M12.5968919,53.9293651 C12.4248314,53.5884852 12.1339519,53.3350187 11.7781438,53.2024362 L12.1173951,48.1782753 C12.3436708,48.1773004 12.5673494,48.1288818 12.7796655,48.0385438 L24.5684037,60.0203599 L12.7186328,54.9243836 C12.791028,54.5877281 12.7543434,54.240349 12.5968919,53.9293651 L12.5968919,53.9293651 Z M10.4289302,46.1417695 C10.3584828,46.5118956 10.4042574,46.8927453 10.5772917,47.2346001 C10.7678568,47.6115502 11.0866556,47.893288 11.4755772,48.0482925 L11.1337288,53.1081986 C10.9983529,53.1192472 10.8655742,53.1549925 10.7360419,53.2034111 L2.63848741,41.2680638 L10.4289302,46.1417695 Z M2.50863047,24.7839678 L2.50895511,24.7839678 C2.84431067,24.6140152 3.08292281,24.3319525 3.21505225,24.0082953 L5.74499018,24.154526 C5.75018446,24.4086424 5.80602295,24.660809 5.92386812,24.8941282 C6.06443827,25.1722914 6.27253402,25.3929373 6.51601579,25.5521662 L1.86778644,38.2417388 L2.1287989,24.9139506 C2.25768192,24.887954 2.38559101,24.8463595 2.50863047,24.7839678 L2.50863047,24.7839678 Z M7.44319438,22.4046323 C7.18120799,22.406582 6.9214941,22.4618247 6.68125875,22.5833587 C6.29558363,22.7789828 6.00827514,23.1078393 5.85601787,23.5098112 L3.32932636,23.3639055 C3.31958709,23.1598325 3.26991681,22.9544596 3.17187481,22.7604602 C3.10727098,22.6327521 3.02221468,22.5235666 2.92969161,22.4231548 L9.78483974,11.1874401 L7.44319438,22.4046323 Z M26.7276,2.54813206 L22.3403831,10.2739858 C21.9170495,10.1472526 21.469043,10.1829978 21.0736286,10.3834963 C20.7424934,10.5511742 20.4853767,10.8182889 20.3217569,11.1438958 L12.0492202,9.40862519 C12.0488956,9.29554014 12.0381824,9.18245509 12.0118864,9.07001995 L26.5824849,2.37363013 C26.6266362,2.43634684 26.6756572,2.49386424 26.7276,2.54813206 L26.7276,2.54813206 Z M42.5302163,3.75762219 C42.5445006,3.76379637 42.5594341,3.76574611 42.574043,3.77127038 L42.4652878,6.67573645 C42.3386773,6.70693232 42.21369,6.74852682 42.0942216,6.80896883 C41.8695691,6.9227038 41.6806272,7.08420745 41.52837,7.27593211 L29.4568684,1.93168855 L41.6397223,2.62319714 C41.7231554,3.11160758 42.0422788,3.54964968 42.5302163,3.75762219 L42.5302163,3.75762219 Z M44.5764371,8.5348157 C44.6140956,8.20465934 44.5559846,7.87027854 44.4027534,7.56676866 C44.195307,7.15667287 43.8411222,6.85218812 43.4051275,6.70920702 C43.3100073,6.67801115 43.2132638,6.65916364 43.1161958,6.64486553 L43.2200813,3.86908245 C43.3762343,3.85835887 43.5320626,3.82911273 43.6817228,3.76867072 C43.7739212,3.73162562 43.86125,3.68580668 43.9427352,3.63251372 L54.2280546,12.2974933 L44.5764371,8.5348157 Z M55.785364,24.0196688 C55.873342,23.8890361 55.949633,23.7506044 55.9999526,23.5968997 C56.1431199,23.1604824 56.1077338,22.694494 55.9002874,22.2847231 C55.7068005,21.9019237 55.3815089,21.6166114 54.9844713,21.4632317 L56.0252747,14.8409321 C56.0372864,14.8402822 56.0492982,14.8399572 56.0616346,14.8389824 L60.4887825,29.3999826 L55.785364,24.0196688 Z M54.493612,38.8367352 C54.4160225,38.7974154 54.3377837,38.7587455 54.2537013,38.7311241 C54.2215617,38.7207255 54.1887728,38.7178009 54.1563086,38.709352 L54.6793074,24.7495223 C54.8370836,24.7206011 54.9932366,24.6715326 55.1432214,24.5954927 C55.2084745,24.562672 55.2656115,24.5201026 55.3253457,24.4801329 L60.0323354,29.8646712 C59.7086669,30.3079126 59.6330253,30.9094081 59.8972841,31.431939 C59.9479283,31.5323507 60.0112336,31.6220389 60.0797331,31.7055528 L54.493612,38.8367352 Z M27.1697629,60.0824267 C27.0967184,59.98234 27.0136099,59.8923269 26.919139,59.8140122 L32.3309272,49.2382852 C32.5373997,49.323099 32.7594551,49.3689179 32.9850816,49.3689179 C33.2454447,49.3689179 33.5097036,49.3094508 33.7577304,49.1840174 L33.7577304,49.1840174 C33.9710204,49.0758067 34.1515216,48.9289261 34.2963121,48.7563739 L42.1484369,52.6090646 C42.0857809,52.8872279 42.084807,53.1715653 42.1607733,53.4435543 L27.1697629,60.0824267 Z M53.5083224,38.6635331 C53.3294445,38.6856301 53.153813,38.7343737 52.9862975,38.8136632 L41.7101697,25.0689551 C41.8273656,24.9162253 41.9244337,24.7469227 41.9861157,24.5584476 C42.0318903,24.4196909 42.0526674,24.2776847 42.0624067,24.1353535 L52.6902237,23.3986759 C52.7207401,23.549131 52.7635929,23.6973114 52.8346895,23.8376928 C53.0817424,24.3257783 53.5316967,24.6416366 54.0296981,24.7423733 L53.5083224,38.6635331 Z M8.23239996,25.651928 C8.44179429,25.545992 8.62262008,25.4007362 8.76935843,25.2262343 L17.7216962,31.3922942 C17.6843624,31.4673593 17.6467038,31.5427493 17.6197585,31.6239886 C17.4769159,32.0604059 17.5119773,32.5267193 17.7194237,32.9364901 C17.8294775,33.1538864 17.9827087,33.3387869 18.1654823,33.4885921 L12.479696,44.7879985 C12.2751713,44.7425045 12.0638291,44.7343806 11.8521623,44.7662264 L8.13241012,25.6954723 C8.16552364,25.6811742 8.19961109,25.6688258 8.23239996,25.651928 L8.23239996,25.651928 Z M20.6986667,13.1908002 C20.8707271,13.3464547 21.0720054,13.4679886 21.2979565,13.5446785 L19.1309687,30.4450444 C18.909238,30.4603174 18.686858,30.5191346 18.4764897,30.6257206 C18.343711,30.6929867 18.2271644,30.7804001 18.1184092,30.8765874 L9.08783259,24.6565846 C9.08815723,24.6556097 9.08880652,24.6546349 9.08913116,24.65366 C9.23229844,24.2172427 9.19691242,23.7509293 8.9897906,23.3414834 C8.95635243,23.2761671 8.91382428,23.2183247 8.87356863,23.1585326 L20.6986667,13.1908002 Z M20.8843621,32.6956969 C20.9853259,32.3879626 20.9927927,32.0659302 20.9184496,31.7585208 L38.8552648,24.8531836 C39.0101192,25.1332966 39.2315253,25.3633662 39.5055234,25.5180457 L32.9847569,45.9380215 C32.7221212,45.9370466 32.4562391,45.9887148 32.2062645,46.115448 C32.1306229,46.1537929 32.0627726,46.2018866 31.9949223,46.2499802 L20.6418543,33.1587607 C20.7428181,33.0177294 20.8288483,32.8653245 20.8843621,32.6956969 L20.8843621,32.6956969 Z M21.941073,13.6327418 C22.1764387,13.6203934 22.408558,13.5615762 22.6247698,13.4520657 C22.8296192,13.3484044 23.0078478,13.208023 23.1526383,13.0390453 L38.8039713,23.3002139 C38.669894,23.5894257 38.6160033,23.9111331 38.6556097,24.2334905 L20.6463993,31.166774 C20.4266164,30.8577399 20.1208033,30.6348193 19.7753838,30.524334 L21.941073,13.6327418 Z M52.0857396,39.829154 C52.0078254,40.0676724 51.9880223,40.3143148 52.0152922,40.5560829 L34.4222733,46.7286419 C34.2258647,46.4209076 33.9466722,46.1947375 33.6259256,46.0644297 L40.1210453,25.7243934 C40.1989595,25.735442 40.2771983,25.743241 40.3557618,25.743241 C40.6216438,25.743241 40.8855781,25.6805242 41.1293845,25.5570406 C41.1628227,25.5404678 41.1904173,25.5167459 41.2222322,25.4982233 L52.4620001,39.1987373 C52.2954586,39.3781136 52.1646277,39.5896606 52.0857396,39.829154 L52.0857396,39.829154 Z M52.7350243,22.5251913 C52.7113254,22.5986316 52.6996383,22.6730468 52.6856787,22.747462 L41.9812461,23.4893389 C41.9543007,23.4071248 41.9263815,23.3249106 41.8867751,23.246271 C41.6770562,22.8316258 41.3205989,22.5407893 40.912848,22.4000829 L42.7772691,10.0559396 C42.8087594,10.0578894 42.8402498,10.0634136 42.8717401,10.0634136 C43.1372975,10.0634136 43.4015564,10.0010219 43.6453628,9.87753821 C43.6521803,9.87396368 43.6576992,9.86908932 43.6645167,9.8655148 L53.1456969,21.861954 C52.9629233,22.0481544 52.8187821,22.2701001 52.7350243,22.5251913 L52.7350243,22.5251913 Z M41.2066494,8.76066084 C41.2374904,8.88316965 41.27872,9.00405367 41.3371556,9.11941342 C41.5127871,9.4667925 41.7981478,9.73195745 42.1451905,9.89378606 L40.2703808,22.30812 C40.035989,22.3194935 39.8006233,22.3757111 39.5782433,22.4884712 C39.4289078,22.5641862 39.301648,22.664273 39.185426,22.7734585 L23.473385,12.4723202 C23.4756575,12.4658211 23.4795532,12.4602968 23.481501,12.4534727 C23.548702,12.2487498 23.5730502,12.0375277 23.562337,11.8279304 L41.2066494,8.76066084 Z M13.8214429,46.4394302 C13.8188457,46.1791396 13.7636565,45.9207987 13.6428896,45.6816303 C13.5075137,45.4145157 13.3078587,45.2045934 13.0763887,45.0466643 L18.7365283,33.7989261 C18.9063162,33.852219 19.0806492,33.8804903 19.2540082,33.8804903 C19.5198903,33.8804903 19.7838245,33.8177736 20.0276309,33.6942899 C20.0782751,33.6689433 20.1217772,33.6344978 20.1688504,33.6046018 L31.5436695,46.720843 C31.465106,46.8430268 31.3962818,46.9720348 31.3495333,47.113716 C31.3342751,47.1605099 31.3290809,47.2086035 31.318043,47.2560472 L13.8214429,46.4394302 Z M44.6416902,51.4778892 C44.5498164,51.4278458 44.4537223,51.3839766 44.3521092,51.350506 C43.9157899,51.2071999 43.4502528,51.2426203 43.0412034,51.4499428 C42.7805156,51.5818754 42.569498,51.7784744 42.4084754,52.0127684 L34.6125137,48.1876991 C34.702115,47.91571 34.7167239,47.6219489 34.6625086,47.333387 L52.2071558,41.1774008 C52.2681886,41.2914607 52.3409085,41.394797 52.4223937,41.4887096 L44.6416902,51.4778892 Z M54.5945758,14.0194407 C54.7620912,14.3508969 55.0425822,14.5981892 55.3847553,14.7336963 L54.3452504,21.347872 C54.1180008,21.3507966 53.8936729,21.3988902 53.6810322,21.4921529 L44.1745299,9.46321798 C44.2547165,9.36963035 44.3219175,9.26564409 44.3806778,9.15580861 L54.4595246,13.0855142 C54.40466,13.4026722 54.4468635,13.7273043 54.5945758,14.0194407 L54.5945758,14.0194407 Z M27.8145026,3.01119585 C28.0424016,3.01119585 28.2738716,2.95920273 28.4907327,2.84936725 L28.4910573,2.84936725 C28.6929849,2.74700578 28.8582278,2.60272485 28.989708,2.43537197 L41.2274265,7.85338078 C41.202429,7.93721969 41.1826259,8.02203348 41.1706141,8.10717223 L23.4032622,11.1962139 C23.3951462,11.1780163 23.3909258,11.1588438 23.3821605,11.1412962 C23.268211,10.9164259 23.1071884,10.7273009 22.915974,10.575221 L27.2707267,2.90688464 C27.4434364,2.97350084 27.6275086,3.01119585 27.8145026,3.01119585 L27.8145026,3.01119585 Z M10.5045719,10.915451 C10.520804,10.9161009 10.5370361,10.9193505 10.5529436,10.9193505 C10.7860368,10.9193505 11.0171822,10.8647577 11.2307968,10.756547 C11.5444013,10.597643 11.7723003,10.340277 11.909624,10.0435913 L20.141905,11.770088 C20.1146351,12.0778224 20.169175,12.3868565 20.3074726,12.670869 L8.41257648,22.6974186 C8.3093402,22.6282027 8.19961109,22.5693855 8.08176591,22.5232416 L10.5045719,10.915451 Z M2.84723245,39.4795002 C2.72484228,39.2374072 2.54012078,39.042433 2.31839004,38.8991269 L7.11725345,25.7988086 C7.22990435,25.8215556 7.34385382,25.8371535 7.45975114,25.8371535 C7.47241219,25.8371535 7.48507324,25.8352038 7.49805894,25.8348788 L11.2337186,44.9875221 C11.0048457,45.1240041 10.8146053,45.3072798 10.6727366,45.5279257 L2.91410878,40.6740423 C2.91995234,40.6584443 2.92904233,40.6444712 2.9342366,40.6282233 C3.05954856,40.2460739 3.02838289,39.8379278 2.84723245,39.4795002 L2.84723245,39.4795002 Z M13.3237661,47.6654931 C13.4873859,47.5007399 13.6159443,47.3054407 13.7026238,47.0847949 L31.2901238,47.9056364 C31.3173937,48.0843627 31.3654408,48.2604895 31.4491985,48.4262175 C31.5371766,48.6000696 31.6530739,48.7498748 31.7852034,48.8785578 L26.3390031,59.5218758 C25.984169,59.4289381 25.6124535,59.4620837 25.2822922,59.6294366 C25.240738,59.6505588 25.2060013,59.6788301 25.1676935,59.7032019 L13.3237661,47.6654931 Z M54.9870684,48.0664901 C54.400115,48.3638258 54.0985223,48.9952173 54.1826046,49.6136106 L45.369863,52.2600608 C45.361747,52.243163 45.3578513,52.2246404 45.3497352,52.2080676 C45.2919489,52.0940077 45.2205276,51.9903464 45.1413148,51.8935092 L52.9333808,41.8897066 C53.1765379,42.0144901 53.4456665,42.0843559 53.7212878,42.0843559 C53.7540767,42.0843559 53.7871902,42.0807813 53.8203037,42.0788316 L55.0795915,48.0304199 C55.0487504,48.0434181 55.0169355,48.0512171 54.9870684,48.0664901 L54.9870684,48.0664901 Z M62.5814272,30.0719937 C62.2983391,29.5124177 61.7113857,29.2069581 61.1224844,29.2521271 L56.680403,14.6420584 C57.004396,14.4568329 57.2488517,14.1663213 57.3660476,13.8088685 C57.4913596,13.4263941 57.4601939,13.018573 57.2790435,12.6598204 C56.9044062,11.9189184 55.9973554,11.6215827 55.2574955,11.9962581 C55.1802306,12.035253 55.1097832,12.0830217 55.0416083,12.13339 L44.3939881,3.16295079 C44.4335945,3.09828434 44.4732008,3.03329293 44.5033926,2.96180238 C44.8283596,2.19815333 44.4715776,1.31199547 43.7083434,0.986713465 C42.9451092,0.66175642 42.0601342,1.01888421 41.7354918,1.78253327 L41.7354918,1.78285822 C41.7085465,1.84589989 41.6932883,1.91024139 41.6757576,1.97425792 L29.2903268,1.27105088 C29.2663033,1.11994585 29.2263723,0.969490742 29.1536524,0.825859728 C28.7793397,0.0849576661 27.8726136,-0.213027944 27.132429,0.162297443 C26.5266464,0.46938185 26.224729,1.13326909 26.3383538,1.77083481 L11.7333432,8.48282257 C11.299621,7.9303956 10.5221025,7.74029572 9.87216854,8.06947721 C9.51376337,8.2511282 9.24723199,8.56178713 9.12224468,8.94361166 C8.99693273,9.3260861 9.02809839,9.73423215 9.20924883,10.0926598 C9.27807301,10.2284918 9.3699468,10.3458013 9.47220915,10.4523872 L2.39500564,22.0527038 C2.0054348,21.8937998 1.55418192,21.892175 1.15065146,22.096898 C0.410466877,22.4718984 0.113094472,23.3795034 0.487731759,24.1204055 C0.694528944,24.5298514 1.06494588,24.8011905 1.47951418,24.9009523 L1.20941173,38.6892047 C1.07793157,38.7158511 0.948723914,38.7535462 0.826009101,38.8156129 C0.467603933,38.9972639 0.201072553,39.3079229 0.0757606008,39.6900724 C-0.0495513513,40.0722218 -0.0187103268,40.4803679 0.163089396,40.8387955 C0.344564477,41.197873 0.654597933,41.4646628 1.03605271,41.5897712 C1.19058247,41.6404645 1.3486833,41.6654862 1.50645949,41.6654862 C1.69215492,41.6654862 1.87622714,41.629091 2.05185866,41.5605251 L10.1899934,53.5556645 C9.7484798,54.0037803 9.61375322,54.6972386 9.91274883,55.2889854 C10.1773324,55.8124912 10.707798,56.1147012 11.2574175,56.1147012 C11.4856411,56.1147012 11.7171111,56.0623831 11.9342968,55.9525477 C12.1414187,55.8475865 12.3128298,55.6958316 12.4491796,55.5158054 L24.4901648,60.6939959 C24.430106,61.0095292 24.4638688,61.3448849 24.6193725,61.6529441 C24.883956,62.176125 25.4144217,62.478335 25.9640412,62.478335 C26.1922648,62.478335 26.4234101,62.4263419 26.6405959,62.3165064 L26.6405959,62.3165064 C27.1155476,62.0760382 27.404804,61.615899 27.4544743,61.1216394 L41.02907,59.4975041 C41.2936535,60.0206849 41.8241192,60.32257 42.373414,60.32257 C42.6016376,60.32257 42.8331076,60.2705769 43.0499687,60.1604164 C43.7193813,59.8214862 44.020974,59.0477635 43.7966462,58.3549551 L54.7361199,50.5881568 C54.8731189,50.6963675 55.0266748,50.7844308 55.1974367,50.8406484 C55.3516418,50.8910167 55.5100672,50.9163634 55.6678434,50.9163634 C55.9002874,50.9163634 56.1317574,50.8614456 56.345372,50.7532349 C56.7037772,50.571584 56.9703086,50.260925 57.0956205,49.8791005 C57.2206079,49.4966261 57.1897668,49.088805 57.0082917,48.7300524 C56.8820059,48.4801604 56.6901422,48.278687 56.4583476,48.1347311 L61.136444,32.2501808 C61.1715054,32.2524555 61.2065668,32.2573299 61.2419528,32.2573299 C61.4698517,32.2573299 61.7013217,32.2053367 61.9181828,32.0955013 L61.9185075,32.0955013 C62.6583674,31.7205008 62.9557398,30.8128958 62.5814272,30.0719937 L62.5814272,30.0719937 Z" id="Fill-1" fill="#285E7A"></path>
                <path d="M55.7178384,47.9114856 L54.4501099,41.9186278 C54.4647188,41.9118037 54.4796524,41.9066044 54.4939367,41.8994553 C54.9033107,41.6921327 55.2078252,41.3376046 55.3506678,40.9008623 C55.4938351,40.464445 55.4584491,39.9984566 55.2513273,39.5886858 C55.1851002,39.458378 55.0997193,39.3430182 55.0058977,39.2357824 L60.4482022,32.2882008 L55.8460721,47.9147352 C55.8035439,47.9095358 55.7606911,47.9127854 55.7178384,47.9114856 L55.7178384,47.9114856 Z M43.0304902,57.470747 L43.7362627,54.6978885 C43.7641819,54.6995133 43.7917765,54.7037377 43.8196958,54.7037377 C44.0800589,54.7037377 44.3446425,54.6442706 44.5923446,54.5188372 C45.0017186,54.3111896 45.3062331,53.9566615 45.4490758,53.5202442 C45.5166014,53.3138965 45.5412742,53.1010496 45.5299117,52.8904774 L53.9193197,50.3710855 L43.4648617,57.7937543 C43.3385758,57.6588971 43.1924867,57.5500365 43.0304902,57.470747 L43.0304902,57.470747 Z M42.4532761,54.0249025 C42.6279337,54.2543221 42.8522615,54.4310988 43.1048333,54.5461336 L42.3990608,57.318992 C42.1607733,57.3141177 41.9189147,57.3586368 41.6916651,57.4736716 C41.1556805,57.7453357 40.8563603,58.2967878 40.8722678,58.8615631 L28.0735672,60.3930857 L42.4532761,54.0249025 Z M12.5968919,53.9293651 C12.4248314,53.5884852 12.1339519,53.3350187 11.7781438,53.2024362 L12.1173951,48.1782753 C12.3436708,48.1773004 12.5673494,48.1288818 12.7796655,48.0385438 L24.5684037,60.0203599 L12.7186328,54.9243836 C12.791028,54.5877281 12.7543434,54.240349 12.5968919,53.9293651 L12.5968919,53.9293651 Z M10.4289302,46.1417695 C10.3584828,46.5118956 10.4042574,46.8927453 10.5772917,47.2346001 C10.7678568,47.6115502 11.0866556,47.893288 11.4755772,48.0482925 L11.1337288,53.1081986 C10.9983529,53.1192472 10.8655742,53.1549925 10.7360419,53.2034111 L2.63848741,41.2680638 L10.4289302,46.1417695 Z M2.50863047,24.7839678 L2.50895511,24.7839678 C2.84431067,24.6140152 3.08292281,24.3319525 3.21505225,24.0082953 L5.74499018,24.154526 C5.75018446,24.4086424 5.80602295,24.660809 5.92386812,24.8941282 C6.06443827,25.1722914 6.27253402,25.3929373 6.51601579,25.5521662 L1.86778644,38.2417388 L2.1287989,24.9139506 C2.25768192,24.887954 2.38559101,24.8463595 2.50863047,24.7839678 L2.50863047,24.7839678 Z M7.44319438,22.4046323 C7.18120799,22.406582 6.9214941,22.4618247 6.68125875,22.5833587 C6.29558363,22.7789828 6.00827514,23.1078393 5.85601787,23.5098112 L3.32932636,23.3639055 C3.31958709,23.1598325 3.26991681,22.9544596 3.17187481,22.7604602 C3.10727098,22.6327521 3.02221468,22.5235666 2.92969161,22.4231548 L9.78483974,11.1874401 L7.44319438,22.4046323 Z M26.7276,2.54813206 L22.3403831,10.2739858 C21.9170495,10.1472526 21.469043,10.1829978 21.0736286,10.3834963 C20.7424934,10.5511742 20.4853767,10.8182889 20.3217569,11.1438958 L12.0492202,9.40862519 C12.0488956,9.29554014 12.0381824,9.18245509 12.0118864,9.07001995 L26.5824849,2.37363013 C26.6266362,2.43634684 26.6756572,2.49386424 26.7276,2.54813206 L26.7276,2.54813206 Z M42.5302163,3.75762219 C42.5445006,3.76379637 42.5594341,3.76574611 42.574043,3.77127038 L42.4652878,6.67573645 C42.3386773,6.70693232 42.21369,6.74852682 42.0942216,6.80896883 C41.8695691,6.9227038 41.6806272,7.08420745 41.52837,7.27593211 L29.4568684,1.93168855 L41.6397223,2.62319714 C41.7231554,3.11160758 42.0422788,3.54964968 42.5302163,3.75762219 L42.5302163,3.75762219 Z M44.5764371,8.5348157 C44.6140956,8.20465934 44.5559846,7.87027854 44.4027534,7.56676866 C44.195307,7.15667287 43.8411222,6.85218812 43.4051275,6.70920702 C43.3100073,6.67801115 43.2132638,6.65916364 43.1161958,6.64486553 L43.2200813,3.86908245 C43.3762343,3.85835887 43.5320626,3.82911273 43.6817228,3.76867072 C43.7739212,3.73162562 43.86125,3.68580668 43.9427352,3.63251372 L54.2280546,12.2974933 L44.5764371,8.5348157 Z M55.785364,24.0196688 C55.873342,23.8890361 55.949633,23.7506044 55.9999526,23.5968997 C56.1431199,23.1604824 56.1077338,22.694494 55.9002874,22.2847231 C55.7068005,21.9019237 55.3815089,21.6166114 54.9844713,21.4632317 L56.0252747,14.8409321 C56.0372864,14.8402822 56.0492982,14.8399572 56.0616346,14.8389824 L60.4887825,29.3999826 L55.785364,24.0196688 Z M54.493612,38.8367352 C54.4160225,38.7974154 54.3377837,38.7587455 54.2537013,38.7311241 C54.2215617,38.7207255 54.1887728,38.7178009 54.1563086,38.709352 L54.6793074,24.7495223 C54.8370836,24.7206011 54.9932366,24.6715326 55.1432214,24.5954927 C55.2084745,24.562672 55.2656115,24.5201026 55.3253457,24.4801329 L60.0323354,29.8646712 C59.7086669,30.3079126 59.6330253,30.9094081 59.8972841,31.431939 C59.9479283,31.5323507 60.0112336,31.6220389 60.0797331,31.7055528 L54.493612,38.8367352 Z M27.1697629,60.0824267 C27.0967184,59.98234 27.0136099,59.8923269 26.919139,59.8140122 L32.3309272,49.2382852 C32.5373997,49.323099 32.7594551,49.3689179 32.9850816,49.3689179 C33.2454447,49.3689179 33.5097036,49.3094508 33.7577304,49.1840174 L33.7577304,49.1840174 C33.9710204,49.0758067 34.1515216,48.9289261 34.2963121,48.7563739 L42.1484369,52.6090646 C42.0857809,52.8872279 42.084807,53.1715653 42.1607733,53.4435543 L27.1697629,60.0824267 Z M53.5083224,38.6635331 C53.3294445,38.6856301 53.153813,38.7343737 52.9862975,38.8136632 L41.7101697,25.0689551 C41.8273656,24.9162253 41.9244337,24.7469227 41.9861157,24.5584476 C42.0318903,24.4196909 42.0526674,24.2776847 42.0624067,24.1353535 L52.6902237,23.3986759 C52.7207401,23.549131 52.7635929,23.6973114 52.8346895,23.8376928 C53.0817424,24.3257783 53.5316967,24.6416366 54.0296981,24.7423733 L53.5083224,38.6635331 Z M8.23239996,25.651928 C8.44179429,25.545992 8.62262008,25.4007362 8.76935843,25.2262343 L17.7216962,31.3922942 C17.6843624,31.4673593 17.6467038,31.5427493 17.6197585,31.6239886 C17.4769159,32.0604059 17.5119773,32.5267193 17.7194237,32.9364901 C17.8294775,33.1538864 17.9827087,33.3387869 18.1654823,33.4885921 L12.479696,44.7879985 C12.2751713,44.7425045 12.0638291,44.7343806 11.8521623,44.7662264 L8.13241012,25.6954723 C8.16552364,25.6811742 8.19961109,25.6688258 8.23239996,25.651928 L8.23239996,25.651928 Z M20.6986667,13.1908002 C20.8707271,13.3464547 21.0720054,13.4679886 21.2979565,13.5446785 L19.1309687,30.4450444 C18.909238,30.4603174 18.686858,30.5191346 18.4764897,30.6257206 C18.343711,30.6929867 18.2271644,30.7804001 18.1184092,30.8765874 L9.08783259,24.6565846 C9.08815723,24.6556097 9.08880652,24.6546349 9.08913116,24.65366 C9.23229844,24.2172427 9.19691242,23.7509293 8.9897906,23.3414834 C8.95635243,23.2761671 8.91382428,23.2183247 8.87356863,23.1585326 L20.6986667,13.1908002 Z M20.8843621,32.6956969 C20.9853259,32.3879626 20.9927927,32.0659302 20.9184496,31.7585208 L38.8552648,24.8531836 C39.0101192,25.1332966 39.2315253,25.3633662 39.5055234,25.5180457 L32.9847569,45.9380215 C32.7221212,45.9370466 32.4562391,45.9887148 32.2062645,46.115448 C32.1306229,46.1537929 32.0627726,46.2018866 31.9949223,46.2499802 L20.6418543,33.1587607 C20.7428181,33.0177294 20.8288483,32.8653245 20.8843621,32.6956969 L20.8843621,32.6956969 Z M21.941073,13.6327418 C22.1764387,13.6203934 22.408558,13.5615762 22.6247698,13.4520657 C22.8296192,13.3484044 23.0078478,13.208023 23.1526383,13.0390453 L38.8039713,23.3002139 C38.669894,23.5894257 38.6160033,23.9111331 38.6556097,24.2334905 L20.6463993,31.166774 C20.4266164,30.8577399 20.1208033,30.6348193 19.7753838,30.524334 L21.941073,13.6327418 Z M52.0857396,39.829154 C52.0078254,40.0676724 51.9880223,40.3143148 52.0152922,40.5560829 L34.4222733,46.7286419 C34.2258647,46.4209076 33.9466722,46.1947375 33.6259256,46.0644297 L40.1210453,25.7243934 C40.1989595,25.735442 40.2771983,25.743241 40.3557618,25.743241 C40.6216438,25.743241 40.8855781,25.6805242 41.1293845,25.5570406 C41.1628227,25.5404678 41.1904173,25.5167459 41.2222322,25.4982233 L52.4620001,39.1987373 C52.2954586,39.3781136 52.1646277,39.5896606 52.0857396,39.829154 L52.0857396,39.829154 Z M52.7350243,22.5251913 C52.7113254,22.5986316 52.6996383,22.6730468 52.6856787,22.747462 L41.9812461,23.4893389 C41.9543007,23.4071248 41.9263815,23.3249106 41.8867751,23.246271 C41.6770562,22.8316258 41.3205989,22.5407893 40.912848,22.4000829 L42.7772691,10.0559396 C42.8087594,10.0578894 42.8402498,10.0634136 42.8717401,10.0634136 C43.1372975,10.0634136 43.4015564,10.0010219 43.6453628,9.87753821 C43.6521803,9.87396368 43.6576992,9.86908932 43.6645167,9.8655148 L53.1456969,21.861954 C52.9629233,22.0481544 52.8187821,22.2701001 52.7350243,22.5251913 L52.7350243,22.5251913 Z M41.2066494,8.76066084 C41.2374904,8.88316965 41.27872,9.00405367 41.3371556,9.11941342 C41.5127871,9.4667925 41.7981478,9.73195745 42.1451905,9.89378606 L40.2703808,22.30812 C40.035989,22.3194935 39.8006233,22.3757111 39.5782433,22.4884712 C39.4289078,22.5641862 39.301648,22.664273 39.185426,22.7734585 L23.473385,12.4723202 C23.4756575,12.4658211 23.4795532,12.4602968 23.481501,12.4534727 C23.548702,12.2487498 23.5730502,12.0375277 23.562337,11.8279304 L41.2066494,8.76066084 Z M13.8214429,46.4394302 C13.8188457,46.1791396 13.7636565,45.9207987 13.6428896,45.6816303 C13.5075137,45.4145157 13.3078587,45.2045934 13.0763887,45.0466643 L18.7365283,33.7989261 C18.9063162,33.852219 19.0806492,33.8804903 19.2540082,33.8804903 C19.5198903,33.8804903 19.7838245,33.8177736 20.0276309,33.6942899 C20.0782751,33.6689433 20.1217772,33.6344978 20.1688504,33.6046018 L31.5436695,46.720843 C31.465106,46.8430268 31.3962818,46.9720348 31.3495333,47.113716 C31.3342751,47.1605099 31.3290809,47.2086035 31.318043,47.2560472 L13.8214429,46.4394302 Z M44.6416902,51.4778892 C44.5498164,51.4278458 44.4537223,51.3839766 44.3521092,51.350506 C43.9157899,51.2071999 43.4502528,51.2426203 43.0412034,51.4499428 C42.7805156,51.5818754 42.569498,51.7784744 42.4084754,52.0127684 L34.6125137,48.1876991 C34.702115,47.91571 34.7167239,47.6219489 34.6625086,47.333387 L52.2071558,41.1774008 C52.2681886,41.2914607 52.3409085,41.394797 52.4223937,41.4887096 L44.6416902,51.4778892 Z M54.5945758,14.0194407 C54.7620912,14.3508969 55.0425822,14.5981892 55.3847553,14.7336963 L54.3452504,21.347872 C54.1180008,21.3507966 53.8936729,21.3988902 53.6810322,21.4921529 L44.1745299,9.46321798 C44.2547165,9.36963035 44.3219175,9.26564409 44.3806778,9.15580861 L54.4595246,13.0855142 C54.40466,13.4026722 54.4468635,13.7273043 54.5945758,14.0194407 L54.5945758,14.0194407 Z M27.8145026,3.01119585 C28.0424016,3.01119585 28.2738716,2.95920273 28.4907327,2.84936725 L28.4910573,2.84936725 C28.6929849,2.74700578 28.8582278,2.60272485 28.989708,2.43537197 L41.2274265,7.85338078 C41.202429,7.93721969 41.1826259,8.02203348 41.1706141,8.10717223 L23.4032622,11.1962139 C23.3951462,11.1780163 23.3909258,11.1588438 23.3821605,11.1412962 C23.268211,10.9164259 23.1071884,10.7273009 22.915974,10.575221 L27.2707267,2.90688464 C27.4434364,2.97350084 27.6275086,3.01119585 27.8145026,3.01119585 L27.8145026,3.01119585 Z M10.5045719,10.915451 C10.520804,10.9161009 10.5370361,10.9193505 10.5529436,10.9193505 C10.7860368,10.9193505 11.0171822,10.8647577 11.2307968,10.756547 C11.5444013,10.597643 11.7723003,10.340277 11.909624,10.0435913 L20.141905,11.770088 C20.1146351,12.0778224 20.169175,12.3868565 20.3074726,12.670869 L8.41257648,22.6974186 C8.3093402,22.6282027 8.19961109,22.5693855 8.08176591,22.5232416 L10.5045719,10.915451 Z M2.84723245,39.4795002 C2.72484228,39.2374072 2.54012078,39.042433 2.31839004,38.8991269 L7.11725345,25.7988086 C7.22990435,25.8215556 7.34385382,25.8371535 7.45975114,25.8371535 C7.47241219,25.8371535 7.48507324,25.8352038 7.49805894,25.8348788 L11.2337186,44.9875221 C11.0048457,45.1240041 10.8146053,45.3072798 10.6727366,45.5279257 L2.91410878,40.6740423 C2.91995234,40.6584443 2.92904233,40.6444712 2.9342366,40.6282233 C3.05954856,40.2460739 3.02838289,39.8379278 2.84723245,39.4795002 L2.84723245,39.4795002 Z M13.3237661,47.6654931 C13.4873859,47.5007399 13.6159443,47.3054407 13.7026238,47.0847949 L31.2901238,47.9056364 C31.3173937,48.0843627 31.3654408,48.2604895 31.4491985,48.4262175 C31.5371766,48.6000696 31.6530739,48.7498748 31.7852034,48.8785578 L26.3390031,59.5218758 C25.984169,59.4289381 25.6124535,59.4620837 25.2822922,59.6294366 C25.240738,59.6505588 25.2060013,59.6788301 25.1676935,59.7032019 L13.3237661,47.6654931 Z M54.9870684,48.0664901 C54.400115,48.3638258 54.0985223,48.9952173 54.1826046,49.6136106 L45.369863,52.2600608 C45.361747,52.243163 45.3578513,52.2246404 45.3497352,52.2080676 C45.2919489,52.0940077 45.2205276,51.9903464 45.1413148,51.8935092 L52.9333808,41.8897066 C53.1765379,42.0144901 53.4456665,42.0843559 53.7212878,42.0843559 C53.7540767,42.0843559 53.7871902,42.0807813 53.8203037,42.0788316 L55.0795915,48.0304199 C55.0487504,48.0434181 55.0169355,48.0512171 54.9870684,48.0664901 L54.9870684,48.0664901 Z M62.5814272,30.0719937 C62.2983391,29.5124177 61.7113857,29.2069581 61.1224844,29.2521271 L56.680403,14.6420584 C57.004396,14.4568329 57.2488517,14.1663213 57.3660476,13.8088685 C57.4913596,13.4263941 57.4601939,13.018573 57.2790435,12.6598204 C56.9044062,11.9189184 55.9973554,11.6215827 55.2574955,11.9962581 C55.1802306,12.035253 55.1097832,12.0830217 55.0416083,12.13339 L44.3939881,3.16295079 C44.4335945,3.09828434 44.4732008,3.03329293 44.5033926,2.96180238 C44.8283596,2.19815333 44.4715776,1.31199547 43.7083434,0.986713465 C42.9451092,0.66175642 42.0601342,1.01888421 41.7354918,1.78253327 L41.7354918,1.78285822 C41.7085465,1.84589989 41.6932883,1.91024139 41.6757576,1.97425792 L29.2903268,1.27105088 C29.2663033,1.11994585 29.2263723,0.969490742 29.1536524,0.825859728 C28.7793397,0.0849576661 27.8726136,-0.213027944 27.132429,0.162297443 C26.5266464,0.46938185 26.224729,1.13326909 26.3383538,1.77083481 L11.7333432,8.48282257 C11.299621,7.9303956 10.5221025,7.74029572 9.87216854,8.06947721 C9.51376337,8.2511282 9.24723199,8.56178713 9.12224468,8.94361166 C8.99693273,9.3260861 9.02809839,9.73423215 9.20924883,10.0926598 C9.27807301,10.2284918 9.3699468,10.3458013 9.47220915,10.4523872 L2.39500564,22.0527038 C2.0054348,21.8937998 1.55418192,21.892175 1.15065146,22.096898 C0.410466877,22.4718984 0.113094472,23.3795034 0.487731759,24.1204055 C0.694528944,24.5298514 1.06494588,24.8011905 1.47951418,24.9009523 L1.20941173,38.6892047 C1.07793157,38.7158511 0.948723914,38.7535462 0.826009101,38.8156129 C0.467603933,38.9972639 0.201072553,39.3079229 0.0757606008,39.6900724 C-0.0495513513,40.0722218 -0.0187103268,40.4803679 0.163089396,40.8387955 C0.344564477,41.197873 0.654597933,41.4646628 1.03605271,41.5897712 C1.19058247,41.6404645 1.3486833,41.6654862 1.50645949,41.6654862 C1.69215492,41.6654862 1.87622714,41.629091 2.05185866,41.5605251 L10.1899934,53.5556645 C9.7484798,54.0037803 9.61375322,54.6972386 9.91274883,55.2889854 C10.1773324,55.8124912 10.707798,56.1147012 11.2574175,56.1147012 C11.4856411,56.1147012 11.7171111,56.0623831 11.9342968,55.9525477 C12.1414187,55.8475865 12.3128298,55.6958316 12.4491796,55.5158054 L24.4901648,60.6939959 C24.430106,61.0095292 24.4638688,61.3448849 24.6193725,61.6529441 C24.883956,62.176125 25.4144217,62.478335 25.9640412,62.478335 C26.1922648,62.478335 26.4234101,62.4263419 26.6405959,62.3165064 L26.6405959,62.3165064 C27.1155476,62.0760382 27.404804,61.615899 27.4544743,61.1216394 L41.02907,59.4975041 C41.2936535,60.0206849 41.8241192,60.32257 42.373414,60.32257 C42.6016376,60.32257 42.8331076,60.2705769 43.0499687,60.1604164 C43.7193813,59.8214862 44.020974,59.0477635 43.7966462,58.3549551 L54.7361199,50.5881568 C54.8731189,50.6963675 55.0266748,50.7844308 55.1974367,50.8406484 C55.3516418,50.8910167 55.5100672,50.9163634 55.6678434,50.9163634 C55.9002874,50.9163634 56.1317574,50.8614456 56.345372,50.7532349 C56.7037772,50.571584 56.9703086,50.260925 57.0956205,49.8791005 C57.2206079,49.4966261 57.1897668,49.088805 57.0082917,48.7300524 C56.8820059,48.4801604 56.6901422,48.278687 56.4583476,48.1347311 L61.136444,32.2501808 C61.1715054,32.2524555 61.2065668,32.2573299 61.2419528,32.2573299 C61.4698517,32.2573299 61.7013217,32.2053367 61.9181828,32.0955013 L61.9185075,32.0955013 C62.6583674,31.7205008 62.9557398,30.8128958 62.5814272,30.0719937 L62.5814272,30.0719937 Z" id="Fill-1" fill="#285E7A"></path>
            </g>
        </g>
    </g>
</svg>