<svg xmlns="http://www.w3.org/2000/svg" xmlns:xlink="http://www.w3.org/1999/xlink" viewBox="0 0 850.25 736.18"><defs><style>.cls-1,.cls-12,.cls-17,.cls-18,.cls-19,.cls-34,.cls-47,.cls-67,.cls-7,.cls-75{fill:none;}.cls-2,.cls-29,.cls-51,.cls-8{fill:#a0bbfb;}.cls-12,.cls-13,.cls-14,.cls-15,.cls-16,.cls-17,.cls-18,.cls-19,.cls-2,.cls-20,.cls-22,.cls-25,.cls-28,.cls-29,.cls-3,.cls-34,.cls-47,.cls-48,.cls-49,.cls-53,.cls-56,.cls-59,.cls-60,.cls-62,.cls-63,.cls-65,.cls-66,.cls-67,.cls-68,.cls-7,.cls-71,.cls-72,.cls-74,.cls-75,.cls-8,.cls-9{stroke:#004680;}.cls-13,.cls-14,.cls-15,.cls-16,.cls-17,.cls-18,.cls-19,.cls-2,.cls-20,.cls-28,.cls-3,.cls-41,.cls-46,.cls-47,.cls-48,.cls-49,.cls-53,.cls-54,.cls-56,.cls-59,.cls-60,.cls-62,.cls-63,.cls-65,.cls-66,.cls-67,.cls-68,.cls-7,.cls-71,.cls-72,.cls-74,.cls-75,.cls-8,.cls-9{stroke-linecap:round;stroke-linejoin:round;}.cls-12,.cls-13,.cls-14,.cls-15,.cls-16,.cls-17,.cls-18,.cls-2,.cls-22,.cls-25,.cls-28,.cls-29,.cls-3,.cls-34,.cls-38,.cls-39,.cls-40,.cls-41,.cls-43,.cls-44,.cls-45,.cls-46,.cls-47,.cls-48,.cls-49,.cls-53,.cls-54,.cls-56,.cls-59,.cls-60,.cls-62,.cls-63,.cls-65,.cls-66,.cls-67,.cls-68,.cls-7,.cls-71,.cls-72,.cls-8,.cls-9{stroke-width:1.4px;}.cls-14,.cls-2,.cls-21,.cls-38,.cls-43{opacity:0.2;}.cls-15,.cls-16,.cls-20,.cls-3,.cls-5,.cls-59,.cls-60,.cls-72,.cls-74{fill:#fff;}.cls-26,.cls-30,.cls-35,.cls-4,.cls-61{fill:#004680;}.cls-13,.cls-14,.cls-53,.cls-6,.cls-9{fill:#dce7f2;}.cls-13,.cls-15,.cls-8{opacity:0.1;}.cls-10{fill:#8ad68a;}.cls-11{fill:#a7e8a7;}.cls-12,.cls-22,.cls-25,.cls-29,.cls-34,.cls-38,.cls-39,.cls-40,.cls-43,.cls-44,.cls-45{stroke-miterlimit:10;}.cls-16,.cls-18,.cls-39,.cls-44,.cls-53{opacity:0.4;}.cls-17,.cls-34,.cls-35,.cls-59{opacity:0.3;}.cls-19,.cls-20,.cls-75{stroke-width:2.2px;}.cls-22{fill:#cefbea;}.cls-23{fill:#ff9739;}.cls-23,.cls-24{opacity:0.9;}.cls-24{fill:#ff5656;}.cls-25,.cls-68,.cls-73{fill:#d3cefb;}.cls-26{opacity:0.5;}.cls-27{fill:#a4fdd4;}.cls-28,.cls-50{fill:#ffb8b8;}.cls-30{opacity:0.7;}.cls-31{fill:#9dadbd;}.cls-32{fill:#ff8c8c;}.cls-33{fill:#a9f2ab;}.cls-35{font-size:12.39px;font-family:SFUIDisplay-Bold, SF UI Display;font-weight:700;}.cls-36{letter-spacing:0.01em;}.cls-37{fill:#3d6dd1;}.cls-38,.cls-39,.cls-40,.cls-41{fill:#c6d4f2;stroke:#3d6dd1;}.cls-42{fill:#3dd15d;}.cls-43,.cls-44,.cls-45,.cls-46,.cls-62{fill:#c6f2c7;}.cls-43,.cls-44,.cls-45,.cls-46{stroke:#3dd15d;}.cls-47,.cls-60,.cls-61{opacity:0.15;}.cls-48{fill:#ff6e6e;}.cls-49{fill:#ff9c9c;}.cls-52{fill:#f9e4a0;}.cls-54{fill:#ffd169;stroke:#e3a61c;}.cls-55{fill:#ffe491;}.cls-56{fill:#c3d3e3;}.cls-57{fill:#cfd9e6;}.cls-58,.cls-63,.cls-71{fill:#e1eaf2;}.cls-64{clip-path:url(#clip-path);}.cls-65{fill:#ffd1dc;}.cls-66{fill:#ffb0c2;}.cls-67{stroke-dasharray:3.3 3.3;}.cls-69{fill:#3c5a99;}.cls-69,.cls-70{opacity:0.8;}.cls-70{fill:#55adee;}.cls-71,.cls-72,.cls-75{fill-rule:evenodd;}</style><clipPath id="clip-path"><path class="cls-1" d="M651,491.66l-76.06,1.89,56.19-32.66c0-7.32,4.45-10.68,9.93-7.51h0c5.49,3.17,9.94,11.67,9.94,19Z"/></clipPath></defs><title>Webs</title><g id="Capa_2" data-name="Capa 2"><g id="Capa_1-2" data-name="Capa 1"><path class="cls-2" d="M645,272.46l-51.42,29.68c-2.51,1.45-4.54-.08-4.54-3.43V277.22c0-3.34,2-7.23,4.54-8.68L645,238.86c2.51-1.45,4.54.09,4.54,3.43v21.49C649.55,267.13,647.52,271,645,272.46Z"/><path class="cls-3" d="M628.39,259.11l27-15.57c2.51-1.44,4.54.09,4.54,3.44v21.49c0,3.34-2,7.23-4.54,8.67l-51.42,29.69c-2.51,1.45-4.54-.09-4.54-3.43V281.9c0-3.34,2-7.22,4.54-8.67L620,264"/><line class="cls-3" x1="624.21" y1="261.52" x2="624.92" y2="261.11"/><path class="cls-3" d="M614.34,294.79c-5,2.87-9.21.53-9-5.75.17-5.49,4-12.39,9.1-15.31s9-.53,9,5.45C623.4,284.92,619.27,292,614.34,294.79Zm-5.49-4.26a5.06,5.06,0,0,0,.21.6,2.22,2.22,0,0,0,1.1,1c2,.8,5.27-.77,7.54-3.63a11.49,11.49,0,0,0,2-3.5,8.21,8.21,0,0,0,.2-.82Zm3.59-7.9a2.2,2.2,0,0,0-.43-1.53c-.41-.4-1-.11-1.49.73-.76,1.31-.78,3.2,0,3.68.38.25.9,0,1.31-.71A4.28,4.28,0,0,0,612.44,282.63Zm4.12-2.55a2.26,2.26,0,0,0,.32,1.32c.47.62,1.27.18,1.76-1s.46-2.62-.09-3.15-1.11,0-1.55.88A4.3,4.3,0,0,0,616.56,280.08Z"/><path class="cls-4" d="M635.18,277.19l3.63-2.09c.22-.13.4,0,.4.23v2.13a.9.9,0,0,1-.4.7L630.46,283c-.22.13-.38,0-.38-.24v-.19c0-.23,0-.28.26-.83,1.34-2.81,4.11-8.73,5.27-11.42a6.12,6.12,0,0,0,.52-2.09c0-.93-.66-1.36-1.82-.69a6.37,6.37,0,0,0-2,2.37c-.17.28-.43.43-.59.34l-1.28-.75c-.14-.06-.16-.35,0-.61a12.06,12.06,0,0,1,4.17-4.76c3-1.72,4.74-.55,4.74,2.1a9.55,9.55,0,0,1-.81,3.56c-.65,1.72-2.35,5.23-3.32,7.37Z"/><path class="cls-4" d="M641.46,274.19l1.21-2.26c.15-.24.37-.42.53-.35a2.38,2.38,0,0,0,2.29-.23,3.56,3.56,0,0,0,1.8-2.94c0-1.19-.93-1.41-2.47-.53l-1.17.68a.24.24,0,0,1-.39-.22v-2a.84.84,0,0,1,.39-.66l1.17-.68a3.93,3.93,0,0,0,2.23-3.1c0-1-.61-1.46-1.66-.85a5.2,5.2,0,0,0-1.83,2c-.14.29-.38.43-.56.37l-1.28-.7c-.16-.07-.14-.39,0-.63a11.64,11.64,0,0,1,4-4.42c2.43-1.4,4.51-.91,4.51,1.79a8.36,8.36,0,0,1-2.14,4.91v.09c1.13-.21,2.51.2,2.51,2.41,0,2.6-2,5.86-4.86,7.52-2.63,1.52-3.85.78-4.29.41A.58.58,0,0,1,641.46,274.19Z"/><g id="cloud"><path class="cls-5" d="M680.26,54.18a16.13,16.13,0,0,0-28.35-6A21.92,21.92,0,1,0,661,79.34a8.48,8.48,0,0,0,2.22-.27,8.92,8.92,0,0,0,6.21-5.55A16.15,16.15,0,0,0,680.26,54.18Z"/><path class="cls-6" d="M667.7,72.32a.6.6,0,0,0-.35.33,7.59,7.59,0,0,1-5.2,4.5,7.35,7.35,0,0,1-1.59.23.59.59,0,0,0-.48.27,18.7,18.7,0,0,1-21.66,7.69.58.58,0,0,1,.18-1.14,18.78,18.78,0,0,0,15.8-8.65.59.59,0,0,1,.47-.27,7.25,7.25,0,0,0,1.59-.22,7.64,7.64,0,0,0,5.2-4.5.55.55,0,0,1,.35-.33,13.77,13.77,0,0,0,5.16-23.05.58.58,0,0,1,.57-1,13.76,13.76,0,0,1,0,26.12Z"/><path class="cls-7" d="M657.56,43.6a16.1,16.1,0,0,0-5.65,4.57A21.91,21.91,0,0,0,620.44,69.6"/><path class="cls-7" d="M661.18,42.35l-.49.11"/><path class="cls-7" d="M621,73.19A21.92,21.92,0,0,0,661,79.34a8.48,8.48,0,0,0,2.22-.27,8.92,8.92,0,0,0,6.21-5.55A16.14,16.14,0,0,0,664.62,42"/></g><g id="cloud-2" data-name="cloud"><path class="cls-5" d="M529.82,30.21a28.07,28.07,0,0,0-23.29,12.54c-.54,0-1.08-.08-1.63-.08-10.51,0-19,8.9-19,19.88a21.07,21.07,0,0,0,.49,4.45c-7.47.5-13.4,7.29-13.4,15.62,0,8.65,6.4,15.67,14.29,15.67a13.84,13.84,0,0,0,11.08-5.78,15.05,15.05,0,0,0,5.77,1.17,16.08,16.08,0,0,0,13.77-8.25,27.57,27.57,0,0,0,12,2.72c15.62,0,28.28-13,28.28-29S545.44,30.21,529.82,30.21Z"/><path class="cls-6" d="M543.44,36.57a.71.71,0,0,0-1,1,25.17,25.17,0,0,1,6,16.35c0,13.76-10.89,24.91-24.32,24.91a23.71,23.71,0,0,1-9.71-2.07.72.72,0,0,0-.9.27A13.75,13.75,0,0,1,502,83.62a12.88,12.88,0,0,1-4.47-.82.7.7,0,0,0-.81.23,11.82,11.82,0,0,1-9.2,4.55c-5.33,0-9.85-3.72-11.55-8.92a.32.32,0,0,0-.61.06c-1.11,8.78,5.15,16.61,13.22,16.61a12.86,12.86,0,0,0,10-5,.71.71,0,0,1,.81-.22,14.09,14.09,0,0,0,4.9.89,14.94,14.94,0,0,0,12.54-7.16.72.72,0,0,1,.9-.28,25.75,25.75,0,0,0,10.6,2.28c14.59,0,26.42-12.12,26.42-27.07A27.19,27.19,0,0,0,543.44,36.57Z"/><path class="cls-7" d="M485.81,98.25c.31,0,.62,0,.93,0a13.83,13.83,0,0,0,11.07-5.78,15.13,15.13,0,0,0,5.77,1.17,16.08,16.08,0,0,0,13.77-8.25,27.58,27.58,0,0,0,12,2.72c15.62,0,28.28-13,28.28-29s-12.66-29-28.28-29a27.87,27.87,0,0,0-7.29,1"/><path class="cls-7" d="M479.93,96.24q.49.24,1,.45"/><path class="cls-7" d="M517.68,32.76a28.73,28.73,0,0,0-11.67,10c-.54,0-1.08-.08-1.63-.08-10.51,0-19,8.9-19,19.88a20.44,20.44,0,0,0,.5,4.45c-7.48.5-13.4,7.29-13.4,15.62a16.47,16.47,0,0,0,3.73,10.56"/></g><path class="cls-8" d="M226.92,196.65v27.89a8.89,8.89,0,0,1-4,7L89.34,309.17c-2.22,1.28-4,.26-4-2.3V279a8.89,8.89,0,0,1,4-7l133.54-77.67C225.11,193.06,226.92,194.09,226.92,196.65Z"/><g id="tw"><path class="cls-5" d="M155.64,328.14l91.79-53.38c2.23-1.29,4-.26,4,2.29V305a8.88,8.88,0,0,1-4,6.95L113.89,389.57c-2.23,1.29-4,.26-4-2.29v-27.9a8.91,8.91,0,0,1,4-7l28.86-16.78"/></g><ellipse class="cls-6" cx="94.42" cy="493.7" rx="6.37" ry="11.04" transform="translate(-399.78 585.45) rotate(-89.69)"/><g id="trees"><rect class="cls-9" x="91.6" y="464.43" width="5.21" height="30.18" rx="0.94"/><path class="cls-10" d="M108.91,457.53a15.86,15.86,0,0,1-27.33,11,15.66,15.66,0,0,1-4.43-11,15.88,15.88,0,0,1,31.76,0Z"/><path class="cls-11" d="M108,452.15a20.19,20.19,0,0,1-26.39,16.36,15.66,15.66,0,0,1-4.43-11A15.88,15.88,0,0,1,108,452.15Z"/><path class="cls-12" d="M108.91,457.53a15.86,15.86,0,0,1-27.33,11,15.66,15.66,0,0,1-4.43-11,15.88,15.88,0,0,1,31.76,0Z"/><ellipse class="cls-5" cx="82.87" cy="454" rx="4.33" ry="2.6" transform="translate(-370.25 366.49) rotate(-68.73)"/></g><ellipse class="cls-6" cx="75.25" cy="501.22" rx="5.08" ry="8.79" transform="matrix(0.01, -1, 1, 0.01, -426.38, 573.75)"/><rect class="cls-9" x="72.99" y="477.9" width="4.15" height="24.04" rx="0.94"/><path class="cls-10" d="M86.79,472.4A12.65,12.65,0,0,1,65,481.15a12.51,12.51,0,0,1-3.53-8.75,12.66,12.66,0,0,1,25.31,0Z"/><path class="cls-11" d="M86,468.12A16,16,0,0,1,70.12,482a16.28,16.28,0,0,1-5.11-.82,12.51,12.51,0,0,1-3.53-8.75A12.65,12.65,0,0,1,86,468.12Z"/><path class="cls-12" d="M86.79,472.4A12.65,12.65,0,0,1,65,481.15a12.51,12.51,0,0,1-3.53-8.75,12.66,12.66,0,0,1,25.31,0Z"/><ellipse class="cls-5" cx="66.04" cy="469.59" rx="3.45" ry="2.07" transform="translate(-395.5 360.74) rotate(-68.73)"/><g id="magnifying_glass" data-name="magnifying glass"><path class="cls-9" d="M221.27,636.27h-4.49a19.86,19.86,0,0,0-2.14-1.42c-8.79-5.08-23-5.11-31.74-.06a18.87,18.87,0,0,0-2.21,1.48h-4.32V644h0c0,3.31,2.24,6.61,6.62,9.14,8.79,5.08,23,5.1,31.74.06,4.39-2.54,6.56-5.87,6.53-9.2h0Z"/><ellipse class="cls-3" cx="198.82" cy="636.27" rx="12.96" ry="22.45" transform="translate(-438.52 831.64) rotate(-89.69)"/><path class="cls-7" d="M216.2,636.52c-.08,2.5-1.76,5-5,6.87-.22.13-.45.25-.68.37"/><path class="cls-7" d="M183.06,632a12.44,12.44,0,0,1,3.43-2.83,25.29,25.29,0,0,1,12.7-2.91"/><path class="cls-7" d="M181.46,635.7a6.53,6.53,0,0,1,.33-1.49"/><path class="cls-9" d="M217.6,646.46h0l-.09-.05h0a2,2,0,0,0-2,.23,6.3,6.3,0,0,0-2.87,4.94,2,2,0,0,0,.85,1.85h0l19.63,11.44,4-7Z"/><ellipse class="cls-9" cx="235.07" cy="661.32" rx="4.04" ry="2.33" transform="translate(-454.49 530.49) rotate(-59.69)"/></g><g id="shopping_cart" data-name="shopping cart"><path class="cls-13" d="M328.14,651.21v43.87a8.41,8.41,0,0,1-3.52,6.71l-10.95,6.33-5.5,10.49-5.49-4.15-11,6.33c-1.93,1.11-3.51-.07-3.51-2.66V674.26c0-2.58,1.58-5.59,3.51-6.7l32.9-19C326.56,647.44,328.14,648.63,328.14,651.21Z"/></g><path class="cls-14" d="M337.37,656.25v43.87c0,2.58-1.57,5.59-3.51,6.71l-11,6.32-5.49,10.5-5.5-4.15-11,6.32c-1.94,1.12-3.51-.07-3.51-2.65V679.3c0-2.58,1.57-5.59,3.51-6.71l32.9-19C335.8,652.48,337.37,653.67,337.37,656.25Z"/><g id="_04" data-name="04"><g id="iphone"><path class="cls-15" d="M171.33,578.31l115.34,68.27a31.56,31.56,0,0,0,31.81.21l76.86-44.16"/><path class="cls-15" d="M412.2,593,633.43,465.86a13.22,13.22,0,0,0,0-22.91L503.56,368a31.58,31.58,0,0,0-31.51,0l-313.33,180a13.22,13.22,0,0,0-.15,22.84l8.23,4.86"/><path class="cls-16" d="M412.2,576.16,633.43,449.07a13.22,13.22,0,0,0,0-22.91l-129.89-75a31.55,31.55,0,0,0-31.51,0l-313.33,180a13.21,13.21,0,0,0-.15,22.83l8.23,4.87"/><path class="cls-16" d="M171.33,561.52,286.67,629.8a31.58,31.58,0,0,0,31.81.2l76.86-44.15"/><path class="cls-6" d="M158.84,493.42c-16.24,10.29-15.85,34.95.94,44.89l126.4,75.48a33.35,33.35,0,0,0,33.6.22L632.63,434.28c16.84-9.67,17.16-32.32,2.79-44"/><path class="cls-7" d="M248,591l38.23,22.83a33.35,33.35,0,0,0,33.6.22L632.63,434.28c16.84-9.67,17.33-32.32,3-44"/><path class="cls-7" d="M158.84,493.42c-16.24,10.29-15.85,34.95.94,44.89l64.87,38.74"/><path class="cls-5" d="M159.25,493.18A13.21,13.21,0,0,0,159.1,516l128.1,75.83a31.56,31.56,0,0,0,31.81.21L634,411.11a13.21,13.21,0,0,0,0-22.9l-129.89-75a31.58,31.58,0,0,0-31.51,0Z"/><path class="cls-3" d="M171.86,523.56,287.2,591.84a31.56,31.56,0,0,0,31.81.21l76.86-44.16"/><polyline class="cls-17" points="270.07 440.09 467.46 328.02 501.02 347.14"/><path class="cls-7" d="M245.16,548c.43-.07.86-.16,1.28-.26"/><path class="cls-7" d="M224.54,536c-1.72,3.27-.35,7,4.11,9.56a24,24,0,0,0,11.91,2.79"/><path class="cls-7" d="M252.83,545.1c5.59-3.73,5.31-9.44-.82-13-6.41-3.72-16.93-3.72-23.36,0a13.08,13.08,0,0,0-2.09,1.47"/><path class="cls-3" d="M410.69,539.3,633.6,410.66a13.25,13.25,0,0,0,.15-23l-130-74.95a31.58,31.58,0,0,0-31.51,0l-313.32,180a13.21,13.21,0,0,0-.15,22.83l8.22,4.87"/><polyline class="cls-18" points="510.33 351.05 615.16 410.77 335.27 569.64 191.75 485.14 266.99 442.42"/><line class="cls-3" x1="403.11" y1="543.67" x2="403.99" y2="543.17"/><line class="cls-7" x1="567.53" y1="366.67" x2="539.98" y2="350.76"/><path class="cls-19" d="M247.33,590.59l38.85,23.2a33.35,33.35,0,0,0,33.6.22L632.63,434.28c13.85-7.95,19-26.47,5.67-42.29-3.81-4.53-2.36-3.37-74.2-44.16-90-51.08-64.72-50.88-144.49-5C155.1,494.9,157,491.16,152.17,498.59c-9.18,14.07-4.9,32.3,7.61,39.72l68.94,41.17"/><line class="cls-20" x1="237.5" y1="584.72" x2="238.43" y2="585.28"/></g><g id="cards"><path class="cls-5" d="M445.43,645.53l-5.78,3.34a1.81,1.81,0,0,1-1.6-.07h0c-.48-.27-.53-.69-.12-.92l5.78-3.34a1.78,1.78,0,0,1,1.6.06h0C445.79,644.88,445.84,645.29,445.43,645.53Z"/><path class="cls-5" d="M430.06,643l-6.73,3.89a1,1,0,0,1-.9,0h0c-.26-.15-.29-.38-.06-.52l6.73-3.88a1,1,0,0,1,.9,0h0C430.26,642.6,430.29,642.83,430.06,643Z"/><g class="cls-21"><path class="cls-7" d="M466,662.41l-42.39,24.47a7.13,7.13,0,0,1-6.45-.27L393.58,673c-1.91-1.1-2.12-2.77-.47-3.72l42.4-24.48a7.19,7.19,0,0,1,6.45.27l23.57,13.61C467.44,659.79,467.65,661.45,466,662.41Z"/></g><path class="cls-22" d="M466,649.71l-42.39,24.47a7.13,7.13,0,0,1-6.45-.27L393.58,660.3c-1.91-1.1-2.12-2.77-.47-3.72l42.4-24.48a7.19,7.19,0,0,1,6.45.27L465.53,646C467.44,647.09,467.65,648.75,466,649.71Z"/><path class="cls-5" d="M418.3,661.19l-5.78,3.34a1.75,1.75,0,0,1-1.6-.07h0c-.47-.27-.53-.69-.12-.92l5.79-3.34a1.75,1.75,0,0,1,1.6.07h0C418.66,660.54,418.71,661,418.3,661.19Z"/><path class="cls-5" d="M427.35,656l-5.79,3.34a1.75,1.75,0,0,1-1.6-.07h0c-.47-.27-.52-.69-.11-.92l5.78-3.34a1.75,1.75,0,0,1,1.6.07h0C427.7,655.32,427.76,655.73,427.35,656Z"/><path class="cls-5" d="M436.39,650.75l-5.78,3.34A1.77,1.77,0,0,1,429,654h0c-.47-.27-.52-.69-.11-.92l5.78-3.34a1.75,1.75,0,0,1,1.6.07h0C436.75,650.1,436.8,650.51,436.39,650.75Z"/><path class="cls-5" d="M437.63,657.09l-19.2,11.08a1,1,0,0,1-.9,0h0c-.26-.16-.29-.39-.06-.52l19.2-11.09a1,1,0,0,1,.9,0h0C437.83,656.72,437.86,657,437.63,657.09Z"/><path class="cls-5" d="M421.61,647.84l-19.2,11.09a1,1,0,0,1-.9,0h0c-.26-.15-.29-.39-.06-.52l19.2-11.09a1,1,0,0,1,.9,0h0C421.81,647.47,421.84,647.71,421.61,647.84Z"/><ellipse class="cls-23" cx="452.78" cy="649.91" rx="4.09" ry="2.36" transform="translate(-2.63 1.84) rotate(-0.23)"/><ellipse class="cls-24" cx="455.98" cy="648.06" rx="4.09" ry="2.36" transform="matrix(1, 0, 0, 1, -2.62, 1.85)"/><path class="cls-25" d="M466,636.21l-42.39,24.48a7.19,7.19,0,0,1-6.45-.27l-23.58-13.61c-1.91-1.11-2.12-2.78-.47-3.73l42.4-24.47a7.13,7.13,0,0,1,6.45.27l23.57,13.61C467.44,633.59,467.65,635.26,466,636.21Z"/><path class="cls-5" d="M418.3,647.69,412.52,651a1.78,1.78,0,0,1-1.6-.06h0c-.47-.28-.53-.69-.12-.93l5.79-3.34a1.81,1.81,0,0,1,1.6.07h0C418.66,647,418.71,647.46,418.3,647.69Z"/><path class="cls-5" d="M427.35,642.47l-5.79,3.34a1.78,1.78,0,0,1-1.6-.06h0c-.47-.28-.52-.69-.11-.93l5.78-3.34a1.81,1.81,0,0,1,1.6.07h0C427.7,641.82,427.76,642.24,427.35,642.47Z"/><path class="cls-5" d="M436.39,637.25l-5.78,3.34a1.77,1.77,0,0,1-1.61-.07h0c-.47-.27-.52-.68-.11-.92l5.78-3.34a1.75,1.75,0,0,1,1.6.07h0C436.75,636.6,436.8,637,436.39,637.25Z"/><path class="cls-5" d="M445.43,632l-5.78,3.34a1.75,1.75,0,0,1-1.6-.07h0c-.48-.27-.53-.68-.12-.92l5.78-3.34a1.75,1.75,0,0,1,1.6.07h0C445.79,631.38,445.84,631.8,445.43,632Z"/><path class="cls-5" d="M437.63,643.59l-19.2,11.09a1,1,0,0,1-.9,0h0c-.26-.15-.29-.39-.06-.52L436.67,643a1,1,0,0,1,.9,0h0C437.83,643.23,437.86,643.46,437.63,643.59Z"/><path class="cls-5" d="M421.61,634.34l-19.2,11.09a1,1,0,0,1-.9,0h0c-.26-.15-.29-.38-.06-.52l19.2-11.08a1,1,0,0,1,.9,0h0C421.81,634,421.84,634.21,421.61,634.34Z"/><path class="cls-5" d="M430.06,629.46l-6.73,3.89a1,1,0,0,1-.9,0h0c-.26-.15-.29-.38-.06-.51l6.73-3.89a1,1,0,0,1,.9,0h0C430.26,629.1,430.29,629.33,430.06,629.46Z"/><ellipse class="cls-23" cx="452.78" cy="636.41" rx="4.09" ry="2.36" transform="translate(-2.57 1.84) rotate(-0.23)"/><ellipse class="cls-24" cx="455.98" cy="634.57" rx="4.09" ry="2.36" transform="translate(-2.56 1.85) rotate(-0.23)"/><path class="cls-3" d="M408.91,621.65l26.6-15.35a7.13,7.13,0,0,1,6.45.27l23.57,13.61c1.91,1.1,2.12,2.77.47,3.72l-42.39,24.48a7.19,7.19,0,0,1-6.45-.27L393.58,634.5c-1.91-1.11-2.12-2.78-.47-3.73l9.14-5.27"/><line class="cls-3" x1="406.49" y1="623.05" x2="406.64" y2="622.96"/><path class="cls-26" d="M418.3,635.38l-5.78,3.34a1.78,1.78,0,0,1-1.6-.06h0c-.47-.28-.53-.69-.12-.93l5.79-3.34a1.81,1.81,0,0,1,1.6.07h0C418.66,634.73,418.71,635.15,418.3,635.38Z"/><path class="cls-26" d="M427.35,630.16l-5.79,3.34a1.75,1.75,0,0,1-1.6-.07h0c-.47-.27-.52-.68-.11-.92l5.78-3.34a1.81,1.81,0,0,1,1.6.07h0C427.7,629.51,427.76,629.93,427.35,630.16Z"/><path class="cls-26" d="M436.39,624.94l-5.78,3.34a1.77,1.77,0,0,1-1.61-.07h0c-.47-.27-.52-.68-.11-.92l5.78-3.34a1.75,1.75,0,0,1,1.6.07h0C436.75,624.29,436.8,624.71,436.39,624.94Z"/><path class="cls-26" d="M445.43,619.72l-5.78,3.34a1.75,1.75,0,0,1-1.6-.07h0c-.48-.27-.53-.68-.12-.92l5.78-3.34a1.75,1.75,0,0,1,1.6.07h0C445.79,619.07,445.84,619.49,445.43,619.72Z"/><path class="cls-26" d="M437.63,631.28l-19.2,11.09a1,1,0,0,1-.9,0h0c-.26-.15-.29-.39-.06-.52l19.2-11.09a1,1,0,0,1,.9,0h0C437.83,630.92,437.86,631.15,437.63,631.28Z"/><path class="cls-26" d="M421.61,622l-19.2,11.09a1,1,0,0,1-.9,0h0c-.26-.15-.29-.38-.06-.52l19.2-11.08a1,1,0,0,1,.9,0h0C421.81,621.67,421.84,621.9,421.61,622Z"/><path class="cls-26" d="M430.06,617.15,423.33,621a1,1,0,0,1-.9,0h0c-.26-.15-.29-.38-.06-.51l6.73-3.89a1,1,0,0,1,.9,0h0C430.26,616.79,430.29,617,430.06,617.15Z"/><ellipse class="cls-23" cx="452.78" cy="624.1" rx="4.09" ry="2.36" transform="translate(-2.52 1.84) rotate(-0.23)"/><ellipse class="cls-24" cx="455.98" cy="622.26" rx="4.09" ry="2.36" transform="translate(-2.51 1.85) rotate(-0.23)"/></g><g id="wallet"><circle class="cls-27" cx="638.4" cy="576.74" r="0.55"/><path class="cls-9" d="M581.5,540.67l-19.23,11.11a3,3,0,0,0-1.22,1.15,1.53,1.53,0,0,0-.18.77h0V555h0a1.74,1.74,0,0,0,1,1.39l2.14,1.24h0l-1.72,1a3,3,0,0,0-1.22,1.15,1.48,1.48,0,0,0-.2.77,1.71,1.71,0,0,0,1,1.43l25.1,14.5a6.45,6.45,0,0,0,5.8-.25L627,556.47h0a1.68,1.68,0,0,0,.3-.15,5.39,5.39,0,0,0,2.46-4.24c0-1.55-1.09-2.17-2.45-1.4l-4.85,2.81h0l4.86-2.81v-1.14h0s1.41-.85,2.3-.4l-30.34-17.51a1.81,1.81,0,0,0-.91-.23,3.24,3.24,0,0,0-1.54.46h0L589.62,536"/><path class="cls-28" d="M581.15,540.88l-18.88,10.9a3.35,3.35,0,0,0-1.06.9,2.13,2.13,0,0,0-.16.25,1.46,1.46,0,0,0-.2.77h0V555h0a1.74,1.74,0,0,0,1,1.39l2.14,1.24,23,13.25a6.44,6.44,0,0,0,5.8-.24l28.9-16.68.77-.45h0l4.85-2.81a1.79,1.79,0,0,1,1.6-.23.11.11,0,0,1,.07,0,1.64,1.64,0,0,1,.78,1.6,5.36,5.36,0,0,1-2.45,4.23v0l-.31.18-2.25,1.3-32,18.44a6.45,6.45,0,0,1-5.8.25L561.85,562a1.71,1.71,0,0,1-1-1.43h0v1.28h0a1.72,1.72,0,0,0,1,1.39L587,577.7a6.45,6.45,0,0,0,5.8-.25l34.5-19.92,0,0a7.77,7.77,0,0,0,3.48-6,3,3,0,0,0,0-.43,1.1,1.1,0,0,0,0-.18,2.16,2.16,0,0,0-.05-.27.17.17,0,0,0,0-.1,1.22,1.22,0,0,0-.09-.27.24.24,0,0,0,0-.09,2.44,2.44,0,0,0-.14-.28l0,0a1.69,1.69,0,0,0-.57-.56h0l0,0-30.48-17.59a1.81,1.81,0,0,0-.91-.23,3.24,3.24,0,0,0-1.54.46h0l-6.07,3.51"/><path class="cls-29" d="M631,562.74l-28.7,11.06a4.46,4.46,0,0,1-4-.79l-13.21-10.73c-1.08-.87-1-1.93.08-2.36l28.71-11.06a4.44,4.44,0,0,1,4,.79l13.22,10.73C632.12,561.25,632.08,562.31,631,562.74Z"/><path class="cls-4" d="M600.82,565l-3.92,1.5a1.1,1.1,0,0,1-1-.19h0c-.27-.22-.26-.48,0-.59l3.91-1.51a1.13,1.13,0,0,1,1,.2h0C601.1,564.62,601.09,564.88,600.82,565Z"/><path class="cls-4" d="M606.94,562.62,603,564.13a1.11,1.11,0,0,1-1-.19h0c-.27-.22-.26-.48,0-.59l3.92-1.51a1.12,1.12,0,0,1,1,.2h0C607.23,562.26,607.22,562.52,606.94,562.62Z"/><path class="cls-4" d="M613.06,560.26l-3.91,1.51a1.13,1.13,0,0,1-1-.19h0c-.26-.22-.25-.48,0-.59l3.92-1.51a1.11,1.11,0,0,1,1,.2h0C613.35,559.9,613.34,560.16,613.06,560.26Z"/><path class="cls-4" d="M619.18,557.9l-3.91,1.51a1.1,1.1,0,0,1-1-.19h0c-.27-.22-.26-.48,0-.59l3.91-1.51a1.1,1.1,0,0,1,1,.2h0C619.47,557.53,619.46,557.8,619.18,557.9Z"/><path class="cls-4" d="M613.19,564.32l-13,5a.62.62,0,0,1-.55-.11h0c-.15-.12-.15-.27,0-.33l13-5a.62.62,0,0,1,.55.11h0C613.35,564.11,613.35,564.26,613.19,564.32Z"/><path class="cls-5" d="M604.21,557l-13,5a.62.62,0,0,1-.55-.11h0c-.15-.12-.15-.27,0-.33l13-5a.61.61,0,0,1,.55.11h0C604.37,556.82,604.37,557,604.21,557Z"/><path class="cls-5" d="M609.93,554.82l-4.56,1.76a.63.63,0,0,1-.55-.11h0c-.15-.13-.14-.27,0-.33l4.55-1.76a.61.61,0,0,1,.55.11h0C610.09,554.61,610.09,554.76,609.93,554.82Z"/><ellipse class="cls-23" cx="623.29" cy="561.33" rx="1.48" ry="2.56" transform="translate(-24.17 1094.61) rotate(-81.48)"/><ellipse class="cls-24" cx="625.46" cy="560.5" rx="1.48" ry="2.56" transform="translate(-21.5 1096.04) rotate(-81.48)"/><path class="cls-3" d="M582.73,540l-20.46,11.82a2.38,2.38,0,0,0-.35.24,1.37,1.37,0,0,0-.23.17,2,2,0,0,0-.21.2,2.84,2.84,0,0,0-.24.26l0,0a2.13,2.13,0,0,0-.16.25.08.08,0,0,0,0,0c0,.07-.06.14-.09.2a2.33,2.33,0,0,0-.07.25c0,.06,0,.12,0,.18s0,.06,0,.1,0,.07,0,.12a.52.52,0,0,0,0,.21.66.66,0,0,0,.08.21,1.63,1.63,0,0,0,.09.19,2.12,2.12,0,0,0,.2.24,1.27,1.27,0,0,0,.11.13,2.14,2.14,0,0,0,.45.32h0L573,561.59l13.91,8a3.14,3.14,0,0,0,.41.19,6.65,6.65,0,0,0,5.39-.42l27.91-16.11,6.61-3.82a2.63,2.63,0,0,1,2.3-.34l-30.32-17.5a1.81,1.81,0,0,0-.91-.23,3.24,3.24,0,0,0-1.54.46h0L589.57,536"/><line class="cls-3" x1="585.59" y1="538.31" x2="585.26" y2="538.5"/><path class="cls-9" d="M582.24,561c-5.63,1.36-10.62,5-10.69,7.6a3.75,3.75,0,0,0,0,.47l-4.23-2.25c-.68-.41-.76-.53-1.09-.73l-.12-.08c-3-2.07,3.13-8.9,8.16-9.63,1-.14,2.3-.42,3.27.14l4.5,2.6C583,559.62,583.17,560.72,582.24,561Z"/><path class="cls-30" d="M578.72,558.41a1.13,1.13,0,0,0-.72-1,3.94,3.94,0,0,0-3.45,0,1.17,1.17,0,0,0-.71,1h0v.51h0a1.19,1.19,0,0,0,.72,1,3.94,3.94,0,0,0,3.45,0,1.13,1.13,0,0,0,.71-1Z"/><ellipse class="cls-4" cx="576.28" cy="558.37" rx="1.36" ry="2.44" transform="translate(15.01 1131.83) rotate(-89.71)"/></g><g id="pos"><path class="cls-9" d="M561.72,597.94,535,582.49l1.43-.82c1.71-1,1.89-2.49.41-3.34l-15.45-8.92a6.4,6.4,0,0,0-5.78.24l-29,16.73a2.39,2.39,0,0,0-1.41,1.88h0V596h0a1.73,1.73,0,0,0,1,1.4l15.45,8.92a6.4,6.4,0,0,0,5.78-.24l1.43-.82,26.75,15.44a7.83,7.83,0,0,0,7.08-.3l18.52-10.69a2.81,2.81,0,0,0,1.73-2.44v-7.49A2,2,0,0,0,561.72,597.94Z"/><path class="cls-3" d="M522.93,605.7,535.61,613a7.86,7.86,0,0,0,7.08-.29L561.21,602c2.1-1.21,2.33-3,.51-4.09L535,582.49l1.43-.82c1.71-1,1.89-2.49.41-3.34l-15.45-8.92a6.4,6.4,0,0,0-5.78.24l-29,16.73c-1.71,1-1.9,2.48-.41,3.34l15.45,8.92a6.43,6.43,0,0,0,5.78-.24l1.43-.83,8.35,4.82"/><line class="cls-3" x1="520.73" y1="604.43" x2="520.98" y2="604.57"/><path class="cls-3" d="M530.65,580.46l-25.32,14.62a2.19,2.19,0,0,1-2,.08l-9.25-5.34c-.5-.29-.44-.8.14-1.14l25.32-14.62a2.21,2.21,0,0,1,2-.08l9.24,5.34C531.3,579.61,531.23,580.12,530.65,580.46Z"/><path class="cls-31" d="M523.53,596.44,520.77,598a2,2,0,0,1-1.76.08l-3-1.76c-.45-.26-.4-.72.12-1l2.77-1.59a1.94,1.94,0,0,1,1.75-.08l3,1.76C524.11,595.68,524.05,596.14,523.53,596.44Z"/><path class="cls-31" d="M529.63,592.91l-2.76,1.6a2,2,0,0,1-1.76.07l-3-1.75c-.45-.26-.4-.72.12-1l2.77-1.59a1.94,1.94,0,0,1,1.75-.08l3,1.76C530.21,592.16,530.15,592.61,529.63,592.91Z"/><path class="cls-31" d="M535.73,589.39,533,591a2,2,0,0,1-1.76.07l-3-1.76c-.45-.26-.4-.71.12-1l2.77-1.6a1.94,1.94,0,0,1,1.75-.07l3.05,1.76C536.31,588.64,536.25,589.09,535.73,589.39Z"/><path class="cls-31" d="M530,600.16l-2.76,1.59a2,2,0,0,1-1.76.08l-3.05-1.76c-.45-.26-.39-.71.13-1l2.77-1.6a1.94,1.94,0,0,1,1.75-.07l3.05,1.76C530.56,599.4,530.5,599.86,530,600.16Z"/><path class="cls-31" d="M536.08,596.64l-2.76,1.59a2,2,0,0,1-1.76.08l-3-1.76c-.45-.26-.39-.72.13-1l2.76-1.59a2,2,0,0,1,1.76-.07l3.05,1.75C536.66,595.88,536.6,596.34,536.08,596.64Z"/><path class="cls-31" d="M542.18,593.12l-2.77,1.59a1.94,1.94,0,0,1-1.75.07l-3-1.75c-.45-.26-.39-.72.13-1l2.76-1.59a2,2,0,0,1,1.76-.08l3,1.76C542.76,592.36,542.7,592.82,542.18,593.12Z"/><path class="cls-31" d="M536.21,603.76l-2.76,1.59a2,2,0,0,1-1.76.08l-3-1.76c-.45-.26-.4-.72.12-1l2.77-1.59a1.94,1.94,0,0,1,1.75-.07l3.05,1.75C536.79,603,536.73,603.46,536.21,603.76Z"/><path class="cls-31" d="M542.31,600.24l-2.76,1.59a2,2,0,0,1-1.76.07l-3-1.75c-.45-.26-.4-.72.12-1l2.77-1.59a1.94,1.94,0,0,1,1.75-.08l3.05,1.76C542.89,599.48,542.83,599.94,542.31,600.24Z"/><path class="cls-31" d="M548.41,596.71l-2.76,1.6a2,2,0,0,1-1.76.07l-3-1.76c-.45-.26-.4-.71.12-1l2.77-1.6a1.94,1.94,0,0,1,1.75-.07l3,1.76C549,596,548.93,596.41,548.41,596.71Z"/><path class="cls-32" d="M542.31,607.28l-2.76,1.6a2,2,0,0,1-1.76.07l-3-1.76c-.45-.26-.4-.71.12-1l2.77-1.6a1.94,1.94,0,0,1,1.75-.07l3.05,1.76C542.89,606.53,542.83,607,542.31,607.28Z"/><path class="cls-31" d="M548.41,603.76l-2.76,1.59a2,2,0,0,1-1.76.08l-3-1.76c-.45-.26-.4-.72.12-1l2.77-1.59a1.94,1.94,0,0,1,1.75-.07l3,1.75C549,603,548.93,603.46,548.41,603.76Z"/><path class="cls-33" d="M554.51,600.24l-2.76,1.59a2,2,0,0,1-1.76.07l-3-1.75c-.45-.26-.4-.72.12-1l2.77-1.59a1.94,1.94,0,0,1,1.75-.08l3,1.76C555.09,599.48,555,599.94,554.51,600.24Z"/><path class="cls-4" d="M514.38,574.82l-18.81,10.86a1.12,1.12,0,0,1-1,0l-.08,0c-.26-.15-.23-.42.08-.59l18.81-10.86a1.12,1.12,0,0,1,1,0l.07,0C514.72,574.38,514.68,574.65,514.38,574.82Z"/><path class="cls-6" d="M513.36,575l-17.24,9.95c2.71-9.62-2.5-17.32-9.22-20L503.67,556C509.66,558.19,514.66,565.64,513.36,575Z"/><line class="cls-34" x1="502.07" y1="559.83" x2="492.65" y2="564.79"/><line class="cls-34" x1="505.87" y1="560.98" x2="494.83" y2="566.79"/><line class="cls-34" x1="501.67" y1="566.52" x2="496.62" y2="569.18"/><line class="cls-34" x1="507.22" y1="567.11" x2="497.98" y2="571.97"/><line class="cls-34" x1="508.7" y1="569.83" x2="498.78" y2="575.05"/><line class="cls-34" x1="505.95" y1="574.97" x2="498.96" y2="578.65"/><text class="cls-35" transform="matrix(0.87, -0.5, 0.87, 0.5, 508.08, 594.06)"><tspan class="cls-36">***</tspan><tspan x="18.58" y="0">*</tspan></text></g><g id="likes"><path class="cls-37" d="M137.21,216.75l2.86-1.65c.17-.1.32,0,.32.18V217a.72.72,0,0,1-.32.55l-6.59,3.8c-.17.1-.3,0-.3-.19V221c0-.18,0-.22.21-.65,1.05-2.22,3.24-6.9,4.15-9a4.73,4.73,0,0,0,.42-1.65c0-.74-.53-1.07-1.44-.55a5.11,5.11,0,0,0-1.6,1.88c-.13.22-.33.34-.46.27l-1-.6c-.11,0-.13-.27,0-.48a9.6,9.6,0,0,1,3.3-3.75c2.35-1.36,3.74-.44,3.74,1.65a7.58,7.58,0,0,1-.64,2.81c-.51,1.36-1.86,4.13-2.62,5.82Z"/><path class="cls-37" d="M142.42,214.15l1-1.8c.11-.19.32-.31.43-.26a2.11,2.11,0,0,0,2-.24,3.36,3.36,0,0,0,1.57-2.7c0-1.16-.64-1.45-1.71-.83l-2.53,1.46c-.33.19-.51-.07-.51-.39v-5.85a.68.68,0,0,1,.3-.52l5.31-3.06c.18-.1.32,0,.32.16v1.67a.69.69,0,0,1-.32.53l-3.39,2v2l1.17-.67c2.27-1.31,3.75-.52,3.75,2a8.57,8.57,0,0,1-4.07,6.79c-1.71,1-2.85.66-3.25.32C142.24,214.6,142.22,214.48,142.42,214.15Z"/><ellipse class="cls-38" cx="83.49" cy="213.49" rx="20.18" ry="11.65" transform="translate(-142.95 177.82) rotate(-59.69)"/><ellipse class="cls-39" cx="95.78" cy="220.4" rx="20.18" ry="11.65" transform="translate(-142.83 191.86) rotate(-59.69)"/><path class="cls-40" d="M98.8,245h0l.08,0,0,0,2.45,1.4.49.29c2.57,1.35,6.07,1.07,9.92-1.15,7.9-4.56,14.31-15.61,14.31-24.68,0-4.5-1.58-7.67-4.15-9.16l-.18-.11-2.52-1.45c-2.6-1.54-6.22-1.34-10.23,1-7.9,4.57-14.31,15.62-14.31,24.69C94.69,240.39,96.26,243.54,98.8,245Z"/><path class="cls-41" d="M100.82,225a2,2,0,0,0-.13.25,27.91,27.91,0,0,0-3.23,12.26c0,9.06,6.41,12.72,14.31,8.15S126.08,230,126.08,221s-6.41-12.72-14.31-8.16a26.57,26.57,0,0,0-7.32,6.54"/><path class="cls-41" d="M102.15,222.63l-.07.12"/><path class="cls-37" d="M117.46,223.1a3,3,0,0,0-1.19.53l-1.87,1.23c0-.26.11-.47.15-.68.16-.81.36-1.65.46-2.44s-.39-1.5-1.09-1.3a1.08,1.08,0,0,0-.89,1.2,9.4,9.4,0,0,1-.24,1.6,6.47,6.47,0,0,1-.78,1.89c-.51.89-1,1.81-1.48,2.71a5.39,5.39,0,0,1-.64.79c-.18.21-.39.37-.55.59a1.07,1.07,0,0,0-.21.46,5.5,5.5,0,0,0,0,.8v4.64a2,2,0,0,0,0,.35c0,.06.1.12.15.09a9.3,9.3,0,0,1,1.63-.73l3-1.26a6.63,6.63,0,0,0,1.78-1.08,5,5,0,0,0,1.64-2.57,15.46,15.46,0,0,0,.3-1.85c.18-1.31.34-2.61.51-3.92C118.18,223.52,117.91,223,117.46,223.1Z"/><path class="cls-37" d="M108.3,229.54c0-.45-.17-.55-.56-.33l-1.77,1a1,1,0,0,0-.54.94v6.47c0,.42.17.52.55.31l1.75-1a1,1,0,0,0,.57-1v-6.42Zm-1.46,7.26c-.24.14-.45,0-.45-.26a1,1,0,0,1,.45-.78c.25-.14.46,0,.46.26A1,1,0,0,1,106.84,236.8Z"/></g><g id="shares"><path class="cls-42" d="M215.1,170.25v-1.63a1.52,1.52,0,0,1,.21-.81l5.31-10.63a.49.49,0,0,1,.23-.25l1.13-.65c.17-.1.31,0,.31.19v7.64l1.26-.72c.18-.11.31,0,.31.17v1.63a.71.71,0,0,1-.31.55l-1.26.72v2.29a.7.7,0,0,1-.29.54l-1.67,1c-.16.08-.29,0-.29-.2v-2.3l-4.64,2.68C215.23,170.54,215.1,170.45,215.1,170.25Zm2.47-3.33,2.48-1.44V161.9l0,0-2.45,5Z"/><path class="cls-42" d="M225.37,160.92c0-4.14,1.46-7.44,4-8.93s4.05.12,4.05,4.26-1.47,7.46-4.05,8.94S225.37,165.05,225.37,160.92Zm5.68-3.28c0-2.47-.67-3.53-1.64-3s-1.63,2.39-1.63,4.86.68,3.55,1.63,3S231.05,160.14,231.05,157.64Z"/><path class="cls-42" d="M235.18,155.26c0-4.14,1.46-7.44,4-8.93s4,.12,4,4.26-1.47,7.46-4,8.94S235.18,159.39,235.18,155.26Zm5.67-3.28c0-2.47-.67-3.53-1.64-3s-1.62,2.39-1.62,4.86.67,3.55,1.62,3S240.85,154.48,240.85,152Z"/><ellipse class="cls-43" cx="164.41" cy="166.23" rx="20.18" ry="11.65" transform="translate(-62.07 224.27) rotate(-59.69)"/><ellipse class="cls-44" cx="176.71" cy="173.14" rx="20.18" ry="11.65" transform="matrix(0.5, -0.86, 0.86, 0.5, -61.95, 238.31)"/><path class="cls-45" d="M179.73,197.78h0l.07,0,0,0,2.45,1.4.49.29c2.58,1.35,6.07,1.07,9.92-1.15,7.9-4.56,14.31-15.61,14.31-24.68,0-4.5-1.58-7.67-4.15-9.16l-.18-.11L200.15,163c-2.6-1.54-6.21-1.34-10.22,1-7.91,4.57-14.31,15.62-14.31,24.69C175.62,193.13,177.18,196.28,179.73,197.78Z"/><path class="cls-46" d="M181.74,177.73l-.13.25a27.9,27.9,0,0,0-3.23,12.25c0,9.07,6.41,12.73,14.31,8.16S207,182.78,207,173.71s-6.4-12.72-14.31-8.16a26.57,26.57,0,0,0-7.32,6.54"/><path class="cls-46" d="M183.07,175.37l-.07.12"/><path class="cls-42" d="M189.67,185.53c-1,2.07-2.58,2.55-3.25,2.13s-.78-2.06.07-3.52c.73-1.27,2.18-2.32,3.15-1.54l.23-.27,4.25-5.32a.81.81,0,0,0,.22-.53,4.4,4.4,0,0,1,1-2.63,2.64,2.64,0,0,1,2.1-1.31c.74,0,1.13.54,1.13,1.52a4.22,4.22,0,0,1-1.05,2.7,2.61,2.61,0,0,1-2.19,1.24,2.42,2.42,0,0,1-.58-.25l-.16.19-4.35,5.5c-.22.27-.23.64,0,.66l4.45.5s.05,0,.08,0A4.86,4.86,0,0,1,196,183c1.51-1.29,2.9-.52,2.55,1.41a4.85,4.85,0,0,1-1.69,2.86c-1.08.75-1.89.75-2.29-.05a4.61,4.61,0,0,1-.21-1c0-.09-.07-.2-.14-.21l-4.44-.47Z"/></g><g id="location_pin" data-name="location pin"><path class="cls-17" d="M121.55,611.62a25.47,25.47,0,0,1-11.88-3c-7-4-7-10.53-.08-14.53s18.19-4,25.17,0,7,10.53.07,14.53a22.3,22.3,0,0,1-7,2.49"/><path class="cls-47" d="M100.82,615.86c-.66-.33-1.31-.67-1.94-1-13-7.48-13-19.58-.14-27s33.83-7.4,46.8.09,13,19.58.14,27c-8.68,5-21,6.63-32.12,4.86"/><path class="cls-47" d="M108,618.56c-.94-.26-1.86-.55-2.76-.86"/><path class="cls-48" d="M142.59,555.71c0-5.09-1.77-8.67-4.65-10.37h0l-.1-.06h0l-8.13-4.71h0c-2.95-1.73-7-1.5-11.58,1.12-9,5.18-16.26,17.73-16.26,28,0,13.44,16.26,28.48,16.26,28.48h0l8.22,4.76h0S142.59,569.15,142.59,555.71Zm-14.13-1.35c0,6.55-4.63,14.54-10.34,17.84a6.56,6.56,0,0,1-2,.79,11.65,11.65,0,0,1-.16-1.92c0-6.56,4.63-14.55,10.34-17.84a11.58,11.58,0,0,1,2-.92A13.85,13.85,0,0,1,128.46,554.36Z"/><path class="cls-49" d="M112.54,563.2c-.13.32-.26.64-.38,1m-1.29,4.11a26.54,26.54,0,0,0-.78,6.21c0,13.44,16.25,28.48,16.25,28.48s16.25-33.81,16.25-47.25c0-10.3-7.27-14.45-16.25-9.27a33.42,33.42,0,0,0-11.56,12.22m18.92,10.52a21.18,21.18,0,0,1-7.36,7.78c-5.71,3.3-10.34.66-10.34-5.89s4.63-14.55,10.34-17.84a8.91,8.91,0,0,1,5.27-1.39c3,.31,5.07,2.94,5.07,7.28a17.38,17.38,0,0,1-.78,5"/></g><g id="colored_bubbles" data-name="colored bubbles"><circle class="cls-27" cx="7.13" cy="227.43" r="7.13"/><circle class="cls-27" cx="843.12" cy="53.69" r="7.13"/><circle class="cls-50" cx="614.37" cy="9.44" r="5.04"/><circle class="cls-50" cx="120.87" cy="165.74" r="4.2"/><circle class="cls-51" cx="739.51" cy="223.39" r="3.36"/><circle class="cls-51" cx="779.33" cy="122.51" r="3.78"/><circle class="cls-52" cx="472.5" cy="3.78" r="3.78"/><circle class="cls-52" cx="69.18" cy="405.04" r="3.78"/></g></g><path class="cls-53" d="M345.76,661.29v43.86c0,2.59-1.57,5.59-3.51,6.71l-10.95,6.33-5.5,10.5-5.49-4.16-11,6.33c-1.94,1.12-3.51-.07-3.51-2.66V684.34c0-2.59,1.57-5.59,3.51-6.71l32.9-19C344.19,657.51,345.76,658.7,345.76,661.29Z"/><g id="coins"><path class="cls-54" d="M724.07,519.41c.32.19.65.38,1,.56,7,3.63,18,3.34,24.76-.64,3.43-2,5.06-4.65,4.88-7.2l-.08-3.23c0-2.58-1.76-5.14-5.36-7-7-3.62-18-3.34-24.76.64-3.33,2-5,4.49-4.9,7h0l.1,3.67h0a6.38,6.38,0,0,0,1.7,4.05"/><path class="cls-54" d="M732.19,518.57a22.76,22.76,0,0,1-7.11-2.21c-7-3.62-7.17-9.78-.46-13.76s17.8-4.27,24.76-.65,7.17,9.79.46,13.77a24.93,24.93,0,0,1-10.57,3.08"/><path class="cls-54" d="M736,518.9h-.12"/><ellipse class="cls-55" cx="737.23" cy="509.16" rx="14.96" ry="8.32" transform="translate(-11.34 16.82) rotate(-1.3)"/><path class="cls-54" d="M739.57,512.35l-2.32-1.83a4.29,4.29,0,0,1-3.8-.75c-1.29-1-.86-2.15,1.3-3s4.22-.73,5.5.28c1.09.86,1,1.72,0,2.29l2.33,1.83c2.15-1,2.45-2.76.53-4.58l1.77-.71-1.59-1.25-1.82.73a10.61,10.61,0,0,0-9.2-.58c-3.1,1.24-3.78,3.14-2,5.07l-1.71.68,1.59,1.25,1.65-.66A9.1,9.1,0,0,0,739.57,512.35Z"/><path class="cls-54" d="M733.8,513.24l.7.39c7,3.62,18,3.33,24.75-.65,3.44-2,5.06-4.65,4.89-7.2l-.09-3.23c0-2.58-1.76-5.13-5.36-7-7-3.62-18-3.33-24.75.65-3.33,2-5,4.48-4.9,6.95h0l.1,3.67h0a6.36,6.36,0,0,0,1.7,4.05"/><path class="cls-54" d="M742.27,512.31a23.34,23.34,0,0,1-7.76-2.29c-7-3.63-7.17-9.79-.46-13.77s17.79-4.27,24.76-.64,7.17,9.79.46,13.77a24.73,24.73,0,0,1-10,3"/><path class="cls-54" d="M745.46,512.55h-.11"/><ellipse class="cls-55" cx="746.66" cy="502.81" rx="14.96" ry="8.32" transform="translate(-11.19 17.03) rotate(-1.3)"/><path class="cls-54" d="M749,506l-2.33-1.83a4.27,4.27,0,0,1-3.79-.74c-1.29-1-.86-2.15,1.3-3s4.21-.72,5.5.29c1.08.85,1,1.72,0,2.28l2.32,1.83c2.15-1,2.46-2.75.54-4.58l1.76-.71-1.59-1.25-1.81.73a10.65,10.65,0,0,0-9.2-.58c-3.11,1.24-3.78,3.14-2,5.08l-1.7.68,1.59,1.25,1.65-.66A9.13,9.13,0,0,0,749,506Z"/><path class="cls-54" d="M723.82,505.53l.66.36c7,3.63,18,3.34,24.76-.64,3.44-2,5.06-4.65,4.89-7.2l-.09-3.23c0-2.58-1.76-5.14-5.36-7-7-3.62-18-3.34-24.76.64-3.33,2-4.95,4.49-4.9,7h0l.1,3.67h0a6.38,6.38,0,0,0,1.7,4.05"/><path class="cls-54" d="M731.8,504.52a23.23,23.23,0,0,1-7.31-2.24c-7-3.62-7.16-9.78-.45-13.76s17.79-4.27,24.75-.65,7.17,9.79.46,13.77a24.46,24.46,0,0,1-9.68,3"/><path class="cls-54" d="M735.45,504.82h-.12"/><ellipse class="cls-55" cx="736.64" cy="495.08" rx="14.96" ry="8.32" transform="translate(-11.02 16.8) rotate(-1.3)"/><path class="cls-54" d="M739,498.27l-2.33-1.83a4.3,4.3,0,0,1-3.8-.75c-1.29-1-.85-2.15,1.3-3s4.22-.73,5.5.28c1.09.86,1,1.72,0,2.29l2.33,1.83c2.15-1,2.45-2.76.53-4.58l1.77-.71-1.59-1.25-1.81.73a10.63,10.63,0,0,0-9.21-.58c-3.1,1.24-3.78,3.14-2,5.07l-1.7.68,1.59,1.25,1.64-.66A9.12,9.12,0,0,0,739,498.27Z"/></g><path class="cls-53" d="M739.51,344.83v39c0,2.1-1.28,3.06-2.85,2.16l-11-6.33-5.27,4-5.28-10.09-11-6.33a6.85,6.85,0,0,1-2.85-5.45v-39c0-2.1,1.28-3.07,2.85-2.16l32.49,18.76A6.83,6.83,0,0,1,739.51,344.83Z"/><path class="cls-14" d="M748.82,339.15V378.2c0,2.1-1.28,3.06-2.86,2.15L735,374l-5.28,4-5.28-10.08-11-6.33a6.82,6.82,0,0,1-2.85-5.45v-39c0-2.1,1.27-3.06,2.85-2.15L746,333.7A6.83,6.83,0,0,1,748.82,339.15Z"/><path class="cls-13" d="M759.8,333.48v39c0,2.1-1.28,3.07-2.85,2.16l-11-6.33-5.27,4-5.28-10.09-11-6.33a6.85,6.85,0,0,1-2.85-5.45v-39c0-2.1,1.28-3.07,2.85-2.16L757,328A6.85,6.85,0,0,1,759.8,333.48Z"/><g id="open_box" data-name="open box"><path class="cls-9" d="M434,384.82v66.25a7.84,7.84,0,0,1-3.93,6.8c-58.86,34-55.11,32.29-58,32.32a8.12,8.12,0,0,1-4-1.05L346.76,476.9c-15.28-8.82-33.23-19.19-33.33-19.28a7.83,7.83,0,0,1-3.56-6.55l0-61.77.05-4.61.48-.27,25.41-14.65,12.26-7.08L372,348.93h0l23.34,13.71,12.28,7.08Z"/><path class="cls-56" d="M372,348.94v128H346.76c-15.28-8.82-33.23-19.19-33.33-19.28a7.69,7.69,0,0,1-3-3.68V384.42l25.41-14.65,12.26-7.08L372,348.93Z"/><path class="cls-3" d="M372,474.71l.06-49.17v-4.91l4.24-2.43,21.62-12.48,12.36-7.14,20.21-11.66c.63-.36,3.47-2.1,3.47-2.1v66.25a7.85,7.85,0,0,1-3.92,6.8l-19.76,11.4-12.36,7.14-22,12.73a8,8,0,0,1-3.89,1.05v-6.81"/><path class="cls-9" d="M372,482.3v7.89a7.7,7.7,0,0,1-3.66-.89l-22.55-13-12.21-7-20.12-11.62a7.8,7.8,0,0,1-3.49-5.52V384.69s2.71,1.64,3.54,2.11l20.07,11.59,12.21,7.06,22,12.73,4.24,2.45v4.91L372,476.9"/></g><g id="product_ui" data-name="product ui"><path class="cls-3" d="M438.23,154.63v50.25a8.31,8.31,0,0,1-3.76,6.5l-66.15,38.19L336,268.24c-2.08,1.2-3.77.24-3.77-2.15V113.88a8.32,8.32,0,0,1,3.77-6.5l98.49-56.86c2.08-1.2,3.76-.24,3.76,2.15v96.54"/><path class="cls-57" d="M392,92.2l-47.62,27.5c-.94.54-1.71,0-1.71-1.3h0a4.11,4.11,0,0,1,1.71-3.28L392,87.62c.95-.54,1.72,0,1.72,1.3h0A4.09,4.09,0,0,1,392,92.2Z"/><path class="cls-57" d="M369.74,114l-25.32,14.62c-.94.55-1.71,0-1.71-1.3h0a4.12,4.12,0,0,1,1.71-3.28l25.32-14.62c.95-.55,1.72,0,1.72,1.3h0A4.1,4.1,0,0,1,369.74,114Z"/><path class="cls-57" d="M405.79,207.18l-61.73,35.63c-.75.44-1.35,0-1.35-1h0a3.23,3.23,0,0,1,1.35-2.59l61.73-35.64c.75-.43,1.35,0,1.35,1h0A3.23,3.23,0,0,1,405.79,207.18Z"/><path class="cls-57" d="M373.57,234l-29.51,17c-.75.44-1.35,0-1.35-1h0a3.23,3.23,0,0,1,1.35-2.59l29.51-17c.75-.43,1.36,0,1.36,1h0A3.24,3.24,0,0,1,373.57,234Z"/><path class="cls-58" d="M382.78,139a17.37,17.37,0,0,0,8.51-5.31,23.45,23.45,0,0,0,6.36-12.3,4.54,4.54,0,0,1,1.39-2.14c3-2.06,5.62-3.24,8.13-2.09,4.68,2.15,9.77,3.54,14.69,5.26.4.14.78.35,1.21.55-.23.68-.41,1.28-.64,1.87-2.59,6.8-5.18,13.61-7.9,20.74l-7.31-.79c-.06,1.15-.15,2-.15,2.71,0,10.65,0,21.3,0,31.91a3.12,3.12,0,0,1-1.87,3.29q-18.6,10.65-37.2,21.48c-1.44.84-1.93.67-1.92-1.06.07-10.61,0-21.16,0-31.73v-3l-7.47,9.44L350,165.14c2.9-4.38,5.72-8.66,8.56-12.93,3.12-4.69,6.24-9.4,9.39-14.06,2.15-3.19,4.64-3.54,7-4.84.23-.13.56.5.64.94.44,2.63,1.8,4.16,3.65,4.71"/><path class="cls-7" d="M363,172.33l-4.37,5.52L350,165.14c2.9-4.38,5.72-8.66,8.56-12.93,3.12-4.69,6.24-9.4,9.39-14.06,2.15-3.19,4.64-3.54,7-4.84.23-.13.56.5.64.94.44,2.63,1.8,4.16,3.65,4.71"/><path class="cls-7" d="M387.44,137a21.59,21.59,0,0,0,3.85-3.26,23.45,23.45,0,0,0,6.36-12.3,4.54,4.54,0,0,1,1.39-2.14c3-2.06,5.62-3.24,8.13-2.09,4.68,2.15,9.77,3.54,14.69,5.26.4.14.78.35,1.21.55-.23.68-.41,1.28-.64,1.87-2.59,6.8-5.18,13.61-7.9,20.74l-7.31-.79c-.06,1.15-.15,2-.15,2.71,0,10.65,0,21.3,0,31.91a3.12,3.12,0,0,1-1.87,3.29q-18.6,10.65-37.2,21.48c-1.44.84-1.93.67-1.92-1.06.07-10.61,0-21.16,0-31.73v-3l-.92,1.16"/><path class="cls-7" d="M382.78,139l.71-.17"/><path class="cls-3" d="M390,156v-7.24l10.55-6.09v8.52c0,3.34-5.28,9.1-5.28,9.1h0a7.65,7.65,0,0,1-4.23-1"/></g><path class="cls-59" d="M421.67,44.74V197a8.28,8.28,0,0,1-3.77,6.5l-98.49,56.86c-2.08,1.2-3.76.24-3.76-2.14V106a8.27,8.27,0,0,1,3.76-6.49L417.9,42.59C420,41.39,421.67,42.35,421.67,44.74Z"/><path class="cls-60" d="M400.53,31.56V183.78a8.29,8.29,0,0,1-3.77,6.5l-98.49,56.86c-2.08,1.2-3.76.24-3.76-2.15V92.78a8.29,8.29,0,0,1,3.76-6.5l98.49-56.86C398.85,28.22,400.53,29.18,400.53,31.56Z"/><path class="cls-61" d="M438.23,180v24.9a8.31,8.31,0,0,1-3.76,6.5l-66.15,38.19V244.2l-4.63-2.46,4.63-7.81v-9.61a7.83,7.83,0,0,1,3.61-6.11Z"/><path class="cls-3" d="M426.32,197.38l41.85-24.13c2-1.15,3.61-.29,3.61,1.93v29.51a7.87,7.87,0,0,1-3.61,6.11l-86.39,49.8c-2,1.16-3.62.3-3.62-1.92v-9.62l-4.63-2.47,4.63-7.8v-9.62a7.86,7.86,0,0,1,3.62-6.11l33.42-19.27"/><line class="cls-3" x1="420.26" y1="200.87" x2="421.46" y2="200.18"/><path class="cls-57" d="M430.27,209.1l-41.88,24.11c-1.11.64-2,0-2-1.52h0a4.81,4.81,0,0,1,2-3.84l41.88-24.11c1.11-.64,2,0,2,1.52h0A4.81,4.81,0,0,1,430.27,209.1Z"/><path class="cls-57" d="M430.48,218.61l-43.33,24.94c-.43.25-.77,0-.77-.57h0a1.83,1.83,0,0,1,.77-1.46l43.33-25c.42-.24.76,0,.76.58h0A1.85,1.85,0,0,1,430.48,218.61Z"/><path class="cls-57" d="M416.81,232.37l-29.66,17.06c-.43.24-.77,0-.77-.58h0a1.83,1.83,0,0,1,.77-1.46l29.66-17.06c.42-.24.76,0,.76.58h0A1.85,1.85,0,0,1,416.81,232.37Z"/><path class="cls-62" d="M471.78,175.18v29.51a7.87,7.87,0,0,1-3.61,6.11l-29.1,16.8V190.05l29.1-16.8C470.16,172.1,471.78,173,471.78,175.18Z"/><path class="cls-3" d="M456.53,203.9l-3.49,2c-.76.44-1.28.3-1.49-.42-.74-2.54-1.46-5.08-2.2-7.63l-.42-1.46c-.14-.48-.38-.84-.82-.9a1.47,1.47,0,0,0-.82.15c-.48.22-1,.55-1.46.82s-.82,0-.65-.6a1.33,1.33,0,0,1,.59-.78c.56-.33,1.13-.7,1.69-1A1.65,1.65,0,0,1,450,195a11.31,11.31,0,0,1,.53,1.76c.07.31.23.33.54.15l11.44-6.61.35-.2c.51-.25.82,0,.68.68-.31,1.46-.64,2.93-1,4.39s-.67,3-1,4.47a3.25,3.25,0,0,1-1.56,2.23Z"/><path class="cls-3" d="M459.46,203.77c.81-.46,1.45-.1,1.45.83a3.21,3.21,0,0,1-1.45,2.51c-.79.46-1.46.09-1.46-.83A3.22,3.22,0,0,1,459.46,203.77Z"/><path class="cls-3" d="M455.09,208a3.23,3.23,0,0,1-1.45,2.52c-.8.46-1.45.09-1.45-.84a3.14,3.14,0,0,1,1.45-2.5C454.45,206.67,455.09,207,455.09,208Z"/><path class="cls-3" d="M476.62,163.7l-2.74-1.14h0c-1.34-.61-3.09-.43-5,.68a16.63,16.63,0,0,0-7.53,13c0,2.26.75,3.87,2,4.7h0l.06,0a3.48,3.48,0,0,0,1,.46l1.85.74L467.5,180l.15-.07a16.63,16.63,0,0,0,7.53-13v-.06l.29-.47Z"/><ellipse class="cls-3" cx="471.05" cy="172.74" rx="10.63" ry="6.13" transform="translate(84.19 492.22) rotate(-59.69)"/><path class="cls-4" d="M468.62,177.19l.58-1c.1-.15.2-.21.28-.16a1.23,1.23,0,0,0,1.39-.1,2.35,2.35,0,0,0,1.19-1.85c0-.83-.53-1-1.55-.43l-.63.36c-.12.07-.21,0-.21-.13v-.81a.43.43,0,0,1,.21-.39l.63-.36a2.48,2.48,0,0,0,1.4-2c0-.7-.53-.87-1.09-.54a3.08,3.08,0,0,0-1.14,1.27c-.08.14-.21.23-.31.18l-.54-.27c-.1,0-.08-.19,0-.34a5.73,5.73,0,0,1,2.11-2.35c1.31-.76,2.4-.48,2.4,1a4.24,4.24,0,0,1-1.16,2.66V172c.6-.09,1.35.17,1.35,1.31a5,5,0,0,1-2.58,4c-1.4.81-2.09.39-2.34.21C468.54,177.46,468.56,177.31,468.62,177.19Z"/><path class="cls-3" d="M433.94,384.82l-62-35.76L390.1,318.6a4.25,4.25,0,0,1,5.73-1.53l54,30.41a4.25,4.25,0,0,1,1.63,5.77Z"/><g id="delivery"><polygon class="cls-9" points="469.06 470.18 469.06 476.81 410.22 510.12 389.84 498.36 402.77 489.83 414.74 483.55 425.13 477.51 469.06 470.18"/><ellipse class="cls-3" cx="457.19" cy="483.14" rx="5.44" ry="3.14" transform="translate(-190.64 634) rotate(-59.69)"/><ellipse class="cls-3" cx="457.19" cy="483.14" rx="2.48" ry="1.43" transform="translate(-190.64 634) rotate(-59.69)"/><ellipse class="cls-3" cx="444.97" cy="490.6" rx="5.44" ry="3.14" transform="translate(-203.14 627.14) rotate(-59.69)"/><ellipse class="cls-3" cx="444.97" cy="490.6" rx="2.48" ry="1.43" transform="translate(-203.14 627.14) rotate(-59.69)"/><ellipse class="cls-3" cx="417.21" cy="506.15" rx="5.44" ry="3.14" transform="translate(-230.31 610.88) rotate(-59.69)"/><ellipse class="cls-3" cx="417.21" cy="506.15" rx="2.48" ry="1.43" transform="translate(-230.31 610.88) rotate(-59.69)"/><path class="cls-3" d="M405.26,466.87V460.5a6.24,6.24,0,0,1,2.61-5l38.72-22.35a1.73,1.73,0,0,1,1.54-.21l.13-.11,19.64,11.64a1.27,1.27,0,0,1,.46.27l0,0h0a2.55,2.55,0,0,1,.67,1.92v24.61l-43.93,25.37V479l-19.87-12.17"/><path class="cls-3" d="M436,462.33l-8.25,4.77a6.21,6.21,0,0,0-2.6,5v24.62l43.93-25.37V446.71c0-1.92-1.17-2.8-2.61-2l-22.38,12.92"/><path class="cls-62" d="M446.62,462.42l-7.28,11c-.43.65-.43,1.39,0,1.54l7.28,2.56c.41.15,1-.54,1-1.15v-3.69a.54.54,0,0,1,.25-.43l8.42-4.86a1.85,1.85,0,0,0,.85-1.45v-4.07c0-.53-.38-.75-.85-.48l-8.42,4.86c-.14.08-.25,0-.25-.14v-3.69C447.64,461.79,447,461.8,446.62,462.42Z"/><line class="cls-3" x1="440.48" y1="459.73" x2="439.37" y2="460.37"/><polygon class="cls-9" points="424.36 478.59 416.31 483.15 410.22 502.17 410.22 510.12 389.84 498.36 389.84 489.39 396.92 470.91 404.87 466.07 424.36 478.59"/><polygon class="cls-3" points="409.43 495.86 413.72 482.95 398.33 474.09 393.41 486.67 409.43 495.86"/><ellipse class="cls-3" cx="404.55" cy="502.29" rx="1.44" ry="2.5" transform="translate(-198.2 272.83) rotate(-30.31)"/><ellipse class="cls-3" cx="393.95" cy="496.65" rx="1.44" ry="2.5" transform="translate(-196.8 266.72) rotate(-30.31)"/><path class="cls-3" d="M420.87,493.56l-6.08,3.28,3.17-9a9.26,9.26,0,0,1,3.82-4.78l1.44-.9,0,10.2"/></g><g id="box"><path class="cls-3" d="M319,492.5a5.94,5.94,0,0,1-3,5.16c-44.67,25.8-41.83,24.51-44.06,24.54a6.11,6.11,0,0,1-3-.8c-.16-.09-41.26-23.8-41.39-23.92a5.92,5.92,0,0,1-2.7-5V445.63a5.94,5.94,0,0,1,3-5.16l16.7-9.66,9.31-5.38,14.28-8.26a7.38,7.38,0,0,1,7.33,0l14.28,8.23,9.32,5.38L316,440.55a6,6,0,0,1,2.89,4.07C319.06,445.47,319,442.35,319,492.5Z"/><path class="cls-3" d="M319,445.72V492.5a5.94,5.94,0,0,1-3,5.16l-15,8.66-9.39,5.42-16.73,9.66a6.1,6.1,0,0,1-2.95.8l.06-49.07h0a6.38,6.38,0,0,1,3.21-5.56l16.41-9.47,9.39-5.42,15.33-8.85a1.8,1.8,0,0,1,2.53.8A5.78,5.78,0,0,1,319,445.72Z"/><path class="cls-9" d="M264.81,465.24l4,2.3a6.45,6.45,0,0,1,3.22,5.58h0L272,522.2a5.83,5.83,0,0,1-2.78-.68l-17.1-9.88-9.27-5.35-15.27-8.81a5.9,5.9,0,0,1-2.65-4.19v-48a1.8,1.8,0,0,1,2.69-1.56l15.23,8.8,9.27,5.35,7.77,4.49"/><polyline class="cls-9" points="262.72 451.75 299.06 430.78 289.74 425.4 242.79 452.51 242.82 452.53 242.82 506.29 252.09 511.64 252.09 457.88 252.09 457.88 252.1 457.89 256.57 455.31"/><polygon class="cls-9" points="301.03 452.67 253.85 425.43 244.54 430.81 291.72 458.05 291.65 458.09 291.65 511.74 301.04 506.32 301.04 452.67 301.03 452.67"/><path class="cls-9" d="M261.35,438.6a20.4,20.4,0,0,0-9.36,6.15,51.82,51.82,0,0,1,5.94,4.13s5.24-6.15,10.83-6.75a18.5,18.5,0,0,0-6-3.53Z"/><path class="cls-9" d="M270.72,437.28s3.29-4,5.34-1.23,11.09,9.09,13.51,7.69c3.79-2.2-1.7,5-1.8,5.14s-7.39.62-7.55.52l-11.46-7.27s-13.23-7.47-13.08-7.47-6.77-8.83-6.83-9,.26-5.54.26-5.54,4.52-.57,4.67-.47,5.65,7.55,5.65,7.55Z"/><path class="cls-9" d="M295.32,436.92c-2.07-3.84-4.61-6.16-7.58-6.89-4.17-1-7.22.73-11.45,2.88a24.85,24.85,0,0,0-2.54,1.52c-1.84-3.15-3.58-6.07-5.33-8.87l-1-1.72a39.3,39.3,0,0,0-4.6-6.58,6,6,0,0,0-6.39-1.75l-.28.12-.13.06-.17.09-6.15,3.15,3.74.84c0,.15,0,.3,0,.46a8,8,0,0,0,0,1c0,.14,0,.28.05.42a3.7,3.7,0,0,1,.95.74,37.49,37.49,0,0,1,4.26,6.14l1.07,1.75,1.35,2.19c1.57,1.08,4.42,8.61,4.42,8.61a53.38,53.38,0,0,1,5.45,3.72c.77.61,1.6,1.12,2.4,1.68,4.83,3.45,8.65,5.15,11.55,5.15a5.67,5.67,0,0,0,2.91-.73l.07-.05,6.28-3.2C296.6,446.22,298.36,442.57,295.32,436.92Zm-8.87,11.59c-1.13.65-4.14,1-11.51-4.28-2.3-1.63-5.33-3.58-7-4.78,6.11-3.92,13.47-7.51,18.61,2,1.55,2.88,1.51,4.9.82,6.08A2.44,2.44,0,0,1,286.45,448.51Z"/><line class="cls-9" x1="273.55" y1="434.54" x2="267.34" y2="438.34"/><path class="cls-9" d="M257.74,422.23a16.81,16.81,0,0,0-1.31-1.72,6.61,6.61,0,0,0-2.85-1.81,5.5,5.5,0,0,0-3.54.06,4.89,4.89,0,0,0-3,4.73c0,.33,0,.65.05,1,1,10.5,14.21,14.57,20.15,17.66m-8.12-17.79c-.09-.13-.17-.27-.25-.4m10.1,16.2c-2.12-1.15-2.75-3.5-3.51-4.69-1-1.62-2.88-5.1-4.74-8.37m-10.9-2.88a5.12,5.12,0,0,1,0-.67,2.19,2.19,0,0,1,1.26-2.2,2.3,2.3,0,0,1,.86-.16,3.13,3.13,0,0,1,1.59.46,3.7,3.7,0,0,1,.95.74,37.49,37.49,0,0,1,4.26,6.14l1.07,1.75,1.35,2.19c1,1.68,2.06,3.41,3.12,5.21C257.89,434.88,250.47,431,249.79,424.2Z"/></g><path class="cls-3" d="M339.77,722.34l-.08,0-5.5,10.5-5.49-4.15-11,6.32c-1.93,1.12-3.51-.07-3.51-2.65V688.53a8.44,8.44,0,0,1,3.51-6.71l32.9-19c1.94-1.12,3.51.07,3.51,2.65v43.87c0,2.58-1.57,5.59-3.51,6.71L343.86,720"/><path class="cls-62" d="M344.83,698.09c-.22,1-.45,2-.67,3a4.76,4.76,0,0,1-2.29,3.28l-5.13,3-5.14,3c-1.11.64-1.88.44-2.19-.63-1.09-3.74-2.16-7.48-3.24-11.23-.2-.72-.41-1.43-.62-2.15s-.56-1.25-1.21-1.33a2.22,2.22,0,0,0-1.2.21c-.71.34-1.44.82-2.15,1.22s-1.22,0-1-.88a2,2,0,0,1,.86-1.15c.83-.49,1.67-1,2.5-1.42,1.88-.88,3.07-.25,3.73,1.31a17,17,0,0,1,.78,2.59c.11.46.35.49.8.23,5.61-3.26,11.23-6.49,16.84-9.74l.53-.29c.75-.37,1.2,0,1,1-.26,1.25-.53,2.49-.81,3.74m-.61,2.73-.12.53"/><path class="cls-62" d="M341.06,707.13c1.19-.69,2.14-.16,2.14,1.21a4.76,4.76,0,0,1-2.14,3.71c-1.17.67-2.15.12-2.15-1.23A4.71,4.71,0,0,1,341.06,707.13Z"/><path class="cls-62" d="M330.71,714.18a4.6,4.6,0,0,1,1.77-2.1c1.19-.69,2.14-.15,2.14,1.22a4.73,4.73,0,0,1-2.13,3.7,1.47,1.47,0,0,1-1.63.08"/><g id="tree"><ellipse class="cls-6" cx="793.92" cy="474.66" rx="6.54" ry="11.32" transform="translate(314.96 1265.99) rotate(-89.69)"/></g><rect class="cls-9" x="791.02" y="444.63" width="5.34" height="30.95" rx="0.94"/><path class="cls-10" d="M808.78,437.55a16.27,16.27,0,0,1-28,11.26,16.09,16.09,0,0,1-4.54-11.26,16.29,16.29,0,0,1,32.58,0Z"/><path class="cls-11" d="M807.81,432a20.7,20.7,0,0,1-27.07,16.77,16.09,16.09,0,0,1-4.54-11.26A16.28,16.28,0,0,1,807.81,432Z"/><path class="cls-12" d="M808.78,437.55a16.27,16.27,0,0,1-28,11.26,16.09,16.09,0,0,1-4.54-11.26,16.29,16.29,0,0,1,32.58,0Z"/><ellipse class="cls-5" cx="782.07" cy="433.93" rx="4.44" ry="2.67" transform="translate(93.95 1005.25) rotate(-68.73)"/><g id="email"><polygon class="cls-63" points="663.34 540.14 659.5 537.92 659.5 471.1 663.34 473.32 663.34 540.14"/><polygon class="cls-63" points="663.34 540.14 667.18 537.92 667.18 471.1 663.34 473.32 663.34 540.14"/><path class="cls-3" d="M649.79,443.83l-15.28,9,9.59,26.33L651,491.66l40.79-24.11V448.26c0-7.32-4.45-15.82-9.94-19h0c-2.43-1.41-4.65-1.52-6.38-.59h0l-17.07,10.08"/><line class="cls-3" x1="654.55" y1="441.02" x2="654.41" y2="441.1"/><path class="cls-9" d="M651,491.66l-19.87-11.47v-19.3c0-7.32,4.45-10.68,9.93-7.51h0c5.49,3.17,9.94,11.67,9.94,19Z"/><path class="cls-9" d="M642.59,495.83l-1.83,1.07c-6.32,3.65-15.89,4.05-21.37.88h0c-5.48-3.16-4.79-8.68,1.54-12.33L631,479.58,650.85,491l-2.78,1.62"/><line class="cls-9" x1="645.3" y1="494.26" x2="644.85" y2="494.52"/><g class="cls-64"><path class="cls-7" d="M631.09,460.89c0-7.32,4.45-10.68,9.93-7.51h0c5.49,3.17,9.94,11.67,9.94,19v19.29"/></g></g><path class="cls-28" d="M681.23,422.88l-9,5.19h0c0,4,2.81,5.59,6.29,3.58l2.69-1.55v31.95l3.13-1.8V421.08Z"/><path class="cls-3" d="M628.31,490.43l23.56-13.6a5,5,0,0,0,2.1-4v-16.6c0-1.55-.94-2.26-2.1-1.59l-23.56,13.6a5,5,0,0,0-2.1,4v16.6C626.21,490.39,627.15,491.1,628.31,490.43Z"/><polyline class="cls-7" points="629.57 470.79 640.09 474.5 651.49 457.3"/><line class="cls-63" x1="651.73" y1="474.07" x2="645.51" y2="470.53"/><line class="cls-63" x1="628.65" y1="486.96" x2="634.9" y2="476.18"/><line class="cls-3" x1="608.2" y1="477.81" x2="620.82" y2="470.53"/><line class="cls-3" x1="613.52" y1="479.31" x2="620.82" y2="475.1"/><line class="cls-3" x1="618.26" y1="481.15" x2="620.82" y2="479.67"/><g id="pink_box" data-name="pink box"><path class="cls-65" d="M409.36,355.64a4.72,4.72,0,0,1-2.37,4.11c-35.62,20.57-33.35,19.54-35.13,19.56a5,5,0,0,1-2.42-.63c-.12-.08-32.89-19-33-19.08a4.68,4.68,0,0,1-2.15-4V318.27a4.75,4.75,0,0,1,2.37-4.12l13.32-7.7,7.42-4.29,11.39-6.58a5.86,5.86,0,0,1,5.84,0L386,302.14l7.44,4.28,13.52,7.8a4.77,4.77,0,0,1,2.3,3.24C409.4,318.14,409.36,315.65,409.36,355.64Z"/><path class="cls-66" d="M409.36,318.34v37.3a4.72,4.72,0,0,1-2.37,4.11l-12,6.91L387.55,371l-13.34,7.71a4.81,4.81,0,0,1-2.35.63l0-39.12h0a5.1,5.1,0,0,1,2.57-4.43l13.08-7.55,7.48-4.32,12.23-7.05a1.43,1.43,0,0,1,2,.63A5.14,5.14,0,0,1,409.36,318.34Z"/><path class="cls-66" d="M340.15,318.88l8.46,4.89L356,328l13.33,7.7a5.12,5.12,0,0,1,2.56,4.44h0l0,39.12a4.63,4.63,0,0,1-2.21-.54L356,370.9l-7.4-4.27-12.17-7a4.68,4.68,0,0,1-2.11-3.34V318a1.43,1.43,0,0,1,2.14-1.24"/><polyline class="cls-3" points="364.03 323.41 393.46 306.42 386.02 302.14 348.59 323.75 348.62 323.77 348.62 366.63 356 370.9 356 328.04 356 328.04 356.01 328.04 357.87 326.97"/><line class="cls-3" x1="360.3" y1="325.56" x2="360.79" y2="325.28"/><polygon class="cls-3" points="395.03 323.88 357.41 302.16 349.99 306.45 387.61 328.17 387.55 328.2 387.55 370.98 395.03 366.65 395.03 323.88 395.03 323.88"/><line class="cls-9" x1="373.12" y1="309.42" x2="368.16" y2="312.45"/></g><path class="cls-3" d="M363.39,312.66a16.24,16.24,0,0,0-7.46,4.91,40.39,40.39,0,0,1,4.73,3.28s4.18-4.9,8.64-5.37a14.76,14.76,0,0,0-4.76-2.82Z"/><path class="cls-3" d="M370.87,311.61s2.62-3.19,4.25-1,8.84,7.24,10.77,6.13c3-1.75-1.35,4-1.43,4.09s-5.9.5-6,.42l-9.14-5.79s-10.55-6-10.43-6-5.4-7-5.44-7.16.2-4.42.2-4.42,3.61-.45,3.73-.37,4.5,6,4.5,6Z"/><path class="cls-3" d="M361.7,305.34l.41.67c.36.58.72,1.16,1.07,1.74,1.25.87,4.4,7.36,4.4,7.36,1.14.86,2.33,1.68,3.47,2.48l1.92,1.34c3.85,2.75,6.89,4.11,9.21,4.11a4.55,4.55,0,0,0,2.32-.59l.05,0,5-2.56c1.94-1.12,3.34-4,.91-8.54-1.64-3.06-3.67-4.91-6-5.49-3.33-.83-5.75.58-9.13,2.29a20.62,20.62,0,0,0-2,1.22c-1.47-2.52-2.86-4.84-4.25-7.08-.28-.45-.56-.91-.83-1.37a32.18,32.18,0,0,0-3.67-5.25,4.75,4.75,0,0,0-5.1-1.39l-.22.1-.1,0-.14.07-4.9,2.51,3,.66c0,.13,0,.25,0,.37a6.87,6.87,0,0,0,0,.79c0,.11,0,.22,0,.33a3.05,3.05,0,0,1,.76.59c.37.41.73.85,1.07,1.3m23.23,11.89a13.32,13.32,0,0,1,1.32,2c1.24,2.29,1.21,3.9.66,4.85a1.94,1.94,0,0,1-.74.76c-.9.52-3.3.77-9.17-3.41-1.83-1.3-4.25-2.86-5.58-3.81,3-1.94,6.42-3.77,9.54-3.08m2.42,1.13.18.14"/><path class="cls-3" d="M369.44,313.89c-1.68-.92-2.19-2.79-2.8-3.74-1.51-2.38-5.22-9.77-7.17-11.91a5.15,5.15,0,0,0-2.28-1.44,4.2,4.2,0,0,0-2.82.05,3.89,3.89,0,0,0-2.41,3.77q0,.39,0,.78c.84,8.37,11.34,11.61,16.08,14.07m-6.81-10.86c.28.47.56.94.85,1.4s.72,1.16,1.07,1.74c.82,1.34,1.64,2.72,2.49,4.16-5-2.22-11-5.29-11.5-10.73a4.87,4.87,0,0,1,0-.54,1.74,1.74,0,0,1,1-1.75,2,2,0,0,1,.68-.12,2.47,2.47,0,0,1,1.27.36,3.05,3.05,0,0,1,.76.59c.42.47.82,1,1.2,1.49"/><line class="cls-7" x1="357.24" y1="376.77" x2="357.24" y2="395.39"/><line class="cls-7" x1="406.98" y1="363.73" x2="406.98" y2="378.73"/><line class="cls-7" x1="395.03" y1="372.09" x2="395.03" y2="379.32"/><line class="cls-7" x1="344.75" y1="369.23" x2="344.75" y2="373.09"/><line class="cls-7" x1="343.48" y1="279.18" x2="353.13" y2="288.83"/><line class="cls-7" x1="389.9" y1="278.14" x2="380.25" y2="287.78"/><line class="cls-7" x1="366.76" y1="285.05" x2="366.76" y2="269.05"/><g id="bag"><path class="cls-3" d="M322,471c-.35.2-.63,0-.63-.36v-7.23a3.78,3.78,0,0,0-1.6-3.5,3.84,3.84,0,0,0-3.85.39,12,12,0,0,0-5.45,9.4v7.23a1.4,1.4,0,0,1-.64,1.1c-.35.2-.63,0-.63-.36v-7.23a14.82,14.82,0,0,1,6.72-11.6c1.79-1,3.48-1.2,4.75-.48s2,2.26,2,4.32v7.23A1.4,1.4,0,0,1,322,471Z"/><polygon class="cls-3" points="302.41 474.73 297.74 516 335.42 495.36 329.04 460.56 302.41 474.73"/><polyline class="cls-3" points="312.57 480.87 312.69 479.87 309.15 476.44 302.41 474.73 297.74 516 304.09 517.08 308.02 521.14 311.8 487.72"/><polygon class="cls-3" points="339.32 465.7 333.47 463.65 329.04 460.56 331.54 471.58 345.7 500.5 339.32 465.7"/><polyline class="cls-3" points="312.05 485.53 308.02 521.14 345.7 500.5 339.32 465.7 312.69 479.87 312.51 481.46"/><ellipse class="cls-3" cx="319.53" cy="486.96" rx="2.33" ry="1.34" transform="translate(-262.13 517.04) rotate(-59.69)"/><ellipse class="cls-3" cx="333.42" cy="478.94" rx="2.33" ry="1.34" transform="translate(-248.32 525.06) rotate(-59.69)"/><path class="cls-3" d="M333.35,479.64c-.4.23-.72.05-.72-.41V471c0-1.89-.64-3.3-1.81-4s-2.72-.51-4.37.45a13.62,13.62,0,0,0-6.18,10.66v8.2a1.6,1.6,0,0,1-.72,1.24c-.4.23-.72.05-.72-.41V479a16.81,16.81,0,0,1,7.62-13.14c2-1.18,3.95-1.37,5.39-.55s2.23,2.56,2.23,4.89v8.2A1.57,1.57,0,0,1,333.35,479.64Z"/></g><path class="cls-60" d="M368.49,524a9.25,9.25,0,0,0,6.6.68l6.54,3.78L371.9,534h-2.4v1.38l-26.35,15.21-6.5-3.75c1.12-1.27.75-2.86-1.09-3.92a9.28,9.28,0,0,0-6.78-.63l-6.5-3.75,26.29-15.19h2.49V522l9.69-5.59,6.55,3.78C366.3,521.39,366.7,522.92,368.49,524Z"/><g id="coupons"><path class="cls-3" d="M347.94,530.16l-4.78,2.76-6.5-3.76c1.12-1.26.75-2.85-1.09-3.91a9.23,9.23,0,0,0-6.78-.63l-6.5-3.76,26.29-15.18h2.49v-1.44l9.69-5.6,6.55,3.78c-1,1.25-.61,2.78,1.18,3.81a9.2,9.2,0,0,0,6.6.69l6.54,3.78-9.73,5.62h-2.4v1.38L358,524.33"/><line class="cls-3" x1="354.18" y1="526.56" x2="353.37" y2="527.02"/><path class="cls-4" d="M337.45,517.6a6.1,6.1,0,0,1,5.52,0c1.62.94,1.56,2.34.07,3.2a6.05,6.05,0,0,1-5.51-.06C336,519.88,336,518.45,337.45,517.6Zm10.16,7L344,514.07l2.08-1.2,3.63,10.55Zm-6.24-4.75c.56-.33.51-.82-.15-1.2a2.17,2.17,0,0,0-2.05-.07c-.56.33-.54.82.1,1.19A2.22,2.22,0,0,0,341.37,519.86Zm9.21-3.18a6.1,6.1,0,0,1,5.52.05c1.62.93,1.56,2.33.06,3.2a6,6,0,0,1-5.5-.06C349.09,519,349.1,517.54,350.58,516.68Zm3.91,2.26c.56-.32.51-.82-.15-1.2a2.12,2.12,0,0,0-2-.06c-.57.32-.55.82.1,1.19A2.17,2.17,0,0,0,354.49,518.94Z"/><line class="cls-7" x1="351.51" y1="505.95" x2="353.24" y2="506.95"/><line class="cls-67" x1="356.1" y1="508.6" x2="366.11" y2="514.38"/><line class="cls-7" x1="367.54" y1="515.2" x2="369.27" y2="516.2"/></g><path class="cls-59" d="M368.49,515.43a9.25,9.25,0,0,0,6.6.68l6.54,3.78-9.73,5.62h-2.4v1.38L343.16,542.1l-6.5-3.75c1.12-1.27.75-2.86-1.09-3.92a9.28,9.28,0,0,0-6.78-.63l-6.5-3.75,26.29-15.18h2.49v-1.44l9.69-5.59,6.55,3.78C366.3,512.86,366.7,514.4,368.49,515.43Z"/><g id="bag-2" data-name="bag"><polygon class="cls-9" points="526.52 300.31 468.19 265.65 473.72 349.36 532.75 383.33 526.52 300.31"/><polygon class="cls-9" points="468.19 265.65 465.78 279.48 447.64 276.99 442.11 371.07 473.72 349.36 468.19 265.65"/><polygon class="cls-3" points="532.75 383.32 508.05 386.32 501.14 405.04 506.15 311.46 508.05 302.8 526.53 300.31 532.75 383.32"/><polygon class="cls-9" points="508.05 302.8 508.05 386.32 501.14 405.04 506.15 311.46 508.05 302.8"/><polygon class="cls-3" points="506.67 310.95 447.64 276.99 442.11 371.07 501.13 405.04 506.67 310.95"/><ellipse class="cls-3" cx="462.31" cy="305.5" rx="2.35" ry="4.08" transform="translate(-90.99 275.08) rotate(-30.31)"/><ellipse class="cls-3" cx="486.46" cy="319.45" rx="2.35" ry="4.08" transform="translate(-94.72 289.18) rotate(-30.31)"/><path class="cls-3" d="M478.37,334.9a7.73,7.73,0,0,1-4.36-1.16c-6.88-4-12.45-16.81-12.45-28.67"/><path class="cls-3" d="M481.7,333.6a7.13,7.13,0,0,1-.81.54"/><path class="cls-3" d="M486.46,319.45a26.7,26.7,0,0,1-1.46,9.27"/></g><g id="bag-3" data-name="bag"><polygon class="cls-9" points="495.92 352.88 450.98 326.18 450.98 377.86 500.72 405.52 495.92 352.88"/><polygon class="cls-9" points="450.98 326.18 449.13 336.83 433.94 335.07 429.68 396.24 450.98 375.19 450.98 326.18"/><polygon class="cls-3" points="500.72 405.52 481.69 407.83 475.16 422.4 479.02 361.63 481.69 354.8 495.93 352.87 500.72 405.52"/><polygon class="cls-9" points="481.69 354.8 481.69 407.83 475.16 422.4 479.02 361.63 481.69 354.8"/><polyline class="cls-3" points="467.28 354.25 433.94 335.07 429.68 396.24 475.15 422.4 479.42 361.23 475.23 358.82"/><line class="cls-3" x1="472.8" y1="357.43" x2="472.27" y2="357.12"/><ellipse class="cls-3" cx="444.28" cy="358.49" rx="1.81" ry="3.14" transform="translate(-120.19 273.23) rotate(-30.31)"/><path class="cls-3" d="M461.12,366.65a1.47,1.47,0,0,1,1.77,0,4.91,4.91,0,0,1,2.23,3.84c0,1.42-1,2-2.23,1.27a4.45,4.45,0,0,1-1.56-1.63"/><path class="cls-7" d="M454.58,380.83a7.65,7.65,0,0,1-1.28-.59c-5.3-3.06-9.59-12.95-9.59-22.09"/><path class="cls-7" d="M461.16,377.7a6.42,6.42,0,0,1-3.07,3.09"/><path class="cls-7" d="M462.89,369.23a23.8,23.8,0,0,1-.4,4.49"/></g><path class="cls-3" d="M295.88,382.85l-22-2.73a1.34,1.34,0,0,0-.82,2.49l61.49,34.61a6,6,0,0,0,2.52.75l34.46,2.38L309.94,384.6l-8.19-1"/><g id="tag"><path class="cls-68" d="M406.26,409.55,404.19,406a3.69,3.69,0,0,0-2.36-1.16l-17.69-2.64a3.12,3.12,0,0,0-2.61,1l-7,8.79c-.55.69-.28,1.37.61,1.5l17.68,2.64a8.8,8.8,0,0,0,3.51-.29l6.71-2.26C405.37,412.7,406.83,410.87,406.26,409.55Zm-5.08,2.78c-.81-.12-1.05-.72-.55-1.36A2.81,2.81,0,0,1,403,410c.8.12,1,.73.54,1.36A2.78,2.78,0,0,1,401.18,412.33Z"/><path class="cls-4" d="M403,414.9l.09-.27.39-.21c1.87-1,2.51-1.66,2.64-2.59,0-.17-.07-.27-.22-.34a4.82,4.82,0,0,1-1.14,1.17,5.13,5.13,0,0,1-1.44,1.06.69.69,0,0,0-.6-.79c-.57-.13-.87-.35-1-.6a.51.51,0,0,1,.06-.5.59.59,0,0,1,.25-.23l.11,0,.1,0a4.1,4.1,0,0,0,.89.1h0a1.82,1.82,0,0,0,.34-.34,1.25,1.25,0,0,0,.23-.42h-.16a4,4,0,0,1-.69-.08h-.06a1.63,1.63,0,0,0-.49-.05,2.12,2.12,0,0,0-1.56.93,1.08,1.08,0,0,0-.17.36c-.18.61.18,1.25,1.41,1.54.2,0,.19.3.09.66a1.09,1.09,0,0,1-.26.08s-.88.2-.89.34l0,.05c0,.14.08.31.37.36h0a1.3,1.3,0,0,0,.54,0c-.64,1.81-1.51,4.7,4.48,5.66L407,420C401.51,419.16,402.38,416.7,403,414.9Z"/></g><g id="confetti"><path class="cls-3" d="M284.8,291.63c3.27,8.93,4.78,14.08,11.57,16.09s10.69,1.89,13.95,10.06l5.91-2.39a17.89,17.89,0,0,0-8.29-8.3c-6-2.89-10.19-1.63-12.95-7.41a50.41,50.41,0,0,1-3.78-11.36Z"/><path class="cls-3" d="M272.73,356.1l4.87,3.57c.07-.07,3.59-4.94,8.09-3.71,4.84,1.32,7.41,2,10.63,1s3.43-1.67,3.43-1.67l-4.53-2.1a3.46,3.46,0,0,1-3.77,1.44c-2.33-.75-6.77-3.14-10.16-3C277.18,351.75,272.73,356.1,272.73,356.1Z"/><path class="cls-3" d="M233.89,392.38l-4.26,7.13c.11.09,7.23,4.29,6.13,10.62-1.18,6.8-1.78,10.4.05,14.69s2.74,4.48,2.74,4.48l2.29-6.47s-3.2-1.69-2.46-5,3.43-9.68,2.8-14.31C240.42,397.92,233.89,392.38,233.89,392.38Z"/><path class="cls-3" d="M437.16,302.5l4.28-3.27s2.53,2.8,6.18,0,7.82-5.39,13.68-2.7a65.59,65.59,0,0,1,9.19,5L465,306.41s-4.49-5.76-9.3-6.44a9.49,9.49,0,0,0-7.76,2c-.85.48-6,3.07-8.4,1.8Z"/><path class="cls-3" d="M450.38,417.58l-3.93,1.78s-1.47-2.64-4.82-1.11-7.07,2.79-11.16-.36a51,51,0,0,1-6.26-5.58l5.16-2.8s2.46,5.3,6.09,6.71a7.62,7.62,0,0,0,6.42-.17c.74-.22,5.24-1.3,6.87.11Z"/><path class="cls-3" d="M334.26,372.11l-3.93,1.78s-1.47-2.64-4.82-1.11-7.07,2.79-11.16-.36a52,52,0,0,1-6.26-5.58l5.16-2.8s2.47,5.3,6.09,6.71a7.61,7.61,0,0,0,6.42-.17c.74-.22,5.25-1.3,6.87.11Z"/></g><g id="shoes"><path class="cls-68" d="M568.46,419.78a4.6,4.6,0,0,1-2.3,4c-34.48,19.91-58.44,33.86-60.17,33.88a4.75,4.75,0,0,1-2.33-.61c-.13-.07-31.84-18.37-32-18.47a4.56,4.56,0,0,1-2.09-3.83v-27.3a4.61,4.61,0,0,1,2.3-4c27.95-16.15,30.76-17.6,57.26-32.92a5.65,5.65,0,0,1,5.65,0l31.31,18a4,4,0,0,1,2.22,3.14C568.53,401.28,568.47,383.73,568.46,419.78Z"/><path class="cls-68" d="M568.46,419.78a4.6,4.6,0,0,1-2.3,4c-34.59,20-58.48,33.87-60.17,33.88l.05-29h0a4.92,4.92,0,0,1,2.48-4.29c30.82-17.79,35.13-20.13,57.9-33.27a1.38,1.38,0,0,1,2,.62C568.5,392.35,568.43,392.19,568.46,419.78Z"/><path class="cls-68" d="M503.69,424.42a5,5,0,0,1,2.35,4.22h0l-.05,29a4.51,4.51,0,0,1-2.14-.52l-13.2-7.62-7.16-4.13-11.78-6.81a4.5,4.5,0,0,1-2-3.23V407.16a1.38,1.38,0,0,1,2.07-1.2l11.75,6.79,7.16,4.13,10,5.76"/><polygon class="cls-3" points="545.7 376.77 483.49 412.75 483.49 445.37 490.65 449.5 490.65 416.88 552.89 380.92 545.7 376.77"/><polygon class="cls-3" points="505.67 384.05 498.45 388.18 534.86 409.2 534.86 441.73 542.1 437.55 542.1 405.05 505.67 384.05"/><line class="cls-7" x1="550.15" y1="410.21" x2="568.46" y2="399.66"/><line class="cls-7" x1="542.1" y1="414.84" x2="546.35" y2="412.4"/><polyline class="cls-7" points="469.67 414.87 506.04 435.62 534.86 419.01"/></g><path class="cls-49" d="M528.63,355.42c2.2,4.69,5.44,14,1.49,17.32a45.67,45.67,0,0,0-12.6,19C515.37,398.48,510,402,502,402s-15,0-15.82-2.15-2.41-5.9,4.83-11.79a131.54,131.54,0,0,0,20.1-20.38c5.25-6.61,11.21-15.74,14.9-15.2C527.4,352.66,528,354.12,528.63,355.42Z"/><path class="cls-48" d="M513.28,387c3.32-2.92,11.17-19.24,13.21-22,2.21-3.08,2.54-14.19-2.75-11.3-4.6,2.51-12.82,16.83-25.13,28.81C489.4,391.54,507.37,392.22,513.28,387Z"/><path class="cls-3" d="M530,371.27a87.91,87.91,0,0,0-2,20.11c0,1.3,0,1.35,0,1.35l-1.13.06s-.53-13.79-.88-17.66,4-7,4-7Z"/><path class="cls-3" d="M501.12,390.25c3.77.27,9.43-.82,12.16-3.22,3.2-2.82,10.45-17.81,13-21.64C523.47,356.82,516.52,379.47,501.12,390.25Z"/><path class="cls-3" d="M540.42,397.58c0,1.32,0,1.37,0,1.37l-1.15.06s-.53-14-.89-18,4.11-7.15,4.11-7.15C542.47,381.2,540.42,382.47,540.42,397.58Z"/><path class="cls-49" d="M541.31,361.49a38.1,38.1,0,0,1,3,9.4c.41,2.7.39,6-1.69,7.73C526,392.75,533.53,408.34,514,408.34c-8.18,0-15.27,0-16.09-2.18s-2.45-6,4.91-12a134.28,134.28,0,0,0,20.46-20.72c5.22-6.6,11.26-15.83,15-15.48C540,358.12,540.61,360,541.31,361.49Z"/><path class="cls-48" d="M513.09,396.43c3.83.27,9.59-.84,12.37-3.28,3.38-3,11.36-19.57,13.44-22.34,1.41-2,1.69-5.35,1.45-7.77-.21-2-.72-4.06-2.71-4.22a2.68,2.68,0,0,0-1.65.5c-5.23,3.34-19,25-24.95,29.3C506.1,392.15,507.5,396,513.09,396.43Z"/><path class="cls-3" d="M531.48,384c2.86-5.1,5.77-10.75,7.2-12.91-2.85-8.71-9.93,14.33-25.59,25.3,3.83.27,9.59-.84,12.37-3.28,1.45-1.28,3.72-5,6-9.11"/><path class="cls-2" d="M239.84,204.3v27.89a8.89,8.89,0,0,1-4,7L102.26,316.82c-2.23,1.29-4,.26-4-2.3V286.63a8.88,8.88,0,0,1,4-7L235.8,202C238,200.71,239.84,201.74,239.84,204.3Z"/><g id="fb"><path class="cls-5" d="M251.46,238.93a8.94,8.94,0,0,1-4,6.71L113.89,323.31c-2.23,1.29-4,.26-4-2.3V293.12a8.89,8.89,0,0,1,4-7l133.54-77.67c2.23-1.29,4-.26,4,2.3v23.78"/><path class="cls-7" d="M251.46,239a9,9,0,0,1-3.81,6.52"/><path class="cls-7" d="M156.28,261.5l91.15-53c2.23-1.29,4-.26,4,2.3V234"/><path class="cls-69" d="M142,269.94v37.15l-28.1,16.22c-2.23,1.29-4,.26-4-2.3V293.12a8.89,8.89,0,0,1,4-7Z"/><path class="cls-7" d="M245.35,246.85,113.89,323.31c-2.23,1.29-4,.26-4-2.3V293.12a8.89,8.89,0,0,1,4-7l37.28-21.68"/><path class="cls-57" d="M237.51,229.58,152.3,279.35c-1.4.81-2.53-.05-2.53-1.92h0a6.07,6.07,0,0,1,2.53-4.84l85.21-49.76c1.4-.81,2.53,0,2.53,1.91h0A6,6,0,0,1,237.51,229.58Z"/><path class="cls-57" d="M204.62,261.75,152.3,292.52c-1.4.81-2.53,0-2.53-1.91h0a6,6,0,0,1,2.53-4.84L204.62,255c1.4-.81,2.53,0,2.53,1.92h0A6.07,6.07,0,0,1,204.62,261.75Z"/><path class="cls-5" d="M129.76,290.26l-1.43.83a4.91,4.91,0,0,0-.58.39,1.33,1.33,0,0,0-.57,1.07c0,.72,0,1.42,0,2.16l2.39-1.38c0,.4-.07.77-.1,1.13-.06.63-.12,1.26-.17,1.88a.32.32,0,0,1-.19.31l-1.74,1-.22.13v9l-3.56,2.06v-9l-1,.59c-.37.21-.37.21-.37-.21v-2.62l1.38-.8v-.26c0-.83,0-1.65,0-2.51a6,6,0,0,1,.64-2.41,5.9,5.9,0,0,1,1.67-2.05,12.65,12.65,0,0,1,1.23-.83c.81-.49,1.61-.94,2.42-1.41l.16-.08Z"/></g><path class="cls-2" d="M239.84,270.56v27.9a8.88,8.88,0,0,1-4,7L102.26,383.08c-2.23,1.29-4,.26-4-2.29v-27.9a8.9,8.9,0,0,1,4-7L235.8,268.27C238,267,239.84,268,239.84,270.56Z"/><path class="cls-8" d="M226.92,262.91v27.9a8.88,8.88,0,0,1-4,6.95L89.34,375.43c-2.22,1.29-4,.26-4-2.29v-27.9a8.91,8.91,0,0,1,4-7l133.54-77.67C225.11,259.33,226.92,260.35,226.92,262.91Z"/><path class="cls-70" d="M142,336.2v37.15l-28.1,16.22c-2.23,1.29-4,.26-4-2.29v-27.9a8.91,8.91,0,0,1,4-7Z"/><path class="cls-7" d="M159.6,325.84l87.83-51.08c2.23-1.29,4-.26,4,2.29V305a8.88,8.88,0,0,1-4,6.95L113.89,389.57c-2.23,1.29-4,.26-4-2.29v-27.9a8.91,8.91,0,0,1,4-7l32.94-19.15"/><line class="cls-7" x1="155.73" y1="328.09" x2="156.48" y2="327.65"/><path class="cls-57" d="M237.51,295.85,152.3,345.61c-1.4.81-2.53-.05-2.53-1.91h0a6.06,6.06,0,0,1,2.53-4.84l85.21-49.77c1.4-.8,2.53.05,2.53,1.92h0A6.07,6.07,0,0,1,237.51,295.85Z"/><path class="cls-57" d="M204.62,328,152.3,358.79c-1.4.8-2.53-.05-2.53-1.92h0A6.07,6.07,0,0,1,152.3,352l52.32-30.77c1.4-.81,2.53,0,2.53,1.91h0A6.06,6.06,0,0,1,204.62,328Z"/><path class="cls-5" d="M125.22,371.77a2,2,0,0,1-3-1.26c.21-.11.43-.2.64-.33a5.73,5.73,0,0,0,.64-.49c-1.54.23-2.46-.65-2.73-2.71a2.65,2.65,0,0,0,1.39-.32,2.44,2.44,0,0,1-1.48-1.78,6.12,6.12,0,0,1,.06-3.17c1.88,1.67,4.08,1.92,6.64.69,0-.25-.09-.47-.12-.71a6.67,6.67,0,0,1,.68-3.79,4.55,4.55,0,0,1,2.58-2.56,1.78,1.78,0,0,1,1.61.23c.07.05.13,0,.22,0a10.86,10.86,0,0,0,1.61-1.85l.06-.08,0,0a7.42,7.42,0,0,1-1.05,2.92,8.39,8.39,0,0,0,1.61-1.56,14.48,14.48,0,0,1-1.08,2.56l0,.06a1,1,0,0,0-.17.8,17.65,17.65,0,0,1-.23,4.93A22.57,22.57,0,0,1,132,367.2a19.8,19.8,0,0,1-1.42,3,15.63,15.63,0,0,1-2,2.75,11.45,11.45,0,0,1-2,1.77A9,9,0,0,1,124,376a5.61,5.61,0,0,1-2.13.21A8.55,8.55,0,0,1,121,376a8.4,8.4,0,0,0,2.31-1.64A11.35,11.35,0,0,0,125.22,371.77Z"/><g id="parachote"><path class="cls-4" d="M574.29,181.92a.64.64,0,0,1-.49-.23l-56.84-67a.64.64,0,0,1-.15-.46.6.6,0,0,1,.22-.43.63.63,0,0,1,.41-.15.64.64,0,0,1,.49.22l56.36,66.46,56.77-66.46a.64.64,0,0,1,.48-.22.63.63,0,0,1,.63.58.6.6,0,0,1-.15.46l-57.25,67a.62.62,0,0,1-.48.22Z"/><path class="cls-4" d="M574.28,181.92a.64.64,0,0,1-.58-.39l-17-42.61a.66.66,0,0,1,0-.48.65.65,0,0,1,.34-.35.7.7,0,0,1,.25-.05.64.64,0,0,1,.58.4l16.38,41.22,16.92-41.06a.63.63,0,0,1,.59-.39.74.74,0,0,1,.25,0,.64.64,0,0,1,.33.84l-17.52,42.44a.64.64,0,0,1-.58.38Z"/><path class="cls-71" d="M576.62,134.2c4.74.14,10,2.3,15.09,4.5l.18.08c2-.95,3.74-1.8,5.37-2.52a83.93,83.93,0,0,1,16.8-5.61l3.13-.72,2.89-.65c.1-.15.2-.3.29-.45,2.31-3.63,5.42-10.45,14.62-16.1.67-.42,1.39-.83,2.13-1.23l.17-.09c0-.18,0-.37,0-.55-1.6-20-9.66-36.5-21.24-47.84a58.9,58.9,0,0,0-28.56-15.73A54.68,54.68,0,0,0,575.18,46a57.42,57.42,0,0,0-11.82,1.38,61.31,61.31,0,0,0-31.7,18.54A66.43,66.43,0,0,0,519,86a71,71,0,0,0-5.12,24.92c0,.22,0,.46,0,.68l.18.12A45.18,45.18,0,0,1,524.21,120a41,41,0,0,1,6.24,9.62h.27c6.1,0,17.94,4.69,26.6,9l.51-.18c1.44-.49,4.25-3.2,7.23-3.82Z"/><path class="cls-72" d="M584.44,55.33C601.25,56.67,627,65.6,637.12,111.5c-.74.4-1.46.81-2.13,1.23-9.2,5.65-12.31,12.47-14.62,16.1-.09.15-.19.3-.29.45l-2.89.65-7.3-24.39-25-41.05L575.68,55l3.41.1"/><path class="cls-72" d="M575.35,55h-.28a68.81,68.81,0,0,0-10.71,1.48c-33.94,6.27-43.53,31.95-50.46,54.38,0,.22,0,.46,0,.68l.18.12A45.18,45.18,0,0,1,524.21,120a41,41,0,0,1,6.24,9.62h.27c-.05-6,.57-17.66,7.92-36.54,7.59-19.52,31.61-34.75,36.25-37.55l.09-.07a2.36,2.36,0,0,0,.23-.13l.4-.24.07,0Z"/><path class="cls-72" d="M575.18,46a57.42,57.42,0,0,0-11.82,1.38A20.33,20.33,0,0,1,574,53.71c.35.4.69.83,1,1.28l0,0h0a.59.59,0,0,1,0,.08l0,0,0,0,0,0s0,0,.06-.05,0,0,0,0a.14.14,0,0,0,.06-.07h0l.63-.58c3.74-3.52,5.62-5.92,11.47-7.17A54.68,54.68,0,0,0,575.18,46Z"/><path class="cls-71" d="M575,55c-8.28-2.63-24.42-2.83-43.37,10.95A66.43,66.43,0,0,0,519,86a71,71,0,0,0-5.12,24.92c0,.22,0,.46,0,.68l.18.12c4.47-16.94,16.08-48.31,61-56.65h.1Z"/><path class="cls-72" d="M566.94,136.17a58,58,0,0,0-9.11,2.26l-.51.18c-2-37.81-.49-54.71,17.57-83.1.07-.13.15-.26.23-.38a.26.26,0,0,0,0-.09h0a19.28,19.28,0,0,1,4,2.61c1.35,1.33,2.9,2.9,4.67,4.68,18,18.25,15.3,58.25,13.42,73.94-1.63.72-3.39,1.57-5.37,2.52l-.18-.08a40.68,40.68,0,0,0-16.61-3.23"/><path class="cls-72" d="M570.88,135.67l-.48.05"/><path class="cls-71" d="M593.14,99.94c0,.34.07.68.11,1m.44,5.58a149.19,149.19,0,0,1-2,32.16l.18.08c2-.95,3.74-1.8,5.37-2.52a83.93,83.93,0,0,1,16.8-5.61c1.8-.43,3.78-.88,6-1.37.1-.15.2-.3.29-.45-7.34-45.26-20.3-58.52-41.2-71.19l-1.3-.79-1.25-.73h0l-.05,0a4.1,4.1,0,0,1-.4-.23l-.07,0h0l-.07,0-.25-.15c-.12-.06-.23-.14-.36-.2,10.6,12.87,15.55,27.87,17.47,42.17"/><ellipse class="cls-3" cx="574.83" cy="55.13" rx="4.32" ry="2.23"/></g><line class="cls-7" x1="653.09" y1="257.91" x2="653.09" y2="249.19"/><line class="cls-7" x1="672.37" y1="260.32" x2="664.77" y2="264.71"/><line class="cls-7" x1="666.43" y1="248.43" x2="661.05" y2="257.71"/><path class="cls-9" d="M668.35,276.63a5.16,5.16,0,0,0-2.52,4.16v-1.58c0-1.5-1.06-2.11-2.37-1.35h0a5.22,5.22,0,0,0-2.36,4.08V280.6c0-1.5-1.06-2.11-2.37-1.35h0a5.2,5.2,0,0,0-2.37,4.08v-12c0-1.5-1.06-2.11-2.36-1.35h0a5.2,5.2,0,0,0-2.37,4.08v20.25l-3-1.69c-.91-.53-2.42.24-3.36,1.8s-1,3.39,0,3.93l7.47,4.25a3.65,3.65,0,0,1,1.52,3.34v6c0,1.3.92,1.83,2.06,1.17l9.84-5.68a4.55,4.55,0,0,0,2.06-3.55v-7.46a23.67,23.67,0,0,1,1.38-6.47,20.1,20.1,0,0,0,.95-6h0v-5.77C670.56,276.71,669.61,276,668.35,276.63Z"/><g id="user"><path class="cls-3" d="M691.33,357.35V328.29c0-2.1,1.28-3.07,2.86-2.16l32.48,18.76a6.82,6.82,0,0,1,2.85,5.45v39c0,2.1-1.27,3.07-2.85,2.16l-11-6.33-5.28,4-5.28-10.09-11-6.33a6.83,6.83,0,0,1-2.86-5.45v-5.59"/><path class="cls-73" d="M704.17,351.85a4.18,4.18,0,0,1,.9,2,11.32,11.32,0,0,0,.38,1.31c1.62,4.63,4.74,6.81,7,6.05a3.37,3.37,0,0,0,1.92-2.58c0-.16.16-.32.3-.31.68.11,1.05-.28,1.09-1a3,3,0,0,0-1-2.27c.09-.64.22-1.2.26-1.82a7.23,7.23,0,0,0-1.57-5.13,1.68,1.68,0,0,1-.24-.6,4.42,4.42,0,0,0-1.59-2.65,4.49,4.49,0,0,0-1.21-.75,26.12,26.12,0,0,0-3.86-1.13c-1.49-.26-2.46.45-2.56,2.28a21.63,21.63,0,0,0,.2,3.25c0,.39.07.65-.18.82C703.41,349.71,703.44,350.94,704.17,351.85Z"/><path class="cls-73" d="M717.94,371a20.36,20.36,0,0,0-5.89-7.45,1,1,0,0,0-.92-.3c-1.4.35-3.5-.78-4.75-2.59a2,2,0,0,0-1.15-.91c-1.69-.54-3.33-.94-4.61-.21a3.29,3.29,0,0,0-1.51,1.6,4.22,4.22,0,0,0,1,3.8c5.45,6.56,11.91,10.3,17.3,10.21,1,0,1.46-1.09,1.1-2.51A10.87,10.87,0,0,0,717.94,371Z"/><path class="cls-7" d="M706.33,357.17c1.71,3.23,4.22,4.67,6.12,4a3.37,3.37,0,0,0,1.92-2.58c0-.16.16-.32.3-.31.68.11,1.05-.28,1.09-1a3,3,0,0,0-1-2.27c.09-.64.22-1.2.26-1.82a7.23,7.23,0,0,0-1.57-5.13,1.68,1.68,0,0,1-.24-.6,4.42,4.42,0,0,0-1.59-2.65,4.49,4.49,0,0,0-1.21-.75,26.12,26.12,0,0,0-3.86-1.13c-1.49-.26-2.46.45-2.56,2.28a21.63,21.63,0,0,0,.2,3.25c0,.39.07.65-.18.82-.64.44-.61,1.67.12,2.58a3.89,3.89,0,0,1,.81,1.63"/><path class="cls-7" d="M708.46,372.33l.34.21"/><path class="cls-7" d="M710.79,373.58a15.3,15.3,0,0,0,6.64,1.57c1,0,1.46-1.09,1.1-2.51a10.87,10.87,0,0,0-.59-1.64,20.36,20.36,0,0,0-5.89-7.45,1,1,0,0,0-.92-.3c-1.4.35-3.5-.78-4.75-2.59a2,2,0,0,0-1.15-.91c-1.69-.54-3.33-.94-4.61-.21a3.29,3.29,0,0,0-1.51,1.6,4.22,4.22,0,0,0,1,3.8,36.33,36.33,0,0,0,6.39,6.1"/></g><path class="cls-68" d="M598.62,214.87a3.3,3.3,0,0,1-1.65,2.85c-24.64,14.23-23.07,13.52-24.3,13.53a3.42,3.42,0,0,1-1.68-.44c-.08-.05-22.76-13.13-22.84-13.2a3.27,3.27,0,0,1-1.49-2.74V189a3.28,3.28,0,0,1,1.64-2.85l9.22-5.33,5.14-3,7.88-4.55a4,4,0,0,1,4,0l7.88,4.54,5.14,3L597,186.2a3.32,3.32,0,0,1,1.59,2.25C598.65,188.92,598.62,187.2,598.62,214.87Z"/><path class="cls-68" d="M598.62,189.06v25.81a3.3,3.3,0,0,1-1.65,2.85l-8.27,4.77-5.17,3-9.24,5.33a3.26,3.26,0,0,1-1.62.44l0-27.07h0a3.51,3.51,0,0,1,1.77-3.06l9.06-5.23,5.17-3,8.46-4.88a1,1,0,0,1,1.4.44A3.08,3.08,0,0,1,598.62,189.06Z"/><path class="cls-68" d="M567.35,199l3.57,2.06a3.55,3.55,0,0,1,1.78,3.07h0l0,27.07a3.21,3.21,0,0,1-1.54-.37l-9.44-5.45-5.11-3-8.43-4.87a3.26,3.26,0,0,1-1.46-2.31V188.82a1,1,0,0,1,1.48-.86l8.41,4.85,5.11,3L563.8,197"/><polygon class="cls-3" points="587.61 180.81 582.47 177.85 556.56 192.8 556.58 192.81 556.58 222.48 561.69 225.43 561.69 195.77 561.69 195.77 561.7 195.77 587.61 180.81"/><polyline class="cls-3" points="583.53 203.07 583.53 225.48 588.7 222.49 588.7 192.89 588.7 192.89 562.67 177.86 557.53 180.83 583.57 195.86 583.59 195.85"/><path class="cls-3" d="M566.81,185.13a11.32,11.32,0,0,0-5.17,3.39,29.86,29.86,0,0,1,3.28,2.28s2.89-3.4,6-3.72a10.14,10.14,0,0,0-3.29-2Z"/><path class="cls-3" d="M572,184.4s1.81-2.21,2.94-.68,6.12,5,7.45,4.24c2.1-1.21-.93,2.78-1,2.84s-4.08.34-4.16.29l-6.33-4s-7.3-4.12-7.21-4.12-3.74-4.88-3.77-5,.14-3.06.14-3.06,2.49-.31,2.58-.26,3.12,4.17,3.12,4.17Z"/><path class="cls-74" d="M585.53,184.16c-1.14-2.09-2.54-3.36-4.16-3.76-2.31-.57-4,.4-6.32,1.59a13.88,13.88,0,0,0-1.4.84c-1-1.74-2-3.35-2.94-4.9l-.58-1a21.76,21.76,0,0,0-2.54-3.63,3.28,3.28,0,0,0-3.52-1l-.16.06-.07,0-.09,0-3.39,1.73,2.06.47a2,2,0,0,0,0,.25,4.93,4.93,0,0,0,0,.55c0,.07,0,.15,0,.22a2.29,2.29,0,0,1,.52.41,20.72,20.72,0,0,1,2.36,3.39l.59,1c.24.39.5.8.74,1.2.87.6,3.05,5.09,3.05,5.09.78.6,1.61,1.17,2.4,1.72.44.31.88.61,1.32.93,2.67,1.9,4.77,2.84,6.38,2.84a3.22,3.22,0,0,0,1.6-.4l0,0,3.46-1.77a3.18,3.18,0,0,0,1.53-2.87m-5.79,3.36c-.62.36-2.28.53-6.34-2.37-1.27-.9-2.95-2-3.87-2.63,3.37-2.17,7.43-4.15,10.27,1.11.86,1.59.83,2.7.45,3.36A1.37,1.37,0,0,1,580.65,190.6Z"/><line class="cls-9" x1="573.54" y1="182.89" x2="570.11" y2="184.98"/><path class="cls-74" d="M571,186c-1.16-.64-1.52-1.93-1.93-2.59-1-1.65-3.62-6.76-5-8.24a3.58,3.58,0,0,0-1.57-1,3.06,3.06,0,0,0-2,0,2.7,2.7,0,0,0-1.67,2.61,4.89,4.89,0,0,0,0,.54c.58,5.79,7.84,8,11.12,9.74m-9.61-9.89a2.3,2.3,0,0,1,0-.37,1.2,1.2,0,0,1,.69-1.21,1.27,1.27,0,0,1,.47-.09,1.75,1.75,0,0,1,.88.25,2.29,2.29,0,0,1,.52.41,20.72,20.72,0,0,1,2.36,3.39l.59,1c.24.39.5.8.74,1.2.57.93,1.14,1.88,1.72,2.88C564.9,183.07,560.8,181,560.43,177.18Z"/><path class="cls-75" d="M598.62,189.06s0-.08,0-.12a1.82,1.82,0,0,0-.05-.49A3.32,3.32,0,0,0,597,186.2l-9.36-5.39h0l-3.43-2-1.71-1-7.88-4.54a4,4,0,0,0-4,0l-2,1.17a14.18,14.18,0,0,0-.92-1.13,3.28,3.28,0,0,0-3.52-1l-.16.06-.07,0-.09,0-3.39,1.73h0a2.71,2.71,0,0,0-1.5,2.51,4.89,4.89,0,0,0,0,.54,6.78,6.78,0,0,0,.66,2.32l-2.05,1.18-9.22,5.33a3.28,3.28,0,0,0-1.58,2.38,1.18,1.18,0,0,0,0,.28v0c0,.06,0,.11,0,.17v25.86c0,.08,0,.15,0,.23v.2c0,.08,0,.14,0,.22s0,.2.08.3a2.65,2.65,0,0,0,.17.44c0,.08.08.17.13.25a2.47,2.47,0,0,0,.3.42c.05.06.09.13.15.19a3,3,0,0,0,.58.49c.08.07,22.76,13.15,22.84,13.2a2.91,2.91,0,0,0,.83.33l.16,0a3.1,3.1,0,0,0,.69.08,1.82,1.82,0,0,0,1.06-.21,2.75,2.75,0,0,0,.56-.23l1.11-.64c2.58-1.43,8.24-4.75,21.57-12.45a3.3,3.3,0,0,0,1.65-2.85c0-16.24,0-22.35,0-24.73Z"/><path class="cls-75" d="M637.25,110.86c-1.6-20-9.66-36.5-21.24-47.84a58.9,58.9,0,0,0-28.56-15.73A54.68,54.68,0,0,0,575.18,46a57.42,57.42,0,0,0-11.82,1.38,61.31,61.31,0,0,0-31.7,18.54A66.43,66.43,0,0,0,519,86a71,71,0,0,0-5.12,24.92c0,.22,0,.46,0,.68l.18.12A45.18,45.18,0,0,1,524.21,120a41,41,0,0,1,6.24,9.62h.27c6.1,0,17.94,4.68,26.6,9l.51-.18a58,58,0,0,1,9.11-2.26l8.16-.7a40.68,40.68,0,0,1,16.61,3.23l.18.08c2-1,3.74-1.8,5.37-2.52a83.93,83.93,0,0,1,16.8-5.61l3.13-.72,1.33-.31,1.56-.34c.1-.15.2-.3.29-.45,2.31-3.63,5.42-10.45,14.62-16.1.67-.42,1.39-.83,2.13-1.23l.17-.09C637.27,111.23,637.26,111,637.25,110.86Z"/></g></g></svg>