<svg xmlns="http://www.w3.org/2000/svg" viewBox="0 0 326.62 252.64"><defs><style>.cls-1,.cls-6{opacity:0.5;}.cls-12,.cls-2,.cls-5,.cls-6,.cls-7,.cls-8{fill:none;}.cls-2,.cls-5,.cls-6{stroke:#a3acd6;}.cls-12,.cls-13,.cls-16,.cls-17,.cls-2,.cls-5,.cls-6,.cls-7,.cls-8{stroke-linecap:round;stroke-linejoin:round;}.cls-2{stroke-width:1.97px;}.cls-13,.cls-3{fill:#e5eefd;}.cls-4{fill:#a3acd6;}.cls-5{stroke-width:3px;}.cls-6{stroke-width:2px;}.cls-7{stroke:#c9d7ed;stroke-width:2.33px;}.cls-8{stroke:#9fc3fd;stroke-width:1.96px;}.cls-9{fill:#93b9f4;}.cls-10,.cls-16{fill:#fff;}.cls-11{fill:#717791;}.cls-12,.cls-13,.cls-16,.cls-17{stroke:#717791;stroke-width:2.36px;}.cls-14,.cls-17{fill:#b8d4ff;}.cls-15{fill:#3f72ba;opacity:0.2;}</style></defs><title>APPs</title><g id="Capa_2" data-name="Capa 2"><g id="Layer_1" data-name="Layer 1"><g id="_18._APP_DEVELOPMENT" data-name="18. APP DEVELOPMENT"><g class="cls-1"><rect class="cls-2" x="196.59" y="4.58" width="38.12" height="31.77" rx="1.55"/><rect class="cls-2" x="196.59" y="4.58" width="38.12" height="31.77" rx="1.55"/><line class="cls-3" x1="215.78" y1="15.01" x2="229.85" y2="15.08"/><path class="cls-4" d="M215.79,14.49a27.24,27.24,0,0,1,7-.39c2.35.07,4.69.21,7,.51a.49.49,0,0,1,.41.53.47.47,0,0,1-.41.41c-2.35.28-4.69.4-7,.45a27.3,27.3,0,0,1-7-.47.53.53,0,0,1-.39-.65A.56.56,0,0,1,215.79,14.49Z"/><line class="cls-3" x1="201.59" y1="14.97" x2="211.73" y2="15"/><path class="cls-4" d="M201.59,14.38a17.71,17.71,0,0,1,5.07-.36,43.26,43.26,0,0,1,5.07.39.6.6,0,0,1,0,1.18,45.48,45.48,0,0,1-5.08.36,17.73,17.73,0,0,1-5.07-.39.62.62,0,0,1-.42-.76A.61.61,0,0,1,201.59,14.38Z"/><line class="cls-3" x1="215.79" y1="19.87" x2="229.85" y2="19.94"/><path class="cls-4" d="M215.79,19.35a27.28,27.28,0,0,1,7-.4c2.35.08,4.69.21,7,.52a.47.47,0,0,1,.4.53.48.48,0,0,1-.41.41c-2.35.28-4.69.39-7,.44a26.86,26.86,0,0,1-7-.46.53.53,0,0,1,0-1Z"/><line class="cls-3" x1="201.59" y1="19.82" x2="211.73" y2="19.85"/><path class="cls-4" d="M201.59,19.23a17.71,17.71,0,0,1,5.07-.36,48.06,48.06,0,0,1,5.07.39.6.6,0,0,1,0,1.19,45.45,45.45,0,0,1-5.07.35,18.06,18.06,0,0,1-5.07-.38.62.62,0,0,1,0-1.19Z"/><line class="cls-3" x1="215.79" y1="24.72" x2="229.85" y2="24.79"/><path class="cls-4" d="M215.79,24.2a27.32,27.32,0,0,1,7-.39c2.34.07,4.68.21,7,.51a.48.48,0,0,1,.4.53.47.47,0,0,1-.41.41c-2.34.28-4.69.4-7,.45a27.38,27.38,0,0,1-7-.47.53.53,0,0,1-.38-.65A.53.53,0,0,1,215.79,24.2Z"/><line class="cls-3" x1="201.59" y1="24.68" x2="211.73" y2="24.71"/><path class="cls-4" d="M201.59,24.09a17.71,17.71,0,0,1,5.07-.36,43.26,43.26,0,0,1,5.07.39.6.6,0,0,1,.52.67.6.6,0,0,1-.52.51,45.47,45.47,0,0,1-5.07.36,17.73,17.73,0,0,1-5.07-.39.62.62,0,0,1-.43-.76A.61.61,0,0,1,201.59,24.09Z"/><line class="cls-3" x1="215.79" y1="29.58" x2="223.53" y2="29.62"/><path class="cls-4" d="M215.79,29.06a8.46,8.46,0,0,1,3.88-.41,22.29,22.29,0,0,1,3.87.5.48.48,0,0,1,.35.58.45.45,0,0,1-.36.35,22.23,22.23,0,0,1-3.87.47,8.45,8.45,0,0,1-3.87-.45.58.58,0,0,1-.29-.76A.56.56,0,0,1,215.79,29.06Z"/><line class="cls-3" x1="201.59" y1="29.53" x2="207.85" y2="29.55"/><path class="cls-4" d="M201.59,28.94a6.9,6.9,0,0,1,3.13-.36,17.71,17.71,0,0,1,3.14.38.61.61,0,0,1,.46.72.6.6,0,0,1-.47.46,17.58,17.58,0,0,1-3.13.37,7,7,0,0,1-3.13-.38.65.65,0,0,1-.33-.86A.66.66,0,0,1,201.59,28.94Z"/><line class="cls-3" x1="201.56" y1="10.7" x2="230.08" y2="10.82"/><path class="cls-4" d="M201.57,10.25q3.56-.15,7.13-.23l7.13-.13L223,9.82a46.07,46.07,0,0,1,7.13.33.67.67,0,0,1,.57.76.69.69,0,0,1-.58.58,46,46,0,0,1-7.13.27l-7.13-.12-7.13-.2c-2.38-.07-4.75-.16-7.13-.28a.46.46,0,0,1-.43-.48A.45.45,0,0,1,201.57,10.25Z"/></g><g class="cls-1"><rect class="cls-2" x="2.55" y="95.78" width="38.12" height="31.77" rx="1.55"/><rect class="cls-2" x="2.55" y="95.78" width="38.12" height="31.77" rx="1.55"/><line class="cls-3" x1="21.74" y1="106.21" x2="35.81" y2="106.28"/><path class="cls-4" d="M21.75,105.69a26.82,26.82,0,0,1,7-.4c2.35.08,4.69.21,7,.52a.47.47,0,0,1,.41.53.47.47,0,0,1-.41.4,69.3,69.3,0,0,1-7,.45,26.86,26.86,0,0,1-7-.46.54.54,0,0,1-.39-.65A.53.53,0,0,1,21.75,105.69Z"/><line class="cls-3" x1="7.54" y1="106.16" x2="17.69" y2="106.19"/><path class="cls-4" d="M7.55,105.57a17.71,17.71,0,0,1,5.07-.36,45.53,45.53,0,0,1,5.07.39.6.6,0,0,1,0,1.18,43.37,43.37,0,0,1-5.08.36,17.73,17.73,0,0,1-5.07-.39.62.62,0,0,1-.43-.75A.6.6,0,0,1,7.55,105.57Z"/><line class="cls-3" x1="21.74" y1="111.06" x2="35.81" y2="111.13"/><path class="cls-4" d="M21.75,110.54a27.24,27.24,0,0,1,7-.39c2.35.07,4.69.21,7,.51a.47.47,0,0,1,0,.94c-2.35.28-4.69.39-7,.44a26.86,26.86,0,0,1-7-.46.53.53,0,0,1-.39-.65A.55.55,0,0,1,21.75,110.54Z"/><line class="cls-3" x1="7.55" y1="111.02" x2="17.69" y2="111.05"/><path class="cls-4" d="M7.55,110.42a17.7,17.7,0,0,1,5.07-.35,45.51,45.51,0,0,1,5.07.38.6.6,0,0,1,0,1.19,48,48,0,0,1-5.08.36,17.73,17.73,0,0,1-5.07-.39.61.61,0,0,1-.42-.76A.64.64,0,0,1,7.55,110.42Z"/><line class="cls-3" x1="21.75" y1="115.92" x2="35.81" y2="115.99"/><path class="cls-4" d="M21.75,115.4a26.84,26.84,0,0,1,7-.4c2.35.08,4.69.21,7,.52a.47.47,0,0,1,0,.93,69.3,69.3,0,0,1-7,.45,26.86,26.86,0,0,1-7-.46.55.55,0,0,1-.39-.65A.53.53,0,0,1,21.75,115.4Z"/><line class="cls-3" x1="7.55" y1="115.87" x2="17.69" y2="115.9"/><path class="cls-4" d="M7.55,115.28a17.71,17.71,0,0,1,5.07-.36,45.53,45.53,0,0,1,5.07.39.6.6,0,0,1,0,1.18,43.2,43.2,0,0,1-5.07.36,17.8,17.8,0,0,1-5.08-.39.61.61,0,0,1-.42-.75A.6.6,0,0,1,7.55,115.28Z"/><line class="cls-3" x1="21.75" y1="120.77" x2="29.49" y2="120.81"/><path class="cls-4" d="M21.75,120.25a8.43,8.43,0,0,1,3.87-.41,22.29,22.29,0,0,1,3.87.5.48.48,0,0,1,.36.58.49.49,0,0,1-.36.36,22.21,22.21,0,0,1-3.88.46,8.33,8.33,0,0,1-3.87-.45.57.57,0,0,1-.28-.75A.63.63,0,0,1,21.75,120.25Z"/><line class="cls-3" x1="7.55" y1="120.73" x2="13.81" y2="120.74"/><path class="cls-4" d="M7.55,120.13a6.9,6.9,0,0,1,3.13-.36,17.49,17.49,0,0,1,3.13.38.6.6,0,0,1,.46.72.61.61,0,0,1-.46.47,18.54,18.54,0,0,1-3.13.36,7,7,0,0,1-3.13-.38.65.65,0,0,1-.33-.86A.7.7,0,0,1,7.55,120.13Z"/><line class="cls-3" x1="7.52" y1="101.9" x2="36.04" y2="102.01"/><path class="cls-4" d="M7.52,101.44c2.38-.1,4.76-.17,7.14-.23l7.13-.13,7.13-.07a47.16,47.16,0,0,1,7.12.33.68.68,0,0,1,0,1.34,46,46,0,0,1-7.13.27l-7.13-.12-7.13-.19c-2.38-.08-4.75-.17-7.13-.29a.46.46,0,0,1,0-.91Z"/></g><path class="cls-3" d="M286.34,201c-1.63,16.65-11.07,33.34-13.49,35.28s-6.82.88-9.86.88H22.05l-.14-.25c-6-10.47-12.78-20.62-16.17-32.33C-3.71,171.94,26.4,149.88,45.86,129,57,117.06,57.86,99.85,67.5,87.09c13.21-17.48,35.54-26.58,56.85-28,24.5-1.64,45.34,7.19,60.22,27,12.25,16.33,19.23,41.61,38.47,51.44,6.9,3.52,14.89,4,22.37,6C269.79,150.07,288.85,175.32,286.34,201Z"/><g class="cls-1"><path class="cls-5" d="M44.7,45.32h4.16c.4-1.26.71-2.48,1.19-3.63,1-2.39,2.05-4.76,3.2-7.08a1.39,1.39,0,0,0-.33-2c-2-1.83-3.89-3.72-5.77-5.54L57.37,16.84M39.62,46.06v-.74h.44m72.37-28.49,1.76.75a1.63,1.63,0,0,0,1.37-.42c1.93-1.89,3.79-3.84,5.61-5.7l15.59,15.79-6.28,5.92c1.73,4.17,3.32,8,5,12.07h9.13V67.18h-9.1l-5.05,12.19L137,85.46l-15.6,15.73c-1.85-1.88-3.74-3.73-5.54-5.66a1.56,1.56,0,0,0-2.19-.38c-3.4,1.6-6.87,3-10.51,4.63v8.93h-22V99.85C77.24,98.14,73.64,96.51,70,95a1.74,1.74,0,0,0-1.48.44c-1.94,1.87-3.8,3.81-5.67,5.71L47.24,85.29C49,83.66,50.85,81.77,52.83,80c.78-.71.79-1.25.34-2.21-1.59-3.4-3-6.86-4.61-10.49H39.62V50.59M62.44,11l.85.85c1.63,1.67,3.34,3.36,5,5.12a1.67,1.67,0,0,0,2.33.39c3.4-1.58,6.87-3,10.48-4.53v-9h22v8.87l1.77.79"/><path class="cls-5" d="M78.59,42.77l.28-.25"/><path class="cls-5" d="M83.84,39.24a19,19,0,1,1-7.9,6.65"/></g><rect class="cls-6" x="6.12" y="139.79" width="133.09" height="5.26" rx="1.7"/><g class="cls-1"><path class="cls-4" d="M67.64,167.25a11.56,11.56,0,0,1-3.35,1.63l-3.47,1.26-7,2.51-13.91,5-14,4.91L19,185l-3.49,1.21a11.5,11.5,0,0,1-3.68.7.36.36,0,0,1-.36-.36.34.34,0,0,1,.13-.28,11.55,11.55,0,0,1,3.3-1.79l3.47-1.27,6.94-2.55,13.91-5,14-4.91,7-2.46L63.63,167a11.89,11.89,0,0,1,3.63-.85.59.59,0,0,1,.61.58A.64.64,0,0,1,67.64,167.25Z"/></g><g class="cls-1"><path class="cls-4" d="M17.89,147.52A25.87,25.87,0,0,1,24,148.88l6,1.9c4,1.26,8,2.58,11.92,3.87s7.93,2.65,11.88,4l5.92,2a26,26,0,0,1,5.76,2.57.44.44,0,0,1,.13.6.43.43,0,0,1-.39.2,25.83,25.83,0,0,1-6.16-1.35l-6-1.88c-4-1.24-8-2.54-11.94-3.81s-7.94-2.62-11.9-4l-5.93-2a25.92,25.92,0,0,1-5.76-2.56.53.53,0,0,1,.32-1Z"/></g><line class="cls-6" x1="8.6" y1="236.88" x2="8.6" y2="145"/><g class="cls-1"><path class="cls-4" d="M64.18,217.41a126.68,126.68,0,0,1-12.79,5.11l-12.92,4.76-13,4.62L19,234.21a29.49,29.49,0,0,1-6.64,1.87.55.55,0,0,1-.6-.49.52.52,0,0,1,.24-.51,29.52,29.52,0,0,1,6.3-2.81l6.47-2.36,12.93-4.72,13-4.58a126.73,126.73,0,0,1,13.11-4.23.55.55,0,0,1,.37,1Z"/></g><g class="cls-1"><path class="cls-4" d="M13.39,188.84a48.18,48.18,0,0,1,6.92,2.55l6.79,2.86L40.67,200l13.51,5.86,6.76,2.93a29.84,29.84,0,0,1,6.56,3.4.59.59,0,0,1-.46,1.05,30,30,0,0,1-7-2.42l-6.77-2.9L39.75,202.1l-13.49-5.92-6.74-3a47.81,47.81,0,0,1-6.61-3.28.61.61,0,0,1-.19-.84A.62.62,0,0,1,13.39,188.84Z"/></g><g class="cls-1"><path class="cls-4" d="M12.75,215.57c2.77-.06,5.11,1.1,7.57,1.9l7.32,2.58,14.65,5.17,14.6,5.28c4.85,1.81,9.71,3.58,14.55,5.43l-1.34.94V145a1,1,0,0,1,2,0v91.87a1,1,0,0,1-1,1,.78.78,0,0,1-.31-.05h0c-4.9-1.66-9.78-3.39-14.67-5.09l-14.62-5.24-14.58-5.35-7.29-2.68c-2.4-1-4.94-1.55-7-3.36a.3.3,0,0,1,0-.42A.33.33,0,0,1,12.75,215.57Z"/></g><g class="cls-1"><path class="cls-4" d="M67.4,189.45a31.77,31.77,0,0,1-6.49,3.37l-6.66,2.94-13.34,5.87c-4.46,1.92-8.92,3.85-13.4,5.72l-6.72,2.83a36.58,36.58,0,0,1-7,2.24.35.35,0,0,1-.42-.29.36.36,0,0,1,.14-.36A35.87,35.87,0,0,1,20,208.25l6.66-2.94c4.44-2,8.91-3.88,13.37-5.81l13.43-5.66L60.14,191a32,32,0,0,1,6.9-2.4.48.48,0,0,1,.54.38A.47.47,0,0,1,67.4,189.45Z"/></g><g class="cls-1"><path class="cls-4" d="M14.76,167.12a27,27,0,0,1,6.45,1.7l6.27,2.2L40,175.46,52.49,180l6.24,2.29a33.43,33.43,0,0,1,6.09,2.72.45.45,0,0,1,.14.61.43.43,0,0,1-.44.2,32.67,32.67,0,0,1-6.43-1.75l-6.27-2.19-12.56-4.36-12.5-4.51-6.25-2.28A26.52,26.52,0,0,1,14.45,168a.47.47,0,0,1-.13-.66A.49.49,0,0,1,14.76,167.12Z"/></g><g class="cls-1"><path class="cls-4" d="M62.21,148.57a31.2,31.2,0,0,1-6,2.49L50,153.12l-12.31,4.13c-4.13,1.33-8.23,2.69-12.37,4l-6.19,2a24,24,0,0,1-6.38,1.37.35.35,0,0,1-.22-.65,23.89,23.89,0,0,1,5.95-2.69l6.14-2.11c4.09-1.42,8.21-2.76,12.31-4.14l12.36-4,6.18-2a31.44,31.44,0,0,1,6.32-1.58.63.63,0,0,1,.69.56A.62.62,0,0,1,62.21,148.57Z"/></g><g class="cls-1"><path class="cls-4" d="M128.07,217.14c-1.93,1.43-4.18,2-6.33,2.84l-6.51,2.35-13,4.71-13.07,4.55-6.53,2.28a43.31,43.31,0,0,1-6.7,1.83.56.56,0,0,1-.65-.46.58.58,0,0,1,.28-.59,44.21,44.21,0,0,1,6.32-2.86l6.49-2.41,13-4.84,13-4.69,6.51-2.34c2.18-.74,4.28-1.73,6.69-1.86a.83.83,0,0,1,.53,1.49Z"/></g><g class="cls-1"><path class="cls-4" d="M76.52,189.46a26.21,26.21,0,0,1,7,2.21l6.73,2.81c4.49,1.86,8.94,3.8,13.41,5.7L117,206l6.68,2.92a30.5,30.5,0,0,1,6.48,3.37.53.53,0,0,1,.09.76.54.54,0,0,1-.51.21,30.49,30.49,0,0,1-6.9-2.4L116.12,208l-13.42-5.68c-4.45-1.94-8.92-3.84-13.36-5.83l-6.66-2.95a26.27,26.27,0,0,1-6.4-3.54.33.33,0,0,1,0-.46A.34.34,0,0,1,76.52,189.46Z"/></g><g class="cls-1"><path class="cls-4" d="M128,168.1a51.41,51.41,0,0,1-6.27,2.54l-6.35,2.28-12.72,4.58L89.91,182l-6.37,2.23c-2.15.7-4.19,1.66-6.52,1.84a.46.46,0,0,1-.5-.43.48.48,0,0,1,.2-.42c1.91-1.33,4.11-1.88,6.21-2.7l6.35-2.31,12.7-4.61,12.74-4.5,6.38-2.25a49.3,49.3,0,0,1,6.46-2,.68.68,0,0,1,.81.53A.7.7,0,0,1,128,168.1Z"/></g><g class="cls-1"><path class="cls-4" d="M80.71,147.72A35.39,35.39,0,0,1,87,149.23l6.12,1.94,12.23,3.88,12.19,4,6.09,2a38.66,38.66,0,0,1,5.95,2.42.7.7,0,0,1,.3,1,.68.68,0,0,1-.73.37,41,41,0,0,1-6.24-1.58l-6.09-2-12.2-4-12.15-4.14-6.07-2.08a35.69,35.69,0,0,1-5.93-2.5.45.45,0,0,1-.17-.61A.46.46,0,0,1,80.71,147.72Z"/></g><g class="cls-1"><path class="cls-4" d="M132.52,236.88l-.15-21.46,0-21.46.06-21.46,0-10.73,0-5.37A21.74,21.74,0,0,1,133,151a.51.51,0,0,1,.62-.36.52.52,0,0,1,.36.36,21.27,21.27,0,0,1,.58,5.36l0,5.37,0,10.73.06,21.46,0,21.46-.16,21.46a1,1,0,0,1-2,0Z"/></g><g class="cls-1"><path class="cls-4" d="M77,216a38.84,38.84,0,0,1,6.84,2l6.7,2.36,13.4,4.71,13.35,4.86,6.67,2.43a27.16,27.16,0,0,1,6.49,2.92.56.56,0,0,1,.14.77.57.57,0,0,1-.5.24,27.63,27.63,0,0,1-6.87-1.89l-6.69-2.38-13.38-4.76-13.32-4.91-6.67-2.46A39.12,39.12,0,0,1,76.64,217a.55.55,0,0,1,.36-1Z"/></g><g class="cls-1"><path class="cls-4" d="M126.86,190.89c-1.78,1.6-4,2.21-6,3.19l-6.23,2.72-12.49,5.37-12.54,5.26-6.26,2.63a36.9,36.9,0,0,1-6.44,2.24.49.49,0,0,1-.59-.38.49.49,0,0,1,.21-.51,36.51,36.51,0,0,1,6.05-3.13l6.22-2.74,12.45-5.47,12.49-5.36,6.27-2.65c2.11-.81,4.07-2,6.46-2.18a.58.58,0,0,1,.43,1Z"/></g><g class="cls-1"><path class="cls-4" d="M78.25,167.51a28.63,28.63,0,0,1,6.63,1.66l6.42,2.21c4.29,1.47,8.56,3,12.83,4.52l12.78,4.67a108.75,108.75,0,0,1,12.62,5.09.58.58,0,0,1,.25.79.6.6,0,0,1-.64.31,110,110,0,0,1-13-4l-12.84-4.47c-4.27-1.53-8.54-3-12.79-4.62l-6.38-2.35a28.6,28.6,0,0,1-6.19-2.91.47.47,0,0,1,.31-.85Z"/></g><g class="cls-1"><path class="cls-4" d="M125.14,148a11.13,11.13,0,0,1-3,1.41l-3.09,1.06-6.2,2.11-12.39,4.21-12.43,4.1L81.84,163a28.45,28.45,0,0,1-6.34,1.66.55.55,0,0,1-.6-.51.56.56,0,0,1,.25-.51,28.34,28.34,0,0,1,6.07-2.5L87.41,159l12.38-4.23,12.42-4.12,6.22-2,3.1-1a11.26,11.26,0,0,1,3.23-.67.63.63,0,0,1,.64.61A.64.64,0,0,1,125.14,148Z"/></g><rect class="cls-6" x="104.74" y="139.79" width="133.09" height="5.26" rx="1.7"/><g class="cls-1"><path class="cls-4" d="M166.26,167.25a11.63,11.63,0,0,1-3.34,1.63l-3.48,1.26-7,2.51-13.91,5-14,4.91-7,2.42-3.5,1.21a11.49,11.49,0,0,1-3.67.7.37.37,0,0,1-.37-.36.35.35,0,0,1,.14-.28,11.36,11.36,0,0,1,3.29-1.79l3.47-1.27,6.94-2.55,13.91-5,13.95-4.91,7-2.46,3.49-1.23a11.82,11.82,0,0,1,3.62-.85.59.59,0,0,1,.61.58A.61.61,0,0,1,166.26,167.25Z"/></g><g class="cls-1"><path class="cls-4" d="M116.51,147.52a25.87,25.87,0,0,1,6.15,1.36l6,1.9c4,1.26,8,2.58,11.92,3.87s7.93,2.65,11.88,4l5.93,2a25.89,25.89,0,0,1,5.75,2.57.44.44,0,0,1,.13.6.43.43,0,0,1-.39.2,25.83,25.83,0,0,1-6.16-1.35l-6-1.88c-4-1.24-8-2.54-11.94-3.81s-7.94-2.62-11.89-4l-5.94-2a25.92,25.92,0,0,1-5.76-2.56.53.53,0,0,1,.32-1Z"/></g><line class="cls-6" x1="107.22" y1="236.88" x2="107.22" y2="145"/><g class="cls-1"><path class="cls-4" d="M162.8,217.41A126.68,126.68,0,0,1,150,222.52l-12.92,4.76-13,4.62-6.49,2.31a29.49,29.49,0,0,1-6.64,1.87.55.55,0,0,1-.6-.49.52.52,0,0,1,.24-.51,29.52,29.52,0,0,1,6.3-2.81l6.47-2.36,12.93-4.72,13-4.58c4.35-1.48,8.6-3.22,13.11-4.23a.55.55,0,0,1,.37,1Z"/></g><g class="cls-1"><path class="cls-4" d="M112,188.84a47.75,47.75,0,0,1,6.92,2.55l6.79,2.86L139.29,200l13.52,5.86,6.75,2.93a29.84,29.84,0,0,1,6.56,3.4.58.58,0,0,1,.1.83.57.57,0,0,1-.55.22,30,30,0,0,1-7-2.42l-6.77-2.9-13.55-5.79-13.48-5.92-6.75-3a48.37,48.37,0,0,1-6.61-3.28.61.61,0,0,1-.19-.84A.62.62,0,0,1,112,188.84Z"/></g><g class="cls-1"><path class="cls-4" d="M111.37,215.57c2.77-.06,5.11,1.1,7.57,1.9l7.33,2.58,14.64,5.17,14.6,5.28c4.85,1.81,9.72,3.58,14.55,5.43l-1.34.94V145a1,1,0,0,1,2,0v91.87a1,1,0,0,1-1,1,.81.81,0,0,1-.31-.05h0c-4.9-1.66-9.78-3.39-14.67-5.09l-14.62-5.24-14.58-5.35-7.28-2.68c-2.41-1-5-1.55-7-3.36a.31.31,0,0,1,0-.42A.33.33,0,0,1,111.37,215.57Z"/></g><g class="cls-1"><path class="cls-4" d="M166,189.45a32,32,0,0,1-6.48,3.37l-6.67,2.94-13.34,5.87c-4.46,1.92-8.92,3.85-13.4,5.72l-6.72,2.83a36.58,36.58,0,0,1-7,2.24.36.36,0,0,1-.42-.29.36.36,0,0,1,.14-.36,35.87,35.87,0,0,1,6.42-3.52l6.67-2.94c4.44-2,8.9-3.88,13.36-5.81L152,193.84l6.72-2.82a32.41,32.41,0,0,1,6.9-2.4.48.48,0,0,1,.54.38A.47.47,0,0,1,166,189.45Z"/></g><g class="cls-1"><path class="cls-4" d="M113.38,167.12a27,27,0,0,1,6.45,1.7l6.27,2.2,12.53,4.44L151.11,180l6.24,2.29a33.43,33.43,0,0,1,6.09,2.72.45.45,0,0,1,.14.61.42.42,0,0,1-.43.2,32.48,32.48,0,0,1-6.43-1.75l-6.28-2.19-12.56-4.36-12.5-4.51-6.24-2.28a26.4,26.4,0,0,1-6.07-2.78.48.48,0,0,1-.13-.66A.49.49,0,0,1,113.38,167.12Z"/></g><g class="cls-1"><path class="cls-4" d="M160.83,148.57a31.37,31.37,0,0,1-6,2.49l-6.16,2.06-12.31,4.13c-4.12,1.33-8.23,2.69-12.36,4l-6.2,2a23.88,23.88,0,0,1-6.38,1.37.34.34,0,0,1-.37-.34.33.33,0,0,1,.15-.31,24.06,24.06,0,0,1,6-2.69l6.15-2.11c4.09-1.42,8.2-2.76,12.3-4.14L148,151l6.18-2a31.44,31.44,0,0,1,6.32-1.58.63.63,0,0,1,.69.56A.62.62,0,0,1,160.83,148.57Z"/></g><g class="cls-1"><path class="cls-4" d="M226.69,217.14c-1.93,1.43-4.17,2-6.33,2.84l-6.5,2.35-13,4.71-13.07,4.55-6.54,2.28a43.31,43.31,0,0,1-6.7,1.83.57.57,0,0,1-.65-.46.58.58,0,0,1,.28-.59,44.21,44.21,0,0,1,6.32-2.86l6.49-2.41,13-4.84,13-4.69,6.51-2.34c2.19-.74,4.28-1.73,6.69-1.86a.82.82,0,0,1,.53,1.49Z"/></g><g class="cls-1"><path class="cls-4" d="M175.15,189.46a26.32,26.32,0,0,1,7,2.21l6.72,2.81c4.49,1.86,8.94,3.8,13.41,5.7L215.61,206l6.68,2.92a30.5,30.5,0,0,1,6.48,3.37.54.54,0,0,1,.1.76.56.56,0,0,1-.52.21,30.49,30.49,0,0,1-6.9-2.4L214.74,208l-13.42-5.68c-4.45-1.94-8.92-3.84-13.35-5.83l-6.67-2.95a26.27,26.27,0,0,1-6.4-3.54.33.33,0,0,1-.05-.46A.35.35,0,0,1,175.15,189.46Z"/></g><g class="cls-1"><path class="cls-4" d="M226.63,168.1a51.27,51.27,0,0,1-6.26,2.54L214,172.92l-12.72,4.58L188.54,182l-6.38,2.23c-2.14.7-4.19,1.66-6.52,1.84a.46.46,0,0,1-.5-.43.48.48,0,0,1,.2-.42c1.92-1.33,4.11-1.88,6.21-2.7l6.35-2.31,12.7-4.61,12.75-4.5,6.37-2.25a49.78,49.78,0,0,1,6.46-2,.68.68,0,0,1,.45,1.28Z"/></g><g class="cls-1"><path class="cls-4" d="M179.33,147.72a35.71,35.71,0,0,1,6.26,1.51l6.11,1.94,12.24,3.88,12.18,4,6.09,2a38.77,38.77,0,0,1,6,2.42.72.72,0,0,1,.3,1,.7.7,0,0,1-.74.37,40.9,40.9,0,0,1-6.23-1.58l-6.1-2-12.2-4-12.14-4.14L185,151.06a35.69,35.69,0,0,1-5.93-2.5.45.45,0,0,1-.17-.61A.46.46,0,0,1,179.33,147.72Z"/></g><g class="cls-1"><path class="cls-4" d="M231.14,236.88,231,215.42,231,194l0-21.46,0-10.73,0-5.37a21.75,21.75,0,0,1,.59-5.36.5.5,0,0,1,.61-.36.52.52,0,0,1,.36.36,21.27,21.27,0,0,1,.58,5.36l0,5.37,0,10.73.06,21.46,0,21.46-.16,21.46a1,1,0,0,1-1,1A1,1,0,0,1,231.14,236.88Z"/></g><g class="cls-1"><path class="cls-4" d="M175.63,216a38.84,38.84,0,0,1,6.84,2l6.7,2.36L202.56,225l13.35,4.86,6.67,2.43a27.16,27.16,0,0,1,6.49,2.92.54.54,0,0,1,.14.77.57.57,0,0,1-.5.24,27.75,27.75,0,0,1-6.87-1.89l-6.69-2.38-13.38-4.76-13.32-4.91-6.66-2.46a38.87,38.87,0,0,1-6.53-2.84.56.56,0,0,1-.19-.75A.55.55,0,0,1,175.63,216Z"/></g><g class="cls-1"><path class="cls-4" d="M225.48,190.89c-1.77,1.6-4,2.21-6,3.19l-6.23,2.72-12.49,5.37-12.53,5.26-6.27,2.63a36.9,36.9,0,0,1-6.44,2.24.49.49,0,0,1-.59-.38.5.5,0,0,1,.21-.51,36.51,36.51,0,0,1,6-3.13l6.22-2.74,12.45-5.47,12.49-5.36,6.27-2.65c2.11-.81,4.07-2,6.46-2.18a.58.58,0,0,1,.62.54A.59.59,0,0,1,225.48,190.89Z"/></g><g class="cls-1"><path class="cls-4" d="M176.87,167.51a28.51,28.51,0,0,1,6.63,1.66l6.43,2.21c4.29,1.47,8.55,3,12.82,4.52l12.78,4.67c4.24,1.59,8.57,3,12.62,5.09a.58.58,0,0,1,.25.79.6.6,0,0,1-.64.31,110.55,110.55,0,0,1-13-4l-12.84-4.47c-4.27-1.53-8.54-3-12.79-4.62l-6.38-2.35a28.31,28.31,0,0,1-6.18-2.91.46.46,0,0,1-.13-.64A.47.47,0,0,1,176.87,167.51Z"/></g><g class="cls-1"><path class="cls-4" d="M223.76,148a11.07,11.07,0,0,1-3,1.41l-3.1,1.06-6.19,2.11-12.39,4.21-12.43,4.1L180.46,163a28.45,28.45,0,0,1-6.34,1.66.55.55,0,0,1-.6-.51.56.56,0,0,1,.25-.51,28.55,28.55,0,0,1,6.07-2.5L186,159l12.38-4.23,12.43-4.12,6.21-2,3.1-1a11.26,11.26,0,0,1,3.23-.67.63.63,0,0,1,.64.61A.64.64,0,0,1,223.76,148Z"/></g><circle class="cls-7" cx="243.43" cy="34.57" r="1.91"/><circle class="cls-8" cx="238.69" cy="60.35" r="1.91"/><path class="cls-9" d="M202.93,137.28c0,.63-.07,1.27-.1,1.91"/><path class="cls-10" d="M203,48.33V214.18a23,23,0,0,1-23,23H110.29A23,23,0,0,1,88.2,220.68c-.61-2.06-.93-4.24-.93,23.5V78.33c0-30.18.1-32.49.31-33.74a.68.68,0,0,1,0-.14,23,23,0,0,1,22.69-19.14H180a23,23,0,0,1,22.68,19.14A21.62,21.62,0,0,1,203,48.33Z"/><path class="cls-6" d="M123.62,77.18v1.7a5.45,5.45,0,0,1-5.46,5.45h-2.67"/><path class="cls-6" d="M102.66,84.31a5.45,5.45,0,0,1-5.06-5.43V64.12a5.45,5.45,0,0,1,5.46-5.45h15.1a5.45,5.45,0,0,1,5.46,5.45v7.71"/><path class="cls-6" d="M156,77.18v1.7a5.45,5.45,0,0,1-5.46,5.45h-2.67"/><path class="cls-6" d="M135,84.31a5.45,5.45,0,0,1-5.06-5.43V64.12a5.45,5.45,0,0,1,5.46-5.45h15.1A5.45,5.45,0,0,1,156,64.12v7.71"/><path class="cls-6" d="M190.51,77.18v1.7a5.45,5.45,0,0,1-5.45,5.45h-2.67"/><path class="cls-6" d="M169.55,84.31a5.45,5.45,0,0,1-5.05-5.43V64.12A5.45,5.45,0,0,1,170,58.67h15.11a5.45,5.45,0,0,1,5.45,5.45v7.71"/><path class="cls-6" d="M123.62,113.18v1.7a5.45,5.45,0,0,1-5.46,5.45h-2.67"/><path class="cls-6" d="M102.66,120.31a5.45,5.45,0,0,1-5.06-5.43V100.12a5.45,5.45,0,0,1,5.46-5.45h15.1a5.45,5.45,0,0,1,5.46,5.45v7.71"/><path class="cls-6" d="M156,113.18v1.7a5.45,5.45,0,0,1-5.46,5.45h-2.67"/><g class="cls-1"><path class="cls-4" d="M134.92,121.31a6.5,6.5,0,0,1-4.77-2.61,6.61,6.61,0,0,1-1.14-2.55,7.24,7.24,0,0,1-.13-1.38v-1.18l0-9.44v-2.36c0-.82,0-1.5.08-2.49a6.42,6.42,0,0,1,5.5-5.51,21.41,21.41,0,0,1,2.49-.05,18.37,18.37,0,0,1,4.72.39.56.56,0,0,1,.39.69.53.53,0,0,1-.39.39,17.94,17.94,0,0,1-4.72.39,18.89,18.89,0,0,0-2.22.08,4.3,4.3,0,0,0-1.8.69,4.44,4.44,0,0,0-2,3.19c-.07.57,0,1.47,0,2.23v13a5,5,0,0,0,.08,1,4.44,4.44,0,0,0,4,3.58h0a1,1,0,0,1-.15,2Z"/></g><path class="cls-6" d="M190.51,113.18v1.7a5.45,5.45,0,0,1-5.45,5.45h-2.67"/><path class="cls-6" d="M169.55,120.31a5.45,5.45,0,0,1-5.05-5.43V100.12A5.45,5.45,0,0,1,170,94.67h15.11a5.45,5.45,0,0,1,5.45,5.45v7.71"/><path class="cls-6" d="M123.62,148.18v1.7a5.45,5.45,0,0,1-5.46,5.45h-2.67"/><path class="cls-6" d="M102.66,155.31a5.45,5.45,0,0,1-5.06-5.43V135.12a5.45,5.45,0,0,1,5.46-5.45h15.1a5.45,5.45,0,0,1,5.46,5.45v7.71"/><path class="cls-6" d="M123.62,184.2v1.69a5.45,5.45,0,0,1-5.46,5.45h-2.67"/><path class="cls-6" d="M102.66,191.33a5.46,5.46,0,0,1-5.06-5.44V171.14a5.45,5.45,0,0,1,5.46-5.45h15.1a5.45,5.45,0,0,1,5.46,5.45v7.71"/><path class="cls-6" d="M190.51,148.18v1.7a5.45,5.45,0,0,1-5.45,5.45h-2.67"/><path class="cls-6" d="M169.55,155.31a5.45,5.45,0,0,1-5.05-5.43V135.12a5.45,5.45,0,0,1,5.45-5.45h15.11a5.45,5.45,0,0,1,5.45,5.45v7.71"/><path class="cls-3" d="M204.32,211.5v3.08a23,23,0,0,1-23,23H111.62a23,23,0,0,1-22.09-16.52V211.5Z"/><path class="cls-3" d="M202.65,44.45H87.6a23,23,0,0,1,22.69-19.14H180A23,23,0,0,1,202.65,44.45Z"/><path class="cls-11" d="M86.1,114.8a1.12,1.12,0,0,1,0-.6,2.37,2.37,0,0,1,.27-.59,1,1,0,0,1,1.42-.3,1.22,1.22,0,0,1,.3.3,2.73,2.73,0,0,1,.26.59,1,1,0,0,1,0,.6,1.21,1.21,0,0,1-1.51.81A1.23,1.23,0,0,1,86.1,114.8Z"/><path class="cls-11" d="M203.83,117.05c.94,13.43.6,26.85.68,40.28l0,40.29v15.1a29.56,29.56,0,0,1-.29,5.26,24.56,24.56,0,0,1-21.75,20.67c-.89.09-1.8.13-2.68.13h-68a31.59,31.59,0,0,1-5.26-.28A24.62,24.62,0,0,1,87,222.06a24.26,24.26,0,0,1-1.15-5.25,26.73,26.73,0,0,1-.14-2.68v-2.51l.05-40.29,0-20.14V141.12a41.21,41.21,0,0,1,.74-10.07.76.76,0,0,1,.91-.55.74.74,0,0,1,.54.55,41.22,41.22,0,0,1,.75,10.07v10.07l0,20.14,0,40.29v2.51a23,23,0,0,0,.12,2.35,21.45,21.45,0,0,0,18.11,18.89,29.79,29.79,0,0,0,4.79.24h40.28l20.14,0h7.55c.81,0,1.57,0,2.36-.11a21.54,21.54,0,0,0,8.83-2.94,21.86,21.86,0,0,0,6.76-6.4,21.58,21.58,0,0,0,3.4-8.67,27.46,27.46,0,0,0,.27-4.78v-15.1l0-40.29c.08-13.43-.26-26.85.68-40.28a.84.84,0,0,1,1.68,0Z"/><path class="cls-11" d="M86.43,108.77c-.25-5.29-.42-10.59-.59-15.89s-.06-10.6-.08-15.9V49.16c0-.65,0-1.36,0-2.07s.09-1.4.19-2.1a24.52,24.52,0,0,1,7.7-14.74A24.46,24.46,0,0,1,109,23.79c1.45-.06,2.72,0,4.06,0H125l15.9,0h31.79c2.67,0,5.26,0,8,0a24,24,0,0,1,8.28,1.69A24.5,24.5,0,0,1,204.2,44.38a26,26,0,0,1,.32,4.21v4l0,15.9,0,15.9v8a28.12,28.12,0,0,1-.74,7.94.76.76,0,0,1-1.46,0,28.12,28.12,0,0,1-.74-7.94v-8l0-15.9,0-15.9v-4a24,24,0,0,0-.29-3.72,21.47,21.47,0,0,0-13.38-16.51,21,21,0,0,0-7.22-1.45H109.15a21.44,21.44,0,0,0-13.4,5.62A21.45,21.45,0,0,0,89,45.4c-.09.61-.14,1.23-.18,1.85s0,1.23,0,1.91V77c0,5.3,0,10.6-.08,15.9s-.34,10.6-.58,15.89a.84.84,0,0,1-1.68,0Z"/><path class="cls-11" d="M137.37,34.31a26.64,26.64,0,0,1,4.06-.5c1.35-.09,2.7-.08,4.06-.06a65,65,0,0,1,8.11.56.93.93,0,0,1,.79,1,.91.91,0,0,1-.79.79,65,65,0,0,1-8.11.57c-1.36,0-2.71,0-4.06-.06a26.67,26.67,0,0,1-4.06-.51.94.94,0,0,1,0-1.84Z"/><path class="cls-11" d="M151.92,228.4a6.84,6.84,0,0,1-4,3.57,8.18,8.18,0,0,1-5.6-.19,8.48,8.48,0,0,1-4.29-3.65,8.56,8.56,0,0,1-1.1-5.5,8.66,8.66,0,0,1,2.53-4.95,8.51,8.51,0,0,1,4.94-2.33,7.94,7.94,0,0,1,5.22,1.21,7.41,7.41,0,0,1,3.07,4.15.53.53,0,0,1-1,.41h0a6.87,6.87,0,0,0-7-3.41,6,6,0,0,0-3.38,1.83,5.91,5.91,0,0,0,2.1,9.44,5.6,5.6,0,0,0,1.82.4,7,7,0,0,0,1.88-.13,8.75,8.75,0,0,0,3.59-1.75l0,0a.79.79,0,0,1,1.11.13A.8.8,0,0,1,151.92,228.4Z"/><path class="cls-11" d="M191.18,210.77a36.67,36.67,0,0,1,5.75-.75,50.32,50.32,0,0,1,5.76-.06,1.5,1.5,0,0,1,0,3,50.32,50.32,0,0,1-5.76-.06,35.53,35.53,0,0,1-5.75-.75.71.71,0,0,1,0-1.38Z"/><path class="cls-11" d="M171.33,210.86a3.79,3.79,0,0,1,1.59-.63,1.47,1.47,0,0,1,1.6.45,1.22,1.22,0,0,1,0,1.56,1.45,1.45,0,0,1-1.6.45,3.79,3.79,0,0,1-1.59-.63.73.73,0,0,1-.19-1A.81.81,0,0,1,171.33,210.86Z"/><path class="cls-11" d="M87.42,210c12.57-.2,25.14-.19,37.71-.18l18.86.15c6.28.09,12.57-.12,18.86.95a.59.59,0,0,1,.48.68.58.58,0,0,1-.48.48c-6.29,1.08-12.58.86-18.86,1l-18.86.15c-12.57,0-25.14,0-37.71-.18a1.5,1.5,0,0,1,0-3Z"/><path class="cls-11" d="M100.51,44c8.52-.83,17-.72,25.55-.79l25.54-.14,25.54,0,25.55.11a1.5,1.5,0,0,1,0,3l-25.55.12-25.54,0-25.54-.14c-8.52-.07-17,0-25.55-.79a.66.66,0,0,1-.6-.73A.67.67,0,0,1,100.51,44Z"/><line class="cls-3" x1="273" y1="238.05" x2="278.61" y2="238.05"/><path class="cls-11" d="M273,237.34a7.34,7.34,0,0,1,2.8-.39,14.09,14.09,0,0,1,2.81.28.84.84,0,0,1,0,1.64,14.09,14.09,0,0,1-2.81.28,7.34,7.34,0,0,1-2.8-.39.76.76,0,0,1-.44-1A.77.77,0,0,1,273,237.34Z"/><line class="cls-3" x1="16.85" y1="238.05" x2="268.87" y2="238.05"/><path class="cls-11" d="M16.85,237.37c10.51-.3,21-.35,31.51-.35l31.5,0,63-.05,63,0,31.5,0c10.5,0,21,0,31.5.3a.87.87,0,0,1,.86.9.88.88,0,0,1-.86.86c-10.5.26-21,.29-31.5.3l-31.5,0-63,0-63-.05-31.5,0c-10.5,0-21,0-31.51-.35a.67.67,0,0,1-.65-.69A.69.69,0,0,1,16.85,237.37Z"/><line class="cls-3" x1="10.65" y1="238.05" x2="11.47" y2="238.05"/><path class="cls-11" d="M10.65,237.05a1.87,1.87,0,0,1,.41,0,.8.8,0,0,1,.21,0,.52.52,0,0,1,.2.09,1,1,0,0,1,.29,1.44,1.1,1.1,0,0,1-.29.28.52.52,0,0,1-.2.09,1.6,1.6,0,0,1-.21.05,1.87,1.87,0,0,1-.41,0,1,1,0,0,1,0-2Z"/><line class="cls-3" x1="0.56" y1="238.05" x2="4.65" y2="238.05"/><path class="cls-11" d="M.56,237.32a9.53,9.53,0,0,1,2.05-.27,5.67,5.67,0,0,1,2,.19.86.86,0,0,1,.56,1.06.89.89,0,0,1-.56.56,5.9,5.9,0,0,1-2,.19,10.2,10.2,0,0,1-2-.27.76.76,0,0,1-.54-.92A.79.79,0,0,1,.56,237.32Z"/><line class="cls-3" x1="113.84" y1="251.46" x2="192.5" y2="251.46"/><path class="cls-11" d="M113.84,250.78c3.28-.31,6.56-.35,9.83-.36l9.84,0,19.66-.1h29.5c3.28,0,6.55,0,9.83.29a.89.89,0,0,1,0,1.77c-3.28.26-6.55.28-9.83.29h-29.5l-19.66-.1-9.84,0c-3.27,0-6.55-.05-9.83-.36a.68.68,0,0,1-.61-.74A.67.67,0,0,1,113.84,250.78Z"/><line class="cls-3" x1="81.48" y1="251.46" x2="101.63" y2="251.46"/><path class="cls-11" d="M81.48,250.73c3.36-.18,6.72-.24,10.08-.27s6.72,0,10.07.19a.81.81,0,0,1,.76.86.79.79,0,0,1-.76.75c-3.35.22-6.71.23-10.07.2s-6.72-.1-10.08-.28a.73.73,0,0,1,0-1.45Z"/><g class="cls-1"><path class="cls-4" d="M6.66,53.21a10.79,10.79,0,0,0,.15,1.67,15.83,15.83,0,0,1,.12,1.65c0,.66-.17,1.45-1.61,1.47v1.34c1.44,0,1.61.86,1.61,1.46a15.26,15.26,0,0,1-.12,1.63,10.65,10.65,0,0,0-.15,1.65c0,2.08,1.28,2.82,3.07,2.82h.6V65.44H10c-1,0-1.44-.6-1.44-1.63a7.69,7.69,0,0,1,.14-1.3c0-.45.13-.95.13-1.5a2,2,0,0,0-1.65-2.33v0a2,2,0,0,0,1.65-2.31c0-.54-.09-1-.13-1.49a7.58,7.58,0,0,1-.14-1.3c0-1,.37-1.61,1.44-1.61h.37V50.45h-.6C7.9,50.45,6.66,51.27,6.66,53.21Z"/><path class="cls-4" d="M27.35,59.34V58c-1.44,0-1.6-.81-1.6-1.47a15.83,15.83,0,0,1,.12-1.65A12.14,12.14,0,0,0,26,53.21c0-1.94-1.23-2.76-3.07-2.76h-.6v1.48h.37c1.08,0,1.45.6,1.45,1.61a6.74,6.74,0,0,1-.15,1.3c0,.46-.12.95-.12,1.49a2,2,0,0,0,1.65,2.31v0A2,2,0,0,0,23.89,61c0,.55.08,1.05.12,1.5a6.83,6.83,0,0,1,.15,1.3c0,1-.41,1.63-1.45,1.63h-.37V66.9h.6c1.79,0,3.07-.74,3.07-2.82a12,12,0,0,0-.14-1.65,15.26,15.26,0,0,1-.12-1.63C25.75,60.2,25.91,59.36,27.35,59.34Z"/><path class="cls-4" d="M16.33,61.41a1.15,1.15,0,1,0,1.11,1.14A1.08,1.08,0,0,0,16.33,61.41Z"/><polygon class="cls-4" points="17.02 60.49 17.28 53.66 15.38 53.66 15.64 60.49 17.02 60.49"/></g><g class="cls-1"><path class="cls-4" d="M162.31,2.76a10.79,10.79,0,0,0,.15,1.67,15.83,15.83,0,0,1,.12,1.65c0,.66-.16,1.45-1.61,1.47V8.89c1.45,0,1.61.86,1.61,1.46a15.26,15.26,0,0,1-.12,1.63,10.65,10.65,0,0,0-.15,1.65c0,2.08,1.28,2.83,3.07,2.83h.6V15h-.37c-1,0-1.44-.6-1.44-1.63a7.69,7.69,0,0,1,.14-1.3c0-.45.13-1,.13-1.5a2,2,0,0,0-1.65-2.33v0a2,2,0,0,0,1.65-2.31c0-.54-.09-1-.13-1.49a7.48,7.48,0,0,1-.14-1.3c0-1,.37-1.61,1.44-1.61H166V0h-.6C163.55,0,162.31.82,162.31,2.76Z"/><path class="cls-4" d="M183,8.89V7.55c-1.45,0-1.61-.81-1.61-1.47a15.83,15.83,0,0,1,.12-1.65,12.14,12.14,0,0,0,.14-1.67c0-1.94-1.23-2.76-3.07-2.76H178V1.48h.38c1.07,0,1.44.6,1.44,1.61a6.65,6.65,0,0,1-.15,1.3c0,.46-.12,1-.12,1.49a2,2,0,0,0,1.65,2.31v0a2,2,0,0,0-1.65,2.33c0,.55.08,1,.12,1.5a6.83,6.83,0,0,1,.15,1.3c0,1-.41,1.63-1.44,1.63H178v1.47h.6c1.8,0,3.07-.75,3.07-2.83a12,12,0,0,0-.14-1.65,15.26,15.26,0,0,1-.12-1.63C181.4,9.75,181.56,8.91,183,8.89Z"/><path class="cls-4" d="M172,11a1.08,1.08,0,0,0-1.1,1.14,1.11,1.11,0,1,0,2.22,0A1.08,1.08,0,0,0,172,11Z"/><polygon class="cls-4" points="172.67 10.04 172.93 3.21 171.03 3.21 171.29 10.04 172.67 10.04"/></g><g class="cls-1"><path class="cls-4" d="M278.8,110.23c1.44,0,1.61-.8,1.61-1.46a15.48,15.48,0,0,0-.13-1.65,12.4,12.4,0,0,1-.14-1.67c0-1.94,1.24-2.77,3.07-2.77h.6v1.49h-.37c-1.08,0-1.45.59-1.45,1.61a7.52,7.52,0,0,0,.15,1.29c0,.46.12,1,.12,1.49a2,2,0,0,1-1.65,2.31v0a2,2,0,0,1,1.65,2.33c0,.56-.08,1.05-.12,1.51A7.52,7.52,0,0,0,282,116c0,1,.42,1.63,1.45,1.63h.37v1.47h-.6c-1.79,0-3.07-.74-3.07-2.83a12.11,12.11,0,0,1,.14-1.65,15.11,15.11,0,0,0,.13-1.63c0-.59-.17-1.44-1.61-1.46Z"/></g><rect class="cls-12" x="238.42" y="83.46" width="16.61" height="143.86"/><rect class="cls-13" x="231.62" y="76.85" width="30.41" height="9.6"/><rect class="cls-13" x="226.22" y="227.12" width="40.62" height="10.8"/><polygon class="cls-12" points="305.85 60.05 150.19 60.05 139.98 76.45 305.85 76.45 305.85 60.05"/><line class="cls-12" x1="169.18" y1="60.05" x2="158.97" y2="76.45"/><path class="cls-11" d="M185.44,65.09a8.64,8.64,0,0,1-1.26,3.26q-.85,1.5-1.74,3c-1.2,2-2.42,3.9-3.78,5.76a1.19,1.19,0,0,1-2-1.25c1.07-2,2.27-4,3.49-5.93.62-1,1.26-1.93,1.9-2.88a8.64,8.64,0,0,1,2.37-2.58.66.66,0,0,1,.92.18A.62.62,0,0,1,185.44,65.09Z"/><line class="cls-12" x1="203.24" y1="65.73" x2="196.57" y2="76.45"/><path class="cls-11" d="M226.53,60.67c-1,1.9-2.07,3.72-3.2,5.52-.57.9-1.15,1.79-1.75,2.67a6,6,0,0,1-2.25,2.35.73.73,0,0,1-1-.31.74.74,0,0,1-.08-.35,6,6,0,0,1,1.11-3.07c.53-.92,1.07-1.84,1.63-2.74,1.11-1.81,2.25-3.61,3.53-5.32a1.18,1.18,0,0,1,2,1.25Z"/><line class="cls-3" x1="268.43" y1="60.05" x2="261.45" y2="71.27"/><path class="cls-11" d="M269.43,60.67c-.52,1-1.08,1.92-1.66,2.86s-1.18,1.86-1.79,2.78-1.25,1.82-1.88,2.72a9.17,9.17,0,0,1-2.35,2.43.39.39,0,0,1-.55-.1.45.45,0,0,1-.06-.28,9.49,9.49,0,0,1,1.14-3.18c.53-1,1.06-1.94,1.62-2.89s1.11-1.9,1.7-2.83,1.18-1.86,1.83-2.75a1.16,1.16,0,0,1,1.64-.28A1.19,1.19,0,0,1,269.43,60.67Z"/><line class="cls-3" x1="284.6" y1="64.45" x2="277.14" y2="76.45"/><path class="cls-11" d="M285,64.7a7.11,7.11,0,0,1-1.2,3.41c-.58,1-1.17,2-1.78,3.06-1.22,2-2.47,4-3.88,5.91a1.19,1.19,0,0,1-2-1.25c1.08-2.1,2.32-4.11,3.58-6.1.64-1,1.29-2,2-2.94a7.12,7.12,0,0,1,2.53-2.59.54.54,0,0,1,.73.21A.52.52,0,0,1,285,64.7Z"/><line class="cls-3" x1="302.5" y1="66.2" x2="296.12" y2="76.45"/><path class="cls-11" d="M303,66.49a8.15,8.15,0,0,1-1.07,2.89c-.5.87-1,1.75-1.51,2.62-1,1.73-2.1,3.43-3.27,5.08a1.18,1.18,0,0,1-2-1.25c1-1.77,2-3.49,3.11-5.18.55-.84,1.12-1.67,1.69-2.5A7.89,7.89,0,0,1,302,65.91a.6.6,0,0,1,.83.17A.66.66,0,0,1,303,66.49Z"/><path class="cls-11" d="M158.81,77.08c-1.24-1.84-2.38-3.73-3.51-5.63-.56-1-1.11-1.92-1.65-2.88a11.22,11.22,0,0,1-1.32-3.09.59.59,0,0,1,.45-.7.57.57,0,0,1,.49.12,11.18,11.18,0,0,1,2.19,2.54c.62.92,1.25,1.83,1.85,2.76,1.21,1.85,2.4,3.71,3.5,5.63a1.18,1.18,0,0,1-2,1.25Z"/><path class="cls-11" d="M177.49,77.08c-1.22-1.89-2.38-3.82-3.52-5.76l-1.68-2.92a14.37,14.37,0,0,1-1.44-3.07.64.64,0,0,1,1-.65A14.42,14.42,0,0,1,174,67.33l1.88,2.8c1.23,1.88,2.45,3.77,3.6,5.7a1.18,1.18,0,0,1-2,1.25Z"/><line class="cls-12" x1="197.4" y1="76.45" x2="187.2" y2="60.05"/><path class="cls-11" d="M215.16,77.08c-1.35-1.92-2.61-3.89-3.81-5.89-.6-1-1.2-2-1.78-3a7.29,7.29,0,0,1-1.31-3.31.66.66,0,0,1,.62-.7.71.71,0,0,1,.36.09,7.15,7.15,0,0,1,2.39,2.64c.66,1,1.3,2,1.93,2.93,1.27,2,2.48,4,3.6,6a1.18,1.18,0,0,1-2,1.25Z"/><line class="cls-13" x1="234.92" y1="76.45" x2="224.71" y2="60.05"/><line class="cls-13" x1="277.97" y1="76.45" x2="267.76" y2="60.05"/><path class="cls-11" d="M254.34,97.23c-1-.52-2-1.09-3-1.68s-2-1.18-2.94-1.8-1.94-1.26-2.9-1.9a10.06,10.06,0,0,1-2.6-2.38.22.22,0,0,1,0-.3.28.28,0,0,1,.15,0,10.1,10.1,0,0,1,3.37,1.08c1,.51,2.06,1,3.08,1.56s2,1.08,3,1.64,2,1.15,3,1.78a1.17,1.17,0,0,1,.35,1.63A1.19,1.19,0,0,1,254.34,97.23Z"/><line class="cls-12" x1="238.45" y1="105.83" x2="254.93" y2="96.3"/><path class="cls-11" d="M254.34,116q-3.19-1.68-6.27-3.56c-1-.62-2-1.26-3.08-1.89a16.15,16.15,0,0,1-2.86-2.26.66.66,0,0,1,0-.91.66.66,0,0,1,.6-.16,16.12,16.12,0,0,1,3.38,1.35c1.06.57,2.13,1.13,3.18,1.72,2.1,1.16,4.18,2.37,6.21,3.66a1.18,1.18,0,0,1,.36,1.63A1.19,1.19,0,0,1,254.34,116Z"/><line class="cls-12" x1="238.45" y1="124.61" x2="254.93" y2="115.09"/><line class="cls-12" x1="254.93" y1="133.69" x2="238.45" y2="124.16"/><path class="cls-11" d="M237.86,142.29a56.36,56.36,0,0,1,5.09-3.12c.86-.49,1.74-1,2.63-1.41a5.26,5.26,0,0,1,2.95-.87.63.63,0,0,1,.57.66.6.6,0,0,1-.06.23,5.19,5.19,0,0,1-2.22,2.12c-.84.55-1.68,1.07-2.53,1.58a57.81,57.81,0,0,1-5.25,2.85,1.18,1.18,0,0,1-1.18-2Z"/><line class="cls-12" x1="254.93" y1="152.63" x2="238.45" y2="143.11"/><line class="cls-12" x1="238.45" y1="162.25" x2="254.93" y2="152.72"/><line class="cls-12" x1="254.93" y1="171.33" x2="238.45" y2="161.8"/><path class="cls-11" d="M237.86,179.93c1.66-1.15,3.4-2.16,5.15-3.14.88-.48,1.77-1,2.67-1.42a5.42,5.42,0,0,1,3-.9.62.62,0,0,1,.51.88,5.45,5.45,0,0,1-2.26,2.12c-.85.55-1.7,1.08-2.56,1.6-1.73,1-3.47,2-5.29,2.9a1.18,1.18,0,0,1-1.18-2Z"/><path class="cls-11" d="M249.34,187.46a10.32,10.32,0,0,1-3.11-1c-1-.49-1.91-1-2.85-1.49-1.88-1-3.74-2.07-5.52-3.26a1.18,1.18,0,0,1,1.18-2c1.92.94,3.76,2,5.59,3.15.91.55,1.8,1.15,2.7,1.73a10.47,10.47,0,0,1,2.44,2.19.46.46,0,0,1-.09.64A.42.42,0,0,1,249.34,187.46Z"/><line class="cls-12" x1="238.45" y1="199.82" x2="254.93" y2="190.3"/><line class="cls-12" x1="254.93" y1="208.99" x2="238.45" y2="199.46"/><line class="cls-12" x1="253.48" y1="226.94" x2="238.45" y2="218.25"/><line class="cls-13" x1="296.96" y1="76.45" x2="287.05" y2="60.52"/><polyline class="cls-13" points="256.7 50.92 251.42 25.15 242.43 25.15 236.81 50.84"/><path class="cls-11" d="M238.47,207.69l8.24.11,4.11,0h2.05l1,0,.48,0,.21,0h0l-.15.05,0,0-.12.07a1.17,1.17,0,0,0-.54,1h0l1.78,1c-1.89,1.26-3.84,2.45-5.81,3.58-1,.56-2,1.12-3,1.65a6.52,6.52,0,0,1-3.26,1.19.67.67,0,0,1-.66-.68.73.73,0,0,1,.07-.3A6.57,6.57,0,0,1,245.5,213c.95-.62,1.92-1.22,2.89-1.82,1.94-1.18,3.92-2.32,5.94-3.36l.08,0a1.16,1.16,0,0,1,1.57.5,1.24,1.24,0,0,1,.13.56h0a1.23,1.23,0,0,1-.56,1l-.1.05,0,0-.06,0-.21.06-.16,0-.19,0-.3,0-.55,0-1,0-2.08,0-4.13,0-8.26-.11a1.18,1.18,0,0,1,0-2.36Z"/><path class="cls-11" d="M238.47,189c1.28-.08,2.55-.11,3.82-.13s2.55,0,3.82,0,2.54.09,3.82.16a8.38,8.38,0,0,1,3.82.83.5.5,0,0,1,.21.66.45.45,0,0,1-.22.21,8.35,8.35,0,0,1-3.82.78c-1.28,0-2.55.07-3.83.07s-2.56,0-3.83,0-2.55-.1-3.83-.21a1.18,1.18,0,0,1,0-2.36Z"/><path class="cls-12" d="M238.45,171.39s16.48.29,16.48,0"/><path class="cls-12" d="M238.45,152.65s16.48.29,16.48,0"/><path class="cls-12" d="M238.45,133.66s7.73.13,12.6.12c1.33,0,2.66,0,4,0"/><path class="cls-12" d="M238.45,114.91s16.48.29,16.48,0"/><path class="cls-12" d="M238.45,96.17s16.48.29,16.48,0"/><polyline class="cls-12" points="169.73 60.09 242.43 25.15 253.76 38.21 239.92 38.21 256.35 50.66"/><line class="cls-13" x1="251.42" y1="25.15" x2="305.85" y2="60.05"/><rect class="cls-13" x="137.74" y="76.46" width="30.33" height="9.55"/><circle class="cls-13" cx="153.09" cy="112.13" r="6.38"/><path class="cls-3" d="M152.91,114.3a2.18,2.18,0,1,1,2.36-2.17"/><path class="cls-11" d="M152.87,114.76a2.58,2.58,0,0,1-2.82-1.59,3,3,0,0,1,.83-3.45,3.14,3.14,0,0,1,3.42-.36,2.74,2.74,0,0,1,1.47,2.77.51.51,0,0,1-.58.43.54.54,0,0,1-.43-.4v0a1.6,1.6,0,0,0-1.13-1.22,1.18,1.18,0,0,0-1.27.42,1.63,1.63,0,0,0-.34,1.16,1.82,1.82,0,0,0,.92,1.34l.06,0a.49.49,0,0,1-.13.89Z"/><line class="cls-3" x1="157.71" y1="107.73" x2="157.71" y2="92.61"/><path class="cls-11" d="M156.53,107.72c0-1.25,0-2.51,0-3.77s0-2.52.07-3.78a56.42,56.42,0,0,1,.47-7.56.68.68,0,0,1,.77-.55.68.68,0,0,1,.54.55,58.14,58.14,0,0,1,.48,7.56c0,1.26,0,2.52.06,3.78s0,2.52,0,3.77a1.18,1.18,0,1,1-2.35,0Z"/><line class="cls-13" x1="147.99" y1="86.08" x2="147.99" y2="108.35"/><path class="cls-12" d="M158.36,128.53a5.32,5.32,0,1,1-5.39-6.27v-3.72"/><polyline class="cls-12" points="139 141.18 152.56 130.62 165.57 141.18"/><rect class="cls-10" x="131.18" y="140.37" width="43.87" height="44.79" rx="6.26"/><rect class="cls-14" x="131.18" y="143.63" width="43.87" height="41.53" rx="6.26"/><path class="cls-15" d="M175.05,149.9v27.35a7.08,7.08,0,0,1-7.08,7.09H138.28a7.09,7.09,0,0,1-7.1-7.09v-2.4a7.08,7.08,0,0,0,6.75,4.89h29.69a7.1,7.1,0,0,0,7.09-7.08V147.74A6.74,6.74,0,0,1,175.05,149.9Z"/><path class="cls-11" d="M128.9,156.56a1.78,1.78,0,0,1-.08-.45,2.42,2.42,0,0,1,0-.46,1.53,1.53,0,0,1,.13-.45,1.89,1.89,0,0,1,.3-.46.81.81,0,0,1,1.13,0l0,0a1.89,1.89,0,0,1,.3.46,1.53,1.53,0,0,1,.13.45,2.42,2.42,0,0,1,0,.46,1.44,1.44,0,0,1-.09.45,1,1,0,0,1-1.9,0Z"/><path class="cls-11" d="M129.1,150.6a8.76,8.76,0,0,1-.41-2.4c0-.2,0-.39,0-.61l0-.69a9.06,9.06,0,0,1,.25-1.38,8.27,8.27,0,0,1,5.58-5.78,8.89,8.89,0,0,1,2.71-.37H142l19.15,0h6c.4,0,.77,0,1.27,0a8.33,8.33,0,0,1,6.87,4.33,8.72,8.72,0,0,1,.92,2.67,9.57,9.57,0,0,1,.12,1.4v1.2l0,19.15,0,9.58c0,.36,0,.87,0,1.34a11,11,0,0,1-.28,1.39,9,9,0,0,1-1.23,2.55,8.48,8.48,0,0,1-4.55,3.21,9.48,9.48,0,0,1-1.39.27,12.93,12.93,0,0,1-1.34.05h-7.18l-9.58,0H137l-.69,0a8.31,8.31,0,0,1-7.61-7.12,8.15,8.15,0,0,1-.09-1.37V174.3a47.47,47.47,0,0,1,.56-9.58.69.69,0,0,1,.82-.53.72.72,0,0,1,.53.53,48.21,48.21,0,0,1,.56,9.58v3.59a8,8,0,0,0,.07,1,5.77,5.77,0,0,0,1.81,3.42,5.72,5.72,0,0,0,3.54,1.54l.5,0h4.19l9.58,0h16.76c.43,0,.73,0,1.06,0a7.6,7.6,0,0,0,1-.19,5.84,5.84,0,0,0,3.12-2.22,6,6,0,0,0,.83-1.75,5.16,5.16,0,0,0,.19-1c0-.33,0-.62,0-1l0-9.58,0-19.15v-1.2a5.19,5.19,0,0,0-.08-1,5.77,5.77,0,0,0-.62-1.85,5.91,5.91,0,0,0-2.85-2.58,5.66,5.66,0,0,0-1.9-.44c-.3,0-.73,0-1.12,0h-6L142,141.79h-4.79a6.55,6.55,0,0,0-2,.25,6.26,6.26,0,0,0-1.77.89,5.79,5.79,0,0,0-2.21,3.22,6.16,6.16,0,0,0-.19,1l0,.5,0,.59a8.76,8.76,0,0,1-.41,2.4.8.8,0,0,1-1.51,0Z"/><rect class="cls-13" x="305.54" y="53.86" width="9.98" height="28.52"/><polyline class="cls-3" points="325.33 74.39 325.33 82.38 315.36 82.38 315.36 53.86 325.33 53.86 325.33 66.81"/><path class="cls-11" d="M325.88,74.39a13,13,0,0,1,.68,4,26.58,26.58,0,0,1-.05,4v.12a1.17,1.17,0,0,1-1.17,1.06h-10a1.18,1.18,0,0,1-1.18-1.18V53.86a1.18,1.18,0,0,1,1.18-1.18h10a1.18,1.18,0,0,1,1.18,1.11v.07c.11,2.16.13,4.32.09,6.48a32.13,32.13,0,0,1-.54,6.47.74.74,0,0,1-.89.57.75.75,0,0,1-.57-.57,32.87,32.87,0,0,1-.54-6.47c0-2.16,0-4.32.09-6.48L325.33,55h-10l1.18-1.18V82.38l-1.18-1.18h10l-1.18,1.18a28,28,0,0,1,0-4,13,13,0,0,1,.68-4,.58.58,0,0,1,.75-.34A.6.6,0,0,1,325.88,74.39Z"/><path class="cls-16" d="M235.18,76.61l-7.47-11.76L235.86,51h22.31V76.44Z"/><path class="cls-17" d="M254.27,55.16H238.88L233.4,64.5h20.87S254.39,55,254.27,55.16Z"/><path class="cls-12" d="M141.48,158.91a3.15,3.15,0,0,1,6.29,0"/><path class="cls-12" d="M156.54,158.91a3.15,3.15,0,0,1,6.29,0"/><path class="cls-16" d="M156.28,166.84a4.14,4.14,0,0,1-8.26,0Z"/><circle class="cls-15" cx="164.81" cy="165.53" r="3.05"/><circle class="cls-15" cx="139.43" cy="165.53" r="3.05"/><rect class="cls-17" x="39.42" y="229.26" width="27.48" height="7.43" rx="1.69"/><rect class="cls-17" x="42.09" y="221.87" width="27.48" height="7.43" rx="1.69"/><rect class="cls-3" x="41.04" y="215.24" width="27.48" height="5.04" rx="1.69"/><rect class="cls-14" x="41.27" y="216.87" width="27.48" height="5.04" rx="1.69"/><rect class="cls-15" x="43.14" y="222.97" width="25.33" height="1.68"/><rect class="cls-15" x="40.48" y="230.33" width="25.33" height="1.68"/><path class="cls-11" d="M40.93,214.17a2.84,2.84,0,0,1,1.43-.8,3,3,0,0,1,.73-.06H67.16a2.89,2.89,0,0,1,2.78,2.65c0,.33,0,.4,0,.59v3.67c0,.11,0,.27,0,.41A2.9,2.9,0,0,1,67.85,223a3.42,3.42,0,0,1-.81.11H62.62l-7.84,0-7.85,0H43a2.83,2.83,0,0,1-1.52-.43,2.69,2.69,0,0,1-1-1.22,2.37,2.37,0,0,1-.2-.77c0-.13,0-.26,0-.39l0-.25c.05-.33.08-.66.15-1a.84.84,0,0,1,1.66,0c.07.32.1.65.15,1l0,.24,0,.09.09.17a.7.7,0,0,0,.62.29h3.92l7.85,0,7.84,0H67a.61.61,0,0,0,.15,0,.49.49,0,0,0,.24-.16.47.47,0,0,0,.11-.25s0,0,0-.09v-2.69a11.06,11.06,0,0,0,0-1.51.49.49,0,0,0-.44-.31H42.85a.68.68,0,0,0-.27.13l-.09.07a1.15,1.15,0,0,1-1.62-.19A1.17,1.17,0,0,1,40.93,214.17Z"/><rect class="cls-3" x="71.16" y="207.85" width="27.48" height="5.04" rx="1.69"/><rect class="cls-14" x="71.39" y="209.48" width="27.48" height="5.04" rx="1.69"/><path class="cls-11" d="M71.05,206.78a2.84,2.84,0,0,1,1.43-.8,3.73,3.73,0,0,1,.73-.07H97.28a2.89,2.89,0,0,1,2.59,1.83,3.29,3.29,0,0,1,.19.81c0,.33,0,.4,0,.59v3.68c0,.11,0,.27,0,.4a2.9,2.9,0,0,1-2.89,2.5H84.9l-7.85,0H73.13a2.76,2.76,0,0,1-1.52-.44,2.69,2.69,0,0,1-1-1.21,2.63,2.63,0,0,1-.19-.77c0-.13,0-.27,0-.4l0-.25c0-.32.08-.65.14-1a.85.85,0,0,1,1.67,0c.06.33.09.66.14,1l0,.24,0,.1a.61.61,0,0,0,.09.16.7.7,0,0,0,.62.29H84.9l7.84,0h4.41l.16,0a.54.54,0,0,0,.24-.16.47.47,0,0,0,.11-.25s0,0,0-.09v-2.7a10.89,10.89,0,0,0,0-1.5.51.51,0,0,0-.44-.32H73.7a6.51,6.51,0,0,0-.73,0,.57.57,0,0,0-.27.13l-.09.07a1.16,1.16,0,0,1-1.56-1.7Z"/><rect class="cls-17" x="71.01" y="229.26" width="27.48" height="7.43" rx="1.69"/><rect class="cls-17" x="73.54" y="221.87" width="27.48" height="7.43" rx="1.69"/><rect class="cls-17" x="71.01" y="214.48" width="27.48" height="7.43" rx="1.69"/><rect class="cls-15" x="72.12" y="215.61" width="25.33" height="1.68"/><rect class="cls-15" x="74.56" y="222.85" width="25.33" height="1.68"/><rect class="cls-15" x="72.12" y="230.45" width="25.33" height="1.68"/></g></g></g></svg>