<svg xmlns="http://www.w3.org/2000/svg" viewBox="0 0 321.61 247.37"><defs><style>.cls-1{fill:#717791;}.cls-2{opacity:0.7;}.cls-16,.cls-21,.cls-23,.cls-26,.cls-3,.cls-4,.cls-5,.cls-7{fill:none;}.cls-3{stroke:#c9d7ed;stroke-width:2.33px;}.cls-12,.cls-16,.cls-17,.cls-18,.cls-19,.cls-21,.cls-23,.cls-24,.cls-25,.cls-26,.cls-27,.cls-3,.cls-4,.cls-5,.cls-7{stroke-linecap:round;stroke-linejoin:round;}.cls-4,.cls-5{stroke:#9fc3fd;}.cls-4{stroke-width:1.96px;}.cls-5{stroke-width:1.48px;}.cls-12,.cls-17,.cls-6{fill:#e5eefd;}.cls-21,.cls-7{stroke:#a3acd6;}.cls-12,.cls-21,.cls-23,.cls-24,.cls-7{stroke-width:2px;}.cls-7,.cls-8{opacity:0.5;}.cls-9{fill:#a3acd6;}.cls-10{fill:#d0def4;}.cls-11,.cls-18,.cls-25{fill:#fff;}.cls-12,.cls-16,.cls-17,.cls-18,.cls-19,.cls-23,.cls-24,.cls-25,.cls-26,.cls-27{stroke:#717791;}.cls-13{fill:#eaf1fd;}.cls-14{fill:#93b9f4;}.cls-15,.cls-24{fill:#fdd1be;}.cls-16,.cls-17,.cls-18,.cls-19{stroke-width:2.36px;}.cls-19,.cls-22,.cls-27{fill:#b8d4ff;}.cls-20{fill:#3f72ba;opacity:0.2;}.cls-21{stroke-dasharray:5.01 5.01;}.cls-25,.cls-26,.cls-27{stroke-width:1.6px;}</style></defs><title>Corporativa y ecommerce</title><g id="Capa_2" data-name="Capa 2"><g id="Layer_1" data-name="Layer 1"><g id="_22._WEB_DEVELOPMENT" data-name="22. WEB DEVELOPMENT"><path class="cls-1" d="M85.53,9.64c-.89.17-1.78.27-2.67.37s-1.79.17-2.68.23a53.06,53.06,0,0,1-5.35.08h-.09a1,1,0,0,1-.89-.78h0A15.4,15.4,0,0,0,72.28,4.8a5.74,5.74,0,0,0-3.49-2.71A3.76,3.76,0,0,0,65,3.34c-.82,1.06-.81,2.75-.66,4.47h-2a3.75,3.75,0,0,0-.62-2.43,2.76,2.76,0,0,0-2-1.2,2.19,2.19,0,0,0-2,.75,2,2,0,0,0-.36,2l-1.83.81a.27.27,0,0,0-.11-.07.53.53,0,0,0-.33,0,1.18,1.18,0,0,0-.64.68,3,3,0,0,0-.22,1.34A3.15,3.15,0,0,0,54.64,11v0a1,1,0,0,1-.4,1.37,1.1,1.1,0,0,1-.46.13c-3.27.08-6.53,0-9.79-.14s-6.53-.29-9.79-.53a.34.34,0,0,1-.31-.36.34.34,0,0,1,.31-.31c3.26-.24,6.53-.4,9.79-.52s6.52-.22,9.79-.14l-.87,1.5,0,0a5.24,5.24,0,0,1-.65-2.2,5,5,0,0,1,.4-2.3,3,3,0,0,1,2-1.79,2.59,2.59,0,0,1,1.51.08A2.17,2.17,0,0,1,57.38,7h0a1,1,0,0,1-.51,1.31,1,1,0,0,1-1.32-.51h0a4,4,0,0,1,.63-4.09,4.13,4.13,0,0,1,1.75-1.25A4.55,4.55,0,0,1,60,2.18,4.81,4.81,0,0,1,63.4,4.23a5.7,5.7,0,0,1,1,3.75,1,1,0,0,1-2,0,15,15,0,0,1,0-2.85,6,6,0,0,1,1.07-3,5.77,5.77,0,0,1,5.81-2A7.73,7.73,0,0,1,74,3.76,17.35,17.35,0,0,1,75.81,9.1h0l-1-.78a50.27,50.27,0,0,1,5.35.08c.89,0,1.79.12,2.68.22s1.78.2,2.67.37a.33.33,0,0,1,0,.65Z"/><path class="cls-1" d="M249.51,45.44c.81-.17,1.62-.27,2.43-.37s1.62-.17,2.43-.23a43.79,43.79,0,0,1,4.86-.08l-1,.79h0a15.72,15.72,0,0,1,1.66-4.87,7.12,7.12,0,0,1,4.38-3.34,5.34,5.34,0,0,1,5.37,1.86,5.42,5.42,0,0,1,1,2.74,13.29,13.29,0,0,1,0,2.61,1,1,0,0,1-2,0,5.26,5.26,0,0,1,.9-3.47,4.45,4.45,0,0,1,3.17-1.89,4.18,4.18,0,0,1,1.91.21,3.81,3.81,0,0,1,2.21,5,1,1,0,1,1-1.84-.79h0v0a2.08,2.08,0,0,1,1.17-1.08,2.46,2.46,0,0,1,1.42-.08,2.86,2.86,0,0,1,1.87,1.68,4.52,4.52,0,0,1,.37,2.12,4.77,4.77,0,0,1-.6,2l0,0-.87-1.5c3-.08,5.93,0,8.89.14s5.92.28,8.89.53a.33.33,0,0,1,0,.66c-3,.25-5.93.41-8.89.53s-5.92.22-8.89.14h0a1,1,0,0,1-1-1,1.06,1.06,0,0,1,.13-.46v0a2.65,2.65,0,0,0,.34-1.18,2.53,2.53,0,0,0-.19-1.18.94.94,0,0,0-.52-.56.48.48,0,0,0-.24,0c-.07,0-.06,0-.05,0L275,43.57a1.75,1.75,0,0,0-.32-1.74,1.88,1.88,0,0,0-1.75-.65,2.46,2.46,0,0,0-1.75,1,3.3,3.3,0,0,0-.55,2.15h-2c.14-1.57.14-3.07-.57-4a3.36,3.36,0,0,0-3.33-1.1,5.12,5.12,0,0,0-3.11,2.42A14.49,14.49,0,0,0,260.2,46h0a.93.93,0,0,1-.87.78h-.1a41.49,41.49,0,0,1-4.86-.08c-.81,0-1.62-.12-2.43-.22s-1.62-.2-2.43-.37a.34.34,0,0,1-.26-.39A.34.34,0,0,1,249.51,45.44Z"/><g class="cls-2"><line class="cls-3" x1="171.62" y1="32.57" x2="171.62" y2="39.43"/><line class="cls-3" x1="175.05" y1="36" x2="168.19" y2="36"/></g><circle class="cls-4" cx="216.74" cy="33.71" r="2.23"/><circle class="cls-4" cx="318.4" cy="114.8" r="2.23"/><g class="cls-2"><line class="cls-3" x1="281.28" y1="77.04" x2="281.28" y2="86.51"/><line class="cls-3" x1="286.02" y1="81.77" x2="276.55" y2="81.77"/></g><rect class="cls-5" x="291.84" y="21.88" width="3.54" height="3.54" transform="translate(348.17 313.11) rotate(-105.28)"/><g class="cls-2"><line class="cls-3" x1="67.77" y1="19.62" x2="67.77" y2="29.09"/><line class="cls-3" x1="72.5" y1="24.36" x2="63.04" y2="24.36"/></g><g class="cls-2"><line class="cls-3" x1="39.41" y1="96.75" x2="39.41" y2="103"/><line class="cls-3" x1="42.53" y1="99.88" x2="36.28" y2="99.88"/></g><circle class="cls-3" cx="129.41" cy="16.8" r="1.91"/><circle class="cls-4" cx="72.54" cy="77.48" r="1.91"/><rect class="cls-5" x="165.43" y="5.7" width="3.54" height="3.54" transform="translate(204.05 170.74) rotate(-105.28)"/><path class="cls-6" d="M312.37,196.19c-1.63,16.65-11.07,33.33-13.5,35.28s-6.81.88-9.85.88H48.07l-.14-.25c-6-10.47-12.77-20.63-16.17-32.34-9.45-32.61,20.67-54.67,40.13-75.55,11.15-11.95,12-29.16,21.64-41.92,13.2-17.47,35.53-26.57,56.85-28,24.5-1.63,45.34,7.2,60.22,27.05,12.25,16.33,19.22,41.61,38.47,51.43,6.89,3.53,14.89,4,22.37,6C295.82,145.28,314.88,170.53,312.37,196.19Z"/><rect class="cls-7" x="39.97" y="133.03" width="133.09" height="5.26" rx="1.7"/><g class="cls-8"><path class="cls-9" d="M101.49,160.49a11.56,11.56,0,0,1-3.35,1.63l-3.47,1.26-7,2.51-13.91,5-14,4.91-7,2.42-3.49,1.21a11.5,11.5,0,0,1-3.68.7.36.36,0,0,1-.36-.36.37.37,0,0,1,.14-.28,11.36,11.36,0,0,1,3.29-1.79l3.47-1.27,6.94-2.55,13.91-5L87,164l7-2.46,3.49-1.23a11.82,11.82,0,0,1,3.62-.85.59.59,0,0,1,.61.58A.64.64,0,0,1,101.49,160.49Z"/></g><g class="cls-8"><path class="cls-9" d="M51.74,140.76a25.87,25.87,0,0,1,6.15,1.36l6,1.9c4,1.26,7.95,2.58,11.92,3.87s7.93,2.65,11.88,4l5.93,2a26.09,26.09,0,0,1,5.75,2.57.44.44,0,0,1,.13.6.43.43,0,0,1-.39.2A25.83,25.83,0,0,1,92.93,156l-6-1.88c-4-1.23-8-2.54-11.94-3.81s-7.94-2.61-11.9-4l-5.93-2a25.92,25.92,0,0,1-5.76-2.56.54.54,0,0,1-.16-.73A.56.56,0,0,1,51.74,140.76Z"/></g><line class="cls-7" x1="42.45" y1="230.12" x2="42.45" y2="138.24"/><g class="cls-8"><path class="cls-9" d="M98,210.65a126.68,126.68,0,0,1-12.79,5.11l-12.92,4.76-13,4.62-6.49,2.31a29.49,29.49,0,0,1-6.64,1.87.55.55,0,0,1-.6-.49.52.52,0,0,1,.24-.51,29.52,29.52,0,0,1,6.3-2.81l6.47-2.36,12.93-4.72,13-4.58c4.35-1.48,8.6-3.22,13.11-4.23a.55.55,0,0,1,.37,1Z"/></g><g class="cls-8"><path class="cls-9" d="M47.24,182.08a47.75,47.75,0,0,1,6.92,2.55L61,187.49l13.57,5.72L88,199.07,94.79,202a29.84,29.84,0,0,1,6.56,3.4.59.59,0,0,1,.1.83.58.58,0,0,1-.56.22,30.13,30.13,0,0,1-7-2.42l-6.77-2.9L73.6,195.34l-13.49-5.92-6.74-3a47.81,47.81,0,0,1-6.61-3.28.61.61,0,0,1-.19-.84A.63.63,0,0,1,47.24,182.08Z"/></g><g class="cls-8"><path class="cls-9" d="M46.6,208.81c2.77-.06,5.11,1.1,7.57,1.9l7.32,2.58,14.65,5.17,14.6,5.28c4.85,1.81,9.72,3.58,14.55,5.43l-1.34,1V138.24a1,1,0,0,1,2,0v91.88a1,1,0,0,1-1,1,.81.81,0,0,1-.31-.06h0c-4.9-1.66-9.78-3.39-14.67-5.09l-14.62-5.24-14.58-5.35-7.29-2.68c-2.4-.95-4.94-1.55-7-3.36a.31.31,0,0,1,0-.42A.33.33,0,0,1,46.6,208.81Z"/></g><g class="cls-8"><path class="cls-9" d="M101.25,182.69a31.77,31.77,0,0,1-6.49,3.37L88.1,189l-13.34,5.87c-4.46,1.92-8.92,3.85-13.4,5.72l-6.72,2.83a36.58,36.58,0,0,1-7,2.24.36.36,0,0,1-.28-.65,36.5,36.5,0,0,1,6.42-3.52l6.67-2.94c4.43-2,8.9-3.88,13.36-5.81l13.43-5.66L94,184.26a32.22,32.22,0,0,1,6.9-2.4.48.48,0,0,1,.54.38A.47.47,0,0,1,101.25,182.69Z"/></g><g class="cls-8"><path class="cls-9" d="M48.61,160.36a26.56,26.56,0,0,1,6.45,1.71l6.27,2.19,12.53,4.44,12.48,4.58,6.24,2.29a33.43,33.43,0,0,1,6.09,2.72.45.45,0,0,1,.14.61.42.42,0,0,1-.43.2A31.64,31.64,0,0,1,92,177.35l-6.28-2.19L73.11,170.8l-12.5-4.51L54.36,164a26.52,26.52,0,0,1-6.06-2.78.47.47,0,0,1-.13-.66A.49.49,0,0,1,48.61,160.36Z"/></g><g class="cls-8"><path class="cls-9" d="M96.06,141.81a31.2,31.2,0,0,1-6,2.49l-6.15,2.06-12.31,4.13c-4.12,1.33-8.23,2.69-12.37,4L53,156.42a23.88,23.88,0,0,1-6.38,1.37.35.35,0,0,1-.22-.65,24.06,24.06,0,0,1,5.95-2.69l6.15-2.11c4.08-1.42,8.2-2.76,12.3-4.14l12.36-4,6.18-2a31.44,31.44,0,0,1,6.32-1.58.63.63,0,0,1,.69.56A.61.61,0,0,1,96.06,141.81Z"/></g><g class="cls-8"><path class="cls-9" d="M161.92,210.38c-1.93,1.43-4.18,2-6.33,2.84l-6.51,2.35-13,4.71L123,224.83l-6.53,2.28a43.31,43.31,0,0,1-6.7,1.83.56.56,0,0,1-.65-.46.56.56,0,0,1,.28-.58,42.11,42.11,0,0,1,6.32-2.86l6.49-2.42,13-4.84,13-4.69,6.51-2.34c2.19-.74,4.28-1.73,6.69-1.86a.82.82,0,0,1,.53,1.49Z"/></g><g class="cls-8"><path class="cls-9" d="M110.38,182.7a26.25,26.25,0,0,1,7,2.21l6.73,2.82c4.49,1.85,8.94,3.79,13.41,5.69l13.35,5.84,6.68,2.93a30,30,0,0,1,6.48,3.36.55.55,0,0,1-.42,1,30.49,30.49,0,0,1-6.9-2.4L150,201.28l-13.42-5.68c-4.45-1.94-8.92-3.84-13.35-5.83l-6.67-3a25.94,25.94,0,0,1-6.4-3.54.33.33,0,0,1,0-.46A.35.35,0,0,1,110.38,182.7Z"/></g><g class="cls-8"><path class="cls-9" d="M161.86,161.34a50.77,50.77,0,0,1-6.27,2.54l-6.35,2.28-12.72,4.58-12.75,4.47-6.38,2.23c-2.14.7-4.19,1.66-6.52,1.84a.46.46,0,0,1-.5-.43.48.48,0,0,1,.2-.42c1.91-1.33,4.11-1.88,6.21-2.7l6.35-2.3,12.7-4.62,12.75-4.5,6.37-2.25a49.3,49.3,0,0,1,6.46-2,.68.68,0,0,1,.81.53A.7.7,0,0,1,161.86,161.34Z"/></g><g class="cls-8"><path class="cls-9" d="M114.56,141a35.69,35.69,0,0,1,6.26,1.5l6.11,1.94,12.23,3.88,12.19,4,6.09,2a40.77,40.77,0,0,1,5.95,2.42.7.7,0,0,1,.3,1,.68.68,0,0,1-.73.37,41,41,0,0,1-6.24-1.58l-6.09-2-12.2-4-12.15-4.14-6.07-2.07a36.61,36.61,0,0,1-5.93-2.51.45.45,0,0,1-.17-.61A.44.44,0,0,1,114.56,141Z"/></g><g class="cls-8"><path class="cls-9" d="M166.37,230.12l-.15-21.46,0-21.46.06-21.46,0-10.73,0-5.37a21.28,21.28,0,0,1,.59-5.36.5.5,0,0,1,.61-.36.52.52,0,0,1,.36.36,21.27,21.27,0,0,1,.58,5.36l0,5.37,0,10.73.06,21.46,0,21.46-.16,21.46a1,1,0,0,1-1,1A1,1,0,0,1,166.37,230.12Z"/></g><g class="cls-8"><path class="cls-9" d="M110.85,209.2a38.59,38.59,0,0,1,6.84,2l6.7,2.36,13.4,4.71,13.35,4.86,6.67,2.43a27.16,27.16,0,0,1,6.49,2.92.56.56,0,0,1,.14.77.57.57,0,0,1-.5.24,27.63,27.63,0,0,1-6.87-1.89l-6.69-2.38L137,220.42l-13.32-4.91L117,213.05a38.31,38.31,0,0,1-6.52-2.84.55.55,0,0,1-.19-.75A.56.56,0,0,1,110.85,209.2Z"/></g><g class="cls-8"><path class="cls-9" d="M160.71,184.13c-1.78,1.6-4,2.21-6,3.19L148.45,190,136,195.41l-12.53,5.26-6.27,2.63a36.9,36.9,0,0,1-6.44,2.24.49.49,0,0,1-.59-.38.49.49,0,0,1,.21-.51,36.51,36.51,0,0,1,6-3.13l6.22-2.74,12.45-5.47L147.55,188l6.27-2.65c2.11-.81,4.07-2,6.46-2.17a.57.57,0,0,1,.62.53A.59.59,0,0,1,160.71,184.13Z"/></g><g class="cls-8"><path class="cls-9" d="M112.1,160.75a28.51,28.51,0,0,1,6.63,1.66l6.43,2.21c4.28,1.47,8.55,3,12.82,4.52l12.78,4.67a110.55,110.55,0,0,1,12.62,5.09.58.58,0,0,1,.25.79.6.6,0,0,1-.64.31A110,110,0,0,1,150,176l-12.84-4.47c-4.27-1.53-8.54-3-12.79-4.62L118,164.51a28.31,28.31,0,0,1-6.18-2.91.46.46,0,0,1-.13-.64A.47.47,0,0,1,112.1,160.75Z"/></g><g class="cls-8"><path class="cls-9" d="M159,141.27a11.22,11.22,0,0,1-3,1.41l-3.1,1.06-6.2,2.11-12.39,4.21-12.42,4.1-6.22,2.05a28.45,28.45,0,0,1-6.34,1.66.55.55,0,0,1-.6-.51.56.56,0,0,1,.25-.51,28.55,28.55,0,0,1,6.07-2.5l6.19-2.12L133.64,148l12.42-4.12,6.22-2,3.1-1a11.26,11.26,0,0,1,3.23-.67.63.63,0,0,1,.38,1.14Z"/></g><rect class="cls-7" x="186.61" y="133.03" width="133.09" height="5.26" rx="1.7"/><g class="cls-8"><path class="cls-9" d="M248.12,160.49a11.5,11.5,0,0,1-3.34,1.63l-3.48,1.26-7,2.51-13.92,5-14,4.91-7,2.42-3.5,1.21a11.39,11.39,0,0,1-3.67.7.36.36,0,0,1-.23-.64,11.49,11.49,0,0,1,3.29-1.79l3.47-1.27,7-2.55,13.9-5,14-4.91,7-2.46,3.49-1.23a11.89,11.89,0,0,1,3.62-.85.59.59,0,0,1,.61.58A.58.58,0,0,1,248.12,160.49Z"/></g><g class="cls-8"><path class="cls-9" d="M198.38,140.76a25.87,25.87,0,0,1,6.15,1.36l6,1.9c4,1.26,7.95,2.58,11.93,3.87s7.93,2.65,11.87,4l5.93,2a25.69,25.69,0,0,1,5.75,2.57.43.43,0,0,1,.13.6.42.42,0,0,1-.39.2,25.86,25.86,0,0,1-6.15-1.35l-6-1.88c-4-1.23-8-2.54-11.94-3.81s-7.94-2.61-11.89-4l-5.94-2a25.65,25.65,0,0,1-5.75-2.56.52.52,0,0,1-.16-.73A.54.54,0,0,1,198.38,140.76Z"/></g><line class="cls-7" x1="189.08" y1="230.12" x2="189.08" y2="138.24"/><g class="cls-8"><path class="cls-9" d="M244.67,210.65a126.68,126.68,0,0,1-12.79,5.11L219,220.52l-13,4.62-6.48,2.31a29.57,29.57,0,0,1-6.65,1.87.55.55,0,0,1-.36-1,29.38,29.38,0,0,1,6.31-2.81l6.46-2.36,12.94-4.72,13-4.58c4.34-1.48,8.59-3.22,13.11-4.23a.55.55,0,0,1,.37,1Z"/></g><g class="cls-8"><path class="cls-9" d="M193.87,182.08a48.31,48.31,0,0,1,6.93,2.55l6.78,2.86,13.57,5.72,13.52,5.86,6.76,2.93a30,30,0,0,1,6.55,3.4.59.59,0,0,1-.45,1,29.81,29.81,0,0,1-7-2.42l-6.78-2.9-13.54-5.79-13.49-5.92-6.74-3a47.81,47.81,0,0,1-6.61-3.28.6.6,0,0,1-.19-.84A.61.61,0,0,1,193.87,182.08Z"/></g><g class="cls-8"><path class="cls-9" d="M193.24,208.81c2.77-.06,5.1,1.1,7.57,1.9l7.32,2.58,14.64,5.17,14.61,5.28c4.85,1.81,9.71,3.58,14.54,5.43l-1.33,1V138.24a1,1,0,0,1,2,0v91.88a1,1,0,0,1-1,1,.87.87,0,0,1-.32-.06h0c-4.91-1.66-9.79-3.39-14.67-5.09L222,220.73l-14.57-5.35-7.29-2.68c-2.41-.95-4.94-1.55-7-3.36a.29.29,0,0,1,0-.42A.31.31,0,0,1,193.24,208.81Z"/></g><g class="cls-8"><path class="cls-9" d="M247.88,182.69a31.44,31.44,0,0,1-6.48,3.37L234.73,189l-13.34,5.87c-4.46,1.92-8.92,3.85-13.4,5.72l-6.72,2.83a36.48,36.48,0,0,1-7,2.24.36.36,0,0,1-.43-.29A.34.34,0,0,1,194,205a36.42,36.42,0,0,1,6.41-3.52l6.67-2.94c4.44-2,8.91-3.88,13.36-5.81l13.44-5.66,6.71-2.82a32.3,32.3,0,0,1,6.91-2.4.46.46,0,0,1,.53.38A.45.45,0,0,1,247.88,182.69Z"/></g><g class="cls-8"><path class="cls-9" d="M195.24,160.36a26.56,26.56,0,0,1,6.45,1.71l6.28,2.19,12.53,4.44L233,173.28l6.24,2.29a33.13,33.13,0,0,1,6.09,2.72.45.45,0,0,1,.15.61.44.44,0,0,1-.44.2,32,32,0,0,1-6.43-1.75l-6.28-2.19-12.55-4.36-12.51-4.51L201,164a26.79,26.79,0,0,1-6.07-2.78.48.48,0,0,1,.31-.87Z"/></g><g class="cls-8"><path class="cls-9" d="M242.7,141.81a31.73,31.73,0,0,1-6,2.49l-6.16,2.06-12.31,4.13c-4.12,1.33-8.23,2.69-12.36,4l-6.19,1.95a24,24,0,0,1-6.39,1.37.35.35,0,0,1-.37-.34.34.34,0,0,1,.16-.31,23.89,23.89,0,0,1,5.95-2.69l6.14-2.11c4.09-1.42,8.21-2.76,12.31-4.14l12.36-4,6.17-2a31.44,31.44,0,0,1,6.32-1.58.64.64,0,0,1,.7.56A.61.61,0,0,1,242.7,141.81Z"/></g><g class="cls-8"><path class="cls-9" d="M308.56,210.38c-1.94,1.43-4.18,2-6.34,2.84l-6.5,2.35-13,4.71-13.07,4.55-6.54,2.28a43.19,43.19,0,0,1-6.69,1.83.56.56,0,0,1-.65-.46.54.54,0,0,1,.27-.58,42.22,42.22,0,0,1,6.33-2.86l6.48-2.42,13-4.84,13-4.69,6.52-2.34c2.18-.74,4.28-1.73,6.68-1.86a.83.83,0,0,1,.54,1.49Z"/></g><g class="cls-8"><path class="cls-9" d="M257,182.7a26.32,26.32,0,0,1,7,2.21l6.72,2.82c4.49,1.85,8.94,3.79,13.42,5.69l13.35,5.84,6.67,2.93a30.07,30.07,0,0,1,6.49,3.36.54.54,0,0,1,.09.76.53.53,0,0,1-.51.21,30.49,30.49,0,0,1-6.9-2.4l-6.71-2.84-13.42-5.68c-4.46-1.94-8.93-3.84-13.36-5.83l-6.66-3a25.82,25.82,0,0,1-6.41-3.54.32.32,0,0,1,0-.46A.33.33,0,0,1,257,182.7Z"/></g><g class="cls-8"><path class="cls-9" d="M308.5,161.34a51.41,51.41,0,0,1-6.27,2.54l-6.36,2.28-12.72,4.58-12.75,4.47L264,177.44c-2.14.7-4.19,1.66-6.52,1.84a.47.47,0,0,1-.3-.85c1.92-1.33,4.11-1.88,6.21-2.7l6.35-2.3,12.71-4.62,12.74-4.5,6.37-2.25a49.78,49.78,0,0,1,6.46-2,.69.69,0,0,1,.46,1.28Z"/></g><g class="cls-8"><path class="cls-9" d="M261.19,141a35.69,35.69,0,0,1,6.26,1.5l6.12,1.94,12.23,3.88,12.18,4,6.09,2a40.89,40.89,0,0,1,6,2.42.71.71,0,0,1-.44,1.33,40.9,40.9,0,0,1-6.23-1.58l-6.1-2-12.19-4-12.15-4.14-6.07-2.07a36.24,36.24,0,0,1-5.93-2.51.45.45,0,0,1-.18-.61A.45.45,0,0,1,261.19,141Z"/></g><g class="cls-8"><path class="cls-9" d="M313,230.12l-.16-21.46,0-21.46.06-21.46,0-10.73v-5.37a21.75,21.75,0,0,1,.59-5.36.5.5,0,0,1,.61-.36.49.49,0,0,1,.36.36,21.75,21.75,0,0,1,.59,5.36l0,5.37,0,10.73.06,21.46,0,21.46L315,230.12a1,1,0,0,1-1,1A1,1,0,0,1,313,230.12Z"/></g><g class="cls-8"><path class="cls-9" d="M257.49,209.2a38.84,38.84,0,0,1,6.84,2l6.7,2.36,13.4,4.71,13.34,4.86,6.67,2.43a27.23,27.23,0,0,1,6.5,2.92.55.55,0,0,1,.13.77.56.56,0,0,1-.5.24,27.56,27.56,0,0,1-6.86-1.89L297,225.18l-13.38-4.76-13.33-4.91-6.66-2.46a38,38,0,0,1-6.52-2.84.54.54,0,0,1-.19-.75A.56.56,0,0,1,257.49,209.2Z"/></g><g class="cls-8"><path class="cls-9" d="M307.35,184.13c-1.78,1.6-4,2.21-6,3.19L295.09,190l-12.49,5.37-12.54,5.26-6.27,2.63a36.9,36.9,0,0,1-6.44,2.24.49.49,0,0,1-.38-.89,36.91,36.91,0,0,1,6-3.13l6.23-2.74,12.44-5.47,12.5-5.36,6.26-2.65c2.12-.81,4.08-2,6.46-2.17a.57.57,0,0,1,.62.53A.58.58,0,0,1,307.35,184.13Z"/></g><g class="cls-8"><path class="cls-9" d="M258.73,160.75a28.38,28.38,0,0,1,6.63,1.66l6.43,2.21c4.29,1.47,8.56,3,12.83,4.52l12.77,4.67A109.09,109.09,0,0,1,310,178.9a.59.59,0,0,1-.39,1.1,109.81,109.81,0,0,1-13-4.05l-12.85-4.47c-4.27-1.53-8.54-3-12.79-4.62l-6.38-2.35a28.31,28.31,0,0,1-6.18-2.91.47.47,0,0,1-.13-.64A.48.48,0,0,1,258.73,160.75Z"/></g><g class="cls-8"><path class="cls-9" d="M305.63,141.27a11.28,11.28,0,0,1-3,1.41l-3.1,1.06-6.19,2.11L281,150.06l-12.43,4.1-6.21,2.05a28.54,28.54,0,0,1-6.35,1.66.55.55,0,0,1-.6-.51.57.57,0,0,1,.26-.51,28.47,28.47,0,0,1,6.06-2.5l6.19-2.12L280.28,148l12.42-4.12,6.21-2,3.11-1a11.12,11.12,0,0,1,3.22-.67.63.63,0,0,1,.65.61A.65.65,0,0,1,305.63,141.27Z"/></g><line class="cls-6" x1="308.54" y1="232.78" x2="314.15" y2="232.78"/><path class="cls-1" d="M308.54,232.07a7.34,7.34,0,0,1,2.8-.39,14.09,14.09,0,0,1,2.81.28.84.84,0,0,1,.65,1,.86.86,0,0,1-.65.65,14.09,14.09,0,0,1-2.81.28,7.34,7.34,0,0,1-2.8-.39.75.75,0,0,1-.44-1A.74.74,0,0,1,308.54,232.07Z"/><line class="cls-6" x1="52.39" y1="232.78" x2="304.41" y2="232.78"/><path class="cls-1" d="M52.39,232.1c10.5-.3,21-.35,31.51-.34l31.5,0,63,0,63-.05,31.5,0c10.5,0,21,0,31.5.3a.88.88,0,0,1,0,1.76c-10.5.26-21,.29-31.5.3l-31.5,0-63-.05-63,0-31.5,0c-10.5,0-21,0-31.51-.34a.68.68,0,0,1,0-1.36Z"/><line class="cls-6" x1="46.19" y1="232.78" x2="47.01" y2="232.78"/><path class="cls-1" d="M46.19,231.78a1.87,1.87,0,0,1,.41,0,.8.8,0,0,1,.21.05.52.52,0,0,1,.2.09,1,1,0,0,1,.28,1.44.93.93,0,0,1-.28.28.52.52,0,0,1-.2.09.8.8,0,0,1-.21.05,1.87,1.87,0,0,1-.41,0,1,1,0,0,1-.77-1.22A1,1,0,0,1,46.19,231.78Z"/><line class="cls-6" x1="36.1" y1="232.78" x2="40.19" y2="232.78"/><path class="cls-1" d="M36.1,232.05a9.52,9.52,0,0,1,2-.27,5.93,5.93,0,0,1,2,.19.86.86,0,0,1,.56,1.06.89.89,0,0,1-.56.56,5.93,5.93,0,0,1-2,.19,9.52,9.52,0,0,1-2-.27.76.76,0,0,1-.54-.92A.77.77,0,0,1,36.1,232.05Z"/><line class="cls-6" x1="149.38" y1="246.19" x2="228.04" y2="246.19"/><path class="cls-1" d="M149.38,245.51c3.28-.31,6.56-.35,9.83-.36l9.84-.05,19.66-.1h29.5c3.27,0,6.55,0,9.83.3a.87.87,0,0,1,.81.95.9.9,0,0,1-.81.81c-3.28.26-6.56.28-9.83.3h-29.5l-19.66-.1-9.84-.05c-3.27,0-6.55-.05-9.83-.36a.68.68,0,0,1,0-1.35Z"/><line class="cls-6" x1="117.02" y1="246.19" x2="137.17" y2="246.19"/><path class="cls-1" d="M117,245.46c3.36-.18,6.72-.24,10.08-.27s6.71,0,10.07.19a.81.81,0,0,1,0,1.61c-3.36.22-6.71.23-10.07.2s-6.72-.1-10.08-.28a.73.73,0,0,1,0-1.45Z"/><circle class="cls-3" cx="273.35" cy="119.91" r="1.91"/><path class="cls-10" d="M84.53,233.39H83.6a12.81,12.81,0,0,1-12.81-12.82v-4.22H87.61v-95a8.13,8.13,0,0,1,8.12-8.12h12.15l27.77,83.31-25.24,27.14Z"/><path class="cls-11" d="M244.6,106.84h33.94a8,8,0,0,1,8,8V223.73H97V114.79a8,8,0,0,1,8-8H244.6Z"/><path class="cls-1" d="M288.1,221.76v2.47a1.5,1.5,0,0,1-1.5,1.5H97.07a1.51,1.51,0,0,1-1.5-1.49h0q-.09-15.31.06-30.63c0-5.11.09-10.22.18-15.32s.23-10.21.43-15.32a.84.84,0,0,1,1.67,0q.3,7.66.43,15.32c.09,5.1.16,10.21.18,15.32q.15,15.32,0,30.63l-1.5-1.5H286.6l-1.5,1.5v-2.47a1.5,1.5,0,0,1,3,0Z"/><path class="cls-1" d="M244.7,106.8c5.84-.2,11.68-.34,17.52-.46l8.77-.16,4.38-.06,2.19,0h1.09a8.93,8.93,0,0,1,1.27.08,9.19,9.19,0,0,1,7.55,6.11,9,9,0,0,1,.5,2.51c0,.46,0,.81,0,1.17v1.1l0,4.38c0,5.84.12,11.68.11,17.53,0,11.68-.06,23.36-.2,35,0,5.84-.15,11.68-.27,17.52s-.26,11.69-.45,17.53a.65.65,0,0,1-.66.63.65.65,0,0,1-.63-.63c-.18-5.84-.34-11.68-.44-17.53s-.22-11.68-.27-17.52c-.14-11.69-.24-23.37-.2-35,0-5.85.07-11.69.11-17.53l0-4.38V116c0-.37,0-.74,0-1a5.94,5.94,0,0,0-.32-1.77,6.65,6.65,0,0,0-5.29-4.47,7,7,0,0,0-.92-.09l-1.09,0-2.19,0-4.38-.06-8.77-.16c-5.84-.11-11.68-.25-17.52-.45a.55.55,0,0,1-.53-.56A.54.54,0,0,1,244.7,106.8Z"/><path class="cls-1" d="M96.69,148.2a102.84,102.84,0,0,1-.88-10.77c-.13-3.58,0-7.17-.07-10.76l0-10.77v-.68l0-.79a11.72,11.72,0,0,1,.28-1.55,9.37,9.37,0,0,1,6.3-6.54,10.39,10.39,0,0,1,3.07-.41h8.07l10.77,0,21.53,0c14.36,0,28.71-.07,43.07,0s28.71.35,43.06.69a.76.76,0,0,1,0,1.51q-21.52.52-43.06.69c-14.36.11-28.71,0-43.07,0l-21.53,0-10.77,0-5.38,0h-2.69a10.12,10.12,0,0,0-1.17.06,6.79,6.79,0,0,0-1.09.22,6.66,6.66,0,0,0-3.52,2.56,6.93,6.93,0,0,0-.93,2,8,8,0,0,0-.2,1.09l0,.56v.66l0,10.77c0,3.59.06,7.18-.07,10.76a102.84,102.84,0,0,1-.88,10.77.39.39,0,0,1-.44.33A.4.4,0,0,1,96.69,148.2Z"/><path class="cls-1" d="M95.57,156.41c0-.33,0-.67,0-1a1.49,1.49,0,0,1,3,0,8.35,8.35,0,0,1,0,1,1.5,1.5,0,1,1-3,.11Z"/><path class="cls-11" d="M300.77,217.29v5.31a6.85,6.85,0,0,1,0,.91,10.08,10.08,0,0,1-10,9.18H93a10.08,10.08,0,0,1-10-9.18,6.85,6.85,0,0,1,0-.91v-5.31h86.76a3.51,3.51,0,0,0,3.52,3.42H210.5a3.57,3.57,0,0,0,2.49-1,3.48,3.48,0,0,0,1-2.39Z"/><line class="cls-12" x1="240.73" y1="217.28" x2="241.47" y2="217.28"/><path class="cls-13" d="M294.6,223.51a3.89,3.89,0,0,1,2.52,6.86,10.05,10.05,0,0,1-6.44,2.32H93a10.05,10.05,0,0,1-6.44-2.32,3.89,3.89,0,0,1,2.52-6.86Z"/><path class="cls-1" d="M82.05,223.61a25.35,25.35,0,0,1-.43-3.36c-.05-.55-.08-1.05-.11-1.66A2.79,2.79,0,0,1,83.28,216a2.58,2.58,0,0,1,.82-.19l.5,0,.81,0,1.63-.05c1.09,0,2.18-.07,3.26-.05,2.17,0,4.35.06,6.52.18a38.5,38.5,0,0,1,6.52.93.51.51,0,0,1,.38.63.51.51,0,0,1-.38.38,38.5,38.5,0,0,1-6.52.93c-2.17.12-4.35.19-6.52.18-1.08,0-2.17,0-3.26-.05l-1.63,0-.81,0h-.32l0,0a.05.05,0,0,0,0-.08l-.11,1.59L84,221.88l-.1.81c0,.23,0,.48-.09.72l0,.15a.91.91,0,0,1-1,.75A.89.89,0,0,1,82.05,223.61Z"/><path class="cls-1" d="M208.33,220l1.9-.19a2.63,2.63,0,0,0,.74-.14,2.18,2.18,0,0,0,.59-.3,2.23,2.23,0,0,0,.8-1,2.08,2.08,0,0,0,.16-1.12h0v-.06a1.5,1.5,0,0,1,1.5-1.4l78,.15h7.32a2.83,2.83,0,0,1,2.06.94,2.92,2.92,0,0,1,.57,1,2.62,2.62,0,0,1,.12.57l0,.28v3.82c0,.44,0,.93-.09,1.38a11.15,11.15,0,0,1-1.92,5.1,11.42,11.42,0,0,1-9.36,5H242l-78,0-39-.05-19.5,0H93.32a10.7,10.7,0,0,1-2.67-.26,8.47,8.47,0,0,1-4.54-2.72.7.7,0,0,1,.09-1,.72.72,0,0,1,.78-.09h0a14.19,14.19,0,0,0,4.15,1.49,10.24,10.24,0,0,0,2.18.18H105.5l19.5,0,39-.05,78,0h48.74a8.78,8.78,0,0,0,7.18-3.82,8.63,8.63,0,0,0,1.47-3.93c.06-.36,0-.69.07-1.05v-3.81h0v0s0,0,0-.05a.13.13,0,0,0-.1,0H292l-78,.16,1.5-1.47h0a4.93,4.93,0,0,1-1,2.47,4.77,4.77,0,0,1-2,1.54,4.61,4.61,0,0,1-1.2.31,4.75,4.75,0,0,1-1.14,0l-1.9-.18a.75.75,0,0,1,0-1.5Z"/><path class="cls-1" d="M112.39,216.39c4.78-.46,9.55-.57,14.32-.6l14.31-.1c4.78,0,9.55,0,14.32,0s9.54,0,14.32.11a1.51,1.51,0,0,1,1.49,1.43v0a2,2,0,0,0,1.29,1.75,3.12,3.12,0,0,0,1.42.13h2l8.15.05,8.16.16c2.71.08,5.43,0,8.15.75a.65.65,0,0,1,.43.8.64.64,0,0,1-.43.43c-2.72.8-5.44.68-8.15.75l-8.16.17-8.15,0h-2c-.36,0-.62,0-1.17,0a5.29,5.29,0,0,1-1.42-.36,5,5,0,0,1-3.11-4.57l1.5,1.47q-7.17.09-14.32.1c-4.77,0-9.54,0-14.32,0l-14.31-.1c-4.77,0-9.54-.14-14.32-.6a.9.9,0,0,1,0-1.79Z"/><path class="cls-14" d="M248.94,120.33c0,.7-.08,1.4-.11,2.1"/><path class="cls-15" d="M258.69,130.32v10.27c-1.73.89-2.65,1.39-4.42.46-2-1.06-1.74-2.54-4-.85s-5.24,2.75-7,1.7-3.22-1.27-6.19,1.21-4,1.91-5.29-1.43c-.89-2.26-1.19-1.26-3.16,0V130.32Z"/><polyline class="cls-7" points="259.69 201.48 259.69 210.14 227.6 210.14 227.6 141.7 227.6 129.49 227.6 129.32 227.67 129.32 259.69 129.32 259.69 140.59 259.69 181.79"/><polyline class="cls-7" points="219.58 156.76 219.58 160.1 161.23 160.1 161.23 128.93 219.58 128.93 219.58 149.17"/><polyline class="cls-7" points="156.53 139.73 156.53 141.02 109.87 141.02 109.87 128.93 156.53 128.93 156.53 136.78"/><polyline class="cls-7" points="156.39 206.1 156.39 209.76 109.35 209.76 109.35 175.59 156.39 175.59 156.39 197.78"/><g class="cls-8"><path class="cls-9" d="M115.75,183.45a72.18,72.18,0,0,1,8.3-.48h8.3c2.76,0,5.53.06,8.3.1s5.53.13,8.29.23a.66.66,0,0,1,.63.68.65.65,0,0,1-.63.62c-2.76.11-5.53.2-8.29.23s-5.54.11-8.3.1l-8.3,0a70,70,0,0,1-8.3-.49.51.51,0,0,1,0-1Z"/></g><g class="cls-8"><path class="cls-9" d="M115.75,189.13a72.18,72.18,0,0,1,8.3-.48h8.3c2.76,0,5.53.06,8.3.1s5.53.13,8.29.23a.66.66,0,0,1,.63.68.65.65,0,0,1-.63.62c-2.76.11-5.53.2-8.29.24s-5.54.11-8.3.09l-8.3,0a70,70,0,0,1-8.3-.49.5.5,0,0,1-.44-.57A.51.51,0,0,1,115.75,189.13Z"/></g><g class="cls-8"><path class="cls-9" d="M142,194.82a3.52,3.52,0,0,1,1.75-.49c.58,0,1.16,0,1.74,0a21.61,21.61,0,0,1,3.49.35.66.66,0,0,1,0,1.3,22.79,22.79,0,0,1-3.49.34c-.58,0-1.16,0-1.74,0a3.52,3.52,0,0,1-1.75-.49.59.59,0,0,1-.19-.82A.57.57,0,0,1,142,194.82Z"/></g><g class="cls-8"><path class="cls-9" d="M115.75,194.82a23.8,23.8,0,0,1,4.81-.49c1.61,0,3.21,0,4.82,0s3.21.07,4.81.11,3.21.13,4.82.24a.64.64,0,0,1,.6.69.65.65,0,0,1-.6.61c-1.61.1-3.21.19-4.82.23s-3.21.1-4.81.11-3.21,0-4.82,0a23.8,23.8,0,0,1-4.81-.49.52.52,0,0,1-.4-.62A.53.53,0,0,1,115.75,194.82Z"/></g><g class="cls-8"><path class="cls-9" d="M138,200.5a8.06,8.06,0,0,1,2.75-.49c.91,0,1.83,0,2.74,0a53.22,53.22,0,0,1,5.49.34.66.66,0,0,1,.58.72.67.67,0,0,1-.58.58c-1.83.21-3.66.31-5.49.34-.91,0-1.83,0-2.74,0a8,8,0,0,1-2.75-.48.55.55,0,0,1-.31-.71A.53.53,0,0,1,138,200.5Z"/></g><g class="cls-8"><path class="cls-9" d="M115.75,200.5a20.25,20.25,0,0,1,4.43-.49c1.48,0,3,0,4.44,0s2.95.06,4.43.1,2.95.13,4.43.24a.66.66,0,0,1,.61.69.66.66,0,0,1-.61.61c-1.48.1-2.95.19-4.43.23s-3,.1-4.43.11-3,0-4.44,0a20.23,20.23,0,0,1-4.43-.48.53.53,0,0,1-.39-.64A.52.52,0,0,1,115.75,200.5Z"/></g><g class="cls-8"><path class="cls-9" d="M247.42,166.51a2.7,2.7,0,0,1,1.5-.49c.5,0,1,0,1.5,0a16.13,16.13,0,0,1,3,.34.66.66,0,0,1,.51.79.67.67,0,0,1-.51.51,17,17,0,0,1-3,.34c-.5,0-1,0-1.5,0a2.76,2.76,0,0,1-1.5-.48.64.64,0,0,1-.15-.88Z"/></g><g class="cls-8"><path class="cls-9" d="M233,166.51a9.34,9.34,0,0,1,3-.49c1,0,2,0,3,0,2,0,4,.12,5.93.34a.65.65,0,0,1,.58.72.67.67,0,0,1-.58.58c-2,.21-4,.31-5.93.34-1,0-2,0-3,0a9.61,9.61,0,0,1-3-.48.55.55,0,0,1-.32-.7A.56.56,0,0,1,233,166.51Z"/></g><g class="cls-8"><path class="cls-9" d="M243.08,171.61a7.13,7.13,0,0,1,2.58-.48c.87,0,1.73,0,2.59,0a49.85,49.85,0,0,1,5.17.34.65.65,0,0,1,0,1.3,47.23,47.23,0,0,1-5.17.34c-.86,0-1.72,0-2.59,0a7.15,7.15,0,0,1-2.58-.49.55.55,0,0,1-.3-.72A.59.59,0,0,1,243.08,171.61Z"/></g><g class="cls-8"><path class="cls-9" d="M233,171.61a3.75,3.75,0,0,1,1.81-.48c.6,0,1.21,0,1.81,0a24.49,24.49,0,0,1,3.61.34.67.67,0,0,1,.54.77.66.66,0,0,1-.54.53,23.2,23.2,0,0,1-3.61.34c-.6,0-1.21,0-1.81,0a3.76,3.76,0,0,1-1.81-.49.59.59,0,0,1-.2-.81A.58.58,0,0,1,233,171.61Z"/></g><g class="cls-8"><path class="cls-9" d="M233,183a26.9,26.9,0,0,1,5.12-.49c1.7,0,3.4,0,5.11,0s3.41.06,5.11.1,3.41.13,5.11.24a.65.65,0,0,1,0,1.3c-1.7.1-3.41.19-5.11.23s-3.41.1-5.11.11-3.41,0-5.11,0A27.73,27.73,0,0,1,233,184a.52.52,0,0,1,0-1Z"/></g><g class="cls-8"><path class="cls-9" d="M249.53,188.1a1.42,1.42,0,0,1,1-.48c.33,0,.65,0,1,0a7.33,7.33,0,0,1,1.94.34.69.69,0,0,1,.44.87.67.67,0,0,1-.44.43,6.94,6.94,0,0,1-1.94.34,8,8,0,0,1-1,0,1.4,1.4,0,0,1-1-.49A.78.78,0,0,1,249.53,188.1Z"/></g><g class="cls-8"><path class="cls-9" d="M233,188.1a12.3,12.3,0,0,1,3.37-.48c1.12,0,2.24,0,3.36,0,2.24,0,4.48.13,6.72.34a.67.67,0,0,1,.59.72.65.65,0,0,1-.59.58c-2.24.22-4.48.31-6.72.34-1.12,0-2.24,0-3.36,0a12,12,0,0,1-3.37-.49.53.53,0,0,1-.34-.67A.56.56,0,0,1,233,188.1Z"/></g><g class="cls-8"><path class="cls-9" d="M233,193.21a27.74,27.74,0,0,1,5.12-.49c1.7,0,3.4,0,5.11,0s3.41.07,5.11.11,3.41.12,5.11.23a.65.65,0,0,1,0,1.3c-1.7.1-3.41.2-5.11.23s-3.41.11-5.11.11-3.41,0-5.11,0a27.74,27.74,0,0,1-5.12-.49.52.52,0,0,1,0-1Z"/></g><g class="cls-8"><path class="cls-9" d="M165.19,156.4a22.21,22.21,0,0,1,3.28-3.36L172,150c1.17-1,2.38-2,3.56-3s2.4-2,3.62-2.95a1,1,0,0,1,1.21-.06h0c2.37,1.56,4.68,3.19,7,4.83l3.44,2.51a14.52,14.52,0,0,1,3.24,2.79.61.61,0,0,1-.12.85.64.64,0,0,1-.55.1,14.8,14.8,0,0,1-3.72-2.11l-3.52-2.39c-2.33-1.62-4.65-3.24-6.92-5l1.21,0q-1.75,1.54-3.56,3c-1.21,1-2.39,2-3.62,2.95l-3.66,2.91a21.72,21.72,0,0,1-3.89,2.62.42.42,0,0,1-.57-.19A.44.44,0,0,1,165.19,156.4Z"/></g><g class="cls-8"><path class="cls-9" d="M192,149.23c1-.93,2-1.8,3.06-2.67s2.08-1.72,3.15-2.54,2.12-1.67,3.21-2.47,2.16-1.62,3.27-2.39a1,1,0,0,1,1.3.1l0,0c1,.95,2,1.92,2.91,2.91s1.91,2,2.84,3a46,46,0,0,1,5.24,6.37.58.58,0,0,1-.18.8.57.57,0,0,1-.64,0,45.37,45.37,0,0,1-6.07-5.59c-1-1-1.89-2-2.82-3s-1.84-2-2.74-3.07l1.32.12c-1.07.82-2.16,1.61-3.26,2.4s-2.21,1.54-3.31,2.31-2.25,1.5-3.37,2.25-2.29,1.44-3.47,2.11a.39.39,0,0,1-.53-.14A.39.39,0,0,1,192,149.23Z"/></g><g class="cls-8"><path class="cls-9" d="M175.41,140.42a3.73,3.73,0,0,1-2.8,1.09,5.09,5.09,0,0,1-2.83-1.29,4.89,4.89,0,0,1-1-5.82,4.82,4.82,0,0,1,5.4-2.44,4.6,4.6,0,0,1,2.6,1.67,3.3,3.3,0,0,1,.59,2.9.47.47,0,0,1-.6.31.49.49,0,0,1-.28-.23l0-.05a6.86,6.86,0,0,0-1.17-1.69,3,3,0,0,0-1.58-.9,2.86,2.86,0,0,0-3.06,1.43,2.77,2.77,0,0,0,.52,3.34,2.59,2.59,0,0,0,1.65.74,4.48,4.48,0,0,0,2,0h0a.59.59,0,0,1,.72.43A.6.6,0,0,1,175.41,140.42Z"/></g><rect class="cls-16" x="67.19" y="91.79" width="15.23" height="131.95" transform="translate(149.6 315.53) rotate(180)"/><rect class="cls-17" x="60.76" y="85.73" width="27.89" height="8.81" transform="translate(149.42 180.27) rotate(180)"/><rect class="cls-17" x="56.36" y="223.55" width="37.25" height="9.91" transform="translate(149.97 457.02) rotate(180)"/><polygon class="cls-16" points="20.57 70.32 195.35 70.32 204.71 85.36 20.57 85.36 20.57 70.32"/><line class="cls-16" x1="177.93" y1="70.32" x2="187.29" y2="85.37"/><path class="cls-1" d="M164,74.32a7.36,7.36,0,0,1,2.22,2.34c.59.87,1.18,1.74,1.74,2.63,1.13,1.78,2.23,3.57,3.19,5.45a1.18,1.18,0,0,1-2,1.25c-1.26-1.7-2.38-3.47-3.48-5.27-.55-.9-1.07-1.81-1.59-2.73A7.41,7.41,0,0,1,163,75a.68.68,0,0,1,.6-.75A.63.63,0,0,1,164,74.32Z"/><line class="cls-16" x1="146.69" y1="75.53" x2="152.81" y2="85.37"/><path class="cls-1" d="M95.24,69.69a58.18,58.18,0,0,1,3.26,4.87c.51.83,1,1.67,1.48,2.52a5.16,5.16,0,0,1,1,2.84.75.75,0,0,1-.77.73.6.6,0,0,1-.3-.07,5.17,5.17,0,0,1-2.12-2.13c-.55-.8-1.08-1.62-1.6-2.44-1-1.65-2-3.32-2.93-5.07a1.18,1.18,0,0,1,2-1.25Z"/><line class="cls-6" x1="54.9" y1="70.32" x2="61.3" y2="80.61"/><path class="cls-1" d="M55.9,69.7q.89,1.23,1.68,2.52c.54.85,1.06,1.72,1.56,2.6s1,1.76,1.47,2.65a8,8,0,0,1,1,3,.41.41,0,0,1-.62.38,8,8,0,0,1-2.2-2.19c-.58-.83-1.17-1.65-1.73-2.5S56,74.43,55.41,73.57s-1-1.73-1.51-2.63a1.18,1.18,0,0,1,.49-1.6A1.19,1.19,0,0,1,55.9,69.7Z"/><line class="cls-6" x1="40.06" y1="74.36" x2="46.91" y2="85.37"/><path class="cls-1" d="M40.47,74.11a6.06,6.06,0,0,1,2.37,2.34c.62.89,1.22,1.78,1.8,2.69a60.15,60.15,0,0,1,3.27,5.6,1.18,1.18,0,0,1-2,1.25,62.48,62.48,0,0,1-3.58-5.41c-.55-.93-1.09-1.86-1.62-2.81a6.1,6.1,0,0,1-1.05-3.16.56.56,0,0,1,.55-.56A.58.58,0,0,1,40.47,74.11Z"/><line class="cls-6" x1="23.64" y1="75.96" x2="29.49" y2="85.37"/><path class="cls-1" d="M24.11,75.67a6.7,6.7,0,0,1,2,2c.53.76,1.06,1.52,1.56,2.29,1,1.54,2,3.12,2.85,4.75a1.19,1.19,0,0,1-2,1.25c-1.08-1.5-2.07-3.06-3-4.66-.47-.79-.92-1.6-1.37-2.41a6.7,6.7,0,0,1-.94-2.67.61.61,0,0,1,.93-.58Z"/><path class="cls-1" d="M185.52,84.74c1-1.76,2.1-3.47,3.21-5.17l1.7-2.52a9.51,9.51,0,0,1,2-2.31.6.6,0,0,1,.83.11.64.64,0,0,1,.11.48,9.46,9.46,0,0,1-1.17,2.85c-.5.89-1,1.77-1.51,2.65-1,1.74-2.08,3.48-3.22,5.16a1.18,1.18,0,0,1-2-1.25Z"/><path class="cls-1" d="M168.39,84.74c1.05-1.77,2.17-3.5,3.31-5.22L173.42,77a12.89,12.89,0,0,1,2-2.41.64.64,0,0,1,.9,0,.67.67,0,0,1,.14.6A12.81,12.81,0,0,1,175.15,78l-1.54,2.68c-1,1.78-2.1,3.55-3.22,5.28a1.19,1.19,0,0,1-1.63.35A1.18,1.18,0,0,1,168.39,84.74Z"/><line class="cls-16" x1="152.04" y1="85.37" x2="161.4" y2="70.32"/><line class="cls-16" x1="126.67" y1="71.3" x2="135.41" y2="85.37"/><line class="cls-16" x1="134.65" y1="85.37" x2="144.01" y2="70.32"/><line class="cls-16" x1="110.64" y1="71.77" x2="119.09" y2="85.37"/><path class="cls-1" d="M124.27,75a6.84,6.84,0,0,1,.52-2.17A6.31,6.31,0,0,1,125.87,71a1.2,1.2,0,0,1,2,1.24A6.3,6.3,0,0,1,126.71,74,6.4,6.4,0,0,1,125,75.45a.48.48,0,0,1-.66-.18A.45.45,0,0,1,124.27,75Z"/><path class="cls-1" d="M117.33,84.74a32.6,32.6,0,0,1,2-3.17,15.38,15.38,0,0,1,2.49-2.89.59.59,0,0,1,.82.07.56.56,0,0,1,.12.52,14.76,14.76,0,0,1-1.49,3.5,32.81,32.81,0,0,1-2,3.22,1.18,1.18,0,0,1-2-1.25Z"/><path class="cls-1" d="M100.64,83.72c.9-1.69,1.89-3.34,2.93-5,.53-.81,1.05-1.61,1.6-2.4a5.09,5.09,0,0,1,2.06-2.11.69.69,0,0,1,.92.35.77.77,0,0,1,.07.26,5.15,5.15,0,0,1-1,2.78c-.46.84-1,1.67-1.44,2.49-1,1.65-2,3.27-3.15,4.83a1.18,1.18,0,0,1-2-1.25Z"/><line class="cls-17" x1="85.63" y1="85.36" x2="94.99" y2="70.32"/><line class="cls-17" x1="46.15" y1="85.37" x2="55.51" y2="70.32"/><path class="cls-1" d="M66.69,102.46c.88-.57,1.79-1.11,2.71-1.63s1.84-1,2.78-1.5,1.89-1,2.84-1.42A8.54,8.54,0,0,1,78.14,97a.21.21,0,0,1,.23.2.23.23,0,0,1,0,.14A8.77,8.77,0,0,1,76,99.56c-.88.59-1.75,1.19-2.64,1.75s-1.79,1.13-2.7,1.66-1.82,1.06-2.76,1.54a1.18,1.18,0,0,1-1.18-2.05Z"/><line class="cls-16" x1="82.39" y1="112.31" x2="67.28" y2="103.57"/><path class="cls-1" d="M66.69,119.69c1.85-1.19,3.76-2.3,5.69-3.36,1-.54,2-1,2.92-1.57a13.1,13.1,0,0,1,3.13-1.2.63.63,0,0,1,.76.49.62.62,0,0,1-.15.57,12.94,12.94,0,0,1-2.6,2.11c-.94.59-1.87,1.18-2.81,1.75-1.89,1.14-3.8,2.24-5.76,3.26a1.18,1.18,0,0,1-1.18-2Z"/><line class="cls-16" x1="82.39" y1="129.54" x2="67.28" y2="120.8"/><line class="cls-16" x1="67.28" y1="137.86" x2="82.39" y2="129.12"/><path class="cls-1" d="M81.8,147.71a50.6,50.6,0,0,1-4.81-2.6c-.79-.47-1.56-1-2.32-1.46a4.46,4.46,0,0,1-2-2,.63.63,0,0,1,.32-.83.7.7,0,0,1,.19-.06,4.5,4.5,0,0,1,2.74.75c.81.41,1.62.84,2.42,1.28A48.52,48.52,0,0,1,83,145.67a1.18,1.18,0,0,1,.28,1.65A1.19,1.19,0,0,1,81.8,147.71Z"/><line class="cls-16" x1="67.28" y1="155.24" x2="82.39" y2="146.5"/><line class="cls-16" x1="82.39" y1="164.06" x2="67.28" y2="155.32"/><line class="cls-16" x1="67.28" y1="172.39" x2="82.39" y2="163.65"/><path class="cls-1" d="M81.8,182.23A53,53,0,0,1,77,179.58c-.79-.48-1.58-1-2.35-1.48a4.6,4.6,0,0,1-2-2,.63.63,0,0,1,.31-.83.65.65,0,0,1,.2-.05,4.62,4.62,0,0,1,2.75.78c.82.41,1.63.85,2.44,1.29A51.81,51.81,0,0,1,83,180.19a1.18,1.18,0,0,1,.29,1.65A1.19,1.19,0,0,1,81.8,182.23Z"/><path class="cls-1" d="M72,186.48a8.73,8.73,0,0,1,2.2-2.06c.82-.54,1.64-1.08,2.48-1.6a55.9,55.9,0,0,1,5.12-2.88A1.18,1.18,0,0,1,83,182a57,57,0,0,1-5.06,3c-.86.47-1.74.9-2.62,1.35a8.72,8.72,0,0,1-2.88.88.46.46,0,0,1-.51-.41A.45.45,0,0,1,72,186.48Z"/><line class="cls-16" x1="82.39" y1="198.52" x2="67.28" y2="189.78"/><line class="cls-16" x1="67.28" y1="206.93" x2="82.39" y2="198.19"/><line class="cls-16" x1="68.61" y1="223.39" x2="82.39" y2="215.42"/><line class="cls-17" x1="28.73" y1="85.37" x2="37.82" y2="70.75"/><polyline class="cls-17" points="65.65 61.95 70.49 38.31 78.74 38.31 83.9 61.87"/><path class="cls-1" d="M82.41,208l-7.57.09-3.79,0H69.14l-1,0-.5,0-.28,0-.18,0-.15,0-.21-.07-.07,0h0l-.09,0a1.24,1.24,0,0,1-.56-1h0a1.18,1.18,0,0,1,1.14-1.19,1.24,1.24,0,0,1,.55.13l.09,0c1.86.95,3.67,2,5.45,3.08.89.55,1.78,1.1,2.65,1.67a5.66,5.66,0,0,1,2.37,2.15.68.68,0,0,1-.32.91.77.77,0,0,1-.26.07,5.56,5.56,0,0,1-3-1c-.93-.49-1.84-1-2.75-1.52-1.81-1-3.59-2.12-5.32-3.29l1.77-1h0a1.15,1.15,0,0,0-.54-1l-.11-.06,0,0-.15-.05h0l.19,0h.44l.92,0h5.65l7.55-.1h0a1.18,1.18,0,0,1,1.2,1.16A1.2,1.2,0,0,1,82.41,208Z"/><path class="cls-1" d="M82.41,190.81c-2.34.22-4.68.25-7,.25-1.17,0-2.35,0-3.52-.08a7.11,7.11,0,0,1-3.5-.77.51.51,0,0,1-.2-.68.44.44,0,0,1,.19-.19,6.92,6.92,0,0,1,3.51-.83c1.16-.07,2.33-.13,3.5-.16,2.33,0,4.66-.07,7,.1h0a1.18,1.18,0,0,1,0,2.36Z"/><path class="cls-16" d="M82.39,172.44s-15.11.26-15.11,0"/><path class="cls-16" d="M82.39,155.25s-15.11.26-15.11,0"/><path class="cls-16" d="M82.39,137.83s-7.09.12-11.56.12c-1.22,0-2.43,0-3.64,0"/><path class="cls-16" d="M82.39,120.64s-15.11.26-15.11,0"/><path class="cls-16" d="M82.39,103.45s-15.11.27-15.11,0"/><polyline class="cls-16" points="177.42 70.35 78.74 38.31 68.35 50.29 81.04 50.29 65.97 61.71"/><line class="cls-17" x1="70.49" y1="38.31" x2="20.57" y2="70.32"/><rect class="cls-18" x="178.95" y="85.37" width="27.82" height="8.76" transform="translate(385.72 179.51) rotate(180)"/><circle class="cls-17" cx="192.68" cy="118.08" r="5.85"/><path class="cls-6" d="M192.85,120.07a2,2,0,1,0-2.16-2"/><path class="cls-1" d="M192.81,119.61a1.63,1.63,0,0,0,.78-1.22,1.55,1.55,0,0,0-.3-1,1,1,0,0,0-1.07-.39,1.41,1.41,0,0,0-1,1v0a.52.52,0,0,1-1,0,2.54,2.54,0,0,1,1.36-2.59,3,3,0,0,1,3.23.32,2.8,2.8,0,0,1,.79,3.26,2.4,2.4,0,0,1-2.67,1.46.49.49,0,0,1-.15-.87Z"/><line class="cls-6" x1="188.45" y1="114.05" x2="188.45" y2="100.18"/><path class="cls-1" d="M187.27,114.05c0-2.31,0-4.63,0-6.94a46.13,46.13,0,0,1,.48-6.93.66.66,0,0,1,1.3,0,46.13,46.13,0,0,1,.48,6.93c.06,2.31.09,4.63,0,6.94a1.18,1.18,0,0,1-2.36,0Z"/><line class="cls-17" x1="197.36" y1="94.19" x2="197.36" y2="114.62"/><path class="cls-16" d="M187.85,133.13a4.87,4.87,0,1,0,4.94-5.75V124"/><polyline class="cls-16" points="205.61 144.74 193.17 135.04 181.23 144.74"/><rect class="cls-17" x="11" y="62.78" width="9.87" height="28.21" transform="translate(31.86 153.77) rotate(180)"/><polyline class="cls-6" points="1.28 83.08 1.28 90.99 11.15 90.99 11.15 62.78 1.28 62.78 1.28 75.59"/><path class="cls-1" d="M1.83,83.08a12.78,12.78,0,0,1,.68,4,26.06,26.06,0,0,1,0,3.95L1.29,89.81h9.86L10,91V62.78L11.15,64H1.29l1.17-1.18c.12,2.13.13,4.27.09,6.41A32.16,32.16,0,0,1,2,75.59a.76.76,0,0,1-1.47,0A32.16,32.16,0,0,1,0,69.19c0-2.14,0-4.28.09-6.41v-.06A1.18,1.18,0,0,1,1.29,61.6h9.86a1.18,1.18,0,0,1,1.18,1.18V91a1.18,1.18,0,0,1-1.18,1.18H1.29A1.18,1.18,0,0,1,.12,91.11V91A26.06,26.06,0,0,1,.06,87a12.78,12.78,0,0,1,.68-4,.57.57,0,0,1,.75-.33A.61.61,0,0,1,1.83,83.08Z"/><path class="cls-18" d="M85.39,85.51l6.85-10.79L84.77,62H64.31V85.35Z"/><path class="cls-19" d="M67.89,65.83H82l5,8.57H67.89S67.77,65.72,67.89,65.83Z"/><path class="cls-20" d="M227.45,151.44c1.4,0,1.86.92,1.87,2.05l0,25.66c0,1.13-.46,2-1.86,2.06l-64.27.11c-1.41,0-1.87-.92-1.88-2l0-25.66c0-1.14.46-2.06,1.86-2.06Z"/><g class="cls-8"><path class="cls-21" d="M220.47,183.81c1.25,0,1.66.8,1.66,1.8l0,22.57c0,1-.41,1.8-1.65,1.8l-57,.1c-1.24,0-1.66-.8-1.66-1.8l0-22.57c0-1,.41-1.8,1.65-1.81Z"/></g><path class="cls-11" d="M224.5,145c1.4,0,1.87.92,1.87,2l0,25.66c0,1.13-.46,2.05-1.87,2.06l-64.27.11c-1.4,0-1.87-.92-1.87-2.05l0-25.66c0-1.13.46-2.06,1.86-2.06Z"/><polygon class="cls-22" points="226.37 165.46 215.31 156.51 197.74 170.03 189.32 164.38 181.18 170.58 168.13 160.9 159.11 167.94 158.24 173.25 159.57 174.41 225.47 174.75 226.23 173.2 226.3 167.59 226.37 165.46"/><polyline class="cls-23" points="158.4 165.75 166.02 159.58 178.95 169.98"/><line class="cls-23" x1="176.65" y1="168.13" x2="177.21" y2="168.58"/><polyline class="cls-23" points="172.91 174.88 187.85 162.77 195.47 168.9"/><path class="cls-1" d="M193,170.74c1.16-1.93,3-3,4.55-4.45l4.86-4.07c3.29-2.66,6.56-5.34,9.92-7.9l0,0a1,1,0,0,1,1.23,0L226.83,165a1,1,0,0,1,.15,1.4,1,1,0,0,1-1.41.16l-13.26-10.67h1.25c-3.2,2.76-6.49,5.41-9.78,8.07l-5,3.92c-1.7,1.25-3.17,2.8-5.31,3.52a.45.45,0,0,1-.55-.28A.45.45,0,0,1,193,170.74Z"/><circle class="cls-24" cx="176.88" cy="153.99" r="4.45"/><path class="cls-23" d="M224.5,145c1.4,0,1.87.92,1.87,2l0,25.66c0,1.13-.46,2.05-1.87,2.06l-64.27.11c-1.4,0-1.87-.92-1.87-2.05l0-25.66c0-1.13.46-2.06,1.86-2.06Z"/><path class="cls-11" d="M125.79,194.49l-.06,0-.7-.09v1c0,17.29.33,21,1.68,21s3.43-11.54,3.64-15.18a4.41,4.41,0,0,0,3.29,0v1c0,5.18-.1,14.2,1.46,14.2s3.16-14.76,3.56-21.41Z"/><path class="cls-11" d="M138,176.54a9.08,9.08,0,0,1-7.78.55,5.3,5.3,0,0,1-2.24-1.32c0-4.12.88-9.65,4.63-10.58a4.06,4.06,0,0,1,3.45.9C138.1,168,138.21,173.72,138,176.54Z"/><path class="cls-22" d="M140.13,181.4l-.49.38a3.77,3.77,0,0,1-.87.58,64.22,64.22,0,0,1,.66,11.92,1.07,1.07,0,0,1-.85,1,34.37,34.37,0,0,1-5.49.66c-3.64.16-4.83,0-9.4-1.84a1.26,1.26,0,0,1-.8-1.2c.18-5.1.74-10.19,1.82-12.38-3.5-4.4-5.94-8.71-4.95-16.15a6.38,6.38,0,0,1,2.63-.06c.11,4.1,1.72,12.34,5.56,11.71a1.62,1.62,0,0,1,0-.22,5.3,5.3,0,0,0,2.24,1.32,9.08,9.08,0,0,0,7.78-.55c0,.06,0,.12,0,.18l.13,0c3.37-.36,4.79-7.88,4.91-11.73a6.33,6.33,0,0,1,2.62.06C146.62,172.46,145.05,177.53,140.13,181.4Z"/><rect class="cls-25" x="113.92" y="146.8" width="38.7" height="15.89" rx="1.8" transform="translate(256.95 317.24) rotate(-176.54)"/><path class="cls-1" d="M139.46,195.11c-.14,3.06-.41,6.1-.72,9.15s-.72,6.07-1.37,9.12a16.49,16.49,0,0,1-.66,2.31,5.31,5.31,0,0,1-.27.62,2.36,2.36,0,0,1-.56.73,1.18,1.18,0,0,1-.33.2,1.51,1.51,0,0,1-.5.09,1.35,1.35,0,0,1-.76-.3,2,2,0,0,1-.55-.78,9.28,9.28,0,0,1-.56-2.46c-.09-.78-.15-1.56-.19-2.33-.08-1.54-.1-3.08-.1-4.6v-2.29a4.79,4.79,0,0,1,.45-2.29.32.32,0,0,1,.57,0,4.77,4.77,0,0,1,.45,2.28l0,2.28c0,1.51.08,3,.18,4.52.06.75.12,1.49.22,2.22a7.81,7.81,0,0,0,.47,2c0,.11.12.19.08.16a.33.33,0,0,0-.23-.09.47.47,0,0,0-.23,0c-.09.06-.06,0-.09,0s.05-.08.1-.19.12-.27.18-.43a19.65,19.65,0,0,0,.56-2.08c.62-2.91,1-5.93,1.34-8.94s.63-6,.87-9a.81.81,0,0,1,.86-.74A.8.8,0,0,1,139.46,195.11Z"/><path class="cls-1" d="M134.24,201.4a5,5,0,0,1-2,.86,3.69,3.69,0,0,1-1.15,0,6.56,6.56,0,0,1-1-.18h0l1-.73a76,76,0,0,1-1.5,9.59,29.71,29.71,0,0,1-1.36,4.74,3.89,3.89,0,0,1-.3.62,2.06,2.06,0,0,1-.57.72,1.19,1.19,0,0,1-.36.19.92.92,0,0,1-.47,0,1.3,1.3,0,0,1-.62-.2,2.48,2.48,0,0,1-.26-.19,1.4,1.4,0,0,1-.16-.2,1.45,1.45,0,0,1-.25-.38,8.91,8.91,0,0,1-.63-2.6c-.35-3.26-.35-6.45-.41-9.66s0-6.4,0-9.59a.8.8,0,1,1,1.6,0c0,3.19,0,6.39,0,9.57s.07,6.4.4,9.49a7.68,7.68,0,0,0,.46,2.05.25.25,0,0,0,.07.12l0,0a0,0,0,0,0,0,0s0,0-.07,0a1,1,0,0,0-.18,0c-.09.06-.07,0-.1.05a1.11,1.11,0,0,0,.15-.22,4.91,4.91,0,0,0,.22-.46,30.52,30.52,0,0,0,1.27-4.47,75,75,0,0,0,1.46-9.33v0a.81.81,0,0,1,.86-.73l.11,0h0a9.57,9.57,0,0,1,.93.25,5,5,0,0,0,.77.18,5.85,5.85,0,0,0,1.74-.2h0a.37.37,0,0,1,.43.28A.36.36,0,0,1,134.24,201.4Z"/><path class="cls-1" d="M128.08,176.62a3.43,3.43,0,0,1-2.23-.46,5.16,5.16,0,0,1-1.49-1.45,12.57,12.57,0,0,1-1.58-3.42,28.46,28.46,0,0,1-1.2-7.15l.77.77c-.54,0-.93-.11-1.3-.11a3.47,3.47,0,0,0-1.06.14l.57-.66a18.78,18.78,0,0,0,.56,8.28,23,23,0,0,0,4.21,7.26h0a.81.81,0,0,1,.1.83v0a19.64,19.64,0,0,0-1.16,5.13c-.22,1.81-.35,3.63-.43,5.46l-.06,1.37a.74.74,0,0,0,0,.17l0,.09a.36.36,0,0,0,.14.16,5,5,0,0,0,.48.2l.63.25,1.28.47a17.57,17.57,0,0,0,2.53.73,12.94,12.94,0,0,0,2.59.21,40.63,40.63,0,0,0,5.4-.4c.44-.06.88-.13,1.32-.22s.27,0,.32-.08a.25.25,0,0,0,.08-.1,4.44,4.44,0,0,0,0-.48l0-.67v-1.37c0-1.83-.06-3.66-.19-5.48s-.49-3.58-.48-5.4v0a.46.46,0,0,1,.84-.24,7.09,7.09,0,0,1,.93,2.73c.15.93.24,1.87.33,2.8.15,1.87.23,3.73.25,5.6V193l0,.71a3.44,3.44,0,0,1-.09.9,1.88,1.88,0,0,1-.71,1,2.37,2.37,0,0,1-1,.38c-.47.09-.93.18-1.4.25a39.72,39.72,0,0,1-5.65.45,14.61,14.61,0,0,1-2.93-.24,19.13,19.13,0,0,1-2.79-.8l-1.32-.49-.65-.26-.33-.13a2.19,2.19,0,0,1-.47-.23,2.28,2.28,0,0,1-.76-.87,2.7,2.7,0,0,1-.18-.57,2.47,2.47,0,0,1,0-.52l.06-1.4q.15-2.79.52-5.58A20.58,20.58,0,0,1,124,180l.09.85h0a24.44,24.44,0,0,1-4.47-7.76,20.58,20.58,0,0,1-.63-9,.78.78,0,0,1,.57-.66,4.76,4.76,0,0,1,1.55-.21c.51,0,1,.1,1.33.11a.8.8,0,0,1,.76.77h0a26.78,26.78,0,0,0,1.13,6.72,11.26,11.26,0,0,0,1.35,3,2.39,2.39,0,0,0,2.16,1.25h.06a.8.8,0,0,1,.24,1.58Z"/><path class="cls-26" d="M128,175.83c0-4.14.83-9.86,4.64-10.81a4.09,4.09,0,0,1,3.45.9c2.11,1.92,2.18,8,1.92,10.67"/><path class="cls-26" d="M121.06,163.81A3.38,3.38,0,0,1,121,162c-1.2-.46-1.53-1.14-.85-2.22"/><path class="cls-1" d="M138,175.73A2.94,2.94,0,0,0,140,174.1a12.56,12.56,0,0,0,1.21-2.91,26.39,26.39,0,0,0,1-6.42h0A.8.8,0,0,1,143,164c.34,0,.81-.11,1.33-.12a5.13,5.13,0,0,1,1.55.21h0a.77.77,0,0,1,.56.62v0a21.81,21.81,0,0,1-.45,9.69,14,14,0,0,1-2.32,4.39,10.56,10.56,0,0,1-.8.95,7.23,7.23,0,0,1-.88.87,6.3,6.3,0,0,1-1,.69,3,3,0,0,1-1.1.5h0a.32.32,0,0,1-.38-.26.27.27,0,0,1,0-.2,4.29,4.29,0,0,1,.72-1l.74-.87a17.63,17.63,0,0,0,1.45-1.68,12.36,12.36,0,0,0,2-3.93,22.23,22.23,0,0,0,.5-9l.56.66h0a3.16,3.16,0,0,0-1.06-.15c-.36,0-.76.09-1.3.12l.77-.77a28.31,28.31,0,0,1-1.1,6.83,13.89,13.89,0,0,1-1.38,3.28,6.66,6.66,0,0,1-1.2,1.49,3.61,3.61,0,0,1-1.94.9.8.8,0,1,1-.19-1.58Z"/><path class="cls-26" d="M144.33,164.49a3.47,3.47,0,0,0,.1-1.84c1.2-.46,1.52-1.14.85-2.22"/><path class="cls-1" d="M128.89,176.14a4.26,4.26,0,0,1,1.13.24c.36.1.71.19,1.07.27a11.49,11.49,0,0,0,2.19.26,9.23,9.23,0,0,0,2.17-.18,6.09,6.09,0,0,0,1.88-.72l0,0a.8.8,0,0,1,.89,1.33,6.2,6.2,0,0,1-2.5,1,10.88,10.88,0,0,1-2.54.15,10.53,10.53,0,0,1-2.48-.46,8,8,0,0,1-1.16-.5,2.64,2.64,0,0,1-1-.8.34.34,0,0,1,.07-.47.3.3,0,0,1,.22-.06Z"/><path class="cls-1" d="M127.86,196.82a2.12,2.12,0,0,1,1.45-.09c.44.06.86.13,1.26.16l.16,0a.47.47,0,0,1,.42.5.46.46,0,0,1-.13.29,2.05,2.05,0,0,1-.9.51,3.38,3.38,0,0,1-.94.1,1.69,1.69,0,0,1-1.61-.81.49.49,0,0,1,.21-.65h0Z"/><path class="cls-1" d="M134.88,196.89a1.63,1.63,0,0,1,1.18-.22,8.23,8.23,0,0,1,1.06.17h0a.52.52,0,0,1,.4.6.55.55,0,0,1-.13.25,2,2,0,0,1-1.38.55,1.5,1.5,0,0,1-1.29-.47.57.57,0,0,1,.05-.81l.07-.06Z"/><path class="cls-11" d="M242.05,84.5a1.78,1.78,0,0,0,1-1.46,7.28,7.28,0,0,0-.11-1.86,11.73,11.73,0,0,1,.93-6.16,7.34,7.34,0,0,1,3.08-3.6,4.23,4.23,0,0,1,4.54.25c1.32,1.07,1.65,2.9,1.89,4.57l.58,4.05a4.84,4.84,0,0,1,0,2.24,6.42,6.42,0,0,1-1.73,2.17c-1.05,1.08-1.83,2.39-2.78,3.55a6.63,6.63,0,0,1-3.63,2.54,2.49,2.49,0,0,1-1.76-.21,3.5,3.5,0,0,1-1.25-2.49L242,83.87"/><path class="cls-22" d="M239.82,83.48c-1.06.14-1.33,1.59-2.24,2.16a3,3,0,0,0-1.34,2.87,4.32,4.32,0,0,0,2.3,2.53c.88.24.58-2.07,1.47-2.26a29.6,29.6,0,0,0-2.59,10.33,3.9,3.9,0,0,0,.63,2.89,5,5,0,0,0,2,1.38,25.47,25.47,0,0,0,13.54.68,2.73,2.73,0,0,0,1.65-.92,2.94,2.94,0,0,0,.26-1.91l-.57-6.54a1.68,1.68,0,0,1,.85-2.06L259,90.51a29.57,29.57,0,0,0-3.5-5.29,4,4,0,0,0-2.33-1.66,4.38,4.38,0,0,0-2.54.71A13.91,13.91,0,0,0,248,85.94a4.64,4.64,0,0,0-1.63,2.64c-.6-.16-.87-.86-.94-1.48a3.75,3.75,0,0,0-.4-1.8c-.58-.84-1.74-1-2.39-1.87-.38-.47-.45-.4-1.06-.26A17.32,17.32,0,0,1,239.82,83.48Z"/><path class="cls-1" d="M240.51,89.66a32.45,32.45,0,0,0-2.33,10.49c0,.45-.05.9-.07,1.35a.45.45,0,0,0,.2.45.41.41,0,0,0,.11.07l.32.12.64.25,1.28.48a15.24,15.24,0,0,0,5.12,1.11,48.92,48.92,0,0,0,5.4-.26c.9-.1,1.79-.24,2.67-.41.29-.06.27,0,.34-.09a.32.32,0,0,0,.1-.13.19.19,0,0,0,0-.08l0-.34,0-.68a52.32,52.32,0,0,0,0-5.46c-.05-.9-.14-1.8-.27-2.69a8.17,8.17,0,0,1-.17-2.72h0a.4.4,0,0,1,.46-.34.38.38,0,0,1,.25.13,5.11,5.11,0,0,1,1,2.69c.15,1,.25,1.89.32,2.83a55.72,55.72,0,0,1,.1,5.63l0,.71,0,.35a2,2,0,0,1-.12.59,2,2,0,0,1-.74.94,2.3,2.3,0,0,1-1,.37c-.94.19-1.87.34-2.81.46a42.73,42.73,0,0,1-5.67.31,14.42,14.42,0,0,1-2.92-.38,23.78,23.78,0,0,1-2.75-.85l-1.32-.5-.65-.26-.32-.12a3.05,3.05,0,0,1-.5-.28,2.25,2.25,0,0,1-.92-2c0-.47,0-1,.08-1.42a33.65,33.65,0,0,1,2.68-11,.78.78,0,0,1,1.42.63Z"/><path class="cls-1" d="M254,83.26a19.71,19.71,0,0,1,3.47,3,12.13,12.13,0,0,1,2.48,4,.75.75,0,0,1-.2.84l-.08.07A9.91,9.91,0,0,1,258,92.41c-.29.17-.6.33-.91.48a2.13,2.13,0,0,1-1.09.2.46.46,0,0,1-.4-.49.43.43,0,0,1,0-.16v0a2.4,2.4,0,0,1,.66-.8l.78-.59a16.6,16.6,0,0,1,1.63-1.1l-.29.91a10.66,10.66,0,0,0-2.16-3.47,18,18,0,0,0-3.18-2.79h0a.81.81,0,0,1-.2-1.12.8.8,0,0,1,1.11-.2Z"/><path class="cls-26" d="M242.76,82.84c0-4.49.9-10.7,5-11.73a4.44,4.44,0,0,1,3.75,1c2.29,2.08,2.28,8.74,2,11.69"/><path class="cls-1" d="M245.77,81.29c.08-.05.14,0,.27,0a2.32,2.32,0,0,0,.44.12,3.81,3.81,0,0,0,1,.06h.15a.53.53,0,0,1,.54.52.5.5,0,0,1-.13.37,2.15,2.15,0,0,1-1.8.62,2.37,2.37,0,0,1-1-.32,1.55,1.55,0,0,1-.72-1,.62.62,0,1,1,1.19-.37Z"/><path class="cls-1" d="M247.35,85.07a20,20,0,0,0,2.4-.82c.8-.33,1.57-.71,2.4-1h0a.47.47,0,0,1,.52.75,7.72,7.72,0,0,1-2.3,1.65,10.83,10.83,0,0,1-2.69,1,.8.8,0,0,1-.37-1.56Z"/><path class="cls-1" d="M245,86.2a8.87,8.87,0,0,1-1.17-1,14,14,0,0,1-1-1,.46.46,0,0,1,0-.64.45.45,0,0,1,.56,0,7.61,7.61,0,0,0,2.27,1.22.81.81,0,1,1-.48,1.55,1,1,0,0,1-.21-.1Z"/><path class="cls-26" d="M240.84,104.26a2.2,2.2,0,0,1-1.35,1.52"/><path class="cls-26" d="M251.17,105a2,2,0,0,0,1.57,1.48"/><path class="cls-26" d="M245.47,85.52a33.22,33.22,0,0,1,.85,5.25,18.76,18.76,0,0,1,1.18-4.91"/><line class="cls-26" x1="248.14" y1="87.05" x2="248.12" y2="87.09"/><line class="cls-26" x1="248.14" y1="88.98" x2="248.12" y2="89.01"/><path class="cls-26" d="M257.26,92.2c1.7,2.39,4.68,5.48-3.74,7.69.56-.49-1.15-1.5-1.65-.33"/><path class="cls-26" d="M242.1,83.19c-3.63.72-5.52,2.52-6.32,5.32a30.82,30.82,0,0,0,2.69,2.61"/><path class="cls-26" d="M237.14,89.9c-1.81,2.17-2,6.82,2,10.32-1,.07-1.49.48-1.61,1.24"/><path class="cls-11" d="M235.2,116.79c.54,1.9,1.31,4,2.09,4.06.61.07,1.46-1.41,1.85-4.26a62.89,62.89,0,0,0,.74-9.93h13.65a60.41,60.41,0,0,0,.74,9.93c.38,2.85,1.24,4.33,1.84,4.26.79-.08,1.56-2.16,2.1-4.06a29.85,29.85,0,0,0,.9-10.6c-.25-3.48-2.47-3.92-3.92-4a11.07,11.07,0,0,0-6.39,1.92h-4.19a11.09,11.09,0,0,0-6.39-1.92c-1.45.12-3.67.56-3.93,4A29.86,29.86,0,0,0,235.2,116.79Z"/><path class="cls-1" d="M248.43,103.93a7.49,7.49,0,0,1,2.39-1.71,9,9,0,0,1,2.82-.82,9.75,9.75,0,0,1,1.54-.05,6.53,6.53,0,0,1,1.54.26,4.14,4.14,0,0,1,2.58,2.09,7.6,7.6,0,0,1,.68,3c.06.94.09,1.88.08,2.83a29.24,29.24,0,0,1-.59,5.66,26,26,0,0,1-.72,2.76,12.05,12.05,0,0,1-1.19,2.76,2.7,2.7,0,0,1-.71.75,1.44,1.44,0,0,1-.83.24,1.38,1.38,0,0,1-.8-.31,3.81,3.81,0,0,1-1-1.5,12.31,12.31,0,0,1-.73-2.88c-.25-1.87-.45-3.7-.59-5.57a15.18,15.18,0,0,1,.3-5.61.41.41,0,0,1,.5-.27.42.42,0,0,1,.27.31,45.78,45.78,0,0,1,.55,5.44c.16,1.82.38,3.65.65,5.44a11.6,11.6,0,0,0,.64,2.47,2.32,2.32,0,0,0,.48.8s0,0-.18,0a.38.38,0,0,0-.18,0,1.16,1.16,0,0,0,.22-.26,10.51,10.51,0,0,0,1-2.32,26.83,26.83,0,0,0,.7-2.59,28.05,28.05,0,0,0,.58-5.33c0-.9,0-1.81-.06-2.71a5.83,5.83,0,0,0-.48-2.36,2.48,2.48,0,0,0-1.59-1.3,4.93,4.93,0,0,0-1.18-.2,7.54,7.54,0,0,0-1.23.08,16.43,16.43,0,0,0-5,1.42h0a.34.34,0,0,1-.4-.53Z"/><path class="cls-1" d="M244.56,104.45a21.18,21.18,0,0,0-5-1.43,7.4,7.4,0,0,0-1.23,0,5.28,5.28,0,0,0-1.17.21,2.46,2.46,0,0,0-1.57,1.29,5.87,5.87,0,0,0-.46,2.34c0,.91-.08,1.81-.06,2.7a27.09,27.09,0,0,0,.57,5.33,25.91,25.91,0,0,0,.67,2.59,10.39,10.39,0,0,0,1,2.33,1.36,1.36,0,0,0,.22.27s0,0-.17,0-.17,0-.17,0a2.53,2.53,0,0,0,.49-.8,11.42,11.42,0,0,0,.65-2.48c.27-1.79.49-3.63.65-5.44s.23-3.62.5-5.45a.41.41,0,0,1,.81,0,17.43,17.43,0,0,1,.24,5.62c-.14,1.87-.34,3.7-.59,5.56a12.79,12.79,0,0,1-.72,2.88,3.73,3.73,0,0,1-1,1.5,1.37,1.37,0,0,1-1.62.07,3,3,0,0,1-.71-.75,12.29,12.29,0,0,1-1.21-2.74q-.44-1.36-.75-2.76a29.34,29.34,0,0,1-.59-5.67c0-1,0-1.9.08-2.84a7.33,7.33,0,0,1,.69-3,4.17,4.17,0,0,1,2.61-2.1,6.59,6.59,0,0,1,1.55-.25,8.47,8.47,0,0,1,1.53.08,7.93,7.93,0,0,1,5.21,2.52.35.35,0,0,1,0,.48.37.37,0,0,1-.35,0Z"/><path class="cls-11" d="M250,100.87h6.64a1.23,1.23,0,0,1,1.23,1.23v.12h-7.49"/><path class="cls-1" d="M250.89,100.39a1.54,1.54,0,0,1,1-.29l1,0c.64,0,1.29,0,1.94,0l2,0a2.07,2.07,0,0,1,1.39.73,2.17,2.17,0,0,1,.38.7,2.7,2.7,0,0,1,.08.39v.33a.8.8,0,0,1-.8.8h-7.49a.8.8,0,0,1,0-1.6h7.49l-.8.8v-.16l0-.09a.39.39,0,0,0-.08-.14.46.46,0,0,0-.3-.15h-1.87c-.65,0-1.3,0-1.94,0l-1,0a1.48,1.48,0,0,1-1-.29.62.62,0,0,1-.1-.86Z"/><path class="cls-11" d="M233.33,102.25l-2.26-10.47a1.14,1.14,0,0,1,1.12-1.38H246.8a1.15,1.15,0,0,1,1.12.9l2.35,10.91"/><path class="cls-1" d="M233.07,102.31a1.53,1.53,0,0,1-.8-1.11c-.11-.41-.22-.81-.31-1.22-.17-.81-.33-1.63-.46-2.46-.29-1.64-.66-3.27-1-4.9l-.13-.62a1.93,1.93,0,0,1,0-1,1.88,1.88,0,0,1,1.45-1.33,4.47,4.47,0,0,1,.77,0h13.77a7,7,0,0,1,.74,0A1.89,1.89,0,0,1,248.6,91c.06.19.06.26.09.37l.07.3.13.62,2.1,9.79a.74.74,0,1,1-1.45.31l-2.11-9.79-.25-1.16a.43.43,0,0,0-.31-.27H232.11a.39.39,0,0,0-.3.28.36.36,0,0,0,0,.25l.13.61c.35,1.63.69,3.27,1.1,4.89.22.8.41,1.62.59,2.43.08.41.16.82.22,1.24a1.5,1.5,0,0,1-.28,1.33A.4.4,0,0,1,233.07,102.31Z"/><path class="cls-11" d="M239.29,97a1.12,1.12,0,0,0,.93.5,1.13,1.13,0,1,0,0-2.25,1.11,1.11,0,0,0-1,.58"/><path class="cls-1" d="M239.61,96.82a1.43,1.43,0,0,0,.71-.12.38.38,0,0,0,0-.64,1.2,1.2,0,0,0-.82-.06l-.11,0a.32.32,0,0,1-.38-.26v0c-.05-.77.88-1.34,1.67-1.15a1.89,1.89,0,0,1,.16,3.68,1.59,1.59,0,0,1-1.21-.09,1.13,1.13,0,0,1-.65-.92.42.42,0,0,1,.4-.44h.25Z"/><line class="cls-11" x1="234.92" y1="102.23" x2="248.28" y2="102.23"/><path class="cls-1" d="M234.92,102a23.47,23.47,0,0,1,3.34-.19c1.12,0,2.23,0,3.34,0,2.23,0,4.46,0,6.68.29a.21.21,0,0,1,.18.22.2.2,0,0,1-.18.17,64.78,64.78,0,0,1-6.68.3c-1.11,0-2.22,0-3.34,0a26.82,26.82,0,0,1-3.34-.19.3.3,0,0,1-.24-.32A.29.29,0,0,1,234.92,102Z"/><path class="cls-11" d="M285.41,166.52a16.2,16.2,0,0,0-.69,3.25l-.48,3.52a3.54,3.54,0,0,0,1.5,4,9.45,9.45,0,0,0,1.62,1.27,3,3,0,0,0,2,.42,4.56,4.56,0,0,0,1.44-.61l3.42-1.94a2.23,2.23,0,0,0,.78-.61,2.26,2.26,0,0,0,.26-1.29v-4.17c0-1.74-.05-3.64-1.13-5a5.08,5.08,0,0,0-3.23-1.76,8.5,8.5,0,0,0-3.18,0c-.63.14-1.17.92-1.52,1.42A6.28,6.28,0,0,0,285.41,166.52Z"/><path class="cls-11" d="M283.12,214.18a3,3,0,0,0,.36,1.11,1,1,0,0,0,1,.5c.48-.09.75-.6.9-1.06a16.2,16.2,0,0,0,.59-4.86l.17-9.43a4.55,4.55,0,0,0,3.17.06c.48,3.63,1.09,7.25,1.84,10.83a10.52,10.52,0,0,0,2,5c1.46-3.34,1.65-7.07,1.81-10.71l.4-8.62a7.17,7.17,0,0,0-.1-2.12,2.5,2.5,0,0,0-1.19-1.68c-1-.52-2.14-.1-3.2.17a12.38,12.38,0,0,1-7.79-.5,4.3,4.3,0,0,0-1.2-.38c-.57-.05-1,.12-1,.68s.07,1.4.1,2.09c.06,1.54.15,3.09.27,4.63q.36,4.59,1,9.13Q282.65,211.6,283.12,214.18Z"/><path class="cls-22" d="M282,174.47c-1,.14-1.33-1.63-2.2-1.09a3.27,3.27,0,0,0-1.36,3c.18.86.43,2.38,1.27,2.61s1.38.9,2.24.71a28.53,28.53,0,0,0-2.49,9.93,3.71,3.71,0,0,0,.6,2.78,3.87,3.87,0,0,0,1.85,1c4.24,1.28,8.78,2.09,13.08,1a2.58,2.58,0,0,0,1.58-.88,2.78,2.78,0,0,0,.25-1.83l-.55-6.29a2.2,2.2,0,0,1,.23-1.48c.15-.2,0-.71-.08-1a8,8,0,0,1,.53-4.16c-.17-1.61.07-1.38-1.09-3.09-.52-.78-.32-.85-1.25-1a4.15,4.15,0,0,0-2.43.69,13,13,0,0,0-2.57,1.6A4.45,4.45,0,0,0,288,179.5c-.58-.15-.84-.82-.9-1.42a3.75,3.75,0,0,0-.38-1.73c-.56-.8-1.67-1-2.3-1.79-.36-.45-.44-.38-1-.25A11.53,11.53,0,0,1,282,174.47Z"/><path class="cls-1" d="M281.47,193c.19,3.2.48,6.42.83,9.62s.72,6.41,1.34,9.53a22.14,22.14,0,0,0,.56,2.27,4,4,0,0,0,.39.92c.06.14.13,0-.19,0s-.17.11-.1,0a3.17,3.17,0,0,0,.33-.9c.09-.37.16-.74.22-1.13.11-.77.19-1.56.25-2.36.12-1.59.17-3.2.2-4.81a27.36,27.36,0,0,1,.34-4.85.32.32,0,0,1,.38-.25.34.34,0,0,1,.25.25,23.35,23.35,0,0,1,.3,4.86c0,1.63,0,3.25-.11,4.89,0,.82-.1,1.64-.21,2.47-.06.41-.13.83-.22,1.26a4.65,4.65,0,0,1-.5,1.36,1.73,1.73,0,0,1-.34.4,1.28,1.28,0,0,1-.7.29,1.19,1.19,0,0,1-.78-.27,1.57,1.57,0,0,1-.34-.38,5.24,5.24,0,0,1-.6-1.29,20.36,20.36,0,0,1-.65-2.43c-.67-3.22-1.07-6.44-1.45-9.67s-.62-6.46-.79-9.72a.8.8,0,1,1,1.59-.09Z"/><path class="cls-1" d="M285.06,199.36a12.06,12.06,0,0,0,2.12.47,3.53,3.53,0,0,0,.9-.09,10.51,10.51,0,0,1,1.13-.2h0a.78.78,0,0,1,.92.59s0,.07,0,.1v0a75.83,75.83,0,0,0,1.48,9.48,35,35,0,0,0,1.24,4.58,5.27,5.27,0,0,0,.44.95c.06.14.21.17,0,.09a.22.22,0,0,0-.11,0h-.05s0,0,0,0a2.17,2.17,0,0,0,.31-.73,8.92,8.92,0,0,0,.22-1.1,92,92,0,0,0,.48-9.6c0-3.24,0-6.48,0-9.71a.76.76,0,0,1,.76-.77.77.77,0,0,1,.77.76h0c0,3.25,0,6.49,0,9.74a90.54,90.54,0,0,1-.5,9.81,10.67,10.67,0,0,1-.25,1.28,3.72,3.72,0,0,1-.24.68,3.09,3.09,0,0,1-.18.37,3.68,3.68,0,0,1-.31.38,1.39,1.39,0,0,1-1.28.37,1,1,0,0,1-.37-.18.8.8,0,0,1-.23-.2,2.21,2.21,0,0,1-.27-.35,6.74,6.74,0,0,1-.6-1.25,36.74,36.74,0,0,1-1.3-4.8,78.17,78.17,0,0,1-1.51-9.71l.93.7h0a6.23,6.23,0,0,1-1.17.31,3.59,3.59,0,0,1-1.42,0,6.79,6.79,0,0,1-2.29-1.11.47.47,0,0,1,.38-.84Z"/><path class="cls-1" d="M284.68,174.78a8.81,8.81,0,0,1-2.92.09,4.31,4.31,0,0,1-1.47-.58,2.94,2.94,0,0,0-1-.42l.93-.54c-.23.69-.48,1.29-.7,1.9-.1.31-.2.61-.28.89a2.62,2.62,0,0,0-.09.65l-.1-.28a7.19,7.19,0,0,0,.6.83,5.41,5.41,0,0,0,.7.73,2.35,2.35,0,0,0,1.48.71.85.85,0,0,1,.86.82.91.91,0,0,1-.08.37h0a29.72,29.72,0,0,0-2.41,9.61l-.09,1.24,0,.63v.22a.36.36,0,0,0,0,.11.58.58,0,0,0,.13.2l.1.08.2.08,1.18.46a18.37,18.37,0,0,0,4.71,1.32,31.84,31.84,0,0,0,5-.06c.83-.07,1.66-.17,2.49-.29l1.23-.22.3-.06.11,0a.3.3,0,0,0,.13-.12l0-.07a.63.63,0,0,0,0-.18l0-.64.07-1.27q.07-1.26.09-2.52c0-.84.06-1.68.06-2.51a14.56,14.56,0,0,1,0-2.55.36.36,0,0,1,.69-.09,8,8,0,0,1,.6,2.55,20.86,20.86,0,0,1,.21,2.61c0,.87,0,1.73-.08,2.59l-.07,1.29,0,.64a4.47,4.47,0,0,1-.06.46,2.36,2.36,0,0,1-.21.52,1.87,1.87,0,0,1-1.3.9l-.32.07-1.3.23c-.86.13-1.73.23-2.6.3a30.8,30.8,0,0,1-5.27.07,20.44,20.44,0,0,1-5.13-1.4l-1.21-.48-.16-.06-.23-.11a2.1,2.1,0,0,1-.41-.31,2.14,2.14,0,0,1-.56-.86,1.86,1.86,0,0,1-.11-.52,2.18,2.18,0,0,1,0-.25v-.17l0-.65.1-1.31a31.49,31.49,0,0,1,2.55-10.18l.78,1.2a3.36,3.36,0,0,1-1.51-.35,5.14,5.14,0,0,1-1.13-.78,7.66,7.66,0,0,1-.88-.93,10.17,10.17,0,0,1-.74-1l0,0a1.14,1.14,0,0,1-.09-.26,3.69,3.69,0,0,1,.13-1.33c.1-.36.21-.7.33-1,.23-.65.5-1.28.7-1.86a.81.81,0,0,1,.93-.54h0a4.43,4.43,0,0,1,1.46.61,3,3,0,0,0,1,.4,7.64,7.64,0,0,0,2.36-.09h0a.8.8,0,0,1,.25,1.58Z"/><path class="cls-26" d="M243.25,138.34l1.5-1.41a1.86,1.86,0,0,1,2.63.09l.25.27a1.87,1.87,0,0,1-.08,2.63L244,143.46a.53.53,0,0,0,0,.75l1,1"/><path class="cls-27" d="M298.07,202.52l-.23.22c-.34.31-.77.39-1,.18l-53.41-57.46c-.2-.21-.09-.64.25-1l.23-.21c.33-.32.77-.4,1-.18l53.41,57.45C298.52,201.78,298.41,202.21,298.07,202.52Z"/><path class="cls-15" d="M240.34,143.67l-1.94,2a1.27,1.27,0,0,1-1.79-.06l-1.12-1.19a1.27,1.27,0,0,1,.06-1.79l6.52-6.51a1.27,1.27,0,0,1,1.78.06l1.12,1.2a1.25,1.25,0,0,1-.06,1.78l-3.09,3.1"/><path class="cls-1" d="M240.59,143.9c-.29.53-.62,1-.92,1.53a4.06,4.06,0,0,1-.56.67l-.15.16a2.09,2.09,0,0,1-.29.23,1.84,1.84,0,0,1-.64.28,2.05,2.05,0,0,1-1.38-.13,2.09,2.09,0,0,1-.57-.4l-.32-.34-.59-.63-.31-.33a2.06,2.06,0,0,1-.42-2,2.2,2.2,0,0,1,.32-.63,1.84,1.84,0,0,1,.23-.25l.15-.15,1.22-1.23,2.43-2.44,2.45-2.43c.12-.12.17-.18.34-.33a2.17,2.17,0,0,1,.62-.37,2.14,2.14,0,0,1,1.39,0,2.18,2.18,0,0,1,.62.33,1.93,1.93,0,0,1,.25.24l.15.15.58.64.29.32.07.08.11.13a1.89,1.89,0,0,1,.19.3,2,2,0,0,1,.2,1.35,2.08,2.08,0,0,1-.65,1.14l-.62.6a9.83,9.83,0,0,1-2.68,2.18.42.42,0,0,1-.56-.21.4.4,0,0,1,0-.34,10,10,0,0,1,2.19-2.71l.6-.62a.5.5,0,0,0,.19-.33.47.47,0,0,0-.05-.31l-.05-.07-.1-.11-.3-.31-.6-.62-.15-.16-.06-.06-.14-.07a.44.44,0,0,0-.3,0,.47.47,0,0,0-.12.07l-.27.27-2.44,2.45-2.45,2.43-1.22,1.22-.15.15-.06.07a.33.33,0,0,0-.07.13.39.39,0,0,0,0,.3.26.26,0,0,0,.08.13l.27.3.59.63.27.29a.38.38,0,0,0,.13.09.45.45,0,0,0,.3,0l.15-.07.05,0L238,145a5,5,0,0,1,.64-.57c.49-.32,1-.66,1.47-1a.36.36,0,0,1,.49.13A.37.37,0,0,1,240.59,143.9Z"/><path class="cls-1" d="M293.55,177.41A11.06,11.06,0,0,0,292,181h0l-.23-.91c.19.15.49.35.75.52s.55.35.84.52c.57.33,1.15.66,1.74,1l-.94.14a15.6,15.6,0,0,0,1.34-1.74l.31-.46a2.63,2.63,0,0,0,.21-.41,3.27,3.27,0,0,0,.25-.9,2.87,2.87,0,0,0-.38-1.76,3.71,3.71,0,0,0-1.33-1.34.82.82,0,0,1-.41-.78,29.1,29.1,0,0,0-.19-6.92,8.88,8.88,0,0,0-1-3.08,2.56,2.56,0,0,0-1-.94,3.86,3.86,0,0,0-1.4-.43,3.3,3.3,0,0,0-2.6,1,6.85,6.85,0,0,0-1.6,2.74,15.91,15.91,0,0,0-.72,3.33l-.19,1.72a7.76,7.76,0,0,1-.31,1.75h0a.56.56,0,0,1-.7.36A.6.6,0,0,1,284,174a5.72,5.72,0,0,1-.2-1.83c0-.61.06-1.23.14-1.84a18.8,18.8,0,0,1,.84-3.64,8.4,8.4,0,0,1,2-3.37,4.91,4.91,0,0,1,3.88-1.45,5.3,5.3,0,0,1,2,.62,4.17,4.17,0,0,1,1.58,1.48,10,10,0,0,1,1.24,3.67,29.6,29.6,0,0,1,.21,7.34l-.41-.77a5.26,5.26,0,0,1,1.95,1.94,4.51,4.51,0,0,1,.58,2.74,5.09,5.09,0,0,1-.37,1.35,4.71,4.71,0,0,1-.33.63l-.34.52a15.62,15.62,0,0,1-1.52,2,.77.77,0,0,1-.93.16h0c-.61-.32-1.21-.65-1.81-1l-.89-.55c-.3-.2-.57-.38-.91-.64l0,0a.73.73,0,0,1-.21-.9h0A12.77,12.77,0,0,1,293,177h0a.37.37,0,0,1,.51,0A.38.38,0,0,1,293.55,177.41Z"/><path class="cls-1" d="M287.57,172.47c0-.1.06-.05.17,0a2.5,2.5,0,0,0,.39.17,3,3,0,0,0,1,.11h.11a.48.48,0,0,1,.5.44.5.5,0,0,1-.12.34,2.16,2.16,0,0,1-1.71.65,2.29,2.29,0,0,1-1-.25,1.61,1.61,0,0,1-.78-1,.73.73,0,0,1,1.39-.43Z"/><path class="cls-1" d="M289,176.11c.73-.19,1.53-.45,2.3-.73s1.55-.61,2.34-.93h0a.37.37,0,0,1,.49.2.39.39,0,0,1-.07.4,10.32,10.32,0,0,1-4.72,2.62.8.8,0,0,1-.36-1.56Z"/><path class="cls-1" d="M286.72,177.24c-.41-.32-.76-.63-1.12-.93s-.68-.64-1-1a.52.52,0,0,1,0-.73.53.53,0,0,1,.72,0,6.17,6.17,0,0,0,1,.74,3.34,3.34,0,0,0,1.11.47.83.83,0,1,1-.3,1.64.86.86,0,0,1-.36-.17Z"/><path class="cls-26" d="M282.71,194.56a2.1,2.1,0,0,1-1.3,1.46"/><path class="cls-1" d="M293,195.14c.13.11.25.19.36.27s.22.15.33.2a3.08,3.08,0,0,0,.29.16c.07,0,.12.08.13.15l.12,1.28a.15.15,0,0,1-.12.17,1.44,1.44,0,0,1-.92-.15,1.95,1.95,0,0,1-.93-1.16,1.58,1.58,0,0,1-.05-.75.44.44,0,0,1,.52-.33l.17.08Z"/><path class="cls-26" d="M287.16,176.57a31.23,31.23,0,0,1,.81,5,18.6,18.6,0,0,1,1.13-4.71"/><line class="cls-26" x1="290.09" y1="178.13" x2="290.07" y2="178.16"/><line class="cls-26" x1="289.72" y1="179.89" x2="289.7" y2="179.92"/><path class="cls-26" d="M292.63,181.77a9,9,0,0,1-.55,1.13l0,.06c-1.48,2.62-3.79,3.6-9.17,1.82.93.15-.35,2.62-1.52,2"/><path class="cls-26" d="M278.6,175c-2.87-1.55-4.85-7.64-9.44-5.13-1.34-.1-2,.38-1.81,1.71"/><path class="cls-22" d="M295.32,167.12l.17,0,.26,0a6.13,6.13,0,0,0-.3-1.89l-.24-.62a5.9,5.9,0,0,0-.93-1.42v0l0,0a5.32,5.32,0,0,0-1.74-1.27l-.11-.08-.13,0a5.2,5.2,0,0,0-1.85-.35h-.18l-.12,0-.14,0a4.81,4.81,0,0,0-1.37.32h0a5.61,5.61,0,0,0-3.41,4.24,7.36,7.36,0,0,0-2.36,1.92,5.8,5.8,0,0,1,3.33-1.09,10.71,10.71,0,0,1,3.46,1.35c1.43-1.47,1.87-.79,2.75-1a5.68,5.68,0,0,1,1.71-.26l.61,0Z"/><path class="cls-1" d="M295.89,166.52a6,6,0,0,0-.12-.94,3.9,3.9,0,0,0-.12-.46l-.15-.44a5.33,5.33,0,0,0-.41-.87,6.23,6.23,0,0,0-.54-.8l0,0,0,0h0l-.06-.07,0,0h0l.05.05a5.78,5.78,0,0,0-1.82-1.43l.07.05-.1-.09h0a.37.37,0,0,0-.16-.07h0l-.13,0,.09,0a5.39,5.39,0,0,0-2.21-.41h.09l-.11,0h0a.49.49,0,0,0-.17,0h0l-.14,0h.06a5.49,5.49,0,0,0-1.5.31h0l.07,0h0a.51.51,0,0,0-.21.1h0l.14-.08a4.37,4.37,0,0,0-1.32.73,5.84,5.84,0,0,0-1,1.09,5.68,5.68,0,0,0-1,2.69.18.18,0,0,0,.16.21.18.18,0,0,0,.2-.13,5.92,5.92,0,0,1,1.33-2.23,4.92,4.92,0,0,1,1-.8,8.74,8.74,0,0,1,1.08-.6h0a.36.36,0,0,0,.12-.08h0l-.2.1h0l.06,0h0A4.67,4.67,0,0,1,290,162h.06l.14,0H290l.12,0h.09a4.53,4.53,0,0,1,1.86.27h0l.07,0,.13,0-.18-.08h0l.11.08h0l.06,0a5.12,5.12,0,0,1,1.64,1.13l0,0,0,0h0l-.09-.09h0l0,0,0,0v0a5.07,5.07,0,0,1,.55.66,4.25,4.25,0,0,1,.44.74l.18.41a2.48,2.48,0,0,1,.15.41,4.89,4.89,0,0,1,.2.86.18.18,0,0,0,.2.14A.17.17,0,0,0,295.89,166.52Z"/><path class="cls-1" d="M293.34,166.75c-.7,0-1.4,0-2.14.08a2.92,2.92,0,0,0-1.17.36,2.13,2.13,0,0,0-.82,1.06h0l.8-.26a8.13,8.13,0,0,0-1.76-.9,7.29,7.29,0,0,0-1.91-.45,4.62,4.62,0,0,0-2,.23,3.54,3.54,0,0,0-1.59,1.15.2.2,0,0,0,0,.28.19.19,0,0,0,.27,0h0a3,3,0,0,1,1.47-.87,4.1,4.1,0,0,1,1.71,0,7.22,7.22,0,0,1,3.15,1.45.5.5,0,0,0,.7-.08.39.39,0,0,0,.06-.11l0-.07h0a1.13,1.13,0,0,1,.33-.66,2.06,2.06,0,0,1,.8-.39,20.67,20.67,0,0,1,2.05-.4.18.18,0,0,0,0-.35Z"/></g></g></g></svg>