<svg xmlns="http://www.w3.org/2000/svg" viewBox="0 0 288.12 292.5"><defs><style>.cls-1,.cls-13,.cls-19{fill:#e5eefd;}.cls-11,.cls-15,.cls-17,.cls-2,.cls-20,.cls-22,.cls-6,.cls-9{fill:none;}.cls-2{stroke:#7282c4;stroke-dasharray:8;opacity:0.3;}.cls-11,.cls-12,.cls-13,.cls-15,.cls-17,.cls-18,.cls-19,.cls-2,.cls-20,.cls-21,.cls-22,.cls-6,.cls-9{stroke-linecap:round;stroke-linejoin:round;}.cls-11,.cls-12,.cls-2{stroke-width:2px;}.cls-3{fill:#717791;}.cls-4{fill:#93b9f4;}.cls-5{fill:#b8d4ff;}.cls-11,.cls-12,.cls-13,.cls-17,.cls-18,.cls-19,.cls-20,.cls-21,.cls-22,.cls-6,.cls-9{stroke:#717791;}.cls-6{stroke-width:2.06px;}.cls-7{fill:#a9ebc8;}.cls-8{fill:#9fc3fd;}.cls-9{stroke-width:1.21px;}.cls-10,.cls-12,.cls-18,.cls-21{fill:#fff;}.cls-13,.cls-15{stroke-width:3.33px;}.cls-14{fill:#a3acd6;}.cls-15{stroke:#a9ebc8;}.cls-16{fill:#6ba6ff;}.cls-17,.cls-18{stroke-width:2.4px;}.cls-19{stroke-width:1.77px;}.cls-20,.cls-21{stroke-width:2.54px;}.cls-22{stroke-width:1.97px;}</style></defs><title>CRM y plataformas de gestión</title><g id="Capa_2" data-name="Capa 2"><g id="Layer_1" data-name="Layer 1"><g id="_10._COLABORATION" data-name="10. COLABORATION"><rect class="cls-1" x="131.38" y="166.47" width="148.42" height="27.34" rx="13.67" transform="translate(478.34 162.14) rotate(135)"/><rect class="cls-1" x="2.53" y="133.56" width="46.06" height="27.34" rx="13.67" transform="translate(147.74 233.26) rotate(135)"/><path class="cls-1" d="M159.2,169.3l39.13-39.12a13.66,13.66,0,0,0,19.33,19.32l-39.13,39.13A13.67,13.67,0,0,0,159.2,169.3Z"/><path class="cls-1" d="M142.48,109.7,179.14,73a13.66,13.66,0,0,0,19.33,19.32L161.8,129a13.66,13.66,0,0,0-19.32-19.33Z"/><rect class="cls-1" x="103.34" y="103.07" width="178.6" height="27.34" rx="13.67" transform="translate(411.4 63.07) rotate(135)"/><rect class="cls-1" x="-9.76" y="112.74" width="233.23" height="27.34" rx="13.67" transform="translate(271.81 140.24) rotate(135)"/><rect class="cls-1" x="34.94" y="62.68" width="103.74" height="27.34" rx="13.67" transform="translate(202.18 68.94) rotate(135)"/><rect class="cls-1" x="135.43" y="0.16" width="27.79" height="27.34" rx="13.67" transform="translate(264.7 -81.98) rotate(135)"/><rect class="cls-1" x="93.99" y="186.9" width="27.79" height="27.34" rx="13.67" transform="translate(326 266.11) rotate(135)"/><polyline class="cls-2" points="250.59 90.8 140.88 101.44 49.36 87.69"/><polyline class="cls-2" points="207.12 41.8 140.88 100.44 88.54 34.19"/><line class="cls-2" x1="138.91" y1="147.27" x2="140.75" y2="221.85"/><line class="cls-1" x1="273" y1="267.36" x2="278.61" y2="267.36"/><path class="cls-3" d="M273,266.65a7.34,7.34,0,0,1,2.8-.39,14.09,14.09,0,0,1,2.81.28.84.84,0,0,1,0,1.64,14.09,14.09,0,0,1-2.81.28,7.34,7.34,0,0,1-2.8-.39.76.76,0,0,1-.44-1A.77.77,0,0,1,273,266.65Z"/><line class="cls-1" x1="172.64" y1="267.36" x2="268.87" y2="267.36"/><path class="cls-3" d="M172.64,266.68c4-.31,8-.35,12-.35l12-.05,24.06-.1h36.09c4,0,8,0,12,.3a.88.88,0,0,1,0,1.76c-4,.27-8,.28-12,.3H220.76l-24.06-.1-12-.05c-4,0-8-.05-12-.36a.67.67,0,0,1-.62-.72A.69.69,0,0,1,172.64,266.68Z"/><line class="cls-1" x1="148.8" y1="267.36" x2="162.01" y2="267.36"/><path class="cls-3" d="M148.8,266.68a3.18,3.18,0,0,1,1.65-.35l1.65-.07c1.1-.05,2.2-.06,3.31-.09s2.2,0,3.3,0h1.65a3.71,3.71,0,0,1,1.65.3,1,1,0,0,1,.47,1.29.94.94,0,0,1-.47.47,3.71,3.71,0,0,1-1.65.3h-1.65c-1.1,0-2.2,0-3.3,0s-2.21,0-3.31-.08l-1.65-.07a3.1,3.1,0,0,1-1.65-.36.78.78,0,0,1-.28-1.07A.83.83,0,0,1,148.8,266.68Z"/><line class="cls-1" x1="16.85" y1="267.36" x2="123.85" y2="267.36"/><path class="cls-3" d="M16.85,266.68c4.46-.31,8.92-.35,13.38-.35l13.37-.05,26.75-.1h40.13c4.45,0,8.91,0,13.37.3a.88.88,0,0,1,.83.93.89.89,0,0,1-.83.83c-4.46.27-8.92.28-13.37.3H70.35l-26.75-.1-13.37-.05c-4.46,0-8.92-.05-13.38-.36a.66.66,0,0,1-.62-.72A.68.68,0,0,1,16.85,266.68Z"/><line class="cls-1" x1="10.65" y1="267.36" x2="11.47" y2="267.36"/><path class="cls-3" d="M10.65,266.36a1.87,1.87,0,0,1,.41,0,.8.8,0,0,1,.21.05.52.52,0,0,1,.2.09,1,1,0,0,1,.29,1.44,1.1,1.1,0,0,1-.29.28.52.52,0,0,1-.2.09,1.6,1.6,0,0,1-.21.05,1.87,1.87,0,0,1-.41,0,1,1,0,0,1,0-2Z"/><line class="cls-1" x1="0.56" y1="267.36" x2="4.65" y2="267.36"/><path class="cls-3" d="M.56,266.63a9.53,9.53,0,0,1,2.05-.27,5.67,5.67,0,0,1,2,.19.86.86,0,0,1,.56,1.06.89.89,0,0,1-.56.56,5.9,5.9,0,0,1-2,.19,10.2,10.2,0,0,1-2-.27.76.76,0,0,1-.54-.92A.79.79,0,0,1,.56,266.63Z"/><line class="cls-1" x1="112.84" y1="291.31" x2="191.5" y2="291.31"/><path class="cls-3" d="M112.84,290.64c3.28-.31,6.56-.35,9.83-.36l9.84,0,19.66-.1h29.5c3.28,0,6.55,0,9.83.3a.89.89,0,0,1,.81,1,.9.9,0,0,1-.81.81c-3.28.26-6.55.28-9.83.29h-29.5l-19.66-.1-9.84,0c-3.27,0-6.55-.05-9.83-.36a.69.69,0,0,1-.61-.74A.67.67,0,0,1,112.84,290.64Z"/><line class="cls-1" x1="80.48" y1="291.31" x2="100.63" y2="291.31"/><path class="cls-3" d="M80.48,290.59c3.36-.18,6.72-.25,10.08-.28s6.72,0,10.07.2a.8.8,0,0,1,.76.86.79.79,0,0,1-.76.75c-3.35.21-6.71.23-10.07.19s-6.72-.09-10.08-.27a.73.73,0,0,1,0-1.45Z"/><path class="cls-4" d="M190.53,154.91q-.08,1.05-.12,2.1"/><path class="cls-5" d="M223,35.92A14.19,14.19,0,0,1,212.35,38c-5-1.11-9.64-4.18-11.6-9.17a15.3,15.3,0,0,1,2.67-15.19c3.28-3.87,9.36-5.75,13.66-3.27a.32.32,0,0,1-.19,0l.23.14c-.88,4.87-1.34,8.58-2.21,13.45A47.65,47.65,0,0,1,228,25.24C227.93,29.38,226.24,33.59,223,35.92Z"/><path class="cls-6" d="M216.35,17.3l-.34,3c-.14.81-.29,1.63-.43,2.44a48,48,0,0,1,13,1.3c0,4.15-1.71,8.35-5,10.68A14.12,14.12,0,0,1,213,36.85c-5-1.11-9.64-4.19-11.61-9.17a15.33,15.33,0,0,1,2.68-15.19c3.27-3.88,9.35-5.75,13.66-3.28"/><path class="cls-7" d="M231.36,21.3l-11.83-1.9L221,7.87l.22,0A12.18,12.18,0,0,1,231.36,21.3Z"/><path class="cls-3" d="M219.49,16.61c.17-2.95.28-5.91.54-8.86a.91.91,0,0,1,1-.82h.1a14,14,0,0,1,4.77,1.6,12.78,12.78,0,0,1,3.86,3.28A12.4,12.4,0,0,1,232,16.37a8.7,8.7,0,0,1-.21,5,.41.41,0,0,1-.53.24.4.4,0,0,1-.26-.33h0a25,25,0,0,0-.94-4.34,12.23,12.23,0,0,0-2-3.78,11.86,11.86,0,0,0-3.17-2.86,11.21,11.21,0,0,0-4.05-1.48L221.89,8c-.46,2.91-1.09,5.81-1.64,8.72a.38.38,0,0,1-.76-.1Z"/><path class="cls-7" d="M258.73,98.34l-3.16,0a.24.24,0,0,1-.15,0s0-.06,0-.1c-.24-3.45.2-6.9.18-10.36,0-1.34-.16-2.68-.24-4v0c1.12,0,2.23,0,3.35,0C258.18,83.79,258.62,97.13,258.73,98.34Z"/><path class="cls-8" d="M264.75,98.32h-3.16a.37.37,0,0,1-.15,0,.07.07,0,0,1,0-.06c-.23-2.12.21-4.24.2-6.36-.05-.82-.16-1.65-.24-2.47v0l3.34,0C264.24,89.39,264.65,97.58,264.75,98.32Z"/><path class="cls-7" d="M270.45,98.3h-3.17a.3.3,0,0,1-.14,0s0-.05-.05-.08c-.23-2.71.2-5.42.19-8.13,0-1-.16-2.11-.24-3.16v0l3.34,0C269.92,86.87,270.34,97.35,270.45,98.3Z"/><path class="cls-8" d="M276.23,98.28s-3,0-3.17,0a.36.36,0,0,1-.15,0,.12.12,0,0,1,0-.09c-.24-3.12.2-6.22.18-9.34,0-1.2-.16-2.41-.24-3.62v0h3.34C275.69,85.16,276.12,97.18,276.23,98.28Z"/><path class="cls-8" d="M282.25,98.25l-3.16,0a.34.34,0,0,1-.15,0s0,0-.05-.08c-.23-2.51.21-5,.19-7.55,0-1-.15-2-.23-2.94v0l3.35,0C281.72,87.63,282.14,97.37,282.25,98.25Z"/><path class="cls-7" d="M288,98.23h-3.31s-.05,0-.05,0c-.23-1.62.21-3.24.21-4.87-.05-.63-.16-1.26-.24-1.89v0l3.35,0C287.52,91.38,287.92,97.66,288,98.23Z"/><path class="cls-9" d="M258.35,98.36s-3,0-3.17,0c-.05,0-.11,0-.14,0a.15.15,0,0,1,0-.13c-.24-4.58.18-9.16.16-13.75-.05-1.78-.17-3.56-.25-5.34v-.07c1.11,0,2.23,0,3.34,0C257.78,79,258.24,96.75,258.35,98.36Z"/><path class="cls-9" d="M264.37,98.34h-3.16a.36.36,0,0,1-.15,0,.07.07,0,0,1,0-.08c-.24-2.81.2-5.62.18-8.44,0-1.09-.16-2.18-.24-3.28v0c1.11,0,2.23,0,3.35,0C263.84,86.48,264.26,97.35,264.37,98.34Z"/><path class="cls-9" d="M270.07,98.32H266.9a.25.25,0,0,1-.15,0,.12.12,0,0,1,0-.1c-.24-3.6.19-7.2.17-10.8,0-1.39-.16-2.79-.24-4.19v0l3.34,0C269.52,83.15,270,97.05,270.07,98.32Z"/><path class="cls-9" d="M275.84,98.29l-3.16,0a.25.25,0,0,1-.15,0,.14.14,0,0,1,0-.12c-.25-4.13.18-8.26.16-12.39,0-1.6-.16-3.21-.25-4.81V80.9c1.12,0,2.23,0,3.35,0C275.28,80.89,275.73,96.84,275.84,98.29Z"/><path class="cls-9" d="M281.87,98.27l-3.17,0a.29.29,0,0,1-.14,0,.1.1,0,0,1-.05-.1c-.24-3.34.2-6.68.18-10-.05-1.29-.16-2.59-.24-3.89v0c1.12,0,2.23,0,3.35,0C281.32,84.18,281.76,97.1,281.87,98.27Z"/><path class="cls-9" d="M287.52,98.14s-3,0-3.16,0a.34.34,0,0,1-.15,0,.05.05,0,0,1,0-.06c-.24-2.15.2-4.31.19-6.47,0-.83-.16-1.67-.23-2.51v0l3.35,0C287,89.05,287.41,97.38,287.52,98.14Z"/><path class="cls-10" d="M39.88,76.48c.59,0,1.08.61,1.1,1.39l.33,18.57a1.29,1.29,0,0,1-1.05,1.43l-26.55.53c-.59,0-1.08-.61-1.1-1.39l-.33-18.57A1.29,1.29,0,0,1,13.33,77Z"/><polygon class="cls-5" points="15.22 98.12 15.16 98.18 14.92 98.12 15.22 98.12"/><polygon class="cls-5" points="41.21 96.76 40.48 97.84 15.22 98.12 17.68 95.38 21.86 91.04 26.31 94.85 35.33 85.39 41.2 91.43 41.18 92.9 41.21 96.76"/><path class="cls-11" d="M39.88,76.48c.59,0,1.08.61,1.1,1.39l.33,18.57a1.29,1.29,0,0,1-1.05,1.43l-26.55.53c-.59,0-1.08-.61-1.1-1.39l-.33-18.57A1.29,1.29,0,0,1,13.33,77Z"/><path class="cls-3" d="M14.36,96.65a19.19,19.19,0,0,1,2.79-3.86q1.52-1.83,3.18-3.52l0,0a1,1,0,0,1,1.42,0h0l4,4.14a1,1,0,0,1,0,1.41,1,1,0,0,1-1.42,0l-4-4.15,1.45,0q-1.5,1.83-3.17,3.51a20.45,20.45,0,0,1-3.57,3.17.51.51,0,0,1-.69-.16A.48.48,0,0,1,14.36,96.65Z"/><path class="cls-3" d="M23.67,95.32c.27-1.45,1.31-2.19,2.07-3.2s1.64-1.9,2.46-2.85c1.68-1.86,3.35-3.73,5.13-5.51l0,0a1,1,0,0,1,1.41,0h0l7,7.21a1,1,0,0,1-1.43,1.4l-7-7.22,1.45,0c-1.59,1.94-3.28,3.79-5,5.65-.86.91-1.71,1.83-2.58,2.73s-1.57,2-3,2.38a.48.48,0,0,1-.59-.33A.55.55,0,0,1,23.67,95.32Z"/><ellipse class="cls-12" cx="21.31" cy="82.44" rx="2.68" ry="2.85"/><path class="cls-10" d="M197.15,87.25l-.29,110.44a5.36,5.36,0,0,1-5.38,5.34l-97.57-.39a5.38,5.38,0,0,1-5.34-5.39L89,67.1a5.38,5.38,0,0,1,5.39-5.34l78,.31"/><line class="cls-13" x1="172.44" y1="62.07" x2="197.15" y2="86.83"/><path class="cls-3" d="M157.3,62.82c-3.15.18-6.3.26-9.46.39l-9.45.22c-6.31.13-12.62.15-18.92.15l-18.92-.06H94.64l-.47,0a2.85,2.85,0,0,0-.4,0,3.4,3.4,0,0,0-1.45.62,3.55,3.55,0,0,0-1.51,2.68c0,.21,0,.7,0,1.07v3.54l-.23,75.67L90.37,185l-.05,9.46v2.36c0,.19,0,.43,0,.56a2.34,2.34,0,0,0,0,.38,3.1,3.1,0,0,0,.19.74,3.16,3.16,0,0,0,3,2h17.73l37.83,0H168c3.15,0,6.3.07,9.46.1a73.39,73.39,0,0,1,9.46.6,1,1,0,0,1,0,1.9,73.39,73.39,0,0,1-9.46.6c-3.16,0-6.31.1-9.46.1H149.11l-37.83,0-9.46,0H93.55a7.16,7.16,0,0,1-1.56-.17,6.61,6.61,0,0,1-4.67-4,6.24,6.24,0,0,1-.4-1.54,7.2,7.2,0,0,1-.07-.8v-3l0-9.46L87,147.12l.32-75.66V67.91c0-.41,0-.72,0-1.3a7.11,7.11,0,0,1,5.85-6.48c.26,0,.51-.08.77-.09l.71,0h1.19l4.73,0,18.91.09c6.31,0,12.61.12,18.92.29l9.45.3c3.16.15,6.31.25,9.46.46a.82.82,0,0,1,.76.87A.8.8,0,0,1,157.3,62.82Z"/><path class="cls-3" d="M198.81,87.25l-.14,55.22-.07,27.61,0,13.81c0,2.3,0,4.6,0,6.9,0,1.15-.08,2.3-.12,3.45a10.19,10.19,0,0,1-.6,3.45,1,1,0,0,1-1.33.57,1,1,0,0,1-.58-.58,9.93,9.93,0,0,1-.58-3.45c0-1.15-.1-2.3-.1-3.45,0-2.3,0-4.6,0-6.9l0-13.81.07-27.61.15-55.22a1.66,1.66,0,1,1,3.32,0Z"/><path class="cls-3" d="M174.1,62.07,174,86.73l-1.67-1.68c2.45.07,4.9.2,7.36.31,1.22.06,2.45.1,3.67.2s2.45.23,3.68.27a1,1,0,0,1,.92,1,1,1,0,0,1-.93.92c-1.23,0-2.45.18-3.68.24s-2.45.13-3.68.18c-2.45.09-4.9.2-7.35.25a1.64,1.64,0,0,1-1.67-1.6v-.08l.12-24.66a1.67,1.67,0,1,1,3.33,0Z"/><line class="cls-1" x1="102.49" y1="143.48" x2="182.82" y2="143.8"/><path class="cls-14" d="M102.5,142.59c6.69-.41,13.39-.46,20.08-.41l20.08.19c6.69,0,13.39.19,20.08.28s13.39.26,20.08.44a.71.71,0,0,1,0,1.42q-10,.19-20.08.28c-6.69,0-13.39.13-20.08.12l-20.08,0c-6.7,0-13.39-.11-20.08-.58a.89.89,0,0,1,0-1.77Z"/><line class="cls-1" x1="157.34" y1="155.97" x2="182.77" y2="156.07"/><path class="cls-14" d="M157.34,155.23c4.24-.79,8.48-.62,12.72-.55s8.47.31,12.71.73a.66.66,0,0,1,.59.72.67.67,0,0,1-.6.6c-4.24.38-8.48.56-12.71.62s-8.48.18-12.72-.65a.74.74,0,0,1-.58-.88A.76.76,0,0,1,157.34,155.23Z"/><line class="cls-1" x1="140.59" y1="155.9" x2="151.29" y2="155.94"/><path class="cls-14" d="M140.59,155.06a14.36,14.36,0,0,1,5.35-.5,35.81,35.81,0,0,1,5.35.55.84.84,0,0,1,0,1.66,36,36,0,0,1-5.36.51,14.4,14.4,0,0,1-5.35-.55.89.89,0,0,1-.52-1.14A.92.92,0,0,1,140.59,155.06Z"/><line class="cls-1" x1="177.8" y1="168.32" x2="182.72" y2="168.34"/><path class="cls-14" d="M177.8,167.75a6.17,6.17,0,0,1,2.46-.77,4.61,4.61,0,0,1,1.23,0,2.89,2.89,0,0,1,1.23.49A1.07,1.07,0,0,1,183,169a1,1,0,0,1-.24.23,2.75,2.75,0,0,1-1.23.48,4.23,4.23,0,0,1-1.23,0,6.21,6.21,0,0,1-2.46-.79.65.65,0,0,1-.22-.9A.63.63,0,0,1,177.8,167.75Z"/><line class="cls-1" x1="140.54" y1="168.17" x2="170.8" y2="168.29"/><path class="cls-14" d="M140.54,167.52c2.52-.14,5.05-.25,7.57-.33s5-.16,7.57-.19l7.56-.1a36.33,36.33,0,0,1,7.57.45,1,1,0,0,1,0,1.88,37.74,37.74,0,0,1-7.57.39l-7.56-.16c-2.53-.05-5-.18-7.57-.26s-5-.23-7.56-.39a.65.65,0,0,1,0-1.29Z"/><line class="cls-1" x1="102.54" y1="130.75" x2="160.18" y2="130.99"/><path class="cls-14" d="M102.55,130.11q7.2-.2,14.41-.3l14.41-.17,14.4-.07a133.34,133.34,0,0,1,14.41.48.94.94,0,0,1,.85,1,1,1,0,0,1-.86.85,135.87,135.87,0,0,1-14.41.36l-14.4-.19L117,131.81q-7.2-.15-14.41-.42a.64.64,0,0,1-.62-.66A.65.65,0,0,1,102.55,130.11Z"/><line class="cls-1" x1="150.9" y1="79.01" x2="101.1" y2="78.81"/><path class="cls-3" d="M150.89,79.78q-6.22.25-12.45.38c-4.15.08-8.3.2-12.45.23l-12.45.11a84.87,84.87,0,0,1-12.44-.56,1.14,1.14,0,0,1,0-2.26,85,85,0,0,1,12.45-.45l12.45.21c4.14.06,8.29.22,12.44.32s8.3.29,12.45.48a.77.77,0,0,1,0,1.54Z"/><line class="cls-1" x1="169.78" y1="131.03" x2="181.13" y2="131.07"/><path class="cls-14" d="M169.78,130.39c1.9-.29,3.79-.47,5.68-.58.95-.05,1.89-.09,2.84-.12a5.55,5.55,0,0,1,2.84.44,1,1,0,0,1,.47,1.4,1.06,1.06,0,0,1-.48.48,5.55,5.55,0,0,1-2.84.42c-.95,0-1.89-.08-2.84-.15-1.89-.12-3.78-.31-5.67-.61a.65.65,0,0,1-.54-.75A.64.64,0,0,1,169.78,130.39Z"/><line class="cls-1" x1="140.49" y1="180.43" x2="167.39" y2="180.54"/><path class="cls-14" d="M140.49,179.84c4.49-.38,9-.57,13.46-.66s9-.25,13.44.55a.82.82,0,0,1,.67,1,.84.84,0,0,1-.67.67c-4.49.76-9,.53-13.46.44s-9-.35-13.44-.77a.59.59,0,0,1-.54-.64A.61.61,0,0,1,140.49,179.84Z"/><path class="cls-15" d="M101.24,101.31l11,12.87,9.7-4.64s8.71,3.31,8.29,3.31,10.68-11.41,10.68-11.41l5.91,2.66,8.15-2.13,9,13.8,12.79-13.27"/><path class="cls-16" d="M100,112.3l10.44-16.14a1.63,1.63,0,0,1,2.24-.48,1.73,1.73,0,0,1,.5.51l0,.06,5.71,9.32-2.46-.43,9.35-7.52a1.67,1.67,0,0,1,2.16.07l15.23,13.89-1.88-.26,10.56-5.39a1.71,1.71,0,0,1,1.27-.1l10.56,3.43-1.92.68L168,100.3l.05-.06a1.59,1.59,0,0,1,2.2-.48,2.51,2.51,0,0,1,.24.19l12.76,12.26a.8.8,0,0,1,0,1.12.79.79,0,0,1-1.06.07l-13.9-10.94,2.49-.35-6.23,9.64a1.66,1.66,0,0,1-1.91.68L152.14,109l1.27-.1-10.55,5.39A1.68,1.68,0,0,1,141,114l-15.23-13.89,2.16.07-9.34,7.51a1.67,1.67,0,0,1-2.34-.25,1.88,1.88,0,0,1-.12-.18L110.4,98l2.77.09-11.71,15.23a.88.88,0,0,1-1.44-1Z"/><path class="cls-5" d="M104.85,181.49c10.45,1,16.71,1,25.62.15l.13-22.85c-4.2.5-15.24-.09-25.62-.15C105.42,167.19,106,177.05,104.85,181.49Z"/><path class="cls-14" d="M102.7,180.67a3.42,3.42,0,0,1,1-.4h.27l.45,0,.9.07,3.59.23c2.4.14,4.79.23,7.19.25a125.1,125.1,0,0,0,14.33-.77l-1.25,1.38V156.14h0l1.56,1.38c-2.58,0-5-.11-7.41-.17s-4.84-.12-7.25-.14-4.84,0-7.25,0-4.82.12-7.23.29h0l1.38-1.47c.25,4.23.5,8.46.63,12.73.06,2.13.09,4.27,0,6.42,0,1.08-.09,2.17-.19,3.26-.06.55-.1,1.1-.2,1.66l-.06.41,0,.19h0A.6.6,0,0,0,102.7,180.67Zm-2.26,1.61a4.86,4.86,0,0,1-.09-1.59l.14-1c.08-.48.13-1,.18-1.49.09-1,.14-2.05.17-3.08.06-2.08,0-4.17,0-6.27-.13-4.2-.38-8.42-.63-12.65v-.1a1.29,1.29,0,0,1,1.22-1.36h.17c2.43.17,4.84.3,7.26.41s4.83.21,7.24.26,4.83.09,7.24,0a40.62,40.62,0,0,0,7.06-.68,1.28,1.28,0,0,1,1.53,1,1.09,1.09,0,0,1,0,.26v.12h0v25.34a1.4,1.4,0,0,1-1.24,1.38,130.05,130.05,0,0,1-14.64.78c-2.45,0-4.89-.11-7.32-.25l-3.65-.24-.91-.07-.45,0-.64-.07A10.53,10.53,0,0,1,100.44,182.28Z"/><path class="cls-10" d="M107.38,162.55c3.8,3.7,12.24,9.21,17.78,14.3"/><path class="cls-10" d="M107.84,162.08c1.53,1.07,3.06,2.15,4.59,3.26l4.6,3.36c1.52,1.15,3,2.33,4.49,3.57a24.73,24.73,0,0,1,4.08,4.1.65.65,0,0,1-.13.92.67.67,0,0,1-.74,0c-1.63-1-3.14-2.12-4.64-3.26l-4.55-3.41q-2.27-1.72-4.49-3.55a28.42,28.42,0,0,1-4.13-4.08.67.67,0,0,1,.11-.94.68.68,0,0,1,.79,0Z"/><path class="cls-10" d="M124.8,162.4c-5.67,5.68-14.67,11.81-17.22,15"/><path class="cls-10" d="M125.1,162.69a23.32,23.32,0,0,1-3.81,4.4c-1.42,1.29-2.86,2.57-4.32,3.8l-4.38,3.66a41.36,41.36,0,0,0-4,3.7l0,0a1.28,1.28,0,0,1-2-1.63,18.9,18.9,0,0,1,2.1-2.24c.72-.67,1.46-1.31,2.21-1.92,1.49-1.22,3-2.41,4.5-3.57s3-2.31,4.49-3.5a56.35,56.35,0,0,1,4.64-3.33.43.43,0,0,1,.59.59Z"/><path class="cls-1" d="M26.88,135.47c-1.95.75-2.75,3-3.32,5l-2,7.18a10,10,0,0,0,12.39-5.17,8.28,8.28,0,0,0,6,7l.48-4c.5-.5,1.37-.22,2,.19s1.2.95,1.91.86a1.8,1.8,0,0,0,1.3-1.24c.23-.58.3-1.22.53-1.8.69-1.7,2.6-2.55,4.41-2.9s3.7-.37,5.35-1.16a10.52,10.52,0,0,1,3-5.82c.62-.61,1.53-1.17,2.32-.81a2.41,2.41,0,0,1,1.07,1.7,60.49,60.49,0,0,1,2.13,15.89c2.88-4.28,3.07-9.86,2.24-15a16.37,16.37,0,0,0-1.79-5.66,12.61,12.61,0,0,0-7.28-5.43,24.21,24.21,0,0,0-9.21-.72c-4.33.35-9,1.54-11.64,5-1,1.27-1.66,2.82-2.93,3.82a9.47,9.47,0,0,1-2.09,1.16l-6.19,2.79"/><path class="cls-5" d="M67.05,225.66c-2.12,2.48-5.74,2.87-9,3.09l-10,.66c-2.39.16-4.89.3-7.07-.68-3.57-1.61-5.26-5.79-5.61-9.69-.61-6.85,1.85-13.55,3.78-20.15s3.34-13.86.74-20.23c-.27,2-3.07,2.71-4.68,1.57s-2.09-3.36-1.87-5.32a10.45,10.45,0,0,1,5.78-8.08c3-1.4,5.88-3.11,7.55-6.09,1.46-2.59,1.31-6.33-1.11-8-1.52-1.08-3.79-1.33-4.56-3-.51-1.12-.86-2.93.38-2.87,1.94.1,2.82-1.59,3.3-2.75,1.67-4,7.47-4.71,11.52-6.82,2.31-1.2,2.92-3.67,4.7-5.38a13.92,13.92,0,0,1,1.26,18c-2,2.56-5.05,4.57-5.72,7.75a8,8,0,0,0,2.25,6.8,17.83,17.83,0,0,0,4.91,3.49,5.94,5.94,0,0,0,.55,3c.51,1,1.36,1.91,1.83,3a5,5,0,0,1,.32,1,1.72,1.72,0,0,1,.49-.34l-.3,1.59c0,.35,0,.7.06,1s0,.68,0,1a1.81,1.81,0,0,1-.4-.47A66.91,66.91,0,0,0,64.79,192c.25,8.58,3.26,16.86,4,25.41C69,220.28,68.93,223.47,67.05,225.66Z"/><path class="cls-10" d="M42,143.29a3.87,3.87,0,0,0-1,5.5c1,1.25,2.67,1.73,3.87,2.78a6.49,6.49,0,0,1,2,5.08A11.83,11.83,0,0,1,45.23,162c-.91,1.63-2.09,3.29-1.91,5.15a7.2,7.2,0,0,0,1.45,3.24q1.83,2.69,3.91,5.18c1.52,1.83,3.29,3.67,5.61,4.2a6.84,6.84,0,0,0,7-3.16,8.92,8.92,0,0,0,.49-7.9c-1-2.35-2.71-4.28-3.92-6.51S56.12,157,57.61,155a12.66,12.66,0,0,1,2.53-2.25A13.83,13.83,0,0,0,63,134.32a3.89,3.89,0,0,0-2.77-2,3.43,3.43,0,0,0-2.62,1.4c-.66.78-1.14,1.7-1.84,2.45-2.66,2.88-7.76,2.73-9.93,6a28.15,28.15,0,0,1-1.59,2.78,3.8,3.8,0,0,1-4.18,1"/><path class="cls-17" d="M41.9,228.64c-.23,11,1.8,37.63,5.25,37.62,3.07,0,2.88-28.62,2.87-37.8"/><path class="cls-17" d="M55.06,228.59c-.23,11,1.79,37.68,5.25,37.67,3.1,0,2.88-29.12,2.87-38"/><path class="cls-17" d="M56.49,153.74l.06.46c.53,3.89-.14,7.11,1.34,8.58s6.43,8.18,3.35,13.27-8.85,5-12.46,0-4.56-6.7-5.77-9.25.67-1.87,1.34-2.41,3.35-4.16,2.55-10.86c0-.13,0-.26,0-.39"/><path class="cls-17" d="M40.86,177.83c0,7.11.71,10.39-.85,17-2.35,10-7.12,13.48-3.17,30.19a4.37,4.37,0,0,0,4.22,3.61l22.14-.51a4.3,4.3,0,0,0,4-3.25c5.74-19.72-7.53-25.78-1.73-40.13,2.7-6.69,1.33-14.36-4.7-18.27"/><path class="cls-17" d="M56.05,175.12a4.27,4.27,0,0,1,.85,4.41"/><path class="cls-17" d="M39.77,146.28c3.25.65,5,.46,5.85-1.67s.74-4.46,5.76-5.67,6.5-2.13,8.63-7.15"/><path class="cls-17" d="M46.79,153.09c-2.32-.7-3.58-1.61-6.92-6.4"/><path class="cls-17" d="M60.85,132.16c3.57,4.11,7.74,18.52-4.33,21.52"/><path class="cls-17" d="M40.52,178a29.42,29.42,0,0,0-5.05,3.36,18.34,18.34,0,0,1-2.19-7.62,38.46,38.46,0,0,1,9.39-8.57"/><path class="cls-3" d="M32.12,133.84a13.6,13.6,0,0,0-4.43,2A7.26,7.26,0,0,0,26,137.28a4.38,4.38,0,0,0-.81,1.88c-.3,1.45-.12,3.2-.54,5.12a7.13,7.13,0,0,1-1.2,2.8,7.48,7.48,0,0,1-2.23,2h0l-.48-2.19a22.08,22.08,0,0,0,4,.35,12.52,12.52,0,0,0,3.82-.61,7.92,7.92,0,0,0,3.19-2,7.83,7.83,0,0,0,1.87-3.34v0a.59.59,0,0,1,1.15.29,9.26,9.26,0,0,1-1.9,4.06,9.67,9.67,0,0,1-3.67,2.69,14.22,14.22,0,0,1-4.36,1,24,24,0,0,1-4.41-.07,1.17,1.17,0,0,1-1.07-1.26,1.19,1.19,0,0,1,.45-.83l.13-.1h0a5.39,5.39,0,0,0,2.31-3.38c.34-1.45.25-3.19.73-5.11a6.52,6.52,0,0,1,1.41-2.72,7.17,7.17,0,0,1,2.4-1.69,12.9,12.9,0,0,1,2.59-.86,9,9,0,0,1,2.72-.32.39.39,0,0,1,.37.42.4.4,0,0,1-.31.37Z"/><path class="cls-3" d="M64.06,150.09a16.76,16.76,0,0,0,2.62-8.64A20.17,20.17,0,0,0,65,132.64a14.14,14.14,0,0,0-5.63-6.54,13.39,13.39,0,0,0-4-1.54A21.3,21.3,0,0,0,51,124.2a19.73,19.73,0,0,0-8.57,1.85,13.82,13.82,0,0,0-6.22,5.9,15.21,15.21,0,0,0-1.42,8.68,18.52,18.52,0,0,0,.84,4.45,11.42,11.42,0,0,0,.91,2,8.38,8.38,0,0,0,1.38,1.76h0a.28.28,0,0,1,0,.4.28.28,0,0,1-.36,0,9.11,9.11,0,0,1-2.93-3.87,17.49,17.49,0,0,1-1.23-4.68,23.78,23.78,0,0,1-.19-4.86,14.7,14.7,0,0,1,1.3-4.8,15.18,15.18,0,0,1,6.88-7.1A20.76,20.76,0,0,1,51,121.81a23,23,0,0,1,4.92.47,14.09,14.09,0,0,1,4.67,2A15.64,15.64,0,0,1,66.64,132a20.89,20.89,0,0,1,1.25,9.57,16.61,16.61,0,0,1-3.4,8.88.27.27,0,0,1-.38.05.28.28,0,0,1-.06-.37Z"/><line class="cls-17" x1="58.33" y1="140.93" x2="56.48" y2="140.93"/><circle class="cls-18" cx="53.38" cy="141.23" r="3.16"/><circle class="cls-18" cx="61.6" cy="141.23" r="3.16"/><line class="cls-1" x1="41.68" y1="187.07" x2="38.29" y2="184.91"/><path class="cls-14" d="M41.4,187.51a3.21,3.21,0,0,1-1.88-.79A8.47,8.47,0,0,1,38,185.36a.55.55,0,0,1,.06-.78.57.57,0,0,1,.51-.12,8.51,8.51,0,0,1,1.88.8A3.31,3.31,0,0,1,42,186.62a.62.62,0,0,1-.29.83A.48.48,0,0,1,41.4,187.51Z"/><line class="cls-1" x1="37.38" y1="193.84" x2="27.78" y2="187.74"/><path class="cls-14" d="M37.16,194.18c-1.7-.85-3.36-1.78-5-2.73-.83-.47-1.64-1-2.45-1.45a8.47,8.47,0,0,1-2.25-1.76.62.62,0,0,1,.07-.88.63.63,0,0,1,.57-.13,8.48,8.48,0,0,1,2.54,1.3c.79.52,1.58,1.05,2.36,1.6,1.55,1.09,3.1,2.19,4.6,3.37a.4.4,0,0,1,.07.57A.41.41,0,0,1,37.16,194.18Z"/><path class="cls-10" d="M53.75,206.39l-23.11,9.5a1.41,1.41,0,0,1-1.83-.77L19.14,191.5a1.41,1.41,0,0,1,.76-1.83L48.39,178a1.4,1.4,0,0,1,1.83.77l7.49,18.28"/><line class="cls-19" x1="57.71" y1="197.05" x2="53.85" y2="206.35"/><path class="cls-3" d="M54.08,207.21l-12,4.93-6,2.46-3,1.23-1.5.62-.37.15c-.14.05-.21.09-.46.17a2.22,2.22,0,0,1-1.3,0,2.31,2.31,0,0,1-1.09-.7,2.55,2.55,0,0,1-.36-.56l-.16-.4-.62-1.5-1.22-3-2.46-6-4.91-12-.31-.75a2.3,2.3,0,0,1-.16-1.26,2.17,2.17,0,0,1,.56-1.17,2.07,2.07,0,0,1,.5-.43,2.64,2.64,0,0,1,.29-.15l.2-.08,3-1.23,6-2.46,12-4.91,6-2.46.75-.3.38-.16.18-.07a2.11,2.11,0,0,1,.3-.1,2.26,2.26,0,0,1,2.37.77,2.46,2.46,0,0,1,.34.56l.15.38.31.75.61,1.5,2.46,6,1.17,3a16.1,16.1,0,0,1,.94,3.12.51.51,0,0,1-.43.59.5.5,0,0,1-.51-.21,16.54,16.54,0,0,1-1.52-2.88l-1.28-3-2.46-6-.62-1.5-.3-.75-.16-.38a.47.47,0,0,0-.07-.12.51.51,0,0,0-.54-.18l-1.4.57-6,2.45-12,4.92-6,2.45-3,1.23-.17.08-.07,0-.11.09a.61.61,0,0,0-.13.27.55.55,0,0,0,0,.32l.31.75,4.91,12,2.46,6,1.23,3,.61,1.5.15.35a.35.35,0,0,0,.08.13.54.54,0,0,0,.25.16.57.57,0,0,0,.29,0l.67-.27,1.5-.61,3-1.24,6-2.46,12-4.92a.88.88,0,1,1,.67,1.63Z"/><path class="cls-3" d="M58,197.86l-6.57,2.7.49-1.15c.21.6.4,1.22.59,1.83.09.31.2.61.27.93s.14.64.24.94a.5.5,0,0,1-.93.38c-.14-.29-.33-.56-.49-.84s-.3-.57-.45-.85c-.29-.57-.6-1.14-.87-1.72a.84.84,0,0,1,.41-1.12l0,0,0,0,6.58-2.68a.87.87,0,0,1,.66,1.62Z"/><line class="cls-1" x1="38.66" y1="188.65" x2="44.67" y2="203.32"/><path class="cls-14" d="M39.18,188.44A17.06,17.06,0,0,1,41,192l1.44,3.7c.5,1.22.92,2.48,1.39,3.72s.88,2.49,1.29,3.75a.45.45,0,0,1-.84.34c-.59-1.18-1.17-2.37-1.71-3.58s-1.12-2.4-1.63-3.62l-1.56-3.64a18.21,18.21,0,0,1-1.21-3.79.56.56,0,0,1,.47-.66A.57.57,0,0,1,39.18,188.44Z"/><line class="cls-1" x1="37.4" y1="195.97" x2="41.02" y2="204.82"/><path class="cls-14" d="M37.83,195.79A13.84,13.84,0,0,1,40,200.07a37.51,37.51,0,0,1,1.41,4.59.43.43,0,0,1-.31.51.42.42,0,0,1-.46-.2,36.58,36.58,0,0,1-2.21-4.26A14,14,0,0,1,37,196.15a.49.49,0,0,1,.45-.53A.52.52,0,0,1,37.83,195.79Z"/><line class="cls-1" x1="35.01" y1="190.14" x2="36.54" y2="193.86"/><path class="cls-14" d="M35.51,189.94a3.38,3.38,0,0,1,1.07,1.74,8.64,8.64,0,0,1,.45,2,.55.55,0,0,1-1,.41A8.32,8.32,0,0,1,35,192.33a3.26,3.26,0,0,1-.46-2,.62.62,0,0,1,.72-.51A.81.81,0,0,1,35.51,189.94Z"/><line class="cls-1" x1="36.68" y1="204.6" x2="37.38" y2="206.31"/><path class="cls-14" d="M37,204.46a1.73,1.73,0,0,1,.81.67.87.87,0,0,1,.07,1,.84.84,0,0,1-1,.42.87.87,0,0,1-.63-.74,1.72,1.72,0,0,1,.11-1.05.5.5,0,0,1,.66-.27Z"/><line class="cls-1" x1="31.37" y1="191.64" x2="35.68" y2="202.16"/><path class="cls-14" d="M31.75,191.48c.89,1.68,1.7,3.4,2.5,5.12.4.86.78,1.73,1.16,2.6a8.81,8.81,0,0,1,.83,2.74.63.63,0,0,1-1.11.45,8.19,8.19,0,0,1-1.33-2.53c-.34-.88-.68-1.77-1-2.66-.64-1.79-1.27-3.58-1.81-5.41a.41.41,0,0,1,.76-.31Z"/><line class="cls-1" x1="42.44" y1="187.1" x2="46.75" y2="197.63"/><path class="cls-14" d="M42.82,187c.89,1.68,1.7,3.4,2.5,5.12.4.86.78,1.73,1.16,2.6a8.67,8.67,0,0,1,.83,2.73.64.64,0,0,1-.58.68.62.62,0,0,1-.53-.22,8.42,8.42,0,0,1-1.33-2.53c-.34-.89-.68-1.77-1-2.67-.64-1.78-1.27-3.58-1.81-5.4a.41.41,0,0,1,.76-.31Z"/><line class="cls-1" x1="47.47" y1="199.38" x2="48.32" y2="201.46"/><path class="cls-14" d="M47.85,199.23a4.55,4.55,0,0,1,.77.89,4.85,4.85,0,0,1,.29.49.47.47,0,0,1,0,.62,1.12,1.12,0,0,1-1.1.45.49.49,0,0,1-.47-.41,4.9,4.9,0,0,1-.13-.55,5.06,5.06,0,0,1-.08-1.18.47.47,0,0,1,.5-.42A.47.47,0,0,1,47.85,199.23Z"/><line class="cls-1" x1="27.72" y1="193.13" x2="31.56" y2="202.49"/><path class="cls-14" d="M28.07,193a44.7,44.7,0,0,1,2.34,4.5,15.74,15.74,0,0,1,1.62,4.8.53.53,0,0,1-1,.39,15.91,15.91,0,0,1-2.21-4.56,43.92,43.92,0,0,1-1.49-4.85.38.38,0,0,1,.69-.28Z"/><line class="cls-1" x1="38.31" y1="186.67" x2="34.45" y2="185.53"/><path class="cls-14" d="M38.16,187.18a3.31,3.31,0,0,1-2-.25A8.36,8.36,0,0,1,34.3,186a.55.55,0,0,1-.16-.77.54.54,0,0,1,.46-.25,8.4,8.4,0,0,1,2,.25,3.31,3.31,0,0,1,1.84.89.63.63,0,0,1-.05.88A.69.69,0,0,1,38.16,187.18Z"/><line class="cls-1" x1="36.04" y1="194.36" x2="25.12" y2="191.15"/><path class="cls-14" d="M35.92,194.76c-1.87-.36-3.72-.8-5.56-1.25-.92-.23-1.84-.47-2.75-.72A8.68,8.68,0,0,1,25,191.72a.63.63,0,0,1-.18-.87.65.65,0,0,1,.51-.28,8.51,8.51,0,0,1,2.81.55c.9.28,1.81.57,2.7.88,1.8.62,3.59,1.25,5.35,2a.42.42,0,0,1,.23.54A.43.43,0,0,1,35.92,194.76Z"/><path class="cls-10" d="M55.23,201.92,35.64,217.41a1.41,1.41,0,0,1-2-.23l-15.8-20a1.4,1.4,0,0,1,.23-2l24.17-19.07a1.4,1.4,0,0,1,2,.23l12.23,15.51"/><line class="cls-19" x1="56.46" y1="191.85" x2="55.32" y2="201.85"/><path class="cls-3" d="M55.78,202.61l-10.17,8-5.08,4-2.54,2-1.28,1-.31.25c-.12.09-.18.15-.39.29a2.31,2.31,0,0,1-1.25.37,2.33,2.33,0,0,1-1.74-.81l-.27-.34-1-1.28-2-2.54-4-5.09-8-10.17-.51-.64a2.3,2.3,0,0,1-.5-1.17,2.34,2.34,0,0,1,.21-1.28,2.94,2.94,0,0,1,.37-.55l.24-.22.17-.14,2.55-2,5.09-4,10.17-8,5.09-4,.63-.5.32-.25.16-.13a2,2,0,0,1,.26-.18,2.27,2.27,0,0,1,2.49.09,2.56,2.56,0,0,1,.48.45l.25.32.51.64,1,1.27,4,5.09,2,2.58a16.2,16.2,0,0,1,1.76,2.74.51.51,0,0,1-.79.62,16.18,16.18,0,0,1-2.26-2.35l-2-2.5-4-5.09-1-1.27-.5-.64-.25-.31-.11-.11a.56.56,0,0,0-.57,0l-1.19.93-5.08,4-10.18,8-5.09,4-2.54,2-.15.12a.12.12,0,0,0-.05.05.27.27,0,0,0-.09.12.57.57,0,0,0,.09.59l.5.63,8,10.18,4,5.09,2,2.54,1,1.27.23.3a.52.52,0,0,0,.11.1.55.55,0,0,0,.29.08.57.57,0,0,0,.28-.08l.57-.45,1.27-1,2.54-2,5.09-4,10.16-8a.88.88,0,0,1,1.1,1.38Z"/><path class="cls-3" d="M57,192.53l-5.57,4.41.14-1.24c.38.52.72,1.06,1.08,1.6.17.27.36.53.52.82s.3.57.49.83a.51.51,0,0,1-.79.63c-.21-.24-.47-.45-.7-.68s-.45-.46-.67-.69c-.44-.47-.89-.93-1.31-1.42a.84.84,0,0,1,.08-1.19l0,0,0,0,5.58-4.39A.88.88,0,0,1,57,192.53Z"/><line class="cls-1" x1="35.84" y1="189.02" x2="45.66" y2="201.47"/><path class="cls-14" d="M36.28,188.67a17.76,17.76,0,0,1,2.7,2.92l2.4,3.15c.81,1,1.57,2.13,2.36,3.2s1.53,2.15,2.28,3.25a.45.45,0,0,1-.13.63.45.45,0,0,1-.59-.07c-.89-1-1.77-2-2.63-3s-1.73-2-2.56-3l-2.51-3.07a17.32,17.32,0,0,1-2.2-3.31.58.58,0,0,1,.26-.77A.6.6,0,0,1,36.28,188.67Z"/><line class="cls-1" x1="36.65" y1="196.41" x2="42.57" y2="203.91"/><path class="cls-14" d="M37,196.12a14.1,14.1,0,0,1,3.26,3.51,37.55,37.55,0,0,1,2.63,4,.43.43,0,0,1-.17.58.42.42,0,0,1-.49-.06,37.45,37.45,0,0,1-3.3-3.49,13.79,13.79,0,0,1-2.66-4,.5.5,0,0,1,.29-.63A.49.49,0,0,1,37,196.12Z"/><line class="cls-1" x1="32.74" y1="191.46" x2="35.24" y2="194.62"/><path class="cls-14" d="M33.16,191.13a3.33,3.33,0,0,1,1.51,1.38,7.87,7.87,0,0,1,1,1.78.55.55,0,0,1-.83.66,8.27,8.27,0,0,1-1.51-1.37,3.36,3.36,0,0,1-1-1.79.63.63,0,0,1,.55-.69A.65.65,0,0,1,33.16,191.13Z"/><line class="cls-1" x1="38.33" y1="204.9" x2="39.47" y2="206.35"/><path class="cls-14" d="M38.61,204.67a1.82,1.82,0,0,1,1,.42.9.9,0,0,1,.34.92.89.89,0,0,1-1.68.14,1.74,1.74,0,0,1-.18-1,.51.51,0,0,1,.56-.45Z"/><line class="cls-1" x1="29.65" y1="193.9" x2="36.7" y2="202.83"/><path class="cls-14" d="M30,193.65c1.33,1.37,2.58,2.8,3.82,4.23.62.72,1.23,1.45,1.83,2.18a8.75,8.75,0,0,1,1.55,2.4.63.63,0,0,1-.94.74,8.59,8.59,0,0,1-2-2.06c-.57-.76-1.14-1.52-1.69-2.29-1.11-1.54-2.2-3.09-3.23-4.7a.41.41,0,0,1,.13-.56A.39.39,0,0,1,30,193.65Z"/><line class="cls-1" x1="39.04" y1="186.49" x2="46.09" y2="195.42"/><path class="cls-14" d="M39.36,186.24c1.33,1.37,2.58,2.8,3.83,4.23.61.72,1.22,1.45,1.82,2.18a8.52,8.52,0,0,1,1.55,2.4.63.63,0,0,1-.94.74,8.36,8.36,0,0,1-2-2.06c-.58-.76-1.14-1.52-1.7-2.28-1.11-1.55-2.2-3.1-3.23-4.71a.41.41,0,0,1,.13-.56A.39.39,0,0,1,39.36,186.24Z"/><line class="cls-1" x1="47.26" y1="196.91" x2="48.65" y2="198.67"/><path class="cls-14" d="M47.59,196.66a5,5,0,0,1,1,.64l.41.39a.48.48,0,0,1,.13.61,1.11,1.11,0,0,1-.94.74.5.5,0,0,1-.56-.27c-.1-.16-.19-.32-.28-.49a4.78,4.78,0,0,1-.4-1.12.46.46,0,0,1,.37-.53A.45.45,0,0,1,47.59,196.66Z"/><line class="cls-1" x1="26.56" y1="196.34" x2="32.82" y2="204.28"/><path class="cls-14" d="M26.85,196.11a41.87,41.87,0,0,1,3.49,3.69A15.73,15.73,0,0,1,33.23,204a.54.54,0,0,1-.81.64A16.13,16.13,0,0,1,29,200.83a46.38,46.38,0,0,1-2.77-4.26.37.37,0,0,1,.14-.51A.36.36,0,0,1,26.85,196.11Z"/><path class="cls-17" d="M33.66,177.88c-5.11,3.71-6.8,14.68,4.24,20.77-1.14,3.36-.29,5.22,3.18,5.72"/><path class="cls-17" d="M65.61,171.87c4.44,3.23,10.64,18.59-8.56,23.68"/><path class="cls-10" d="M231.83,152.11A47,47,0,0,1,236,126.22a21.14,21.14,0,0,1,4.45-6.53,10.13,10.13,0,0,1,7.18-2.9,11.66,11.66,0,0,1,7.12,3.47,21.78,21.78,0,0,1,6.63,12.63,43,43,0,0,1-.08,9.82L260.43,153a5.3,5.3,0,0,1-.41,1.9c-.61,1.21-2,1.71-3.34,2.09a105.35,105.35,0,0,1-11,2.55c-3.28.58-6.68,1-9.9.16s-6.23-3.22-6.91-6.48a5,5,0,0,1,.6-3.82,3.29,3.29,0,0,1,3.43-1.44"/><path class="cls-5" d="M220.8,205l4.28,35.15c1,8.6,2.13,17.31,5.2,25.42a2.9,2.9,0,0,0,2.61-1.5,8.12,8.12,0,0,0,.89-3,136.76,136.76,0,0,0,1.13-32.78c-.13-1.49-.24-3.14.65-4.34,1.09-1.45,3.15-1.64,5-1.69,1.45,0,3,0,4.16.87,1.3,1.07,1.48,3,1.59,4.64a122.62,122.62,0,0,0,8.87,38.4c2.33-.86,3.13-3.7,3.52-6.16,1.4-9,1.54-18.05,1.68-27.11l.41-27.24c-7.84.68-15.74,1.36-23.58.66a67.37,67.37,0,0,1-15.87-3.4l-1.42,4.2"/><path class="cls-10" d="M224.62,164.28A50.92,50.92,0,0,1,192,157.51a7.46,7.46,0,0,1-2.76-2.43,3.91,3.91,0,0,1,.44-4.48,5.16,5.16,0,0,1,4.55-1.33,21.13,21.13,0,0,1,4.68,1.51,34.69,34.69,0,0,0,23.73.28c2.44-.87,5-2,7.51-1.35,4.35,1.2,5.87,7.23,10.17,8.61,2.78.89,5.76-.51,8.13-2.21s4.59-3.79,7.39-4.58c3.62-1,7.6.41,10.4,2.91a24.26,24.26,0,0,1,6,9.43c3.15,8,4.42,16.61,5.67,25.13l1.18,8.08a6.85,6.85,0,0,1,.06,2.59c-.6,2.66-4.49,3.62-6.55,1.84a9.09,9.09,0,0,1-2.33-4.39l-7.05-22.72L265,197.07c.13,1.69.23,3.53-.7,4.94-1,1.6-3.08,2.18-4.95,2.57A72,72,0,0,1,225,203.33a15.37,15.37,0,0,1-5.82-2.7c-3.76-3.18-1.88-8.67-1.23-12.87a100.64,100.64,0,0,1,3.63-15.32q.66-2.07,1.41-4.11C223.2,167.86,224.23,164.33,224.62,164.28Z"/><path class="cls-20" d="M276,201.77c.05,2.21.1,4.56.17,7.07,2.61.41,3.84,1.64,4,3.7"/><path class="cls-20" d="M190.33,151.92c-1.62-1.48-2.83-1.63-4.48-4.62-3.55,1.19-5.52.28-6-3.39"/><path class="cls-3" d="M222.23,201.88c.54,8.94,1.4,17.87,2.36,26.78s2.09,17.82,3.86,26.53a59.35,59.35,0,0,0,1.62,6.37,12,12,0,0,0,1.21,2.71,2.43,2.43,0,0,0,.27.3s0,0-.05,0a.14.14,0,0,0-.11,0s0,0,0,0a1.41,1.41,0,0,0,.36-.43,11.23,11.23,0,0,0,1-2.79c.23-1,.42-2.11.58-3.2.31-2.17.5-4.39.65-6.61.31-4.44.4-8.92.52-13.4q.09-3.36.22-6.72c.08-2.25.19-4.49.34-6.74a.65.65,0,0,1,.69-.6.64.64,0,0,1,.6.6,215.53,215.53,0,0,1,.13,27c-.14,2.26-.31,4.53-.62,6.8-.15,1.14-.34,2.29-.6,3.44a12.92,12.92,0,0,1-1.26,3.54,4.31,4.31,0,0,1-.74.95,2.44,2.44,0,0,1-.59.44l-.36.18a3.34,3.34,0,0,1-.43.1l-.45.06a3.07,3.07,0,0,1-.53-.07,2.48,2.48,0,0,1-.8-.38,4,4,0,0,1-.89-.91,14,14,0,0,1-1.6-3.4,63,63,0,0,1-1.76-6.66c-1.84-8.9-2.92-17.84-3.92-26.79S220.18,211,219.7,202a1.27,1.27,0,0,1,2.53-.14Z"/><path class="cls-3" d="M232.85,219.84a24.23,24.23,0,0,0,6,1.82,7.79,7.79,0,0,0,2.91-.23c1-.24,2-.58,3.12-.87h0a1.25,1.25,0,0,1,1.51.93l0,.19v0c.3,4.41.95,8.89,1.65,13.32s1.53,8.86,2.47,13.24a101,101,0,0,0,3.5,12.89,16.71,16.71,0,0,0,1.31,2.82,4.76,4.76,0,0,0,.37.49c.11.13.23.17.12.13a.22.22,0,0,0-.12,0h.06c.05,0,.09,0,.13,0a.73.73,0,0,0,.25-.17,5.86,5.86,0,0,0,1.1-2.43,28.22,28.22,0,0,0,.63-3.17c.62-4.37.82-8.88,1-13.37s.27-9,.33-13.51c.12-9,.12-18,.1-27.07a1.27,1.27,0,0,1,2.54,0h0c0,9,0,18.07-.11,27.12-.06,4.52-.15,9-.32,13.57s-.4,9.06-1.05,13.64a29.1,29.1,0,0,1-.68,3.47,8,8,0,0,1-1.8,3.6,3.26,3.26,0,0,1-1.18.72,2.43,2.43,0,0,1-.7.15,3.48,3.48,0,0,1-.36,0,2.79,2.79,0,0,1-.53-.09,2.75,2.75,0,0,1-1.26-.82,6.61,6.61,0,0,1-.66-.86,18.55,18.55,0,0,1-1.56-3.3,105.62,105.62,0,0,1-3.6-13.24q-1.42-6.66-2.49-13.38c-.71-4.49-1.37-9-1.68-13.57l1.53,1.16h0c-1.06.16-2.12.38-3.27.53a10.09,10.09,0,0,1-3.59-.08,16.67,16.67,0,0,1-3.26-1.11c-1-.45-2-1-3-1.47a.59.59,0,0,1-.25-.8.59.59,0,0,1,.74-.27Z"/><path class="cls-3" d="M229,149.75a46.51,46.51,0,0,1-8.84,3.17,43.56,43.56,0,0,1-9.49,1.47A34.26,34.26,0,0,1,201,153.3a40.4,40.4,0,0,1-8.94-3.53h0l1.78-.73a8.89,8.89,0,0,1-.84,1.84c-.38.61-.8,1.08-1,1.43a3.56,3.56,0,0,0-.48,1.21,13.39,13.39,0,0,0-.22,1.53l-.44-1.07a55.3,55.3,0,0,0,7.3,5.35,32.66,32.66,0,0,0,8.15,3.58,31,31,0,0,0,8.8,1.09,45.07,45.07,0,0,0,8.92-1.11,1.27,1.27,0,0,1,1.51,1,1.23,1.23,0,0,1-.09.81h0a69,69,0,0,0-4.55,13.81A100,100,0,0,0,218.75,193c-.1,1.22-.18,2.44-.23,3.66l0,.92a2.59,2.59,0,0,0,.05.56,2.29,2.29,0,0,0,.51,1,2.45,2.45,0,0,0,1,.65l1.72.69c1.14.44,2.29.89,3.44,1.31,4.61,1.71,9.2,3.12,14,3.26,2.39.1,4.83,0,7.3-.06s4.88-.27,7.31-.53,4.85-.6,7.24-1l.9-.18.44-.09.25-.07a1.72,1.72,0,0,0,.81-.62,1.65,1.65,0,0,0,.23-.46,1,1,0,0,0,.06-.25c0-.09,0-.16,0-.33,0-.61.06-1.21.07-1.82a122,122,0,0,0-.53-14.68c-.42-4.9-1.44-9.63-2-14.55h0a.55.55,0,0,1,.49-.61.56.56,0,0,1,.55.3c2.35,4.56,2.91,9.67,3.48,14.61a127.39,127.39,0,0,1,.66,15c0,.62,0,1.26-.07,1.89a5.09,5.09,0,0,1-.19,1.25,5,5,0,0,1-.59,1.2,4.44,4.44,0,0,1-2.08,1.62,3.51,3.51,0,0,1-.63.19l-.47.1-.93.19c-2.47.48-5,.86-7.45,1.14s-5,.48-7.5.6-5,.21-7.56.09a36.43,36.43,0,0,1-7.62-1.13,71.47,71.47,0,0,1-7.22-2.31c-1.17-.44-2.33-.89-3.49-1.35l-1.74-.69A5.21,5.21,0,0,1,216.9,201a5.07,5.07,0,0,1-1.16-2.27,5.13,5.13,0,0,1-.12-1.29l0-.94c.05-1.25.13-2.5.23-3.76a101.06,101.06,0,0,1,2.38-14.86,72,72,0,0,1,4.91-14.31h0l1.42,1.79a47.44,47.44,0,0,1-9.44,1.18,33.29,33.29,0,0,1-9.52-1.19,35.13,35.13,0,0,1-8.78-3.85,57.94,57.94,0,0,1-7.63-5.59h0a1.23,1.23,0,0,1-.42-1.05,13.49,13.49,0,0,1,.27-1.91,6.63,6.63,0,0,1,.81-2c.41-.62.78-1,1-1.39a6.19,6.19,0,0,0,.59-1.3,1.28,1.28,0,0,1,1.62-.8.33.33,0,0,1,.12.05h0c1.37.64,2.76,1.24,4.17,1.77s2.85.95,4.3,1.33a34.07,34.07,0,0,0,8.88,1,40.86,40.86,0,0,0,9-1.18,66.48,66.48,0,0,1,9.13-1.88.61.61,0,0,1,.66.56A.61.61,0,0,1,229,149.75Z"/><path class="cls-20" d="M260.5,151.42c9.57.42,16.28,18.25,18,49.3-2.56.38-6.26,1.22-6.26,1.22-2.51-9.05-4.84-19.56-9-27"/><path class="cls-3" d="M231,148.52a13.48,13.48,0,0,1-.32-5.05c.1-1.69.25-3.37.46-5.05a49.48,49.48,0,0,1,2.19-10,22.67,22.67,0,0,1,5.32-9,13.46,13.46,0,0,1,4.58-3,11.68,11.68,0,0,1,2.7-.75,12,12,0,0,1,2.81,0,14.14,14.14,0,0,1,5.25,1.62,10.39,10.39,0,0,1,2.29,1.65l1,1a12.23,12.23,0,0,1,.79,1.14,18.38,18.38,0,0,1,1.28,2.39c.3.82.65,1.64.89,2.48s.5,1.66.67,2.5.37,1.68.5,2.52a72,72,0,0,1,.84,10.12,89.75,89.75,0,0,1-.39,10.1,1.2,1.2,0,0,1-2.39-.2v0a80.78,80.78,0,0,0-.68-19.54q-.2-1.2-.48-2.37c-.15-.79-.4-1.54-.62-2.31s-.53-1.47-.8-2.2a14.14,14.14,0,0,0-1.08-2,7.71,7.71,0,0,0-3.09-2.93,11.27,11.27,0,0,0-4.22-1.29,9.15,9.15,0,0,0-2.16,0,9.76,9.76,0,0,0-2.09.58,10.76,10.76,0,0,0-3.7,2.41,20.18,20.18,0,0,0-4.7,8,46.83,46.83,0,0,0-2.13,9.44c-.21,1.62-.36,3.25-.46,4.88a18,18,0,0,1-.64,4.91h0a.84.84,0,0,1-1.59,0Z"/><path class="cls-3" d="M238.76,144.7c.56.23.91.3,1.37.48a7.57,7.57,0,0,0,1.46.46,8.27,8.27,0,0,0,3.32,0H245a.62.62,0,0,1,.58,1,4.56,4.56,0,0,1-2,1.22,5.89,5.89,0,0,1-2.32.25,5.41,5.41,0,0,1-2.3-.71,3.24,3.24,0,0,1-.94-.94,2.06,2.06,0,0,1-.34-1.38.58.58,0,0,1,.65-.5l.14,0Z"/><path class="cls-4" d="M240.45,157.34a9.33,9.33,0,0,0-2.4,3.14l1.29,3.24s-5.2,16-6.08,23.95a4.84,4.84,0,0,0,.73,3.12c2.71,4.36,4.69,5.58,4.69,5.58s4.81-4.35,5.64-5.92-1.56-26.55-1.56-26.55l1.67-3.23L243,157.43Z"/><path class="cls-3" d="M234.62,190.29c.75,1,1.49,1.91,2.3,2.77.41.43.8.86,1.23,1.25.21.19.42.38.63.55a5.28,5.28,0,0,0,.57.43h0l-1.51.14c1-1,2.1-2,3.1-3,.5-.5,1-1,1.43-1.53a7.91,7.91,0,0,0,.62-.75c.1-.13.14-.22.21-.32s-.05.09,0,.09l0-.16a16,16,0,0,0,.05-2c0-.71,0-1.43-.06-2.14-.06-1.44-.15-2.88-.24-4.32-.38-5.77-.88-11.55-1.42-17.31h0l0-.19a.81.81,0,0,1,.15-.51l2.24-2.93h0v.55l-.16-1.09a.34.34,0,0,1,.28-.38.33.33,0,0,1,.29.12l.72.83a.3.3,0,0,1,.07.3L245,161h0l-1.09,3.52.13-.7h0c.54,5.79,1,11.57,1.43,17.39.09,1.45.18,2.91.24,4.37,0,.73.06,1.47.07,2.21a21.38,21.38,0,0,1-.07,2.35l-.06.37a2.8,2.8,0,0,1-.21.6,7,7,0,0,1-.39.6,10.52,10.52,0,0,1-.76.93c-.51.58-1,1.12-1.54,1.64-1,1.06-2.11,2.06-3.2,3.06h0a1.24,1.24,0,0,1-1.5.14h0a6.71,6.71,0,0,1-.89-.72l-.7-.74a16.17,16.17,0,0,1-1.21-1.55,25.73,25.73,0,0,1-2-3.3.81.81,0,0,1,.37-1.08A.8.8,0,0,1,234.62,190.29Z"/><path class="cls-3" d="M238.79,161.06l1.32,2.35a.52.52,0,0,1,.06.4l0,.17q-.66,2.82-1.41,5.63l-1.46,5.62-1.49,5.58c-.5,1.86-1.06,3.7-1.67,5.54h0a.66.66,0,0,1-.84.42.67.67,0,0,1-.45-.63,44.29,44.29,0,0,1,2-11.59c.52-1.88,1.1-3.75,1.72-5.6s1.28-3.68,2-5.5l0,.57-.66-2.62a.48.48,0,0,1,.34-.58A.5.5,0,0,1,238.79,161.06Z"/><path class="cls-3" d="M227.34,206a3.45,3.45,0,0,1-.18,1.63,5,5,0,0,1-.75,1.36,4.11,4.11,0,0,1-1.12,1,2.71,2.71,0,0,1-1.59.44.74.74,0,0,1-.69-.79.54.54,0,0,1,.05-.22l.1-.26a4.4,4.4,0,0,1,.59-1c.22-.3.49-.54.73-.81.49-.54.93-1.05,1.4-1.63l.09-.11a.77.77,0,0,1,1.09-.12A.82.82,0,0,1,227.34,206Z"/><path class="cls-3" d="M254.56,207.62c.53.36.88.65,1.23.92s.61.57.9.84.58.55.87.79.57.47.89.72l.23.17a.76.76,0,0,1,.13,1.07.7.7,0,0,1-.36.25,3,3,0,0,1-2-.11,4.67,4.67,0,0,1-1.56-1.05,3.74,3.74,0,0,1-1-1.56,2.64,2.64,0,0,1,.08-1.91.37.37,0,0,1,.5-.17l.05,0Z"/><path class="cls-3" d="M248.78,165.17a14.36,14.36,0,0,0,3.28.26,14.69,14.69,0,0,0,1.74-.19c.58-.09,1.19-.2,1.74-.34h0a.68.68,0,0,1,.84.49.7.7,0,0,1-.37.8,16.39,16.39,0,0,1-1.81.74,19.35,19.35,0,0,1-1.88.54,9.69,9.69,0,0,1-4.1.18,1.27,1.27,0,0,1,.49-2.49Z"/><path class="cls-10" d="M193.82,155.35l-.14.22a11,11,0,0,1-1.87,2.31c-.37.37-2.61-1-3-1.53s3.43-8.22,3.74-8.65,3.05,1.13,3.05,1.13l-.43,1"/><path class="cls-3" d="M194.39,155.71a16.38,16.38,0,0,1-1.15,2.41,3.67,3.67,0,0,1-.4.53l-.11.1,0,.05-.22.16a1.64,1.64,0,0,1-.45.2,2,2,0,0,1-.87,0,5.54,5.54,0,0,1-1.48-.59,8.77,8.77,0,0,1-1.2-.78,3.06,3.06,0,0,1-.72-.71,1.84,1.84,0,0,1-.23-.61c0-.12,0-.18,0-.28a2.25,2.25,0,0,1,0-.35,3.07,3.07,0,0,1,.1-.43,22.18,22.18,0,0,1,.91-2.45c.67-1.53,1.38-3,2.12-4.48.19-.37.38-.73.59-1.11l.22-.37a1.44,1.44,0,0,1,.35-.36,1.51,1.51,0,0,1,.5-.24,1.73,1.73,0,0,1,.56-.05,3.41,3.41,0,0,1,1,.22,17.63,17.63,0,0,1,2.38,1.2h0a1.23,1.23,0,0,1,.5,1.56l-.43,1a1.23,1.23,0,1,1-2.25-1l.43-1,.52,1.56h0a14.74,14.74,0,0,0-2-.93c-.12,0-.33-.09-.23-.07a.72.72,0,0,0,.25,0,1,1,0,0,0,.36-.17,1.4,1.4,0,0,0,.24-.26s-.05.09-.08.16l-.53,1.05c-.71,1.44-1.4,2.9-2,4.36a21.62,21.62,0,0,0-.83,2.1.45.45,0,0,0,0,.16s0,.06,0-.05a1,1,0,0,0,0-.12.91.91,0,0,0-.18-.46c-.09-.11.06.06.16.13a6.41,6.41,0,0,0,.84.55,4.33,4.33,0,0,0,.76.35s0,0-.26,0a.89.89,0,0,0-.31.13.64.64,0,0,0-.15.13s0,0,0,0l.12-.11a2.73,2.73,0,0,1,.44-.34,8.22,8.22,0,0,0,1.76-1.51.68.68,0,0,1,1.14.69Z"/><path class="cls-10" d="M276.76,197.1l.26,0a11.6,11.6,0,0,1,3,.17c.52.09.75,2.69.51,3.32s-8.67,2-9.21,2-.86-3.14-.86-3.14l1-.22"/><path class="cls-3" d="M276.72,196.43a15.65,15.65,0,0,1,2.62-.48,3.67,3.67,0,0,1,.67,0l.14,0h.07a1.6,1.6,0,0,1,.68.33,2,2,0,0,1,.51.7,5.92,5.92,0,0,1,.38,1.56,8.19,8.19,0,0,1,.07,1.42,3,3,0,0,1-.16,1,1.59,1.59,0,0,1-.36.54l-.21.17a1.91,1.91,0,0,1-.31.18,2.5,2.5,0,0,1-.4.17,21.07,21.07,0,0,1-2.53.69c-1.63.35-3.24.63-4.87.89-.41.07-.81.13-1.25.17a2.83,2.83,0,0,1-.43,0,1.34,1.34,0,0,1-.49-.08,1.31,1.31,0,0,1-.49-.26,2.38,2.38,0,0,1-.37-.42,3.55,3.55,0,0,1-.37-.9,17.46,17.46,0,0,1-.42-2.63h0v0a1.22,1.22,0,0,1,1-1.31l1-.22a1.23,1.23,0,1,1,.5,2.41l-1,.21,1-1.32h0a14.94,14.94,0,0,0,.41,2.17c0,.12.12.32.08.22s-.09-.14-.17-.18a1.18,1.18,0,0,0-.35-.19,1.72,1.72,0,0,0-.36,0l.18,0,1.17-.19c1.58-.26,3.17-.56,4.72-.89a20,20,0,0,0,2.19-.55l.16-.06,0,0-.09.08a.92.92,0,0,0-.27.43c0,.13,0-.09,0-.21a7,7,0,0,0,0-1,4.32,4.32,0,0,0-.16-.82s0,0,.17.2a1.42,1.42,0,0,0,.3.17.67.67,0,0,0,.19.05h0l-.16,0a3.35,3.35,0,0,1-.54-.16,7.5,7.5,0,0,0-2.25-.54.68.68,0,0,1-.1-1.33Z"/><path class="cls-3" d="M233.24,150.84a35.29,35.29,0,0,1,5.81,4.53c.45.4.9.79,1.35,1.15l.67.51c.09.06.21.15.29.19l.13.07c-.05,0-.23-.07-.2-.08a2.38,2.38,0,0,0,.48-.06c.24-.05.51-.12.78-.2.54-.16,1.1-.36,1.65-.57,2.22-.84,4.44-1.84,6.62-2.9s4.23-2.33,6.55-3.23h0a.42.42,0,0,1,.46.67,24.68,24.68,0,0,1-6,4.41,57.51,57.51,0,0,1-6.69,3.4c-.58.24-1.18.47-1.81.68-.32.1-.64.19-1,.27a3.68,3.68,0,0,1-1.35.12,2,2,0,0,1-.63-.19l-.28-.15c-.19-.11-.31-.21-.47-.32s-.55-.41-.8-.61c-.5-.42-1-.83-1.43-1.26a29.28,29.28,0,0,1-4.91-5.57.61.61,0,0,1,.17-.83A.6.6,0,0,1,233.24,150.84Z"/><path class="cls-20" d="M250.15,133.83c1.38.69,1.15,2.38,4.6,2.15a10.41,10.41,0,0,1,3.07.23"/><line class="cls-20" x1="239.42" y1="133.98" x2="241.79" y2="133.98"/><circle class="cls-21" cx="245.78" cy="134.36" r="4.06"/><circle class="cls-21" cx="235.2" cy="134.36" r="4.06"/><path class="cls-10" d="M101.52,14.1l-.22,14.12a1.36,1.36,0,0,1-1.38,1.34L73.2,29.14a1.36,1.36,0,0,1-1.34-1.38l.26-16.62A1.37,1.37,0,0,1,73.5,9.8l26.73.42a1.27,1.27,0,0,1,.58.14"/><path class="cls-3" d="M102,14.11a5.48,5.48,0,0,1,.49,2.86l0,2.85-.08,5.7V28a3.74,3.74,0,0,1,0,.45,2.43,2.43,0,0,1-1.42,1.94,2.66,2.66,0,0,1-.61.18,3.49,3.49,0,0,1-.52,0h-.72l-5.7-.07L82,30.38l-5.7-.07-2.85,0a2.81,2.81,0,0,1-1.09-.17,2.59,2.59,0,0,1-1-.76,2.55,2.55,0,0,1-.51-1.18,7.33,7.33,0,0,1,0-.89L71,15.86,71,13l0-1.43a6,6,0,0,1,.06-.9,2.33,2.33,0,0,1,.57-1.14,2.38,2.38,0,0,1,1.06-.7,2.88,2.88,0,0,1,1.06-.13l1.43,0,2.85,0L89.45,9l5.7.13L98,9.22l1.42,0,.71,0a2.3,2.3,0,0,1,.53.05,2.25,2.25,0,0,1,.57.19,1,1,0,0,1,.42,1.27.93.93,0,0,1-1.24.43h0l-.1,0h-.9l-1.42,0-2.85,0-5.7-.06L78,11l-2.85-.05-1.42,0c-.32,0-.29,0-.34,0a.24.24,0,0,0-.12.07A9.74,9.74,0,0,0,73.19,13l0,2.85L73,27.29c0,.65,0,.55,0,.65a.3.3,0,0,0,.1.07c.07,0,0,0,.32,0l2.85,0,5.7.1,11.4.22,5.7.1.71,0H100l.08,0a.29.29,0,0,0,.19-.25l.06-2.76.1-5.69.06-2.85a5.61,5.61,0,0,1,.57-2.85.54.54,0,0,1,.73-.2A.45.45,0,0,1,102,14.11Z"/><path class="cls-11" d="M101,10.5,88.85,19.61a3.61,3.61,0,0,1-4.49-.06L72.62,10.2"/><path class="cls-3" d="M84.46,20.24a26.25,26.25,0,0,1-2.63,3.13c-.47.5-1,1-1.45,1.45a2.74,2.74,0,0,1-1.91,1,.41.41,0,0,1-.45-.39v0a2.73,2.73,0,0,1,.83-2c.42-.54.85-1.07,1.3-1.59A29.19,29.19,0,0,1,83,18.92a1,1,0,0,1,1.45,1.32Z"/><path class="cls-3" d="M91.59,21.16c.65.08.91.49,1.28.81s.7.67,1,1a10.91,10.91,0,0,1,.85,1.17,3.13,3.13,0,0,1,.48,1.49.47.47,0,0,1-.43.49h-.12a3.21,3.21,0,0,1-1.4-.72,11,11,0,0,1-1-1c-.31-.37-.58-.76-.86-1.16s-.62-.74-.59-1.39a.71.71,0,0,1,.73-.69Z"/><path class="cls-10" d="M162.53,181.1a45.06,45.06,0,0,1-11.76.81,15.87,15.87,0,0,1-5.25-1,7,7,0,0,1-3.83-3.57,9.92,9.92,0,0,1-.53-4.09,59.94,59.94,0,0,1,2.23-15c.9-3.19,2.16-6.45,4.66-8.65,3.68-3.26,9.54-3.37,13.75-.83s5.85,8,6.48,12.86c.26,2.07,1.16,3.47,1.11,5.56l-.19,7.26a8.93,8.93,0,0,1-1,4.64,6,6,0,0,1-3.66,2.37,17.79,17.79,0,0,1-4.44.31l.22-.7"/><path class="cls-5" d="M134.62,225.23c-1.4,2.94-1.64,6.27-1.81,9.52a314.38,314.38,0,0,0,1.31,49.57,7.63,7.63,0,0,0,1,3.56,2.66,2.66,0,0,0,3.23,1.1,3.91,3.91,0,0,0,1.57-2.43,170.35,170.35,0,0,0,7.59-38.79,12.83,12.83,0,0,0,8.83,0q.3,18.57,1.51,37.1c.11,1.63.5,3.63,2.06,4.1a2.78,2.78,0,0,0,2.89-1.21,8,8,0,0,0,1.13-3.13A352.82,352.82,0,0,0,170.58,234a4.75,4.75,0,0,0-.3-2.43,3.3,3.3,0,0,0-2.7-1.56,13,13,0,0,0-3.22.36c-6.82,1.2-13.8-.33-20.55-1.86L133.3,226.1"/><path class="cls-1" d="M100.8,183.5a8.51,8.51,0,0,0,3.36,3.68A34.37,34.37,0,0,0,132.47,192l-4.84,22c-.77,3.53-1.51,7.39.1,10.63,1.89,3.76,6.32,5.41,10.43,6.33a67.59,67.59,0,0,0,27.79.38c2-.4,4.14-1,5.48-2.52,1.92-2.23,1.48-5.59.82-8.46s-1.39-6.08.14-8.6l4,12.5c.48,1.5,1.33,3.29,2.91,3.32a2.6,2.6,0,0,0,2.27-1.71,7.36,7.36,0,0,0,.37-3A143.69,143.69,0,0,0,177.29,189c-.91-3.46-2.32-7.31-5.64-8.63-3.83-1.53-8,1.12-12,1.73-7.33,1.1-14.23-4.49-21.64-4.21-3.57.14-6.93,1.63-10.36,2.64a38.87,38.87,0,0,1-12.55,1.5,39.83,39.83,0,0,1-6.34-.8c-2-.43-4-1.42-6-1.74S100.24,182,100.8,183.5Z"/><path class="cls-3" d="M171.6,230.23q-.73,12.71-2.09,25.33c-1,8.42-2,16.83-3.78,25.19A48.27,48.27,0,0,1,164,287a11.8,11.8,0,0,1-.69,1.56,5.12,5.12,0,0,1-1.18,1.61,2.12,2.12,0,0,1-1.45.53,3,3,0,0,1-.75-.17,5,5,0,0,1-.6-.36,4.67,4.67,0,0,1-1.18-1.68,16.25,16.25,0,0,1-1-3.26c-.22-1.08-.38-2.14-.51-3.21-.26-2.13-.43-4.26-.55-6.39-.24-4.24-.31-8.48-.35-12.72a112.06,112.06,0,0,1,.58-12.69.35.35,0,0,1,.38-.31.34.34,0,0,1,.3.31c.47,4.23.57,8.45.65,12.67s.17,8.43.44,12.62c.14,2.1.32,4.18.59,6.25.14,1,.3,2.05.52,3a13.77,13.77,0,0,0,.84,2.81,2.67,2.67,0,0,0,.6.9s.06,0,.08.05,0,0,0,0-.11,0,0,0a3.67,3.67,0,0,0,.65-.95,12.54,12.54,0,0,0,.57-1.34,47.13,47.13,0,0,0,1.62-6c1.74-8.18,2.79-16.58,3.75-25s1.76-16.79,2.32-25.2a1,1,0,0,1,2,.12Z"/><path class="cls-3" d="M158.19,247.4a20.62,20.62,0,0,1-2.5,1.21,10.24,10.24,0,0,1-2.82.71,9.79,9.79,0,0,1-2.93-.17,24.86,24.86,0,0,1-2.61-.69h0l1.19-.9c-.31,4.5-1,8.9-1.66,13.3s-1.53,8.78-2.48,13.13a84.65,84.65,0,0,1-3.69,13,16.52,16.52,0,0,1-.77,1.59,5.51,5.51,0,0,1-1.26,1.61,2,2,0,0,1-.64.36,1.74,1.74,0,0,1-.81.09,2.75,2.75,0,0,1-1.23-.4,3.89,3.89,0,0,1-1.39-1.66,13.65,13.65,0,0,1-1.08-3.42c-.22-1.12-.39-2.25-.52-3.36-.53-4.48-.7-8.92-.87-13.37s-.22-8.89-.27-13.33c-.1-8.88-.09-17.76-.07-26.64a1,1,0,0,1,2,0h0c0,8.87,0,17.74.07,26.61.05,4.43.13,8.86.27,13.28s.34,8.85.86,13.2c.13,1.08.29,2.16.5,3.21a11.89,11.89,0,0,0,.89,2.92,2.2,2.2,0,0,0,.68.88.71.71,0,0,0,.35.1c.12,0,0,0,0,0l.08-.05a4.07,4.07,0,0,0,.75-1c.24-.44.46-.92.67-1.4a83.17,83.17,0,0,0,3.58-12.62c1-4.31,1.76-8.66,2.46-13s1.35-8.76,1.64-13.11a1,1,0,0,1,1.06-.92h.14c.9.12,1.79.32,2.62.5a12.13,12.13,0,0,0,2.4.33,18.12,18.12,0,0,0,5-1h0a.58.58,0,0,1,.45,1.06Z"/><path class="cls-3" d="M141,177.72a79.22,79.22,0,0,0-9.53,2.56,63.75,63.75,0,0,1-9.88,2.35,32,32,0,0,1-10.28-.2,37.78,37.78,0,0,1-9.71-3.31l1.38-.57a9.14,9.14,0,0,1-.64,1.54c-.27.53-.63,1-.77,1.26a8.43,8.43,0,0,0-.49,2.56l-.34-.83a43.24,43.24,0,0,0,7.21,5,31.84,31.84,0,0,0,8.15,3.06,40.21,40.21,0,0,0,17.42-.44h0a1,1,0,0,1,1.09,1.4,67.06,67.06,0,0,0-4.38,13.25,97.21,97.21,0,0,0-2.09,13.89c-.09,1.16-.17,2.33-.21,3.5l0,.88a2.91,2.91,0,0,0,.06.6,2.3,2.3,0,0,0,.55,1.06,2.47,2.47,0,0,0,1,.69l1.65.65c1.09.43,2.19.86,3.29,1.26,4.41,1.64,8.84,3,13.45,3.13,2.3.1,4.64,0,7-.06s4.68-.26,7-.52,4.65-.58,6.95-1l.85-.17.43-.09a1.38,1.38,0,0,0,.27-.08,2,2,0,0,0,.88-.67,1.86,1.86,0,0,0,.34-1.12c0-.57.06-1.16.07-1.74a115.8,115.8,0,0,0-.53-14.06c-.4-4.7-1.38-9.24-2-13.92h0a.48.48,0,0,1,.41-.54.46.46,0,0,1,.49.26,27.53,27.53,0,0,1,2.17,6.88c.45,2.36.76,4.73,1,7.11a122.22,122.22,0,0,1,.61,14.32c0,.6,0,1.2-.06,1.81a4,4,0,0,1-2.6,3.7,5.36,5.36,0,0,1-.57.17l-.45.09-.88.18c-2.36.46-4.74.81-7.11,1.08s-4.77.46-7.16.57-4.78.19-7.21.08a34.8,34.8,0,0,1-7.24-1.08,65.51,65.51,0,0,1-6.87-2.21c-1.13-.41-2.24-.84-3.34-1.28l-1.66-.66a4.89,4.89,0,0,1-1.88-1.28,4.69,4.69,0,0,1-1-2.07,4.56,4.56,0,0,1-.11-1.16l0-.9c0-1.2.13-2.39.23-3.58a95.92,95.92,0,0,1,2.26-14.19,68.36,68.36,0,0,1,4.66-13.63l1.1,1.39h0a52.3,52.3,0,0,1-9.09,1.23,35.54,35.54,0,0,1-9.19-.79,33,33,0,0,1-8.65-3.25,44,44,0,0,1-7.56-5.23h0a1,1,0,0,1-.34-.83c0-.51.09-1,.18-1.57a6.1,6.1,0,0,1,.51-1.71c.32-.62.61-.94.79-1.31a8.1,8.1,0,0,0,.51-1.23,1,1,0,0,1,1.27-.62l.11.05a36,36,0,0,0,9.17,3.13,29.82,29.82,0,0,0,9.66.18,59.93,59.93,0,0,0,9.57-2.28,82.71,82.71,0,0,1,9.79-2.62,1,1,0,0,1,1.14.81,1,1,0,0,1-.8,1.14h0Z"/><path class="cls-22" d="M168.36,179.51c8.47.13,12.62,17.11,14.25,46.8a6.66,6.66,0,0,1-5.31.63c-1.58-5.69-3.17-11.6-5.2-17"/><path class="cls-22" d="M140.87,176.74c0-11.5,2.3-27.38,12.88-30a11.34,11.34,0,0,1,9.58,2.49c5.87,5.35,5.85,22.37,5.12,29.93"/><path class="cls-22" d="M179.59,227.4q.07,3.18.16,6.76c2.49.39,3.67,1.57,3.8,3.54"/><path class="cls-22" d="M100.77,180.82c-1.27-1.67-2.4-2-3.44-5.11-3.54.52-5.25-.66-5.12-4.2"/><path class="cls-3" d="M143.9,178.41c2.16.17,3.85,1,5.75,1.49a29.27,29.27,0,0,0,5.73.86,25,25,0,0,0,5.74-.37,16,16,0,0,0,5.27-1.9l0,0a1,1,0,0,1,1.36.33,1,1,0,0,1-.25,1.3,15.73,15.73,0,0,1-5.93,2.61,23.32,23.32,0,0,1-6.34.49,26.86,26.86,0,0,1-6.23-1.09c-2-.63-4.08-1.29-5.48-3.06a.41.41,0,0,1,.07-.56.39.39,0,0,1,.27-.08Z"/><path class="cls-3" d="M140.37,235.62a23.2,23.2,0,0,0,4.18.41,16.16,16.16,0,0,0,2-.12,7.68,7.68,0,0,0,1.74-.4l.09,0a1,1,0,0,1,.86,1.76,5.66,5.66,0,0,1-2.45.8,9.49,9.49,0,0,1-2.39-.08,10.72,10.72,0,0,1-4.33-1.61.39.39,0,0,1-.12-.55.42.42,0,0,1,.41-.18Z"/><path class="cls-3" d="M160,235.9a22.91,22.91,0,0,1,3.35.17,13.8,13.8,0,0,0,3.26-.12.35.35,0,0,1,.39.3.36.36,0,0,1-.17.36,7.34,7.34,0,0,1-3.5.95,9.32,9.32,0,0,1-3.5-.51.58.58,0,0,1-.35-.76.59.59,0,0,1,.51-.39Z"/></g></g></g></svg>