<svg xmlns="http://www.w3.org/2000/svg" viewBox="0 0 351.26 263.61"><defs><style>.cls-1,.cls-7{fill:#e5eefd;}.cls-2{fill:#717791;}.cls-3{fill:#d0def4;}.cls-12,.cls-4{fill:#fff;}.cls-5{fill:#93b9f4;}.cls-11,.cls-6,.cls-8{fill:none;}.cls-11,.cls-12,.cls-6,.cls-7{stroke:#717791;stroke-linecap:round;stroke-linejoin:round;}.cls-6,.cls-7{stroke-width:2px;}.cls-9{fill:#eaf1fd;}.cls-10{fill:#fdbebe;}.cls-11,.cls-12{stroke-width:2.23px;}.cls-13{fill:#b8d4ff;}</style></defs><title>Startup</title><g id="Capa_2" data-name="Capa 2"><g id="Layer_1" data-name="Layer 1"><g id="_04._APP_LAUNCH" data-name="04. APP LAUNCH"><line class="cls-1" x1="159.88" y1="262.42" x2="238.53" y2="262.42"/><path class="cls-2" d="M159.88,261.75c3.27-.31,6.55-.35,9.83-.36l9.83-.05,19.66-.1h29.5c3.28,0,6.56,0,9.83.3a.88.88,0,0,1,.81.95.87.87,0,0,1-.81.81c-3.27.27-6.55.29-9.83.3H199.2l-19.66-.11-9.83-.05c-3.28,0-6.56,0-9.83-.35a.68.68,0,0,1,0-1.35Z"/><line class="cls-1" x1="127.51" y1="262.42" x2="147.67" y2="262.42"/><path class="cls-2" d="M127.51,261.69c3.36-.17,6.72-.24,10.08-.27s6.72,0,10.08.19a.81.81,0,0,1,0,1.62c-3.36.21-6.72.22-10.08.19s-6.72-.09-10.08-.27a.73.73,0,0,1,0-1.46Z"/><path class="cls-1" d="M322.72,212.62c-1.63,16.65-11.07,33.33-13.49,35.28s-6.82.88-9.86.88H58.43l-.14-.25c-6-10.47-12.78-20.63-16.17-32.34-9.45-32.61,20.66-54.67,40.12-75.55,11.15-11.95,12-29.16,21.64-41.92,13.2-17.47,35.53-26.57,56.85-28,24.5-1.63,45.34,7.2,60.22,27.05,12.25,16.33,19.22,41.61,38.47,51.43,6.9,3.53,14.89,4,22.37,6C306.17,161.71,325.23,187,322.72,212.62Z"/><path class="cls-3" d="M82.89,249h-.82a11.43,11.43,0,0,1-11.43-11.43v-3.76h15V149.16a7.23,7.23,0,0,1,7.23-7.23H103.7l24.75,74.25L106,240.37Z"/><path class="cls-4" d="M225.56,136.2h30.25a7.09,7.09,0,0,1,7.09,7.1v97.09H94V143.3a7.1,7.1,0,0,1,7.09-7.1H225.56Z"/><path class="cls-2" d="M225.64,136.11c5.21-.2,10.42-.34,15.63-.45l7.81-.16,3.9-.06,2,0h1a8.88,8.88,0,0,1,1.15.07,8.39,8.39,0,0,1,4.2,1.78,8.49,8.49,0,0,1,2.65,3.76,8.4,8.4,0,0,1,.46,2.28c0,.41,0,.73,0,1.05v1l0,3.9c0,5.21.12,10.42.12,15.62,0,10.42-.07,20.83-.21,31.24,0,5.21-.15,10.42-.27,15.62s-.26,10.42-.44,15.63a.66.66,0,0,1-.67.62.64.64,0,0,1-.62-.62c-.19-5.21-.35-10.42-.45-15.63s-.22-10.41-.27-15.62c-.14-10.41-.24-20.82-.2-31.24,0-5.2.08-10.41.11-15.62l0-3.9v-1c0-.33,0-.66,0-.9a5.37,5.37,0,0,0-.28-1.54,5.79,5.79,0,0,0-4.59-3.9,7.22,7.22,0,0,0-.8-.08h-1l-2,0-3.9-.06-7.81-.17c-5.21-.11-10.42-.25-15.63-.45a.54.54,0,0,1,0-1.08Z"/><path class="cls-2" d="M93.69,173.07a82,82,0,0,1-.89-9.59c-.12-3.2,0-6.4-.07-9.6l0-9.6v-.61l0-.71a8.5,8.5,0,0,1,.25-1.41,8.72,8.72,0,0,1,1.18-2.6,8.61,8.61,0,0,1,4.54-3.34,9.36,9.36,0,0,1,2.77-.37h2.4l4.8,0,9.59,0,19.2,0c12.79,0,25.58-.07,38.38,0s25.59.35,38.38.7a.75.75,0,0,1,.74.77.77.77,0,0,1-.74.74c-12.79.34-25.59.6-38.38.69s-25.59,0-38.38,0l-19.2,0-9.59,0h-7.2a7.88,7.88,0,0,0-1,0,5.66,5.66,0,0,0-4.81,4.16,7.58,7.58,0,0,0-.18,1l0,.48v.59l0,9.6c0,3.2,0,6.4-.07,9.6a82,82,0,0,1-.89,9.59.38.38,0,0,1-.44.32A.38.38,0,0,1,93.69,173.07Z"/><path class="cls-5" d="M236.56,136.57c-.05.69-.08,1.39-.12,2.09"/><path class="cls-3" d="M206.81,156.93c3.06,0,6.13-.07,9.19-.06l9.18,0,9.19.14q4.59.09,9.18.27a.81.81,0,0,1,0,1.62q-4.59.18-9.18.27l-9.19.14-9.18,0c-3.06,0-6.13,0-9.19-.06a1.21,1.21,0,0,1,0-2.42Z"/><path class="cls-3" d="M206.81,163.81c1.2,0,2.4-.05,3.59-.05s2.4,0,3.6,0,2.39.09,3.59.14,2.39.15,3.59.28a.81.81,0,0,1,0,1.61c-1.2.13-2.39.21-3.59.28s-2.4.11-3.59.14-2.4.06-3.6,0-2.39,0-3.59,0a1.21,1.21,0,0,1-1.16-1.26A1.23,1.23,0,0,1,206.81,163.81Z"/><path class="cls-3" d="M239.37,150.33l10.69-.21a1.19,1.19,0,0,1,1.2,1.14v.08q.15,3.57.19,7.16c0,2.38.12,4.77.11,7.16l0,7.16c0,2.39,0,4.78-.05,7.16v0a1.48,1.48,0,0,1-1.48,1.46l-54.69-.28a1.19,1.19,0,0,1-1.2-1.21,1.21,1.21,0,0,1,1.2-1.21l54.69-.27L248.57,180c0-2.38-.06-4.77,0-7.16v-7.16c0-2.39.08-4.78.11-7.16s.09-4.78.2-7.16l1.21,1.21-10.69-.21a1,1,0,0,1-1-1A1,1,0,0,1,239.37,150.33Z"/><path class="cls-3" d="M190.32,171.25a43.49,43.49,0,0,1-.87-5c-.21-1.66-.34-3.32-.44-5s-.15-3.32-.12-5a37.91,37.91,0,0,1,.36-5,1.52,1.52,0,0,1,3,0,37.93,37.93,0,0,1,.37,5c0,1.66,0,3.32-.1,5s-.22,3.32-.43,5a43.19,43.19,0,0,1-.85,5,.47.47,0,0,1-.92,0Z"/><path class="cls-3" d="M125.2,156.93c3.06,0,6.13-.07,9.19-.06l9.18,0,9.19.14q4.59.09,9.18.27a.81.81,0,0,1,0,1.62q-4.59.18-9.18.27l-9.19.14-9.18,0c-3.06,0-6.13,0-9.19-.06a1.21,1.21,0,0,1,0-2.42Z"/><path class="cls-3" d="M125.2,163.81c1.2,0,2.4-.05,3.59-.05s2.4,0,3.6,0,2.39.09,3.59.14,2.39.15,3.59.28a.81.81,0,0,1,0,1.61c-1.2.13-2.39.21-3.59.28s-2.4.11-3.59.14-2.4.06-3.6,0-2.39,0-3.59,0A1.21,1.21,0,0,1,124,165,1.23,1.23,0,0,1,125.2,163.81Z"/><path class="cls-3" d="M157.76,150.33l10.69-.21a1.19,1.19,0,0,1,1.2,1.14v.08q.15,3.57.19,7.16c0,2.38.12,4.77.11,7.16l0,7.16c0,2.39,0,4.78,0,7.16v0a1.48,1.48,0,0,1-1.48,1.46l-54.69-.28a1.19,1.19,0,0,1-1.2-1.21,1.21,1.21,0,0,1,1.2-1.21l54.69-.27L167,180c0-2.38-.06-4.77,0-7.16v-7.16c0-2.39.08-4.78.11-7.16s.09-4.78.2-7.16l1.21,1.21-10.69-.21a1,1,0,0,1-1-1A1,1,0,0,1,157.76,150.33Z"/><path class="cls-3" d="M108.71,171.25a43.49,43.49,0,0,1-.87-5c-.21-1.66-.34-3.32-.44-5s-.15-3.32-.12-5a37.91,37.91,0,0,1,.36-5,1.52,1.52,0,0,1,3,0,37.93,37.93,0,0,1,.37,5c0,1.66,0,3.32-.1,5s-.22,3.32-.43,5a43.19,43.19,0,0,1-.85,5,.47.47,0,0,1-.92,0Z"/><path class="cls-3" d="M125.78,194.4q4.59-.06,9.19-.06l9.18,0,9.19.14q4.59.1,9.18.28a.81.81,0,0,1,0,1.61q-4.59.18-9.18.28l-9.19.13-9.18,0c-3.07,0-6.13,0-9.19,0a1.22,1.22,0,0,1,0-2.43Z"/><path class="cls-3" d="M125.78,201.29c1.2,0,2.4-.06,3.59-.06s2.4,0,3.6.05,2.39.08,3.59.13,2.39.15,3.59.28a.81.81,0,0,1,.72.9.83.83,0,0,1-.72.72c-1.2.13-2.39.2-3.59.27s-2.4.11-3.59.14-2.4.06-3.6.05-2.39,0-3.59-.06a1.21,1.21,0,0,1,0-2.42Z"/><path class="cls-3" d="M158.34,187.81,169,187.6a1.17,1.17,0,0,1,1.2,1.13v.08c.1,2.39.16,4.77.19,7.16s.12,4.77.11,7.16l0,7.16c0,2.39,0,4.78-.05,7.17v0a1.46,1.46,0,0,1-1.48,1.45l-54.69-.27a1.22,1.22,0,0,1,0-2.43L169,216l-1.49,1.49q-.06-3.59,0-7.17l0-7.16c0-2.39.08-4.77.11-7.16s.09-4.77.19-7.16L169,190l-10.69-.21a1,1,0,0,1,0-2Z"/><path class="cls-3" d="M109.28,208.73a45.5,45.5,0,0,1-.86-5c-.21-1.66-.34-3.32-.45-5s-.14-3.32-.11-5a37.91,37.91,0,0,1,.36-5,1.52,1.52,0,0,1,3,0,37.91,37.91,0,0,1,.37,5c0,1.66,0,3.32-.1,5s-.22,3.32-.43,5a43.73,43.73,0,0,1-.85,5,.48.48,0,0,1-.57.35A.53.53,0,0,1,109.28,208.73Z"/><path class="cls-3" d="M206.81,194.4c3.06,0,6.13-.06,9.19-.06l9.18,0,9.19.14q4.59.1,9.18.28a.81.81,0,0,1,0,1.61q-4.59.18-9.18.28l-9.19.13-9.18,0c-3.06,0-6.13,0-9.19,0a1.22,1.22,0,0,1,0-2.43Z"/><path class="cls-3" d="M206.81,201.29c1.2,0,2.4-.06,3.59-.06s2.4,0,3.6.05,2.39.08,3.59.13,2.39.15,3.59.28a.81.81,0,0,1,.72.9.83.83,0,0,1-.72.72c-1.2.13-2.39.2-3.59.27s-2.4.11-3.59.14-2.4.06-3.6.05-2.39,0-3.59-.06a1.21,1.21,0,0,1,0-2.42Z"/><path class="cls-3" d="M239.37,187.81l10.69-.21a1.17,1.17,0,0,1,1.2,1.13v.08c.1,2.39.16,4.77.19,7.16s.12,4.77.11,7.16l0,7.16c0,2.39,0,4.78-.05,7.17v0a1.46,1.46,0,0,1-1.48,1.45l-54.69-.27a1.22,1.22,0,0,1,0-2.43l54.69-.27-1.49,1.49c0-2.39-.06-4.78,0-7.17v-7.16c0-2.39.08-4.77.11-7.16s.09-4.77.2-7.16l1.21,1.21-10.69-.21a1,1,0,0,1,0-2Z"/><path class="cls-3" d="M190.32,208.73a43.28,43.28,0,0,1-.87-5c-.21-1.66-.34-3.32-.44-5s-.15-3.32-.12-5a37.91,37.91,0,0,1,.36-5,1.52,1.52,0,0,1,3,0,37.91,37.91,0,0,1,.37,5c0,1.66,0,3.32-.1,5s-.22,3.32-.43,5a43.73,43.73,0,0,1-.85,5,.48.48,0,0,1-.57.35A.49.49,0,0,1,190.32,208.73Z"/><path class="cls-2" d="M84,64.39a80.35,80.35,0,0,1-8.71.9c-2.9.15-5.81.24-8.71.12h-.13a1.41,1.41,0,0,1-1.33-1.17h0a25.74,25.74,0,0,0-2.58-7.74A9.49,9.49,0,0,0,56.79,52a6.3,6.3,0,0,0-6.27,2.08c-1.36,1.78-1.34,4.56-1.09,7.36h-3a6.21,6.21,0,0,0-1-4,4.68,4.68,0,0,0-3.35-2,3.71,3.71,0,0,0-3.4,1.27,3.44,3.44,0,0,0-.6,3.43l-2.74,1.21a.5.5,0,0,0-.26-.19,1.14,1.14,0,0,0-.61,0,2,2,0,0,0-1.12,1.18A4.84,4.84,0,0,0,33,64.52a5.34,5.34,0,0,0,.66,2.24l0,0A1.52,1.52,0,0,1,33,68.85a1.55,1.55,0,0,1-.69.19c-2.66.06-5.31,0-8,0s-5.31-.1-8-.22C11.09,68.64,5.78,68.41.47,68A.5.5,0,0,1,0,67.5.5.5,0,0,1,.47,67c5.31-.37,10.62-.61,15.93-.79,2.65-.12,5.31-.16,8-.23s5.31,0,8,0L31,68.29l0-.05a8.2,8.2,0,0,1-1-3.54A7.86,7.86,0,0,1,30.59,61a4.92,4.92,0,0,1,3.15-2.86,4.12,4.12,0,0,1,2.38.14,3.45,3.45,0,0,1,1.94,1.79h0a1.5,1.5,0,1,1-2.75,1.21h0a6.52,6.52,0,0,1,3.79-8.52,7.41,7.41,0,0,1,3.29-.37,7.59,7.59,0,0,1,5.47,3.28,9.1,9.1,0,0,1,1.56,6,1.5,1.5,0,0,1-3,0,24.34,24.34,0,0,1,0-4.61,9.47,9.47,0,0,1,1.73-4.78,8.52,8.52,0,0,1,4.25-3,9.83,9.83,0,0,1,5.08-.25,12.47,12.47,0,0,1,7.66,5.85,28.36,28.36,0,0,1,2.94,8.64h0l-1.47-1.17c2.9-.13,5.81,0,8.71.12a77.89,77.89,0,0,1,8.71.89.49.49,0,0,1,0,1Z"/><path class="cls-2" d="M277.88,96.46a63.45,63.45,0,0,1,7.6-.89,69,69,0,0,1,7.61-.12l-1.47,1.18h0A24.7,24.7,0,0,1,294.21,89,11.07,11.07,0,0,1,301,83.83a8.7,8.7,0,0,1,4.53.22,7.67,7.67,0,0,1,3.81,2.66A8.51,8.51,0,0,1,310.9,91a21.88,21.88,0,0,1,0,4.06,1.5,1.5,0,0,1-3,0,8.22,8.22,0,0,1,1.39-5.39,7,7,0,0,1,2.13-2,7.11,7.11,0,0,1,2.78-.94,6.53,6.53,0,0,1,3,.34,5.88,5.88,0,0,1,3.42,7.69,1.5,1.5,0,1,1-2.75-1.18h0v0a3.19,3.19,0,0,1,1.8-1.66,3.73,3.73,0,0,1,2.19-.13,4.48,4.48,0,0,1,2.88,2.6,7.06,7.06,0,0,1,.57,3.3,7.46,7.46,0,0,1-.94,3.17l0,0L323,98.62c2.32-.07,4.63-.05,6.95,0s4.64.1,6.95.22c4.64.18,9.27.42,13.91.79a.5.5,0,0,1,.46.54.5.5,0,0,1-.46.46c-4.64.37-9.27.61-13.91.79-2.31.12-4.63.16-6.95.23s-4.63,0-6.95,0h0a1.52,1.52,0,0,1-1.48-1.56,1.58,1.58,0,0,1,.19-.69v0a4.41,4.41,0,0,0,.55-1.88,4,4,0,0,0-.31-1.88,1.56,1.56,0,0,0-.85-.92.74.74,0,0,0-.42,0c-.12,0-.12.08-.12.06l-2.74-1.21a2.84,2.84,0,0,0-.5-2.8,3.05,3.05,0,0,0-2.8-1,3.88,3.88,0,0,0-2.78,1.68,5.18,5.18,0,0,0-.88,3.39l-3,0c.22-2.45.21-4.82-.92-6.3a5.32,5.32,0,0,0-5.27-1.74,8,8,0,0,0-4.9,3.81,21.84,21.84,0,0,0-2.23,6.7h0a1.4,1.4,0,0,1-1.31,1.17h-.15a69,69,0,0,1-7.61-.12,63.45,63.45,0,0,1-7.6-.89.48.48,0,0,1-.39-.58A.5.5,0,0,1,277.88,96.46Z"/><path class="cls-4" d="M173.53,144.76c0-2.89,1.34-5.71,1-8.59a12.38,12.38,0,0,1-.17-1.71,2,2,0,0,1,.66-1.53,2.8,2.8,0,0,1,2.28-.22l7.2,1.33a18.4,18.4,0,0,0-.46,4.44,40.75,40.75,0,0,1,.15,6.24,10,10,0,0,1-4,6.56c-.86.66-1.89,1.5-3,.95a7.17,7.17,0,0,1-2.6-3.08A9.72,9.72,0,0,1,173.53,144.76Z"/><path class="cls-6" d="M189.76,183.87c-4.26-14.18-6.42-33.47-4.83-52.22"/><path class="cls-6" d="M191.41,188.82l-.29-.8"/><path class="cls-6" d="M174.27,132c-.45,28.74.44,33.16-7.82,54.39s26,23,26,23,21.07-3.24,19.3-5.16-3,11.29-14.44-4a35.68,35.68,0,0,1-3.24-5.35"/><path class="cls-2" d="M264.49,238.63v2.21a1.5,1.5,0,0,1-1.5,1.5H94.07a1.51,1.51,0,0,1-1.5-1.49h0q-.1-13.67.05-27.31,0-6.83.19-13.65c.09-4.55.22-9.1.43-13.65a.84.84,0,0,1,1.67,0c.2,4.55.33,9.1.43,13.65s.15,9.1.18,13.65q.15,13.65,0,27.31l-1.5-1.5H263l-1.5,1.5v-2.21a1.5,1.5,0,0,1,3,0Z"/><path class="cls-2" d="M92.57,180.39a6.77,6.77,0,0,1,0-.9,1.5,1.5,0,0,1,3,0,6.76,6.76,0,0,1,0,.9,1.5,1.5,0,1,1-3,.12Z"/><line class="cls-7" x1="222.11" y1="234.64" x2="222.77" y2="234.64"/><line class="cls-1" x1="319.03" y1="249.01" x2="324.64" y2="249.01"/><path class="cls-2" d="M319,248.3a7.38,7.38,0,0,1,2.81-.38,14,14,0,0,1,2.8.27.84.84,0,0,1,.65,1,.85.85,0,0,1-.65.65,14.75,14.75,0,0,1-2.8.27,7.38,7.38,0,0,1-2.81-.38.78.78,0,0,1-.44-1A.79.79,0,0,1,319,248.3Z"/><line class="cls-1" x1="62.89" y1="249.01" x2="314.91" y2="249.01"/><path class="cls-2" d="M62.89,248.34c10.5-.31,21-.36,31.5-.35l31.5,0,63-.05,63,0,31.51,0c10.5,0,21,0,31.5.29a.89.89,0,0,1,0,1.77c-10.5.26-21,.28-31.5.29l-31.51,0-63-.06-63-.05-31.5,0c-10.5,0-21,0-31.5-.35a.68.68,0,0,1,0-1.35Z"/><line class="cls-1" x1="56.69" y1="249.01" x2="57.51" y2="249.01"/><path class="cls-2" d="M56.69,248a1.42,1.42,0,0,1,.41,0,.49.49,0,0,1,.2,0,.6.6,0,0,1,.21.08,1,1,0,0,1,.28,1.44,1.06,1.06,0,0,1-.28.28.64.64,0,0,1-.21.09.73.73,0,0,1-.2,0,1.41,1.41,0,0,1-.41,0,1,1,0,0,1-.78-1.22A1,1,0,0,1,56.69,248Z"/><line class="cls-1" x1="46.6" y1="249.01" x2="50.68" y2="249.01"/><path class="cls-2" d="M46.6,248.29a9.54,9.54,0,0,1,2-.28,5.68,5.68,0,0,1,2,.2.84.84,0,0,1,0,1.61,5.45,5.45,0,0,1-2,.19,9.52,9.52,0,0,1-2-.27.73.73,0,0,1-.54-.91A.72.72,0,0,1,46.6,248.29Z"/><circle class="cls-1" cx="68.96" cy="82.27" r="3.01"/><circle class="cls-1" cx="244.84" cy="63.16" r="5.79"/><circle class="cls-1" cx="297.6" cy="130.22" r="4.63"/><circle class="cls-1" cx="72.21" cy="122.86" r="3.94"/><circle class="cls-1" cx="239.77" cy="109.17" r="2.5"/><circle class="cls-1" cx="316.11" cy="156.12" r="2.5"/><circle class="cls-1" cx="267.8" cy="88.04" r="2.38"/><circle class="cls-1" cx="326.59" cy="49.45" r="2.19"/><circle class="cls-1" cx="93.33" cy="95.36" r="2.19"/><circle class="cls-1" cx="114.5" cy="52.55" r="2.19"/><circle class="cls-1" cx="17.8" cy="113.69" r="2.19"/><path class="cls-3" d="M158.34,170.37a28.88,28.88,0,0,0-16.18,4.82A27.75,27.75,0,0,0,131.33,173c-12.65,0-22.91,8.11-22.91,18.12a14.83,14.83,0,0,0,.15,2c-9.33,3.59-15.85,11.73-15.85,21.2,0,12.79,13.83,15.13,28.47,15.13s24.56-2.34,24.56-15.13c0-.15,0-.3,0-.46a29.37,29.37,0,0,0,12.61,2.78c14.64,0,26.51-10.36,26.51-23.15S173,170.37,158.34,170.37Z"/><path class="cls-4" d="M97.14,212.94c-1.77-2.23-1.21-5.64.46-8s4.21-3.82,6.58-5.4,4.77-3.42,5.89-6a30.52,30.52,0,0,0,1.22-4.74,17.72,17.72,0,0,1,17.71-13c4.43.27,8.75,2.25,13.16,1.71,3.47-.43,6.55-2.37,9.87-3.47,7.21-2.4,15.44-.58,21.67,3.77s10.62,11,13.3,18.12c1.09,2.91,1.93,6.09,1.16,9.11s-3,5.31-5.1,7.52c-3.89,4-7.87,8.15-12.82,10.81s-11.09,3.69-16.18,1.31c-2.8-1.32-5.06-3.54-7.6-5.31s-5.68-3.13-8.68-2.38a26.77,26.77,0,0,1-23.57,15.28"/><path class="cls-3" d="M218.57,174c-9,0-16.24,6.17-16.24,13.78,0,.27,0,.53,0,.8-6.21.44-11.1,5-11.1,10.52,0,5.83,5.41,10.56,12.09,10.56,5.83,0,10.7-3.6,11.84-8.4a18.69,18.69,0,0,0,3.37.31c9,0,16.24-6.17,16.24-13.79S227.54,174,218.57,174Z"/><ellipse class="cls-3" cx="251.26" cy="195.16" rx="16.24" ry="13.78"/><path class="cls-2" d="M149.61,189.33a25.07,25.07,0,0,0-3.88-5.72,20,20,0,0,0-5.32-4.28,19.81,19.81,0,0,0-29.36,17.29,1,1,0,0,1-.81,1h0a15.58,15.58,0,0,0-11.67,9.33,15.7,15.7,0,0,0-1.09,7.64,15.37,15.37,0,0,0,2.73,7.21h0l0,.05a1,1,0,0,1-.28,1.36,1,1,0,0,1-.56.16c-4.7-.12-9.4-.32-14.09-.49a.51.51,0,0,1-.49-.53.52.52,0,0,1,.49-.49c4.69-.16,9.39-.36,14.09-.48l-.82,1.57h0a17.42,17.42,0,0,1-1.84-16.75,17.46,17.46,0,0,1,13.17-10.53h0l-.83,1a21.64,21.64,0,0,1,32.35-19.07,19.4,19.4,0,0,1,9.29,11.37.58.58,0,0,1-1.08.42Z"/><path class="cls-6" d="M184.69,197a26.93,26.93,0,0,0-43-18.63"/><path class="cls-2" d="M183.23,205.51a7.94,7.94,0,0,1,.28-.77,5,5,0,0,1,.43-.77l0,0a.64.64,0,0,1,.89-.15.59.59,0,0,1,.25.37,4,4,0,0,1,.11.9c0,.29,0,.59,0,.89a1,1,0,1,1-2-.28s0-.07,0-.1Z"/><path class="cls-4" d="M276,237.31c3.86-1.19,5.3-2.58,7-5.4l.73-1.58.22-4.66.17,2.16c-.82-3.85-3.35-7.44-5.71-7.32v0a8.68,8.68,0,0,0-7-8.51l.13-.3c0-.1.1-.18.14-.28l1.58-4.69a20,20,0,0,0,.38-3.89,19.64,19.64,0,0,0-4.42-12.45l-2.6-2.64a19.71,19.71,0,0,0-26.44,1c-.89-.27-1.79-.53-2.68-.76a7.09,7.09,0,0,0-4.38-1.57,13.43,13.43,0,0,0-26.78,1.52,14.28,14.28,0,0,0,.36,3.15l-.61.2a10.19,10.19,0,0,0-4.35-1,10.32,10.32,0,0,0-8.66,4.67c-.49.12-1,.24-1.46.34-6,4.08-16.68,24.56-38.91,24.56-16.08,0-27.54-15-35.79-2.53L104,205.89a3.31,3.31,0,0,1-1.26,1.59c-.22-.15-.45-.29-.68-.42a6.84,6.84,0,0,0-5.69-.43,1.28,1.28,0,0,0-1.06.53,17.1,17.1,0,0,0-8.67,3.06c-4.47,3.16-7.43,8.05-9.46,13.14-.76,1.9-1.41,4-.76,5.94a5.18,5.18,0,0,0,.95,1.68l-1,3.86,7.36,1.08,185.6,3,2.73-1,2.24-1Zm-4.78-25,0,0C271.3,212.36,271.32,212.42,271.23,212.32Z"/><path class="cls-3" d="M274.32,213.83a8.93,8.93,0,0,0-3.23-.8c-2.06-.1-4.14.52-6.19.25-1.84-.23-3.52-1.16-5.33-1.57a9.91,9.91,0,0,0-10.73,5.1c-.71,1.44-1.18,3.21-2.6,4-1.12.61-2.5.4-3.76.63-3.18.58-5.1,3.79-6.43,6.74-.18.39.65-.33.46.08.27-5.63,3.51-9.1,9-9.89A11.67,11.67,0,0,1,257,208.8a11.5,11.5,0,0,1,7.11,2.42,8.3,8.3,0,0,1,10.23,2.61Z"/><path class="cls-2" d="M260.51,217.94a5.55,5.55,0,0,1,1.41-2.94,9.52,9.52,0,0,1,2.54-2.14,9.41,9.41,0,0,1,6.47-1.13,9.83,9.83,0,0,1,5.71,3.32,9.62,9.62,0,0,1,2.23,6.23l-.84-1a7.27,7.27,0,0,1,3.56,1.68,9.06,9.06,0,0,1,2.19,3.2,7.72,7.72,0,0,1-.94,7.28.61.61,0,0,1-1-.7,6.07,6.07,0,0,0,1-3,6.21,6.21,0,0,0-.53-3,5.14,5.14,0,0,0-2-2.31,6.87,6.87,0,0,0-2.71-1.16,1,1,0,0,1-.85-1v0a8.1,8.1,0,0,0-1.75-4.94,7.86,7.86,0,0,0-4.52-2.7,8,8,0,0,0-5.23.79,7.72,7.72,0,0,0-2.13,1.68c-.61.69-1.07,1.45-1.69,2.22l0,0a.56.56,0,0,1-.78.08A.59.59,0,0,1,260.51,217.94Z"/><path class="cls-6" d="M246.51,221.46a11.31,11.31,0,0,1,17.93-7.92"/><path class="cls-2" d="M247.74,229.21a6.6,6.6,0,0,1-1.47-2.14,6.43,6.43,0,0,1-.56-2.55.9.9,0,0,1,1.74-.29v0c.26.7.42,1.4.67,2.09s.49,1.38.72,2.13v0a.69.69,0,0,1-.45.86A.68.68,0,0,1,247.74,229.21Z"/><path class="cls-2" d="M241.21,221a6.12,6.12,0,0,1,2.74-.89,5.66,5.66,0,0,1,2.9.45,1,1,0,0,1-.65,1.89h0A16.2,16.2,0,0,0,244,222a10.2,10.2,0,0,0-2.33.08h0a.61.61,0,0,1-.69-.53A.61.61,0,0,1,241.21,221Z"/><path class="cls-2" d="M236.59,230.4a3.7,3.7,0,0,1-.77-1.94,6.21,6.21,0,0,1,.21-2.1,6.71,6.71,0,0,1,.88-1.9,5.27,5.27,0,0,1,1.45-1.45.53.53,0,0,1,.75.15.52.52,0,0,1,0,.55v0a12,12,0,0,0-1.18,3.11,13.82,13.82,0,0,0-.22,1.59,15.5,15.5,0,0,1-.26,1.73v0a.5.5,0,0,1-.6.38A.57.57,0,0,1,236.59,230.4Z"/><path class="cls-3" d="M217.2,217l-12.88.4c-.17-.36-1.8,0-2-.4-1-1.82.45-5.38-.58-7.21s-3.15-2.63-4.23-4.46a17.25,17.25,0,0,0-4.47-5.57c-2.43-1.74-6.35-1.37-9.31-1.75-4-.51-7.38-1.8-11.12-.32a12.18,12.18,0,0,0-6.33,5.85c-.66,1.32-1.28,3-2.72,3.29s-2.61-.79-3.19-2-.88-2-1.35-3.24c-1.61-4.36-3.18-2.61-11.37-6.68-2.06-1-4.54.62-6.78,1.16a12.33,12.33,0,0,1,20.68,8.31,13,13,0,0,1,2-.17,11.73,11.73,0,0,1,1.33.07,12.31,12.31,0,0,1,19.78-7.85,9.49,9.49,0,0,1,13.17,7.87,9.4,9.4,0,0,1,5.82,11.12Z"/><path class="cls-3" d="M159.27,198.32c-4.49-2.1-8.82-1.79-12.65,1.33-4.83,3.93-6,11.26-11.19,14.72-3.3,2.21-7.57,2.37-11.47,1.7s-7.64-2.1-11.54-2.78c-4.59-.82-9.59-.53-13.5,2a26.23,26.23,0,0,0-5.85,5.86l-6,7.41a15.62,15.62,0,0,1-1.84-7.33c0-9.7,9-17.55,20-17.55A21.22,21.22,0,0,1,120.65,210a20.79,20.79,0,0,1,4-2c.71-9.13,9.37-16.33,20-16.33A18.33,18.33,0,0,1,159.27,198.32Z"/><path class="cls-4" d="M77.38,227.58c.83-4.14,1.71-8.38,4-12,3.81-6,11.12-9.19,18.24-9.48a30.39,30.39,0,0,1,15.3,3.44c2.09,1.09,3,3.65,5.4,3.66s5.64-2.52,7.6-3.83c2.1-6.85,7.74-12.76,14.75-14.2s15,2.3,17.6,9c2.33,6.06-.06,13.19-4.55,17.87s-10.74,7.28-17,9c-11.82,3.18-24.21,3.2-36.44,3.9-4.77.28-9.4.84-14.5.42-2.37-.2-4.61-.25-5.75,1.84-1.28,2.36-3.93.16-5-1.59C77.21,232.89,76.84,230.27,77.38,227.58Z"/><path class="cls-2" d="M238.83,232.39c.58,0,.67.35,1,.57a6.37,6.37,0,0,0,.82.63,7.52,7.52,0,0,0,1.87.85h0a1,1,0,0,1-.51,1.93,7.39,7.39,0,0,1-2.49-1.09,8.87,8.87,0,0,1-1.07-.85c-.3-.33-.75-.57-.66-1.21a1,1,0,0,1,1-.83Z"/><path class="cls-2" d="M179.54,203.69a7.6,7.6,0,0,1,3.92-5.17A9.62,9.62,0,0,1,197.92,207h0l-.83-1a8.13,8.13,0,0,1,3.6,1.62,8,8,0,0,1,2.93,7,7.84,7.84,0,0,1-1.38,3.69v0l-.82-1.57c5.43.12,10.87.32,16.3.48a.51.51,0,0,1,0,1c-5.43.17-10.87.37-16.3.49a1,1,0,0,1-1-1,.93.93,0,0,1,.16-.57l0,0v0a6,6,0,0,0,.61-5.67,6,6,0,0,0-4.46-3.56,1,1,0,0,1-.83-1h0a8.08,8.08,0,0,0-1.84-4.9,7.73,7.73,0,0,0-4.47-2.62,7.56,7.56,0,0,0-5.15.78,8.2,8.2,0,0,0-2.1,1.65,17,17,0,0,0-1.74,2.15v0a.6.6,0,0,1-.83.15A.6.6,0,0,1,179.54,203.69Z"/><path class="cls-6" d="M165.58,207.22a11.31,11.31,0,0,1,18.06-7.82"/><path class="cls-2" d="M164.81,211.09a1.93,1.93,0,0,1,.06-.41,1.45,1.45,0,0,1,.2-.42.83.83,0,0,1,1.1-.22l.07,0a1.38,1.38,0,0,1,.33.28,1.08,1.08,0,0,1,.19.3l0,0a1,1,0,0,1-.65,1.28,1,1,0,0,1-1.27-.65A1,1,0,0,1,164.81,211.09Z"/><path class="cls-6" d="M160.5,207.32a7.19,7.19,0,0,1,2.63-.49,7.37,7.37,0,0,1,2.45.42"/><path class="cls-6" d="M209.31,194.92l.14.18"/><path class="cls-6" d="M193.9,194a10.37,10.37,0,0,1,13.32-1.07"/><path class="cls-6" d="M206.31,192.36a13.44,13.44,0,1,1,26.26-5.26"/><path class="cls-6" d="M232.57,187.1a7.15,7.15,0,0,1,5.81,3.1"/><path class="cls-2" d="M236.12,192.78c1.11-2.77,3.42-4.84,5.84-6.49a20.11,20.11,0,0,1,8.21-3.12,20.83,20.83,0,0,1,8.71.65,17.05,17.05,0,0,1,7.47,4.33.43.43,0,0,1,0,.61.42.42,0,0,1-.53,0,24.15,24.15,0,0,0-7.34-3.49A19.36,19.36,0,0,0,243.06,188c-2.28,1.46-4,3.53-5.86,5.51h0a.65.65,0,0,1-.91,0A.67.67,0,0,1,236.12,192.78Z"/><path class="cls-2" d="M272.28,210.47a3.5,3.5,0,0,1-.1,1.24,3,3,0,0,1-.24.64,2.92,2.92,0,0,0-.15.33.32.32,0,0,0,.1.19,1,1,0,1,1-1.79-.9,1.49,1.49,0,0,0,.35-.3,1.31,1.31,0,0,1,.16-.13,2.81,2.81,0,0,0,.24-.36l.51-.89v0a.49.49,0,0,1,.66-.19A.47.47,0,0,1,272.28,210.47Z"/><path class="cls-2" d="M269,190.83a13,13,0,0,1,2.87,3.5,17.31,17.31,0,0,1,1.69,4.24,16.1,16.1,0,0,1,.53,4.53,9.23,9.23,0,0,1-.93,4.44.48.48,0,0,1-.66.2.46.46,0,0,1-.25-.37v0c-.17-1.46-.1-2.82-.18-4.2a24,24,0,0,0-.6-4.06,22.7,22.7,0,0,0-1.3-3.91c-.53-1.27-1.18-2.51-1.84-3.79h0a.45.45,0,0,1,.69-.55Z"/><path class="cls-6" d="M149.78,195.67a16.74,16.74,0,0,0-5-.76A17,17,0,0,0,127.87,210"/><path class="cls-6" d="M127.87,210a9,9,0,0,0-7.34,3.92"/><path class="cls-2" d="M122.17,217.91c-2.31-2.61-4.51-5.22-7.4-7.11a24.74,24.74,0,0,0-19.69-3.3,28.81,28.81,0,0,0-9.3,4.53.44.44,0,0,1-.6-.1.44.44,0,0,1,0-.55A22.22,22.22,0,0,1,94.66,206a26,26,0,0,1,10.92-.77,25.71,25.71,0,0,1,10.27,3.93c3,2.05,5.89,4.66,7.39,8.07a.63.63,0,0,1-.33.84.63.63,0,0,1-.73-.16Z"/><path class="cls-2" d="M82.57,215.31a48.85,48.85,0,0,0-2.46,4.76,26.85,26.85,0,0,0-1.7,5c-.2.85-.35,1.71-.5,2.58s-.21,1.74-.25,2.62c-.09,1.76,0,3.5-.08,5.35h0a.49.49,0,0,1-.51.46.46.46,0,0,1-.41-.28,13,13,0,0,1-1-5.58,21.31,21.31,0,0,1,.68-5.67,22.39,22.39,0,0,1,2.09-5.32,18,18,0,0,1,3.48-4.46.47.47,0,0,1,.64,0,.46.46,0,0,1,.06.52Z"/><path class="cls-2" d="M145.62,194.31a8.83,8.83,0,0,1,5.43.71,19.27,19.27,0,0,1,4.8,2.71,16.94,16.94,0,0,1,3.78,4.09,11.57,11.57,0,0,1,1.84,5.37,1,1,0,0,1-2,.21v0a12.8,12.8,0,0,0-5-7.94,17.56,17.56,0,0,0-4.21-2.56c-1.53-.66-3.09-1-4.71-1.63h0a.5.5,0,0,1-.27-.65A.51.51,0,0,1,145.62,194.31Z"/><path class="cls-8" d="M204.32,218.14c-.17-.36-.38-.71-.57-1.06l-3.08-5.48c-1-1.86-2.07-3.7-3.15-5.53a17.1,17.1,0,0,0-4.47-5.56c-2.43-1.75-5.53-2.18-8.49-2.56-4-.51-8.2-1-11.94.49a12.12,12.12,0,0,0-6.33,5.84c-.66,1.33-1.28,3-2.72,3.29s-2.61-.78-3.19-2-.69-2.63-1.16-3.91c-1.6-4.36-6.91-6.25-11.56-6a37.27,37.27,0,0,0-6.78,1.16,61.54,61.54,0,0,1-6.92,1.42"/><path class="cls-4" d="M275.62,234.65v4.74a7.32,7.32,0,0,1,0,.81,9,9,0,0,1-8.95,8.18H90.43a9,9,0,0,1-9-8.18,7.32,7.32,0,0,1,0-.81v-4.74h77.32a3.13,3.13,0,0,0,3.14,3h33.26a3.14,3.14,0,0,0,2.22-.92,3.07,3.07,0,0,0,.92-2.13Z"/><path class="cls-9" d="M270.12,240.2a3.47,3.47,0,0,1,2.25,6.11,9,9,0,0,1-5.74,2.07H90.43a8.93,8.93,0,0,1-5.74-2.08,3.46,3.46,0,0,1,2.25-6.1Z"/><path class="cls-2" d="M80.58,240.3a20.75,20.75,0,0,1-.43-3c0-.5-.08-.93-.1-1.48a2.65,2.65,0,0,1,1.67-2.45,2.61,2.61,0,0,1,.78-.18l.45,0,.73,0,1.45,0c1,0,1.94-.06,2.91-.06,1.93,0,3.87.06,5.81.2a29.91,29.91,0,0,1,5.8.92.51.51,0,0,1,.37.65.5.5,0,0,1-.37.36,30.72,30.72,0,0,1-5.8.93c-1.94.13-3.88.2-5.81.19-1,0-1.94,0-2.91-.06l-1.45-.05-.73,0h-.27l.07,0a.19.19,0,0,0,.09-.22l-.11,1.42c-.07.94-.23,2-.35,2.81l0,.13a.91.91,0,0,1-1.78.07Z"/><path class="cls-2" d="M193.23,237l1.69-.19a2.63,2.63,0,0,0,.65-.13,2.12,2.12,0,0,0,.49-.27,2,2,0,0,0,.65-.82,1.67,1.67,0,0,0,.09-.93h0v-.06a1.49,1.49,0,0,1,1.49-1.4l69.51.15h6.53a2.66,2.66,0,0,1,1.94.89,2.6,2.6,0,0,1,.54.94,2.4,2.4,0,0,1,.12.53v3.67c0,.41,0,.85-.08,1.25a10.13,10.13,0,0,1-1.73,4.61,10.33,10.33,0,0,1-8.47,4.5H223.22l-69.5,0-34.76,0-17.38,0H90.72a10,10,0,0,1-2.4-.24,7.42,7.42,0,0,1-4.07-2.49.72.72,0,0,1,.11-1,.71.71,0,0,1,.75-.08h0A13.11,13.11,0,0,0,88.81,247a9.08,9.08,0,0,0,1.91.15h10.86l17.38,0,34.76,0,69.5,0h43.44a7.62,7.62,0,0,0,6.28-3.34,7.44,7.44,0,0,0,1.29-3.44c0-.31,0-.6.06-.92V236h-6.48l-69.51.16,1.5-1.47h0a4.48,4.48,0,0,1-.89,2.27,4.32,4.32,0,0,1-1.85,1.41,4.14,4.14,0,0,1-1.1.28,4.38,4.38,0,0,1-1,0l-1.69-.19a.75.75,0,0,1,0-1.49Z"/><path class="cls-2" d="M107.73,233.75a123.71,123.71,0,0,1,12.76-.6l12.75-.1c4.26,0,8.51,0,12.76,0s8.51,0,12.76.11a1.52,1.52,0,0,1,1.5,1.41v.05a1.65,1.65,0,0,0,1,1.41,3,3,0,0,0,1.21.1h1.81l7.27,0,7.26.16c2.42.09,4.84,0,7.27.76a.66.66,0,0,1,.41.82.67.67,0,0,1-.41.41c-2.43.79-4.85.67-7.27.76l-7.26.16-7.27,0h-1.81c-.32,0-.55,0-1.06,0a5,5,0,0,1-1.32-.33,4.63,4.63,0,0,1-2.87-4.23l1.5,1.47q-6.37.09-12.76.1c-4.25,0-8.5,0-12.76,0l-12.75-.1a123.71,123.71,0,0,1-12.76-.6.9.9,0,0,1,0-1.79Z"/><path class="cls-10" d="M151.32,75a48,48,0,0,1,1.47-9.62,16.19,16.19,0,0,1,5-8.16A19,19,0,0,1,167,53.67c5.44-.84,11-.61,16.48-.39a46.74,46.74,0,0,1,11,1.32c3.06.88,6.07,2.5,7.76,5.2,1.45,2.31,1.78,5.12,2.07,7.83l1.49,13.65c.41,3.77.82,7.55,1.14,11.34-2.84-5.05-8-8.54-13.49-10.28S182,80.46,176.19,80.93a51,51,0,0,0-13.75,2.79A39.42,39.42,0,0,0,153,89.36c-1,.74-2.51.57-2.75-.86a12.77,12.77,0,0,1,.22-3l.27-3.21Z"/><path class="cls-4" d="M171.89,90.12c.17-.52.34-1,.52-1.56l7.34-2,7.31,2c6.28,18.43,6.38,31.43-7.33,51-11.26-16.07-13.2-27.71-10.06-41.56"/><path class="cls-2" d="M170.83,89.77l.52-1.57a1.09,1.09,0,0,1,.75-.71h0l7.34-2a1.14,1.14,0,0,1,.58,0l7.31,2a1.12,1.12,0,0,1,.76.72,83.72,83.72,0,0,1,3.49,13.24,44.11,44.11,0,0,1,.17,13.81,46.73,46.73,0,0,1-4.15,13.16,87,87,0,0,1-7,11.79h0a1.11,1.11,0,0,1-1.53.28,1.14,1.14,0,0,1-.29-.29h0a87.92,87.92,0,0,1-5.87-9.55,50.68,50.68,0,0,1-4.16-10.47A41.32,41.32,0,0,1,167.41,109a36,36,0,0,1,1.78-11.07.49.49,0,0,1,1,.22,85.14,85.14,0,0,0-.88,10.86,39.06,39.06,0,0,0,1.55,10.64,51.54,51.54,0,0,0,4.11,10,93.87,93.87,0,0,0,5.71,9.3h-1.82a83.94,83.94,0,0,0,6.78-11.46,44.7,44.7,0,0,0,4-12.54,42.16,42.16,0,0,0-.17-13.12A81.24,81.24,0,0,0,186,88.92l.76.71-7.3-2H180l-7.34,2,.76-.71L173,90.46v0a1.11,1.11,0,0,1-2.11-.71Z"/><path class="cls-2" d="M151.82,76.74c.14,3-.08,5.85-.12,8.78l-.18,8.77h0l-2.12-.5a24.68,24.68,0,0,1,6.19-8.29,20.5,20.5,0,0,1,9.46-4.32h0a1.11,1.11,0,1,1,.41,2.19A18.3,18.3,0,0,0,157,87.21a22.46,22.46,0,0,0-5.61,7.55,1.12,1.12,0,0,1-2.12-.49h0c0-1.47,0-2.94.07-4.42s.1-2.94.21-4.41a53.25,53.25,0,0,1,1.05-8.8.61.61,0,0,1,.73-.45A.62.62,0,0,1,151.82,76.74Z"/><path class="cls-4" d="M152,70.35l-.12.7"/><path class="cls-2" d="M152.53,70.44l.18.73a.87.87,0,1,1-1.69.43.89.89,0,0,1,.11-.68l.42-.65a.54.54,0,0,1,.74-.17.55.55,0,0,1,.23.33Z"/><path class="cls-4" d="M158.12,55.7a19.7,19.7,0,0,0-4.42,7.72"/><path class="cls-2" d="M158.92,56.48a28.16,28.16,0,0,0-2.58,3.31,35.68,35.68,0,0,0-2.06,3.82h0a.61.61,0,0,1-.82.29.62.62,0,0,1-.34-.69,20.67,20.67,0,0,1,1.49-4.39,12.91,12.91,0,0,1,2.71-3.9,1.11,1.11,0,0,1,1.61,1.54Z"/><path class="cls-2" d="M200.19,54.93a22.25,22.25,0,0,1,5,9.18,61.32,61.32,0,0,1,1.94,10,196.9,196.9,0,0,1,1.09,20.13h0v0a1.11,1.11,0,0,1-1.08,1.13,1.14,1.14,0,0,1-1-.68,24.08,24.08,0,0,0-3.51-6.08,17.74,17.74,0,0,0-5.41-4.5.33.33,0,0,1-.14-.46.34.34,0,0,1,.42-.15,18.67,18.67,0,0,1,6.2,4.15,27.57,27.57,0,0,1,4.45,6.07l-2.12.5h0a196.23,196.23,0,0,0-1.07-19.89,59.41,59.41,0,0,0-1.86-9.65,20.21,20.21,0,0,0-4.47-8.27h0a1.11,1.11,0,1,1,1.6-1.54Z"/><path class="cls-4" d="M179,1.11c12.41,11.38,25.88,37,17.87,67.26C191.48,88.54,188,90.44,188,90.44H169.89s-3.45-1.9-8.79-22.07c-8-30.24,5.45-55.88,17.86-67.26Z"/><path class="cls-10" d="M169.07,14c2.83.17,5.59-.75,8.4-1.18a24.53,24.53,0,0,1,11.83,1.14l-4.56-6.67a25.5,25.5,0,0,0-2.58-3.35c-.75-.79-2.1-2.14-3.27-2.17-1,0-2.14,1.36-2.81,2A26.28,26.28,0,0,0,171,9.89,25.72,25.72,0,0,0,169.07,14Z"/><path class="cls-11" d="M179,1.11c12.41,11.38,25.88,37,17.87,67.26C191.48,88.54,188,90.44,188,90.44H169.89s-3.45-1.9-8.79-22.07c-8-30.24,5.45-55.88,17.86-67.26Z"/><line class="cls-12" x1="167.83" y1="87.6" x2="190.09" y2="87.6"/><path class="cls-4" d="M171.23,64.06a80.93,80.93,0,0,1,25.82,1.26"/><path class="cls-2" d="M171.17,63.56a26.48,26.48,0,0,1,6.5-.86q3.29-.16,6.57-.06a78.34,78.34,0,0,1,13,1.59,1.11,1.11,0,1,1-.45,2.18,92,92,0,0,0-12.69-1.75q-3.19-.22-6.41-.2c-2.15,0-4.26.27-6.44.09a.51.51,0,0,1-.47-.55A.49.49,0,0,1,171.17,63.56Z"/><path class="cls-4" d="M161.37,66c1.38-.38,2.77-.72,4.18-1"/><path class="cls-2" d="M161.07,64.89a12.13,12.13,0,0,1,2.15-.39,18.17,18.17,0,0,1,2.21-.11A.6.6,0,0,1,166,65a.62.62,0,0,1-.32.52l0,0a19,19,0,0,1-2,.88,10.52,10.52,0,0,1-2,.61h-.07a1.11,1.11,0,0,1-1.29-.9A1.12,1.12,0,0,1,161.07,64.89Z"/><path class="cls-4" d="M187.41,20.46l.39.09"/><path class="cls-2" d="M187.56,19.77l.43,0a.85.85,0,1,1-.37,1.6l-.36-.2h0a.73.73,0,0,1-.29-1A.72.72,0,0,1,187.56,19.77Z"/><path class="cls-4" d="M165,21.3a42.41,42.41,0,0,1,17.82-1.65"/><path class="cls-2" d="M164.7,20.23a40.55,40.55,0,0,1,9-1.82,25.33,25.33,0,0,1,9.18.66.58.58,0,0,1,.4.74.59.59,0,0,1-.55.42c-3,.12-5.89.08-8.8.43a67.87,67.87,0,0,0-8.63,1.71,1.11,1.11,0,0,1-.62-2.14Z"/><path class="cls-12" d="M168.85,14.25a32.48,32.48,0,0,1,20.56,0"/><circle class="cls-13" cx="178.41" cy="35.74" r="7.77"/><path class="cls-2" d="M182.68,42.28A7,7,0,0,1,177.76,44a8.32,8.32,0,0,1-2.86-15.81,8.18,8.18,0,0,1,5.29-.6,8.36,8.36,0,0,1,4.52,2.75,5.55,5.55,0,0,1,1.38,4.92.31.31,0,0,1-.37.22.34.34,0,0,1-.2-.17v0a14.58,14.58,0,0,0-2.15-3.79,6.48,6.48,0,0,0-3.57-2,6.56,6.56,0,0,0-4,.52,6.35,6.35,0,0,0-3.51,6.85,6.35,6.35,0,0,0,2,3.55A6.2,6.2,0,0,0,177.93,42a7.86,7.86,0,0,0,4.22-.53h0a.49.49,0,0,1,.65.25A.5.5,0,0,1,182.68,42.28Z"/><path class="cls-12" d="M178.6,93.48c-5.12-29.84-2.17-37.25,0-40.58h0C180.76,56.23,183.72,63.64,178.6,93.48Z"/><path class="cls-12" d="M178.6,52.89h0v0Z"/><path class="cls-4" d="M176.23,99.39c.18-.93.39-1.88.61-2.86"/><path class="cls-2" d="M175.33,99.21a3.59,3.59,0,0,1,.12-.73c.1-.23.15-.47.27-.69s.21-.46.35-.68a3.93,3.93,0,0,1,.43-.66.38.38,0,0,1,.67.15h0a5.39,5.39,0,0,1,.13.77,6.39,6.39,0,0,1,0,.75,5.86,5.86,0,0,1,0,.73,4,4,0,0,1-.18.7l0,0a.93.93,0,0,1-1.23.49A1,1,0,0,1,175.33,99.21Z"/><path class="cls-2" d="M183.06,96.43A41.69,41.69,0,0,1,185,112a36.28,36.28,0,0,1-1.47,7.8,54,54,0,0,1-2.83,7.36h0a1.1,1.1,0,0,1-1.45.56,1.12,1.12,0,0,1-.54-.51l0,0a45.83,45.83,0,0,1-2.09-4.69,36.72,36.72,0,0,1-1.54-4.94,23.49,23.49,0,0,1-.5-10.31.68.68,0,0,1,1.33,0h0c.25,1.67.41,3.28.63,4.89a37,37,0,0,0,.92,4.78c.42,1.57.89,3.14,1.46,4.68s1.17,3.07,1.81,4.59h-2a60.81,60.81,0,0,0,2.8-7,37.79,37.79,0,0,0,1.59-7.35,36.62,36.62,0,0,0,0-7.55c-.21-2.53-.61-5.06-1-7.61a.44.44,0,0,1,.38-.51A.43.43,0,0,1,183.06,96.43Z"/><path class="cls-8" d="M86.31,226.08l5.54-6.86a24.19,24.19,0,0,1,5.41-5.42c3.62-2.35,8.24-2.62,12.49-1.86,3.61.63,7.07,1.94,10.68,2.57S128,215,131,212.94c4.77-3.2,5.89-10,10.35-13.62,3.55-2.89,8.69-3,12.85-1.08"/><path class="cls-4" d="M63.18,226a9,9,0,0,1-15.66,3.3,6.4,6.4,0,1,1-2.05-11.37,6.25,6.25,0,0,1,1.59.68A9,9,0,0,1,63.18,226Z"/><path class="cls-2" d="M50.36,216a4.94,4.94,0,0,1,2.39-1.38,8.13,8.13,0,0,1,2.78-.32,9.87,9.87,0,0,1,5.25,1.86,10,10,0,0,1,4,10,10.16,10.16,0,0,1-.91,2.67,10.71,10.71,0,0,1-1.63,2.31,10,10,0,0,1-15-.58h0l1.4.19A7.34,7.34,0,0,1,36.91,225a7.3,7.3,0,0,1,3.6-6.54,7.17,7.17,0,0,1,3.72-1,5.14,5.14,0,0,1,3.56,1.22.59.59,0,0,1,0,.84.6.6,0,0,1-.58.16h0a10.67,10.67,0,0,0-3-.57,5.47,5.47,0,0,0-2.35,10.4,5.39,5.39,0,0,0,5.49-.48,1,1,0,0,1,1.36.15l0,0h0a7.82,7.82,0,0,0,3.66,2.51,8,8,0,0,0,4.43.16,7.91,7.91,0,0,0,5.87-6.17,8,8,0,0,0-3.12-7.95,8.22,8.22,0,0,0-4.19-1.53,11.54,11.54,0,0,0-2.27.09c-.76.13-1.49.32-2.35.43h0a.47.47,0,0,1-.54-.4A.51.51,0,0,1,50.36,216Z"/><path class="cls-4" d="M296.13,226.3a7.32,7.32,0,1,1,1.9,7.18,6.05,6.05,0,0,1-1.79-3.8"/><path class="cls-2" d="M295.65,226.17a7.3,7.3,0,0,1,1-2.73,5.84,5.84,0,0,1,2.05-2.14A8.31,8.31,0,0,1,309.2,234a8.18,8.18,0,0,1-10.91.81,6.66,6.66,0,0,1-1.05-1.07,8.4,8.4,0,0,1-.77-1.23,4.69,4.69,0,0,1-.52-2.86.28.28,0,0,1,.35-.22.29.29,0,0,1,.23.23v0a5.29,5.29,0,0,0,1.06,2.15,8.74,8.74,0,0,0,.79.91,2.73,2.73,0,0,0,.45.36c.16.12.31.24.48.35a6.61,6.61,0,0,0,4.41,1.18,6.44,6.44,0,0,0,4-2,6.34,6.34,0,0,0,1.73-4.14,6.27,6.27,0,0,0-1.44-4.25,6.3,6.3,0,0,0-8.3-1.29c-.31.22-.59.47-.93.67a6.53,6.53,0,0,0-.87.79,7.07,7.07,0,0,0-1.35,2h0a.48.48,0,0,1-.65.24A.48.48,0,0,1,295.65,226.17Z"/><path class="cls-4" d="M303.22,220.4a4.92,4.92,0,1,1,1.28,4.82,4.06,4.06,0,0,1-1.2-2.55"/><path class="cls-2" d="M302.75,220.27a4.84,4.84,0,0,1,.59-2,3.73,3.73,0,0,1,1.42-1.55,5.9,5.9,0,0,1,7.75,1.19,5.85,5.85,0,0,1,1.36,4,6,6,0,0,1-1.64,3.87,5.78,5.78,0,0,1-7.73.54,5.32,5.32,0,0,1-.72-.77,5.67,5.67,0,0,1-.51-.89,3.06,3.06,0,0,1-.26-2,.28.28,0,0,1,.36-.2.26.26,0,0,1,.2.19l0,0a4,4,0,0,0,.8,1.32,4.79,4.79,0,0,0,.54.56,4.85,4.85,0,0,0,.6.42,4.12,4.12,0,0,0,2.76.7,4,4,0,0,0,3.57-3.82,3.91,3.91,0,0,0-6-3.43,3.1,3.1,0,0,1-.59.41,4.18,4.18,0,0,0-.58.46,4.62,4.62,0,0,0-1,1.24l0,0a.5.5,0,0,1-.93-.29Z"/><path class="cls-4" d="M292,198.23a3,3,0,0,1,.91-1.45,3.07,3.07,0,1,1-.11,4.46,2.54,2.54,0,0,1-.75-1.59"/><path class="cls-2" d="M291.67,198.13a2.9,2.9,0,0,1,1.25-2.28,3.81,3.81,0,0,1,4.83,5.84,3.65,3.65,0,0,1-2.45,1.13,3.59,3.59,0,0,1-2.53-.79A3,3,0,0,1,292,201a2,2,0,0,1-.13-1.32.22.22,0,0,1,.28-.14.2.2,0,0,1,.13.12l0,0a3,3,0,0,0,1.24,1.34,2.48,2.48,0,0,0,1.65.41,2.4,2.4,0,0,0,2.11-2.27,2.32,2.32,0,0,0-2-2.37,2.29,2.29,0,0,0-1.61.34,3.67,3.67,0,0,0-1.34,1.22h0a.37.37,0,0,1-.52.14A.39.39,0,0,1,291.67,198.13Z"/><path class="cls-4" d="M27.9,178a2.63,2.63,0,0,1,.78-1.26,2.66,2.66,0,1,1-.09,3.86,2.17,2.17,0,0,1-.65-1.38"/><path class="cls-2" d="M27.54,177.85a2.48,2.48,0,0,1,1.07-2,3.4,3.4,0,0,1,5.25,3A3.35,3.35,0,0,1,30.73,182a3.22,3.22,0,0,1-2.25-.71,2.56,2.56,0,0,1-.68-1,1.73,1.73,0,0,1-.08-1.17A.22.22,0,0,1,28,179a.2.2,0,0,1,.12.1l0,.06a2.72,2.72,0,0,0,1.09,1.09,2.1,2.1,0,0,0,1.37.33,2,2,0,0,0,1.73-1.87,1.91,1.91,0,0,0-1.6-1.95,1.94,1.94,0,0,0-1.33.28,3.42,3.42,0,0,0-1.17,1h0a.37.37,0,0,1-.52.12A.38.38,0,0,1,27.54,177.85Z"/><path class="cls-4" d="M285.32,165.32a2.42,2.42,0,0,1,.69-1.11,2.34,2.34,0,1,1-.08,3.4,1.87,1.87,0,0,1-.57-1.21"/><path class="cls-2" d="M285,165.22a2.22,2.22,0,0,1,.94-1.86,3.09,3.09,0,0,1,4.77,2.7,3.08,3.08,0,0,1-2.84,2.94,3,3,0,0,1-2-.66,1.94,1.94,0,0,1-.65-2,.21.21,0,0,1,.27-.15.17.17,0,0,1,.12.1l.05.07a2.08,2.08,0,0,0,.45.53,1.65,1.65,0,0,0,.53.37,1.75,1.75,0,0,0,1.15.26,1.66,1.66,0,0,0,1.45-1.56,1.58,1.58,0,0,0-2.45-1.4,3.21,3.21,0,0,0-1,.81l0,0a.38.38,0,0,1-.53.1A.4.4,0,0,1,285,165.22Z"/><path class="cls-4" d="M317.8,224.75a3.49,3.49,0,0,1-1.86.54,3.46,3.46,0,1,1,3.45-3.66,2.82,2.82,0,0,1-.57,1.9"/><path class="cls-2" d="M318,225.07a3.28,3.28,0,0,1-2.73.91,4.21,4.21,0,0,1-2.36-7.07,4.28,4.28,0,0,1,2.71-1.27A4.12,4.12,0,0,1,320,221a3.41,3.41,0,0,1-.14,1.46,2.23,2.23,0,0,1-.85,1.19.22.22,0,0,1-.3-.07.26.26,0,0,1,0-.21l0,0a3,3,0,0,0,.18-1.07,2.71,2.71,0,0,0-.15-1,2.91,2.91,0,0,0-1.1-1.64,2.79,2.79,0,0,0-3.6.32,2.71,2.71,0,0,0-.15,3.59,2.67,2.67,0,0,0,1.66,1,4,4,0,0,0,2.09-.07h0a.38.38,0,0,1,.48.22A.4.4,0,0,1,318,225.07Z"/><path class="cls-4" d="M51.68,206.58a3.92,3.92,0,1,1,1.81-3.53,3.2,3.2,0,0,1-.65,2.15"/><path class="cls-2" d="M51.88,206.9a3.74,3.74,0,0,1-3,1A4.67,4.67,0,0,1,46.21,200a4.67,4.67,0,0,1,3-1.41,4.59,4.59,0,0,1,4.83,3.76,3.7,3.7,0,0,1-.14,1.63,2.48,2.48,0,0,1-.91,1.34.22.22,0,0,1-.31-.06.22.22,0,0,1,0-.22v0a3.78,3.78,0,0,0,.1-2.42,3.42,3.42,0,0,0-1.27-1.92,3.27,3.27,0,0,0-4.22.37,3.17,3.17,0,0,0,1.77,5.33,4.55,4.55,0,0,0,2.41-.14h0a.38.38,0,0,1,.49.21A.38.38,0,0,1,51.88,206.9Z"/></g></g></g></svg>