<?xml version="1.0" encoding="UTF-8"?>
<svg width="51px" height="52px" viewBox="0 0 51 52" version="1.1" xmlns="http://www.w3.org/2000/svg" xmlns:xlink="http://www.w3.org/1999/xlink">
    <!-- Generator: Sketch 54.1 (76490) - https://sketchapp.com -->
    <title>Path</title>
    <desc>Created with Sketch.</desc>
    <g id="Page-1" stroke="none" stroke-width="1" fill="none" fill-rule="evenodd">
        <g id="Artboard-Copy-6" transform="translate(-694.000000, -337.000000)" fill="#2A6489" fill-rule="nonzero">
            <g id="seccion_1" transform="translate(364.000000, 337.000000)">
                <g id="iconos_nav" transform="translate(144.000000, 0.000000)">
                    <g id="problema" transform="translate(174.000000, 0.000000)">
                        <g id="jigsaws" transform="translate(12.000000, 0.000000)">
                            <path d="M40.341418,19.6011199 C41.9379747,19.6040511 43.4393275,20.3720796 44.3573888,21.6555583 C44.6766407,22.1019275 45.2517595,22.2940094 45.7783407,22.1304769 C46.3052601,21.9667782 46.6625652,21.4849474 46.6615617,20.9397288 L46.6364561,7.29908728 C46.6351849,6.6083881 46.066324,6.04727864 45.3656732,6.04599229 L10.6057104,5.98217493 C9.9050596,5.98088857 9.33826037,6.53991302 9.3395316,7.2306122 L9.35538763,15.8456664 C9.35665887,16.5363656 9.92551971,17.097475 10.6261705,17.0987614 C11.3268214,17.1000478 11.8936206,16.5410233 11.8923494,15.8503241 L11.8787954,8.48603605 L44.1016272,8.54519538 L44.1192534,18.1220565 C42.9879705,17.4644849 41.6846489,17.1020622 40.3366447,17.0995873 C36.2450875,17.0920754 32.9228251,20.3679538 32.9302502,24.4022043 C32.9376752,28.4364548 36.2721882,31.7247215 40.3635762,31.732233 C41.7115803,31.7347079 43.0135763,31.3769015 44.1424467,30.7236463 L44.1600729,40.3005074 L31.5062276,40.2772757 C30.949903,40.2762543 30.4592084,40.6327139 30.2958812,41.1564428 C30.1325543,41.6803384 30.3349463,42.24895 30.7947208,42.5594399 C32.1316914,43.4618024 32.9315222,44.9502711 32.9344506,46.5413817 C32.9393372,49.1964027 30.7528691,51.3522342 28.0602448,51.3472907 C25.3677897,51.3423475 23.1733712,49.1784729 23.1684846,46.523452 C23.1655565,44.9325081 23.959913,43.4466326 25.2934021,42.5493397 C25.7520371,42.2407029 25.9521679,41.6726635 25.7870806,41.1481649 C25.6216552,40.6238325 25.1296452,40.2655686 24.5734898,40.2645475 L11.9374103,40.2413484 L11.9001923,20.0197117 C11.8989211,19.3290125 11.3300603,18.7679031 10.6294094,18.7666167 C9.9287586,18.7653304 9.36195937,19.3243548 9.3632306,20.015054 L9.40275031,41.48729 C9.40402155,42.1779892 9.97288239,42.7390986 10.6735332,42.740385 L21.6795547,42.7605914 C21.0009306,43.8793088 20.6288788,45.1740994 20.6313531,46.5184603 C20.6387784,50.5528776 23.9732911,53.8409774 28.0646791,53.848489 C32.1560671,53.8560005 35.4786679,50.5801228 35.4712425,46.5457055 C35.4687682,45.2013446 35.0921169,43.9051794 34.409201,42.7839623 L45.4331576,42.8042017 C46.1338084,42.8054881 46.7006076,42.2464636 46.6993364,41.5557644 L46.6742311,27.9152897 C46.6732273,27.3699043 46.3141464,26.8869251 45.7867902,26.7212908 C45.2596034,26.5558236 44.6848491,26.7456276 44.3674072,27.1908279 C43.4540646,28.4711111 41.9556977,29.2334654 40.3589718,29.2305339 C37.6665167,29.2255907 35.4720982,27.0617162 35.4672116,24.4066952 C35.462664,21.7520085 37.6491321,19.596177 40.341418,19.6011199 Z" id="Path" transform="translate(28.019434, 29.915337) rotate(-28.000000) translate(-28.019434, -29.915337) "></path>
                        </g>
                    </g>
                </g>
            </g>
        </g>
    </g>
</svg>