<?xml version="1.0" encoding="UTF-8"?>
<svg width="49px" height="50px" viewBox="0 0 49 50" version="1.1" xmlns="http://www.w3.org/2000/svg" xmlns:xlink="http://www.w3.org/1999/xlink">
    <!-- Generator: Sketch 54.1 (76490) - https://sketchapp.com -->
    <title>connection</title>
    <desc>Created with Sketch.</desc>
    <g id="Page-1" stroke="none" stroke-width="1" fill="none" fill-rule="evenodd">
        <g id="Artboard-Copy-5" transform="translate(-514.000000, -351.000000)" fill="#275F7A" fill-rule="nonzero">
            <g id="seccion_1" transform="translate(367.000000, 346.000000)">
                <g id="iconos" transform="translate(133.000000, 0.000000)">
                    <g id="situación" transform="translate(0.000000, 5.000000)">
                        <g id="connection" transform="translate(14.000000, 0.000000)">
                            <path d="M48.9556363,13.5713867 C48.6946714,12.0290639 47.3316963,10.8986999 45.7355055,10.9007981 C44.360084,10.9047948 43.1352427,11.7538917 42.6741163,13.0230408 L32.6582893,12.1309795 C32.6180938,11.6043156 32.4887336,11.0878433 32.2755137,10.602645 L39.4576582,6.05281263 C40.7884973,7.23503367 42.8458145,7.136815 44.0529045,5.83339433 C45.2599944,4.52997366 45.1597097,2.51504217 43.8288705,1.33282113 C42.4980314,0.150600098 40.4407142,0.248818766 39.2336243,1.55223944 C38.687516,2.14195111 38.3865597,2.9106146 38.3901304,3.70675534 C38.3945172,4.04827254 38.4554226,4.38679222 38.5705001,4.70912531 L31.3883556,9.26535242 C29.568947,7.3133688 26.4782784,7.17548298 24.4852333,8.95740742 C23.9659561,9.42172293 23.5551252,9.99025215 23.2806938,10.6242272 L14.6596719,8.59310908 C15.1661967,4.65107338 12.3139467,1.05315272 8.28898724,0.557063517 C4.26392572,0.0609743151 0.590422015,2.8544611 0.0838971902,6.79649681 C-0.422627634,10.7385325 2.42962232,14.3364532 6.45458182,14.8325424 C6.67606529,14.8598198 6.89856894,14.8772054 7.12168471,14.8846992 L7.82520841,23.8372858 C5.2034196,24.474658 3.60559647,27.0729065 4.25627429,29.6406802 C4.59079491,30.9605872 5.48233981,32.079061 6.7087114,32.7171326 L3.51592169,42.0965658 C3.44165178,42.0917697 3.37146264,42.0749836 3.29556043,42.0749836 C1.4840073,42.0665906 0.00860709546,43.4981052 3.74911797e-05,45.272336 C-0.0085321131,47.0465668 1.45309551,48.4915702 3.26464865,48.4999633 C5.07620178,48.5083563 6.55160199,47.0768417 6.56017159,45.3026109 C6.56537456,44.2097159 6.00304529,43.1892609 5.06742814,42.5937541 L8.25776939,33.2199163 C8.75470442,33.3030474 9.26255549,33.3030474 9.75949052,33.2199163 L12.9506479,42.5937541 C11.4451521,43.5565568 11.0216708,45.5324206 12.0047268,47.0068996 C12.9877829,48.4813787 15.0052106,48.8961352 16.5107064,47.9333325 C18.0162022,46.9705298 18.4396835,44.9946659 17.4566275,43.5201869 C16.8536946,42.6159357 15.8244239,42.0719861 14.7216995,42.0749836 C14.6457973,42.0749836 14.5756081,42.0917697 14.5013382,42.0965658 L11.3085485,32.717932 C13.693755,31.4693659 14.5937675,28.5634722 13.3189369,26.2274066 C12.5431836,24.8059836 11.0904317,23.861166 9.45180092,23.712589 L8.74990952,14.7671965 C11.2936537,14.2866944 13.3923906,12.5321473 14.2760801,10.1470223 L22.9003666,12.1741437 C22.892205,12.2820544 22.8832274,12.389965 22.8832274,12.4994743 C22.8955717,15.148181 25.098062,17.2856111 27.8024863,17.2735211 C30.0087513,17.2636293 31.9357901,15.809933 32.5089334,13.7232609 L42.5239442,14.6153222 C42.8182693,16.3547818 44.4966875,17.5312077 46.272738,17.2429464 C48.0487885,16.9546851 49.2499614,15.3108463 48.9556363,13.5713867 Z M41.6547415,2.10807916 C42.5562843,2.10807916 43.2870471,2.8237865 43.2870471,3.70675534 C43.2870471,4.58972418 42.5562843,5.30543152 41.6547415,5.30543152 C40.7531987,5.30543152 40.0224359,4.58972418 40.0224359,3.70675534 C40.0224359,2.8237865 40.7531987,2.10807916 41.6547415,2.10807916 Z M3.29556043,46.8710122 C2.39401766,46.8710122 1.66325486,46.1553048 1.66325486,45.272336 C1.66325486,44.3893672 2.39401766,43.6736598 3.29556043,43.6736598 C4.19710321,43.6736598 4.92786601,44.3893672 4.92786601,45.272336 C4.92786601,46.1553048 4.19710321,46.8710122 3.29556043,46.8710122 Z M14.7216995,43.6736598 C15.6232423,43.6736598 16.3540051,44.3893672 16.3540051,45.272336 C16.3540051,46.1553048 15.6232423,46.8710122 14.7216995,46.8710122 C13.8201567,46.8710122 13.0893939,46.1553048 13.0893939,45.272336 C13.0893939,44.3893672 13.8201567,43.6736598 14.7216995,43.6736598 Z M9.00862996,25.2888838 C10.8116135,25.2888838 12.2732411,26.7203984 12.2732411,28.4862361 C12.2732411,30.2520739 10.8116135,31.6835885 9.00862996,31.6835885 C7.20564643,31.6835885 5.7440188,30.2520739 5.7440188,28.4862361 C5.7440188,26.7203984 7.20564643,25.2888838 9.00862996,25.2888838 Z M7.37632438,13.2988124 C4.2210777,13.2988124 1.66325486,10.7936868 1.66325486,7.70344579 C1.66325486,4.61320473 4.2210777,2.10807916 7.37632438,2.10807916 C10.5315711,2.10807916 13.0893939,4.61320473 13.0893939,7.70344579 C13.0858232,10.7921881 10.5300408,13.2953153 7.37632438,13.2988124 Z M27.7801441,15.6968267 C25.9771606,15.6968267 24.5155329,14.2653121 24.5155329,12.4994743 C24.5155329,10.7336366 25.9771606,9.30212197 27.7801441,9.30212197 C29.5831276,9.30212197 31.0447553,10.7336366 31.0447553,12.4994743 C31.0447553,14.2653121 29.5831276,15.6968267 27.7801441,15.6968267 Z M45.7355055,15.6968267 C44.8339627,15.6968267 44.1031999,14.9811193 44.1031999,14.0981505 C44.1031999,13.2151817 44.8339627,12.4994743 45.7355055,12.4994743 C46.6370482,12.4994743 47.367811,13.2151817 47.367811,14.0981505 C47.367811,14.9811193 46.6370482,15.6968267 45.7355055,15.6968267 Z" id="Shape"></path>
                            <path d="M42.8284298,34.9793007 C42.4881674,34.9296063 42.1447045,34.9046577 41.8009415,34.9047591 C38.8222957,34.9097286 36.1535067,36.7723564 35.085311,39.5918553 L28.1768452,37.7647235 C28.1896475,37.6235508 28.1984491,37.4823781 28.1984491,37.3387713 C28.1993493,36.2002621 27.804777,35.097756 27.0838449,34.2248584 L31.5990722,28.8838242 C32.0336518,29.1056236 32.5128396,29.2224562 32.9993288,29.2253973 C34.7753542,29.2338149 36.2218192,27.7807096 36.2301208,25.9798448 C36.2384223,24.17898 34.8053597,22.7122848 33.0293343,22.7038672 C31.2533089,22.6954496 29.8068438,24.1485549 29.7985423,25.9494196 C29.7954417,26.6230325 29.9981789,27.2810272 30.3788486,27.8331423 L25.8668219,33.1717424 C25.1223855,32.713641 24.268329,32.4711526 23.3975694,32.4707469 C23.3175548,32.4707469 23.2375401,32.4788603 23.1575255,32.482917 L21.6508494,25.6117004 C23.2174364,24.7940752 23.8337494,22.84362 23.0274016,21.2551228 C22.2210539,19.6666256 20.2975014,19.041693 18.7309144,19.8593182 C17.1643273,20.6769435 16.5480144,22.6273986 17.3543621,24.2158959 C17.8845593,25.2604928 18.9316512,25.9314688 20.0897634,25.9686889 L21.594039,32.831792 C19.1359886,33.8398788 17.9493712,36.6776328 18.9435533,39.1699599 C19.9377355,41.6623884 22.7363483,42.8656018 25.1942987,41.857515 C26.3440093,41.3860266 27.2691788,40.4815882 27.7758717,39.33385 L34.6795366,41.1617932 C34.1130328,45.1507336 36.842833,48.8501279 40.7767538,49.4245548 C44.7106747,49.9989817 48.3590431,47.2310027 48.925547,43.2420623 C49.4922508,39.2531219 46.7624506,35.5537276 42.8284298,34.9793007 Z M32.9993288,24.3573728 C33.8831907,24.3573728 34.599622,25.083824 34.599622,25.9800476 C34.599622,26.8762712 33.8831907,27.6027224 32.9993288,27.6027224 C32.1154668,27.6027224 31.3990356,26.8762712 31.3990356,25.9800476 C31.3990356,25.083824 32.1154668,24.3573728 32.9993288,24.3573728 Z M20.196983,24.3573728 C19.313121,24.3573728 18.5966898,23.6309216 18.5966898,22.734698 C18.5966898,21.8384744 19.313121,21.1120232 20.196983,21.1120232 C21.080845,21.1120232 21.7972762,21.8384744 21.7972762,22.734698 C21.7972762,23.6309216 21.080845,24.3573728 20.196983,24.3573728 Z M23.3975694,40.584121 C21.6299456,40.584121 20.196983,39.1311171 20.196983,37.3387713 C20.196983,35.5464256 21.6299456,34.0934217 23.3975694,34.0934217 C25.1651933,34.0934217 26.5981559,35.5464256 26.5981559,37.3387713 C26.5981559,39.1311171 25.1651933,40.584121 23.3975694,40.584121 Z M41.8009415,47.8861576 C38.7075747,47.8861576 36.1999152,45.3434262 36.1999152,42.2067958 C36.1999152,39.0701654 38.7075747,36.5274339 41.8009415,36.5274339 C44.8943083,36.5274339 47.4019678,39.0701654 47.4019678,42.2067958 C47.3984671,45.3419049 44.892808,47.882608 41.8009415,47.8861576 Z" id="Shape"></path>
                        </g>
                    </g>
                </g>
            </g>
        </g>
    </g>
</svg>