<?xml version="1.0" encoding="UTF-8"?>
<svg width="178px" height="51px" viewBox="0 0 178 51" version="1.1" xmlns="http://www.w3.org/2000/svg" xmlns:xlink="http://www.w3.org/1999/xlink">
    <!-- Generator: Sketch 60.1 (88133) - https://sketch.com -->
    <title>Combined Shape</title>
    <desc>Created with Sketch.</desc>
    <g id="Page-1" stroke="none" stroke-width="1" fill="none" fill-rule="evenodd">
        <path d="M26.621,0.448 C26.96,0.448 27.278,0.603 27.497,0.873 L27.612,0.958 C28.115,1.393 28.171,2.156 27.737,2.66 L19.743,11.85 L19.97,11.883 C30.206,13.356 37.673,22.956 36.614,33.283 C35.655,42.634 27.853,50.137 18.468,50.736 C18.024,50.764 17.583,50.778 17.145,50.778 C11.025,50.778 5.374,47.979 1.64,43.098 C1.309,42.666 1.283,42.073 1.576,41.659 C1.808,41.33 2.165,41.138 2.555,41.131 C2.959,41.131 3.304,41.299 3.537,41.605 C6.81,45.9 11.781,48.363 17.177,48.363 C17.325,48.363 17.474,48.361 17.623,48.358 C26.349,48.137 33.658,41.149 34.263,32.448 C34.594,27.697 33.005,23.152 29.79,19.651 C26.625,16.205 22.136,14.181 17.474,14.1 C17.375,14.116 17.3,14.123 17.226,14.123 C17.055,14.123 16.888,14.087 16.729,14.014 C16.16,13.756 15.874,13.186 15.993,12.635 C16.061,12.32 16.257,12.041 16.531,11.868 L24.489,2.718 L3.629,2.718 C3.003,2.718 2.494,2.209 2.494,1.583 C2.494,0.958 3.003,0.448 3.629,0.448 L26.621,0.448 Z M19.073,4.562 C19.443,4.562 19.715,4.666 19.931,4.852 C20.175,5.063 20.323,5.356 20.346,5.677 C20.37,5.998 20.266,6.309 20.055,6.554 L11.997,15.847 L12.403,15.73 C13.85,15.311 15.342,15.099 16.839,15.099 C25.653,15.099 32.823,22.269 32.823,31.083 C32.823,39.896 25.653,47.066 16.839,47.066 C8.026,47.066 0.855,39.896 0.855,31.083 C0.855,27.4 2.143,23.805 4.482,20.957 C4.556,20.783 4.624,20.667 4.708,20.57 L18.229,4.977 C18.44,4.732 18.733,4.585 19.053,4.562 L19.073,4.562 Z M84.586,25.041 C88.616,25.041 93.101,25.948 93.98,30.659 L91.966,31.454 C91.115,28.162 87.623,27.282 84.445,27.282 C81.578,27.282 77.946,28.162 77.946,30.916 C77.946,35.881 94.35,30.744 94.35,38.634 C94.35,43.715 89.071,45.247 84.927,45.247 C80.896,45.247 76.015,44.339 75.136,39.628 L77.151,38.834 C78.001,42.127 81.521,42.836 84.7,42.836 C87.481,42.836 91.823,42.041 91.823,38.805 C91.823,33.157 75.249,38.947 75.249,31.113 C75.249,26.402 80.953,25.041 84.586,25.041 Z M119.183,25.04 C123.213,25.04 127.697,26.715 128.577,31.426 L126.562,32.221 C125.711,28.928 122.305,27.339 119.126,27.339 C114.443,27.339 111.378,30.262 111.378,35.059 C111.378,39.827 114.698,42.807 119.41,42.807 C123.298,42.807 125.994,40.338 126.505,36.477 L119.183,36.477 L119.183,34.377 L129.03,34.377 C128.889,42.523 124.093,45.163 119.126,45.163 C113.081,45.163 108.88,40.99 108.88,35.059 C108.88,28.73 113.194,25.04 119.183,25.04 Z M16.839,17.512 C9.356,17.512 3.268,23.6 3.268,31.083 C3.268,38.565 9.356,44.653 16.839,44.653 C24.322,44.653 30.409,38.565 30.409,31.083 C30.409,23.6 24.322,17.512 16.839,17.512 Z M52.601,25.664 L66.734,41.132 L66.734,25.664 L69.062,25.664 L69.062,44.538 L66.622,44.538 L52.572,29.241 L52.572,44.538 L50.246,44.538 L50.246,25.664 L52.601,25.664 Z M42.525,25.664 L42.525,44.538 L40.198,44.538 L40.198,25.664 L42.525,25.664 Z M102.721,25.664 L102.721,44.538 L100.394,44.538 L100.394,25.664 L102.721,25.664 Z M137.459,25.664 L137.459,33.64 L150.77,33.64 L150.77,25.664 L153.098,25.664 L153.098,44.538 L150.77,44.538 L150.77,35.996 L137.459,35.996 L137.459,44.538 L135.133,44.538 L135.133,25.664 L137.459,25.664 Z M177.874,25.665 L177.874,27.964 L169.048,27.964 L169.048,44.538 L166.721,44.538 L166.721,27.964 L157.895,27.964 L157.895,25.665 L177.874,25.665 Z M16.84,19.162 C23.411,19.162 28.758,24.509 28.758,31.082 C28.758,37.655 23.411,43.003 16.84,43.003 C10.267,43.003 4.919,37.655 4.919,31.082 C4.919,24.509 10.267,19.162 16.84,19.162 Z M16.84,21.781 C11.71,21.781 7.537,25.953 7.537,31.082 C7.537,36.212 11.71,40.384 16.84,40.384 C21.968,40.384 26.141,36.212 26.141,31.082 C26.141,25.953 21.968,21.781 16.84,21.781 Z M62.338,3.275 L62.338,14.684 C62.338,18.289 64.695,20.474 69.179,20.474 C73.635,20.474 76.019,18.289 76.019,14.684 L76.019,3.275 L78.347,3.275 L78.347,15.168 C78.347,19.736 74.912,22.83 69.179,22.83 C63.447,22.83 60.012,19.736 60.012,15.168 L60.012,3.275 L62.338,3.275 Z M57.081,3.275 L57.081,5.574 L42.55,5.574 L42.55,11.194 L54.727,11.194 L54.727,13.549 L42.55,13.549 L42.55,22.149 L40.224,22.149 L40.224,3.275 L57.081,3.275 Z M86.355,3.275 L100.489,18.743 L100.489,3.275 L102.817,3.275 L102.817,22.149 L100.376,22.149 L86.327,6.852 L86.327,22.149 L84,22.149 L84,3.275 L86.355,3.275 Z M117.707,3.21883027 C123.326,3.19 127.158,6.88 127.158,12.159 C127.158,17.891 123.44,22.149 117.679,22.149 L108.342,22.149 L108.342,3.275 L117.707,3.21883027 Z M117.026,5.461 C114.273,5.461 111.634,5.517 110.669,5.517 L110.669,19.935 L116.998,19.907 C121.737,19.907 124.632,16.756 124.632,12.244 C124.632,8.129 121.681,5.461 117.026,5.461 Z" id="Combined-Shape" fill="#FFFFFF"></path>
    </g>
</svg>