<?xml version="1.0" encoding="UTF-8"?>
<svg width="99px" height="26px" viewBox="0 0 99 26" version="1.1" xmlns="http://www.w3.org/2000/svg" xmlns:xlink="http://www.w3.org/1999/xlink">
    <!-- Generator: Sketch 52.5 (67469) - http://www.bohemiancoding.com/sketch -->
    <title>allic</title>
    <desc>Created with Sketch.</desc>
    <g id="Page-1" stroke="none" stroke-width="1" fill="none" fill-rule="evenodd">
        <g id="Artboard" transform="translate(-23.000000, -36.000000)" fill="#FFFFFF">
            <g id="allic" transform="translate(23.000000, 36.000000)">
                <path d="M6.91,9.67 L5.71,12.23 C5.19,13.34 5.22,13.86 7.98,13.86 L8.35,13.86 L8.35,14.72 L0.74,14.72 L0.74,13.86 L1.17,13.86 C2.55,13.86 3.26,13.38 3.98,11.86 L8.9,1.43 L8.58,0.8 L12.83,0.8 L18.58,11.9 C18.9787529,13.1356975 20.1526711,13.953759 21.45,13.9 L21.45,14.76 L12.11,14.76 L12.11,13.9 L13.11,13.9 C14.86,13.9 15.11,13.31 14.55,12.24 L13.2,9.71 L6.91,9.67 Z M9.91,3.35 L7.49,8.47 L12.49,8.47 L9.91,3.35 Z M25.51,3.9 C25.51,2.22 25.19,1.98 23.01,1.98 L22.29,1.98 L22.29,1.12 C23.01,1.12 24.39,1.01 25.91,0.95 C27.64,0.88 29.33,0.8 30.57,0.8 C34.16,0.8 36.92,1.17 38.47,2.35 C39.1250523,2.8104675 39.5280622,3.54993511 39.56,4.35 C39.56,5.68 38.41,6.51 36.03,6.9 C38.81,7.36 40.56,8.8 40.56,10.57 C40.56,12.8 37.89,14.68 33.15,14.68 L22,14.68 L22,13.82 C24.82,13.82 25.48,13.28 25.48,11.99 L25.51,3.9 Z M29.51,6.57 L31.72,6.57 C34.59,6.57 35.31,5.39 35.31,4.27 C35.31,3.15 34.5,1.61 31.03,1.61 C30.42,1.61 30.03,1.61 29.51,1.67 L29.51,6.57 Z M29.51,11.77 C29.51,13.36 30.28,13.77 32.12,13.77 C35.34,13.77 36.12,12.2 36.12,10.77 C36.12,9.34 35.32,7.51 31.58,7.51 C31.04,7.51 29.92,7.51 29.49,7.57 L29.51,11.77 Z M57,14.72 L41.59,14.72 L41.59,13.86 L42.08,13.86 C43.92,13.86 44.46,13.36 44.46,12.29 L44.46,3.55 C44.46,2.26 43.46,1.98 42.19,1.98 L41.65,1.98 L41.65,1.12 L51.39,1.12 L51.39,2 L50.55,2 C49.06,2 48.43,2.5 48.43,3.53 L48.43,12.53 C48.43,13.34 48.74,13.53 49.86,13.53 L53.51,13.53 C55.44,13.53 56.01,12.81 57.94,10.93 L59.08,10.93 L57,14.72 Z M77.72,11.25 C75.42,13.88 72.39,15.1 68.39,15.1 C61.96,15.1 59.84,11.32 59.84,8.1 C59.84,3.56 63.84,0.31 69.36,0.31 C71.3783941,0.215831262 73.3744837,0.76563139 75.06,1.88 C77.17,3.49 76.34,5.13 77.95,5.66 L77.95,6.66 L64.2,6.66 C64.2,10.55 67,13.13 71.05,13.13 C73.2132689,13.0512911 75.2728788,12.1833381 76.84,10.69 L77.72,11.25 Z M72.72,5.63 C72.35,2.72 70.97,1.22 68.62,1.22 C66.27,1.22 64.72,2.69 64.26,5.63 L72.72,5.63 Z M90.9,12.25 C90.9,13.25 91.33,13.86 93.4,13.86 L93.83,13.86 L93.83,14.72 L84,14.72 L84,13.86 L84.72,13.86 C86.44,13.86 86.9,13.27 86.9,12.29 L86.9,9.29 L80.76,3 C80.1248343,2.22697052 79.128701,1.84676699 78.14,2 L77.94,2 L77.94,1.14 L87.31,1.14 L87.31,2 L87,2 C85.34,2 85.11,2.52 85.71,3.11 L90.31,7.72 L93.64,3.72 C94.39,2.83 94.64,1.98 92.64,1.98 L92.3,1.98 L92.3,1.12 L99,1.12 L99,2 C97.7370017,1.88891764 96.5139646,2.47551536 95.81,3.53 L90.9,9.25 L90.9,12.25 Z M4,23.53 C3.93,23.32 3.9,23.32 3.2,23.31 C2.5,23.3 2.48,23.31 2.44,23.41 C2.19930979,23.9523021 1.9955129,24.5102379 1.83,25.08 C1.83,25.25 2.01,25.32 2.08,25.34 C2.35,25.4 2.52,25.44 2.52,25.5 C2.52,25.56 2.38,25.61 2.32,25.61 C2.09,25.61 1.82,25.61 1.57,25.61 C1.32,25.61 0.91,25.61 0.62,25.61 C0.55,25.61 0.52,25.61 0.52,25.5 C0.52,25.39 0.74,25.41 0.95,25.34 C1.16,25.27 1.17,25.22 1.21,25.12 L3.39,20.23 C3.4178461,20.213923 3.4521539,20.213923 3.48,20.23 C3.51094011,20.2121367 3.54905989,20.2121367 3.58,20.23 L5.17,24.73 C5.33,25.19 5.5,25.3 5.62,25.34 C5.74,25.38 6.01,25.34 6.01,25.5 C6.01,25.66 5.94,25.61 5.84,25.61 C5.47,25.61 5.18,25.61 4.84,25.61 C4.5,25.61 4.22,25.61 3.84,25.61 C3.81080032,25.6127762 3.78170116,25.6037757 3.75916819,25.5849982 C3.73663521,25.5662207 3.72253481,25.5392216 3.72,25.51 C3.72,25.41 3.89,25.39 4.2,25.34 C4.2,25.34 4.41,25.26 4.41,25.12 C4.39702275,25.0458767 4.38033511,24.9724511 4.36,24.9 L4,23.53 Z M2.62,22.75 C2.61141445,22.7996314 2.61141445,22.8503686 2.62,22.9 C2.82606874,22.9222325 3.03393126,22.9222325 3.24,22.9 C3.24,22.9 3.84,22.9 3.84,22.9 C3.84794507,22.8469626 3.84794507,22.7930374 3.84,22.74 L3.39,21.4 C3.39,21.4 3.39,21.4 3.39,21.4 L2.62,22.75 Z M14.8,21.33 C14.8,21.2 14.8,21.06 14.8,20.99 C14.8,20.76 14.66,20.75 14.41,20.72 C14.16,20.69 14.05,20.72 14.05,20.57 C14.05,20.42 14.34,20.43 14.49,20.43 C15.3,20.43 16.11,20.36 16.29,20.36 C17.57,20.36 18.1,21.02 18.1,21.58 C18.1384422,22.0026351 17.9059375,22.4035052 17.52,22.58 C17.52,22.71 18.52,22.9 18.52,23.98 C18.52,24.74 18.29,25.19 17.33,25.5 C16.5477706,25.6022749 15.7580774,25.6357365 14.97,25.6 L14.31,25.6 C14.1,25.6 14,25.6 14,25.49 C14,25.38 14.19,25.39 14.37,25.38 C14.55,25.37 14.74,25.31 14.74,25.11 L14.8,21.33 Z M15.53,24.7 C15.53,25.06 15.63,25.28 16.45,25.28 C16.6318913,25.2846565 16.8135673,25.2644703 16.99,25.22 C17.4576226,25.0695985 17.7627733,24.6201198 17.73,24.13 C17.73,23.02 16.73,22.88 15.83,22.88 C15.66,22.88 15.53,22.88 15.53,22.94 L15.53,24.7 Z M15.53,22.58 C15.7008719,22.616361 15.8753303,22.6331359 16.05,22.63 L16.49,22.63 C17.0187239,22.5982202 17.4309542,22.1596773 17.43,21.63 C17.43,20.69 16.58,20.63 16.05,20.63 C15.52,20.63 15.5299868,20.63 15.53,20.89 L15.53,22.58 Z M29.7,20.28 C30.7274462,20.1918163 31.716902,20.6901019 32.2577879,21.5680907 C32.7986738,22.4460796 32.7986738,23.5539204 32.2577879,24.4319093 C31.716902,25.3098981 30.7274462,25.8081837 29.7,25.72 C28.9566863,25.7650139 28.2285396,25.4963837 27.6925571,24.9794077 C27.1565746,24.4624316 26.8618411,23.744454 26.88,23 C26.8821146,22.258228 27.1859806,21.5492511 27.7216905,21.0361768 C28.2574003,20.5231026 28.9788275,20.2501086 29.72,20.28 L29.7,20.28 Z M29.7,25.47 C31.59,25.47 31.7,23.26 31.7,22.84 C31.7553791,22.2652941 31.5728358,21.6929992 31.1949157,21.2565015 C30.8169957,20.8200039 30.2767157,20.5574377 29.7,20.53 C28.78,20.53 27.8,21.23 27.8,23.02 C27.8,24.81 29,25.47 29.72,25.47 L29.7,25.47 Z M45.06,24 C45.06,23.47 45.06,23.38 44.55,23.38 C44.04,23.38 43.98,23.38 43.98,23.26 C43.98,23.14 44.15,23.1 44.28,23.1 L45.35,23.1 L46.35,23.1 C46.54,23.1 46.63,23.1 46.63,23.2 C46.63,23.3 46.44,23.34 46.21,23.34 C45.98,23.34 45.81,23.34 45.81,23.63 L45.81,25 C45.8247286,25.1420412 45.7541075,25.2793602 45.63,25.35 C45.0309919,25.6217524 44.3774082,25.7517847 43.72,25.73 C42.972117,25.8234079 42.2195919,25.5963766 41.6481527,25.1049388 C41.0767134,24.613501 40.7395948,23.9034388 40.72,23.15 C40.7129447,22.3393602 41.0514424,21.5640755 41.6507715,21.0181897 C42.2501006,20.4723039 43.0535404,20.20748 43.86,20.29 C44.3418118,20.2901155 44.8207411,20.3643158 45.28,20.51 C45.62,20.6 45.64,20.72 45.64,21.51 C45.64,21.57 45.64,21.57 45.53,21.57 C45.42,21.57 45.22,20.49 43.91,20.49 C43.32,20.49 41.63,20.65 41.63,23.02 C41.5675685,24.2833681 42.5370261,25.3600467 43.8,25.43 C44.0325081,25.4336077 44.2644855,25.4067118 44.49,25.35 C44.77,25.26 45.03,25.24 45.03,24.46 L45.06,24 Z M57.92,23.51 C57.86,23.3 57.82,23.3 57.12,23.29 C56.42,23.28 56.4,23.29 56.37,23.39 C56.1248536,23.9304913 55.9209387,24.4887502 55.76,25.06 C55.76,25.23 55.94,25.3 56.01,25.32 C56.27,25.38 56.45,25.42 56.45,25.48 C56.45,25.54 56.31,25.59 56.25,25.59 C56.02,25.59 55.74,25.59 55.5,25.59 C55.26,25.59 54.84,25.59 54.5,25.59 C54.4699612,25.5931896 54.4400903,25.5826298 54.4187303,25.5612697 C54.3973702,25.5399097 54.3868104,25.5100388 54.39,25.48 C54.39,25.37 54.62,25.39 54.83,25.32 C54.9472733,25.2932854 55.0442431,25.211234 55.09,25.1 L57.27,20.21 C57.2940398,20.1932608 57.3259602,20.1932608 57.35,20.21 C57.4,20.21 57.45,20.21 57.46,20.21 L59.05,24.71 C59.21,25.17 59.38,25.28 59.49,25.32 C59.6,25.36 59.88,25.32 59.88,25.48 C59.88,25.64 59.82,25.59 59.71,25.59 C59.35,25.59 59.05,25.59 58.71,25.59 C58.37,25.59 58.1,25.59 57.71,25.59 C57.6808003,25.5927762 57.6517012,25.5837757 57.6291682,25.5649982 C57.6066352,25.5462207 57.5925348,25.5192216 57.59,25.49 C57.59,25.39 57.76,25.37 58.07,25.32 C58.07,25.32 58.29,25.24 58.29,25.1 C58.2784541,25.0246188 58.2583232,24.9508056 58.23,24.88 L57.92,23.51 Z M56.55,22.73 C56.5414145,22.7796314 56.5414145,22.8303686 56.55,22.88 C56.7527222,22.902295 56.9572778,22.902295 57.16,22.88 C57.16,22.88 57.76,22.88 57.76,22.88 C57.7647501,22.8267724 57.7647501,22.7732276 57.76,22.72 L57.3,21.38 C57.2845299,21.3710684 57.2654701,21.3710684 57.25,21.38 C57.25,21.38 57.25,21.38 57.25,21.38 L56.55,22.73 Z M69,25.57 C68.75,25.57 68.44,25.57 68.23,25.57 C68.23,25.57 68.08,25.57 68.08,25.48 C68.08,25.39 68.14,25.34 68.4,25.3 C68.66,25.26 68.78,25.24 68.78,24.75 L68.78,20.75 C68.78,20.59 68.42,20.61 68.2,20.59 C67.98,20.57 67.94,20.59 67.94,20.48 C67.94,20.37 68.17,20.34 68.27,20.34 L69,20.34 C69.42,20.34 69.82,20.28 70.37,20.28 C72.17,20.28 73.62,21.16 73.62,23.2 C73.5499554,24.5774718 72.377575,25.6379838 71,25.57 L69,25.57 Z M69.52,24.51 C69.52,25.11 70.05,25.37 70.61,25.37 C71.8530242,25.3484823 72.8539704,24.3431071 72.87,23.1 C72.826435,21.6828234 71.6474469,20.5663574 70.23,20.6 C69.53,20.6 69.52,20.75 69.52,20.87 L69.52,24.51 Z M84.66,20.28 C85.6317624,20.2799999 86.529708,20.798429 87.0155892,21.64 C87.5014705,22.4815709 87.5014705,23.5184291 87.0155892,24.36 C86.529708,25.201571 85.6317624,25.7200001 84.66,25.72 C83.9083448,25.7797777 83.166636,25.5177376 82.6193472,24.9990527 C82.0720584,24.4803679 81.7706186,23.7537794 81.79,23 C81.7921146,22.258228 82.0959806,21.5492511 82.6316905,21.0361768 C83.1674003,20.5231026 83.8888275,20.2501086 84.63,20.28 L84.66,20.28 Z M84.66,25.47 C86.54,25.47 86.66,23.26 86.66,22.84 C86.7153791,22.2652941 86.5328358,21.6929992 86.1549157,21.2565015 C85.7769957,20.8200039 85.2367157,20.5574377 84.66,20.53 C83.74,20.53 82.77,21.23 82.77,23.02 C82.77,24.81 83.93,25.47 84.63,25.47 L84.66,25.47 Z M98.58,21.56 C98.5802098,21.5804352 98.5714788,21.5999415 98.556099,21.6133989 C98.5407192,21.6268562 98.5202265,21.6329205 98.5,21.63 C98.21,21.63 98.5,20.56 97.34,20.56 C96.67,20.56 96.41,20.94 96.41,21.35 C96.41,22.57 98.97,22.41 98.97,24.15 C98.97,25.24 98.18,25.72 97.14,25.72 C96.8608977,25.6991828 96.5835693,25.6590871 96.31,25.6 C95.78,25.49 95.69,25.34 95.69,24.82 C95.69,24.59 95.69,24.08 95.89,24.08 C96.09,24.08 95.89,24.33 96.18,24.79 C96.384056,25.202016 96.8105116,25.4563244 97.27,25.44 C98.08,25.44 98.41,24.95 98.41,24.52 C98.41,23.24 95.84,23.32 95.84,21.7 C95.8487467,21.2903921 96.0291954,20.9033071 96.3372913,20.6332478 C96.6453871,20.3631884 97.0527767,20.2350079 97.46,20.28 C97.6130681,20.2672463 97.7669319,20.2672463 97.92,20.28 C98.58,20.41 98.58,20.5 98.58,20.82 L98.58,21.56 Z" id="Shape"></path>
            </g>
        </g>
    </g>
</svg>