<?xml version="1.0" encoding="UTF-8"?>
<svg width="220px" height="122px" viewBox="0 0 220 122" version="1.1" xmlns="http://www.w3.org/2000/svg" xmlns:xlink="http://www.w3.org/1999/xlink">
    <!-- Generator: Sketch 52.5 (67469) - http://www.bohemiancoding.com/sketch -->
    <title>Group 2</title>
    <desc>Created with Sketch.</desc>
    <g id="Symbols" stroke="none" stroke-width="1" fill="none" fill-rule="evenodd">
        <g id=".Iconos/.Logo-principal" transform="translate(-10.000000, -15.000000)" fill="#FFFFFF">
            <g id="Group-2" transform="translate(10.000000, 15.000000)">
                <g id="icon" transform="translate(81.117327, 0.172591)">
                    <path d="M36.279792,32.7630131 C33.9149495,36.8192754 28.6288577,38.2319035 24.4963309,35.9103829 C20.364601,33.5889742 18.9267995,28.397714 21.2910729,24.3405577 C23.6561431,20.2831777 28.9426902,18.8714438 33.0744202,21.1929643 C37.2063778,23.5148202 38.6441792,28.7055214 36.279792,32.7630131" id="Fill-1"></path>
                    <path d="M53.448287,13.9166723 C50.9491237,9.61709243 47.4784114,6.1932101 43.1322235,3.73946874 C38.7919549,1.28997455 33.9055243,0.0481270396 28.6088462,0.0481270396 C23.3109159,0.0481270396 18.4245992,1.28997455 14.0855827,3.73958051 C9.73802883,6.1932101 6.26731649,9.6175395 3.76974682,13.9173429 C1.27832403,18.2060813 0.0150257143,23.0164382 0.0150257143,28.2147396 C0.0150257143,33.4066704 1.24315019,38.1953443 3.66445299,42.445523 C6.09258565,46.7130256 9.4625574,50.1227135 13.6800022,52.5799197 C17.9035939,55.0422671 22.3286668,56.2908207 26.9856137,56.2908207 L32.4529247,56.2908207 C35.9656408,56.2908207 38.9335608,53.5455899 38.9335608,50.2961765 C38.9335608,47.1365123 36.6055996,44.5683211 33.5182706,44.3232152 L32.7377303,44.2995205 L32.6680656,44.3010853 C32.3321499,44.3051089 29.1562603,44.3090208 28.8738451,44.3090208 C25.8433179,44.3090208 22.9147834,43.6303692 20.4661612,42.2347297 C18.0258486,40.843561 16.1635706,38.9761514 14.7716431,36.5241983 C13.3653729,34.0503388 12.681589,31.3321558 12.681589,28.2147396 C12.681589,25.1420305 13.384838,22.3461691 14.7720984,19.9046104 C16.1672132,17.4484102 18.0365487,15.5620001 20.4846018,14.1390894 C22.9300368,12.7205376 25.5873116,12.0311564 28.6088462,12.0311564 C31.6258275,12.0311564 34.264434,12.7181905 36.67276,14.1308186 C39.0961118,15.5547352 40.9541779,17.4438277 42.3533906,19.9046104 C43.5841332,22.0720037 44.1572732,24.7122848 44.1572732,28.2147396 C44.1572732,29.1889042 44.2550542,43.5284373 44.2590382,44.119575 L44.2590382,49.5728179 C44.2590382,51.3719377 44.9180069,52.9396989 46.1620677,54.1038681 C47.3699303,55.2371894 48.9499069,55.8363744 50.7310232,55.8363744 C52.5352472,55.8363744 54.1311602,55.2065652 55.3475601,54.0133365 C56.5613418,52.8204431 57.2028943,51.2849826 57.2028943,49.5728179 L57.2028943,28.2147396 C57.2028943,23.0190088 55.9400513,18.2087637 53.448287,13.9166723" id="Fill-3"></path>
                </g>
                <g id="txt" transform="translate(0.550296, 63.564809)">
                    <path d="M46.4827984,18.7667736 C47.9819549,17.8597812 49.7210675,17.3998584 51.6520995,17.3998584 C53.2021385,17.3998584 54.6251419,17.6865418 55.8813827,18.2518612 C57.1451364,18.820422 58.3249964,19.69109 59.3956924,20.8474354 C60.0960956,21.5845414 60.8653666,21.9581798 61.6822191,21.9581798 C62.2337311,21.9581798 62.7595173,21.797123 63.2446657,21.4795918 L63.2635617,21.4668503 C64.3676102,20.7016907 64.5993704,19.8151518 64.5993704,19.2063548 C64.5993704,18.5544156 64.377172,17.9747899 63.9388082,17.4831251 C60.8038978,13.7014754 56.6701189,11.7837704 51.6520995,11.7837704 C48.643314,11.7837704 45.8923562,12.5055642 43.4750375,13.9293691 C41.0578326,15.3538445 39.1396636,17.3467689 37.7741449,19.8523703 C36.4138624,22.3463479 35.7240455,25.1961929 35.7240455,28.3231093 C35.7240455,31.3820711 36.445166,34.1989447 37.8672588,36.6951577 C39.2918558,39.1986355 41.2771852,41.1975954 43.7675836,42.6362652 C46.2568436,44.0761646 49.1022813,44.806341 52.2250117,44.806341 C56.6298226,44.806341 60.3335474,43.4636793 63.2338517,40.8153509 C63.7895755,40.3207802 64.0832599,39.6790118 64.0832599,38.9594533 C64.0832599,38.1439984 63.7133086,37.4187398 62.983537,36.8036838 L62.9600878,36.7846834 C62.4240568,36.3645497 61.8206378,36.1516328 61.1664501,36.1516328 C60.4265475,36.1516328 59.7203389,36.4265806 59.0674033,36.9687643 L59.0555649,36.9788233 C57.3525367,38.4466645 55.0543993,39.1908118 52.2250117,39.1908118 C50.176506,39.1908118 48.3380188,38.7197122 46.7607741,37.7907017 C45.1848954,36.8624735 43.9415176,35.5622834 43.0650176,33.9260087 C42.1795249,32.2754279 41.7305748,30.390359 41.7305748,28.3231093 C41.7305748,26.2103703 42.1543682,24.2895358 42.9902305,22.6136955 C43.8112947,20.9665795 44.9863739,19.6722013 46.4827984,18.7667736" id="Fill-22"></path>
                    <path d="M77.7450264,18.7667736 C79.2441829,17.8597812 80.9831816,17.3998584 82.9144412,17.3998584 C84.4640249,17.3998584 85.8870284,17.6865418 87.1436107,18.2518612 C88.4073643,18.820422 89.5872244,19.69109 90.6579203,20.8474354 C91.3582097,21.5845414 92.1275946,21.9581798 92.944447,21.9581798 C93.4961867,21.9581798 94.021859,21.797123 94.5070075,21.47948 L94.5257896,21.4668503 C95.6296105,20.7018025 95.8612569,19.8153753 95.8612569,19.2063548 C95.8612569,18.554192 95.6391723,17.9744546 95.2010361,17.4831251 C92.0661257,13.7014754 87.9323468,11.7837704 82.9144412,11.7837704 C79.9056558,11.7837704 77.1545841,12.5055642 74.7372654,13.9293691 C72.3200605,15.3537327 70.4018915,17.3467689 69.0364866,19.8523703 C67.6760903,22.3463479 66.9861596,25.1961929 66.9861596,28.3231093 C66.9861596,31.3814005 67.7073939,34.1981623 69.1294867,36.6951577 C70.5540838,39.1986355 72.539527,41.1975954 75.0299253,42.6362652 C77.5190715,44.0761646 80.3646231,44.806341 83.4873535,44.806341 C87.8920506,44.806341 91.5957753,43.4636793 94.4960797,40.8153509 C95.0518035,40.3207802 95.3454879,39.6790118 95.3454879,38.9594533 C95.3454879,38.1439984 94.9755366,37.4187398 94.2458788,36.8037956 L94.2223157,36.7846834 C93.6862848,36.3645497 93.0827519,36.1516328 92.428678,36.1516328 C91.6887754,36.1516328 90.9825668,36.4265806 90.3297451,36.9687643 L90.3177928,36.9788233 C88.6148785,38.4466645 86.3166272,39.1908118 83.4873535,39.1908118 C81.438734,39.1908118 79.6003606,38.7197122 78.0231159,37.7908134 C76.4471234,36.8622499 75.2036317,35.5621716 74.3272455,33.9260087 C73.4415252,32.274869 72.9923474,30.3899119 72.9923474,28.3231093 C72.9923474,26.2109291 73.4164824,24.2902064 74.2524585,22.6136955 C75.0735227,20.9665795 76.2486018,19.6722013 77.7450264,18.7667736" id="Fill-24"></path>
                    <path d="M122.084156,25.2902117 L103.104061,25.2902117 C103.595812,23.0420105 104.623593,21.1851071 106.166802,19.7606316 C107.928909,18.1341925 110.100011,17.3434382 112.803729,17.3434382 C115.461686,17.3434382 117.572344,18.1302807 119.256135,19.7487843 C120.73742,21.1734833 121.686316,23.0344104 122.084156,25.2902117 M120.753925,13.8463482 C118.450893,12.4776447 115.775974,11.7837928 112.803729,11.7837928 C109.757379,11.7837928 106.997201,12.4956393 104.599575,13.9001084 C102.199445,15.3069245 100.299261,17.2919135 98.9518414,19.8001973 C97.6123901,22.2927219 96.9331595,25.1602262 96.9331595,28.3231317 C96.9331595,31.4565305 97.6542799,34.3114051 99.0762589,36.8081769 C100.503474,39.3159019 102.512822,41.2984319 105.048297,42.7003303 C107.572617,44.097758 110.4711,44.8063633 113.663154,44.8063633 C115.553093,44.8063633 117.54104,44.4390957 119.571219,43.7151783 C121.606179,42.9910373 123.313988,42.060462 124.647406,40.9492706 L124.668579,40.9308289 C125.264371,40.3999338 125.579228,39.7380473 125.579228,39.0163653 C125.579228,38.2132048 125.236141,37.494764 124.559643,36.8809374 L124.522648,36.8472955 L124.481782,36.8183477 C123.913765,36.4134144 123.320704,36.2080977 122.719106,36.2080977 C121.994002,36.2080977 121.29838,36.4556625 120.651363,36.9443096 L120.613799,36.9744868 C119.859895,37.613908 118.826422,38.1569858 117.542179,38.5885197 C116.243479,39.0255302 114.938518,39.2469414 113.663154,39.2469414 C110.645717,39.2469414 108.209047,38.3797382 106.214042,36.5953718 C104.434064,35.0041394 103.358815,33.0258565 102.943104,30.5685386 L125.12675,30.5685386 C125.961246,30.5685386 126.660169,30.3112501 127.205876,29.8028202 C127.761713,29.2828783 128.043673,28.5957323 128.043673,27.7606064 C128.043673,24.7130448 127.404056,21.9518314 126.142807,19.5535267 C124.871768,17.136445 123.058779,15.2162812 120.753925,13.8463482" id="Fill-26"></path>
                    <path d="M138.898261,18.7666619 C140.396962,17.8597812 142.135961,17.3998584 144.066993,17.3998584 C145.617032,17.3998584 147.039921,17.6865418 148.296617,18.251973 C149.559802,18.8201984 150.739662,19.6909782 151.810927,20.8474354 C152.51133,21.5845414 153.280601,21.9581798 154.097112,21.9581798 C154.64851,21.9581798 155.174183,21.797123 155.659786,21.4797036 L155.679138,21.4667386 C156.782731,20.7013554 157.014377,19.81504 157.014377,19.2063548 C157.014377,18.554192 156.792293,17.9745663 156.354157,17.4832369 C153.219132,13.7014754 149.085126,11.7837704 144.066993,11.7837704 C141.058662,11.7837704 138.307705,12.5055642 135.890386,13.9293691 C133.472953,15.354068 131.554784,17.3469924 130.189379,19.8523703 C128.829211,22.3463479 128.139394,25.1961929 128.139394,28.3231093 C128.139394,31.3820711 128.860514,34.1989447 130.282607,36.6950459 C131.706977,39.1985238 133.69242,41.1974836 136.182932,42.6362652 C138.672078,44.0761646 141.51763,44.806341 144.64036,44.806341 C149.045057,44.806341 152.748896,43.4634557 155.648745,40.8154626 C156.20481,40.3208919 156.498608,39.6792353 156.498608,38.9594533 C156.498608,38.1437749 156.128429,37.4184045 155.398202,36.8035721 L155.375322,36.7849069 C154.839633,36.3646615 154.236214,36.1516328 153.581798,36.1516328 C152.841782,36.1516328 152.135687,36.4265806 151.482752,36.9687643 L151.470799,36.9788233 C149.767771,38.4466645 147.469748,39.1908118 144.64036,39.1908118 C142.591741,39.1908118 140.753367,38.7197122 139.176009,37.7907017 C137.599902,36.8622499 136.356411,35.5621716 135.480024,33.9261205 C134.594304,32.274869 134.145468,30.3898002 134.145468,28.3231093 C134.145468,26.2109291 134.569489,24.2902064 135.405465,22.6136955 C136.226643,20.9662442 137.401722,19.671866 138.898261,18.7666619" id="Fill-28"></path>
                    <path d="M165.336324,12.0652007 C164.455157,12.0652007 163.712067,12.3560195 163.127885,12.9297215 C162.543704,13.5034235 162.247515,14.2330411 162.247515,15.0985678 L162.247515,41.4919907 C162.247515,42.3582997 162.543931,43.0880291 163.127544,43.6603899 C163.710928,44.2339801 164.454018,44.5250224 165.336324,44.5250224 C166.226028,44.5250224 166.964451,44.2295094 167.530419,43.646866 C168.086371,43.0749523 168.368217,42.350029 168.368217,41.4919907 L168.368217,15.0985678 C168.368217,14.2414236 168.086485,13.5165003 167.530192,12.9433571 C166.963199,12.3606019 166.225231,12.0652007 165.336324,12.0652007" id="Fill-30"></path>
                    <path d="M168.097959,1.14866703 C167.325614,0.43872055 166.396411,0.07894131 165.336301,0.07894131 C164.237147,0.07894131 163.288592,0.438832317 162.517272,1.14922587 C161.729674,1.87448449 161.330241,2.81869543 161.330241,3.95559335 C161.330241,5.04119005 161.710323,5.97612429 162.459104,6.73334838 C163.214943,7.5000727 164.163612,7.88891146 165.27893,7.88891146 C166.388556,7.88891146 167.343827,7.50320219 168.118221,6.74307215 C168.892614,5.9826068 169.285218,5.0447666 169.285218,3.95559335 C169.285218,2.81970133 168.886012,1.87571393 168.097959,1.14866703" id="Fill-32"></path>
                    <path d="M217.256461,12.298884 C216.808422,12.1063088 216.350821,12.0087358 215.895951,12.0087358 C215.121899,12.0087358 214.060424,12.3088313 213.398951,13.7390068 L203.498485,35.1672751 L193.781401,15.0579739 L193.771042,15.0370734 C193.677815,14.8573514 193.352144,14.2493368 193.068476,13.969583 C192.540186,13.4528823 191.845702,13.1908995 191.00449,13.1908995 L182.762088,13.1908995 L182.762088,5.30604524 C182.762088,4.44230682 182.4659,3.71313635 181.881263,3.13820487 C181.296626,2.56405577 180.553422,2.27301348 179.672597,2.27301348 C178.783803,2.27301348 178.045608,2.56886177 177.478956,3.15228757 C176.923005,3.72431309 176.641159,4.44901287 176.641159,5.30604524 L176.641159,13.1908995 L173.769198,13.1908995 C172.926392,13.1908995 172.231567,13.4532176 171.703732,13.971036 C171.17658,14.4890778 170.909418,15.1521938 170.909418,15.942501 C170.909418,16.6860895 171.184434,17.3486466 171.703277,17.8569647 C172.22986,18.3750066 172.924913,18.6377717 173.769198,18.6377717 L176.641159,18.6377717 L176.641159,32.8255246 C176.641159,35.0211951 177.128698,37.0203784 178.090685,38.7669675 C179.056998,40.524398 180.423882,41.9378085 182.152864,42.9679685 C183.885602,44.0011463 185.866606,44.5250001 188.040895,44.5250001 L189.24466,44.5250001 C190.150187,44.5250001 190.922873,44.2426756 191.541431,43.6858505 C192.172397,43.1176251 192.505809,42.3783955 192.505809,41.5482991 C192.505809,40.6999846 192.238533,39.9804261 191.710243,39.4085123 C191.168406,38.8240806 190.434765,38.5152673 189.588544,38.5152673 L188.040895,38.5152673 C186.479587,38.5152673 185.241217,38.0051609 184.254984,36.9557769 C183.250424,35.8876159 182.762088,34.5366834 182.762088,32.8255246 L182.762088,18.6377717 L189.016314,18.6377717 L200.408765,41.8121819 L194.884083,53.8126469 C194.682602,54.2559164 194.580496,54.7117039 194.580496,55.1669324 C194.580496,56.2870653 195.22865,57.157845 196.406689,57.6223503 C196.821945,57.8188374 197.285124,57.9184221 197.784046,57.9184221 C199.272161,57.9184221 199.954351,56.7986246 200.232327,56.1141611 L218.797622,16.0567273 C218.997964,15.6116695 219.099729,15.1565527 219.099729,14.7044536 C219.099729,13.2395184 217.95345,12.5702552 217.256461,12.298884" id="Fill-34"></path>
                    <path d="M25.3558929,13.9494201 C22.8093758,12.5124268 19.9376431,11.7838151 16.8206042,11.7838151 C13.7028823,11.7838151 10.8311495,12.5124268 8.28520162,13.9495319 C5.73663558,15.3879783 3.70190344,17.395656 2.23769312,19.9166813 C0.775076429,22.4345771 0.0333525325,25.2629628 0.0333525325,28.323154 C0.0333525325,31.3821158 0.754472987,34.1989894 2.17656578,36.6952024 C3.60025221,39.1971155 5.57488149,41.1954047 8.04535935,42.634857 C10.5168617,44.0757622 13.3150595,44.8063857 16.362206,44.8063857 L21.0052656,44.8063857 C22.6537686,44.8063857 24.0997659,43.4932306 24.0997659,41.9963299 C24.0997659,40.4897054 23.0446648,39.3122359 21.5911546,39.1966684 L21.1673612,39.1857152 L21.1510833,39.1859388 C20.9835238,39.1883976 16.9995468,39.1908565 16.8206042,39.1908565 C14.8060201,39.1908565 12.9544423,38.7176334 11.3172086,37.7845992 C9.68236539,36.8524591 8.38138896,35.5484689 7.45013617,33.9080589 C6.51410247,32.2615017 6.03954032,30.3824682 6.03954032,28.323154 C6.03954032,26.2647339 6.5142163,24.3857005 7.45036383,22.7381374 C8.38229961,21.096945 9.685325,19.7822251 11.3226725,18.8305257 C12.9595647,17.8811735 14.8093212,17.3997913 16.8206042,17.3997913 C18.8306349,17.3997913 20.6695775,17.8805029 22.2855247,18.8280669 C23.9051146,19.7797662 25.1998303,21.095492 26.1337012,22.7381374 C26.9751412,24.2198377 27.3670619,25.9944804 27.3670619,28.323154 C27.3670619,28.9233449 27.4273925,37.7996878 27.4300106,38.1716497 L27.4300106,41.5483661 C27.4300106,42.4219401 27.731094,43.1467516 28.3243821,43.7019003 C28.9064008,44.2481075 29.6448236,44.5249554 30.5189332,44.5249554 C31.3999864,44.5249554 32.1428486,44.2343601 32.727827,43.6605463 C33.3117809,43.0863972 33.6078558,42.3757802 33.6078558,41.5483661 L33.6078558,28.323154 C33.6078558,25.2644158 32.8663595,22.4362536 31.4037429,19.9164577 C29.9383942,17.3954324 27.9036621,15.3878665 25.3558929,13.9494201" id="Fill-36"></path>
                </g>
            </g>
        </g>
    </g>
</svg>