<?xml version="1.0" encoding="UTF-8"?>
<svg width="98px" height="26px" viewBox="0 0 98 26" version="1.1" xmlns="http://www.w3.org/2000/svg" xmlns:xlink="http://www.w3.org/1999/xlink">
    <!-- Generator: Sketch 52.5 (67469) - http://www.bohemiancoding.com/sketch -->
    <title>Allic</title>
    <desc>Created with Sketch.</desc>
    <g id="Page-1" stroke="none" stroke-width="1" fill="none" fill-rule="evenodd">
        <g id="Allic" fill="#FFFFFF">
            <g id="_Grupo_">
                <path d="M27.32,17.23 L30.26,25.09 C28.87,25.09 24.84,25.09 23.42,25.09 C23.19,24.19 23,23.83 22.87,23.37 C22.74,22.91 22.34,21.67 21.87,20.08 L19.62,12.91 C19.4,12.16 19.12,11.19 18.8,9.98 L16.29,15.89 L18.81,15.89 L18.81,21.38 L13.9,21.38 L13.09,23.29 C13,23.5 12.53,24.42 12.27,25.07 C10.79,25.07 6.98,25.07 5.27,25.07 C5.91,23.89 6.6,22.72 7.34,21.4 C4.67,21.4 2.53,21.4 0.34,21.4 C0.59,19.02 0.78,17.07 0.89,15.57 C1.10333333,12.8166667 1.26333333,10.0866667 1.37,7.38 C1.47666667,4.67333333 1.53,2.45333333 1.53,0.72 L4.83,0.72 L8.4,0.72 L8.03,6.21 L7.57,14.8 L7.51,15.87 L8.51,15.87 L8.51,15.56 C8.73,12.8066667 8.89,10.0766667 8.99,7.37 C9.09,4.66333333 9.14333333,2.44333333 9.15,0.71 L12.87,0.71 L16.02,0.71 L15.75,4.71 L18.99,4.71 L22.87,4.71 L23.44,6.56 L27.32,17.23 Z" id="_Trazado_"></path>
            </g>
            <g id="_Grupo_2" transform="translate(31.000000, 1.000000)">
                <g id="_Grupo_3">
                    <path d="M66.57,6.92 C66.57,8.25333333 66.2633333,9.14 65.65,9.58 C64.5685438,10.0952773 63.3766427,10.3357184 62.18,10.28 L61.53,10.28 L60.88,10.28 L60.22,10.28 L59.56,10.28 L57.43,10.28 C56.7233333,10.28 56.0566667,10.2533333 55.43,10.2 C54.8462532,10.1724195 54.2698975,10.0578225 53.72,9.86 C53.2259002,9.6504767 52.8024253,9.3033662 52.5,8.86 C52.1605091,8.3297084 51.9673099,7.71906074 51.94,7.09 C51.94,6.76 51.88,6.43 51.86,6.09 C51.84,5.75 51.86,5.43 51.86,5.09 C51.8584711,4.50380959 51.9052965,3.91849183 52,3.34 C52.0808901,2.82777732 52.2869879,2.34344736 52.6,1.93 C52.935761,1.51104725 53.3778014,1.1898773 53.88,1 C54.5917317,0.752501335 55.3368541,0.614265945 56.09,0.59 C56.63,0.55 57.17,0.53 57.71,0.53 L61.43,0.53 C62.14,0.53 62.85,0.53 63.56,0.64 C64.8133333,0.753333333 65.6,1.14 65.92,1.8 C66.246039,2.48863232 66.4232258,3.23826873 66.44,4 C66.4533333,4.032 66.4533333,4.068 66.44,4.1 C66.398378,4.11722296 66.351622,4.11722296 66.31,4.1 L62.94,4.1 C62.9013299,4.11458702 62.8586701,4.11458702 62.82,4.1 C62.7891187,4.0759019 62.7707497,4.03916389 62.77,4 C62.77,3.6 62.66,3.35 62.43,3.25 C62.0815892,3.11963412 61.7119709,3.05520523 61.34,3.06 L57.7,3.06 C56.7,3.06 56.06,3.24 55.88,3.56 C55.6640552,4.14106159 55.5753902,4.76171632 55.62,5.38 C55.6145685,5.77088919 55.634611,6.16171699 55.68,6.55 C55.7068333,7.07195395 56.1101071,7.49645272 56.63,7.55 C57.0879254,7.64010195 57.5533043,7.68697465 58.02,7.69 L59.36,7.69 L61.12,7.69 C61.3731527,7.70353024 61.6268473,7.70353024 61.88,7.69 C62.0677415,7.6739034 62.2508535,7.62303896 62.42,7.54 C62.551047,7.45544083 62.6578713,7.33827879 62.73,7.2 C62.8277754,6.98013566 62.8723145,6.74030959 62.86,6.5 C62.8422049,6.46549243 62.8422049,6.42450757 62.86,6.39 C62.8990571,6.37771712 62.9409429,6.37771712 62.98,6.39 L66.34,6.39 C66.3821243,6.37552374 66.4278757,6.37552374 66.47,6.39 C66.4862771,6.42486023 66.4862771,6.46513977 66.47,6.5 L66.47,6.7 C66.4750807,6.71967734 66.4750807,6.74032266 66.47,6.76 L66.47,6.87 L66.57,6.92 Z M66.23,6.92 L66.23,6.68 L63.23,6.68 C63.230517,6.92566313 63.1758374,7.16830406 63.07,7.39 C62.9747801,7.574496 62.824496,7.72478012 62.64,7.82 C62.431855,7.92809522 62.2039037,7.99273812 61.97,8.01 C61.72,8.01 61.44,8.01 61.15,8.01 L59.36,8.01 L58,8 C57.5027908,7.99237885 57.0073501,7.9388177 56.52,7.84 C56.1981996,7.78411774 55.901416,7.63048856 55.67,7.4 C55.470688,7.16984624 55.3483138,6.88314079 55.32,6.58 C55.2767123,6.18150467 55.2566784,5.78082579 55.26,5.38 C55.2149094,4.69864433 55.3207604,4.01573449 55.57,3.38 C55.78,2.96 56.48,2.75 57.67,2.74 L59.41,2.74 L60.84,2.74 L61.34,2.74 C61.7486422,2.74552877 62.1537658,2.81642541 62.54,2.95 C62.8835075,3.09936993 63.0985847,3.44588319 63.08,3.82 L66.08,3.82 C66.0665248,3.12292204 65.8919744,2.43841067 65.57,1.82 C65.0920977,1.16514587 64.3201539,0.790415866 63.51,0.82 C63.05,0.773333333 62.5866667,0.743333333 62.12,0.73 L60.71,0.73 L57.19,0.73 C56.84,0.73 56.48,0.73 56.13,0.79 C55.4111308,0.805628796 54.6991549,0.933851941 54.02,1.17 C53.5579076,1.33275821 53.1519636,1.6242052 52.85,2.01 C52.5538971,2.38752169 52.3609301,2.83548082 52.29,3.31 C52.1913933,3.90482553 52.1445512,4.50708127 52.15,5.11 C52.15,5.28 52.15,5.44 52.15,5.6 C52.15,5.76 52.15,5.92 52.15,6.08 C52.1417439,6.243229 52.1417439,6.406771 52.15,6.57 C52.15,6.73 52.15,6.89333333 52.15,7.06 C52.1643356,7.64802067 52.3445995,8.22001189 52.67,8.71 C52.9435379,9.08700865 53.312984,9.38394661 53.74,9.57 C54.2537657,9.7596179 54.7931351,9.87086284 55.34,9.9 C55.94,9.9 56.6,9.97 57.34,9.98 L59.47,9.98 L61.47,9.98 L62.12,9.98 C63.2395557,10.038235 64.3561121,9.81835927 65.37,9.34 C65.9033333,8.96666667 66.17,8.15333333 66.17,6.9 L66.23,6.92 Z" id="_Trazado_compuesto_" fill-rule="nonzero"></path>
                    <path d="M66.23,6.91 C66.23,8.17 65.9633333,8.98333333 65.43,9.35 C64.4161121,9.82835927 63.2995557,10.048235 62.18,9.99 L61.53,9.99 L59.53,9.99 L57.4,9.99 C56.68,9.99 56.02,9.99 55.4,9.91 C54.8531351,9.88086284 54.3137657,9.7696179 53.8,9.58 C53.372984,9.39394661 53.0035379,9.09700865 52.73,8.72 C52.4045995,8.23001189 52.2243356,7.65802067 52.21,7.07 C52.21,6.90333333 52.21,6.74 52.21,6.58 C52.2017439,6.416771 52.2017439,6.253229 52.21,6.09 C52.21,5.93 52.21,5.77 52.21,5.61 C52.21,5.45 52.21,5.29 52.21,5.12 C52.2045512,4.51708127 52.2513933,3.91482553 52.35,3.32 C52.4209301,2.84548082 52.6138971,2.39752169 52.91,2.02 C53.1979448,1.66816419 53.57407,1.39901038 54,1.24 C54.6791549,1.00385194 55.3911308,0.875628796 56.11,0.86 C56.46,0.86 56.81,0.86 57.17,0.8 L60.71,0.8 L62.12,0.8 C62.5866667,0.8 63.05,0.83 63.51,0.89 C64.3201539,0.860415866 65.0920977,1.23514587 65.57,1.89 C65.8919744,2.50841067 66.0665248,3.19292204 66.08,3.89 L63.08,3.89 C63.0985847,3.51588319 62.8835075,3.16936993 62.54,3.02 C62.1538092,2.88625802 61.7486583,2.81535662 61.34,2.81 L60.84,2.81 L59.44,2.81 L57.7,2.81 C56.51,2.81 55.8,3.03 55.6,3.45 C55.3507604,4.08573449 55.2449094,4.76864433 55.29,5.45 C55.286701,5.85082532 55.3067349,6.25150288 55.35,6.65 C55.3783138,6.95314079 55.500688,7.23984624 55.7,7.47 C55.931416,7.70048856 56.2281996,7.85411774 56.55,7.91 C57.0296445,7.98353317 57.5149438,8.0136552 58,8 L59.34,8 L61.1,8 C61.39,8 61.67,8 61.92,8 C62.1539037,7.98273812 62.381855,7.91809522 62.59,7.81 C62.7641586,7.7168235 62.9068235,7.57415858 63,7.4 C63.1058374,7.17830406 63.160517,6.93566313 63.16,6.69 L66.16,6.69 L66.16,6.88 L66.23,6.91 Z" id="_Trazado_2"></path>
                    <path d="M49.42,0.74 L49.42,10.13 C49.431676,10.1588639 49.431676,10.1911361 49.42,10.22 C49.3772668,10.2301988 49.3327332,10.2301988 49.29,10.22 L45.83,10.22 C45.7909429,10.2322829 45.7490571,10.2322829 45.71,10.22 C45.679456,10.2001327 45.660732,10.1664295 45.66,10.13 L45.66,0.74 C45.6556439,0.697005061 45.6747423,0.65498867 45.71,0.63 C45.7490571,0.61771712 45.7909429,0.61771712 45.83,0.63 L49.26,0.63 C49.3021243,0.615523738 49.3478757,0.615523738 49.39,0.63 C49.4050081,0.66513092 49.4050081,0.70486908 49.39,0.74 L49.42,0.74 Z M49.05,0.88 L46,0.88 L46,10 L49.09,10 L49.05,0.88 Z" id="_Trazado_compuesto_2" fill-rule="nonzero"></path>
                    <rect id="_Trazado_3" x="46" y="0.88" width="3.09" height="9.11"></rect>
                    <path d="M44.09,7.78 L44.09,10.13 C44.1028343,10.1586273 44.1028343,10.1913727 44.09,10.22 C44.0473134,10.2305878 44.0026866,10.2305878 43.96,10.22 L32.7,10.22 C32.6608514,10.2316718 32.6191486,10.2316718 32.58,10.22 C32.5671657,10.1913727 32.5671657,10.1586273 32.58,10.13 L32.58,0.74 C32.5622049,0.705492427 32.5622049,0.664507573 32.58,0.63 C32.6191486,0.618328157 32.6608514,0.618328157 32.7,0.63 L36.13,0.63 C36.1719853,0.614714281 36.2180147,0.614714281 36.26,0.63 C36.2762771,0.664860235 36.2762771,0.705139765 36.26,0.74 L36.26,7.64 L43.88,7.64 C43.9219853,7.62471428 43.9680147,7.62471428 44.01,7.64 C44.0262771,7.67486023 44.0262771,7.71513977 44.01,7.75 L44.09,7.78 Z M43.75,10 L43.75,7.92 L36.13,7.92 C36.0913299,7.93458702 36.0486701,7.93458702 36.01,7.92 C35.9778746,7.89694119 35.9591718,7.85953559 35.96,7.82 L35.96,0.92 L32.87,0.92 L32.87,10 L43.75,10 Z" id="_Trazado_compuesto_3" fill-rule="nonzero"></path>
                    <path d="M43.75,7.92 L43.75,10 L32.87,10 L32.87,0.88 L36,0.88 L36,7.78 C35.9991718,7.81953559 36.0178746,7.85694119 36.05,7.88 C36.0886701,7.89458702 36.1313299,7.89458702 36.17,7.88 L43.75,7.92 Z" id="_Trazado_4"></path>
                    <path d="M31,7.78 L31,10.13 C31.0128343,10.1586273 31.0128343,10.1913727 31,10.22 C30.9573134,10.2305878 30.9126866,10.2305878 30.87,10.22 L19.58,10.22 C19.5409429,10.2322829 19.4990571,10.2322829 19.46,10.22 C19.429456,10.2001327 19.410732,10.1664295 19.41,10.13 L19.41,0.74 C19.4056439,0.697005061 19.4247423,0.65498867 19.46,0.63 C19.4990571,0.61771712 19.5409429,0.61771712 19.58,0.63 L23,0.63 C23.0419853,0.614714281 23.0880147,0.614714281 23.13,0.63 C23.1462771,0.664860235 23.1462771,0.705139765 23.13,0.74 L23.13,7.64 L30.75,7.64 C30.7919853,7.62471428 30.8380147,7.62471428 30.88,7.64 C30.8962771,7.67486023 30.8962771,7.71513977 30.88,7.75 L31,7.78 Z M30.62,10 L30.62,7.92 L23,7.92 C22.9611775,7.93372583 22.9188225,7.93372583 22.88,7.92 C22.8654495,7.88825455 22.8654495,7.85174545 22.88,7.82 L22.88,0.92 L19.75,0.92 L19.75,10 L30.62,10 Z" id="_Trazado_compuesto_4" fill-rule="nonzero"></path>
                    <path d="M30.62,7.92 L30.62,10 L19.75,10 L19.75,0.88 L22.84,0.88 L22.84,7.78 C22.8254495,7.81174545 22.8254495,7.84825455 22.84,7.88 C22.8788225,7.89372583 22.9211775,7.89372583 22.96,7.88 L30.62,7.92 Z" id="_Trazado_5"></path>
                    <path d="M17.72,10.09 C17.7396496,10.1240341 17.7396496,10.1659659 17.72,10.2 C17.6829524,10.2389834 17.6334153,10.2637519 17.58,10.27 L13.77,10.27 L13.69,10.27 L13.62,10.27 L12.62,8.64 L5.52,8.64 L4.45,10.26 L4.39,10.26 L4.3,10.26 L0.49,10.26 C0.43994679,10.2601133 0.392387326,10.2381628 0.36,10.2 C0.340350393,10.1659659 0.340350393,10.1240341 0.36,10.09 L6.65,0.7 L6.72,0.7 L6.8,0.7 L11.4,0.7 L11.49,0.7 C11.5096773,0.694919334 11.5303227,0.694919334 11.55,0.7 L17.7,10.09 L17.72,10.09 Z M17.24,9.99 L11.24,0.88 L6.88,0.88 L0.78,10 L4.21,10 L5.28,8.37 L5.35,8.37 L5.43,8.37 L12.7,8.37 L12.79,8.37 L12.85,8.37 L13.85,10 L17.24,9.99 Z" id="_Trazado_compuesto_5" fill-rule="nonzero"></path>
                    <path d="M11.3,0.88 L17.3,9.99 L13.87,9.99 L12.87,8.36 L12.81,8.36 L12.72,8.36 L5.42,8.36 L5.34,8.36 L5.27,8.36 L4.21,10 L0.78,10 L6.88,0.89 L11.3,0.88 Z M11.59,6.57 C11.6132223,6.52977786 11.6132223,6.48022214 11.59,6.44 L9.17,2.72 C9.15797444,2.69336038 9.13663962,2.67202556 9.11,2.66 L9.02,2.66 L8.94,2.66 L8.87,2.72 L6.45,6.44 C6.42677774,6.48022214 6.42677774,6.52977786 6.45,6.57 C6.48728314,6.60605913 6.53830908,6.62428268 6.59,6.62 L11.42,6.62 C11.4716909,6.62428268 11.5227169,6.60605913 11.56,6.57 L11.59,6.57 Z" id="_Trazado_compuesto_6" fill-rule="nonzero"></path>
                    <path d="M11.62,6.44 C11.6432223,6.48022214 11.6432223,6.52977786 11.62,6.57 C11.5827169,6.60605913 11.5316909,6.62428268 11.48,6.62 L6.62,6.62 C6.56830908,6.62428268 6.51728314,6.60605913 6.48,6.57 C6.45677774,6.52977786 6.45677774,6.48022214 6.48,6.44 L8.9,2.72 L8.97,2.66 L9.05,2.66 L9.14,2.66 C9.16663962,2.67202556 9.18797444,2.69336038 9.2,2.72 L11.62,6.44 Z M11.16,6.34 L9,3.07 L6.87,6.34 L11.16,6.34 Z" id="_Trazado_compuesto_7" fill-rule="nonzero"></path>
                </g>
            </g>
            <g id="_Grupo_4" transform="translate(35.000000, 16.000000)">
                <g id="_Grupo_5">
                    <path d="M44.4,5.56 L44.4,5.68 C44.5139381,6.47162615 44.2723815,7.2731551 43.74,7.87 C42.9806919,8.29269712 42.1179375,8.49365998 41.25,8.45 L40.78,8.45 L39.38,8.45 L37.85,8.45 C37.34,8.45 36.85,8.45 36.4,8.39 C35.9798817,8.36287475 35.567387,8.26482273 35.18,8.1 C34.8190691,7.92259372 34.5169886,7.64481851 34.31,7.3 C34.0643035,6.85131994 33.9272993,6.35125465 33.91,5.84 C33.91,5.57 33.91,5.3 33.86,5.02 C33.81,4.74 33.86,4.47 33.86,4.2 C33.855051,3.68821759 33.888478,3.1767843 33.96,2.67 C34.0160293,2.25635284 34.1628709,1.86022223 34.39,1.51 C34.6252313,1.1705439 34.9508748,0.903793406 35.33,0.74 C35.8331433,0.536479246 36.3676775,0.421452891 36.91,0.4 C37.3,0.4 37.69,0.4 38.07,0.35 L40.73,0.35 C41.24,0.35 41.73,0.35 42.26,0.44 C42.9689863,0.419745318 43.6264896,0.808800511 43.95,1.44 C44.1896126,2.02760002 44.3151809,2.65544128 44.32,3.29 C44.3284091,3.31600373 44.3284091,3.34399627 44.32,3.37 C44.2911361,3.38167603 44.2588639,3.38167603 44.23,3.37 L41.8,3.37 C41.7741183,3.37915055 41.7458817,3.37915055 41.72,3.37 C41.7099593,3.34427847 41.7099593,3.31572153 41.72,3.29 C41.72,2.97 41.64,2.76 41.47,2.67 C41.2244059,2.56158764 40.9584416,2.50703085 40.69,2.51 L38,2.51 C37.26,2.51 36.8266667,2.64666667 36.7,2.92 C36.5406146,3.40653557 36.476114,3.91914552 36.51,4.43 C36.4899014,4.76303037 36.4899014,5.09696963 36.51,5.43 C36.5241989,5.63452752 36.5932913,5.83144086 36.71,6 C36.8360146,6.14217176 37.0042164,6.24028948 37.19,6.28 C37.5179642,6.35632289 37.8532896,6.39656194 38.19,6.4 L39.19,6.4 L40.45,6.4 C40.6331531,6.41149572 40.8168469,6.41149572 41,6.4 C41.1368659,6.38722991 41.2696293,6.34637962 41.39,6.28 C41.4866443,6.20346081 41.5623306,6.10369258 41.61,5.99 C41.6797808,5.8049693 41.7104262,5.6074766 41.7,5.41 C41.6871657,5.38137265 41.6871657,5.34862735 41.7,5.32 C41.7260037,5.31159089 41.7539963,5.31159089 41.78,5.32 L44.19,5.32 C44.2190431,5.30928415 44.2509569,5.30928415 44.28,5.32 C44.2928343,5.34862735 44.2928343,5.38137265 44.28,5.41 L44.28,5.57 C44.2832353,5.58650966 44.2832353,5.60349034 44.28,5.62" id="_Trazado_6"></path>
                    <path d="M23.83,8.36 C23.8032574,8.3874646 23.7680173,8.40508464 23.73,8.41 L20.05,8.41 L16.46,5.48 L15.37,5.48 L15.37,8.32 C15.3794458,8.34237736 15.3794458,8.36762264 15.37,8.39 C15.3405448,8.39808538 15.3094552,8.39808538 15.28,8.39 L12.79,8.39 C12.7639963,8.39840911 12.7360037,8.39840911 12.71,8.39 C12.7005542,8.36762264 12.7005542,8.34237736 12.71,8.32 L12.71,0.54 C12.6971657,0.511372653 12.6971657,0.478627347 12.71,0.45 C12.7360037,0.441590892 12.7639963,0.441590892 12.79,0.45 L15.25,0.45 C15.2790431,0.439284146 15.3109569,0.439284146 15.34,0.45 C15.351676,0.478863919 15.351676,0.511136081 15.34,0.54 L15.34,3.34 L16.43,3.34 L19.72,0.46 L23.15,0.46 C23.1802662,0.43977753 23.2197338,0.43977753 23.25,0.46 C23.2607159,0.489043087 23.2607159,0.520956913 23.25,0.55 C23.2538381,0.566445702 23.2538381,0.583554298 23.25,0.6 L18.73,4.35 L23.73,8.18 C23.74075,8.20209516 23.74075,8.22790484 23.73,8.25" id="_Trazado_7"></path>
                    <path d="M10.63,2.9 C10.6391506,2.92588167 10.6391506,2.95411833 10.63,2.98 C10.6013727,2.99283427 10.5686273,2.99283427 10.54,2.98 L8.1,2.98 C8.0712984,3.00120353 8.03464899,3.00853341 8,3 C7.99363616,2.97371301 7.99363616,2.94628699 8,2.92 C8.01072389,2.72835979 7.92427718,2.54419073 7.77,2.43 C7.58678612,2.33946075 7.38429907,2.29484496 7.18,2.3 L5.22,2.3 L4.9,2.3 L4.57,2.3 L4.34,2.3 L4.11,2.3 L3.8,2.3 C3.70940178,2.31162815 3.62146408,2.3386859 3.54,2.38 C3.47712438,2.41005133 3.42228596,2.45460755 3.38,2.51 C3.33794937,2.57546164 3.31700614,2.6522535 3.32,2.73 C3.28769904,2.95387577 3.43040312,3.16576971 3.65,3.22 C3.89266447,3.27679494 4.14079617,3.30697312 4.39,3.31 L4.6,3.31 L6.24,3.31 L8.1,3.31 C8.4515901,3.31703342 8.80234151,3.34709783 9.15,3.4 C9.50487124,3.44233404 9.84618411,3.56179354 10.15,3.75 C10.4329249,3.93717337 10.6525578,4.20561351 10.78,4.52 C10.9493021,4.95599449 11.0242826,5.42291892 11,5.89 C11,6.89 10.76,7.54 10.29,7.89 C9.63493279,8.24290582 8.90403334,8.43163573 8.16,8.44 L7.1,8.49 L6.1,8.49 L4.15,8.49 L3.32,8.49 C2.94,8.49 2.59,8.43 2.26,8.38 C1.96231609,8.33896313 1.67633082,8.23682553 1.42,8.08 C1.17120405,7.92575791 0.975737485,7.69887708 0.86,7.43 C0.721821514,7.08375758 0.657119748,6.71257376 0.67,6.34 L0.67,5.87 C0.657165733,5.84137265 0.657165733,5.80862735 0.67,5.78 C0.696099034,5.77221877 0.723900966,5.77221877 0.75,5.78 L3.2,5.78 L3.28,5.78 C3.2869568,5.80281479 3.2869568,5.82718521 3.28,5.85 C3.28281484,5.87659239 3.28281484,5.90340761 3.28,5.93 L3.28,6 C3.28,6.28 3.38666667,6.44666667 3.6,6.5 C3.84249838,6.56066506 4.09034098,6.59750652 4.34,6.61 L6.39,6.61 L7.21,6.61 L7.32,6.61 L7.65,6.61 C7.7433706,6.6024547 7.83472477,6.57877029 7.92,6.54 C7.99568611,6.51296429 8.06175726,6.46428029 8.11,6.4 C8.16470593,6.30269432 8.18908233,6.19125936 8.18,6.08 C8.20469746,5.87187915 8.0791733,5.67522462 7.88,5.61 C7.64689226,5.53837649 7.40380349,5.50461416 7.16,5.51 L4.81,5.51 C4.28333333,5.51 3.75333333,5.51 3.22,5.51 L2.77,5.51 C2.13357135,5.53403899 1.51524656,5.29538732 1.06,4.85 C0.714554538,4.35327663 0.548769316,3.75362795 0.59,3.15 C0.57760948,2.63495788 0.676528311,2.12330876 0.88,1.65 C1.16129604,1.17554566 1.64358254,0.855248518 2.19,0.78 C2.4632325,0.717032258 2.74059977,0.673589192 3.02,0.65 L4.02,0.58 L5.02,0.58 L5.84,0.58 L7.56,0.58 L8,0.58 L8.4,0.58 C8.7757583,0.610389331 9.14573254,0.691110982 9.5,0.82 C9.86708998,0.958227646 10.1746655,1.21984361 10.37,1.56 C10.4334869,1.67392497 10.4838104,1.79470116 10.52,1.92 C10.5570128,2.04086712 10.5837742,2.16463839 10.6,2.29 C10.6,2.41 10.6,2.52 10.6,2.64 C10.6,2.76 10.6,2.87 10.6,2.98 L10.6,3.1 L10.63,2.9 Z" id="_Trazado_8"></path>
                    <path d="M54.6,2.35 C54.7404219,2.38095691 54.8709813,2.44623662 54.98,2.54 C55.0979182,2.64018805 55.1846727,2.77205481 55.23,2.92 C55.2818109,3.08637719 55.3186245,3.25705831 55.34,3.43 C55.34,3.55 55.34,3.68 55.34,3.8 C55.34,3.92 55.34,4.03 55.34,4.13 C55.34,4.23 55.34,4.47 55.34,4.65 C55.34,4.83 55.34,5 55.34,5.18 C55.3381523,5.44687592 55.2766518,5.70996141 55.16,5.95 C55.0586866,6.14285658 54.8971668,6.29735382 54.7,6.39 C54.5020778,6.48288947 54.2882605,6.53719229 54.07,6.55 C53.82,6.55 53.56,6.55 53.28,6.55 L51.37,6.55 L50.7,6.55 C50.3990912,6.54373051 50.1001301,6.50006204 49.81,6.42 C49.598632,6.36137474 49.4124029,6.23487944 49.28,6.06 C49.1574054,5.87875656 49.0849533,5.66830028 49.07,5.45 C49.0559547,5.17351159 49.0559547,4.89648841 49.07,4.62 L49.07,4.3 C49.07,4.15 49.07,3.99 49.07,3.84 C49.07,3.69 49.07,3.53 49.07,3.38 C49.0895826,3.13780301 49.1761414,2.90582536 49.32,2.71 C49.442729,2.55592592 49.6052587,2.43835119 49.79,2.37 C49.9121004,2.32323383 50.0398945,2.29296682 50.17,2.28 L50.57,2.28 L53.74,2.28 L54.09,2.28 C54.2551736,2.2938153 54.4190093,2.32056398 54.58,2.36 L54.6,2.35 Z M49.26,4.64 C49.2448793,4.90645232 49.2448793,5.17354768 49.26,5.44 C49.2740222,5.62136143 49.3324009,5.79649754 49.43,5.95 C49.5348307,6.07633274 49.6736298,6.17002208 49.83,6.22 C50.096059,6.29857558 50.3726387,6.33567773 50.65,6.33 L51.09,6.33 L53.22,6.33 L53.98,6.33 C54.1742426,6.32188521 54.3647907,6.27424818 54.54,6.19 C54.6914376,6.11541454 54.8168897,5.99693199 54.9,5.85 C55.0048195,5.64615577 55.0564173,5.41912531 55.05,5.19 C55.05,5.01 55.05,4.83 55.05,4.66 C55.05,4.49 55.05,4.31 55.05,4.14 L55.05,3.92 C55.05,3.84 55.05,3.76 55.05,3.69 C55.0336667,3.50139202 55.0035867,3.31422797 54.96,3.13 C54.9300869,2.97413386 54.8533379,2.83110162 54.74,2.72 C54.6148509,2.63194493 54.4711629,2.57378549 54.32,2.55 C54.1252796,2.51246363 53.9280979,2.48906918 53.73,2.48 L50.73,2.48 L50.24,2.48 C50.0931927,2.48995855 49.9484784,2.5202476 49.81,2.57 C49.6701668,2.62523669 49.5463994,2.71462426 49.45,2.83 C49.3322058,2.99132608 49.2597008,3.18122008 49.24,3.38 C49.24,3.53 49.24,3.68 49.24,3.82 C49.24,3.96 49.24,4.12 49.24,4.27 L49.26,4.64 Z" id="_Trazado_compuesto_8" fill-rule="nonzero"></path>
                    <path d="M27.68,0.54 L27.68,8.3 C27.6884334,8.32257131 27.6884334,8.34742869 27.68,8.37 C27.6505448,8.37808538 27.6194552,8.37808538 27.59,8.37 L25.1,8.37 C25.0709569,8.38071585 25.0390431,8.38071585 25.01,8.37 C25.0005542,8.34762264 25.0005542,8.32237736 25.01,8.3 L25.01,0.54 C24.9971657,0.511372653 24.9971657,0.478627347 25.01,0.45 C25.0390431,0.439284146 25.0709569,0.439284146 25.1,0.45 L27.56,0.45 C27.5890431,0.439284146 27.6209569,0.439284146 27.65,0.45 C27.661676,0.478863919 27.661676,0.511136081 27.65,0.54" id="_Trazado_9"></path>
                    <path d="M57.86,3.9 L57.86,4.27 C57.8666343,4.8943129 57.8399296,5.51853475 57.78,6.14 C57.745461,6.60679454 57.578997,7.05416654 57.3,7.43 C56.9876888,7.7946128 56.5673826,8.05029912 56.1,8.16 C55.389737,8.33724729 54.6618815,8.4345183 53.93,8.45 L52.08,8.45 L50.47,8.45 L50.04,8.45 L49.62,8.45 C49.2082897,8.42492832 48.7998361,8.3613167 48.4,8.26 C48.0377562,8.17949844 47.6968426,8.02267816 47.4,7.8 C47.1301976,7.58477028 46.9173104,7.30664336 46.78,6.99 C46.6235648,6.60180088 46.5388597,6.18844 46.53,5.77 C46.53,5.53 46.53,5.29 46.53,5.05 C46.53,4.81 46.53,4.58 46.53,4.33 C46.5222858,3.69487577 46.5590423,3.05999059 46.64,2.43 C46.6882402,1.98553005 46.8655297,1.56490188 47.15,1.22 C47.4600814,0.890424561 47.8658399,0.66655777 48.31,0.58 C48.967815,0.444399994 49.6384188,0.380692631 50.31,0.39 L52.05,0.39 L54.05,0.39 C54.6530694,0.379898882 55.255745,0.426773655 55.85,0.53 C56.2666611,0.587826391 56.6621069,0.749443376 57,1 C57.3297648,1.29429648 57.5632393,1.68109744 57.67,2.11 C57.8091479,2.67919628 57.8730262,3.26418701 57.86,3.85 M55.38,4.08 C55.38,3.99 55.38,3.88 55.38,3.75 C55.38,3.62 55.38,3.5 55.38,3.38 C55.3586245,3.20705831 55.3218109,3.03637719 55.27,2.87 C55.2246727,2.72205481 55.1379182,2.59018805 55.02,2.49 C54.9109813,2.39623662 54.7804219,2.33095691 54.64,2.3 C54.4790176,2.26052358 54.3151787,2.23377437 54.15,2.22 L53.8,2.22 L50.59,2.22 L50.19,2.22 C50.0598945,2.23296682 49.9321004,2.26323383 49.81,2.31 C49.6252587,2.37835119 49.462729,2.49592592 49.34,2.65 C49.1966052,2.84607563 49.110097,3.07791774 49.09,3.32 C49.09,3.47 49.09,3.63 49.09,3.78 C49.09,3.93 49.09,4.09 49.09,4.24 L49.09,4.56 C49.0759375,4.83648797 49.0759375,5.11351203 49.09,5.39 C49.1049533,5.60830028 49.1774054,5.81875656 49.3,6 C49.4324029,6.17487944 49.618632,6.30137474 49.83,6.36 C50.1201301,6.44006204 50.4190912,6.48373051 50.72,6.49 L51.39,6.49 L53.31,6.49 C53.59,6.49 53.86,6.49 54.1,6.49 C54.3216587,6.47846091 54.5389887,6.42412841 54.74,6.33 C54.9371668,6.23735382 55.0986866,6.08285658 55.2,5.89 C55.3169739,5.65007581 55.3784917,5.38691614 55.38,5.12 C55.38,4.94 55.38,4.76 55.38,4.59 C55.38,4.42 55.38,4.24 55.38,4.07" id="_Trazado_compuesto_9" fill-rule="nonzero"></path>
                    <path d="M62.52,5.95 L62.52,8.11 C62.5284334,8.13257131 62.5284334,8.15742869 62.52,8.18 C62.490618,8.1886113 62.459382,8.1886113 62.43,8.18 L60,8.18 C59.9739963,8.18840911 59.9460037,8.18840911 59.92,8.18 C59.9105542,8.15762264 59.9105542,8.13237736 59.92,8.11 L59.92,5.95 C59.9071657,5.92137265 59.9071657,5.88862735 59.92,5.86 C59.946099,5.85221877 59.973901,5.85221877 60,5.86 L62.4,5.86 C62.4290431,5.84928415 62.4609569,5.84928415 62.49,5.86 C62.501676,5.88886392 62.501676,5.92113608 62.49,5.95" id="_Trazado_10"></path>
                </g>
            </g>
        </g>
    </g>
</svg>