<?xml version="1.0" encoding="UTF-8"?>
<svg width="116px" height="28px" viewBox="0 0 116 28" version="1.1" xmlns="http://www.w3.org/2000/svg" xmlns:xlink="http://www.w3.org/1999/xlink">
    <!-- Generator: Sketch 60.1 (88133) - https://sketch.com -->
    <title>Logo / Negro</title>
    <desc>Created with Sketch.</desc>
    <g id="Symbols" stroke="none" stroke-width="1" fill="none" fill-rule="evenodd">
        <g id="Logo-/-Negro" fill="#FFFFFF" fill-rule="nonzero">
            <path d="M40.3220808,0 L41,0.609450463 C39.1931378,3.13222817 38.2892455,6.52121133 38.2892455,14.0018274 C38.2892455,21.4824435 39.1931378,24.8668581 41,27.3932907 L40.3220808,28 C37.6768124,25.1875734 36,21.1270069 36,14.0018274 C36,6.87664796 37.6777347,2.81242658 40.3220808,0 Z M111.676997,0 C114.35178,2.81242658 116,6.87299308 116,14.0018274 C116,21.1306618 114.355469,25.1875734 111.676997,28 L111,27.3932907 C112.839144,24.8668581 113.742114,21.4787887 113.742114,14.0018274 C113.742114,6.52486621 112.839144,3.12857329 111,0.609450463 L111.676997,0 Z M48.4260105,4 C50.2959578,4 52,4.97879828 52,7.78540773 L52,12.7055365 C52,15.4796996 50.2950205,16.4909442 48.4260105,16.4909442 L48.4260105,16.4846352 L46.8522554,16.4846352 L46.8522554,25 L44,25 L44,4 L48.4260105,4 Z M58.9270103,4 L58.9270103,22.3790558 L63,22.3790558 L63,24.9927897 L56,25 L56,4 L58.9270103,4 Z M71.0747888,4 L74,25 L71.0438093,25 L70.6495254,20.9306867 L68.1214144,20.9306867 L67.6285595,25 L65,25 L67.9223949,4 L71.0747888,4 Z M79.7436224,4 L82.5542092,14.0890129 L83.3912628,17.2435193 L83.3912628,4 L86,4 L86,25 L83.692602,25 L80.5471939,14.9416309 L79.6441327,11.8204721 L79.6441327,25 L77,25 L77,4 L79.7436224,4 Z M98,4 L98,6.58579399 L93.8588109,6.58579399 L93.8588109,12.9227468 L96.7505033,12.9227468 L96.7505033,15.4148069 L93.8588109,15.4148069 L93.8588109,22.3826609 L98,22.3826609 L98,24.9963948 L91,25 L91,4 L98,4 Z M108,4 L108,6.68042918 L105.441573,6.67772532 L105.441573,25 L102.652641,25 L102.652641,6.67772532 L100,6.67772532 L100,4 L108,4 Z M6.07638527,4 L9,25 L6.04633205,25 L5.65188354,20.9306867 L3.12177815,20.9306867 L2.62965668,25 L0,25 L2.92267557,4 L6.07638527,4 Z M17.121741,4 C18.8627686,4 20.4807462,4.97355153 20.4807462,7.70308494 L20.4807462,12.0997693 C20.5566234,13.2367557 19.9352079,14.301866 18.9238573,14.7682875 C19.9438523,15.2331173 20.5849863,16.2905348 20.5418348,17.4368057 L20.5418348,22.08114 C20.5022153,22.8226293 20.6606566,23.5611329 21,24.2166724 L21,25 L19.3183157,25 C18.3417694,25 17.9455656,23.7438045 17.9455656,22.2381644 L17.9455656,17.2465818 C17.9455656,16.5287558 17.5790335,15.9607759 16.8765136,15.9607759 L15.6861569,15.9607759 L15.6861569,24.9066826 L13,24.9066826 L13,4 L17.121741,4 Z M32,4 L32,6.68042918 L29.4369998,6.67772532 L29.4369998,25 L26.6526412,25 L26.6526412,6.67772532 L24,6.67772532 L24,4 L32,4 Z M69.4995306,9.36266094 L68.4481068,18.3755365 L70.3538125,18.3755365 L69.4995306,9.36266094 Z M4.50234791,9.36266094 L3.4514244,18.3755365 L5.35604717,18.3755365 L4.50234791,9.36266094 Z M48.2619801,6.55695279 L46.8560047,6.55695279 L46.8560047,14.092618 L48.2619801,14.092618 C48.8852958,14.092618 49.1805507,13.6825322 49.1805507,12.8957082 L49.1805507,7.75746781 C49.1805507,6.93729614 48.8862332,6.55695279 48.2619801,6.55695279 Z M16.9655285,6.5455905 L15.6835388,6.5455905 L15.6835388,13.5722099 L16.8433512,13.5722099 C17.4839097,13.5722099 17.8207702,13.1666382 17.8207702,12.286404 L17.8198975,7.73987353 C17.8198975,6.92334644 17.5458711,6.5455905 16.9655285,6.5455905 Z" id="Logo"></path>
        </g>
    </g>
</svg>