<svg xmlns="http://www.w3.org/2000/svg" viewBox="0 0 1456.79 1821.31"><defs><style>.cls-1{fill:#fff;}</style></defs><title>Recurso 1</title><g id="Capa_2" data-name="Capa 2"><g id="Capa_1-2" data-name="Capa 1"><path class="cls-1" d="M612.76,646.13H460.62a19,19,0,0,1,3.3-1.18c25.94-2.22,42.51-16.62,51.41-40.33Q544.91,525.87,574.07,447q6.52-17.54,13-35.09a23.79,23.79,0,0,0,.64-3.39c-2.1-.13-3.86-.33-5.63-.33-16.83,0-33.66-.23-50.49,0-29,.45-51.85,11.88-65.81,38.35-.85,1.61-1.53,3.32-2.22,5a10.88,10.88,0,0,1-3,4.83c.32-1.43.55-2.88,1-4.28,7.33-24.89,14.73-49.76,22-74.68.93-3.21,2.47-4.08,5.69-3.95,34.61,1.44,69.24,2.54,103.83,4.23,6.13.3,8-2.4,9.73-7.22q29.81-80.54,59.86-161,35-93.79,70-187.56c2.55-6.84,5-13.72,8-21.92,1.27,2.64,2.12,4.1,2.71,5.67Q798.9,154.9,854.45,304.17c8.41,22.61,16.88,45.21,25.09,67.9,1.65,4.57,4.21,5.76,8.88,5.55,34.6-1.51,69.22-2.71,103.83-4.16,3.37-.14,5.12.65,6.12,4.09,7.39,25.57,15,51.09,22.46,76.63a2.54,2.54,0,0,1-.35,2.28,30.71,30.71,0,0,1-1.55-2.95c-10.88-26.64-30.42-42.34-59.26-44.29-20.73-1.41-41.61-.8-62.42-1.06a24.42,24.42,0,0,0-3.66.65c2.74,7.61,5.29,14.94,8,22.2q32.35,86.78,64.75,173.54C974.05,625.21,988,639,1009.81,644c3.21.74,6.55.93,9.82,1.91H852.92l-.16-.39a37,37,0,0,1,3.86-.65c34.29-2.2,61.93-37.3,49.4-73.81-11.78-34.29-25-68.09-37.61-102.11-6.88-18.57-13.88-37.1-20.63-55.72-1.42-3.91-3.54-5.23-7.71-5.18-18.83.22-37.66.09-56.5.09-8,0-8,0-8,7.84V630.45q0,165,0,330c0,26.49,15,47.73,39.31,56.21,3.62,1.26,5.52.6,7.77-2.61,24.92-35.57,51.7-69.72,84.7-98.13,23.2-20,47.81-38.36,72.37-56.67C1060,799.46,1137,735.8,1212,669.62c41-36.21,80.11-74.47,111.89-119.36,19.64-27.75,37.67-56.52,48.7-89.09,7.44-22,5.47-43.18-3.8-64.14-8-18-19.67-33.55-31.52-49-14.35-18.77-29.29-37.17-38.69-59.22-9.34-21.88-15.84-44.35-17.81-68.24-1.57-19.05-1.69-38,2.34-56.59,6.51-30,18.71-57.29,43.13-77.43,7.81-6.44,16.82-10,27.35-8.19,14.72,2.53,25.93,13.22,26.58,28.13.52,11.68-1.13,23.5-2.31,35.21-2.31,23.16-6.11,46.24-7.23,69.45-1.94,40.46,9.65,77.41,31.65,111.47,12.63,19.56,25,39.47,35.23,60.32,13.51,27.47,19.64,57,19.3,87.93-.39,35.31-12.9,66.54-32,95.23-20.08,30.23-40.74,60.14-62.6,89.09C1301.54,735.47,1236.13,812,1171,888.63c-31.4,36.93-62.6,74.06-92.85,111.94-35.29,44.21-64,92.47-84.7,145.35-10,25.57-20.49,50.95-30.91,76.35a98.54,98.54,0,0,1-7.4,14.69c-2.2,3.54-2,5.56,1.25,8.34,15.83,13.61,29.34,29.16,37.52,48.63,9.69,23.08,13.16,46.77,4.35,71-6.15,16.87-18.23,29.28-32.38,39.72a173.69,173.69,0,0,1-46.59,24.75c-5.3,1.82-6.56,4.71-6.48,9.91.5,32.32-2.38,64.31-13.58,94.85-8.19,22.33-17.06,44.47-26.89,66.12a858.28,858.28,0,0,0-47.83,133.27c-4.55,17-9.36,34-17.48,49.82-12.36,24.09-31.93,36.76-59,37.9-31.84,1.34-55.12-13.79-73-38.62-16.85-23.46-24.63-50.65-31.18-78.32-3.83-16.18-8-32.3-12.82-48.2-6-19.85-17.23-37.07-29-53.91-18.08-26-26.4-55.18-30.29-86.22-3.12-24.9-3.3-49.83-3.17-74.8,0-5.44-2-7.45-7-8.73-17.81-4.57-35-10.69-50.31-21.3-15.59-10.79-26.71-24.78-32.37-43-11-35.64-1.44-67.48,18.75-96.81,7.59-11,17.62-20.36,26.36-30.61,1.31-1.54,2.77-4.23,2.29-5.83-8.8-29.32-17.56-58.65-31.34-86.19-19.43-38.86-41.68-76.05-68.79-109.93-21.09-26.37-44.39-51-66.7-76.36-37-42.17-74.45-84-111-126.59C202.6,782.34,157.3,728.36,111.8,674.55,79.19,636,48.1,596.27,21.88,552.93,6.53,527.56-1.07,500.27.12,470.66,1.2,443.82,9.75,419,22.67,395.82c13.85-24.87,28.82-49.11,42.62-74,15.21-27.47,25.81-56.53,27.88-88.28,1.48-22.71,1.24-45.31-4.27-67.47-2.68-10.79-6.86-21.2-10.41-31.76-5.19-15.42,1.2-28.14,11.68-37.87,11-10.21,24.85-12.77,39.53-6.31,16.58,7.3,28.28,19.72,37.45,34.79,17.74,29.15,26.29,60.73,23.14,94.88-2,21.91-9.75,42.34-18.53,62.4-16,36.6-36.92,70.46-57.64,104.44C104,403.18,94.89,420.06,90.9,439.32c-4.68,22.63.37,42.59,15.73,59.85,28.47,32,56.32,64.54,85.66,95.69,44.35,47.08,90.7,92.22,141.32,132.6,43.75,34.9,88.53,68.51,132.76,102.79,36.08,28,72.52,55.48,107.88,84.33a533.1,533.1,0,0,1,87.9,90.53c1,1.33,2,2.64,3,4,4.93,6.82,5,7,12.09,2.76,18-10.65,27.58-26.55,28.73-47.38.48-8.64.52-17.32.53-26q0-260.25,0-520.5c0-11.94.15-9.8-10-9.85-22-.11-44,.2-66-.2-5.76-.1-8.15,2-10,7.06-12.2,33.28-24.65,66.47-37,99.69-7.09,19-13.86,38.18-21.35,57-12.11,30.5,6.27,65.16,39.55,72.36a106.15,106.15,0,0,0,10.86,1.26Zm-78.23,611.16c.8-.2.37-.23.18,0-16.42,17.28-31.08,35.76-38.08,59-4.64,15.41-6.11,30.94.29,46.41,8.43,20.35,24.5,32.73,43.54,42,22.09,10.73,45.91,15.53,69.8,20,6.86,1.3,13.76,2.46,20.52,4.17,5.21,1.32,7.59,5.71,6.6,10.73-.86,4.36-4.49,7-9.66,6.8a33,33,0,0,1-5-.57c-10.29-2-20.63-3.7-30.83-6-4.44-1-5.65.09-5.53,4.41.44,15.14-.06,30.35,1.18,45.43a463.47,463.47,0,0,0,6.66,49.37c4.37,22.73,15.52,42.75,27.69,62.13,17.11,27.25,30.77,55.83,37.58,87.6,4.59,21.43,9.27,43,18.89,63,10.1,21,23.75,38.47,46.41,47.19,23.5,9,50.74,3.37,63.21-21.15a272.58,272.58,0,0,0,15.85-39.16c8.07-24.82,13.9-50.43,23-74.87,11.59-31.33,24.79-62.12,38.49-92.6,17.73-39.44,27.52-80.45,28.43-123.64,0-2.71,0-5.42,0-8.82-3.41.78-5.66,1.23-7.87,1.81-10,2.61-19.85,5.62-29.92,7.75-6.4,1.36-10.85-1.87-11.78-7.08-.87-5,2.14-9.09,8.15-10.84,4.63-1.34,9.31-2.49,14-3.7,22.41-5.78,44.72-11.85,65.4-22.64,13.37-7,25.9-15,35.8-26.67,14.39-17,20-36.22,15.29-58.1-5.29-24.82-20.76-43.15-38.77-59.73-.74-.68-3.41-.31-4.4.51-2.94,2.42-5.4,5.42-8.22,8-23.51,21.58-51.17,31.59-82.95,27.85-34.77-4.1-56.89-24.84-69.4-56.47a172.8,172.8,0,0,1-12.21-64.85c0-4.89-1.56-6.87-6.41-7-11-.29-21.95-.93-32.93-1.3-6.23-.21-6.36-.09-6.21,6.32.42,18.67,0,37.28-3.83,55.66-6.57,31.25-23.63,53.31-54.72,63.56a122.19,122.19,0,0,1-52.64,5.43c-18.55-2.08-36-7.4-51.27-18C550.23,1273.25,543.1,1265.15,534.53,1257.29Zm169-75.71c-1.16-14.92-1.94-29.89-3.56-44.77a207.16,207.16,0,0,0-17.68-63.68c-15.64-34.4-38.42-63.79-63.78-91.39-32.37-35.23-69.3-65.36-107.09-94.41-39.63-30.45-80-59.88-119.75-90.22-59.88-45.76-117.74-93.91-171.28-147.05C184,614,148.84,576.92,115.57,538c-12.88-15-26.72-29.31-34.5-48-8-19.36-11.86-39.21-7.12-60,4.5-19.74,13.94-37.39,24.75-54.25,19.62-30.59,38.38-61.69,53.25-94.87,13-29,21.39-59.13,18.1-91.46-3.39-33.34-17.3-60.77-45-80.53-6.6-4.7-12.64-5.09-19.52-1a19.8,19.8,0,0,0-8.77,23.92c.76,2.2,1.64,4.36,2.42,6.56,15.37,43.41,17.49,87.59,6.51,132.19-7.93,32.2-24.07,60.87-40.86,89.1-13.11,22-27,43.63-35.92,67.87-9.16,24.81-13.47,50-7.41,76.33,4.94,21.44,14.89,40.53,27.19,58.51,26.75,39.09,56.43,75.91,87.18,111.89,33.34,39,66.32,78.32,99.82,117.18Q313,881.19,390.94,970.4c28.95,33.15,57.19,66.84,81.78,103.41,14.87,22.14,29.43,44.64,39.58,69.31,11.69,28.44,21.68,57.6,32,86.58,6.34,17.79,17,31.69,34.22,39.75,25.17,11.8,51.21,13.51,77.8,5.22,19-5.93,32.11-17.94,39-37C702,1219.49,702.79,1200.66,703.49,1181.58Zm81.69-8.44c.82,21.62,3.22,42.36,12.48,61.7,18.68,39,59.21,56.12,101.17,33.43,19.79-10.7,33.78-27.25,43.12-47.17,10.24-21.81,18.89-44.37,28-66.68,11.23-27.43,22.41-54.86,36.87-80.8,23.12-41.49,51.12-79.59,81.5-115.93,46.91-56.1,94.78-111.39,141.4-167.73q62.1-75,122.23-151.73c22.91-29.19,44.76-59.29,62.43-92.14,10.9-20.26,19-41.52,22.41-64.25,4.46-29.41-1.19-57.61-14.38-83.84-12.25-24.37-26-48-39.78-71.56-14.59-24.93-24.17-51.4-27.55-80.08-3.56-30.15-1.11-60.13,2.3-90.12,1.71-15,2.81-30.09,3.41-45.17.19-5.06-.66-11-6.49-13.64s-10.25.9-14.81,3.61a30.18,30.18,0,0,0-3.55,2.76,86.09,86.09,0,0,0-21.48,26.68c-15.11,28.31-18.67,58.55-15.22,90.06,3.76,34.38,16.19,65.43,35.86,93.59,10.29,14.73,21.9,28.54,32.27,43.22,11.58,16.39,21.47,33.85,25.75,53.71,6.26,29,1.27,56.77-12.32,82.76-24.61,47.1-56.29,89.21-92.52,128-33,35.35-69.35,67.23-105.94,98.78-69.7,60.08-143.34,115.17-216,171.53-21,16.31-41.61,33.4-60.74,51.86-28.47,27.48-52.25,59.12-74.63,91.71-7.9,11.5-15.8,23.14-22.15,35.51-4.89,9.52-7.55,20.22-10.85,30.51A260,260,0,0,0,785.18,1173.14ZM634.29,378.43h200.5c-33.53-89.79-66.6-178.38-99.68-267l-1.64.22Zm40.31,643c1.06,1.93,1.68,3.23,2.44,4.44,10.79,17.23,20.89,34.77,28,53.94a241.38,241.38,0,0,1,14.19,63c.28,3.22,1.38,4.09,4.59,4.16q19.95.39,39.88,1.43c3.7.19,3.9-1.81,4.38-4.49,2-11,3.45-22.06,6.35-32.78,7.86-29.12,20-56.37,37.41-81.15,1.77-2.51,3.21-5.26,5.21-8.59Z"/></g></g></svg>