<?xml version="1.0" encoding="UTF-8"?>
<svg width="99px" height="38px" viewBox="0 0 99 38" version="1.1" xmlns="http://www.w3.org/2000/svg" xmlns:xlink="http://www.w3.org/1999/xlink">
    <!-- Generator: Sketch 52.5 (67469) - http://www.bohemiancoding.com/sketch -->
    <title>Bodas Castellar</title>
    <desc>Created with Sketch.</desc>
    <g id="Page-1" stroke="none" stroke-width="1" fill="none" fill-rule="evenodd">
        <g id="Artboard" transform="translate(-11.000000, -17.000000)" fill="#FFFFFF">
            <g id="Bodas-Castellar" transform="translate(10.000000, 17.000000)">
                <polygon id="Path" points="57.5 22.49 57.51 22.49 86.61 22.49 86.63 22.5 97.42 26.55 97.42 27.09 97 27.09 97 27.5 37.12 27.5 36.97 27.5 36.97 27.27 36.43 27.27 36.43 26.93 47.58 22.52 52.99 22.52 52.99 23.5 53.38 23.5 57.51 23.5"></polygon>
                <polygon id="Path" points="20.27 30.48 4 30.49 3.64 30.12 12.17 26.59 20.69 30.08"></polygon>
                <path d="M42.21,30.36 L42.21,28.56 L41.47,28.56 L41.47,30.33 L42.21,30.33 L42.21,30.36 Z M43.09,30.33 L43.09,28.53 L42.35,28.53 L42.35,30.3 L43.09,30.3 L43.09,30.33 Z M41.21,32.15 L41.21,31.88 L43.21,31.88 L43.21,32.15 L41.21,32.15 Z M40.98,32.41 L40.98,28.29 L43.45,28.29 L43.45,32.43 L40.98,32.41 Z" id="Shape"></path>
                <path d="M42.24,35.89 L42.24,33.5 L41.5,33.5 L41.5,35.9 L42.24,35.89 Z M43.12,34.89 L43.12,33.5 L42.38,33.5 L42.38,35.9 L43.12,35.9 L43.12,34.89 Z M41.02,36.74 L41.02,33.12 L43.49,33.12 L43.49,36.74 L41.02,36.74 Z" id="Shape"></path>
                <path d="M55.78,35.9 L55.78,33.5 L55,33.5 L55,35.9 L55.78,35.9 Z M56.66,34.9 L56.66,33.51 L55.92,33.51 L55.92,35.91 L56.66,35.91 L56.66,34.9 Z M54.56,36.75 L54.56,33.12 L57,33.12 L57,36.74 L54.56,36.75 Z" id="Shape"></path>
                <path d="M68.22,35.88 L68.22,33.48 L67.48,33.48 L67.48,35.88 L68.22,35.88 Z M69.1,34.88 L69.1,33.48 L68.36,33.48 L68.36,35.88 L69.1,35.88 L69.1,34.88 Z M67,36.72 L67,33.1 L69.47,33.1 L69.47,36.72 L67,36.72 Z" id="Shape"></path>
                <path d="M80.66,35.88 L80.66,33.48 L79.92,33.48 L79.92,35.88 L80.66,35.88 Z M81.54,34.88 L81.54,33.48 L80.8,33.48 L80.8,35.88 L81.54,35.88 L81.54,34.88 Z M79.44,36.72 L79.44,33.1 L81.91,33.1 L81.91,36.72 L79.44,36.72 Z" id="Shape"></path>
                <path d="M47.11,35.88 L47.11,33.49 L46.37,33.49 L46.37,35.89 L47.11,35.88 Z M47.99,34.88 L47.99,33.49 L47.25,33.49 L47.25,35.89 L48,35.89 L47.99,34.88 Z M45.9,36.73 L45.9,33.11 L48.37,33.11 L48.37,36.73 L45.9,36.73 Z" id="Shape"></path>
                <path d="M59.48,35.88 L59.48,33.49 L58.74,33.49 L58.74,35.89 L59.48,35.88 Z M60.36,34.88 L60.36,33.49 L59.62,33.49 L59.62,35.89 L60.36,35.89 L60.36,34.88 Z M58.26,36.73 L58.26,33.11 L60.73,33.11 L60.73,36.73 L58.26,36.73 Z" id="Shape"></path>
                <path d="M72,35.88 L72,33.48 L71.26,33.48 L71.26,35.88 L72,35.88 Z M72.88,34.88 L72.88,33.49 L72.1,33.49 L72.1,35.89 L72.84,35.89 L72.88,34.88 Z M70.74,36.73 L70.74,33.1 L73.21,33.1 L73.21,36.72 L70.74,36.73 Z" id="Shape"></path>
                <path d="M84.42,35.88 L84.42,33.48 L83.68,33.48 L83.68,35.88 L84.42,35.88 Z M85.3,34.88 L85.3,33.48 L84.56,33.48 L84.56,35.88 L85.3,35.88 L85.3,34.88 Z M83.2,36.72 L83.2,33.1 L85.67,33.1 L85.67,36.72 L83.2,36.72 Z" id="Shape"></path>
                <path d="M91.69,35.89 L91.69,33.5 L91,33.5 L91,35.9 L91.69,35.89 Z M92.57,33.5 L91.83,33.5 L91.83,35.9 L92.57,35.9 L92.57,33.5 Z M90.47,36.74 L90.47,33.12 L92.94,33.12 L92.94,36.74 L90.47,36.74 Z" id="Shape"></path>
                <path d="M47.08,30.35 L47.08,28.55 L46.34,28.55 L46.34,30.32 L47.08,30.32 L47.08,30.35 Z M47.96,30.32 L47.96,28.52 L47.22,28.52 L47.22,30.29 L48,30.29 L47.96,30.32 Z M46.12,32.14 L46.12,31.9 L48.12,31.9 L48.12,32.17 L46.12,32.14 Z M45.89,32.4 L45.89,28.28 L48.36,28.28 L48.36,32.42 L45.89,32.4 Z" id="Shape"></path>
                <path d="M55.75,30.35 L55.75,28.55 L55,28.55 L55,30.32 L55.74,30.32 L55.75,30.35 Z M56.62,30.32 L56.62,28.52 L55.88,28.52 L55.88,30.29 L56.62,30.29 L56.62,30.32 Z M54.74,32.14 L54.74,31.9 L56.74,31.9 L56.74,32.17 L54.74,32.14 Z M54.51,32.4 L54.51,28.28 L57,28.28 L57,32.42 L54.51,32.4 Z" id="Shape"></path>
                <path d="M68.2,30.37 L68.2,28.57 L67.46,28.57 L67.46,30.34 L68.2,30.34 L68.2,30.37 Z M69.08,30.34 L69.08,28.54 L68.34,28.54 L68.34,30.31 L69.08,30.31 L69.08,30.34 Z M67.2,32.16 L67.2,31.89 L69.2,31.89 L69.2,32.16 L67.2,32.16 Z M66.97,32.42 L66.97,28.3 L69.44,28.3 L69.44,32.44 L66.97,32.42 Z" id="Shape"></path>
                <path d="M80.66,30.4 L80.66,28.6 L79.92,28.6 L79.92,30.37 L80.66,30.37 L80.66,30.4 Z M81.54,30.37 L81.54,28.57 L80.8,28.57 L80.8,30.34 L81.54,30.34 L81.54,30.37 Z M79.66,32.19 L79.66,31.92 L81.66,31.92 L81.66,32.19 L79.66,32.19 Z M79.43,32.45 L79.43,28.32 L81.9,28.32 L81.9,32.46 L79.43,32.45 Z" id="Shape"></path>
                <path d="M59.49,30.35 L59.49,28.55 L58.75,28.55 L58.75,30.32 L59.49,30.32 L59.49,30.35 Z M60.37,30.32 L60.37,28.52 L59.63,28.52 L59.63,30.29 L60.37,30.29 L60.37,30.32 Z M58.49,32.14 L58.49,31.87 L60.49,31.87 L60.49,32.14 L58.49,32.14 Z M58.26,32.4 L58.26,28.27 L60.73,28.27 L60.73,32.41 L58.26,32.4 Z" id="Shape"></path>
                <path d="M71.94,30.37 L71.94,28.57 L71.2,28.57 L71.2,30.34 L71.94,30.34 L71.94,30.37 Z M72.82,30.34 L72.82,28.54 L72.08,28.54 L72.08,30.31 L72.82,30.31 L72.82,30.34 Z M70.94,32.16 L70.94,31.89 L72.94,31.89 L72.94,32.16 L70.94,32.16 Z M70.71,32.42 L70.71,28.3 L73.18,28.3 L73.18,32.44 L70.71,32.42 Z" id="Shape"></path>
                <path d="M84.39,30.39 L84.39,28.59 L83.65,28.59 L83.65,30.36 L84.39,30.36 L84.39,30.39 Z M85.27,30.36 L85.27,28.56 L84.53,28.56 L84.53,30.33 L85.27,30.33 L85.27,30.36 Z M83.4,32.21 L83.4,31.94 L85.4,31.94 L85.4,32.21 L83.4,32.21 Z M83.17,32.47 L83.17,28.32 L85.64,28.32 L85.64,32.46 L83.17,32.47 Z" id="Shape"></path>
                <path d="M91.68,30.35 L91.68,28.55 L90.94,28.55 L90.94,30.32 L91.68,30.32 L91.68,30.35 Z M92.56,30.32 L92.56,28.52 L91.82,28.52 L91.82,30.29 L92.56,30.29 L92.56,30.32 Z M90.68,32.14 L90.68,31.9 L92.68,31.9 L92.68,32.17 L90.68,32.14 Z M90.45,32.4 L90.45,28.28 L92.92,28.28 L92.92,32.42 L90.45,32.4 Z" id="Shape"></path>
                <rect id="Rectangle" x="96.72" y="37.64" width="1" height="1"></rect>
                <path d="M54.26,36.37 C53.97,36.37 54.16,36.19 54.13,36.1 C54.1,36.01 54.05,36 54,36 C53.8,36 53.91,35.88 53.89,35.86 C53.71,35.71 53.78,36.11 53.67,36.08 C53.56,36.05 53.57,36.08 53.53,36.21 C53.49,36.34 53.37,36.14 53.16,36.3 C52.95,36.46 52.82,36.21 52.92,36.14 C53.02,36.07 52.66,35.96 52.92,35.81 C53.18,35.66 52.98,35.31 52.81,35.58 C52.74,35.69 52.89,36.11 52.66,35.96 C52.66,35.96 52.58,35.96 52.58,36.04 C52.58,36.12 52.73,36.22 52.58,36.29 C52.43,36.36 52.42,36.29 52.37,36.29 C52.32,36.29 52.37,36.07 52.29,36.15 C52.21,36.23 52.06,36.15 52.13,35.98 C52.2,35.81 51.99,35.77 51.99,35.84 C51.99,36.1 51.85,36.04 51.84,35.99 C51.83,35.94 51.78,36.12 51.64,36.12 C51.31,36.12 51.54,35.76 51.64,35.72 C51.74,35.68 51.72,35.54 51.71,35.51 C51.51,35.44 51.59,35.71 51.3,35.83 C51.21,35.83 51.22,35.73 51.21,35.65 C51.2,35.57 51.21,35.34 51.21,35.17 C51.21,35 51.34,34.52 51.21,34.44 C51.08,34.36 51,34.72 51.01,34.78 C50.9920388,35.1973693 50.9076461,35.6092055 50.76,36 C50.63,36.3 50.07,35.84 50.07,36.14 C50.0809447,36.2260439 50.0425525,36.3109274 49.9707095,36.3595271 C49.8988665,36.4081268 49.8057925,36.4121763 49.73,36.37 C49.59,36.31 49.73,36.1 49.6,36.08 C49.28,36.03 49.3,36.22 49.11,36.18 C48.92,36.14 49.11,36.02 49.05,36.02 C48.79,36.02 48.83,35.87 48.93,35.83 C49.31,35.66 49.05,35.44 49.01,35.45 C48.7,35.45 48.94,35.75 48.74,35.78 C48.54,35.81 48.55,36 48.74,36.08 C48.799899,36.1108712 48.8375379,36.1726137 48.8375379,36.24 C48.8375379,36.3073863 48.799899,36.3691288 48.74,36.4 C48.37,36.46 48.74,36.18 48.54,36.17 C48.34,36.16 48.47,36 48.37,35.98 C48.27,35.96 48.28,36.33 48.09,36.22 C47.9,36.11 48.02,36.67 47.79,36.6 C47.72,36.6 47.66,36.6 47.68,36.6 C47.7,36.6 47.68,36.42 47.6,36.46 C47.52,36.5 47.41,36.46 47.42,36.46 C47.43,36.46 47.53,36.39 47.5,36.3 C47.47,36.21 47.4,36.38 47.23,36.3 C47.06,36.22 47.29,36.06 47.14,36.1 C46.99,36.14 47.14,36.31 47.14,36.33 C47.25,36.59 46.88,36.51 46.8,36.51 C46.42,36.51 46.52,36.26 46.58,36.23 C46.64,36.2 46.66,36.07 46.7,35.93 C46.82,35.52 46.5,35.57 46.5,35.77 C46.4959636,35.8432778 46.4959636,35.9167222 46.5,35.99 C46.5,36.33 46.29,36.14 46.23,36.23 C46.17,36.32 46.4,36.52 45.88,36.52 C45.67,36.52 45.75,36.28 45.63,36.23 C45.35,36.11 45.55,36.41 45.14,36.46 C45,36.46 44.89,36.46 44.89,36.31 C44.89,36.16 44.76,36.17 44.75,36.19 C44.54,36.54 44.63,36.43 44.28,36.43 C44.1,36.43 44.01,35.87 44.2,35.84 C44.39,35.81 44.2,35.59 44.2,35.58 C43.9,35.39 44.07,35.72 43.96,35.71 C43.85,35.7 43.96,35.81 43.96,35.89 C43.96,36.27 43.75,36.04 43.75,36.19 C43.75,36.34 43.75,36.38 43.75,36.45 C43.75,36.52 43.54,36.45 43.58,36.38 C43.7,36.09 43.43,36.03 43.44,36.17 C43.44,36.49 43.26,36.33 43.28,36.26 C43.3,36.19 43.16,35.97 43.07,36.18 C42.98,36.39 43.16,36.51 42.99,36.55 C42.82,36.59 42.83,36.55 42.8,36.47 C42.77,36.39 42.8,36.09 42.8,36.09 C42.8,36.09 42.92,35.71 42.8,35.6 C42.68,35.49 42.66,35.75 42.65,35.76 C42.64,35.77 42.65,35.76 42.57,35.76 C42.49,35.76 42.47,35.98 42.57,36.12 C42.68,36.44 42.5,36.43 42.46,36.33 C42.42,36.23 42.17,36.27 42.2,36.41 C42.23,36.55 42.2,36.41 42.04,36.58 C42.04,36.58 42.04,36.58 42.04,36.58 C42.04,36.58 41.77,36.58 41.77,36.49 C41.77,36.4 41.56,36.57 41.6,36.37 C41.64,36.17 41.51,36.21 41.4,36.23 C41.29,36.25 41.4,36.34 41.4,36.36 C41.4,36.38 41.49,36.6 41.28,36.56 C41.07,36.52 40.72,36.62 40.77,36.49 C40.82,36.36 40.64,36.27 40.61,36.31 C40.58,36.35 40.39,36.31 40.46,36.31 C40.53,36.31 40.4,36.2 40.38,36.21 C40.36,36.22 40.22,36.05 40.31,36.03 C40.4,36.01 40.23,35.89 40.37,35.85 C40.51,35.81 40.48,35.79 40.51,35.76 C40.54,35.73 40.37,35.51 40.27,35.51 C40.17,35.51 40.19,35.62 40.19,35.65 C40.19,36.06 40.1,35.83 39.99,35.88 C39.88,35.93 39.99,36.16 39.99,36.28 C39.99,36.4 39.99,36.53 39.8,36.49 C39.61,36.45 39.8,36.25 39.68,36.24 C39.56,36.23 39.51,36.11 39.52,36.1 C39.53,36.09 39.52,35.98 39.52,35.9 C39.52,35.82 39.36,36.1 39.32,36.15 C39.28,36.2 39.32,36.28 39.23,36.31 C39.14,36.34 39.02,36.11 39.02,36.11 C39.02,36.11 39.02,35.87 39.1,35.85 C39.37,35.85 38.95,35.55 38.95,35.55 C38.95,35.55 38.86,35.68 38.86,35.69 C38.86,35.7 38.95,36.17 38.86,36.21 C38.77,36.25 38.63,36.07 38.65,36.27 C38.67,36.47 38.46,36.35 38.38,36.35 C38.3,36.35 37.89,36.45 37.79,36.35 C37.69,36.25 37.79,36.35 37.79,36.35 C37.79,36.35 37.79,36.54 37.79,36.68 C37.79,36.82 37.79,36.81 37.79,36.84 C37.79,36.87 38.07,36.69 38.1,37.03 C38.0993567,37.1086199 38.1472029,37.1795151 38.220354,37.2083322 C38.2935051,37.2371493 38.3768489,37.217935 38.43,37.16 C38.32,37.01 38.66,37.02 38.62,36.97 C38.58,36.92 38.7,36.76 38.7,36.76 C38.7134377,36.7731662 38.7210102,36.7911872 38.7210102,36.81 C38.7210102,36.8288128 38.7134377,36.8468338 38.7,36.86 C38.6,37.09 38.94,37 38.95,37.09 C38.95,37.36 39.24,37.09 39.21,37.09 C39.1,36.82 39.46,36.86 39.45,37 C39.44,37.14 39.69,37.09 39.69,37.09 C39.69,37.09 40.1,37.09 40.12,37.02 C40.14,36.95 40.03,36.74 40.21,36.78 C40.3090144,36.8090683 40.3696577,36.9086965 40.35,37.01 C40.2,37.33 40.51,37.2 40.5,37.15 C40.49,37.1 40.66,37.05 40.76,37.07 C41.02,37.12 41.01,37.07 41.2,37.07 C41.39,37.07 41.2,36.82 41.37,36.83 C41.54,36.84 41.45,37.05 41.59,37.05 C41.73,37.05 41.59,36.91 41.72,36.91 C42.01,36.91 41.78,36.82 41.84,36.77 C41.9,36.72 42.12,36.83 42.09,36.71 C41.97,36.85 42.23,36.87 42.24,36.86 C42.25,36.85 42.48,36.8 42.44,36.86 C42.4166403,36.9357052 42.4401711,37.018063 42.5,37.07 C42.74,37.07 42.6,36.82 42.68,36.81 C42.76,36.8 42.9,36.99 42.94,37.02 C42.98,37.05 43.16,36.89 43.17,36.88 C43.39,36.57 43.43,37.37 43.64,37.01 C43.7,36.91 43.75,36.91 43.78,36.89 C43.81,36.87 44.16,36.89 44.14,37 C44.12,37.11 44.41,37.18 44.43,37.11 C44.52,36.84 44.43,36.93 44.7,36.92 C44.97,36.91 45.14,36.92 45.36,36.92 C45.88,36.92 45.59,36.78 45.71,36.63 C45.7664776,36.5883252 45.8435224,36.5883252 45.9,36.63 C46.01,36.7 45.9,36.78 45.98,36.82 C46.17,37.04 46.18,36.62 46.24,36.82 C46.3,37.02 46.55,37.07 46.55,36.91 C46.55,36.55 46.76,36.71 46.76,36.82 C46.76,36.93 46.83,37.15 47,37.02 C47.17,36.89 46.95,36.79 47.27,36.77 C47.59,36.75 47.45,36.91 47.56,36.84 C47.67,36.77 48.01,36.76 47.91,36.93 C47.81,37.1 47.96,37.09 47.99,37.08 C48.02,37.07 48.14,37.01 48.14,36.93 C48.14,36.85 48.37,36.93 48.39,36.93 C48.41,36.93 48.61,36.93 48.61,36.93 C48.61,36.93 48.84,37 48.87,37 C48.9,37 48.93,36.95 48.92,36.93 C48.9038047,36.8914694 48.9071227,36.8475019 48.9289172,36.8118383 C48.9507116,36.7761746 48.9883241,36.7531648 49.03,36.75 C49.19,36.84 49.03,37.11 49.03,37.13 C49.03,37.15 49.37,37.33 49.4,37.29 C49.53,37.03 49.2,36.97 49.48,36.95 C49.54,36.95 49.48,36.69 49.68,36.69 C49.88,36.69 49.94,36.62 49.91,36.69 C49.77,37.05 50.32,36.94 50.24,36.83 C50.16,36.72 50.29,36.61 50.38,36.83 C50.47,37.05 50.63,36.89 50.61,36.83 C50.59,36.77 50.75,36.54 50.79,36.83 C50.83,37.12 50.96,36.91 50.97,36.83 C50.98,36.75 50.97,36.64 51.1,36.64 C51.46,36.64 51.1,36.91 51.5,36.92 C51.9,36.93 51.62,36.78 51.67,36.69 C51.72,36.6 51.99,36.87 52,36.88 C52.01,36.89 52,36.61 52.24,36.65 C52.48,36.69 52.24,36.9 52.52,36.91 C52.8,36.92 52.74,36.91 52.8,36.77 C52.86,36.63 53.06,36.77 53.02,36.9 C52.98,37.03 53.26,36.99 53.27,36.9 C53.27,36.58 53.61,36.9 53.65,36.9 C54.04,36.9 53.88,36.68 54.33,36.9 C54.56,37 54.59,36.79 54.61,36.62 C54.63,36.45 54.41,36.36 54.26,36.37 Z" id="Path"></path>
                <path d="M61.77,36.43 C61.77,36.43 62.06,36.28 61.7,36.3 C61.34,36.32 61.85,35.76 61.95,36.13 C61.95,36.24 62.27,36.01 62.19,36.27 C62.11,36.53 62.36,36.34 62.45,36.35 C62.5007351,36.3519144 62.5461894,36.3188568 62.56,36.27 C62.65,36.27 62.38,36.16 62.56,36.09 C62.5962782,36.0824517 62.6337218,36.0824517 62.67,36.09 C62.67,36.09 62.91,36.19 62.83,35.91 C62.75,35.63 63.32,35.43 63.24,35.7 C63.2163147,35.7868759 63.182763,35.8707552 63.14,35.95 C63.01,36.25 63.26,36.57 63.46,36.25 C63.46,36.25 63.46,35.85 63.65,36.1 C63.72,36.19 63.65,36.17 63.83,36.1 C64.01,36.03 63.98,35.94 63.97,36.1 C63.97,36.1 64.2,36.28 64.22,35.99 C64.24,35.7 64.5,36.24 64.41,35.57 C64.41,35.32 64.7,35.3 64.88,35.57 C64.88,35.57 64.99,35.68 64.83,35.71 C64.67,35.74 64.66,35.71 64.62,35.95 C64.58,36.19 64.62,36.35 64.87,36.35 C65.12,36.35 65.11,36.35 65.21,36.16 C65.31,35.97 65.43,36.16 65.45,36.32 C65.47,36.48 65.65,36.32 65.78,36.32 C65.91,36.32 65.9,35.94 66.14,36.12 C66.38,36.3 66.14,36.31 66.38,36.35 C66.86,36.42 66.5,36.18 66.79,36.16 C66.91,36.16 66.69,36.02 66.91,36 C66.91,36 66.91,35.86 66.97,35.83 C67.03,35.8 67.15,35.3 67.15,35.6 C67.15,35.9 67.01,35.8 67.05,36.07 C67.09,36.34 66.97,36.42 67.32,36.44 C67.38,36.44 67.74,36.39 67.56,36.24 C67.56,36.24 67.26,36.08 67.51,36.05 C67.6,36.05 67.58,36.15 67.73,36.05 C67.88,35.95 67.83,36.22 67.9,36.22 C68.14,36.22 68.03,36.32 68.02,36.35 C68.01,36.38 68.32,36.55 68.38,36.48 C68.44,36.41 68.52,36.27 68.58,36.33 C68.64,36.39 68.74,36.14 68.78,36.13 C69.01,36.08 68.85,36.33 69.06,36.29 C69.27,36.25 69.06,36.39 69.22,36.54 C69.22,36.54 69.11,36.62 69.15,36.64 C69.19,36.66 69.37,36.76 69.3,36.86 C69.23,36.96 68.89,36.74 68.82,36.86 C68.75,36.98 68.69,36.92 68.67,36.86 C68.6543387,36.8241008 68.6191613,36.8006492 68.58,36.8 C68.58,36.8 68.5,36.89 68.5,36.93 C68.5,36.97 68.04,37.18 68.23,36.83 C68.3,36.7 67.79,36.78 67.68,36.74 C67.57,36.7 67.51,36.92 67.47,36.79 C67.43,36.66 67.3,37.09 67.26,37.09 C66.89,37.03 67.35,36.7 67,36.69 C66.84,36.69 67,36.98 66.87,36.94 C66.74,36.9 66.64,36.94 66.65,36.84 C66.66,36.74 66.5,36.84 66.49,36.84 C66.06,36.84 66.49,36.75 66.21,36.56 C66.15,36.56 66.05,36.56 66.08,36.71 C66.11,36.86 65.7,36.84 65.55,36.84 C65.4,36.84 65.04,36.84 65.04,36.91 C65.04,36.98 64.82,36.74 64.84,36.91 C64.86,37.08 64.84,37.12 64.6,37.12 C64.36,37.12 64.6,36.71 64.34,36.77 C64.25,36.77 64.14,36.84 64.06,36.77 C63.98,36.7 64.06,36.95 63.87,36.98 C63.68,37.01 63.72,36.98 63.72,36.76 C63.72,36.54 63.31,36.68 63.47,36.89 C63.63,37.1 63.08,37.03 63.2,36.78 C63.32,36.53 62.87,36.7 63.01,36.78 C63.15,36.86 63.01,36.95 62.88,36.92 C62.75,36.89 62.74,36.98 62.73,36.78 C62.73,36.78 62.85,36.6 62.58,36.78 C62.31,36.96 62.65,36.48 62.32,36.57 C62.27,36.57 62.4,36.63 62.2,36.68 C62.2,36.73 62.2,36.68 62.14,36.81 C62.08,36.94 62.19,36.87 62.08,36.89 C61.97,36.91 61.79,36.96 61.8,36.89 C61.8,36.56 61.57,36.79 61.7,36.55 C61.83,36.31 61.63,36.55 61.76,36.45" id="Path"></path>
                <path d="M61.42,36.41 C61.13,36.41 61.31,36.2 61.16,36.17 C61.01,36.14 60.9,36.32 60.91,36.17 C60.92,36.02 60.7,36.17 60.67,36.05 C60.55,35.7 61,35.75 60.94,35.68 C60.8973934,35.6006821 60.8638489,35.516821 60.84,35.43 C60.57,35.14 60.64,35.74 60.52,35.7 C60.15,35.59 60.52,35.93 60.44,36.11 C60.36,36.29 60.13,36.35 60.16,36.21 C60.19,36.07 60.08,36.21 60.07,36 C60.06,35.79 60.07,35.92 60.07,35.91 C60.07,35.9 59.89,35.91 59.9,35.82 C59.91,35.73 59.68,35.73 59.69,35.82 C59.7,35.91 59.57,36.09 59.44,36 C59.31,35.91 59.44,35.68 59.44,35.67 C59.7,35.6 59.49,35.51 59.44,35.51 C59.21,35.51 59.38,35.37 59.24,35.35 C59.1,35.33 59.24,35.74 59.24,35.82 C59.24,35.9 59.11,35.91 58.97,35.95 C58.83,35.99 58.87,36.34 58.65,36.15 C58.43,35.96 58.08,36.05 58.05,36.15 C58.0353724,36.2224448 57.9837398,36.2818671 57.9140464,36.3064648 C57.844353,36.3310625 57.7668601,36.3172138 57.71,36.27 C57.71,36 57.46,36.27 57.44,36.07 C57.44,35.57 57.78,35.82 57.79,35.61 C57.8,35.4 57.42,35.43 57.5,35.4 C57.4907878,35.3707072 57.4907878,35.3392928 57.5,35.31 C57.5,35.19 57.5,34.99 57.62,34.96 C57.74,34.93 57.74,34.79 57.74,34.79 C57.74,34.79 57.58,34.69 57.59,34.64 C57.6261757,34.6274107 57.6504196,34.5933037 57.6504196,34.555 C57.6504196,34.5166963 57.6261757,34.4825893 57.59,34.47 C57.41,34.47 57.59,34.31 57.44,34.24 C57.29,34.17 57.33,34.51 57.32,34.62 C57.31,34.73 57.14,34.79 57.1,34.82 C56.84,34.99 57.31,34.97 57.32,35.05 C57.33,35.13 57.06,35.2 57.02,35.23 C56.98,35.26 57.08,35.5 57.17,35.51 C57.26,35.52 57.31,35.89 57.17,35.95 C57.03,36.01 56.91,35.9 57.02,36.09 C57.13,36.28 56.75,36.26 56.79,36.09 C56.83,35.92 56.59,35.86 56.59,36 C56.5970148,36.1098882 56.5970148,36.2201118 56.59,36.33 C56.59,36.41 56.42,36.47 56.34,36.46 C56.1,36.46 56.34,36.22 56.09,36.14 C55.84,36.06 55.59,36.14 55.6,36.33 C55.61,36.52 55.34,36.52 55.37,36.33 C55.46,35.81 55.14,35.95 55.18,36.15 C55.27,36.51 54.92,36.42 54.97,36.32 C55.19,35.92 54.65,36.06 54.72,36.26 C54.79,36.46 54.52,36.37 54.43,36.47 C54.49,36.57 54.5,36.53 54.54,36.57 C54.58,36.61 54.47,36.57 54.68,36.76 C54.89,36.95 54.86,36.63 54.89,36.85 C54.92,37.07 55.13,36.91 55.17,36.85 C55.21,36.79 55.17,36.76 55.1,36.69 C55.03,36.62 55.43,36.52 55.33,36.87 C55.23,37.22 55.53,37.01 55.65,36.99 C55.77,36.97 55.55,36.82 55.58,36.74 L55.96,36.74 C55.96,36.74 56.2,36.68 56.21,36.74 C56.37,37.04 56.21,36.99 56.47,36.99 C56.73,36.99 56.47,36.89 56.47,36.77 C56.47,36.65 56.69,36.67 56.66,36.77 C56.57,37.14 56.82,37.03 57.04,37.03 C57.26,37.03 57.04,36.75 57.11,36.67 C57.18,36.59 57.38,36.67 57.35,36.67 C57.32,36.67 57.21,36.76 57.57,36.8 C57.73,36.8 57.83,36.8 57.95,36.8 C58.23,36.8 58.11,36.64 58.12,36.64 C58.31,36.64 58.4,36.39 58.44,36.74 C58.48,37.09 58.51,36.91 58.6,36.95 C58.69,36.99 58.87,36.89 58.84,36.85 C58.81,36.81 58.98,36.85 58.96,36.68 C58.94,36.51 58.96,36.59 59.04,36.55 C59.12,36.51 59.09,36.79 59.2,36.75 C59.47,36.65 59.3,36.86 59.32,36.9 C59.34,36.94 59.43,36.9 59.46,36.9 C59.49,36.9 59.46,36.66 59.59,36.72 C59.72,36.78 59.81,36.63 59.79,36.72 C59.77,36.81 60.09,36.9 60.19,36.88 C60.29,36.86 60.46,36.88 60.46,36.82 C60.46,36.48 60.71,36.62 60.73,36.82 C60.75,37.02 60.91,36.93 60.9,36.89 C60.89,36.85 61.27,36.81 61.34,36.81 C61.59,36.81 61.65,36.89 61.63,36.71 C61.61,36.53 61.81,36.71 61.87,36.51 C61.93,36.31 61.51,36.41 61.42,36.41 Z" id="Path"></path>
                <path d="M96.71,36.38 C96.7512726,36.2907877 96.7215984,36.1848084 96.64,36.13 C96.55,36.13 96.53,36.13 96.5,36.2 C96.47,36.27 96.37,36.2 96.34,36.2 C96.31,36.2 96.13,36.26 96.1,36.27 C95.91,36.34 96.02,36.2 95.97,36.21 C95.92,36.22 95.9,36.21 95.83,36.3 C95.76,36.39 95.74,36.3 95.71,36.3 C95.68,36.3 95.57,36.36 95.54,36.38 C95.51,36.4 95.42,36.29 95.45,36.24 C95.48,36.19 95.18,36.24 95.26,36.14 C95.34,36.04 95.14,36.06 95.16,35.89 C95.18,35.72 94.99,35.75 94.98,35.79 C94.97,35.83 94.82,35.96 94.82,36.03 C94.82,36.32 94.7,36.13 94.62,36.23 C94.5498818,36.3106498 94.446759,36.3548453 94.34,36.35 C93.91,36.35 94.21,36.01 94.2,36 C94.19,35.99 93.96,35.87 94.1,35.77 C94.24,35.67 94.16,35.38 93.95,35.49 C93.74,35.6 93.95,35.9 93.88,35.94 C93.62,36.11 93.88,36.05 93.75,36.17 C93.62,36.29 93.35,36.33 93.49,36.01 C93.49,35.89 93.19,36.11 93.28,35.89 C93.37,35.67 93.16,35.68 93.17,35.73 C93.18,35.78 93.07,35.85 93.02,35.89 C92.97,35.93 93.1,36.06 92.78,36.13 C92.46,36.2 92.58,35.87 92.78,35.7 C92.98,35.53 93.06,35.4 92.84,35.36 C92.62,35.32 92.84,35.69 92.48,35.77 C92.34,35.77 92.38,35.16 92.38,35.07 C92.38,34.98 92.7,34.29 92.3,34.29 C91.9,34.29 92.09,34.83 92.12,34.98 C92.1854764,35.310118 92.1854764,35.649882 92.12,35.98 C91.91,36.13 91.78,36.03 91.57,35.98 C91.36,35.93 91.2,36.07 91.31,36.19 C91.55,36.46 91.02,36.51 91.06,36.26 C91.1,36.01 90.91,36.12 90.88,36.15 C90.68,36.42 90.58,35.91 90.35,36.15 C90.3599057,36.1208177 90.3599057,36.0891823 90.35,36.06 C89.97,35.79 90.51,35.65 90.35,35.48 C90.19,35.31 90.13,35.34 90.18,35.54 C90.23,35.74 89.82,35.64 89.97,35.81 C90.12,35.98 89.9,35.93 89.97,36.04 C90.04,36.15 90.04,36.27 89.97,36.31 C89.52,36.44 89.58,36.15 89.47,36.11 C89.14,35.99 89.24,36.48 88.99,36.37 C88.99,36.23 88.93,36.37 88.81,36.37 C88.69,36.37 88.73,36.16 88.7,36.09 C88.67,36.02 88.7,36.01 88.6,36.01 C88.5,36.01 88.51,36.01 88.49,36.08 C88.47,36.15 88.38,35.98 88.29,36.08 C88.2,36.18 88.29,36.24 88.29,36.27 C88.4,36.53 87.89,36.45 87.93,36.37 C88.05,36.13 87.77,36.37 87.73,36.37 C87.45,36.26 87.73,36.12 87.79,36.02 C87.8296804,35.8927302 87.8798526,35.7689723 87.94,35.65 C87.94,35.43 87.84,35.33 87.63,35.45 C87.57,35.45 87.63,35.64 87.63,35.7 C87.63,35.76 87.63,36.09 87.55,36.02 C87.47,35.95 87.3,36.11 87.35,36.15 C87.4,36.19 87.16,36.42 87.08,36.42 C86.63,36.42 87,36.21 86.89,36.09 C86.78,35.97 86.53,36.31 86.43,36.35 C86.04,36.49 86.15,36.13 86.1,36.1 C85.78,35.89 85.87,36.4 85.5,36.32 C85.13,36.24 85.27,35.75 85.37,35.74 C85.62,35.74 85.52,35.66 85.37,35.51 C85.13,35.18 85.01,35.69 85.06,35.78 C85.11,35.87 85.06,36.17 84.97,36.06 C84.88,35.95 84.77,36.06 84.81,36.2 C84.85,36.34 84.72,36.39 84.66,36.36 C84.6,36.33 84.66,36.1 84.59,36.03 C84.52,35.96 84.43,36.13 84.38,36.2 C84.33,36.27 84.25,36.2 84.27,36.2 C84.29,36.2 84.03,36.1 84.1,36.26 C84.17,36.42 84.1,36.62 83.98,36.56 C83.86,36.5 83.83,36.56 83.8,36.56 C83.6816637,36.4031496 83.6816637,36.1868504 83.8,36.03 C83.97,35.72 83.8,35.66 83.74,35.7 C83.6293971,35.8456274 83.5792477,36.0283143 83.6,36.21 C83.6,36.32 83.47,36.39 83.44,36.38 C83.24,36.24 83.35,36.38 83.22,36.48 C83.09,36.58 82.66,36.65 82.66,36.48 C82.66,36.11 82.25,36.22 82.32,36.37 C82.39,36.52 81.95,36.62 81.94,36.53 C81.93,36.44 81.58,36.61 81.64,36.35 C81.7,36.09 81.39,36.42 81.31,36.18 C81.16,35.71 81.76,35.88 81.53,35.6 C81.47,35.52 81.17,35.51 81.18,35.65 C81.18,36.07 81.08,35.81 80.96,35.96 C80.84,36.11 81.14,36.4 81.01,36.47 C80.63,36.68 80.86,36.07 80.7,36.16 C80.54,36.25 80.45,36.16 80.55,36.09 C80.65,36.02 80.37,35.7 80.31,35.97 C80.2247494,36.0476305 80.0985545,36.0598429 80,36 C79.79,36 79.86,35.87 79.9,35.75 C79.94,35.63 80.18,35.65 80.09,35.59 C80,35.53 80.09,35.36 79.81,35.33 C79.53,35.3 79.65,35.54 79.69,35.59 C79.73,35.64 79.69,35.96 79.57,35.94 C79.26,35.94 79.41,36.07 79.33,36.14 C79.25,36.21 79.13,36.24 78.96,36.14 C78.5,35.93 78.61,36.28 78.46,36.33 C78.31,36.38 78.28,36.33 78.23,36.25 C78.35,35.97 78.12,36.13 78.07,36.11 C78.02,36.09 77.76,35.87 78.23,35.75 C78.52,35.67 78.38,35.33 78.23,35.39 C77.82,35.53 78,35.01 78.11,34.99 C78.65,34.94 78.03,34.78 78.27,34.62 C78.51,34.46 78.27,34.5 78.22,34.49 C77.91,34.49 78.15,34.22 77.89,34.21 C77.63,34.2 77.79,34.43 77.82,34.51 C77.93,34.88 77.63,34.66 77.56,34.86 C77.49,35.06 77.68,34.96 77.71,34.96 C77.94,34.96 77.86,35.21 77.71,35.19 C77.56,35.17 77.48,35.51 77.71,35.5 C77.94,35.49 77.83,35.97 77.71,35.88 C77.59,35.79 77.52,35.88 77.54,35.97 C77.68,36.31 77.28,36.24 77.31,36.11 C77.39,35.83 77.04,35.81 77.1,36.11 C77.16,36.41 77.01,36.25 76.93,36.33 C76.85,36.41 76.74,36.33 76.66,36.33 C76.66,36.33 76.66,36.33 76.66,36.33 C76.66,36.33 76.66,36.28 76.66,36.27 C76.53,35.95 76.4,36.27 76.36,36.17 C76.19,35.91 76.11,36.38 75.97,36.35 C75.67,36.29 75.88,36.02 75.87,35.99 C75.77,35.68 75.62,36.1 75.6,36.21 C75.58,36.32 75.24,36.38 75.37,36.21 C75.5,36.04 75.37,36.05 75.24,36.13 C75.11,36.21 75.18,36.52 74.99,36.37 C74.8,36.22 74.88,36.37 74.74,36.37 C74.42,36.37 74.74,36.05 74.61,36.05 C74.48,36.05 74.48,36.27 74.43,35.92 C74.43,35.78 74.31,35.92 74.29,36.01 C74.27,36.1 74.12,36.2 74.09,36.15 C73.9,36.22 74.09,36.35 73.56,36.36 C73.46,36.36 73.27,36.31 73.39,36.23 C73.51,36.15 73.34,36.09 73.33,36.08 C73.32,36.07 73.49,35.84 73.56,35.74 C73.63,35.64 73.45,35.53 73.43,35.54 C73.16,35.64 73.33,36.03 73.17,36.05 C73.01,36.07 73.17,36.27 72.97,36.34 C72.6,36.47 72.97,36.06 72.83,36.14 C72.48,36.33 72.71,35.94 72.67,35.87 C72.63,35.8 72.48,35.87 72.43,35.96 C72.38,36.05 72.32,35.96 72.26,36.05 C72.2,36.14 71.99,36.27 71.96,36.05 C71.93,35.83 72.34,35.71 72.28,35.6 C72.1,35.24 72,35.72 71.91,35.78 C71.63,35.94 71.77,35.64 71.75,35.5 C71.73,35.36 71.75,34.63 71.75,34.59 C71.65,34.14 71.46,34.73 71.46,34.73 C71.46,34.73 71.46,35.01 71.46,35.15 C71.46,35.29 71.46,35.78 71.46,35.86 C71.46,35.94 71.29,36.16 71.08,36.04 C71.0025549,36.0005333 70.9117991,35.9965966 70.8312274,36.0292089 C70.7506557,36.0618213 70.6881895,36.1277764 70.66,36.21 C70.66,36.5 70.42,36.41 70.42,36.41 C70.42,36.41 70.33,36.35 70.34,36.31 C70.35,36.27 70.26,36.05 70.1,36.12 C69.67,36.29 69.9,36.12 69.75,36.12 C69.6,36.12 69.6,36.12 69.59,36.12 C69.2,35.83 69.9,35.71 69.65,35.5 C69.4,35.29 69.48,35.78 69.34,35.83 C69.2,35.68 69.1,35.94 69.22,36 C69.34,36.06 69.32,36 69.38,36.23 C69.44,36.46 69.21,36.42 69.15,36.39 C69.09,36.36 69.08,36.56 69.15,36.58 C69.22,36.6 69.29,36.58 69.25,36.71 C69.21,36.84 69.51,36.8 69.51,36.93 C69.51,37.25 69.76,37.12 69.75,37.09 C69.74,37.06 69.89,36.96 69.88,36.9 C69.87,36.84 69.81,36.9 69.88,36.71 C69.95,36.52 70.32,36.59 70.35,36.71 C70.41,37.03 70.65,36.93 70.63,36.85 C70.54,36.52 70.79,36.65 70.79,36.69 C70.79,36.97 70.79,36.86 70.92,36.89 C71.19,36.99 71.01,36.7 71.09,36.65 C71.17,36.6 71.22,36.83 71.28,36.86 C71.34,36.89 71.28,36.64 71.4,36.71 C71.449648,36.7546914 71.5031948,36.7948515 71.56,36.83 C71.78,37.01 71.76,36.7 71.96,36.68 C72.16,36.66 72.03,36.86 72.22,36.9 C72.65,36.99 72.35,36.63 72.62,36.63 C72.62,36.63 72.79,36.63 72.8,36.81 C72.81,36.99 73.15,36.89 73.15,36.88 C73.15,36.87 73.15,36.78 73.15,36.73 C73.25,36.43 73.5,36.73 73.45,36.91 C73.4,37.09 73.64,37.14 73.69,36.99 C73.74,36.84 73.96,36.89 74.21,36.86 L74.79,36.86 C74.97,36.86 74.95,36.86 75,36.86 C75.05,36.86 74.86,36.63 75,36.59 C75.41,36.46 75.09,36.88 75.47,36.76 C75.55,36.76 75.4,36.96 75.47,36.97 C75.54,36.98 75.66,36.85 75.66,36.75 C75.66,36.65 75.87,36.63 75.87,36.67 C75.87,36.71 76.06,36.67 75.95,36.88 C75.84,37.09 76.15,37.13 76.16,36.88 C76.16,36.47 76.71,36.8 76.7,36.65 L76.76,36.65 C76.6865854,36.7440345 76.6865854,36.8759655 76.76,36.97 C76.96,37.17 77.01,36.82 77.06,36.79 C77.28,36.64 77.24,36.88 77.3,37 C77.36,37.12 77.79,37.09 77.66,36.75 C77.66,36.69 77.95,36.55 77.96,36.75 C77.97,36.95 77.96,36.9 78.25,36.98 C78.54,37.06 78.45,36.8 78.71,36.81 C78.97,36.82 78.71,36.57 78.91,36.58 C79.11,36.59 78.97,36.93 79.13,36.95 C79.55,37.01 79.19,36.84 79.45,36.77 C79.51,36.77 79.45,36.58 79.56,36.55 C79.87,36.46 79.71,36.93 79.94,36.93 C80.17,36.93 80.11,36.86 80.11,36.73 C80.11,36.43 80.4,36.59 80.41,36.73 C80.42,36.87 80.72,36.81 80.84,36.82 C81.12,36.82 80.84,36.63 81.06,36.58 C81.28,36.53 81.19,37 81.25,37.02 C81.47,37.08 81.42,36.84 81.44,36.82 L81.69,36.82 C81.8,36.82 82.19,36.92 82.19,36.82 C82.19,36.72 82.47,36.55 82.5,36.69 C82.53,36.83 82.73,36.74 82.7,36.69 C82.67,36.64 83.05,36.51 82.9,36.69 C82.75,36.87 83.11,36.77 83.11,36.75 C83.11,36.51 83.4,36.6 83.28,36.83 C83.16,37.06 83.57,36.99 83.53,36.9 C83.42,36.63 83.63,36.62 83.69,36.65 C83.6867949,36.6899358 83.6867949,36.7300642 83.69,36.77 C83.6939658,36.8065594 83.6939658,36.8434406 83.69,36.88 C83.69,36.99 83.8,37.07 83.92,36.99 C84.04,36.91 83.97,36.86 84,36.77 C84.26,36.68 84.21,37.02 84.25,37.02 C84.29,37.02 84.49,37.07 84.45,36.96 C84.41,36.85 84.91,36.85 84.98,36.87 C85.05,36.89 84.78,37.11 84.98,37.13 C85.48,37.13 85.25,36.96 85.27,36.9 L85.48,36.9 C85.6517199,36.8665543 85.8282801,36.8665543 86,36.9 C86.2,36.9 86.06,36.9 86.29,36.9 C86.75,36.9 86.29,36.72 86.5,36.61 C86.71,36.5 86.71,36.77 86.71,36.78 C86.7051746,36.8365639 86.7051746,36.8934361 86.71,36.95 C86.71,37.02 86.85,37.03 86.85,36.95 C86.85,36.87 87.25,36.75 87.2,36.95 C87.15,37.15 87.29,37.05 87.37,37.03 C87.45,37.01 87.37,36.74 87.51,36.79 C87.65,36.84 87.79,36.92 87.69,37 C87.59,37.08 87.81,37.24 87.83,37.19 C87.85,37.14 87.75,36.92 88.15,36.9 C88.33,36.9 88.86,36.82 88.78,37.14 C88.78,37.14 89.02,37.2 88.99,37.03 C88.96,36.86 89.71,37.16 89.7,36.92 C89.6887108,36.8539791 89.719739,36.7879136 89.7777554,36.7544426 C89.8357717,36.7209717 89.9084963,36.7271798 89.96,36.77 C90.16,36.89 89.67,37.22 90.14,37.06 C90.1565166,36.9842229 90.1565166,36.9057771 90.14,36.83 C90.3,36.9 90.76,36.62 90.76,36.94 C90.76,37.05 90.98,37 90.96,36.94 C90.88,36.67 91.25,36.86 91.28,36.94 C91.31,37.02 91.43,36.88 91.41,36.82 C91.39,36.76 91.68,36.6 91.65,36.82 C91.62,37.04 92.07,37 92.08,36.92 C92.08,36.59 92.46,36.79 92.47,36.81 C92.54,37.05 92.61,36.94 92.64,36.96 L92.78,36.96 C92.97,36.96 92.84,36.86 92.91,36.77 C92.98,36.68 93.03,36.67 93.11,36.77 C93.19,36.87 93.11,36.88 93.17,36.95 C93.23,37.02 93.55,37.07 93.58,36.95 C93.65,36.64 93.91,36.87 93.88,36.95 C93.85,37.03 94.11,37.08 94.11,37.02 C94.11,36.96 94.11,36.92 94.11,36.89 C94.11,36.86 94.47,36.89 94.48,36.89 C94.49,36.89 95.21,36.96 95.36,36.89 C95.51,36.82 95.5,36.89 95.48,36.77 C95.46,36.65 95.48,36.77 95.48,36.77 C95.48,36.64 95.63,36.66 95.66,36.77 C95.69,36.88 95.83,36.72 95.84,36.91 C95.85,37.1 96.11,37.02 96.1,36.83 C96.09,36.64 96.36,36.69 96.33,37.06 C96.33,37.22 96.54,37.14 96.57,37.06 C96.82,36.6 96.58,36.59 96.71,36.38 Z" id="Path"></path>
                <polygon id="Path" points="11.45 36.75 3.99 36.75 3.99 30.49 4.08 30.49 4.08 36.66 11.45 36.66"></polygon>
                <polygon id="Path" points="1.78 33.87 1.69 33.87 1.69 31.53 24.36 31.53 24.36 32.69 24.27 32.69 24.27 31.63 1.78 31.63"></polygon>
                <rect id="Rectangle" x="19.55" y="31.58" width="1" height="1.15"></rect>
                <polygon id="Path" points="20.3 31.58 20.21 31.58 20.21 30.52 37.07 30.52 37.07 30.61 20.3 30.61"></polygon>
                <rect id="Rectangle" x="26.74" y="33.87" width="1" height="3.92"></rect>
                <rect id="Rectangle" x="34.68" y="33.88" width="1" height="3.92"></rect>
                <path d="M37.54,37.87 L33.89,37.87 L33.89,34 C33.24,33.23 30.89,33 29.29,33.29 C28.36,33.46 27.77,33.77 27.63,34.16 L27.63,37.84 L11.49,37.84 L11.49,33.49 C11.2341812,33.5077237 10.9800274,33.4371255 10.77,33.29 C10.7099439,33.2328947 10.6771878,33.1528242 10.68,33.07 C10.68,32.88 10.83,32.66 11.53,32.64 L26.8,32.64 L26.8,32 L26.89,32 L26.89,32.76 L11.53,32.76 C11.19,32.76 10.78,32.84 10.78,33.1 C10.7780174,33.1562126 10.799797,33.2106617 10.84,33.25 C11.0459873,33.3874364 11.2939205,33.4476488 11.54,33.42 L11.54,37.77 L27.53,37.77 L27.53,34.14 C27.67,33.71 28.29,33.37 29.26,33.2 C31.36,32.82 33.42,33.29 33.96,33.96 L33.96,37.76 L37.42,37.76 L37.42,33.71 L37.73,33.5 C37.9395281,33.3676577 38.1369614,33.2170729 38.32,33.05 C38.1479681,32.8876128 37.9160445,32.8042652 37.68,32.82 L34.58,32.82 L34.58,32 L34.67,32 L34.67,32.7 L37.67,32.7 C37.98,32.7 38.34,32.84 38.4,32.98 C38.4255051,33.0195804 38.4255051,33.0704196 38.4,33.11 C38.2139609,33.2807323 38.0131778,33.434666 37.8,33.57 L37.52,33.77 L37.54,37.87 Z" id="Path"></path>
                <polygon id="Path" points="34.61 32.23 26.93 32.23 26.93 31.35 26.52 31.35 27.19 30.49 27.71 31.13 27.71 31.48 27.9 31.48 29.02 30.52 32.74 30.52 33.45 31.47 33.86 31.47 33.86 31.14 33.95 31.14 33.95 31.56 33.41 31.56 32.69 30.61 29.06 30.61 27.94 31.57 27.62 31.57 27.62 31.17 27.2 30.64 26.71 31.25 27.03 31.25 27.03 32.14 34.52 32.14 34.52 31.29 34.61 31.29"></polygon>
                <polygon id="Path" points="34.98 31.34 34.52 31.34 34.52 31.24 34.77 31.24 34.28 30.66 33.94 31.19 33.86 31.14 34.27 30.5"></polygon>
                <rect id="Rectangle" x="29.05" y="30.56" width="1" height="1.62"></rect>
                <rect id="Rectangle" x="32.47" y="30.56" width="1" height="1.62"></rect>
                <rect id="Rectangle" x="27.62" y="32.19" width="1" height="1.51"></rect>
                <rect id="Rectangle" x="33.91" y="32.19" width="1" height="1.43"></rect>
                <rect id="Rectangle" x="28.35" y="31.11" width="4.83" height="1"></rect>
                <polygon id="Path" points="96.77 37.74 37.49 37.74 37.49 37.64 96.67 37.64 96.67 27.5 96.77 27.5"></polygon>
                <polygon id="Path" points="37.11 32.73 37.01 32.73 37.01 27.45 96.8 27.45 96.8 27.55 37.11 27.55"></polygon>
                <path d="M3.44,35.21 L3.36,35.21 C3.36,35.21 3.36,35.21 3.36,35.21 L3.19,35.21 C3.19,35.21 3.19,35.21 3.19,35.21 C3.19,35.21 3.19,35.21 3.19,35.21 C3.19,35.21 3.19,35.21 3.19,35.21 C3.19,35.21 3.19,35.21 3.19,35.21 C3.19,35.21 3.19,35.21 3.19,35.21 L3,35.21 C3,35.21 3,35.21 3,35.21 C3,35.21 3,35.21 3,35.21 C3,35.21 3,35.21 3,35.21 C3,35.21 2.95,35.21 2.95,35.21 C2.95,35.21 2.95,35.21 2.95,35.21 C2.95,35.21 2.95,35.21 2.95,35.21 C2.95,35.21 2.95,35.21 2.95,35.21 C2.95,35.21 2.95,35.21 2.95,35.21 C2.95,35.21 2.95,35.21 2.95,35.21 L3,35.21 C3,35.21 3,35.21 3,35.21 C3,35.21 3,35.21 3,35.21 C3,35.21 3,35.21 3,35.21 C3,35.21 3,35.21 3,35.21 C3,35.21 3,35.21 3,35.21 C3,35.21 3,35.21 3,35.21 C3,35.21 3,35.21 3,35.21 C3,35.21 3,35.21 3,35.21 C3,35.21 3,35.21 3,35.21 C3,35.21 3,35.21 3,35.21 C3,35.21 3,35.21 3,35.21 C3,35.21 3,35.21 3,35.21 C3,35.21 3,35.21 3,35.21 C3,35.21 3,35.21 3,35.21 C3,35.21 3,35.14 3,35.14 C3,35.14 3,35.14 3,35.14 C3,35.14 3,35.14 3,35.14 C3,35.14 3,35.14 3,35.14 C3,35.14 3,35.14 3,35.14 C3,35.14 3,35.14 3,35.14 C3,35.14 3,35.14 3,35.14 C3,35.14 3,35.14 3,35.14 L3.07,35.14 C3.07,35.14 3.07,35.14 3.07,35.14 C3.07,35.14 3.07,35.14 3.07,35.14 C3.07,35.14 3.07,35.14 3.07,35.14 C3.07,35.14 3.07,35.14 3.07,35.14 C3.07,35.14 3.07,35.14 3.07,35.14 C3.07,35.14 3.07,35.14 3.07,35.14 C3.07,35.14 3.07,35.14 3.07,35.14 C3.07,35.14 3.07,35.21 3.07,35.21 C3.07,35.21 3.07,35.21 3.07,35.21 C3.07,35.21 3.07,35.21 3.07,35.21 L4,35.21 C4,35.21 4,35.21 4,35.21 C4,35.21 4,35.21 4,35.21 C4,35.21 4.09,35.21 4.08,35.21 C4.07,35.21 4.08,35.21 4.08,35.21 L4.16,35.21 C4.16,35.21 4.16,35.21 4.16,35.21 C4.16,35.21 4.16,35.21 4.16,35.21 C4.16,35.21 4.16,35.21 4.16,35.21 C4.16,35.21 4.16,35.21 4.16,35.21 C4.16,35.21 4.16,35.21 4.16,35.21 C4.16,35.21 4.16,35.21 4.16,35.21 C4.16,35.21 4.16,35.21 4.16,35.21 C4.16,35.21 4.16,35.21 4.16,35.21 C4.16,35.21 4.16,35.21 4.16,35.21 C4.16,35.21 4.16,35.21 4.16,35.21 C4.16,35.21 4.16,35.21 4.16,35.21 C4.16,35.21 4.16,35.21 4.16,35.21 C4.16,35.21 4.16,35.21 4.16,35.21 C4.16,35.21 4.16,35.21 4.16,35.21 C4.16,35.21 4.16,35.21 4.16,35.21 C4.16,35.21 4.16,35.21 4.16,35.21 C4.16,35.21 4.16,35.21 4.16,35.21 C4.16,35.21 4.16,35.21 4.16,35.21 C4.16,35.21 4.16,35.21 4.16,35.21 C4.16,35.21 4.16,35.21 4.16,35.21 C4.16,35.21 4.16,35.21 4.16,35.21 C4.16,35.21 4.16,35.21 4.16,35.21 C4.16,35.21 4.16,35.21 4.16,35.21 C4.16,35.21 4.16,35.21 4.16,35.21 C4.16,35.21 4.16,35.21 4.06,35.21 L3.44,35.21 Z M4,35.17 L4.07,35.17 C4.07,35.17 4.12,35.17 4.12,35.17 C4.12,35.17 4.12,35.17 4.12,35.17 L4.25,35.17 C4.25,35.17 4.25,35.17 4.25,35.17 C4.25,35.17 4.25,35.17 4.25,35.17 C4.25,35.17 4.25,35.17 4.25,35.17 C4.25,35.17 4.25,35.17 4.25,35.17 L4.4,35.17 C4.4,35.17 4.4,35.17 4.4,35.17 C4.4,35.17 4.4,35.17 4.4,35.17 C4.4,35.17 4.45,35.17 4.45,35.17 C4.45,35.17 4.45,35.17 4.45,35.17 C4.45,35.17 4.45,35.17 4.45,35.17 C4.45,35.17 4.45,35.17 4.45,35.17 C4.45,35.17 4.45,35.17 4.45,35.17 C4.45,35.17 4.45,35.17 4.45,35.17 C4.45,35.17 4.45,35.17 4.45,35.17 C4.45,35.17 4.45,35.17 4.45,35.17 C4.45,35.17 4.45,35.17 4.45,35.17 C4.45,35.17 4.45,35.17 4.45,35.17 C4.45,35.17 4.45,35.17 4.45,35.17 C4.45,35.17 4.45,35.17 4.45,35.17 C4.45,35.17 4.4,35.17 4.4,35.17 C4.4,35.17 4.4,35.17 4.4,35.17 C4.4,35.17 4.4,35.17 4.4,35.17 C4.4,35.17 4.4,35.17 4.4,35.17 L4,35.17 C4,35.17 4,35.17 4,35.17 L3.89,35.17 L3.81,35.17 C3.81,35.17 3.81,35.17 3.81,35.17 C3.81,35.17 3.81,35.17 3.81,35.17 C3.81,35.17 3.81,35.17 3.81,35.17 C3.81,35.17 3.81,35.17 3.81,35.17 C3.81,35.17 3.81,35.17 3.81,35.12 C3.81,35.12 3.81,35.12 3.81,35.12 C3.81,35.12 3.81,35.12 3.81,35.12 C3.81,35.12 3.72,35.12 3.73,35.12 L3.35,35.12 C3.35,35.12 3.35,35.12 3.35,35.12 C3.35,35.12 3.35,35.12 3.35,35.12 C3.35,35.12 3.35,35.12 3.35,35.12 L3.26,35.12 C3.26,35.12 3.26,35.12 3.26,35.12 L3.18,35.12 C3.18,35.12 3.18,35.12 3.18,35.12 C3.18,35.12 3.18,35.12 3.18,35.12 C3.18,35.12 3.18,35.12 3.18,35.12 C3.18,35.12 3.18,35.12 3.18,35.12 C3.18,35.12 3.18,35.12 3.18,35.12 C3.18,35.12 3.18,35.12 3.18,35.12 C3.18,35.12 3.18,35.12 3.18,35.12 C3.18,35.12 3.18,35.12 3.18,35.12 C3.18,35.12 3.18,35.12 3.18,35.12 C3.18,35.12 3.18,35.12 3.18,35.12 C3.18,35.12 3.18,35.12 3.18,35.12 C3.18,35.12 3.18,35.12 3.18,35.12 C3.18,35.12 3.18,35.12 3.18,35.12 C3.18,35.12 3.18,35.12 3.18,35.12 C3.18,35.12 3.18,35.12 3.18,35.12 C3.18,35.12 3.18,35.12 3.18,35.12 C3.18,35.12 3.18,35.12 3.18,35.12 C3.18,35.12 3.18,35.12 3.18,35.12 C3.18,35.12 3.18,35.12 3.27,35.12 L4,35.17 Z M1.84,35 C1.84,35 2.07,35 1.84,35 Z M1.78,34.88 L1.62,34.88 C1.54,34.88 1.53,34.88 1.53,34.88 C1.53,34.88 1.53,34.88 1.53,34.88 C1.51390166,34.8738446 1.49609834,34.8738446 1.48,34.88 L1.37,34.88 C1.37,34.88 1.37,34.88 1.37,34.88 C1.28,34.88 1.3,34.94 1.3,34.94 C1.3,34.94 1.3,34.94 1.3,34.94 C1.3,34.94 1.3,34.94 1.3,34.94 C1.3,34.94 1.3,34.94 1.3,34.94 C1.3,34.94 1.3,34.94 1.3,34.94 C1.3,34.94 1.3,34.94 1.3,34.94 L1,34.94 C1,34.94 1,34.94 1,34.94 C1,34.94 0.94,34.94 0.94,34.94 C0.94,34.94 0.94,34.94 0.94,34.94 C0.94,34.94 0.94,34.94 0.94,34.99 C0.94,34.99 0.85,34.99 0.85,34.99 C0.85,34.99 0.85,34.99 0.85,34.99 L0.84,34.99 C0.84,34.99 0.77,34.99 0.77,34.99 C0.77,34.99 0.77,34.99 0.77,34.99 C0.77,34.99 0.83,34.99 0.83,34.99 C0.83,34.99 0.83,34.99 0.83,34.99 C0.846098341,34.9961554 0.863901659,34.9961554 0.88,34.99 L1,34.99 C1,34.99 1,34.99 1,34.99 C1,34.99 1,34.99 1,34.99 C1,34.99 1.05,34.99 1.05,34.99 C1.05,34.99 1.1,34.99 1.1,34.99 C1.1,34.99 1.1,34.99 1.1,34.99 C1.1,34.99 1.16,34.99 1.16,34.99 C1.16,34.99 1.16,34.99 1.16,34.99 C1.16,34.99 1.21,34.99 1.21,34.99 C1.21,34.99 1.21,34.99 1.21,34.99 C1.21,34.99 1.21,34.99 1.21,34.99 C1.21,34.99 1.21,34.99 1.21,34.99 C1.21,34.99 1.21,34.99 1.21,34.99 C1.22856406,35.000718 1.25143594,35.000718 1.27,34.99 C1.27,34.99 1.27,34.99 1.27,34.99 C1.28898617,34.9990059 1.31101383,34.9990059 1.33,34.99 C1.33,34.99 1.33,34.99 1.33,34.99 C1.33,34.99 1.33,34.99 1.33,34.99 C1.33,34.99 1.33,34.87 1.33,34.87 C1.33,34.87 1.33,34.87 1.33,34.87 C1.33,34.87 1.33,34.87 1.33,34.87 C1.33,34.87 1.33,34.87 1.33,34.87 C1.33,34.87 1.33,34.87 1.33,34.87 C1.33,34.87 1.33,34.87 1.33,34.87 C1.33,34.87 1.33,34.87 1.33,34.87 C1.38,34.87 1.33,34.87 1.33,34.87 L1.23,34.87 C1.23,34.87 1.23,34.87 1.23,34.87 C1.23,34.87 1.23,34.87 1.23,34.87 C1.23,34.87 1.23,34.87 1.23,34.87 C1.23,34.87 1.23,34.87 1.23,34.87 C1.23,34.87 1.23,34.87 1.23,34.87 C1.23,34.87 1.23,34.87 1.23,34.87 C1.23,34.87 1.23,34.99 1.23,34.99 C1.23,34.99 1.23,34.99 1.23,34.99 C1.23,34.99 1.23,34.99 1.23,34.99 C1.23,34.99 1.23,34.99 1.29,34.99 C1.35,34.99 1.29,34.99 1.29,34.99 C1.31209516,35.00075 1.33790484,35.00075 1.36,34.99 C1.36,34.99 1.36,34.99 1.36,34.99 C1.36,34.99 1.54,34.99 1.51,34.94 C1.48,34.89 1.51,34.94 1.51,34.94 C1.51,34.94 1.51,34.94 1.51,34.94 C1.51,34.94 1.51,34.94 1.51,34.94 C1.51,34.94 1.51,34.94 1.51,34.94 C1.51,34.94 1.51,34.94 1.51,34.94 C1.51,34.94 1.51,34.94 1.51,34.94 C1.51,34.94 1.51,34.94 1.51,34.94 C1.51,34.94 1.51,34.94 1.51,34.94 C1.51,34.94 1.51,34.94 1.51,34.94 C1.51,34.94 1.51,34.94 1.51,34.94 C1.51,34.94 1.51,34.94 1.57,34.94 C1.63,34.94 1.57,34.94 1.57,34.94 C1.57,34.94 1.57,34.94 1.57,34.94 C1.57,34.94 1.57,34.94 1.57,34.94 C1.57,34.94 1.57,34.94 1.57,34.94 L4,34.94 C4,34.94 4,34.94 4,34.94 C4,34.94 4,34.94 4,34.94 C4,34.94 4,34.94 4,34.94 C4,34.94 4,34.94 4,34.94 C4,34.94 4,34.94 4,34.94 C4,34.94 4,34.94 4,34.94 C4,34.94 4,34.94 4,34.94 C4,34.94 4,34.94 4,34.94 C4,34.94 4,34.94 4,34.94 C4,34.94 4,34.94 4,34.94 C4,34.94 4,34.94 4,34.94 C4,34.94 4,34.94 4,34.94 C4,34.94 4,34.94 4,34.94 C4,34.94 4,34.94 3.95,34.94 C3.9,34.94 3.95,34.94 3.95,34.94 C3.95,34.94 3.95,34.94 3.95,34.94 C3.95,34.94 3.95,34.94 3.95,34.94 C3.95,34.94 3.95,34.94 3.95,34.94 C3.95,34.94 3.95,34.94 3.89,34.94 C3.89,34.94 3.89,34.94 3.89,34.94 C3.89,34.94 3.89,34.94 3.89,34.94 C3.89,34.94 3.89,34.94 3.89,34.94 C3.87101383,34.9309941 3.84898617,34.9309941 3.83,34.94 C3.83,34.94 3.83,34.94 3.83,34.94 C3.83,34.94 3.76,34.94 3.76,34.94 C3.76,34.94 3.69,34.89 3.55,34.94 L1.78,34.88 Z M3.67,34.94 C3.67,34.94 3,35.07 3.24,35.07 L3.67,34.94 Z M3.73,35.09 L3.88,35.09 C3.91751209,35.0938327 3.95343645,35.0738747 3.97,35.04 C4.03,35.04 3.97,35.04 3.97,35.04 C3.97686292,35.0205887 3.97686292,34.9994113 3.97,34.98 C3.97,34.98 3.97,34.98 3.97,34.98 C4.05,34.98 4.03,34.9 4.03,34.9 C4.03,34.9 4.03,34.9 4.03,34.9 C4.03,34.9 4.03,34.9 4.03,34.9 C4.03,34.9 4.03,34.9 4.03,34.9 C4.03,34.9 4.03,34.9 4.03,34.9 C4.03,34.9 4.03,34.9 4.03,34.9 C4.03,34.9 4.09,34.83 4.09,34.83 C4.09,34.83 4.09,34.83 4.09,34.83 C4.09,34.83 4.18,34.77 4.18,34.77 C4.18,34.77 4.18,34.77 4.18,34.77 C4.18,34.77 4.13,34.77 4.13,34.77 C4.13,34.77 4.13,34.77 4.13,34.77 C4.13,34.77 4.19,34.77 4.19,34.77 C4.19,34.77 4.19,34.77 4.19,34.72 C4.19,34.67 4.13,34.72 4.13,34.72 C4.13,34.72 4.13,34.72 4.13,34.72 C4.13,34.72 4.13,34.72 4.13,34.72 C4.13,34.72 4.13,34.72 4.13,34.72 C4.13,34.72 4.13,34.72 4.13,34.72 C4.13,34.72 4.13,34.72 4.13,34.72 C4.13,34.72 4.13,34.72 4.13,34.72 C4.13,34.72 4.13,34.72 4.13,34.72 C4.13,34.72 4.08,34.72 4.08,34.72 C4.08,34.72 4.08,34.72 4.08,34.72 C4.08,34.72 4.03,34.72 4.03,34.72 C4.03,34.72 4.03,34.72 4.03,34.72 C4.03,34.72 3.98,34.72 3.98,34.72 C3.98,34.72 3.98,34.72 3.98,34.72 C3.98,34.72 3.98,34.72 3.98,34.72 C3.98,34.72 3.98,34.72 3.98,34.72 C3.98,34.72 3.98,34.72 3.98,34.72 C3.98,34.72 3.92,34.72 3.92,34.72 C3.92,34.72 3.92,34.72 3.92,34.72 C3.92,34.72 3.92,34.72 3.92,34.72 C3.92,34.72 3.92,34.72 3.92,34.72 C3.92,34.72 3.92,34.79 3.92,34.79 C3.92,34.79 3.92,34.79 3.92,34.79 C3.92,34.79 3.92,34.79 3.92,34.79 C3.92,34.79 3.92,34.79 3.92,34.79 C3.92,34.79 3.92,34.79 3.92,34.79 C3.92,34.79 3.92,34.79 3.92,34.79 C3.92,34.79 3.92,34.79 3.92,34.79 C3.92,34.79 3.92,34.79 3.92,34.79 C3.92,34.79 3.92,34.79 3.92,34.79 C3.92,34.79 3.92,34.85 3.92,34.85 C3.92,34.85 3.92,34.85 3.92,34.85 C3.92,34.85 3.92,34.85 3.92,34.85 C3.92,34.85 3.92,34.85 3.92,34.85 C3.92,34.85 3.92,34.85 3.92,34.85 C3.92,34.85 3.92,34.85 3.92,34.85 C3.92,34.85 3.92,34.85 3.92,34.85 C3.92,34.85 4.01,34.85 4.01,34.85 C4.01,34.85 4.01,34.85 4.01,34.85 C4.01,34.85 4.01,34.9 4.01,34.9 C4.01,34.9 4.01,34.9 4.01,34.9 C4.01,34.9 4.01,34.9 4.01,34.9 C4.01,34.9 4.01,34.9 4.01,34.9 C4.01,34.9 4.01,34.9 4.01,34.9 C4.01,34.9 4.01,34.9 3.95,34.9 C3.89,34.9 3.95,34.9 3.95,34.9 C3.92908426,34.8849786 3.90091574,34.8849786 3.88,34.9 C3.88,34.9 3.88,34.95 3.88,34.95 C3.88,34.95 3.71,34.95 3.74,35.03 C3.77,35.11 3.74,35.03 3.74,35.03 C3.74,35.03 3.74,35.03 3.74,35.03 C3.74,35.03 3.74,35.03 3.74,35.03 C3.74,35.03 3.74,35.03 3.74,35.03 C3.74,35.03 3.74,35.03 3.74,35.03 C3.74,35.03 3.74,35.03 3.74,35.03 C3.74,35.03 3.74,35.03 3.74,35.03 C3.74,35.03 3.74,35.03 3.74,35.03 C3.74,35.03 3.74,35.03 3.74,35.03 C3.74,35.03 3.74,35.03 3.69,35.03 C3.64,35.03 3.69,35.03 3.69,35.03 C3.69,35.03 3.69,35.03 3.69,35.03 C3.69,35.03 3.69,35.03 3.69,35.03 C3.69,35.03 3.69,35.03 3.69,35.03 C3.69,35.03 3.69,35.03 3.69,35.03 C3.69,35.03 3.69,35.03 3.69,35.03 C3.69,35.03 3.69,35.03 3.69,35.03 C3.69,35.03 3.69,35.03 3.69,35.03 C3.69,35.03 3.69,35.03 3.69,35.03 C3.69,35.03 3.69,35.03 3.69,35.03 C3.69,35.03 3.69,35.03 3.69,35.03 C3.69,35.03 3.69,35.03 3.69,35.03 C3.69,35.03 3.69,35.03 3.69,35.03 C3.69,35.03 3.69,35.03 3.69,35.03 C3.69,35.03 3.69,35.03 3.69,35.03 C3.69,35.03 3.69,35.03 3.69,35.03 C3.69,35.03 3.69,35.03 3.69,35.03 C3.69,35.03 3.69,35.03 3.69,35.03 C3.69,35.03 3.69,35.03 3.69,35.03 C3.69,35.03 3.69,35.03 3.69,35.03 C3.69,35.03 3.69,35.03 3.69,35.03 C3.69,35.03 3.69,35.03 3.69,35.03 C3.69,35.03 3.69,35.03 3.69,35.03 C3.69,35.03 3.69,35.03 3.69,35.03 C3.69,35.03 3.69,35.03 3.69,35.03 C3.69,35.03 3.69,35.03 3.69,35.03 C3.69,35.03 3.69,35.03 3.69,35.03 C3.69,35.03 3.69,35.03 3.74,35.03 C3.74,35.03 3.74,35.03 3.74,35.03 C3.74,35.03 3.74,35.03 3.74,35.03 C3.74,35.03 3.74,35.03 3.74,35.03 C3.74,35.03 3.74,35.03 3.74,35.03 C3.74,35.03 3.8,35.03 3.8,35.03 C3.8,35.03 3.87,35.09 3.99,35.03 L3.73,35.09 Z M4.99,35.85 C4.99,35.85 2.81,35.92 3.08,35.93 L4.99,35.85 Z M5.07,36.08 L5.26,36.08 C5.30969842,36.0786943 5.35344529,36.0468783 5.37,36 C5.45,36 5.37,36 5.43,36 C5.4635921,35.9769795 5.48549584,35.9404733 5.49,35.9 L5.55,35.9 L5.61,35.9 C5.61,35.9 5.61,35.84 5.61,35.84 C5.61433608,35.820235 5.61433608,35.799765 5.61,35.78 C5.63907188,35.7755805 5.66472503,35.7585894 5.68013658,35.7335456 C5.69554813,35.7085018 5.69915577,35.6779442 5.69,35.65 C5.69,35.65 5.69,35.65 5.69,35.65 C5.69,35.65 5.69,35.65 5.69,35.65 C5.69,35.65 5.69,35.59 5.69,35.59 C5.69,35.59 5.69,35.59 5.69,35.59 C5.69357266,35.2881106 5.53581784,35.0072473 5.27616025,34.8532085 C5.01650267,34.6991698 4.69439049,34.6953578 4.43116025,34.8432085 C4.16793002,34.9910592 4.00357266,35.2681106 4,35.57 C4.01856406,35.580718 4.04143594,35.580718 4.06,35.57 C4.06,35.57 4.06,35.51 4.06,35.51 C4.08518167,35.512501 4.1097526,35.5012162 4.12426438,35.4804851 C4.13877616,35.4597539 4.14096913,35.4328046 4.13,35.41 C4.13900593,35.3910138 4.13900593,35.3689862 4.13,35.35 C4.18,35.35 4.13,35.26 4.13,35.24 C4.13,35.22 4.13,35.24 4.13,35.24 C4.14250323,35.2147989 4.14250323,35.1852011 4.13,35.16 C4.13,35.16 4.24,35.07 4.24,35.07 C4.24,35.07 4.24,35.02 4.24,35 C4.24,34.98 4.17,35 4.17,35 C4.17,35 4.22,35 4.17,34.95 C4.12,34.9 4.17,34.95 4.17,34.95 C4.17,34.95 4.25,34.95 4.24,34.89 C4.24,34.89 4.24,34.89 4.24,34.81 C4.24,34.73 4.17,34.81 4.17,34.81 C4.17,34.81 4.17,34.74 4.17,34.73 C4.17,34.72 4.11,34.73 4.11,34.73 C4.11,34.73 4.11,34.73 4.11,34.73 C4.11,34.73 4.11,34.73 4.11,34.73 C4.11,34.73 4.11,34.68 4.11,34.67 C4.12502137,34.6490843 4.12502137,34.6209157 4.11,34.6 C4.11,34.6 4.05,34.6 4.05,34.6 C4.05762231,34.5772892 4.05762231,34.5527108 4.05,34.53 C4.05,34.53 3.98,34.53 3.98,34.53 C3.98900593,34.5110138 3.98900593,34.4889862 3.98,34.47 C3.98,34.47 3.91,34.47 3.91,34.47 C3.91555993,34.4503864 3.91555993,34.4296136 3.91,34.41 C3.91,34.41 3.85,34.41 3.85,34.41 C3.85686292,34.3905887 3.85686292,34.3694113 3.85,34.35 C3.85,34.35 3.79,34.35 3.79,34.35 C3.79,34.35 3.79,34.35 3.79,34.3 C3.79,34.3 3.79,34.3 3.79,34.23 C3.79727525,34.2141273 3.79727525,34.1958727 3.79,34.18 C3.79,34.18 3.73,34.18 3.73,34.18 C3.73,34.18 3.73,34.18 3.73,34.12 C3.73,34.06 3.66,34.12 3.66,34.12 C3.68037152,34.0972239 3.68037152,34.0627761 3.66,34.04 C3.64055782,34.0209429 3.60944218,34.0209429 3.59,34.04 C3.59,34.04 3.59,33.97 3.54,33.96 C3.54,33.96 3.54,33.89 3.48,33.89 C3.42,33.89 3.48,33.99 3.48,33.99 C3.48,33.99 3.48,33.99 3.48,33.99 C3.48,33.99 3.48,33.99 3.48,33.99 C3.48,33.99 3.48,33.93 3.48,33.93 C3.48,33.93 3.48,33.99 3.48,33.99 C3.48,33.99 3.48,33.93 3.42,33.99 C3.36,34.05 3.42,34.05 3.42,34.05 C3.42,34.05 3.42,34.05 3.42,34.05 C3.42,34.05 3.42,34.11 3.42,34.11 C3.42,34.11 3.42,34.04 3.37,34.04 C3.32,34.04 3.37,34.04 3.37,34.04 C3.37,34.04 3.37,33.98 3.31,33.98 C3.25,33.98 3.25,34.08 3.25,34.08 C3.25,34.08 3.25,34.08 3.25,34.08 C3.25,34.08 3.25,34.08 3.25,34.08 C3.25,34.08 3.25,34.08 3.25,34.08 C3.23412727,34.0727247 3.21587273,34.0727247 3.2,34.08 C3.2,34.08 3.2,34.08 3.14,34.03 C3.08,33.98 3.14,34.03 3.14,34.03 C3.14,34.03 3.14,33.97 3.08,33.97 C3.02,33.97 3.08,33.97 3.08,33.97 C3.08,33.97 3.08,33.92 3.08,33.92 C3.08,33.92 3.08,33.98 3.08,33.98 L1.93,33.98 C1.93,33.98 1.93,34.04 1.93,34.04 C1.93,34.04 1.88,34.12 1.88,34.12 C1.88,34.12 1.88,34.18 1.88,34.18 C1.88,34.18 1.99,34.12 1.99,34.12 C1.99,34.12 1.99,34.12 1.99,34.17 C1.99,34.22 1.99,34.17 1.99,34.17 C1.99,34.17 1.99,34.25 1.99,34.25 C1.99,34.25 1.99,34.19 1.99,34.25 C1.99,34.31 1.99,34.3 1.99,34.3 C1.99,34.3 1.99,34.3 1.99,34.3 C1.99,34.3 1.99,34.24 1.99,34.3 C1.98384465,34.3160983 1.98384465,34.3339017 1.99,34.35 C1.99,34.35 1.99,34.35 1.94,34.35 C1.89,34.35 1.94,34.4 1.94,34.4 C1.94,34.4 1.94,34.4 1.87,34.4 C1.8,34.4 1.87,34.47 1.87,34.47 C1.8459602,34.4532608 1.8140398,34.4532608 1.79,34.47 C1.79,34.47 1.79,34.55 1.79,34.55 C1.79,34.55 1.58,34.61 1.61,34.68 C1.64,34.75 1.61,34.73 1.61,34.73 C1.61,34.73 1.61,34.73 1.61,34.73 C1.61,34.73 1.61,34.73 1.61,34.73 C1.61,34.73 1.61,34.73 1.61,34.73 C1.59924996,34.7520952 1.59924996,34.7779048 1.61,34.8 C1.61,34.8 1.61,34.8 1.61,34.8 C1.61,34.8 1.61,34.8 1.61,34.85 C1.61,34.85 1.61,34.85 1.61,34.85 C1.61,34.85 1.61,34.91 1.61,34.85 C1.61,34.79 1.56,34.85 1.54,34.85 C1.52,34.85 1.54,34.85 1.54,34.85 C1.54,34.85 1.54,34.85 1.54,34.9 C1.54,34.95 1.54,34.95 1.54,34.96 C1.54,34.97 1.54,34.96 1.54,35.01 C1.54,35.06 1.54,35.01 1.54,35.01 C1.54,35.01 1.54,35.01 1.54,35.01 C1.54,35.01 1.54,35.01 1.54,35.01 C1.54,35.01 1.54,35.01 1.54,35.01 C1.54,35.01 1.54,35.01 1.54,35.01 C1.54,35.01 1.54,35.01 1.54,35.01 C1.54,35.01 1.54,35.01 1.54,35.01 C1.54,35.01 1.54,35.01 1.54,35.01 C1.54,35.01 1.54,35.01 1.54,35.06 C1.54,35.11 1.54,35.06 1.54,35.06 C1.54,35.06 1.54,35.06 1.54,35.06 C1.54,35.06 1.54,35.06 1.54,35.06 C1.54,35.06 1.54,35.13 1.59,35.12 C1.64,35.11 1.59,35.12 1.59,35.12 C1.59,35.12 1.59,35.12 1.59,35.12 C1.59,35.12 1.59,35.12 1.59,35.12 C1.59,35.12 1.59,35.12 1.59,35.12 C1.59,35.12 1.59,35.19 1.59,35.18 C1.59,35.17 1.59,35.18 1.59,35.24 C1.59,35.3 1.59,35.3 1.65,35.29 C1.71,35.28 1.65,35.29 1.65,35.29 C1.65,35.29 1.65,35.29 1.65,35.29 C1.65,35.29 1.65,35.29 1.65,35.34 C1.65,35.39 1.65,35.41 1.65,35.41 C1.65,35.41 1.65,35.41 1.72,35.41 C1.79,35.41 1.77,35.41 1.77,35.41 C1.77,35.41 1.77,35.41 1.77,35.48 C1.77,35.55 1.77,35.48 1.77,35.53 C1.79091574,35.5450214 1.81908426,35.5450214 1.84,35.53 C1.84,35.53 1.84,35.53 1.84,35.53 C1.84,35.53 1.84,35.53 1.84,35.53 C1.92,35.61 1.93,35.62 2.09,35.53 L5.07,36.08 Z" id="Shape" fill-rule="nonzero"></path>
                <path d="M2.64,36.19 L2.58,36.19 L2.58,36.08 L2.79,36.08 L2.79,36.21 L2.72,36.21 L2.64,36.19 Z M2.86,37.76 L2.58,37.76 L2.58,36.18 L2.64,36.18 L2.7,36.18 L2.86,37.76 Z" id="Shape"></path>
                <path d="M99.5,35 C99.5,35 99.5,35 99.5,35 C99.5,35 99.5,35 99.5,35 C99.5,35 99.5,35 99.5,35 C99.5,35 99.5,35 99.5,35 C99.5,35 99.5,35 99.5,35 C99.5,35 99.5,35 99.5,35 C99.5,35 99.5,35 99.5,35 C99.5,35 99.5,35 99.5,35 C99.5,35 99.5,35 99.5,35 C99.5,35 99.43,35 99.43,35 C99.43,35 99.43,34.93 99.43,34.92 C99.43,34.91 99.37,34.92 99.37,34.92 C99.37,34.92 99.37,34.92 99.37,34.92 C99.37,34.92 99.46,34.86 99.46,34.86 C99.46,34.86 99.46,34.86 99.46,34.86 C99.46,34.86 99.41,34.86 99.41,34.86 C99.41,34.86 99.41,34.86 99.41,34.86 C99.41,34.86 99.47,34.86 99.47,34.86 C99.47,34.86 99.47,34.86 99.47,34.81 C99.47,34.76 99.41,34.81 99.41,34.81 C99.41,34.81 99.41,34.81 99.41,34.81 C99.41,34.81 99.41,34.81 99.41,34.81 C99.41,34.81 99.41,34.81 99.41,34.81 C99.41,34.81 99.41,34.81 99.41,34.81 C99.41,34.81 99.41,34.81 99.41,34.81 C99.41,34.81 99.41,34.81 99.41,34.81 C99.41,34.81 99.41,34.81 99.41,34.81 C99.41,34.81 99.36,34.81 99.36,34.81 C99.36,34.81 99.36,34.81 99.36,34.81 C99.36,34.81 99.31,34.81 99.31,34.81 C99.31,34.81 99.31,34.81 99.31,34.81 C99.31,34.81 99.26,34.81 99.26,34.81 C99.26,34.81 99.26,34.81 99.26,34.81 C99.26,34.81 99.26,34.81 99.26,34.81 C99.26,34.81 99.26,34.81 99.26,34.81 C99.26,34.81 99.26,34.81 99.26,34.81 C99.26,34.81 99.2,34.81 99.2,34.81 C99.2,34.81 99.2,34.81 99.2,34.81 C99.2,34.81 99.2,34.81 99.2,34.81 C99.2,34.81 99.2,34.81 99.2,34.81 C99.2,34.81 99.2,34.81 99.2,34.86 L99.14,34.86 C99.14,34.86 99.14,34.86 99.14,34.86 C99.14,34.86 99.14,34.86 99.14,34.86 C99.14,34.86 99.14,34.86 99.14,34.86 C99.14,34.86 99.14,34.86 99.14,34.86 C99.14,34.86 99.14,34.92 99.14,34.92 C99.14,34.92 99.14,34.92 99.14,34.92 C99.14,34.92 99.14,34.92 99.14,34.92 C99.14,34.92 99.14,34.92 99.14,34.92 C99.14,34.92 99.14,34.92 99.14,34.92 C99.14,34.92 99.14,34.92 99.14,34.92 C99.14,34.92 99.14,34.92 99.14,34.92 C99.14,34.92 99.14,34.92 99.14,34.92 C99.14,34.92 99.14,34.92 99.14,34.92 C99.14,34.92 99.14,34.87 99.14,34.92 C99.14,34.97 99.14,34.98 99.14,34.98 L99.08,34.98 C99.08,34.98 99.08,35.04 99.08,35.04 C99.08,35.04 99.03,35.12 99.03,35.12 C99.03,35.12 99.03,35.18 99.03,35.18 C99.03,35.18 99.03,35.18 99.03,35.18 C99.03,35.18 99.03,35.23 99.03,35.23 L98.91,35.23 C98.91,35.23 98.91,35.17 98.91,35.23 C98.9038446,35.2460983 98.9038446,35.2639017 98.91,35.28 C98.91,35.28 98.91,35.28 98.86,35.28 C98.81,35.28 98.86,35.33 98.86,35.33 C98.86,35.33 98.86,35.33 98.79,35.33 C98.72,35.33 98.79,35.4 98.79,35.4 C98.7659602,35.3832608 98.7340398,35.3832608 98.71,35.4 C98.71,35.4 98.71,35.48 98.71,35.48 C98.71,35.48 98.5,35.54 98.53,35.61 C98.56,35.68 98.53,35.66 98.53,35.66 C98.53,35.66 98.53,35.66 98.53,35.66 C98.53,35.66 98.53,35.66 98.53,35.66 C98.53,35.66 98.53,35.66 98.53,35.66 C98.51925,35.6820952 98.51925,35.7079048 98.53,35.73 C98.53,35.73 98.53,35.73 98.53,35.73 C98.53,35.73 98.53,35.73 98.53,35.78 C98.53,35.78 98.53,35.78 98.53,35.78 C98.53,35.78 98.53,35.84 98.53,35.78 C98.53,35.72 98.48,35.78 98.46,35.78 C98.44,35.78 98.46,35.78 98.46,35.78 C98.46,35.78 98.46,35.78 98.46,35.83 C98.46,35.88 98.46,35.88 98.46,35.89 C98.46,35.9 98.46,35.89 98.46,35.94 C98.46,35.99 98.46,35.94 98.46,35.94 C98.46,35.94 98.46,35.94 98.46,35.94 C98.46,35.94 98.46,35.94 98.46,35.94 C98.46,35.94 98.46,35.94 98.46,35.94 C98.46,35.94 98.46,35.94 98.46,35.94 C98.46,35.94 98.46,35.94 98.46,35.94 C98.46,35.94 98.46,35.94 98.46,35.94 C98.46,35.94 98.46,35.94 98.46,35.94 C98.46,35.94 98.46,35.94 98.46,35.99 C98.46,36.04 98.46,35.99 98.46,35.99 C98.46,35.99 98.46,35.99 98.46,35.99 C98.46,35.99 98.46,35.99 98.46,35.99 C98.46,35.99 98.46,36.06 98.51,36.05 C98.56,36.04 98.51,36.05 98.51,36.05 C98.51,36.05 98.51,36.05 98.51,36.05 C98.51,36.05 98.51,36.05 98.51,36.05 C98.51,36.05 98.51,36.05 98.51,36.05 C98.51,36.05 98.51,36.12 98.51,36.11 C98.51,36.1 98.51,36.11 98.51,36.17 C98.51,36.23 98.51,36.23 98.57,36.22 C98.63,36.21 98.57,36.22 98.57,36.22 C98.57,36.22 98.57,36.22 98.57,36.22 C98.57,36.22 98.57,36.22 98.57,36.27 C98.57,36.32 98.57,36.34 98.57,36.34 C98.57,36.34 98.57,36.34 98.64,36.34 C98.71,36.34 98.69,36.34 98.69,36.34 C98.69,36.34 98.69,36.34 98.69,36.41 C98.69,36.48 98.69,36.41 98.69,36.46 C98.7109157,36.4750214 98.7390843,36.4750214 98.76,36.46 C98.76,36.46 98.76,36.46 98.76,36.46 C98.76,36.46 98.76,36.46 98.76,36.46 C98.76,36.46 98.76,36.46 98.76,36.46 C98.76,36.46 98.76,36.46 98.76,36.46 C98.7785641,36.470718 98.8014359,36.470718 98.82,36.46 C98.82,36.46 98.82,36.46 98.82,36.46 C98.8389862,36.4690059 98.8610138,36.4690059 98.88,36.46 C98.88,36.46 98.88,36.46 98.88,36.46 C98.88,36.46 98.88,36.46 98.88,36.46 C98.88,36.46 98.88,36.34 98.88,36.34 C98.88,36.34 98.88,36.34 98.88,36.34 C98.88,36.34 98.88,36.34 98.88,36.34 C98.88,36.34 98.88,36.34 98.88,36.34 C98.88,36.34 98.88,36.34 98.88,36.34 C98.88,36.34 98.88,36.34 98.88,36.34 C98.88,36.34 98.88,36.34 98.88,36.34 C98.93,36.34 98.88,36.34 98.88,36.34 L99.17,36.34 C99.17,36.34 99.17,36.39 99.17,36.39 C99.17,36.39 99.17,36.39 99.17,36.39 C99.17,36.39 99.17,36.39 99.17,36.39 C99.17,36.39 99.17,36.39 99.23,36.39 C99.29,36.39 99.23,36.39 99.23,36.39 C99.2520952,36.40075 99.2779048,36.40075 99.3,36.39 C99.3,36.39 99.3,36.39 99.3,36.39 C99.3,36.39 99.48,36.39 99.45,36.34 C99.42,36.29 99.45,36.34 99.45,36.34 C99.45,36.34 99.45,36.34 99.45,36.34 L99.52,36.34 C99.52,36.34 99.52,36.34 99.52,36.34 C99.52,36.34 99.52,36.34 99.52,36.34 C99.52,36.34 99.52,36.34 99.52,36.34 C99.52,36.34 99.52,36.34 99.52,36.34 C99.52,36.34 99.52,36.34 99.52,36.34 C99.52,36.34 99.52,36.34 99.52,36.34 C99.52,36.34 99.52,36.34 99.52,36.34 C99.52,36.34 99.52,36.41 99.52,36.41 C99.52,36.41 99.52,36.41 99.52,36.41 C99.52,36.41 99.52,36.41 99.52,36.41 C99.52,36.41 99.52,36.41 99.52,36.41 C99.52,36.41 99.52,36.41 99.52,36.41 C99.52,36.41 99.61,36.41 99.6,36.41 C99.59,36.41 99.6,36.41 99.6,36.41 C99.6,36.41 99.6,36.41 99.6,36.41 L99.66,36.41 C99.66,36.41 99.66,36.41 99.66,36.41 C99.66,36.41 99.66,36.41 99.66,36.41 C99.66,36.41 99.66,36.41 99.66,36.41 C99.66,36.41 99.66,36.41 99.66,36.41 C99.66,36.41 99.66,36.41 99.66,36.41 C99.66,36.41 99.66,36.41 99.66,36.41 C99.66,36.41 99.66,36.41 99.66,36.41 C99.66,36.41 99.66,36.41 99.66,36.41 C99.66,36.41 99.66,36.41 99.66,36.41 C99.66,36.41 99.66,36.41 99.66,36.41 C99.66,36.41 99.66,36.41 99.66,36.41 C99.66,36.41 99.66,36.41 99.66,36.41 C99.66,36.41 99.66,36.41 99.66,36.41 C99.66,36.41 99.66,36.41 99.66,36.41 C99.66,36.41 99.66,36.41 99.66,36.41 C99.66,36.41 99.66,36.41 99.66,36.41 C99.66,36.41 99.66,36.41 99.66,36.41 C99.66,36.41 99.66,36.41 99.66,36.41 C99.66,36.41 99.66,36.41 99.66,36.41 C99.66,36.41 99.66,36.41 99.66,36.41 C99.66,36.41 99.66,36.41 99.66,36.41 C99.66,36.41 99.66,36.41 99.66,36.41 C99.66,36.41 99.66,36.41 99.66,36.41 C99.66,36.41 99.66,36.41 99.66,36.41 C99.66,36.41 99.66,36.41 99.66,36.41 C99.66,36.41 99.66,36.41 99.66,36.41 C99.678475,36.3828444 99.678475,36.3471556 99.66,36.32 C99.6690059,36.3010138 99.6690059,36.2789862 99.66,36.26 C99.66,36.26 99.66,36.26 99.66,36.26 C99.66,36.26 99.66,36.26 99.66,36.26 C99.66,36.26 99.66,36.26 99.66,36.26 C99.66,36.26 99.66,36.26 99.66,36.26 L99.74,36.26 C99.74,36.26 99.74,36.26 99.74,36.26 C99.74,36.26 99.74,36.26 99.74,36.26 C99.74,36.26 99.79,36.26 99.79,36.26 C99.79,36.26 99.79,36.26 99.79,36.26 C99.79,36.26 99.5,35 99.5,35 Z" id="Path"></path>
                <path d="M97.53,36.18 L97.47,36.18 L97.47,36.07 L97.68,36.07 L97.68,36.2 L97.62,36.2 L97.53,36.18 Z M97.76,37.75 L97.55,37.75 L97.55,36.18 L97.61,36.18 L97.67,36.18 L97.76,37.75 Z" id="Shape"></path>
                <rect id="Rectangle" x="2.03" y="37.64" width="9.51" height="1"></rect>
                <rect id="Rectangle" x="27.58" y="37.6" width="6.35" height="1"></rect>
                <path d="M5,11.37 C5.37516064,10.9330002 5.84790572,10.5904313 6.38,10.37 C6.95428873,10.1501893 7.56513936,10.0415937 8.18,10.05 C8.62368661,10.0478197 9.06521506,10.1118582 9.49,10.24 C9.87488096,10.3560385 10.2392735,10.5314868 10.57,10.76 C10.8724765,10.9697438 11.1363709,11.2302549 11.35,11.53 C11.5548383,11.8150618 11.701001,12.1379793 11.78,12.48 L12.78,12.48 L12.78,12.42 C12.6748868,11.9370149 12.4779869,11.4787134 12.2,11.07 C11.9297113,10.6621005 11.5914764,10.3035715 11.2,10.01 C10.782827,9.70878214 10.3203776,9.47586969 9.83,9.32 C9.31288132,9.15410082 8.77307845,9.06975662 8.23,9.07 C7.46019954,9.08160454 6.70106046,9.25181509 6,9.57 C5.35375532,9.84274655 4.7764255,10.256101 4.31,10.78 C3.82924213,11.3311943 3.46524168,11.9741484 3.24,12.67 C2.98283415,13.4745321 2.857878,14.3154532 2.87,15.16 C2.85903304,16.0110216 2.98393676,16.8583414 3.24,17.67 C3.46481769,18.3720465 3.82871871,19.0216268 4.31,19.58 C4.77628485,20.1065257 5.35345394,20.5231804 6,20.8 C6.70231433,21.09527 7.45823021,21.2416861 8.22,21.23 C8.77481666,21.2316252 9.32703409,21.1541801 9.86,21 C10.3563645,20.8561347 10.8235035,20.6259503 11.24,20.32 C11.6424404,20.0186551 11.9821355,19.6415935 12.24,19.21 C12.508886,18.7520168 12.6855396,18.2458364 12.76,17.72 L12.76,17.67 L11.76,17.67 C11.6486185,18.4481607 11.2218559,19.1461708 10.58,19.6 C9.85294482,20.0635463 9.00159148,20.2938304 8.14,20.26 C7.5386702,20.290003 6.93729932,20.2016661 6.37,20 C5.84224094,19.776929 5.37332072,19.4346515 5,19 C4.60040268,18.532412 4.30090418,17.9878693 4.12,17.4 C3.90252093,16.6804759 3.79794485,15.9315762 3.81,15.18 C3.79735494,14.4316688 3.90195495,13.6859719 4.12,12.97 C4.29654564,12.3802943 4.59651767,11.8348906 5,11.37 Z" id="Path"></path>
                <path d="M19.75,9.35 L18.49,9.35 L17.37,12.28 L16.27,15.14 L15.14,18 L14,21 L15,21 L15.69,19.14 C15.92,18.5 16.14,17.89 16.34,17.32 L22,17.32 L23.39,21 L24.51,21 L19.76,9.38 L19.75,9.35 Z M21.7,16.54 L16.6,16.54 L19.08,10.28 L21.7,16.54 Z" id="Shape" fill-rule="nonzero"></path>
                <path d="M33.92,15.86 C33.6787938,15.6248372 33.4020739,15.4291085 33.1,15.28 C32.7779157,15.1228197 32.4434562,14.9923805 32.1,14.89 C31.76,14.78 31.4,14.69 31.04,14.61 L30.04,14.39 C29.5417637,14.2933076 29.0506418,14.1630099 28.57,14 C28.2412433,13.8909664 27.9310172,13.7324813 27.65,13.53 C27.4389203,13.3784501 27.2702169,13.1753173 27.16,12.94 C27.0609627,12.6956674 27.0133061,12.4335564 27.02,12.17 C27.0039704,11.5635145 27.297951,10.9906294 27.8,10.65 C28.49833,10.2315997 29.307699,10.0362348 30.12,10.09 C30.5586154,10.0835555 30.9960372,10.137392 31.42,10.25 C31.7761603,10.3430012 32.114188,10.4951136 32.42,10.7 C32.6847775,10.8817187 32.9122237,11.1125595 33.09,11.38 C33.2600382,11.6406276 33.3851101,11.927955 33.46,12.23 L34.36,12.23 L34.36,12.18 C34.2323017,11.2948173 33.7388817,10.503894 33,10 C32.6008605,9.72655347 32.157767,9.52360988 31.69,9.4 C31.1411257,9.23806288 30.5722511,9.15390984 30,9.15 C29.4455165,9.14274205 28.8929673,9.2168645 28.36,9.37 C27.9025326,9.50270795 27.4724458,9.71605809 27.09,10 C26.7441487,10.266609 26.4636964,10.608624 26.27,11 C26.0842017,11.3865086 25.9917215,11.8112328 26,12.24 C25.9941047,12.6213862 26.0690845,12.9996935 26.22,13.35 C26.3744712,13.6814102 26.6038356,13.9723949 26.89,14.2 C27.2351164,14.4728128 27.6194488,14.6919497 28.03,14.85 C28.5625642,15.057275 29.1110184,15.2211424 29.67,15.34 C30.43,15.5 31.08,15.66 31.59,15.81 C32.0240227,15.9291506 32.4408129,16.1039337 32.83,16.33 C33.1070143,16.4889262 33.3352571,16.7206273 33.49,17 C33.6374288,17.3119662 33.7061011,17.6553278 33.69,18 C33.701602,18.347663 33.6223262,18.6923405 33.46,19 C33.3003063,19.2917347 33.0742151,19.5418052 32.8,19.73 C32.496441,19.943466 32.1580644,20.102503 31.8,20.2 C31.3488079,20.3125292 30.8849703,20.3663075 30.42,20.36 C29.9416035,20.3431224 29.4660053,20.279486 29,20.17 C28.5946021,20.0945452 28.2054501,19.9490362 27.85,19.74 C27.50987,19.5366835 27.2194628,19.2599425 27,18.93 C26.7529096,18.5421951 26.5925807,18.1055546 26.53,17.65 L25.61,17.65 C25.6407122,18.167487 25.773244,18.6738265 26,19.14 C26.2173046,19.5842512 26.5358466,19.9712969 26.93,20.27 C27.376277,20.6027073 27.8820097,20.8470882 28.42,20.99 C29.0921246,21.1665103 29.7851657,21.2506172 30.48,21.24 C31.0490964,21.2482139 31.6159673,21.1672323 32.16,21 C32.6466607,20.8480696 33.1009847,20.6073457 33.5,20.29 C33.8668456,19.996724 34.1668634,19.6285204 34.38,19.21 C34.5953017,18.7821412 34.7050273,18.3089496 34.7,17.83 C34.7083152,17.4429111 34.6368307,17.0582565 34.49,16.7 C34.3563533,16.3856406 34.1627475,16.1003267 33.92,15.86 Z" id="Path"></path>
                <polygon id="Path" points="36.19 10.3 40.2 10.3 40.2 21.02 41.14 21.02 41.14 10.3 45.18 10.3 45.18 9.36 36.19 9.36"></polygon>
                <polygon id="Path" points="48.12 15.42 54.89 15.42 54.89 14.48 48.12 14.48 48.12 10.3 55.35 10.3 55.35 9.36 47.18 9.36 47.18 21.02 55.63 21.02 55.63 20.08 48.12 20.08"></polygon>
                <polygon id="Path" points="59.09 9.36 58.15 9.36 58.15 21.02 65.06 21.02 65.06 20.08 59.09 20.08"></polygon>
                <polygon id="Path" points="68.22 9.36 67.28 9.36 67.28 21.02 74.19 21.02 74.19 20.08 68.22 20.08"></polygon>
                <path d="M80.88,9.35 L79.63,9.35 L78.51,12.28 L77.41,15.14 L76.28,18 L75.16,21 L75.16,21.06 L76.16,21.06 L76.85,19.2 C77.09,18.56 77.31,17.95 77.51,17.38 L83.14,17.38 L84.53,21 L85.65,21 L80.89,9.38 L80.88,9.35 Z M82.83,16.54 L77.74,16.54 L80.22,10.28 L82.83,16.54 Z" id="Shape" fill-rule="nonzero"></path>
                <path d="M95.5,17.81 L95.22,17.08 C95.1423099,16.8762835 95.0486868,16.6790062 94.94,16.49 C94.8343246,16.3109632 94.710325,16.1433961 94.57,15.99 C94.4247508,15.8346655 94.2676076,15.6908963 94.1,15.56 C94.4527517,15.4866824 94.7907509,15.3548627 95.1,15.17 C95.3916824,14.9898905 95.64625,14.7556883 95.85,14.48 C96.0495312,14.2051957 96.1985243,13.8970509 96.29,13.57 C96.3875102,13.2116114 96.4346295,12.8413882 96.43,12.47 C96.4506441,11.9350251 96.340819,11.4030599 96.11,10.92 C95.9156762,10.5141847 95.6150234,10.1686067 95.24,9.92 C94.8570823,9.70062902 94.4365225,9.55478976 94,9.49 C93.5318865,9.40154601 93.0563931,9.35801493 92.58,9.36 L87.31,9.35993506 L87.31,21 L88.25,21 L88.25,15.8 L92.25,15.8 C92.5285487,15.7923169 92.8052934,15.8469825 93.06,15.96 C93.2891802,16.0713702 93.4959464,16.2239026 93.67,16.41 C93.8565373,16.6108147 94.0146751,16.8362452 94.14,17.08 C94.2798215,17.3490181 94.4033768,17.6261827 94.51,17.91 L95.68,21 L96.68,21 L95.5,17.81 Z M88.25,10.3 L92.46,10.3 C93.2361405,10.2462528 94.0111094,10.4200126 94.69,10.8 C95.2049374,11.1936127 95.4808081,11.8247141 95.42,12.47 C95.4285743,12.8520268 95.364085,13.2321743 95.23,13.59 C95.1132942,13.8853182 94.9157479,14.1417818 94.66,14.33 C94.3600898,14.5371005 94.0189742,14.6769579 93.66,14.74 C93.1789086,14.8320726 92.6897904,14.8756242 92.2,14.87 L88.2,14.87 L88.25,10.3 Z" id="Shape" fill-rule="nonzero"></path>
                <path d="M9.19,5.57 C9.22522062,6.16300588 8.97197415,6.73653467 8.51,7.11 C7.92137401,7.50538173 7.21718031,7.69199306 6.51,7.64 L3.84,7.64 L3.84,0.27 L6.5,0.27 C7.09634839,0.232137593 7.68989581,0.378778721 8.2,0.69 C8.60078972,1.0025523 8.82155556,1.4927273 8.79,2 C8.78961824,2.177826 8.77288107,2.35523998 8.74,2.53 C8.70606706,2.70955035 8.64181593,2.88201391 8.55,3.04 C8.45511522,3.20270189 8.32944079,3.34535936 8.18,3.46 C7.99986344,3.59524878 7.79123103,3.68759427 7.57,3.73 C7.85978215,3.74732753 8.14262995,3.82570704 8.4,3.96 C8.59468112,4.06308793 8.76249964,4.21035725 8.89,4.39 C9.00418011,4.55896083 9.08246234,4.74956102 9.12,4.95 C9.16316331,5.15394343 9.18660464,5.36156664 9.19,5.57 Z M4.38,7.1 L6.51,7.1 C7.90333333,7.1 8.6,6.59 8.6,5.57 C8.60410462,5.33532727 8.56686986,5.10176376 8.49,4.88 C8.41750907,4.68925209 8.28839823,4.52524642 8.12,4.41 C7.91162062,4.27036371 7.67675914,4.17505761 7.43,4.13 C7.07868986,4.05034846 6.72016259,4.00678907 6.36,4 L4.36,4 L4.38,7.1 Z M4.38,3.5 L6.38,3.5 C6.88412145,3.53597295 7.38784371,3.42480666 7.83,3.18 C8.15610156,2.92981661 8.33001332,2.52906343 8.29,2.12 C8.31815843,1.7365163 8.15770269,1.36336342 7.86,1.12 C7.44601133,0.867948926 6.96322892,0.752500958 6.48,0.79 L4.38,0.79 L4.38,3.5 Z" id="Shape" fill-rule="nonzero"></path>
                <path d="M13.93,0.13 C14.4067383,0.126017709 14.87942,0.217833582 15.32,0.4 C15.7377446,0.57462779 16.1129338,0.837260222 16.42,1.17 C16.7370301,1.51842404 16.9817577,1.92630328 17.14,2.37 C17.3184917,2.87046699 17.4065299,3.39869608 17.4,3.93 C17.4048575,4.46117453 17.3168677,4.989113 17.14,5.49 C16.9826892,5.94011595 16.7380049,6.35471988 16.42,6.71 C16.1138941,7.04879563 15.738829,7.31816053 15.32,7.5 C14.4202073,7.87169147 13.4097927,7.87169147 12.51,7.5 C12.0923911,7.32055154 11.717505,7.05472323 11.41,6.72 C11.0922688,6.36830456 10.8475363,5.957018 10.69,5.51 C10.5123811,5.00584843 10.4243864,4.4744958 10.43,3.94 C10.4227076,3.40537633 10.5107507,2.87373143 10.69,2.37 C10.8467701,1.92560901 11.0916645,1.5174517 11.41,1.17 C11.7192591,0.842267318 12.0940543,0.58331785 12.51,0.41 C12.9590831,0.220143686 13.442461,0.124829737 13.93,0.13 Z M13.93,7.24 C14.3319783,7.23762671 14.72955,7.15607354 15.1,7 C15.4537627,6.85852994 15.7714875,6.63988062 16.03,6.36 C16.2970662,6.06998678 16.5043501,5.73017711 16.64,5.36 C16.7913558,4.90898033 16.8657277,4.43570423 16.86,3.96 C16.8680806,3.4841292 16.7936464,3.01045656 16.64,2.56 C16.5060493,2.18900561 16.2985704,1.84887635 16.03,1.56 C15.7740014,1.28419449 15.4597025,1.06896805 15.11,0.93 C14.7405298,0.785721754 14.346602,0.714407226 13.95,0.72 C13.5461347,0.716266882 13.1453864,0.790982682 12.77,0.94 C12.417492,1.07914718 12.0999671,1.2942447 11.84,1.57 C11.5707627,1.85837056 11.3631958,2.19864413 11.23,2.57 C11.0768939,3.00704357 10.9991215,3.46691493 11,3.93 C10.9942723,4.40570423 11.0686442,4.87898033 11.22,5.33 C11.3526625,5.69937153 11.5565134,6.03912297 11.82,6.33 C12.0749663,6.60942696 12.3893452,6.82812531 12.74,6.97 C13.1145172,7.13897937 13.5192293,7.23080481 13.93,7.24 Z" id="Shape" fill-rule="nonzero"></path>
                <path d="M24.92,3.9 C24.92,6.4 23.6766667,7.65 21.19,7.65 L19,7.65 L19,0.27 L21.23,0.27 C22.2452758,0.190929543 23.2509394,0.514178562 24.03,1.17 C24.68927,1.91900104 25.0111546,2.90635504 24.92,3.9 Z M24.35,3.9 C24.3569644,3.46255856 24.3099427,3.02592836 24.21,2.6 C24.1276318,2.22878276 23.9521207,1.88464345 23.7,1.6 C23.4254781,1.31304905 23.0807685,1.10277617 22.7,0.99 C22.2014071,0.837151482 21.6813136,0.766229638 21.16,0.78 L19.5,0.78 L19.5,7.08 L21.18,7.08 C21.6987022,7.09254007 22.2158457,7.01817957 22.71,6.86 C23.0931144,6.74198349 23.438143,6.52461551 23.71,6.23 C23.9576272,5.94231712 24.132533,5.59936456 24.22,5.23 C24.312811,4.79302569 24.3530963,4.34652985 24.34,3.9 L24.35,3.9 Z" id="Shape" fill-rule="nonzero"></path>
                <path d="M32.36,7.64 L31.71,7.64 L30.81,5.27 L27.18,5.27 L26.76,6.45 L26.32,7.64 L25.75,7.64 L26.47,5.77 L27.17,3.95 L27.87,2.13 L28.59,0.26 L29.35,0.26 L32.36,7.64 Z M30.66,4.84 L28.95,0.74 L27.33,4.84 L30.66,4.84 Z" id="Shape" fill-rule="nonzero"></path>
                <path d="M36.22,7.78 C35.7780628,7.78698221 35.3372653,7.73314435 34.91,7.62 C34.5708484,7.53128545 34.2517868,7.37854319 33.97,7.17 C33.7242996,6.981435 33.5257504,6.7383833 33.39,6.46 C33.2499177,6.16869034 33.1683764,5.85271763 33.15,5.53 L33.68,5.53 C33.7188645,5.82509059 33.821213,6.10825488 33.98,6.36 C34.121294,6.57565505 34.3092615,6.75678735 34.53,6.89 C34.7584637,7.02574608 35.0089004,7.12050588 35.27,7.17 C35.5634275,7.22505368 35.8614582,7.25184295 36.16,7.25 C36.4597461,7.25536477 36.7589184,7.22174991 37.05,7.15 C37.2894937,7.09092085 37.5164296,6.98930775 37.72,6.85 C37.8994611,6.72646712 38.0468724,6.56191494 38.15,6.37 C38.251538,6.17571366 38.3030894,5.95919764 38.3,5.74 C38.3056988,5.52601526 38.2611753,5.31367242 38.17,5.12 C38.0696989,4.93669771 37.9209484,4.78448787 37.74,4.68 C37.4892312,4.5324037 37.2203011,4.41810842 36.94,4.34 C36.6066667,4.24 36.1966667,4.14 35.71,4.04 C35.3690699,3.96298748 35.0347099,3.85933588 34.71,3.73 C34.4528698,3.62355449 34.2134566,3.47855774 34,3.3 C33.8204514,3.15863712 33.6765929,2.97710136 33.58,2.77 C33.4874509,2.54854535 33.4431343,2.30991739 33.45,2.07 C33.4458453,1.79604915 33.5075781,1.5251106 33.63,1.28 C33.7549932,1.03997269 33.9327836,0.831410795 34.15,0.67 C34.3902204,0.489283696 34.6612947,0.353746501 34.95,0.27 C35.2749884,0.176057199 35.6117079,0.128916457 35.95,0.13 C36.2875839,0.129418345 36.6237855,0.173124555 36.95,0.26 C37.2464966,0.337892742 37.5272973,0.466452081 37.78,0.64 C38.2526161,0.966177872 38.562227,1.47976776 38.63,2.05 L38.11,2.05 C38.0615194,1.85446763 37.9803795,1.66852192 37.87,1.5 C37.7558958,1.32736806 37.6099636,1.17804207 37.44,1.06 C37.2474331,0.929246053 37.0345581,0.831255983 36.81,0.77 C36.5359559,0.698064868 36.253273,0.664412135 35.97,0.67 C35.4449326,0.63357079 34.9213403,0.759232962 34.47,1.03 C34.1635046,1.256496 33.987814,1.61909138 34,2 C33.9940691,2.17441873 34.024727,2.34814668 34.09,2.51 C34.1615837,2.66521141 34.2717562,2.79948408 34.41,2.9 C34.5934885,3.03008316 34.7958403,3.13125906 35.01,3.2 C35.3107807,3.30365167 35.6181266,3.38716957 35.93,3.45 L36.6,3.59 C36.8266667,3.63666667 37.05,3.69666667 37.27,3.77 C37.4831123,3.83635967 37.6904647,3.91996951 37.89,4.02 C38.08133,4.1116606 38.2568575,4.23317965 38.41,4.38 C38.5590142,4.52921852 38.677851,4.70577609 38.76,4.9 C38.8519195,5.1251438 38.8961835,5.36689367 38.89,5.61 C38.8933727,5.9117681 38.8248139,6.20999894 38.69,6.48 C38.5574509,6.74342019 38.3698911,6.97531229 38.14,7.16 C37.8894639,7.35711104 37.6046919,7.50627729 37.3,7.6 C36.9519605,7.71744177 36.5873158,7.77821588 36.22,7.78 Z" id="Path"></path>
            </g>
        </g>
    </g>
</svg>