<?xml version="1.0" encoding="UTF-8"?>
<svg width="100px" height="18px" viewBox="0 0 100 18" version="1.1" xmlns="http://www.w3.org/2000/svg" xmlns:xlink="http://www.w3.org/1999/xlink">
    <!-- Generator: Sketch 52.5 (67469) - http://www.bohemiancoding.com/sketch -->
    <title>allic</title>
    <desc>Created with Sketch.</desc>
    <g id="Page-1" stroke="none" stroke-width="1" fill="none" fill-rule="evenodd">
        <g id="Artboard" transform="translate(-22.000000, -40.000000)" fill="#FFFFFF">
            <g id="allic" transform="translate(22.000000, 40.000000)">
                <path d="M0,5.65 C0,2.65 2,0.1 4.52,0.1 C6.18917316,0.208365454 7.66940697,1.21048756 8.39,2.72 L7.56,3.23 C6.64,1.7 5.56,1.08 4.56,1.08 C2.63,1.08 1.01,3.08 1.01,5.65 C1.01,8.22 2.64,10.22 4.56,10.22 C5.63,10.22 6.68,9.6 7.56,8.07 L8.39,8.58 C7.66445048,10.0852395 6.1870469,11.0854456 4.52,11.2 C1.79,11.2 0,8.42 0,5.65 Z" id="Path"></path>
                <path d="M12.3,8.69 C12.4579411,7.18438835 13.7915533,6.08193561 15.3,6.21 L17,6.21 C17.06,6.21 17.33,6.21 17.33,5.84 L17.33,5.39 C17.2052484,4.4591838 16.364354,3.79531977 15.43,3.89 C14.7969789,3.86296627 14.1885898,4.13748329 13.79,4.63 L13.5,5.02 L12.73,4.44 L13,4 C13.5852622,3.26522598 14.4809067,2.84701182 15.42,2.87 C16.8827841,2.79445277 18.1427084,3.89080795 18.27,5.35 L18.27,8.66 C18.1121157,10.1643305 16.7766585,11.2638569 15.27,11.13 C13.7866177,11.2423231 12.4776937,10.1669781 12.3,8.69 Z M15.3,7.2 C14.2,7.2 13.3,7.87 13.3,8.69 C13.3,9.51 14.22,10.19 15.3,10.19 C16.38,10.19 17.3,9.49 17.3,8.69 L17.3,7.15 C17.1804351,7.16445222 17.0595649,7.16445222 16.94,7.15 L15.3,7.2 Z" id="Shape" fill-rule="nonzero"></path>
                <path d="M23.06,11.17 L23.06,6.1 C23.0357798,5.28038464 23.338323,4.48475017 23.9010053,3.88830692 C24.4636877,3.29186366 25.2403644,2.94352493 26.06,2.92 L26.2,2.92 L26.2,3.92 L26,3.92 C24.8421345,3.97932084 23.949029,4.96173694 24,6.12 L24,11.2 L23.06,11.17 Z" id="Path"></path>
                <path d="M29.76,7.05 C29.76,4.8 31.34,2.92 33.25,2.92 C34.352152,2.92620929 35.3730197,3.50092002 35.95,4.44 L35.18,5.02 C34.7745535,4.34058291 34.0508146,3.91463243 33.26,3.89 C31.9,3.89 30.75,5.25 30.75,7.06 C30.75,8.87 31.89,10.22 33.26,10.22 C34.0763507,10.2112877 34.8312665,9.78476032 35.26,9.09 L36.03,9.67 C35.4352952,10.6054099 34.4083776,11.1771735 33.3,11.19 C31.11,11.17 29.76,9.06 29.76,7.05 Z" id="Path"></path>
                <path d="M46.43,6.19 L46.43,11.19 L45.43,11.19 L45.43,6.19 C45.480971,5.03173694 44.5878655,4.04932084 43.43,3.99 L41.8,3.99 C41.680213,4.00011137 41.559787,4.00011137 41.44,3.99 L41.44,11.21 L40.44,11.21 L40.44,0.1 L41.44,0.1 L41.44,2.59 C41.44,3.03 41.72,3.03 41.76,3.03 L43.45,3.03 C45.13619,3.10030275 46.4585977,4.50258741 46.43,6.19 Z" id="Path"></path>
                <path d="M50.76,8.69 C50.9179411,7.18438835 52.2515533,6.08193561 53.76,6.21 L55.44,6.21 C55.5,6.21 55.77,6.21 55.77,5.84 L55.77,5.39 C55.6452484,4.4591838 54.804354,3.79531977 53.87,3.89 C53.2369789,3.86296627 52.6285898,4.13748329 52.23,4.63 L51.94,5.02 L51.17,4.44 L51.46,4.05 C52.0452622,3.31522598 52.9409067,2.89701182 53.88,2.92 C55.3427841,2.84445277 56.6027084,3.94080795 56.73,5.4 L56.73,8.71 C56.73,10.3668542 55.3868542,11.1410316 53.73,11.1410316 C52.0731458,11.1410316 50.73,10.3668542 50.73,8.71 L50.76,8.69 Z M53.76,7.2 C52.66,7.2 51.76,7.87 51.76,8.69 C51.76,9.51 52.68,10.19 53.76,10.19 C54.84,10.19 55.76,9.49 55.76,8.69 L55.76,7.15 C55.6404351,7.16445222 55.5195649,7.16445222 55.4,7.15 L53.76,7.2 Z" id="Shape" fill-rule="nonzero"></path>
                <path d="M61.52,11.17 L61.52,6.1 C61.4957798,5.28038464 61.798323,4.48475017 62.3610053,3.88830692 C62.9236877,3.29186366 63.7003644,2.94352493 64.52,2.92 L64.66,2.92 L64.66,3.92 L64.52,3.92 C63.3621345,3.97932084 62.469029,4.96173694 62.52,6.12 L62.52,11.2 L61.52,11.17 Z" id="Path"></path>
                <path d="M72.4,10.21 L72.54,10.21 L72.54,11.21 L72.4,11.21 C70.6899774,11.1502271 69.3494392,9.72031978 69.4,8.01 L69.4,0.1 L70.4,0.1 L70.4,3.1 C70.5429664,3.08549504 70.6870336,3.08549504 70.83,3.1 L72.55,3.1 L72.55,4.1 L70.82,4.1 C70.39,4.1 70.38,4.31 70.38,4.42 L70.38,8 C70.3401264,9.16347863 71.2376319,10.145403 72.4,10.21 Z" id="Path"></path>
                <path d="M76.58,7.16 C76.58,4.9 78.05,2.92 80.05,2.92 C81.61,2.92 82.7,3.8 82.7,4.99 C82.7,6.18 81.45,7.21 79.7,7.21 L77.85,7.21 C77.62,7.21 77.59,7.44 77.59,7.54 C77.6621547,8.91078317 78.7076223,10.0321315 80.07,10.2 C80.889447,10.2029789 81.6496828,9.77344562 82.07,9.07 L82.84,9.65 C82.2329952,10.6277907 81.1502783,11.207273 80,11.17 C78,11.17 76.58,9.27 76.58,7.16 Z M77.58,6.24 L77.8,6.24 L79.67,6.24 C80.88,6.24 81.67,5.7 81.67,5 C81.67,4.5 81.2,3.9 80,3.9 C78.7612163,4.04011443 77.7762701,5.00445504 77.61,6.24 L77.58,6.24 Z" id="Shape" fill-rule="nonzero"></path>
                <path d="M87.34,11.17 L87.34,6.1 C87.3157798,5.28038464 87.618323,4.48475017 88.1810053,3.88830692 C88.7436877,3.29186366 89.5203644,2.94352493 90.34,2.92 L90.48,2.92 L90.48,3.92 L90.34,3.92 C89.1821345,3.97932084 88.289029,4.96173694 88.34,6.12 L88.34,11.2 L87.34,11.17 Z" id="Path"></path>
                <path d="M94.08,9.66 L94.84,9.07 C95.2969981,9.88315095 96.2066164,10.3320019 97.13,10.2 C98.34,10.2 99.03,9.64 99.03,8.75 C99.03,7.86 98.12,7.69 97.03,7.41 C95.54,7.04 94.32,6.53 94.32,5.11 C94.32,3.69 95.32,2.92 96.91,2.92 C98.0345535,2.91160619 99.0830295,3.48694321 99.68,4.44 L98.92,5.03 C98.4886867,4.29934489 97.698354,3.85645313 96.85,3.87 C95.85,3.87 95.31,4.38 95.31,5.11 C95.31,5.84 96.22,6.2 97.31,6.47 C98.74,6.83 100.01,7.31 100.01,8.72 C100.01,10.13 98.87,11.17 97.13,11.17 C95.9104319,11.2794037 94.7324078,10.6961852 94.08,9.66 Z" id="Path"></path>
                <path d="M10,14.9 C10.4445892,14.9 10.805,15.2604108 10.805,15.705 C10.805,16.1495892 10.4445892,16.51 10,16.51 L9.28,16.51 C9.16,16.51 9.14,16.58 9.14,16.59 L9.14,17.9 L8.79,17.9 L8.79,14.9 L10,14.9 Z M10.43,15.7 C10.43,15.4569947 10.2330053,15.26 9.99,15.26 L9.15,15.26 L9.15,16.18 C9.15,16.18 9.15,16.18 9.29,16.18 L10,16.18 C10.1298514,16.1889882 10.2572337,16.1413107 10.3492722,16.0492722 C10.4413107,15.9572337 10.4889882,15.8298514 10.48,15.7 L10.43,15.7 Z" id="Shape" fill-rule="nonzero"></path>
                <path d="M13.64,14.9 C14.0818278,14.9 14.44,15.2581722 14.44,15.7 C14.4371032,16.0384338 14.2265787,16.340318 13.91,16.46 L14.55,17.9 L14.16,17.9 L13.58,16.6 C13.58,16.5 13.47,16.5 13.47,16.5 L12.88,16.5 C12.76,16.5 12.74,16.57 12.74,16.58 L12.74,17.9 L12.38,17.9 L12.38,14.9 L13.64,14.9 Z M14.07,15.7 C14.07,15.4569947 13.8730053,15.26 13.63,15.26 L12.74,15.26 L12.74,16.18 C12.74,16.18 12.74,16.18 12.88,16.18 L13.63,16.18 C13.7529862,16.1775417 13.8696051,16.1248439 13.9527265,16.0341659 C14.0358479,15.943488 14.0782253,15.8227355 14.07,15.7 Z" id="Shape" fill-rule="nonzero"></path>
                <path d="M16.1,17.9 L16.1,14.9 L18,14.9 L18,15.26 L16.5,15.26 L16.5,16.18 C16.5556942,16.1651536 16.6143058,16.1651536 16.67,16.18 L18,16.18 L18,16.54 L16.61,16.54 C16.51,16.54 16.47,16.6 16.47,16.63 L16.47,17.58 L18,17.58 L18,17.94 L16.1,17.9 Z" id="Path"></path>
                <polygon id="Path" points="22 14.9 22 17.9 21.64 17.9 21.64 16 21 17.9 20.68 17.9 20 16 20 17.9 19.64 17.9 19.64 14.9 19.98 14.9 20.85 17.29 21.72 14.9"></polygon>
                <polygon id="Path" points="24 14.9 24.36 14.9 24.36 17.9 24 17.9"></polygon>
                <path d="M26.25,16.92 L26.25,14.92 L26.61,14.92 L26.61,16.92 C26.5795332,17.1584428 26.6896397,17.393008 26.8925393,17.521907 C27.0954389,17.6508059 27.3545611,17.6508059 27.5574607,17.521907 C27.7603603,17.393008 27.8704668,17.1584428 27.84,16.92 L27.84,14.92 L28.2,14.92 L28.2,16.92 C28.2,17.4722847 27.7522847,17.92 27.2,17.92 C26.6477153,17.92 26.2,17.4722847 26.2,16.92 L26.25,16.92 Z" id="Path"></path>
                <polygon id="Path" points="32.3 14.9 32.3 17.9 31.94 17.9 31.94 16 31.25 17.89 30.93 17.89 30.25 16 30.25 17.9 29.89 17.9 29.89 14.9 30.23 14.9 31.1 17.29 32 14.9"></polygon>
                <path d="M37.52,14.9 C37.9618278,14.9 38.32,15.2581722 38.32,15.7 C38.3171032,16.0384338 38.1065787,16.340318 37.79,16.46 L38.43,17.9 L38,17.9 L37.42,16.6 C37.42,16.5 37.31,16.5 37.31,16.5 L36.72,16.5 C36.6,16.5 36.58,16.57 36.58,16.58 L36.58,17.9 L36.22,17.9 L36.22,14.9 L37.52,14.9 Z M37.95,15.7 C37.95,15.4569947 37.7530053,15.26 37.51,15.26 L36.62,15.26 L36.62,16.18 C36.62,16.18 36.62,16.18 36.76,16.18 L37.51,16.18 C37.6415129,16.1920711 37.7716896,16.145762 37.8660319,16.053345 C37.9603741,15.9609281 38.0093572,15.8317338 38,15.7 L37.95,15.7 Z" id="Shape" fill-rule="nonzero"></path>
                <path d="M40,17.9 L40,14.9 L41.86,14.9 L41.86,15.26 L40.36,15.26 L40.36,16.18 C40.4156942,16.1651536 40.4743058,16.1651536 40.53,16.18 L41.85,16.18 L41.85,16.54 L40.5,16.54 C40.4,16.54 40.36,16.6 40.36,16.63 L40.36,17.58 L41.86,17.58 L41.86,17.94 L40,17.9 Z" id="Path"></path>
                <polygon id="Path" points="45.06 17.9 43.86 15.69 43.86 17.9 43.5 17.9 43.5 14.9 43.83 14.9 45.12 17.27 45.12 14.9 45.48 14.9 45.48 17.9"></polygon>
                <polygon id="Path" points="49.35 15.26 48.35 15.26 48.35 17.9 48 17.9 48 15.26 47.07 15.26 47.07 14.9 49.33 14.9"></polygon>
                <path d="M50.68,17.9 L51.68,14.9 L52,14.9 L53,17.9 L52.62,17.9 L52.28,16.9 C52.2140423,16.9137501 52.1459577,16.9137501 52.08,16.9 L51.47,16.9 C51.32,16.9 51.27,16.98 51.27,17 L50.98,17.83 L50.68,17.9 Z M51.48,16.65 C51.5160154,16.6402262 51.5539846,16.6402262 51.59,16.65 L52.08,16.65 C52.2,16.65 52.23,16.65 52.23,16.65 L51.87,15.65 L51.48,16.65 Z" id="Shape" fill-rule="nonzero"></path>
                <polygon id="Path" points="56.58 17.54 56.58 17.9 54.63 17.9 54.63 14.9 55 14.9 55 17.54"></polygon>
                <path d="M60.26,17.35 L60.55,17.13 C60.7380682,17.416016 61.0693815,17.5739676 61.41,17.54 C61.88,17.54 62.12,17.33 62.12,17.01 C62.12,16.69 61.9,16.65 61.38,16.52 C60.86,16.39 60.38,16.26 60.38,15.69 C60.38,15.12 60.74,14.89 61.33,14.89 C61.7206526,14.8820833 62.0918285,15.0602478 62.33,15.37 L62.04,15.59 C61.8522761,15.3704973 61.5788137,15.2428816 61.29,15.24 C60.9,15.24 60.7,15.43 60.7,15.68 C60.7,15.93 60.92,16.04 61.45,16.17 C61.98,16.3 62.45,16.43 62.45,17 C62.45,17.57 61.96,17.89 61.38,17.89 C60.9392083,17.9117802 60.5174702,17.7084421 60.26,17.35 Z" id="Path"></path>
                <path d="M64,16.4 C63.8987925,15.8995341 64.1096251,15.3874655 64.5338693,15.1033424 C64.9581135,14.8192194 65.5118865,14.8192194 65.9361307,15.1033424 C66.3603749,15.3874655 66.5712075,15.8995341 66.47,16.4 C66.47,17.06 66.04,17.9 65.24,17.9 C64.489894,17.8160162 63.9413993,17.1525146 64,16.4 Z M64.36,16.4 C64.484105,16.8485339 64.9296976,17.1284759 65.3876486,17.0456165 C65.8455995,16.9627572 66.1648505,16.5444283 66.1239216,16.0808449 C66.0829928,15.6172615 65.6953847,15.2613398 65.23,15.26 C64.9636278,15.2946339 64.722389,15.4349753 64.5606192,15.6494145 C64.3988493,15.8638536 64.3301519,16.1343578 64.37,16.4 L64.36,16.4 Z" id="Shape" fill-rule="nonzero"></path>
                <polygon id="Path" points="70.12 17.54 70.12 17.9 68.18 17.9 68.18 14.9 68.54 14.9 68.54 17.54"></polygon>
                <path d="M71.73,16.92 L71.73,14.92 L72.09,14.92 L72.09,16.92 C72.0595332,17.1584428 72.1696397,17.393008 72.3725393,17.521907 C72.5754389,17.6508059 72.8345611,17.6508059 73.0374607,17.521907 C73.2403603,17.393008 73.3504668,17.1584428 73.32,16.92 L73.32,14.92 L73.68,14.92 L73.68,16.92 C73.68,17.4722847 73.2322847,17.92 72.68,17.92 C72.1277153,17.92 71.68,17.4722847 71.68,16.92 L71.73,16.92 Z" id="Path"></path>
                <polygon id="Path" points="77.53 15.26 76.53 15.26 76.53 17.9 76.17 17.9 76.17 15.26 75.24 15.26 75.24 14.9 77.5 14.9"></polygon>
                <polygon id="Path" points="79.35 14.9 79.71 14.9 79.71 17.9 79.35 17.9"></polygon>
                <path d="M81.41,16.4 C81.3087925,15.8995341 81.5196251,15.3874655 81.9438693,15.1033424 C82.3681135,14.8192194 82.9218865,14.8192194 83.3461307,15.1033424 C83.7703749,15.3874655 83.9812075,15.8995341 83.88,16.4 C83.88,17.06 83.45,17.9 82.65,17.9 C81.899894,17.8160162 81.3513993,17.1525146 81.41,16.4 Z M81.77,16.4 C81.894105,16.8485339 82.3396976,17.1284759 82.7976486,17.0456165 C83.2555995,16.9627572 83.5748505,16.5444283 83.5339216,16.0808449 C83.4929928,15.6172615 83.1053847,15.2613398 82.64,15.26 C82.371808,15.2921758 82.1280391,15.4314783 81.9641674,15.6462067 C81.8002957,15.8609351 81.7302607,16.132824 81.77,16.4 Z" id="Shape" fill-rule="nonzero"></path>
                <polygon id="Path" points="87.13 17.9 85.93 15.69 85.93 17.9 85.57 17.9 85.57 14.9 85.9 14.9 87.19 17.27 87.19 14.9 87.55 14.9 87.55 17.9"></polygon>
                <path d="M89.11,17.35 L89.4,17.13 C89.5880682,17.416016 89.9193815,17.5739676 90.26,17.54 C90.73,17.54 90.97,17.33 90.97,17.01 C90.97,16.69 90.75,16.65 90.23,16.52 C89.71,16.39 89.23,16.26 89.23,15.69 C89.23,15.12 89.59,14.89 90.18,14.89 C90.5706526,14.8820833 90.9418285,15.0602478 91.18,15.37 L90.89,15.59 C90.7022761,15.3704973 90.4288137,15.2428816 90.14,15.24 C89.75,15.24 89.55,15.43 89.55,15.68 C89.55,15.93 89.77,16.04 90.3,16.17 C90.83,16.3 91.3,16.43 91.3,17 C91.3,17.57 90.81,17.89 90.23,17.89 C89.7892083,17.9117802 89.3674702,17.7084421 89.11,17.35 Z" id="Path"></path>
            </g>
        </g>
    </g>
</svg>