<?xml version="1.0" encoding="UTF-8"?>
<svg width="100px" height="62px" viewBox="0 0 100 62" version="1.1" xmlns="http://www.w3.org/2000/svg" xmlns:xlink="http://www.w3.org/1999/xlink">
    <!-- Generator: Sketch 52.5 (67469) - http://www.bohemiancoding.com/sketch -->
    <title>allic</title>
    <desc>Created with Sketch.</desc>
    <g id="Page-1" stroke="none" stroke-width="1" fill="none" fill-rule="evenodd">
        <g id="Artboard" transform="translate(-22.000000, -18.000000)" fill="#FFFFFF">
            <g id="allic" transform="translate(22.000000, 18.000000)">
                <g id="Group">
                    <path d="M85.8,47.42 C85.8067634,47.015995 85.6434768,46.6277357 85.35,46.35 C85.0924203,46.0692973 84.7309166,45.9066206 84.35,45.9 L82.72,45.9 L82.72,59.1 C82.72,60.48 83.29,61.21 84.44,61.3 C85.5020428,61.374087 86.5679572,61.374087 87.63,61.3 L87.63,59 L86.69,59 C86.1,59 85.8,58.74 85.8,58.23 L85.8,51.6 L86.11,51.6 C86.5133703,51.6088011 86.9030663,51.4536443 87.19,51.17 C87.4844711,50.8812848 87.6441238,50.4821531 87.63,50.07 L87.63,49.44 L85.8,49.44 L85.8,47.42 Z" id="Path"></path>
                    <path d="M21.17,50 C20.0305401,49.3546975 18.7263374,49.0590782 17.42,49.15 C16.1903261,49.058215 14.9688351,49.4132996 13.98,50.15 C13.27591,50.7185337 12.8233988,51.5409549 12.72,52.44 L15.72,52.44 C15.8541131,52.1282894 16.1110446,51.8858329 16.43,51.77 C16.7898945,51.6448065 17.1690013,51.5838786 17.55,51.59 C17.9837121,51.598883 18.4142507,51.6661547 18.83,51.79 C19.245348,51.8733524 19.5381329,52.2467592 19.52,52.67 C19.52,53.27 18.86,53.67 17.52,53.83 C17.2809623,53.8544196 17.0437856,53.8945058 16.81,53.95 C16.6321853,53.9862921 16.4514443,54.0063744 16.27,54.01 C15.2665769,54.1399868 14.309418,54.5104999 13.48,55.09 C12.6924097,55.7549084 12.2812949,56.7640083 12.38,57.79 C12.2748408,58.8950381 12.7288978,59.9795212 13.59,60.68 C14.4052808,61.2726307 15.3923188,61.5817387 16.4,61.56 C16.94,61.56 17.56,61.56 18.26,61.45 C18.9590036,61.3738012 19.6374524,61.1668743 20.26,60.84 C20.8954184,60.5008591 21.4274762,59.9964406 21.8,59.38 C22.2778055,58.5235585 22.5031756,57.5492663 22.45,56.57 L22.45,52.5 C22.4861276,51.5009959 22.0016303,50.554712 21.17,50 Z M19.56,56.47 C19.6050746,57.2054675 19.3487242,57.9275811 18.85,58.47 C18.3088121,58.9707636 17.5857979,59.2274336 16.85,59.18 C16.4319684,59.2088632 16.0182401,59.0804648 15.69,58.82 C15.4138131,58.5343879 15.2689007,58.1467472 15.29,57.75 C15.2931592,57.3934988 15.4009533,57.045776 15.6,56.75 C15.9304729,56.4603035 16.3299591,56.2605604 16.76,56.17 L17.76,55.94 C18.3595596,55.811225 18.9430873,55.6167157 19.5,55.36 L19.56,56.47 Z" id="Shape" fill-rule="nonzero"></path>
                    <path d="M8.23,57.89 C8.09818226,57.9904622 7.9804622,58.1081823 7.88,58.24 C7.79,58.34 7.7,58.42 7.63,58.49 C7.56257501,58.5648491 7.4762078,58.6201241 7.38,58.65 C6.98993507,58.8820557 6.54386231,59.0030832 6.09,59 C5.42597211,59.0481002 4.7779181,58.7814722 4.34,58.28 C3.72374074,57.4417773 3.43884011,56.4054513 3.54,55.37 C3.43784679,54.3063851 3.72180994,53.2415233 4.34,52.37 C4.77785063,51.931395 5.38103582,51.6988417 6,51.73 C6.61825473,51.691045 7.22326754,51.9206583 7.66,52.36 C7.84051777,52.5628778 7.98890416,52.7922022 8.1,53.04 L11.23,53.04 C10.9907655,52.1965631 10.5710797,51.4151968 10,50.75 C8.91640928,49.6284637 7.39669476,49.0366518 5.84,49.13 C4.32377203,49.047232 2.85209083,49.6579797 1.84,50.79 C0.865026365,52.0753595 0.38896207,53.6705302 0.5,55.28 C0.390984938,56.9466839 0.90009963,58.5950762 1.93,59.91 C2.94209083,61.0420203 4.41377203,61.652768 5.93,61.57 C7.17079907,61.6223032 8.3951837,61.2714767 9.42,60.57 C10.3683248,59.8651167 11.031941,58.8430767 11.29,57.69 L9,57.69 C8.72833343,57.6702874 8.45773418,57.7405729 8.23,57.89 Z" id="Path"></path>
                    <path d="M98.07,50.75 C96.9864093,49.6284637 95.4666948,49.0366518 93.91,49.13 C92.393772,49.047232 90.9220908,49.6579797 89.91,50.79 C88.9248603,52.0719327 88.4349064,53.666058 88.53,55.28 C88.432272,56.9518033 88.9558041,58.6007514 90,59.91 C91.0120908,61.0420203 92.483772,61.652768 94,61.57 C95.237855,61.6237538 96.4595172,61.2727015 97.48,60.57 C98.4340602,59.8686857 99.1018956,58.8456187 99.36,57.69 L97.09,57.69 C96.7953996,57.6717114 96.5031697,57.7526908 96.26,57.92 C96.1182784,58.0095986 96.0013607,58.1333939 95.92,58.28 C95.83,58.36 95.75,58.45 95.68,58.52 C95.610599,58.592483 95.524887,58.6473387 95.43,58.68 C95.0354087,58.8967032 94.5899706,59.0037464 94.14,58.99 C93.4781381,59.0374485 92.8317086,58.7751828 92.39,58.28 C91.9239114,57.6936083 91.6859085,56.9582858 91.72,56.21 L99.45,56.21 C99.4730205,56.1045754 99.4730205,55.9954246 99.45,55.89 L99.45,55.4 C99.5706774,53.7337674 99.080076,52.0806542 98.07,50.75 Z M91.72,54.16 C91.7033562,53.496133 91.9433352,52.8514133 92.39,52.36 C92.8175575,51.9380895 93.3996447,51.7103163 94,51.73 C94.6182547,51.691045 95.2232675,51.9206583 95.66,52.36 C96.0566132,52.8767726 96.2742424,53.5085993 96.28,54.16 L91.72,54.16 Z" id="Shape" fill-rule="nonzero"></path>
                    <path d="M30.09,49.4 C29.2962395,49.396386 28.5056705,49.5006738 27.74,49.71 C27.0123931,49.9041919 26.3319177,50.2444296 25.74,50.71 C25.124785,51.2231853 24.6441976,51.8788438 24.34,52.62 C23.9651338,53.5534706 23.7880671,54.5545785 23.82,55.56 L23.82,61.35 L27,61.35 L27,55.19 C26.9296544,54.4654385 27.1570856,53.7434347 27.63,53.19 C28.1577193,52.7276782 28.8509621,52.500208 29.55,52.56 L30.55,52.56 L30.55,49.3999092 L30.1,49.4 L30.09,49.4 Z" id="Path"></path>
                    <path d="M67.79,50.16 C66.7037926,49.4873441 65.4474678,49.1402931 64.17,49.16 C63.5281831,49.1891003 62.8912747,49.2863126 62.27,49.45 C61.6840047,49.6027418 61.1403386,49.8865423 60.68,50.28 C60.1655647,49.8386523 59.5510776,49.5296923 58.89,49.38 C58.2337784,49.2313868 57.5628349,49.157583 56.89,49.16 C55.6401988,49.2087871 54.4270742,49.595881 53.38,50.28 C52.38,50.97 51.8,52.28 51.8,54.37 L51.8,61.37 L54.93,61.37 L54.93,53.71 C54.875277,53.1178545 55.1054557,52.5349826 55.55,52.14 C55.9549495,51.8137827 56.4600058,51.6371896 56.98,51.64 C57.5088201,51.6391133 58.0227455,51.8151152 58.44,52.14 C58.894696,52.5290255 59.1331401,53.1139585 59.08,53.71 L59.08,61.34 L62.17,61.34 L62.17,53.71 C62.1158354,53.1117002 62.35877,52.5249199 62.82,52.14 C63.6714132,51.4724323 64.8685868,51.4724323 65.72,52.14 C66.1784094,52.5269873 66.4207079,53.1122316 66.37,53.71 L66.37,59.82 C66.3465197,60.2298773 66.499107,60.6302886 66.7894092,60.9205908 C67.0797114,61.210893 67.4801227,61.3634803 67.89,61.34 L69.45,61.34 L69.45,54.34 C69.44,52.24 68.89,50.85 67.79,50.16 Z" id="Path"></path>
                    <path d="M47.12,49.49 C46.0575343,49.1215228 44.9203539,49.0218906 43.81,49.2 C42.6447365,49.330985 41.5725772,49.8992294 40.81,50.79 C40.3168586,51.3711214 39.9583013,52.0540876 39.76,52.79 C39.5425238,53.5817405 39.4315466,54.3989358 39.43,55.22 C39.425219,56.1843173 39.5599472,57.1442559 39.83,58.07 C40.0573539,58.9105715 40.5226702,59.6675788 41.17,60.25 C41.8556867,60.8287248 42.678733,61.2213075 43.56,61.39 C44.5497868,61.621148 45.5820714,61.5970614 46.56,61.32 C47.668499,61.0768205 48.6418032,60.4184088 49.28,59.48 C49.6380665,58.9416124 49.9112559,58.3513883 50.09,57.73 C50.3134221,56.9262276 50.4178647,56.0940553 50.4,55.26 C50.4289409,54.0622981 50.1682175,52.8753203 49.64,51.8 C49.1279297,50.7348717 48.2255528,49.9076928 47.12,49.49 Z M46.76,57.93 C46.4828055,58.3997217 46.0464107,58.7545142 45.53,58.93 C45.0890917,59.0801022 44.6109083,59.0801022 44.17,58.93 C43.8049415,58.8203929 43.4788053,58.6087513 43.23,58.32 C42.689963,57.4706059 42.424604,56.4755096 42.47,55.47 C42.3309172,54.3710367 42.6369608,53.2620789 43.32,52.39 C43.6046435,52.1378793 43.9487828,51.9623682 44.32,51.88 C44.754919,51.7351238 45.225081,51.7351238 45.66,51.88 C46.159024,52.0680011 46.5788662,52.4208096 46.85,52.88 C47.2380705,53.6284594 47.4144119,54.468674 47.36,55.31 C47.3993538,56.2214085 47.1920693,57.126551 46.76,57.93 Z" id="Shape" fill-rule="nonzero"></path>
                    <path d="M79.7,50 C78.5767202,49.3583728 77.2915079,49.0561743 76,49.13 C74.7674432,49.0402822 73.5435205,49.3950425 72.55,50.13 C71.8521378,50.7023551 71.4039408,51.523452 71.3,52.42 L74.3,52.42 C74.4310256,52.1061424 74.68908,51.8626263 75.01,51.75 C75.3698945,51.6248065 75.7490013,51.5638786 76.13,51.57 C76.560496,51.5781787 76.9878263,51.6454748 77.4,51.77 C77.8193444,51.8490402 78.1173079,52.2236229 78.1,52.65 C78.1,53.25 77.44,53.65 76.1,53.81 C75.8577871,53.8353508 75.6173422,53.8754249 75.38,53.93 C75.2056747,53.9670023 75.0281854,53.9870954 74.85,53.99 C73.8230404,54.119473 72.844006,54.5007811 72,55.1 C71.2161218,55.7669686 70.8088725,56.7757513 70.91,57.8 C70.8048408,58.9050381 71.2588978,59.9895212 72.12,60.69 C72.9352808,61.2826307 73.9223188,61.5917387 74.93,61.57 C75.47,61.57 76.09,61.57 76.79,61.46 C77.4890036,61.3838012 78.1674524,61.1768743 78.79,60.85 C79.4254184,60.5108591 79.9574762,60.0064406 80.33,59.39 C80.8147617,58.5356148 81.0470959,57.5611982 81,56.58 L81,52.5 C81.0259277,51.4984405 80.5348069,50.5539775 79.7,50 Z M78.09,56.47 C78.1619792,57.20135 77.9032199,57.9265805 77.3845473,58.4471884 C76.8658748,58.9677963 76.141613,59.2292548 75.41,59.16 C74.9919684,59.1888632 74.5782401,59.0604648 74.25,58.8 C73.9712012,58.5154066 73.8227658,58.1280266 73.84,57.73 C73.8472799,57.372662 73.9584743,57.0251794 74.16,56.73 C74.4891797,56.4383846 74.8891999,56.2383745 75.32,56.15 L76.32,55.92 C76.9191188,55.7896158 77.5024744,55.595164 78.06,55.34 L78.09,56.47 Z" id="Shape" fill-rule="nonzero"></path>
                    <path d="M38,49.4 C37.2062864,49.3971234 36.4158164,49.5013982 35.65,49.71 C34.9219929,49.9031347 34.241312,50.2434751 33.65,50.71 C33.0290277,51.220027 32.5445125,51.876356 32.24,52.62 C31.8651338,53.5534706 31.6880671,54.5545785 31.72,55.56 L31.72,61.35 L34.85,61.35 L34.85,55.19 C34.7796544,54.4654385 35.0070856,53.7434347 35.48,53.19 C36.0094477,52.7307178 36.7013705,52.5036806 37.4,52.56 L38.4,52.56 L38.4,49.3999421 L38,49.4 Z" id="Path"></path>
                    <path d="M60.16,38.31 C60.58,38.16 61.02,38.04 61.45,37.93 L62.76,37.65 C63.3318595,37.5742561 63.8969169,37.4538889 64.45,37.29 C64.6298642,37.2331774 64.8039684,37.1595179 64.97,37.07 C65.0770036,37.0092019 65.1805006,36.9424297 65.28,36.87 C65.8982753,36.4655073 66.273521,35.7788076 66.28,35.04 C66.2689975,34.915375 66.2489446,34.7917154 66.22,34.67 C66.1059655,34.3029931 65.9188818,33.9628409 65.67,33.67 C65.5540278,33.5472996 65.4229856,33.4397778 65.28,33.35 L65.14,33.25 C65.0027598,33.1510715 64.855238,33.0672523 64.7,33 C64.4153163,32.9107113 64.1183409,32.8668399 63.82,32.87 C63.6436615,32.8547715 63.4663385,32.8547715 63.29,32.87 C63.0911123,32.8885549 62.8938939,32.9219818 62.7,32.97 C62.5141011,33.0140821 62.330536,33.0674829 62.15,33.13 L61.6,33.33 L61.52,33.33 L61.25,33.45 C61.05,33.54 60.87,33.64 60.69,33.74 C61.7815051,32.3946096 62.6677827,30.8950144 63.32,29.29 C63.4205747,28.9643543 63.4875899,28.6292786 63.52,28.29 C63.5300147,28.1334934 63.5300147,27.9765066 63.52,27.82 C63.4872352,27.3480893 63.3168808,26.8961285 63.03,26.52 C63.0738695,26.3895241 63.107308,26.2557703 63.13,26.12 C63.2070198,25.7423478 63.1614759,25.3499697 63,25 C62.8651059,24.7265957 62.6783013,24.4820515 62.45,24.28 C62.2860502,24.1377465 62.0957929,24.029028 61.89,23.96 C61.7417053,23.9066737 61.5870498,23.873053 61.43,23.86 L61,23.86 C60.733409,23.8923078 60.4715843,23.9560856 60.22,24.05 L59.83,24.21 C59.4249359,24.4037125 59.036899,24.6311824 58.67,24.89 C58.43,25.06 58.19,25.23 57.97,25.41 C57.75,25.59 57.55,25.75 57.37,25.91 L56,27.21 C55.5231058,27.6341957 55.0150085,28.0219541 54.48,28.37 C54.2342329,28.5202497 53.98053,28.6571157 53.72,28.78 C53.20234,29.0257038 52.6715355,29.2426993 52.13,29.43 L51.32,29.71 L50.99,29.81 C50.23,30.05 49.46,30.24 48.68,30.42 L48.4,30.48 C47.85,30.61 46.68,31.08 46.14,30.71 C46.6647043,30.4791093 47.1726111,30.21179 47.66,29.91 C48.5731515,29.3391602 49.4422507,28.7007066 50.26,28 C51.6747764,26.6892605 52.908931,25.1961688 53.93,23.56 L54.23,23.13 C54.5442857,22.6961228 54.8347155,22.2454558 55.1,21.78 C55.4580293,21.1686056 55.6765699,20.4856661 55.74,19.78 C55.7654694,19.1490232 55.6276949,18.5221495 55.34,17.96 C55.2699017,17.8081453 55.1897227,17.6611505 55.1,17.52 C54.9702757,17.320622 54.8230255,17.1332128 54.66,16.96 C54.4305026,16.7206486 54.1549834,16.5301662 53.85,16.4 C53.5333731,16.2672035 53.1933466,16.1991982 52.85,16.2 C52.6936809,16.1852407 52.5363191,16.1852407 52.38,16.2 C51.9126797,16.3093139 51.4754809,16.5210821 51.1,16.82 C49.8618688,18.0078355 48.8756004,19.4328233 48.2,21.01 C48.030768,21.3587767 47.833451,21.6932125 47.61,22.01 C47.21,22.57 46.77,23.08 46.32,23.63 C45.7577147,24.4224745 45.0841199,25.129749 44.32,25.73 C43.8237701,26.0701184 43.2770735,26.329968 42.7,26.5 C42.5123768,26.5505578 42.3220817,26.59062 42.13,26.62 C41.63,26.21 41.13,25.79 40.65,25.33 C40.1772568,24.8659577 39.7971596,24.3161742 39.53,23.71 C39.1842081,22.8012318 39.0276757,21.8314115 39.07,20.86 C39.07,20.53 39.07,20.2 39.07,19.86 C39.07,19.52 39.07,19.36 39.07,19.11 C39.07,18.86 39.07,18.34 39.07,17.94 C39.0304912,17.0272668 38.8482836,16.1263517 38.53,15.27 C38.4348622,15.0346831 38.3211709,14.8073004 38.19,14.59 C38.0615786,14.376554 37.9178694,14.1726876 37.76,13.98 C37.1832616,13.3118705 36.4662205,12.7792113 35.66,12.42 C34.9661824,12.0687297 34.1630702,12.0006086 33.42,12.23 C32.9278449,12.3825371 32.5221953,12.7344426 32.3017049,13.2001337 C32.0812144,13.6658248 32.0660864,14.2026304 32.26,14.68 C32.66,16.23 33.53,17.58 33.97,19.12 C34.06,19.4 34.14,19.7 34.22,19.99 C34.4245569,20.7144978 34.5749714,21.4532001 34.67,22.2 C34.7092853,22.5318171 34.7259904,22.8659191 34.72,23.2 C34.72,23.79 34.64,24.38 34.58,24.97 C34.52,25.56 34.45,26.14 34.43,26.74 C34.41,27.34 34.43,27.84 34.38,28.39 C34.38,28.67 34.38,28.95 34.38,29.23 C34.38,29.79 34.38,30.34 34.47,30.89 C34.5530492,31.7125712 34.7240258,32.5238716 34.98,33.31 C35.07,33.59 35.19,33.86 35.3,34.13 C35.35,34.24 35.38,34.35 35.43,34.46 C35.4349463,34.5098777 35.4349463,34.5601223 35.43,34.61 L35.57,34.61 L35.43,34.61 C35.4346565,34.7918913 35.4144703,34.9735673 35.37,35.15 C35.1180726,35.732546 35.0083848,36.366679 35.05,37 C35.2147673,37.87634 35.5114736,38.7226273 35.93,39.51 L36.16,39.93 C36.35,40.23 36.55,40.52 36.76,40.79 C37.6088245,41.8646898 38.6211568,42.7994099 39.76,43.56 L40,43.7 C40.14,43.78 40.29,43.85 40.44,43.92 L40.84,44.09 C41.191518,44.2286988 41.5524216,44.3423166 41.92,44.43 L42.33,44.51 L42.75,44.51 C43.9845393,44.6766113 45.2052742,44.1206715 45.89,43.08 L46.39,43.27 L46.71,43.39 L46.89,43.39 C47.1908231,43.4746799 47.4987801,43.531585 47.81,43.56 C48.4152632,43.602465 49.0233892,43.5450309 49.61,43.39 C49.91,43.31 50.22,43.21 50.54,43.09 C50.9582822,42.9407059 51.3687996,42.7704914 51.77,42.58 C54.69,41.33 57.2,39.37 60.16,38.31 Z M49.16,43.18 L48.62,43.27 C48.2875913,43.3051111 47.9524087,43.3051111 47.62,43.27 L47.48,43.27 L47.07,43.19 C46.6703442,43.0867848 46.2791964,42.953059 45.9,42.79 C45.8508969,42.7385439 45.78075,42.7127002 45.71,42.72 C45.11,42.46 44.52,42.16 43.92,41.9 C43.1713118,41.5365401 42.3601314,41.3193203 41.53,41.26 C41.53,41.26 41.53,41.26 41.53,41.26 C41.53,41.26 41.53,41.26 41.53,41.26 C42.751218,41.5170983 43.9229461,41.9695812 45,42.6 L45.48,42.84 C45.087127,43.3438413 44.5326965,43.6969817 43.91,43.84 C43.7626328,43.8779091 43.6119192,43.9013534 43.46,43.91 C43.3068288,43.9199729 43.1531712,43.9199729 43,43.91 C42.1830884,43.8551971 41.3847761,43.6411815 40.65,43.28 L40.21,43.05 C39.9294378,42.9010839 39.6588659,42.7340641 39.4,42.55 C39.1585419,42.3887734 38.9280366,42.2117186 38.71,42.02 C38.2817749,41.6485931 37.8869304,41.240364 37.53,40.8 C37.0915452,40.279794 36.7062895,39.7169858 36.38,39.12 C36.1703566,38.7569935 35.98009,38.3831363 35.81,38 C35.4562487,37.2422398 35.3344763,36.3967916 35.46,35.57 C35.4990341,35.3282321 35.4990341,35.0817679 35.46,34.84 C35.597428,35.1316566 35.7509993,35.4154298 35.92,35.69 C36.0848642,35.9697898 36.2651418,36.2402063 36.46,36.5 C37.11,37.38 37.97,38.04 38.65,38.9 C38.65,38.9 38.65,38.9 38.65,38.9 C38.5152083,38.6636279 38.364878,38.4364621 38.2,38.22 C37.81,37.69 37.37,37.22 36.97,36.66 L36.69,36.28 C36.4317575,35.7900573 36.2013907,35.2859213 36,34.77 C35.8505717,34.4842523 35.7170351,34.1904719 35.6,33.89 C35.52,33.67 35.44,33.45 35.37,33.22 C34.7880066,31.0542644 34.6183936,28.7984123 34.87,26.57 C34.87,26.06 34.96,25.57 35,25.07 C35.0396328,24.3438737 35.0396328,23.6161263 35,22.89 C34.9745389,22.1463134 34.8808117,21.4065381 34.72,20.68 C34.64,20.28 34.53,19.89 34.42,19.5 C34.0661471,18.3595529 33.6213876,17.2493262 33.09,16.18 C32.7269491,15.5408846 32.489356,14.8382876 32.39,14.11 C32.39,12.96 33.39,12.45 34.39,12.59 C35.219276,12.7045519 35.9992714,13.0512165 36.64,13.59 C36.8493016,13.7559472 37.0403746,13.943668 37.21,14.15 C37.5661561,14.5648091 37.8592994,15.029795 38.08,15.53 C38.3039865,16.0446803 38.4619089,16.5856484 38.55,17.14 C38.55,17.35 38.61,17.57 38.63,17.79 C38.65,18.01 38.68,18.34 38.69,18.62 C38.7,18.9 38.69,19.12 38.69,19.36 C38.6257656,20.5969355 38.6928067,21.8371957 38.89,23.06 C38.9780548,23.4854789 39.1262064,23.896263 39.33,24.28 C39.4634243,24.5596572 39.6206713,24.8273116 39.8,25.08 C40.1535628,25.5388848 40.5559224,25.9580093 41,26.33 C41.13,26.46 41.27,26.58 41.41,26.7 L41.14,26.7 C40.551482,26.5778825 39.9804337,26.3830543 39.44,26.12 L38.88,25.89 L39,26 L39.13,26.12 C39.3097187,26.2376893 39.4832802,26.3645227 39.65,26.5 C40.0447437,26.7315504 40.4684317,26.9097684 40.91,27.03 C41.3425603,27.1550878 41.7897815,27.2223391 42.24,27.23 L42.57,27.23 C43.9597603,26.875117 45.1722617,26.0252993 45.98,24.84 C46.22,24.53 46.48,24.23 46.73,23.93 C47.2371885,23.3410086 47.7144571,22.7269008 48.16,22.09 C48.3843689,21.7699627 48.5881151,21.4359525 48.77,21.09 C49.1076506,20.396083 49.4953406,19.7276519 49.93,19.09 C50.3695049,18.4704369 50.9104369,17.9295049 51.53,17.49 C51.9407098,17.2117009 52.4157514,17.0430267 52.91,17 C53.0807025,16.9999164 53.250041,17.0303974 53.41,17.09 C53.6351315,17.1837301 53.8443018,17.3119313 54.03,17.47 C54.2165451,17.6267965 54.3843268,17.8046451 54.53,18 C54.8284729,18.3950327 55.0212187,18.8596878 55.09,19.35 C55.1097973,19.5528514 55.1097973,19.7571486 55.09,19.96 C55.0787979,20.148551 55.0520402,20.3358545 55.01,20.52 C54.9259767,20.8868476 54.7913545,21.2402309 54.61,21.57 C54.52,21.74 54.43,21.9 54.33,22.06 C54.13,22.39 53.9,22.71 53.68,23.06 L53.35,23.55 C53.0833333,23.97 52.8033333,24.38 52.51,24.78 L51.62,25.98 L51.35,26.3 C50.8750369,26.8752182 50.3675403,27.4227802 49.83,27.94 C49.2075643,28.5506386 48.5389106,29.1123077 47.83,29.62 C47.05,30.16 46.08,30.41 45.34,31.02 L45.44,31.02 L45.62,30.96 L45.98,30.82 C46.1176339,30.9500775 46.2924208,31.0339752 46.48,31.06 L46.8,31.06 L47.13,31.06 L47.47,31.01 C47.81,30.94 48.13,30.85 48.37,30.82 C48.81,30.74 49.25,30.66 49.7,30.56 C51.0524217,30.2698084 52.3675142,29.8269712 53.62,29.24 C54.0194566,29.0493687 54.4038909,28.8287368 54.77,28.58 C55.14,28.34 55.49,28.08 55.84,27.8 C56.53,27.26 57.19,26.67 57.89,26.12 L58.64,25.54 C58.9563012,25.3070484 59.2906971,25.099723 59.64,24.92 C60.1538956,24.6220913 60.749459,24.495972 61.34,24.56 C61.7031674,24.605451 62.0337536,24.7923041 62.26,25.08 C62.3869208,25.2690583 62.4531993,25.4923123 62.45,25.72 C62.4577561,25.8882118 62.4409117,26.0566549 62.4,26.22 C62.2358742,26.8166409 61.9422401,27.3697655 61.54,27.84 C61.180402,28.2462012 60.7998863,28.6333926 60.4,29 C59.98,29.39 59.54,29.77 59.11,30.15 C58.68,30.53 57.97,31.15 57.39,31.6 C56.4268634,32.3697209 55.3326374,32.9591801 54.16,33.34 C53.32,33.61 52.46,33.83 51.6,34.07 C50.7443755,34.3040423 49.9084685,34.6049689 49.1,34.97 C49.0676809,34.9821733 49.0421733,35.0076809 49.03,35.04 C49.33,34.93 49.64,34.83 49.95,34.75 C50.26,34.67 50.58,34.59 50.9,34.53 C51.53,34.39 52.17,34.27 52.79,34.1 C53.798004,33.8667249 54.7797084,33.5316722 55.72,33.1 C56.6040373,32.6377109 57.4500224,32.1060444 58.25,31.51 C58.7,31.13 59.14,30.73 59.6,30.33 L59.95,30.04 L60.55,29.54 L61.02,29.12 C61.24,28.93 61.46,28.73 61.67,28.52 C62.0933728,28.109579 62.4569319,27.6416649 62.75,27.13 C63.1233741,28.0737654 63.0268994,29.1386984 62.49,30 C62.3088976,30.3669392 62.1086209,30.7240992 61.89,31.07 C61.79,31.23 61.7,31.38 61.61,31.51 C60.8386214,32.7439277 59.9655905,33.9113139 59,35 C58.7498777,35.2767976 58.4790994,35.5342042 58.19,35.77 C57.908849,36.0162841 57.6115168,36.2434593 57.3,36.45 C56.6797872,36.8648343 56.0353015,37.2421756 55.37,37.58 C54.2910214,38.0116744 53.2804703,38.597794 52.37,39.32 C52.3605542,39.3423774 52.3605542,39.3676226 52.37,39.39 C52.37,39.39 52.37,39.39 52.37,39.39 C52.8215153,39.0693421 53.3079608,38.8009583 53.82,38.59 C54.14,38.44 54.46,38.31 54.82,38.17 C55.18,38.03 55.66,37.79 56.07,37.57 L57.37,37 C58.2089556,36.5458496 58.9633365,35.9504637 59.6,35.24 C59.81,35.01 60.02,34.76 60.22,34.51 C60.2452011,34.5225032 60.2747989,34.5225032 60.3,34.51 L60.81,34.2 L61.37,33.91 C61.9920887,33.5887905 62.6720426,33.3950036 63.37,33.34 C63.5859372,33.3148563 63.8040628,33.3148563 64.02,33.34 C64.7920822,33.4426424 65.4531282,33.9441256 65.76,34.66 C65.8068398,34.8019488 65.8304767,34.9505236 65.83,35.1 C65.8410832,35.3695028 65.7751791,35.6365879 65.64,35.87 C65.5034193,36.0964741 65.3232772,36.2936107 65.11,36.45 C64.8829442,36.617611 64.6294445,36.7460509 64.36,36.83 L63.96,36.93 C63.63,36.93 63.3,37.04 62.96,37.11 L61.96,37.31 C60.0391513,37.7288921 58.1919557,38.4333883 56.48,39.4 C55.59,39.91 54.71,40.48 53.8,41.03 C52.9081607,41.5890762 51.9793536,42.0868901 51.02,42.52 C50.420571,42.7941605 49.798168,43.0150131 49.16,43.18 Z" id="Shape" fill-rule="nonzero"></path>
                    <path d="M47.42,34.9 C46.8094883,35.5596018 46.1400444,36.1621012 45.42,36.7 C44.6948946,37.244178 43.9293411,37.7322602 43.13,38.16 C43.0972595,38.1834141 43.0670912,38.2102304 43.04,38.24 C42.9952792,38.2860334 42.9550939,38.3362651 42.92,38.39 C42.71,38.67 42.48,39.1 42.63,39.11 C42.78,39.12 42.7,39.11 42.77,39.11 C43.12,38.92 43.46,38.7 43.77,38.49 C45.2207151,37.585112 46.5426496,36.4885455 47.7,35.23 L47.85,35.03 C47.8916577,34.9765733 47.9222533,34.9153822 47.94,34.85 C47.94,34.72 47.94,34.64 47.84,34.64 C47.6743528,34.676003 47.526088,34.767786 47.42,34.9 Z" id="Path"></path>
                    <path d="M65.79,5.64 C65.9390021,5.34138629 65.8599274,4.97930725 65.6,4.77 L60.27,0.58 C60.0115192,0.367129481 59.6384808,0.367129481 59.38,0.58 L58,1.84 L65,7.32 L65.79,5.64 Z" id="Path"></path>
                    <path d="M43.65,15.62 C44.6537905,16.4054726 46.1040955,16.2294873 46.8908967,15.2267379 C47.6776979,14.2239885 47.5036335,12.7734517 46.501927,11.9853232 C45.5002204,11.1971948 44.0494544,11.3693381 43.26,12.37 C42.8795504,12.8522337 42.7068274,13.4661336 42.7800113,14.0759986 C42.8531951,14.6858637 43.1662586,15.2414693 43.65,15.62 Z" id="Path"></path>
                    <path d="M38.25,13.6 C39.67,15.24 39.82,17.73 39.78,19.95 L39.78,20.09 C39.6736899,21.2454167 39.8099336,22.4102999 40.18,23.51 L41.55,21.76 L44.84,24.35 C45.08,24.08 45.31,23.81 45.53,23.53 L46.11,22.83 C46.6802669,22.2065811 47.1707049,21.5145932 47.57,20.77 C48.57,18.7 50.77,14.39 54.12,15.77 C55.4082093,16.4259499 56.2746635,17.6917265 56.42,19.13 C57.5088641,19.0913343 58.556657,19.5478838 59.2697189,20.3716938 C59.9827808,21.1955037 60.2843842,22.2979296 60.09,23.37 C60.6277344,23.1625593 61.2106362,23.1004751 61.78,23.19 C62.5978203,23.3541095 63.2844073,23.9063643 63.62,24.67 C63.62,24.67 63.62,24.67 63.62,24.67 L64.87,23.06 C65.3649338,22.42272 65.2581818,21.5064316 64.63,21 L62.93,19.66 L66.93,11.72 C67.2521338,11.0876898 67.0801191,10.3157212 66.52,9.88 L55.12,1 C54.5738053,0.550871377 53.7861947,0.550871377 53.24,1 L46.53,6.79 L44.83,5.45 C44.5205477,5.20381072 44.1254439,5.09169708 43.7328066,5.13866326 C43.3401693,5.18562945 42.9826556,5.38776911 42.74,5.7 L37.31,12.7 C37.6493628,12.9715764 37.9639322,13.2727599 38.25,13.6 Z M54.25,4.08 L63.7,11.51 L60.54,17.82 L48.91,8.68 L54.25,4.08 Z M42.25,11.55 C43.4967337,9.97991966 45.7783575,9.71357568 47.3532064,10.9542803 C48.9280554,12.1949849 49.2031455,14.4755707 47.9684883,16.0551651 C46.733831,17.6347596 44.4543167,17.9185918 42.87,16.69 C41.2847439,15.4423887 40.9952254,13.1529654 42.22,11.55 L42.25,11.55 Z" id="Shape" fill-rule="nonzero"></path>
                    <path d="M53.73,25.13 C52.8885021,26.4117525 51.8795826,27.5753729 50.73,28.59 C50.41,28.85 50.03,29.15 49.62,29.46 C50.1073556,29.3307247 50.5879537,29.1772002 51.06,29 L51.36,28.89 C52.3090287,28.6069595 53.2218492,28.2143124 54.08,27.72 C54.7138082,27.3072267 55.3095055,26.8387008 55.86,26.32 C55.2846355,26.223328 54.7419656,25.9863392 54.28,25.63 C54.081545,25.4807656 53.8974169,25.3133764 53.73,25.13 Z" id="Path"></path>
                    <path d="M58.32,24.21 C58.8937356,23.4887145 58.9838183,22.4954051 58.5492021,21.6826727 C58.1145858,20.8699403 57.2384479,20.3933264 56.32,20.47 C55.9879702,21.676915 55.4128791,22.8032769 54.63,23.78 L54.49,23.98 C54.8775234,24.6315976 55.5624146,25.0491716 56.3191403,25.0952158 C57.075866,25.1412599 57.806333,24.8098056 58.27,24.21 L58.32,24.21 Z" id="Path"></path>
                    <path d="M43.76,31.07 C43.7,31.07 43.43,31.22 43.23,31.41 L43,31.64 C42.1040291,32.9534979 41.3845372,34.3790332 40.86,35.88 C40.6763773,36.3847165 40.5194928,36.8987633 40.39,37.42 C40.39,37.42 40.39,37.42 40.39,37.42 C40.39,37.42 40.44,37.42 40.48,37.42 C40.6352208,37.3187494 40.7793487,37.201436 40.91,37.07 C41.0483378,36.9572352 41.157998,36.8133063 41.23,36.65 C41.36,36.16 41.5,35.65 41.67,35.22 C42.1568544,33.8291265 42.8296211,32.5105039 43.67,31.3 C43.76,31.17 43.78,31.09 43.76,31.07 Z" id="Path"></path>
                </g>
            </g>
        </g>
    </g>
</svg>