<?xml version="1.0" encoding="UTF-8"?>
<svg width="137px" height="50px" viewBox="0 0 137 50" version="1.1" xmlns="http://www.w3.org/2000/svg" xmlns:xlink="http://www.w3.org/1999/xlink">
    <!-- Generator: Sketch 52.5 (67469) - http://www.bohemiancoding.com/sketch -->
    <title>Group 35</title>
    <desc>Created with Sketch.</desc>
    <defs>
        <polygon id="path-1" points="7.24637681e-05 0.143152174 11.7055072 0.143152174 11.7055072 11.5942029 7.24637681e-05 11.5942029"></polygon>
        <polygon id="path-3" points="0.179818841 0.143152174 11.8856159 0.143152174 11.8856159 11.5942029 0.179818841 11.5942029"></polygon>
        <polygon id="path-5" points="0.1925 0.143188406 12.216413 0.143188406 12.216413 11.5942029 0.1925 11.5942029"></polygon>
        <polygon id="path-7" points="0.33865942 0.143188406 12.3618478 0.143188406 12.3618478 11.5942029 0.33865942 11.5942029"></polygon>
        <polygon id="path-9" points="0.0455434783 0.142898551 10.0123188 0.142898551 10.0123188 11.5939855 0.0455434783 11.5939855"></polygon>
    </defs>
    <g id="Symbols" stroke="none" stroke-width="1" fill="none" fill-rule="evenodd">
        <g id="Artboard" transform="translate(-13.000000, -18.000000)">
            <g id="Group-35" transform="translate(13.000000, 18.000000)">
                <g id="Group-3" transform="translate(0.000000, 38.057971)">
                    <mask id="mask-2" fill="white">
                        <use xlink:href="#path-1"></use>
                    </mask>
                    <g id="Clip-2"></g>
                    <path d="M2.92615942,10.8732246 C2.00731884,10.3924275 1.28992754,9.71742754 0.773985507,8.84822464 C0.258043478,7.97865942 7.24637681e-05,6.99278986 7.24637681e-05,5.8898913 C7.24637681e-05,4.77358696 0.258043478,3.77974638 0.773985507,2.91018116 C1.28992754,2.04097826 2.00731884,1.36271739 2.92615942,0.875036232 C3.845,0.386992754 4.88413043,0.143152174 6.04355072,0.143152174 C7.20297101,0.143152174 8.25586957,0.415615942 9.20333333,0.959456522 C10.1500725,1.50438406 10.8855797,2.24242754 11.4084058,3.17539855 C11.5497101,3.41634058 11.6207246,3.64931159 11.6207246,3.87539855 C11.6207246,4.18663043 11.4899275,4.4340942 11.2283333,4.61742754 C10.9660145,4.80148551 10.6312319,4.89315217 10.221087,4.89315217 L9.56311594,4.89315217 C9.19608696,4.89315217 8.89536232,4.8225 8.6623913,4.68119565 C8.42905797,4.5398913 8.12833333,4.29278986 7.76130435,3.93844203 C7.26637681,3.48699275 6.70804348,3.26054348 6.08630435,3.26054348 C5.36492754,3.26054348 4.77144928,3.50402174 4.30478261,3.9917029 C3.83811594,4.47974638 3.60514493,5.11235507 3.60514493,5.8898913 C3.60514493,6.6532971 3.83811594,7.27576087 4.30478261,7.75583333 C4.77144928,8.23663043 5.36492754,8.47684783 6.08630435,8.47684783 C6.42507246,8.47684783 6.74644928,8.40583333 7.0507971,8.26452899 C7.35478261,8.12358696 7.62688406,7.92576087 7.86710145,7.67105072 C8.17797101,7.31778986 8.46057971,7.06307971 8.71528986,6.90800725 C8.97,6.75221014 9.28050725,6.67431159 9.64862319,6.67431159 L10.3272464,6.67431159 C10.737029,6.67431159 11.068913,6.76996377 11.3236232,6.9609058 C11.5786957,7.15148551 11.7055072,7.40257246 11.7055072,7.71307971 C11.7055072,7.92576087 11.6558696,8.13083333 11.5565942,8.3282971 C11.0478986,9.34641304 10.3058696,10.1453261 9.33050725,10.7246739 C8.35442029,11.3040217 7.25949275,11.5942391 6.04355072,11.5942391 C4.88413043,11.5942391 3.845,11.3536594 2.92615942,10.8732246" id="Fill-1" fill="#FFFFFF" mask="url(#mask-2)"></path>
                </g>
                <path d="M22.9332971,39.2614493 C23.6332971,39.6853623 24.1912681,40.2897101 24.6082971,41.0744928 C25.0253261,41.8592754 25.2347464,42.7676087 25.2347464,43.7991304 L25.2347464,48.1676087 C25.2347464,48.6484058 25.1068478,49.0157971 24.8521377,49.2705072 C24.5977899,49.5248551 24.2303986,49.652029 23.7496014,49.652029 L23.1137319,49.652029 C22.6325725,49.652029 22.2651812,49.5248551 22.0108333,49.2705072 C21.7564855,49.0157971 21.6289493,48.6484058 21.6289493,48.1676087 L21.6289493,44.4143478 C21.6289493,43.5378986 21.4419928,42.8451449 21.0677174,42.336087 C20.6923551,41.8273913 20.2010507,41.5726812 19.5930797,41.5726812 C19.1691667,41.5726812 18.7561232,41.7248551 18.3532246,42.0288406 C17.9499638,42.3328261 17.5999638,42.7534783 17.3028623,43.2900725 L17.3028623,48.1676087 C17.3028623,48.6484058 17.1760507,49.0157971 16.9217029,49.2705072 C16.6669928,49.5248551 16.2992391,49.652029 15.8188043,49.652029 L15.1829348,49.652029 C14.7021377,49.652029 14.3347464,49.5248551 14.0800362,49.2705072 C13.8256884,49.0157971 13.6985145,48.6484058 13.6985145,48.1676087 L13.6985145,35.8683333 C13.6985145,35.3878986 13.8256884,35.0205072 14.0800362,34.7657971 C14.3347464,34.511087 14.7021377,34.3842754 15.1829348,34.3842754 L15.8188043,34.3842754 C16.2992391,34.3842754 16.6669928,34.511087 16.9217029,34.7657971 C17.1760507,35.0205072 17.3028623,35.3878986 17.3028623,35.8683333 L17.3028623,40.4701449 C18.2079348,39.2400725 19.3101087,38.6252174 20.611558,38.6252174 C21.4597464,38.6252174 22.2332971,38.8375362 22.9332971,39.2614493" id="Fill-4" fill="#FFFFFF"></path>
                <g id="Group-8" transform="translate(26.811594, 38.057971)" fill="#FFFFFF">
                    <path d="M4.64612319,3.39826087 C4.2290942,3.71601449 3.92873188,4.14427536 3.74503623,4.68086957 L8.41025362,4.68086957 C8.21206522,4.14427536 7.90807971,3.71601449 7.49865942,3.39826087 C7.08815217,3.08050725 6.6290942,2.92144928 6.12003623,2.92144928 C5.55481884,2.92144928 5.06278986,3.08050725 4.64612319,3.39826087 M7.54068841,8.47688406 C7.66786232,8.40586957 7.84467391,8.30007246 8.07112319,8.15876812 C8.29684783,8.01782609 8.50880435,7.91166667 8.70735507,7.84101449 C8.90518116,7.76963768 9.1232971,7.73449275 9.36423913,7.73449275 L9.95844203,7.73449275 C10.3682246,7.73449275 10.7037319,7.82688406 10.9653261,8.01021739 C11.226558,8.19391304 11.3577174,8.4276087 11.3577174,8.71057971 C11.3577174,8.9507971 11.2656884,9.19028986 11.0823551,9.43086957 C10.5867029,10.1094928 9.90807971,10.6399275 9.04612319,11.0214493 C8.18416667,11.4033333 7.22945652,11.5942754 6.18380435,11.5942754 C4.98199275,11.5942754 3.91460145,11.3536957 2.98199275,10.8732609 C2.04865942,10.3924638 1.32039855,9.72144928 0.797572464,8.8584058 C0.274384058,7.99608696 0.0127898551,7.00695652 0.0127898551,5.88992754 C0.0127898551,4.77362319 0.274384058,3.77978261 0.797572464,2.91021739 C1.32039855,2.04101449 2.04539855,1.36275362 2.97112319,0.874710145 C3.89684783,0.386666667 4.96061594,0.143188406 6.16242754,0.143188406 C7.66097826,0.143188406 8.9367029,0.588478261 9.98996377,1.47942029 C11.0432246,2.37 11.7109783,3.55695652 11.993587,5.04137681 C12.0218478,5.21130435 12.0359783,5.32398551 12.0359783,5.38086957 C12.0359783,5.7623913 11.9055435,6.05985507 11.643587,6.27181159 C11.3827174,6.48376812 11.0327174,6.58956522 10.5943116,6.58956522 L3.59684783,6.58956522 C3.7098913,7.26855072 3.99576087,7.80913043 4.45554348,8.21166667 C4.91460145,8.61456522 5.46967391,8.81601449 6.12003623,8.81601449 C6.64322464,8.81601449 7.11605072,8.70333333 7.54068841,8.47688406" id="Fill-6"></path>
                </g>
                <path d="M45.6443841,37.5648551 C45.3820652,37.8898551 45.2378623,38.3851449 45.2096014,39.0492754 L46.354529,39.0492754 C46.8346014,39.0492754 47.2030797,39.1768116 47.4574275,39.4311594 C47.7117754,39.6855072 47.8389493,40.0536232 47.8389493,40.534058 C47.8389493,40.9014493 47.7117754,41.1804348 47.4574275,41.3713768 C47.2030797,41.5623188 46.8346014,41.6576087 46.354529,41.6576087 L45.2096014,41.6576087 L45.2096014,48.1673913 C45.2096014,48.6485507 45.0824275,49.0155797 44.8277174,49.2702899 C44.5733696,49.5246377 44.2056159,49.6521739 43.7251812,49.6521739 L43.0889493,49.6521739 C42.6081522,49.6521739 42.2400362,49.5246377 41.986413,49.2702899 C41.7320652,49.0155797 41.6048913,48.6485507 41.6048913,48.1673913 L41.6048913,41.6576087 L41.4987319,41.6576087 C41.0175725,41.6576087 40.6505435,41.5304348 40.3958333,41.276087 C40.1414855,41.0217391 40.0139493,40.6532609 40.0139493,40.1735507 C40.0139493,39.8057971 40.1414855,39.5264493 40.3958333,39.3355072 C40.6505435,39.1449275 41.0175725,39.0492754 41.4987319,39.0492754 L41.6048913,39.0492754 L41.6048913,38.4130435 C41.6048913,36.9855072 41.9472826,35.8865942 42.6331522,35.1155797 C43.3182971,34.3456522 44.3538043,33.9601449 45.7393116,33.9601449 C46.2625,33.9601449 46.7853261,34.0166667 47.3085145,34.1297101 C48.0722826,34.3137681 48.4538043,34.8648551 48.4538043,35.7836957 L48.4538043,35.8050725 C48.4538043,36.3141304 48.3259058,36.6525362 48.0722826,36.8228261 C47.8179348,36.9923913 47.4074275,37.0771739 46.8425725,37.0771739 C46.3048913,37.0771739 45.9056159,37.2398551 45.6443841,37.5648551" id="Fill-9" fill="#FFFFFF"></path>
                <g id="Group-13" transform="translate(62.318841, 38.057971)">
                    <mask id="mask-4" fill="white">
                        <use xlink:href="#path-3"></use>
                    </mask>
                    <g id="Clip-12"></g>
                    <path d="M3.1059058,10.8732246 C2.18706522,10.3924275 1.47003623,9.71742754 0.953731884,8.84822464 C0.437427536,7.97865942 0.179818841,6.99278986 0.179818841,5.8898913 C0.179818841,4.77358696 0.437427536,3.77974638 0.953731884,2.91018116 C1.47003623,2.04097826 2.18706522,1.36271739 3.1059058,0.875036232 C4.02474638,0.386992754 5.06387681,0.143152174 6.2232971,0.143152174 C7.38271739,0.143152174 8.43561594,0.415615942 9.38271739,0.959456522 C10.3298188,1.50438406 11.0653261,2.24242754 11.5881522,3.17539855 C11.7294565,3.41634058 11.800471,3.64931159 11.800471,3.87539855 C11.800471,4.18663043 11.6696739,4.4340942 11.4077174,4.61742754 C11.1453986,4.80148551 10.8109783,4.89315217 10.4008333,4.89315217 L9.74322464,4.89315217 C9.37583333,4.89315217 9.0751087,4.8225 8.84213768,4.68119565 C8.60880435,4.5398913 8.30844203,4.29278986 7.94105072,3.93844203 C7.44612319,3.48699275 6.88778986,3.26054348 6.26568841,3.26054348 C5.54503623,3.26054348 4.95119565,3.50402174 4.48452899,3.9917029 C4.01786232,4.47974638 3.7848913,5.11235507 3.7848913,5.8898913 C3.7848913,6.6532971 4.01786232,7.27576087 4.48452899,7.75583333 C4.95119565,8.23663043 5.54503623,8.47684783 6.26568841,8.47684783 C6.60481884,8.47684783 6.92619565,8.40583333 7.23054348,8.26452899 C7.53452899,8.12358696 7.80663043,7.92576087 8.04684783,7.67105072 C8.35771739,7.31778986 8.64032609,7.06307971 8.89503623,6.90800725 C9.14974638,6.75221014 9.46025362,6.67431159 9.82836957,6.67431159 L10.5069928,6.67431159 C10.9167754,6.67431159 11.2486594,6.76996377 11.5033696,6.9609058 C11.758442,7.15148551 11.8856159,7.40257246 11.8856159,7.71307971 C11.8856159,7.92576087 11.8356159,8.13083333 11.7367029,8.3282971 C11.2276449,9.34641304 10.4856159,10.1453261 9.51025362,10.7246739 C8.53416667,11.3040217 7.43923913,11.5942391 6.2232971,11.5942391 C5.06387681,11.5942391 4.02474638,11.3536594 3.1059058,10.8732246" id="Fill-11" fill="#FFFFFF" mask="url(#mask-4)"></path>
                </g>
                <path d="M85.4318841,39.2614493 C86.1315217,39.6853623 86.6898551,40.2897101 87.1072464,41.0744928 C87.523913,41.8592754 87.732971,42.7676087 87.732971,43.7991304 L87.732971,48.1676087 C87.732971,48.6484058 87.6057971,49.0157971 87.351087,49.2705072 C87.0963768,49.5248551 86.7289855,49.652029 86.2481884,49.652029 L85.6123188,49.652029 C85.1311594,49.652029 84.7637681,49.5248551 84.5094203,49.2705072 C84.2550725,49.0157971 84.1275362,48.6484058 84.1275362,48.1676087 L84.1275362,44.4143478 C84.1275362,43.5378986 83.9402174,42.8451449 83.565942,42.336087 C83.190942,41.8273913 82.6996377,41.5726812 82.0916667,41.5726812 C81.6677536,41.5726812 81.2543478,41.7248551 80.8518116,42.0288406 C80.4485507,42.3328261 80.098913,42.7534783 79.8018116,43.2900725 L79.8018116,48.1676087 C79.8018116,48.6484058 79.675,49.0157971 79.4206522,49.2705072 C79.1655797,49.5248551 78.7978261,49.652029 78.3177536,49.652029 L77.6815217,49.652029 C77.2007246,49.652029 76.832971,49.5248551 76.5786232,49.2705072 C76.3242754,49.0157971 76.1967391,48.6484058 76.1967391,48.1676087 L76.1967391,35.8683333 C76.1967391,35.3878986 76.3242754,35.0205072 76.5786232,34.7657971 C76.832971,34.511087 77.2007246,34.3842754 77.6815217,34.3842754 L78.3177536,34.3842754 C78.7978261,34.3842754 79.1655797,34.511087 79.4206522,34.7657971 C79.675,35.0205072 79.8018116,35.3878986 79.8018116,35.8683333 L79.8018116,40.4701449 C80.7065217,39.2400725 81.809058,38.6252174 83.1101449,38.6252174 C83.9576087,38.6252174 84.7318841,38.8375362 85.4318841,39.2614493" id="Fill-14" fill="#FFFFFF"></path>
                <g id="Group-18" transform="translate(89.130435, 38.057971)">
                    <mask id="mask-6" fill="white">
                        <use xlink:href="#path-5"></use>
                    </mask>
                    <g id="Clip-17"></g>
                    <path d="M4.82655797,3.39826087 C4.40880435,3.71601449 4.10807971,4.14427536 3.92474638,4.68086957 L8.58996377,4.68086957 C8.39213768,4.14427536 8.08851449,3.71601449 7.67836957,3.39826087 C7.26786232,3.08050725 6.80916667,2.92144928 6.29974638,2.92144928 C5.7348913,2.92144928 5.24286232,3.08050725 4.82655797,3.39826087 M7.72039855,8.47688406 C7.84757246,8.40586957 8.02474638,8.30007246 8.25083333,8.15876812 C8.47655797,8.01782609 8.68923913,7.91166667 8.8867029,7.84101449 C9.0848913,7.76963768 9.3040942,7.73449275 9.54431159,7.73449275 L10.1377899,7.73449275 C10.5479348,7.73449275 10.883442,7.82688406 11.1457609,8.01021739 C11.4062681,8.19391304 11.5374275,8.4276087 11.5374275,8.71057971 C11.5374275,8.9507971 11.4453986,9.19028986 11.2620652,9.43086957 C10.7667754,10.1094928 10.0881522,10.6399275 9.22583333,11.0214493 C8.36387681,11.4033333 7.40952899,11.5942754 6.36351449,11.5942754 C5.1617029,11.5942754 4.09431159,11.3536957 3.16134058,10.8732609 C2.22836957,10.3924638 1.5001087,9.72144928 0.97692029,8.8584058 C0.454094203,7.99608696 0.1925,7.00695652 0.1925,5.88992754 C0.1925,4.77362319 0.454094203,3.77978261 0.97692029,2.91021739 C1.5001087,2.04101449 2.2251087,1.36275362 3.15047101,0.874710145 C4.07619565,0.386666667 5.14105072,0.143188406 6.34177536,0.143188406 C7.84068841,0.143188406 9.11713768,0.588478261 10.1700362,1.47942029 C11.2232971,2.37 11.8910507,3.55695652 12.1740217,5.04137681 C12.2011957,5.21130435 12.216413,5.32398551 12.216413,5.38086957 C12.216413,5.7623913 12.0852536,6.05985507 11.8236594,6.27181159 C11.5620652,6.48376812 11.2124275,6.58956522 10.7743841,6.58956522 L3.77655797,6.58956522 C3.88923913,7.26855072 4.17547101,7.80913043 4.63561594,8.21166667 C5.09394928,8.61456522 5.64938406,8.81601449 6.29974638,8.81601449 C6.82293478,8.81601449 7.29684783,8.70333333 7.72039855,8.47688406" id="Fill-16" fill="#FFFFFF" mask="url(#mask-6)"></path>
                </g>
                <g id="Group-21" transform="translate(102.173913, 38.057971)">
                    <mask id="mask-8" fill="white">
                        <use xlink:href="#path-7"></use>
                    </mask>
                    <g id="Clip-20"></g>
                    <path d="M4.97199275,3.39826087 C4.55460145,3.71601449 4.25387681,4.14427536 4.0709058,4.68086957 L8.73648551,4.68086957 C8.53757246,4.14427536 8.23394928,3.71601449 7.82452899,3.39826087 C7.41402174,3.08050725 6.95460145,2.92144928 6.44626812,2.92144928 C5.88032609,2.92144928 5.38793478,3.08050725 4.97199275,3.39826087 M7.86655797,8.47688406 C7.99373188,8.40586957 8.17018116,8.30007246 8.39626812,8.15876812 C8.62271739,8.01782609 8.83467391,7.91166667 9.03322464,7.84101449 C9.23105072,7.76963768 9.44916667,7.73449275 9.6901087,7.73449275 L10.2843116,7.73449275 C10.6937319,7.73449275 11.0296014,7.82688406 11.2911957,8.01021739 C11.5524275,8.19391304 11.6839493,8.4276087 11.6839493,8.71057971 C11.6839493,8.9507971 11.591558,9.19028986 11.4075,9.43086957 C10.9125725,10.1094928 10.2339493,10.6399275 9.37199275,11.0214493 C8.51003623,11.4033333 7.55496377,11.5942754 6.50967391,11.5942754 C5.30786232,11.5942754 4.23974638,11.3536957 3.3075,10.8732609 C2.37416667,10.3924638 1.64663043,9.72144928 1.12344203,8.8584058 C0.600253623,7.99608696 0.33865942,7.00695652 0.33865942,5.88992754 C0.33865942,4.77362319 0.600253623,3.77978261 1.12344203,2.91021739 C1.64663043,2.04101449 2.37054348,1.36275362 3.29699275,0.874710145 C4.22271739,0.386666667 5.28648551,0.143188406 6.4882971,0.143188406 C7.98612319,0.143188406 9.26257246,0.588478261 10.315471,1.47942029 C11.3687319,2.37 12.0368478,3.55695652 12.3194565,5.04137681 C12.3477174,5.21130435 12.3618478,5.32398551 12.3618478,5.38086957 C12.3618478,5.7623913 12.231413,6.05985507 11.9694565,6.27181159 C11.708587,6.48376812 11.3578623,6.58956522 10.9198188,6.58956522 L3.92199275,6.58956522 C4.03576087,7.26855072 4.32163043,7.80913043 4.78105072,8.21166667 C5.24047101,8.61456522 5.79554348,8.81601449 6.44626812,8.81601449 C6.96836957,8.81601449 7.44228261,8.70333333 7.86655797,8.47688406" id="Fill-19" fill="#FFFFFF" mask="url(#mask-8)"></path>
                </g>
                <path d="M123.993007,38.8163406 C124.700254,39.0706884 125.054239,39.6427899 125.054239,40.5337319 L125.054239,40.7246739 C125.054239,41.5866304 124.799529,42.0181522 124.289746,42.0181522 C124.219457,42.0181522 124.113297,42.0043841 123.972355,41.9761232 C123.619094,41.8768478 123.229964,41.8275725 122.806051,41.8275725 C122.225978,41.8275725 121.703152,41.9583696 121.236848,42.2199638 C120.770181,42.4811957 120.303877,42.9583696 119.836848,43.6507609 L119.836848,48.1677899 C119.836848,48.648587 119.710036,49.0156159 119.456051,49.2706884 C119.200978,49.5250362 118.833225,49.6518478 118.353152,49.6518478 L117.717283,49.6518478 C117.236486,49.6518478 116.869094,49.5250362 116.614384,49.2706884 C116.359674,49.0156159 116.232138,48.648587 116.232138,48.1677899 L116.232138,40.5337319 C116.232138,40.0536594 116.359674,39.6851812 116.614384,39.4308333 C116.869094,39.1768478 117.236486,39.0493116 117.717283,39.0493116 L117.928877,39.0493116 C118.819457,39.0493116 119.377428,39.4667029 119.603877,40.3003986 L119.624891,40.406558 C120.07779,39.7279348 120.558225,39.2616304 121.067283,39.006558 C121.575616,38.7525725 122.119819,38.6253986 122.700254,38.6253986 C123.138297,38.6253986 123.569094,38.688442 123.993007,38.8163406" id="Fill-22" fill="#FFFFFF"></path>
                <g id="Group-26" transform="translate(126.449275, 38.057971)">
                    <mask id="mask-10" fill="white">
                        <use xlink:href="#path-9"></use>
                    </mask>
                    <g id="Clip-25"></g>
                    <path d="M2.02851449,10.8838406 C1.17344203,10.4099275 0.555326087,9.78492754 0.173442029,9.00666667 C0.0886594203,8.80884058 0.0455434783,8.62514493 0.0455434783,8.45557971 C0.0455434783,8.14471014 0.177065217,7.89398551 0.43865942,7.70304348 C0.700253623,7.51173913 1.04300725,7.41681159 1.46728261,7.41681159 L2.14481884,7.41681159 C2.44264493,7.41681159 2.67163043,7.46971014 2.83467391,7.57550725 C2.99735507,7.68202899 3.19119565,7.86210145 3.41728261,8.11644928 L3.77815217,8.49833333 C4.07452899,8.76681159 4.4498913,8.90050725 4.90242754,8.90050725 C5.39699275,8.90050725 5.78539855,8.81318841 6.06764493,8.63601449 C6.35097826,8.45956522 6.49192029,8.21572464 6.49192029,7.90376812 C6.49192029,7.5226087 6.30134058,7.25086957 5.92054348,7.08782609 C5.5382971,6.92550725 4.92307971,6.75231884 4.07452899,6.56862319 C3.2267029,6.39869565 2.53757246,6.22586957 2.0075,6.04905797 C1.47742754,5.8726087 1.02126812,5.57876812 0.639746377,5.16898551 C0.258224638,4.75884058 0.0672826087,4.20086957 0.0672826087,3.49362319 C0.0672826087,2.75884058 0.300253623,2.14 0.76692029,1.63782609 C1.23394928,1.13637681 1.83068841,0.76173913 2.55931159,0.514275362 C3.28721014,0.267173913 4.03938406,0.142898551 4.81692029,0.142898551 C5.86365942,0.142898551 6.80677536,0.362826087 7.64807971,0.800507246 C8.48938406,1.23891304 9.10097826,1.82550725 9.48286232,2.56028986 C9.58105072,2.74434783 9.63032609,2.9284058 9.63032609,3.11210145 C9.63032609,3.42333333 9.49663043,3.67405797 9.22815217,3.865 C8.95967391,4.05521739 8.61293478,4.15123188 8.18902174,4.15123188 L7.51003623,4.15123188 C7.22706522,4.15123188 7.00858696,4.10557971 6.85242754,4.01318841 C6.69735507,3.92115942 6.50605072,3.76282609 6.28032609,3.53601449 L5.89880435,3.17550725 C5.62996377,2.94942029 5.28322464,2.83637681 4.85894928,2.83637681 C4.49228261,2.83637681 4.1882971,2.91028986 3.94844203,3.05847826 C3.70713768,3.2073913 3.58793478,3.4092029 3.58793478,3.66318841 C3.58793478,3.96028986 3.75713768,4.17586957 4.09626812,4.30992754 C4.43539855,4.44471014 4.98684783,4.58927536 5.75025362,4.74471014 C6.62597826,4.91427536 7.34771739,5.09434783 7.91365942,5.28528986 C8.47887681,5.47623188 8.96945652,5.79797101 9.38684783,6.25014493 C9.80423913,6.70304348 10.0125725,7.31753623 10.0125725,8.09507246 C10.0125725,8.85884058 9.77199275,9.50231884 9.29192029,10.0247826 C8.81112319,10.547971 8.18503623,10.9403623 7.4151087,11.2019565 C6.64445652,11.4635507 5.82815217,11.5939855 4.96547101,11.5939855 C3.86257246,11.5939855 2.88322464,11.357029 2.02851449,10.8838406" id="Fill-24" fill="#FFFFFF" mask="url(#mask-10)"></path>
                </g>
                <path d="M55.9786232,48.218587 C55.3105072,48.5327174 54.607971,48.6899638 53.865942,48.6899638 C52.876087,48.6899638 52.075,48.4309058 51.473913,47.9088043 C50.8692029,47.3859783 50.5666667,46.718587 50.5666667,45.8979348 C50.5666667,44.6059058 51.3289855,43.4040942 52.8481884,42.3008333 L54.4822464,43.8403261 L54.5018116,43.8598913 L57.7496377,46.9189493 C57.2351449,47.4689493 56.6460145,47.9044565 55.9786232,48.218587 M51.9807971,39.8776449 C51.7449275,39.4928623 51.6231884,39.0964855 51.6231884,38.6801812 C51.6231884,38.350471 51.6981884,38.0439493 51.8434783,37.7533696 C51.8630435,37.7062681 51.8905797,37.6591667 51.9221014,37.6160507 C51.9452899,37.5689493 51.9768116,37.5178623 52.0123188,37.4751087 C52.0945652,37.3566304 52.1847826,37.2508333 52.2869565,37.1486594 C52.3264493,37.109529 52.3655797,37.0743841 52.4050725,37.0388768 C52.5894928,36.8696739 52.8050725,36.7243841 53.048913,36.6069928 C53.4804348,36.3946739 53.9561594,36.2848913 54.4706522,36.2848913 L54.540942,36.2848913 C55.0554348,36.2848913 55.5307971,36.3906884 55.9626812,36.6106159 C56.2652174,36.7598913 56.5242754,36.9443116 56.7402174,37.168587 C56.8184783,37.2468478 56.8931159,37.3290942 56.9605072,37.4236594 C56.9757246,37.4392391 56.9873188,37.4548188 56.998913,37.4707609 C57.0112319,37.4863406 57.0192029,37.4982971 57.0268116,37.5138768 C57.0547101,37.5533696 57.0778986,37.5925 57.1018116,37.6316304 C57.1253623,37.6714855 57.1485507,37.7102536 57.1677536,37.7533696 C57.3137681,38.0439493 57.3884058,38.350471 57.3884058,38.684529 C57.3884058,39.0928623 57.2666667,39.4928623 57.0304348,39.8740217 C56.7913043,40.2627899 56.375,40.7298188 55.7862319,41.2801812 L54.5061594,42.4852536 L53.2253623,41.2838043 C52.6362319,40.7298188 52.2202899,40.2627899 51.9807971,39.8776449 M61.0873188,48.6899638 L59.1634058,46.8794565 C59.9913043,45.7367029 60.4702899,44.4493841 60.5967391,43.0156884 C60.6076087,42.8667754 60.5728261,42.7450362 60.4945652,42.6580797 C60.4115942,42.5718478 60.2942029,42.5247464 60.1449275,42.5247464 L59.9365942,42.5247464 C59.6463768,42.5247464 59.4851449,42.6780072 59.4456522,42.9761957 C59.3322464,44.158442 58.975,45.2109783 58.3735507,46.1258333 L55.2318841,43.1725725 L56.1630435,42.3008333 L56.167029,42.3008333 L56.8184783,41.684529 C56.8184783,41.6801812 57.8434783,40.6120652 58.1144928,40.1526449 C58.3818841,39.6856159 58.5192029,39.1986594 58.5192029,38.6957609 C58.5192029,38.609529 58.5152174,38.5229348 58.5072464,38.4410507 C58.4916667,38.2171377 58.4481884,38.0051812 58.3855072,37.7968478 C58.342029,37.6671377 58.2916667,37.5377899 58.2286232,37.4117029 C58.1927536,37.333442 58.15,37.2548188 58.1025362,37.1761957 C58.0710145,37.1211232 58.0362319,37.0660507 58.001087,37.0109783 C57.9931159,37.0033696 57.9891304,36.9921377 57.9807971,36.9838043 C57.9221014,36.8975725 57.859058,36.8149638 57.7927536,36.7367029 C57.7496377,36.6852536 57.7065217,36.6381522 57.6626812,36.5910507 C57.5724638,36.4968478 57.4822464,36.4102536 57.3844203,36.3236594 C57.0858696,36.076558 56.7481884,35.868587 56.3630435,35.7037319 C55.7822464,35.4526449 55.15,35.326558 54.4706522,35.326558 C54.3213768,35.326558 54.1757246,35.334529 54.0347826,35.3464855 C53.5434783,35.3975725 53.0804348,35.5149638 52.6485507,35.6997464 C52.4713768,35.7783696 52.3025362,35.8609783 52.1413043,35.9588043 C51.9728261,36.0573551 51.815942,36.1667754 51.6702899,36.2885145 C51.6702899,36.2925 51.6666667,36.2964855 51.6626812,36.2925 C51.5800725,36.3671377 51.5018116,36.4381522 51.4231884,36.516413 C51.3445652,36.5950362 51.273913,36.6736594 51.2032609,36.7598913 C51.1557971,36.8149638 51.1126812,36.8740217 51.0699275,36.9330797 C51.0380435,36.9758333 51.0068841,37.0193116 50.9753623,37.0660507 C50.9007246,37.1761957 50.8380435,37.2943116 50.7833333,37.4117029 C50.7514493,37.4751087 50.7242754,37.5377899 50.7007246,37.6040942 C50.6847826,37.6472101 50.6692029,37.6906884 50.6532609,37.7341667 C50.6496377,37.7377899 50.6496377,37.7377899 50.6496377,37.7417754 C50.626087,37.8044565 50.6065217,37.8678623 50.5905797,37.9301812 C50.5478261,38.0990217 50.5163043,38.2678623 50.5043478,38.4446739 C50.4960145,38.5272826 50.4923913,38.6131522 50.4923913,38.7001087 C50.4923913,39.2026449 50.6297101,39.6856159 50.8967391,40.1490217 C51.1681159,40.6167754 51.6039855,41.1229348 52.2086957,41.676558 C51.3173913,42.2066304 50.6297101,42.8269203 50.1550725,43.541413 C49.6757246,44.2602536 49.4362319,45.0381522 49.4362319,45.8819928 C49.4362319,46.6088043 49.6246377,47.2606159 50.0018116,47.8298188 C50.3786232,48.4033696 50.9007246,48.8508333 51.5681159,49.1689493 C52.2318841,49.491413 53.0018116,49.6519203 53.865942,49.6519203 C54.7612319,49.6519203 55.6054348,49.475471 56.4025362,49.1218478 C57.1996377,48.7725725 57.9061594,48.2736594 58.5228261,47.633442 L60.0112319,49.0472101 C60.1644928,49.1964855 60.3568841,49.2751087 60.5967391,49.2751087 L60.8594203,49.2751087 C60.9851449,49.2751087 61.0836957,49.2475725 61.1539855,49.1964855 C61.2210145,49.1493841 61.2557971,49.0867029 61.2557971,49.0080797 C61.2557971,48.9098913 61.201087,48.8037319 61.0873188,48.6899638" id="Fill-27" fill="#FFFFFF"></path>
                <path d="M74.3868116,5.71387681 C74.0824638,6.27583333 73.5984058,6.74938406 72.9418841,7.11315217 L72.9418841,9.96460145 C71.9237681,9.6290942 70.8531159,9.4559058 69.7719565,9.4559058 C67.7542029,9.4559058 65.8672464,10.0457609 64.2806522,11.0635145 C64.2346377,10.9577174 64.21,10.8410507 64.21,10.7207609 L64.21,7.36061594 C63.4897101,6.87293478 62.1433333,5.79539855 61.7897101,4.3501087 C61.5810145,3.48778986 61.7436957,2.64684783 62.2705072,1.85880435 C63.2636232,0.36423913 64.5813768,0.0251086957 65.5067391,0.000108695652 L65.6165217,0.000108695652 C66.9451449,0.000108695652 68.0578261,0.597572464 68.7045652,1.18742754 C69.5281159,0.625471014 70.3654348,0.342862319 71.1991304,0.342862319 C72.6835507,0.342862319 73.8922464,0.943949275 74.5172464,1.98597826 C75.1534783,3.03561594 75.1005797,4.36061594 74.3868116,5.71387681" id="Fill-29" fill="#FFFFFF"></path>
                <path d="M76.4528261,26.0194928 C77.1216667,26.8597101 76.9836232,28.0818116 76.1448551,28.7506522 C74.3437681,30.1868841 72.0803623,30.978913 69.772029,30.978913 C65.4535507,30.978913 61.7521014,28.289058 60.2524638,24.4977536 C60.0473913,23.9778261 59.8836232,23.4394203 59.7658696,22.8839855 C59.6673188,22.4238406 59.5999275,21.9510145 59.5665942,21.4702174 C59.5499275,21.2314493 59.5405072,20.9894203 59.5405072,20.7473913 C59.5405072,20.4473913 59.5535507,20.1510145 59.58,19.8568116 C59.620942,19.3763768 59.6952174,18.9028261 59.8035507,18.4426812 C59.9296377,17.8857971 60.1053623,17.3473913 60.3213043,16.8292754 C61.8618841,13.1263768 65.5187681,10.5158696 69.772029,10.5158696 C72.1046377,10.5158696 74.3886957,11.3227536 76.1992029,12.7868841 C77.0339855,13.4611594 77.1644203,14.6854348 76.4897826,15.5198551 C75.8151449,16.3542754 74.5912319,16.4850725 73.7568116,15.8104348 C72.6187681,14.8901449 71.2397826,14.403913 69.772029,14.403913 C66.2731159,14.403913 63.428913,17.2484783 63.428913,20.7473913 C63.428913,21.5165942 63.5665942,22.2564493 63.8198551,22.9397826 C63.9430435,23.2734783 64.0937681,23.5944928 64.2691304,23.8992029 L64.2691304,23.9013768 C65.3644203,25.8053623 67.4205797,27.0905072 69.772029,27.0905072 C71.2249275,27.0905072 72.5908696,26.614058 73.7216667,25.7118841 C74.5615217,25.0434058 75.7836232,25.1814493 76.4528261,26.0194928" id="Fill-31" fill="#FFFFFF"></path>
                <path d="M69.8394565,21.4423913 C69.2097464,21.4423913 68.6974275,20.9318841 68.6974275,20.3003623 C68.6974275,19.6688406 69.2097464,19.1583333 69.8394565,19.1583333 C70.4709783,19.1583333 70.9832971,19.6688406 70.9832971,20.3003623 C70.9832971,20.9318841 70.4709783,21.4423913 69.8394565,21.4423913 M69.8318478,16.675 C67.8441667,16.6434783 66.2438043,18.2978261 66.2532246,20.2630435 C66.2586594,21.3789855 66.7749638,22.3923913 67.5963406,23.0485507 C68.4883696,23.8478261 69.8709783,24.8 69.8709783,24.8 C69.8709783,24.8 71.2963406,23.7822464 72.1756884,22.9681159 C72.1811232,22.9626812 72.186558,22.9572464 72.1923551,22.9532609 C72.2927174,22.8601449 72.3858333,22.7706522 72.4680797,22.6865942 C72.4811232,22.6721014 72.4959783,22.6568841 72.5068478,22.6438406 C72.6097464,22.5322464 72.7046739,22.4130435 72.7901812,22.2862319 C73.1851087,21.7163043 73.4180797,21.0195652 73.4253261,20.2539855 C73.4419928,18.3014493 71.7952536,16.6228261 69.8318478,16.675" id="Fill-33" fill="#FFFFFF"></path>
            </g>
        </g>
    </g>
</svg>