<?xml version="1.0" encoding="UTF-8"?>
<svg width="233px" height="125px" viewBox="0 0 233 125" version="1.1" xmlns="http://www.w3.org/2000/svg" xmlns:xlink="http://www.w3.org/1999/xlink">
    <!-- Generator: Sketch 59.1 (86144) - https://sketch.com -->
    <title>Ilustración / Desarrollo</title>
    <desc>Created with Sketch.</desc>
    <defs>
        <polygon id="path-1" points="6.02595589e-05 0.554069767 232.60526 0.554069767 232.60526 124.418605 6.02595589e-05 124.418605"></polygon>
        <polygon id="path-3" points="0 124.418605 232.605469 124.418605 232.605469 0.554069767 0 0.554069767"></polygon>
        <path d="M39.8830923,1.82616279 C38.9447007,2.45232558 38.1405312,1.625 37.4258429,1.02209302 L37.4258429,1.02209302 C37.2468803,1.42383721 37.2253815,1.84825581 37.3142818,2.25116279 L37.3142818,2.25116279 C37.3142818,2.31802326 37.3363616,2.38488372 37.3590224,2.45232558 L37.3590224,2.45232558 C37.403182,2.60872093 37.4926633,2.76511628 37.5821446,2.92151163 L37.5821446,2.92151163 L37.6042244,2.94418605 C37.6274663,3.01104651 37.6710449,3.07790698 37.7163666,3.12209302 L37.7163666,3.12209302 L37.6942868,3.12209302 C37.6042244,3.14476744 37.5153242,3.16744186 37.4258429,3.16744186 L37.4258429,3.16744186 L37.3142818,3.16744186 C36.7785561,3.2122093 36.2637481,3.05523256 35.8401646,2.71976744 L35.8401646,2.71976744 L36.3090698,3.36860465 C35.7506833,3.41337209 35.1922968,3.23430233 34.7896309,2.85465116 L34.7896309,2.85465116 C34.7681322,3.18953488 34.7681322,3.5255814 34.7896309,3.86046512 L34.7896309,3.86046512 C34.7896309,4.10639535 34.8122918,4.35232558 34.8570324,4.59767442 L34.8570324,4.59767442 L34.7681322,4.59767442 C34.030783,4.59767442 33.2934339,4.35232558 32.7123865,3.90523256 L32.7123865,3.90523256 C32.6908878,4.30697674 32.9366708,4.70930233 33.3155137,4.86627907 L33.3155137,4.86627907 C33.2039526,4.86627907 33.0703117,4.84360465 32.9587506,4.84360465 L32.9587506,4.84360465 L32.7123865,4.84360465 C31.3271696,4.93313953 30.1441571,5.91627907 29.8088928,7.27965116 L29.8088928,7.27965116 L30.1441571,7.30290698 L30.9704065,7.36976744 C30.8588454,7.39186047 30.7246234,7.41337209 30.6130623,7.45872093 L30.6130623,7.45872093 C30.4114389,7.5255814 30.2109776,7.61569767 30.032015,7.70465116 L30.032015,7.70465116 C30.0099352,7.72674419 29.9651945,7.72674419 29.9431147,7.7494186 L29.9431147,7.7494186 C29.4509676,8.01744186 29.027384,8.375 28.6700399,8.7994186 L28.6700399,8.7994186 C28.3121147,9.2244186 28.0436708,9.80581395 28.2005536,10.3645349 L28.2005536,10.3645349 C28.2005536,10.4087209 28.2226334,10.4313953 28.2226334,10.4534884 L28.2226334,10.4534884 C28.2226334,10.4982558 28.2452943,10.5430233 28.2673741,10.5656977 L28.2673741,10.5656977 C28.2894539,10.6325581 28.3347756,10.6994186 28.3789352,10.744186 L28.3789352,10.744186 C28.6700399,11.0796512 29.1831047,11.1906977 29.4962893,10.9011628 L29.4962893,10.9011628 C29.406808,10.9901163 29.3394065,11.0796512 29.272586,11.169186 L29.272586,11.169186 C29.1383641,11.3697674 29.0047232,11.5715116 28.8705012,11.7947674 L28.8705012,11.7947674 L28.8257606,11.8843023 C28.2452943,12.9569767 27.9547706,14.1639535 28.0436708,15.3715116 L28.0436708,15.3715116 C28.0663317,15.594186 28.0889925,15.8180233 28.1337332,16.0412791 L28.1337332,16.0412791 L28.1337332,16.1087209 C28.2005536,16.3994186 28.2452943,16.6895349 28.2452943,16.9802326 L28.2452943,16.9802326 C28.2452943,17.0697674 28.2452943,17.1366279 28.2226334,17.2255814 L28.2226334,17.2255814 C28.2226334,17.2488372 28.2005536,17.2709302 28.2005536,17.2930233 L28.2005536,17.2930233 C28.1784738,17.4046512 28.1337332,17.5168605 28.0889925,17.605814 L28.0889925,17.605814 C27.9768504,17.8296512 27.8879501,18.052907 27.7978878,18.2761628 L27.7978878,18.2761628 C27.7089875,18.6116279 27.6869077,18.9697674 27.7543092,19.3046512 L27.7543092,19.3046512 C27.775808,19.4162791 27.7978878,19.505814 27.8211297,19.6174419 L27.8211297,19.6174419 C27.8647082,19.8406977 27.9326908,20.0651163 27.9995112,20.2877907 L27.9995112,20.2877907 L28.3568554,21.45 C28.5799776,22.2325581 28.8257606,22.9930233 29.0494638,23.7523256 L29.0494638,23.7523256 C29.4288878,25.0046512 29.8088928,26.255814 30.2998778,27.4627907 L30.2998778,27.4627907 C30.6572219,28.2453488 30.9477456,29.027907 31.1935287,29.8319767 L31.1935287,29.8319767 L31.2382693,29.9883721 C31.4393117,30.7930233 31.5061322,31.6430233 31.7745761,32.4023256 L31.7745761,32.4023256 C31.8413965,32.6261628 31.9535387,32.872093 32.0871796,33.0732558 L32.0871796,33.0732558 C32.3103017,33.4302326 32.6234863,33.7430233 32.9587506,34.0110465 L32.9587506,34.0110465 L33.0034913,34.0343023 C33.0034913,34.1901163 33.0255711,34.347093 33.0255711,34.502907 L33.0255711,34.502907 L33.0255711,34.6151163 L33.0255711,34.7488372 C33.0255711,34.9052326 33.0476509,35.0622093 33.0476509,35.2186047 L33.0476509,35.2186047 C33.0703117,36.0011628 33.1150524,36.7837209 33.1150524,37.5656977 L33.1150524,37.5656977 L33.1150524,38.0127907 C31.3056708,38.75 29.9431147,40.3151163 29.4736284,42.2366279 L29.4736284,42.2366279 C29.4288878,42.3930233 29.406808,42.55 29.3620673,42.7063953 L29.3620673,42.7063953 C29.3620673,42.7063953 24.6265312,44.7627907 20.6951646,46.2819767 L20.6951646,46.2819767 C19.645212,46.6843023 18.6626608,47.0645349 17.8358304,47.3325581 L17.8358304,47.3325581 C17.5900474,47.422093 17.3663441,47.4895349 17.1653017,47.5563953 L17.1653017,47.5563953 C16.7190574,47.7127907 16.2501521,47.8244186 15.7806658,47.869186 L15.7806658,47.869186 C15.5575436,47.869186 15.3344214,47.8918605 15.1101372,47.9366279 L15.1101372,47.9366279 C13.1444539,48.2494186 9.66049377,49.7465116 9.86095511,51.1325581 L9.86095511,51.1325581 C9.88419701,51.2215116 9.88419701,51.2889535 9.88419701,51.3784884 L9.88419701,51.3784884 C9.88419701,51.4901163 9.88419701,51.5796512 9.86095511,51.6906977 L9.86095511,51.6906977 C9.68199252,52.6523256 8.52105985,52.4738372 8.52105985,52.4738372 L8.52105985,52.4738372 C8.52105985,52.4738372 7.96209227,56.652907 7.18058354,57.7709302 L7.18058354,57.7709302 C6.53329676,58.6872093 6.13121197,60.877907 6.17595262,62.2627907 L6.17595262,62.2627907 C6.17595262,62.5319767 6.22011222,62.8 6.28751372,63.0453488 L6.28751372,63.0453488 C6.30959352,63.2023256 6.30959352,63.3587209 6.28751372,63.5151163 L6.28751372,63.5151163 C6.13121197,64.252907 5.93016958,64.9901163 5.63964589,65.7052326 L5.63964589,65.7052326 C5.2154813,66.9122093 4.63385287,68.3424419 4.09812718,69.6389535 L4.09812718,69.6389535 C3.33869825,71.4947674 2.66875062,73.1034884 2.62400998,73.4837209 L2.62400998,73.4837209 C2.60193017,73.7290698 2.51244888,74.2209302 2.37764589,74.847093 L2.37764589,74.847093 C2.02146384,76.6348837 1.39509476,79.4959302 1.06041147,80.7255814 L1.06041147,80.7255814 C1.01567082,80.8593023 0.993591022,80.9936047 0.948850374,81.127907 L0.948850374,81.127907 C0.657745636,82.2005814 0.256241895,83.5639535 0.0331197007,84.3686047 L0.0331197007,84.3686047 C0.0331197007,84.3906977 0.0104588529,84.4127907 0.0104588529,84.4360465 L0.0104588529,84.4360465 L0.0331197007,84.4360465 L10.0399177,84.3238372 L10.0399177,84.502907 L10.0625786,84.502907 L10.0625786,84.3238372 L49.2873441,83.8988372 L73.1887282,83.6755814 L73.2555486,83.6755814 L73.2334688,84.0110465 L73.2776284,83.6755814 L73.2776284,83.630814 L73.3002893,83.4965116 L73.5902319,80.6360465 L73.701793,79.4511628 L73.7471147,79.0936047 L73.7918554,79.1383721 L75.0422693,80.6133721 L77.5442594,83.6087209 L77.589,83.652907 L90.477212,83.5412791 L90.5451945,83.4744186 C91.3929426,82.5802326 92.108212,81.5965116 92.6892594,80.5244186 L92.6892594,80.5244186 C92.979202,80.0325581 93.1802444,79.6075581 93.3144663,79.3174419 L93.3144663,79.3174419 C93.3371272,79.272093 93.359207,79.2273256 93.3818678,79.1831395 L93.3818678,79.1831395 C93.4260274,79.0494186 93.4713491,78.9593023 93.4713491,78.9593023 L93.4713491,78.9593023 L93.4039476,78.8255814 C94.4097406,77.8866279 95.5038529,76.477907 95.5927531,74.7802326 L95.5927531,74.7802326 L95.5927531,74.4 C95.5927531,74.3110465 95.5706733,74.1988372 95.5485935,74.0866279 L95.5485935,74.0866279 C95.4370324,73.5505814 95.101187,73.0813953 94.6328628,72.8127907 L94.6328628,72.8127907 C94.4980599,72.7238372 94.3423392,72.6337209 94.1854564,72.5668605 L94.1854564,72.5668605 C93.0466035,72.052907 91.4161845,71.9633721 90.097788,72.0087209 L90.097788,72.0087209 C89.6736234,70.7343023 88.0426234,70.6901163 88.0426234,70.6901163 L88.0426234,70.6901163 L87.7747606,70.3988372 L87.350015,69.9517442 C87.0827332,69.6837209 86.7922095,69.3930233 86.5237656,69.147093 L86.5237656,69.147093 C86.2111621,68.8796512 85.9427182,68.6784884 85.8090773,68.6784884 L85.8090773,68.6784884 L84.8038653,68.6784884 L83.2402668,65.9063953 L79.5546833,59.3354651 C79.5546833,59.3354651 78.5494713,56.9883721 77.9910848,56.2953488 L77.9910848,56.2953488 C77.4321172,55.6023256 76.8743117,50.9988372 76.8743117,50.9988372 L76.8743117,50.9988372 C76.8743117,50.9988372 72.0940349,46.4383721 70.0167905,45.9023256 L70.0167905,45.9023256 C69.1458005,45.6790698 67.4253192,45.3883721 65.5938579,45.0087209 L65.5938579,45.0087209 C64.9233292,44.8738372 64.2092219,44.7180233 63.5392743,44.5610465 L63.5392743,44.5610465 C63.1586883,44.472093 62.7792643,44.3819767 62.4213392,44.2930233 L62.4213392,44.2930233 C61.7293117,44.1139535 61.0367032,43.8906977 60.3667556,43.6447674 L60.3667556,43.6447674 C60.0094115,43.5110465 59.6741471,43.3540698 59.3615436,43.130814 L59.3615436,43.130814 C57.686384,41.9017442 53.4418329,41.7901163 53.4418329,41.7901163 L53.4418329,41.7901163 L53.4418329,41.4767442 C53.4197531,40.6947674 53.0844888,38.5936047 50.2698953,37.5877907 L50.2698953,37.5877907 L50.1583342,37.0965116 C49.9346309,36.1127907 49.7120898,35.0622093 49.5331272,34.0110465 L49.5331272,34.0110465 L49.5331272,33.9895349 C49.5098853,33.9005814 49.5098853,33.8325581 49.4883865,33.7656977 L49.4883865,33.7656977 C49.4663067,33.6319767 49.4430648,33.497093 49.420985,33.3633721 L49.420985,33.3633721 L49.420985,33.3406977 C49.6452693,33.2517442 49.8457307,33.1401163 50.0241122,33.027907 L50.0241122,33.027907 C50.3146359,32.8488372 50.560419,32.6261628 50.7835411,32.3575581 L50.7835411,32.3575581 C51.3198479,31.6866279 51.7219327,30.8825581 51.9229751,30.0331395 L51.9229751,30.0331395 C52.1019377,29.2959302 52.2582394,28.5360465 52.3698005,27.7755814 L52.3698005,27.7755814 C52.7044838,25.6302326 53.1513092,23.4843023 53.933399,21.4732558 L53.933399,21.4732558 C53.9554788,21.427907 53.9781397,21.3610465 54.0002195,21.294186 L54.0002195,21.294186 C54.4028853,20.2656977 54.8938703,19.2377907 55.0060125,18.1651163 L55.0060125,18.1651163 C55.0280923,17.9860465 55.0280923,17.7843023 55.0280923,17.605814 L55.0280923,17.605814 L55.0280923,17.4715116 C54.8938703,15.7063953 53.5092344,14.2755814 53.1745511,12.5552326 L53.1745511,12.5552326 C53.1513092,12.4203488 53.1292294,12.2860465 53.1071496,12.1523256 L53.1071496,12.1523256 C53.062409,11.7052326 53.0844888,11.2581395 53.1745511,10.8110465 L53.1745511,10.8110465 C53.1960499,10.6552326 53.2413716,10.4761628 53.2849501,10.297093 L53.2849501,10.297093 C53.308192,10.1186047 53.3302718,9.94011628 53.3302718,9.76104651 L53.3302718,9.76104651 C53.2849501,9.04593023 52.7044838,8.48662791 52.1466783,8.01744186 L52.1466783,8.01744186 C51.0740648,7.1005814 49.9572918,6.25174419 48.8184389,5.425 L48.8184389,5.425 L48.5273342,5.22325581 L48.4384339,5.15639535 C48.3936933,4.70930233 48.9968204,4.50872093 49.2646833,4.1505814 L49.2646833,4.1505814 C49.2646833,4.12848837 49.2873441,4.12848837 49.2873441,4.10639535 L49.2873441,4.10639535 C49.6220274,3.59244186 49.2426035,2.83197674 48.6621372,2.60872093 L48.6621372,2.60872093 C48.0810898,2.36337209 47.4332219,2.51918605 46.8074339,2.6755814 L46.8074339,2.6755814 C46.8742544,2.02732558 46.5174913,1.40174419 45.9370249,1.13313953 L45.9370249,1.13313953 C45.3333167,0.887209302 44.6407082,1.04418605 44.2171247,1.53604651 L44.2171247,1.53604651 C43.8812793,0.776162791 43.16601,0.261627907 42.3397606,0.172093023 L42.3397606,0.172093023 C42.2723591,0.166860465 42.2072818,0.164534884 42.1451097,0.164534884 L42.1451097,0.164534884 C40.8598329,0.164534884 40.7779052,1.22906977 39.8830923,1.82616279" id="path-5"></path>
    </defs>
    <g id="Page-1" stroke="none" stroke-width="1" fill="none" fill-rule="evenodd">
        <g id="Desktop-HD-Copy" transform="translate(-1003.000000, -413.000000)">
            <g id="Ilustración-/-Desarrollo" transform="translate(1003.000000, 413.000000)">
                <g id="Group-122">
                    <g id="Group-18" transform="translate(0.000000, 0.027326)">
                        <g id="Group-3">
                            <mask id="mask-2" fill="white">
                                <use xlink:href="#path-1"></use>
                            </mask>
                            <g id="Clip-2"></g>
                            <path d="M214.773415,98.4901163 C214.505552,99.0488372 214.259769,99.6081395 213.991325,100.144186 C213.589822,100.993605 213.187737,101.82093 212.807732,102.625 C212.62935,102.98314 212.450388,103.340698 212.293505,103.698256 C210.373143,107.631977 208.585842,111.096512 207.044323,113.957558 C204.229729,119.231977 198.757425,122.539535 192.792974,122.606395 L158.929532,122.987209 L158.571607,122.987209 L155.668113,123.009302 L153.188784,123.031395 L145.571253,123.12093 L145.25865,123.12093 L141.372024,123.165698 L141.259882,123.165698 L117.359079,123.433721 L96.026505,123.657558 L93.5471758,123.679651 L78.134313,123.858721 L78.1122332,123.858721 L68.1042731,123.970349 L67.993293,123.970349 L36.3848965,124.305233 L26.936485,124.418673 C24.9260611,124.440116 22.9156372,124.149419 20.9720337,123.568023 C17.6217145,122.562209 14.5839988,120.640116 12.2383105,118.025 C8.17330299,113.554651 5.22390648,108.324419 3.23614339,102.647093 C2.9456197,101.82093 2.67775686,100.993605 2.43197382,100.16686 C-4.44762718,76.8767442 3.95083167,46.8593023 19.051091,26.7662791 C19.676298,25.9168605 20.3247469,25.1116279 20.9720337,24.3069767 L20.9946945,24.2848837 C25.6407494,18.5848837 30.8451908,13.8244186 36.3848965,10.4273256 C46.213313,4.41453488 57.1143429,2.71627907 67.8143304,7.76744186 C76.883318,12.0366279 85.3491783,14.0482558 93.5471758,14.6069767 C94.3734252,14.6517442 95.2002556,14.6965116 96.026505,14.7186047 C114.835009,15.2773256 132.459338,8.50523256 153.188784,4.12383721 C154.015034,3.94593023 154.841283,3.76686047 155.668113,3.61046512 C170.433108,0.659883721 186.829103,-0.88255814 206.307555,2.38081395 C208.340059,2.71627907 210.328403,3.18546512 212.293505,3.81104651 C213.142415,4.07965116 213.991325,4.39244186 214.773415,4.70523256 C224.065525,8.48313953 229.136325,15.4790698 231.303051,24.2627907 C231.504094,25.0674419 231.683056,25.894186 231.839358,26.7436047 C235.658582,47.8209302 224.44553,77.7261628 214.773415,98.4901163" id="Fill-1" fill="#005C7C" opacity="0.1" mask="url(#mask-2)"></path>
                        </g>
                        <g id="Group-17" transform="translate(2.324190, 3.488372)" fill="#005C7C">
                            <path d="M229.515226,23.2550581 L16.7269596,23.2550581 C17.3521666,22.4056395 18.0006155,21.6009884 18.6479022,20.7963372 L18.6479022,20.7742442 L228.97892,20.7742442 C229.179962,21.5788953 229.358344,22.4056395 229.515226,23.2550581" id="Fill-7"></path>
                            <path d="M30.5825574,10.6037605 L30.5825574,115.037913 L29.8001011,115.037913 C29.3984092,115.967395 28.996136,116.872703 28.6159529,117.753198 C28.4374878,118.144459 28.2584413,118.535719 28.101485,118.927616 L28.101485,9.6252907 C28.9507931,9.91921335 29.7780109,10.2366753 30.5825574,10.6037605" id="Fill-9" transform="translate(29.342021, 64.276453) scale(-1, 1) translate(-29.342021, -64.276453) "></path>
                            <path d="M212.449226,1.21715116 L212.449226,96.6555233 L211.667136,96.6555233 C211.265632,97.5049419 210.863547,98.3322674 210.483542,99.1369186 C210.305161,99.4944767 210.126198,99.8520349 209.969315,100.210174 L209.969315,0.322965116 C210.818226,0.591569767 211.645056,0.881686047 212.449226,1.21715116" id="Fill-9"></path>
                            <path d="M153.344156,0.121918605 L153.344156,119.542849 L150.864246,119.565523 L150.864246,0.61377907 C151.668416,0.457383721 152.495246,0.278895349 153.344156,0.121918605" id="Fill-11"></path>
                            <path d="M93.7022574,11.1854651 L93.7022574,120.169186 L91.2229282,120.191279 L91.2229282,11.0744186 C92.0491776,11.1186047 92.876008,11.1633721 93.7022574,11.1854651" id="Fill-13"></path>
                            <path d="M211.66731,96.6556977 C211.265806,97.5051163 210.863141,98.3324419 210.483717,99.137093 L0.91212818,99.137093 C0.621604489,98.3097674 0.353160599,97.4830233 0.107377556,96.6556977 L211.66731,96.6556977 Z" id="Fill-15"></path>
                        </g>
                    </g>
                    <polygon id="Fill-19" fill="#3D3A56" points="47.2635561 72.8813953 51.5075262 72.8813953 51.5075262 59.9848837 47.2635561 59.9848837"></polygon>
                    <polygon id="Fill-20" fill="#3D3A56" points="161.475973 72.9476744 165.719943 72.9476744 165.719943 59.3139535 161.475973 59.3139535"></polygon>
                    <polygon id="Fill-21" fill="#67617F" points="163.553449 113.627093 163.419808 113.627093 162.637138 113.627093 162.190893 113.627093 158.728432 113.671279 156.561706 113.671279 155.869098 113.693953 155.355452 113.693953 152.71924 113.716047 152.518198 113.716047 152.094033 113.716047 151.647789 113.716047 143.248749 113.782907 142.086654 113.805581 141.930352 113.805581 140.410913 113.805581 78.4474394 114.342209 78.3794569 114.342209 70.4504843 114.409651 70.3604219 114.409651 67.1443247 114.431163 66.6969182 114.431163 66.5632773 114.431163 66.1164519 114.453837 56.0649132 114.520698 55.6180878 114.543372 55.4838658 114.543372 55.0370404 114.543372 34.1286314 114.699186 23.6970878 120.98 23.6970878 124.332907 68.0153147 123.907907 68.1268758 123.907907 78.0895142 123.818953 78.1342549 123.818953 117.35902 123.461395 141.260404 123.237558 141.371966 123.237558 145.280671 123.193372 145.593275 123.193372 158.504729 123.081163 158.862073 123.05907 192.792916 122.768372 192.792916 119.862558 180.239387 113.470116"></polygon>
                    <g id="Group-58" transform="translate(0.000000, 0.027326)">
                        <polygon id="Fill-22" fill="#000000" points="192.792916 119.835407 192.792916 122.741221 158.862073 123.031337 158.504729 123.054012 145.593856 123.166221 145.280671 123.166221 141.371966 123.210407 141.260404 123.210407 117.35902 123.433663 78.1342549 123.791802 78.0895142 123.791802 68.1268758 123.880756 68.0153147 123.880756 23.6970878 124.305174 23.6970878 120.952849 34.1292125 114.672035 55.0370404 114.516221 55.4838658 114.516221 55.6180878 114.516221 56.0649132 114.493547 66.1164519 114.426105 66.5632773 114.404012 66.6969182 114.404012 67.1443247 114.404012 70.3604219 114.381919 70.4499032 114.381919 78.3800379 114.315058 78.4468584 114.315058 140.411494 113.77843 141.930352 113.77843 142.086654 113.77843 143.248168 113.755756 151.647207 113.688895 152.094033 113.688895 152.518779 113.688895 152.71924 113.688895 155.354871 113.666802 155.869098 113.666802 156.561706 113.644709 158.728432 113.644709 162.190893 113.59936 162.637719 113.59936 163.419227 113.59936 163.553449 113.59936 180.239968 113.442965"></polygon>
                        <path d="M66.1388222,108.66 L66.1388222,114.136163 C66.1388222,114.672209 65.8262187,115.141395 65.3567324,115.365233 C65.1783509,115.454767 64.9999693,115.499535 64.7983459,115.499535 L57.0024332,115.65593 C56.8019718,115.65593 56.5782686,115.611163 56.399887,115.521628 C55.9083209,115.298372 55.5951364,114.806512 55.5951364,114.269884 L55.5951364,108.637907 L66.1388222,108.637907 L66.1388222,108.66 Z" id="Fill-24" fill="#3D3A56"></path>
                        <path d="M66.1388222,108.66 L66.1388222,114.136163 C66.1388222,114.672209 65.8262187,115.141395 65.3567324,115.365233 C65.1783509,115.454767 64.9999693,115.499535 64.7983459,115.499535 L57.0024332,115.65593 C56.8019718,115.65593 56.5782686,115.611163 56.399887,115.521628 C55.9083209,115.298372 55.5951364,114.806512 55.5951364,114.269884 L55.5951364,108.637907 L66.1388222,108.637907 L66.1388222,108.66 Z" id="Fill-26" fill="#000000"></path>
                        <path d="M66.5859382,108.66 L66.5859382,114.136163 C66.5859382,114.672209 66.2727536,115.141395 65.8038484,115.365233 C65.6254668,115.454767 65.4465042,115.499535 65.2454618,115.499535 L57.4495491,115.65593 C57.2485067,115.65593 57.0253845,115.611163 56.8464219,115.521628 C56.3554369,115.298372 56.0422524,114.806512 56.0422524,114.269884 L56.0422524,108.637907 L66.5859382,108.637907 L66.5859382,108.66 Z" id="Fill-28" fill="#3D3A56"></path>
                        <mask id="mask-4" fill="white">
                            <use xlink:href="#path-3"></use>
                        </mask>
                        <g id="Clip-31"></g>
                        <polygon id="Fill-30" fill="#3D3A56" mask="url(#mask-4)" points="152.0938 115.7 162.637486 115.7 162.637486 108.659884 152.0938 108.659884"></polygon>
                        <polygon id="Fill-32" fill="#000000" mask="url(#mask-4)" points="152.0938 115.7 162.637486 115.7 162.637486 108.659884 152.0938 108.659884"></polygon>
                        <polygon id="Fill-33" fill="#3D3A56" mask="url(#mask-4)" points="151.647556 115.7 162.191242 115.7 162.191242 108.659884 151.647556 108.659884"></polygon>
                        <polygon id="Fill-34" fill="#000000" mask="url(#mask-4)" points="51.5076424 59.9573837 51.5076424 61.2306395 47.2636723 61.141686 47.2636723 59.9573837"></polygon>
                        <path d="M79.4523608,23.8825 L74.3588995,60.538314 C74.2920791,61.0301744 73.8679145,61.3877326 73.3763484,61.3656395 L32.5432436,60.3144767 L31.7611539,60.2923837 C31.2254282,60.2702907 30.8012636,59.8452907 30.8233434,59.3092442 L30.8233434,59.1970349 L36.5414307,20.8202907 C36.6088322,20.3290116 37.0550766,19.9708721 37.5466426,20.0162209 L78.5366302,22.7871512 C79.0723559,22.8098256 79.4744406,23.2790116 79.4297,23.7935465 C79.4523608,23.838314 79.4523608,23.860407 79.4523608,23.8825" id="Fill-35" fill="#67617F" mask="url(#mask-4)"></path>
                        <polygon id="Fill-36" fill="#005C7C" mask="url(#mask-4)" points="39.2892037 22.7202326 34.9778322 56.5376744 72.5053584 57.7219767 77.1287524 25.0894186"></polygon>
                        <path d="M87.0916813,22.1837209 L130.426776,22.1837209 C131.074063,22.1837209 131.61037,22.7203488 131.61037,23.3686047 L131.61037,59.7337209 C131.61037,60.3819767 131.074063,60.9180233 130.426776,60.9180233 L87.0916813,60.9180233 C86.4438135,60.9180233 85.9075067,60.3819767 85.9075067,59.7337209 L85.9075067,23.3906977 C85.9075067,22.7203488 86.4438135,22.1837209 87.0916813,22.1837209" id="Fill-37" fill="#67617F" mask="url(#mask-4)"></path>
                        <polygon id="Fill-38" fill="#005C7C" mask="url(#mask-4)" points="88.074581 57.0517442 129.622374 57.0517442 129.622374 24.7988372 88.074581 24.7988372"></polygon>
                        <polygon id="Fill-39" fill="#000000" mask="url(#mask-4)" points="165.719768 59.2868605 165.719768 60.1362791 161.475798 60.2252326 161.475798 59.2868605"></polygon>
                        <path d="M184.885791,58.5714535 C184.90787,58.9511047 184.617347,59.2865698 184.237923,59.3092442 L184.215843,59.3092442 L142.399606,60.1807558 C142.042262,60.1807558 141.729658,59.9127326 141.706998,59.554593 L138.088234,22.1615698 C138.044075,21.7819186 138.334017,21.4464535 138.714022,21.401686 L138.736102,21.401686 L180.239736,19.3452907 L180.68598,19.3231977 C181.065985,19.3005233 181.378589,19.5912209 181.401249,19.9487791 L184.885791,58.5714535 Z" id="Fill-40" fill="#67617F" mask="url(#mask-4)"></path>
                        <polygon id="Fill-41" fill="#005C7C" mask="url(#mask-4)" points="140.478257 23.6144767 178.385207 21.7371512 181.579805 55.710407 143.985459 56.604593"></polygon>
                        <path d="M184.885791,58.5714535 C184.90787,58.9511047 184.617347,59.2865698 184.237923,59.3092442 L184.215843,59.3092442 L180.239736,19.3452907 L180.68598,19.3231977 C181.065985,19.3005233 181.378589,19.5912209 181.401249,19.9487791 L184.885791,58.5714535 Z" id="Fill-42" fill="#000000" mask="url(#mask-4)"></path>
                        <path d="M37.5693035,20.0159884 L32.5211638,60.3142442 L31.7390741,60.2921512 C31.2027673,60.2700581 30.7780217,59.8456395 30.8012636,59.3090116 L30.8012636,59.1973837 L36.5187698,20.8206395 C36.630912,20.3287791 37.0777374,19.9712209 37.5693035,20.0159884" id="Fill-43" fill="#000000" mask="url(#mask-4)"></path>
                        <polygon id="Fill-44" fill="#000000" mask="url(#mask-4)" points="47.2635561 72.8534884 51.5075262 72.8534884 51.5075262 69.0313953 47.2635561 69.0313953"></polygon>
                        <polygon id="Fill-45" fill="#000000" mask="url(#mask-4)" points="66.5859382 108.637849 66.5859382 109.755291 56.0422524 110.045988 56.0422524 108.637849"></polygon>
                        <path d="M85.1930509,70.3725 L85.1930509,107.967267 C85.1930509,108.436453 84.8130459,108.838779 84.3214798,108.860872 L41.5232728,110.000988 C41.0311257,110.000988 40.6517017,109.598663 40.6296219,109.106802 L40.6296219,70.3725 C40.6296219,69.8806395 41.0311257,69.5009884 41.5232728,69.4788953 L84.3214798,69.4788953 C84.7909661,69.4788953 85.17039,69.8806395 85.1930509,70.3725" id="Fill-46" fill="#67617F" mask="url(#mask-4)"></path>
                        <path d="M41.5231566,69.4788372 L41.5231566,109.978256 C41.0310095,109.978256 40.6515855,109.576512 40.6295057,109.084651 L40.6295057,70.3724419 C40.6295057,69.8805814 41.0089297,69.4788372 41.5231566,69.4788372" id="Fill-47" fill="#000000" mask="url(#mask-4)"></path>
                        <polygon id="Fill-48" fill="#005C7C" mask="url(#mask-4)" points="43.4660628 71.8702907 83.1155741 71.8702907 83.1155741 105.016802 43.4660628 105.910988"></polygon>
                        <polygon id="Fill-49" fill="#000000" mask="url(#mask-4)" points="161.475973 72.9203488 165.719943 72.9203488 165.719943 69.0313953 161.475973 69.0313953"></polygon>
                        <polygon id="Fill-50" fill="#000000" mask="url(#mask-4)" points="162.190893 108.637849 162.190893 110.090174 151.647207 109.800058 151.647207 108.637849"></polygon>
                        <path d="M176.084433,70.3725 L176.084433,109.106802 C176.084433,109.598663 175.68293,110.000988 175.191364,110.000988 L132.369915,108.860872 C131.901009,108.838779 131.521586,108.459128 131.521586,107.967267 L131.521586,70.3725 C131.521586,69.8806395 131.923089,69.5009884 132.392576,69.4788953 L175.191364,69.4788953 C175.68293,69.4788953 176.084433,69.8806395 176.084433,70.3725" id="Fill-51" fill="#67617F" mask="url(#mask-4)"></path>
                        <path d="M176.084433,70.3725 L176.084433,109.106802 C176.084433,109.598663 175.68293,110.000988 175.191364,110.000988 L175.191364,69.4788953 C175.68293,69.4788953 176.084433,69.8806395 176.084433,70.3725" id="Fill-52" fill="#000000" mask="url(#mask-4)"></path>
                        <polygon id="Fill-53" fill="#005C7C" mask="url(#mask-4)" points="173.247818 71.8702907 133.598888 71.8702907 133.598888 105.016802 173.247818 105.910988"></polygon>
                        <path d="M130.404115,70.3725 L130.404115,107.967267 C130.404115,108.436453 130.024691,108.838779 129.555205,108.860872 L86.756417,110.000988 C86.2648509,110.000988 85.8633471,109.598663 85.8633471,109.106802 L85.8633471,70.3725 C85.8633471,69.8806395 86.2648509,69.5009884 86.756417,69.4788953 L129.555205,69.4788953 C130.024691,69.4788953 130.404115,69.8806395 130.404115,70.3725" id="Fill-54" fill="#67617F" mask="url(#mask-4)"></path>
                        <polygon id="Fill-55" fill="#D0E0ED" mask="url(#mask-4)" points="88.699788 71.8702907 128.349299 71.8702907 128.349299 105.016802 88.699788 105.910988"></polygon>
                        <polygon id="Fill-56" fill="#000000" mask="url(#mask-4)" points="192.792916 119.835407 192.792916 122.741221 158.862073 123.031337 158.504729 123.054012 145.593856 123.166221 145.280671 123.166221 141.371966 123.210407 141.260404 123.210407 117.35902 123.433663 78.1342549 123.791802 78.0895142 123.791802 68.1268758 123.880756 68.0153147 123.880756 23.6970878 124.305174 23.6970878 120.952849 68.9310454 120.640058 69.0426065 120.640058 78.2010753 120.573198 78.245816 120.573198 141.461447 120.170872 141.528267 120.170872 141.573008 120.170872 141.684569 120.170872 142.757183 120.148198 143.069786 120.148198 159.710983 120.03657 160.694115 120.03657 160.917818 120.03657"></polygon>
                        <path d="M108.848594,49.9215116 C115.177362,49.9215116 120.30801,55.0552326 120.30801,61.3877907 C120.30801,67.7197674 115.177362,72.8534884 108.848594,72.8534884 C102.519245,72.8534884 97.3891773,67.7197674 97.3891773,61.3877907 C97.3891773,55.0552326 102.519245,49.9215116 108.848594,49.9215116" id="Fill-57" fill="#FFBFBF" mask="url(#mask-4)"></path>
                    </g>
                    <g id="Group-61" transform="translate(67.982544, 39.562209)">
                        <mask id="mask-6" fill="white">
                            <use xlink:href="#path-5"></use>
                        </mask>
                        <g id="Clip-60"></g>
                        <path d="M39.8830923,1.82616279 C38.9447007,2.45232558 38.1405312,1.625 37.4258429,1.02209302 L37.4258429,1.02209302 C37.2468803,1.42383721 37.2253815,1.84825581 37.3142818,2.25116279 L37.3142818,2.25116279 C37.3142818,2.31802326 37.3363616,2.38488372 37.3590224,2.45232558 L37.3590224,2.45232558 C37.403182,2.60872093 37.4926633,2.76511628 37.5821446,2.92151163 L37.5821446,2.92151163 L37.6042244,2.94418605 C37.6274663,3.01104651 37.6710449,3.07790698 37.7163666,3.12209302 L37.7163666,3.12209302 L37.6942868,3.12209302 C37.6042244,3.14476744 37.5153242,3.16744186 37.4258429,3.16744186 L37.4258429,3.16744186 L37.3142818,3.16744186 C36.7785561,3.2122093 36.2637481,3.05523256 35.8401646,2.71976744 L35.8401646,2.71976744 L36.3090698,3.36860465 C35.7506833,3.41337209 35.1922968,3.23430233 34.7896309,2.85465116 L34.7896309,2.85465116 C34.7681322,3.18953488 34.7681322,3.5255814 34.7896309,3.86046512 L34.7896309,3.86046512 C34.7896309,4.10639535 34.8122918,4.35232558 34.8570324,4.59767442 L34.8570324,4.59767442 L34.7681322,4.59767442 C34.030783,4.59767442 33.2934339,4.35232558 32.7123865,3.90523256 L32.7123865,3.90523256 C32.6908878,4.30697674 32.9366708,4.70930233 33.3155137,4.86627907 L33.3155137,4.86627907 C33.2039526,4.86627907 33.0703117,4.84360465 32.9587506,4.84360465 L32.9587506,4.84360465 L32.7123865,4.84360465 C31.3271696,4.93313953 30.1441571,5.91627907 29.8088928,7.27965116 L29.8088928,7.27965116 L30.1441571,7.30290698 L30.9704065,7.36976744 C30.8588454,7.39186047 30.7246234,7.41337209 30.6130623,7.45872093 L30.6130623,7.45872093 C30.4114389,7.5255814 30.2109776,7.61569767 30.032015,7.70465116 L30.032015,7.70465116 C30.0099352,7.72674419 29.9651945,7.72674419 29.9431147,7.7494186 L29.9431147,7.7494186 C29.4509676,8.01744186 29.027384,8.375 28.6700399,8.7994186 L28.6700399,8.7994186 C28.3121147,9.2244186 28.0436708,9.80581395 28.2005536,10.3645349 L28.2005536,10.3645349 C28.2005536,10.4087209 28.2226334,10.4313953 28.2226334,10.4534884 L28.2226334,10.4534884 C28.2226334,10.4982558 28.2452943,10.5430233 28.2673741,10.5656977 L28.2673741,10.5656977 C28.2894539,10.6325581 28.3347756,10.6994186 28.3789352,10.744186 L28.3789352,10.744186 C28.6700399,11.0796512 29.1831047,11.1906977 29.4962893,10.9011628 L29.4962893,10.9011628 C29.406808,10.9901163 29.3394065,11.0796512 29.272586,11.169186 L29.272586,11.169186 C29.1383641,11.3697674 29.0047232,11.5715116 28.8705012,11.7947674 L28.8705012,11.7947674 L28.8257606,11.8843023 C28.2452943,12.9569767 27.9547706,14.1639535 28.0436708,15.3715116 L28.0436708,15.3715116 C28.0663317,15.594186 28.0889925,15.8180233 28.1337332,16.0412791 L28.1337332,16.0412791 L28.1337332,16.1087209 C28.2005536,16.3994186 28.2452943,16.6895349 28.2452943,16.9802326 L28.2452943,16.9802326 C28.2452943,17.0697674 28.2452943,17.1366279 28.2226334,17.2255814 L28.2226334,17.2255814 C28.2226334,17.2488372 28.2005536,17.2709302 28.2005536,17.2930233 L28.2005536,17.2930233 C28.1784738,17.4046512 28.1337332,17.5168605 28.0889925,17.605814 L28.0889925,17.605814 C27.9768504,17.8296512 27.8879501,18.052907 27.7978878,18.2761628 L27.7978878,18.2761628 C27.7089875,18.6116279 27.6869077,18.9697674 27.7543092,19.3046512 L27.7543092,19.3046512 C27.775808,19.4162791 27.7978878,19.505814 27.8211297,19.6174419 L27.8211297,19.6174419 C27.8647082,19.8406977 27.9326908,20.0651163 27.9995112,20.2877907 L27.9995112,20.2877907 L28.3568554,21.45 C28.5799776,22.2325581 28.8257606,22.9930233 29.0494638,23.7523256 L29.0494638,23.7523256 C29.4288878,25.0046512 29.8088928,26.255814 30.2998778,27.4627907 L30.2998778,27.4627907 C30.6572219,28.2453488 30.9477456,29.027907 31.1935287,29.8319767 L31.1935287,29.8319767 L31.2382693,29.9883721 C31.4393117,30.7930233 31.5061322,31.6430233 31.7745761,32.4023256 L31.7745761,32.4023256 C31.8413965,32.6261628 31.9535387,32.872093 32.0871796,33.0732558 L32.0871796,33.0732558 C32.3103017,33.4302326 32.6234863,33.7430233 32.9587506,34.0110465 L32.9587506,34.0110465 L33.0034913,34.0343023 C33.0034913,34.1901163 33.0255711,34.347093 33.0255711,34.502907 L33.0255711,34.502907 L33.0255711,34.6151163 L33.0255711,34.7488372 C33.0255711,34.9052326 33.0476509,35.0622093 33.0476509,35.2186047 L33.0476509,35.2186047 C33.0703117,36.0011628 33.1150524,36.7837209 33.1150524,37.5656977 L33.1150524,37.5656977 L33.1150524,38.0127907 C31.3056708,38.75 29.9431147,40.3151163 29.4736284,42.2366279 L29.4736284,42.2366279 C29.4288878,42.3930233 29.406808,42.55 29.3620673,42.7063953 L29.3620673,42.7063953 C29.3620673,42.7063953 24.6265312,44.7627907 20.6951646,46.2819767 L20.6951646,46.2819767 C19.645212,46.6843023 18.6626608,47.0645349 17.8358304,47.3325581 L17.8358304,47.3325581 C17.5900474,47.422093 17.3663441,47.4895349 17.1653017,47.5563953 L17.1653017,47.5563953 C16.7190574,47.7127907 16.2501521,47.8244186 15.7806658,47.869186 L15.7806658,47.869186 C15.5575436,47.869186 15.3344214,47.8918605 15.1101372,47.9366279 L15.1101372,47.9366279 C13.1444539,48.2494186 9.66049377,49.7465116 9.86095511,51.1325581 L9.86095511,51.1325581 C9.88419701,51.2215116 9.88419701,51.2889535 9.88419701,51.3784884 L9.88419701,51.3784884 C9.88419701,51.4901163 9.88419701,51.5796512 9.86095511,51.6906977 L9.86095511,51.6906977 C9.68199252,52.6523256 8.52105985,52.4738372 8.52105985,52.4738372 L8.52105985,52.4738372 C8.52105985,52.4738372 7.96209227,56.652907 7.18058354,57.7709302 L7.18058354,57.7709302 C6.53329676,58.6872093 6.13121197,60.877907 6.17595262,62.2627907 L6.17595262,62.2627907 C6.17595262,62.5319767 6.22011222,62.8 6.28751372,63.0453488 L6.28751372,63.0453488 C6.30959352,63.2023256 6.30959352,63.3587209 6.28751372,63.5151163 L6.28751372,63.5151163 C6.13121197,64.252907 5.93016958,64.9901163 5.63964589,65.7052326 L5.63964589,65.7052326 C5.2154813,66.9122093 4.63385287,68.3424419 4.09812718,69.6389535 L4.09812718,69.6389535 C3.33869825,71.4947674 2.66875062,73.1034884 2.62400998,73.4837209 L2.62400998,73.4837209 C2.60193017,73.7290698 2.51244888,74.2209302 2.37764589,74.847093 L2.37764589,74.847093 C2.02146384,76.6348837 1.39509476,79.4959302 1.06041147,80.7255814 L1.06041147,80.7255814 C1.01567082,80.8593023 0.993591022,80.9936047 0.948850374,81.127907 L0.948850374,81.127907 C0.657745636,82.2005814 0.256241895,83.5639535 0.0331197007,84.3686047 L0.0331197007,84.3686047 C0.0331197007,84.3906977 0.0104588529,84.4127907 0.0104588529,84.4360465 L0.0104588529,84.4360465 L0.0331197007,84.4360465 L10.0399177,84.3238372 L10.0399177,84.502907 L10.0625786,84.502907 L10.0625786,84.3238372 L49.2873441,83.8988372 L73.1887282,83.6755814 L73.2555486,83.6755814 L73.2334688,84.0110465 L73.2776284,83.6755814 L73.2776284,83.630814 L73.3002893,83.4965116 L73.5902319,80.6360465 L73.701793,79.4511628 L73.7471147,79.0936047 L73.7918554,79.1383721 L75.0422693,80.6133721 L77.5442594,83.6087209 L77.589,83.652907 L90.477212,83.5412791 L90.5451945,83.4744186 C91.3929426,82.5802326 92.108212,81.5965116 92.6892594,80.5244186 L92.6892594,80.5244186 C92.979202,80.0325581 93.1802444,79.6075581 93.3144663,79.3174419 L93.3144663,79.3174419 C93.3371272,79.272093 93.359207,79.2273256 93.3818678,79.1831395 L93.3818678,79.1831395 C93.4260274,79.0494186 93.4713491,78.9593023 93.4713491,78.9593023 L93.4713491,78.9593023 L93.4039476,78.8255814 C94.4097406,77.8866279 95.5038529,76.477907 95.5927531,74.7802326 L95.5927531,74.7802326 L95.5927531,74.4 C95.5927531,74.3110465 95.5706733,74.1988372 95.5485935,74.0866279 L95.5485935,74.0866279 C95.4370324,73.5505814 95.101187,73.0813953 94.6328628,72.8127907 L94.6328628,72.8127907 C94.4980599,72.7238372 94.3423392,72.6337209 94.1854564,72.5668605 L94.1854564,72.5668605 C93.0466035,72.052907 91.4161845,71.9633721 90.097788,72.0087209 L90.097788,72.0087209 C89.6736234,70.7343023 88.0426234,70.6901163 88.0426234,70.6901163 L88.0426234,70.6901163 L87.7747606,70.3988372 L87.350015,69.9517442 C87.0827332,69.6837209 86.7922095,69.3930233 86.5237656,69.147093 L86.5237656,69.147093 C86.2111621,68.8796512 85.9427182,68.6784884 85.8090773,68.6784884 L85.8090773,68.6784884 L84.8038653,68.6784884 L83.2402668,65.9063953 L79.5546833,59.3354651 C79.5546833,59.3354651 78.5494713,56.9883721 77.9910848,56.2953488 L77.9910848,56.2953488 C77.4321172,55.6023256 76.8743117,50.9988372 76.8743117,50.9988372 L76.8743117,50.9988372 C76.8743117,50.9988372 72.0940349,46.4383721 70.0167905,45.9023256 L70.0167905,45.9023256 C69.1458005,45.6790698 67.4253192,45.3883721 65.5938579,45.0087209 L65.5938579,45.0087209 C64.9233292,44.8738372 64.2092219,44.7180233 63.5392743,44.5610465 L63.5392743,44.5610465 C63.1586883,44.472093 62.7792643,44.3819767 62.4213392,44.2930233 L62.4213392,44.2930233 C61.7293117,44.1139535 61.0367032,43.8906977 60.3667556,43.6447674 L60.3667556,43.6447674 C60.0094115,43.5110465 59.6741471,43.3540698 59.3615436,43.130814 L59.3615436,43.130814 C57.686384,41.9017442 53.4418329,41.7901163 53.4418329,41.7901163 L53.4418329,41.7901163 L53.4418329,41.4767442 C53.4197531,40.6947674 53.0844888,38.5936047 50.2698953,37.5877907 L50.2698953,37.5877907 L50.1583342,37.0965116 C49.9346309,36.1127907 49.7120898,35.0622093 49.5331272,34.0110465 L49.5331272,34.0110465 L49.5331272,33.9895349 C49.5098853,33.9005814 49.5098853,33.8325581 49.4883865,33.7656977 L49.4883865,33.7656977 C49.4663067,33.6319767 49.4430648,33.497093 49.420985,33.3633721 L49.420985,33.3633721 L49.420985,33.3406977 C49.6452693,33.2517442 49.8457307,33.1401163 50.0241122,33.027907 L50.0241122,33.027907 C50.3146359,32.8488372 50.560419,32.6261628 50.7835411,32.3575581 L50.7835411,32.3575581 C51.3198479,31.6866279 51.7219327,30.8825581 51.9229751,30.0331395 L51.9229751,30.0331395 C52.1019377,29.2959302 52.2582394,28.5360465 52.3698005,27.7755814 L52.3698005,27.7755814 C52.7044838,25.6302326 53.1513092,23.4843023 53.933399,21.4732558 L53.933399,21.4732558 C53.9554788,21.427907 53.9781397,21.3610465 54.0002195,21.294186 L54.0002195,21.294186 C54.4028853,20.2656977 54.8938703,19.2377907 55.0060125,18.1651163 L55.0060125,18.1651163 C55.0280923,17.9860465 55.0280923,17.7843023 55.0280923,17.605814 L55.0280923,17.605814 L55.0280923,17.4715116 C54.8938703,15.7063953 53.5092344,14.2755814 53.1745511,12.5552326 L53.1745511,12.5552326 C53.1513092,12.4203488 53.1292294,12.2860465 53.1071496,12.1523256 L53.1071496,12.1523256 C53.062409,11.7052326 53.0844888,11.2581395 53.1745511,10.8110465 L53.1745511,10.8110465 C53.1960499,10.6552326 53.2413716,10.4761628 53.2849501,10.297093 L53.2849501,10.297093 C53.308192,10.1186047 53.3302718,9.94011628 53.3302718,9.76104651 L53.3302718,9.76104651 C53.2849501,9.04593023 52.7044838,8.48662791 52.1466783,8.01744186 L52.1466783,8.01744186 C51.0740648,7.1005814 49.9572918,6.25174419 48.8184389,5.425 L48.8184389,5.425 L48.5273342,5.22325581 L48.4384339,5.15639535 C48.3936933,4.70930233 48.9968204,4.50872093 49.2646833,4.1505814 L49.2646833,4.1505814 C49.2646833,4.12848837 49.2873441,4.12848837 49.2873441,4.10639535 L49.2873441,4.10639535 C49.6220274,3.59244186 49.2426035,2.83197674 48.6621372,2.60872093 L48.6621372,2.60872093 C48.0810898,2.36337209 47.4332219,2.51918605 46.8074339,2.6755814 L46.8074339,2.6755814 C46.8742544,2.02732558 46.5174913,1.40174419 45.9370249,1.13313953 L45.9370249,1.13313953 C45.3333167,0.887209302 44.6407082,1.04418605 44.2171247,1.53604651 L44.2171247,1.53604651 C43.8812793,0.776162791 43.16601,0.261627907 42.3397606,0.172093023 L42.3397606,0.172093023 C42.2723591,0.166860465 42.2072818,0.164534884 42.1451097,0.164534884 L42.1451097,0.164534884 C40.8598329,0.164534884 40.7779052,1.22906977 39.8830923,1.82616279" id="Fill-59" mask="url(#mask-6)"></path>
                    </g>
                    <g id="Group-121" transform="translate(54.618454, 40.143605)">
                        <path d="M65.689382,44.7400581 C65.689382,44.7400581 43.4631576,47.4220349 45.5851426,44.7400581 C46.3445716,43.7790116 46.5682748,40.8958721 46.5235342,37.6319186 C46.5014544,36.626686 46.4787935,35.5981977 46.411392,34.5923837 C46.165609,29.6755233 45.5630628,24.8697093 45.5630628,24.8697093 C45.5630628,24.8697093 64.9967736,15.7063372 62.7632274,22.9702907 C61.8695766,25.8981977 62.1601002,30.0330814 62.8300479,33.8993605 C63.0310903,35.0168023 63.2547935,36.1348256 63.4999955,37.185407 C64.1257835,39.7109884 64.8404718,42.2365698 65.689382,44.7400581" id="Fill-62" fill="#FFBFBF"></path>
                        <path d="M65.689382,44.7400581 C65.689382,44.7400581 43.4631576,47.4220349 45.5851426,44.7400581 C46.3445716,43.7790116 46.5682748,40.8958721 46.5235342,37.6319186 C49.918594,36.1790116 54.2299656,37.2522674 54.2299656,37.2522674 C58.7644594,36.3580814 61.690614,36.5150581 63.5447362,37.163314 C64.1257835,39.7109884 64.8404718,42.2365698 65.689382,44.7400581" id="Fill-64" fill="#000000"></path>
                        <path d="M23.4936631,83.9212209 L23.4936631,83.7421512 L62.7184287,83.3177326 L86.6198127,83.0938953 L86.6866332,83.0938953 L86.6645534,83.4293605 L86.708713,83.0938953 L86.7534536,83.0938953 L86.7534536,83.0497093 L87.0660571,80.0549419 L87.1781993,78.9148256 L87.2229399,78.556686 L87.2450197,78.2659884 L88.6302367,73.6619186 L90.0148726,69.0578488 L91.1763863,65.1909884 L92.9410272,59.268314 C92.9410272,59.268314 91.9358152,56.9212209 91.3774287,56.2502907 C90.8190421,55.5799419 90.2606556,50.9979651 90.2606556,50.9979651 C90.2606556,50.9979651 85.5030397,46.4607558 83.4025534,45.9247093 C82.5315633,45.7008721 80.8116631,45.4107558 78.9802017,45.0299419 C78.2875933,44.8962209 77.5949848,44.7398256 76.9250372,44.5834302 C76.5456132,44.4944767 76.1656082,44.4043605 75.8082641,44.315407 C75.1156556,44.1363372 74.4230471,43.9357558 73.7530995,43.6671512 C73.3957554,43.5328488 73.0610721,43.3764535 72.7478875,43.1531977 C71.1174686,41.9462209 66.9850596,41.8119186 66.8281768,41.8119186 L66.8281768,41.7892442 L66.8281768,41.4991279 C66.8281768,41.409593 66.8281768,41.2973837 66.806097,41.1857558 C66.806097,41.1415698 66.806097,41.1188953 66.7840172,41.0747093 C66.7613564,40.984593 66.7613564,40.9177326 66.7392766,40.8287791 C66.7392766,40.7840116 66.7171968,40.7392442 66.7171968,40.7165698 C66.6492142,40.4485465 66.560314,40.1805233 66.4487529,39.934593 C66.4266731,39.8898256 66.4040122,39.8677326 66.4040122,39.8223837 C66.2924511,39.6218023 66.1582292,39.4206395 66.0240072,39.2415698 C66.0019274,39.1968023 65.9571868,39.1747093 65.935107,39.1299419 C65.7561444,38.9061047 65.555102,38.7055233 65.3319798,38.5485465 C65.2651594,38.5037791 65.2204187,38.459593 65.1530172,38.4148256 C65.1082766,38.3921512 65.0861968,38.3473837 65.0414561,38.3252907 L64.8404137,38.1909884 L64.6620322,38.0793605 C64.5051494,37.9898256 64.3261868,37.9008721 64.1478052,37.8107558 C64.0809848,37.7886628 64.0362441,37.7659884 63.9688426,37.7438953 C63.9020222,37.7218023 63.8131219,37.6770349 63.7230596,37.6549419 L63.7009798,37.6549419 L63.5452591,37.5875 C63.4104561,37.5427326 63.2768152,37.4979651 63.1425933,37.4758721 L62.9421319,37.4311047 L62.7184287,37.3863372 L62.4947254,37.3415698 C62.2716032,37.2973837 62.0258202,37.2520349 61.7806182,37.2299419 L61.5348352,37.2072674 L61.2663913,37.1851744 L60.9985284,37.1630814 L60.6191045,37.140407 L60.171698,37.118314 C58.2060147,37.118314 56.2403314,37.3194767 54.3193888,37.7438953 C52.9789125,37.4531977 51.6163564,37.3194767 50.2317204,37.3642442 L50.0306781,37.3642442 L49.8069748,37.3863372 L49.6733339,37.3863372 L49.3828102,37.4090116 C49.2933289,37.4090116 49.1817678,37.4311047 49.0928676,37.4531977 C49.0028052,37.4758721 48.8912441,37.4758721 48.8023439,37.4979651 L48.6454611,37.5200581 C48.4897404,37.5427326 48.3549374,37.565407 48.1992167,37.6101744 C48.153895,37.6101744 48.1091544,37.6322674 48.0423339,37.6549419 C47.8412915,37.6991279 47.66291,37.7438953 47.4618676,37.8107558 C47.3723863,37.8334302 47.2602441,37.8781977 47.1713439,37.9008721 C47.1266032,37.9229651 47.0824436,37.9229651 47.037703,37.9450581 L46.903481,37.9898256 L46.7692591,38.034593 L46.5902965,38.1014535 C46.5013963,38.1468023 46.411915,38.1688953 46.3445135,38.2136628 C46.3003539,38.2357558 46.2556132,38.2578488 46.2108726,38.2805233 C46.166713,38.3026163 46.1213913,38.3252907 46.0766506,38.3473837 C45.5630047,38.615407 45.0940995,38.9281977 44.6914337,39.3311047 L44.5798726,39.4427326 L44.4688925,39.5543605 C44.4235708,39.5991279 44.401491,39.6218023 44.3567504,39.6665698 C44.2004486,39.8223837 44.0662267,40.0014535 43.9546656,40.1584302 C43.9099249,40.2026163 43.8878451,40.2473837 43.8425234,40.2921512 C43.7088825,40.493314 43.5752416,40.7165698 43.4630995,40.9398256 C43.4410197,40.984593 43.4183589,41.0520349 43.3741993,41.0968023 C43.1952367,41.4764535 43.0389349,41.8561047 42.9267928,42.2590116 C42.8826332,42.415407 42.8378925,42.5497093 42.8158127,42.7055233 C42.7710721,42.9293605 38.0802766,44.784593 34.1709898,46.3043605 C33.1210372,46.706686 32.137905,47.0642442 31.3116556,47.3549419 C31.0658726,47.4444767 30.8421693,47.5113372 30.641708,47.5781977 C30.1948825,47.7351744 29.7259773,47.8468023 29.256491,47.8909884 C29.0333688,47.8909884 28.8096656,47.9136628 28.5865434,47.9584302 C26.7765808,48.2491279 23.6947055,49.5229651 23.3594411,50.7968023 C23.3367803,50.9090116 23.3147005,50.9979651 23.3367803,51.109593 L23.3367803,51.1328488 C23.5604835,52.6968023 21.996885,52.4729651 21.996885,52.4729651 C21.996885,52.4729651 21.4384985,56.6078488 20.6564087,57.7258721 C20.0980222,58.5305233 19.6959374,60.318314 19.6517778,61.681686 C19.629117,62.106686 19.6517778,62.5311047 19.7406781,62.9334302 L19.7406781,62.9555233 C19.8301594,63.2462209 19.6070372,64.0735465 19.249112,65.1241279 C18.8470272,66.2863372 18.2665608,67.6944767 17.7302541,69.0578488 C16.9040047,71.0921512 16.0992541,72.9468023 16.0550945,73.3491279 C16.0324337,73.5281977 15.9656132,73.8630814 15.8987928,74.2659884 C15.5641095,75.9642442 14.8488401,79.2055233 14.491496,80.5235465 C14.2236332,81.5072674 13.8436282,82.8479651 13.5757653,83.7642442 C13.5757653,83.7875 13.5536855,83.809593 13.5536855,83.831686 L23.5604835,83.7421512 L23.4936631,83.9212209 Z" id="Fill-66" fill="#005C7C"></path>
                        <path d="M27.1569925,57.5914535 C27.1569925,57.5914535 39.8894838,64.1850581 44.4687182,63.4030814 L27.1569925,57.5914535 Z" id="Fill-68" fill="#000000"></path>
                        <path d="M53.0686262,54.9093605 C53.0686262,54.9093605 65.4658531,58.9326163 69.5982621,59.4919186 C73.7312521,60.0506395 53.0686262,54.9093605 53.0686262,54.9093605" id="Fill-70" fill="#000000"></path>
                        <path d="M66.8282349,41.9460465 C60.3507187,43.1303488 48.1539531,42.8844186 42.8826913,42.7059302 C44.8257137,35.7774419 54.2299656,38.1239535 54.2299656,38.1239535 C65.8904244,35.7995349 66.7840753,40.6501163 66.8282349,41.9460465" id="Fill-72" fill="#000000"></path>
                        <path d="M66.8282349,41.499186 C60.3507187,42.6834884 48.1539531,42.4375581 42.8826913,42.2590698 C44.8257137,35.33 54.2299656,37.677093 54.2299656,37.677093 C65.8904244,35.3526744 66.7840753,40.2026744 66.8282349,41.499186" id="Fill-74" fill="#005C7C"></path>
                        <path d="M101.205903,72.0525581 C101.205903,72.0525581 108.844933,70.8903488 108.979736,74.2432558 C109.135457,77.5955814 105.092529,79.9426744 105.092529,79.9426744 L101.205903,72.0525581 Z" id="Fill-76" fill="#FFBFBF"></path>
                        <path d="M62.8522439,33.8547674 C62.5175606,34.0117442 62.1822963,34.1233721 61.847613,34.235 C59.4345232,35.0617442 57.0225955,35.9111628 54.4758648,36.2018605 C51.951214,36.5146512 49.2708424,36.2466279 47.0593761,34.9727907 C46.8362539,34.837907 46.6131317,34.704186 46.3894284,34.5251163 C46.1436454,29.6082558 45.5405182,24.8030233 45.5405182,24.8030233 C45.5405182,24.8030233 64.9742289,15.6390698 62.7406828,22.9030233 C61.8917726,25.8756977 62.1822963,29.9884884 62.8522439,33.8547674" id="Fill-78" fill="#000000"></path>
                        <path d="M51.0803401,3.32354651 C50.4324723,3.50261628 49.7398638,3.34563953 49.226799,2.92122093 L49.6951232,3.56947674 C49.1367367,3.63633721 48.5783501,3.45726744 48.1762653,3.07761628 C48.1321057,3.65843023 48.1541855,4.23982558 48.2436668,4.82063953 C47.4842379,4.86540698 46.724809,4.61947674 46.0990209,4.1502907 C46.0769411,4.55261628 46.3000633,4.95552326 46.6800683,5.11133721 C45.0717292,4.91017442 43.5970309,5.93866279 43.1955272,7.50261628 L44.3570409,7.61482558 C43.4413102,7.81598837 42.6144798,8.30784884 42.0340135,9.04563953 C41.6760883,9.49215116 41.4082254,10.0729651 41.5645272,10.609593 C41.72141,11.1462209 42.4802579,11.5037791 42.8829237,11.1241279 C41.6987491,12.5322674 41.207183,14.409593 41.5197865,16.2200581 C41.6313476,16.5997093 41.6534274,17.0020349 41.6313476,17.4049419 C41.5645272,17.7625 41.3187441,18.0973837 41.207183,18.4549419 C40.9834798,19.1037791 41.207183,19.818314 41.3855646,20.4665698 L42.4355172,23.9084302 C42.8155222,25.1607558 43.1955272,26.3898256 43.6865122,27.5968023 C44.0444374,28.356686 44.33438,29.1386628 44.579582,29.943314 C44.8701057,31.0165698 44.8701057,32.2008721 45.473814,33.1619186 C45.8758988,33.765407 46.4342853,34.2351744 47.0815721,34.5700581 C49.2936195,35.8444767 51.9513302,36.1119186 54.4980608,35.7991279 C57.0447915,35.4863372 59.4567192,34.6590116 61.8692279,33.8328488 C62.4055347,33.6758721 62.9191805,33.4526163 63.3886668,33.1619186 C65.0632454,32.0665698 65.4211706,29.831686 65.7337741,27.8869186 C66.0911182,25.6968023 66.5385247,23.506686 67.364193,21.4502907 C67.8557591,20.2206395 68.4809661,18.9688953 68.369986,17.6729651 C68.235183,15.9293605 66.8511282,14.5212209 66.5152828,12.8002907 C66.4037217,12.2194767 66.4037217,11.6380814 66.5385247,11.0572674 C66.6495047,10.7218023 66.6942454,10.3636628 66.7163252,10.0061047 C66.6721656,9.29156977 66.0911182,8.73284884 65.5327317,8.2630814 C64.3264773,7.25726744 63.0981431,6.31831395 61.8024075,5.42412791 C61.735587,4.97761628 62.3387142,4.77645349 62.6286569,4.44098837 C63.0086618,3.94912791 62.6065771,3.14447674 62.0261107,2.92122093 C61.4450633,2.69796512 60.7751157,2.83168605 60.1714075,2.9880814 C60.2835496,2.18343023 59.7025022,1.44622093 58.8983327,1.33401163 C58.4067666,1.26715116 57.9157815,1.46831395 57.6031781,1.84854651 C57.2679137,1.0880814 56.5532254,0.574127907 55.726395,0.484593023 C54.2522778,0.373546512 54.2075372,1.49098837 53.2697267,2.11656977 C52.3313352,2.74215116 51.5498264,1.91540698 50.8124773,1.3119186 C50.4998738,1.96017442 50.6108539,2.74215116 51.0803401,3.32354651" id="Fill-80" fill="#3D3A56"></path>
                        <path d="M106.857519,78.757907 C106.857519,78.757907 106.656476,79.2276744 106.299132,79.9201163 C105.740746,80.9712791 105.070798,81.9544186 104.288708,82.8706977 L104.221888,82.9375581 L103.864544,82.9375581 L90.9751696,83.0497674 L90.6625661,83.0497674 L90.6178254,83.005 L88.1158354,80.0317442 L87.1780249,78.9148837 L87.1332843,78.8695349 L87.043803,78.7805814 L86.9990623,78.735814 L86.9322419,78.6689535 L85.1007805,76.5003488 L85.7707282,73.7067442 L86.9101621,68.9904651 L86.9322419,68.8788372 L87.1559451,67.9852326 L87.3116658,67.3143023 L87.8479726,65.124186 L89.680015,57.5916279 L92.9187731,59.2683721 L96.3364938,65.3026744 L98.1679551,68.5439535 L99.1731671,68.5439535 C99.3521297,68.5439535 99.7989551,68.9015116 100.2452,69.3259302 C100.402082,69.4823256 100.558384,69.6387209 100.692606,69.7730233 C101.09411,70.1753488 101.406713,70.532907 101.406713,70.532907 C101.406713,70.532907 103.037713,70.5776744 103.461878,71.8515116 C103.483958,71.9183721 103.506618,71.985814 103.506618,72.0305814 C103.66292,72.5439535 103.841883,73.035814 104.065005,73.5055814 C104.355529,74.1311628 104.713454,74.8462791 105.070798,75.5619767 C105.762825,76.857907 106.455434,78.1102326 106.700636,78.5567442 L106.723878,78.6015116 L106.857519,78.757907 Z" id="Fill-82" fill="#005C7C"></path>
                        <path d="M87.6693005,68.6777326 L87.6472207,68.9905233 L87.6472207,69.0131977 L87.60248,69.5271512 L87.3119564,73.6620349 L86.9546122,78.6463372 L86.8430511,80.0544767 L86.6193479,83.0498256 L86.6193479,83.0940116 L62.7185449,83.3178488 L23.4937793,83.7422674 L23.4937793,83.9213372 L23.4711185,83.9213372 L23.4711185,83.7422674 L23.4711185,83.675407 L23.5826796,80.4568023 L23.7837219,74.1759884 L23.9400237,68.8568023 L23.9621035,68.3201744 C24.0074252,67.0236628 25.0794576,65.9957558 26.3751933,66.0405233 L26.5088342,66.0405233 C27.5587868,66.1294767 28.9440037,66.241686 30.5744227,66.353314 L31.2449514,66.3980814 C40.6933628,67.0457558 58.1840511,67.8951744 75.8083803,66.8451744 C76.1878042,66.8230814 76.5451484,66.800407 76.9251534,66.7777326 C79.6502656,66.5992442 82.3980387,66.375407 85.10049,66.1073837 C86.3962257,65.9736628 87.5577394,66.9120349 87.6913803,68.2079651 C87.6913803,68.3870349 87.6913803,68.5213372 87.6693005,68.6777326" id="Fill-84" fill="#000000"></path>
                        <path d="M23.4936631,83.9212209 L23.4936631,83.7421512 L62.7184287,83.3177326 L86.6198127,83.0938953 L86.6866332,83.0938953 L86.6866332,83.0497093 L86.9103364,80.0549419 L86.9992367,78.7136628 L87.3565808,73.6619186 L87.6471045,69.6613372 L87.6471045,69.5718023 C87.6691843,69.393314 87.6471045,69.1915698 87.6244436,69.0130814 L87.6244436,68.990407 C87.5576232,68.6107558 87.4013214,68.2531977 87.1781993,67.9625 C86.6866332,67.3148256 85.8824636,66.9787791 85.078294,67.0688953 C82.3752616,67.3369186 79.6501494,67.5601744 76.9029574,67.7392442 C76.5229524,67.7613372 76.1650272,67.7834302 75.7856032,67.8061047 C58.1612741,68.856686 40.6705858,68.0072674 31.2221743,67.3590116 L30.5516456,67.3148256 C28.9218077,67.2026163 27.5365908,67.0909884 26.4866382,67.0014535 C25.2803838,66.8898256 24.2077703,67.7165698 23.9852292,68.9014535 C23.9625683,69.0130814 23.9404885,69.1473837 23.9404885,69.2590116 L23.7836057,74.2206395 L23.5825633,80.5014535 L23.4936631,83.7200581 L23.4936631,83.7875 L23.4936631,83.9212209 Z" id="Fill-86" fill="#3D3A56"></path>
                        <path d="M87.7362953,70.2425 L87.4684324,73.6622674 L87.0663476,78.7576163 L86.9542055,80.0320349 L86.7316643,82.8930814 L86.7084224,83.0268023 L86.7084224,83.0715698 L86.6642628,83.4070349 L86.6863426,83.0715698 L86.6195222,83.0715698 L62.7181382,83.295407 L23.4939536,83.720407 L23.4939536,83.6529651 L23.6049337,80.4343605 L23.8286369,74.1541279 L23.9622778,69.9738953 C23.9849387,69.4820349 24.2307217,69.0576163 24.6554673,68.811686 C24.9006693,68.6558721 25.2132728,68.5884302 25.5037965,68.6105233 C25.9727017,68.6558721 26.5537491,68.7000581 27.2236968,68.7448256 C28.31839,68.8343605 29.6588663,68.923314 31.2218838,69.0134302 C34.1259586,69.1913372 37.7673825,69.3930814 41.9439511,69.5494767 C53.5602504,69.9965698 69.2409761,70.1529651 84.140193,68.8343605 C84.8101406,68.7675 85.5027491,68.7227326 86.1732778,68.6558721 C86.4411406,68.6326163 86.7084224,68.6779651 86.9542055,68.811686 C87.021607,68.8564535 87.0890085,68.8785465 87.1558289,68.923314 C87.3568713,69.0576163 87.5131731,69.2593605 87.6026544,69.4820349 C87.6247342,69.5273837 87.647395,69.5721512 87.647395,69.6163372 C87.7362953,69.8401744 87.7589561,70.0407558 87.7362953,70.2425" id="Fill-88" fill="#000000"></path>
                        <path d="M11.9674843,73.3044767 L11.9674843,74.019593 C11.9674843,74.5556395 11.6542998,75.025407 11.1853945,75.2492442 L2.22796808,75.4277326 C1.73698304,75.2044767 1.4237985,74.7126163 1.4237985,74.1759884 L1.4237985,73.5056395 L11.9674843,73.3044767 Z" id="Fill-90" fill="#000000"></path>
                        <polygon id="Fill-92" fill="#3D3A56" points="12.0786968 75.6737791 0.418818953 75.8970349 0.418818953 73.9528488 12.0786968 73.7290116"></polygon>
                        <polygon id="Fill-94" fill="#000000" points="12.0786968 75.6737791 0.418818953 75.8970349 0.418818953 73.9528488 12.0786968 73.7290116"></polygon>
                        <polygon id="Fill-96" fill="#3D3A56" points="12.5258127 75.6737791 0.865353865 75.8970349 0.865353865 73.9528488 12.5258127 73.7290116"></polygon>
                        <g id="Group-116" transform="translate(40.673317, 1.162791)" fill="#000000">
                            <path d="M10.4966791,1.42325581 C10.2729758,1.13255814 10.1393349,0.797674419 10.0725145,0.462209302 C10.0271928,0.797674419 10.0492726,1.15465116 10.1614147,1.49011628 C10.2729758,1.49011628 10.385118,1.46802326 10.4966791,1.42325581" id="Fill-98"></path>
                            <path d="M7.6595409,2.92046512 C7.61480025,2.65244186 7.59272045,2.36174419 7.57064065,2.09372093 L7.57064065,2.92046512 L7.6595409,2.92046512 Z" id="Fill-100"></path>
                            <path d="M25.8649756,10.3860465 C25.8870554,10.1843023 25.9091352,9.98372093 25.9538758,9.80465116 C26.066018,9.46976744 26.1107586,9.1122093 26.1328384,8.75406977 C26.1328384,8.66453488 26.1107586,8.59767442 26.0880978,8.50872093 C26.0433571,8.70930233 25.9986165,8.91046512 25.9538758,9.13430233 C25.8649756,9.53662791 25.8202349,9.96162791 25.8649756,10.3860465" id="Fill-102"></path>
                            <path d="M21.2182815,3.47912791 L21.4640646,3.65819767 C21.665688,3.50180233 21.8661494,3.34540698 22.045112,3.16633721 C22.2234935,2.92040698 22.2461544,2.6302907 22.1340122,2.36168605 C22.1119324,2.40645349 22.0898526,2.45122093 22.045112,2.49598837 C21.7545883,2.83145349 21.1514611,3.03203488 21.2182815,3.47912791" id="Fill-104"></path>
                            <path d="M2.85683566,5.6252907 C2.76793541,5.78168605 2.70053392,5.96017442 2.65579327,6.13924419 C3.01371845,5.9380814 3.37106259,5.80436047 3.77256633,5.71424419 L2.85683566,5.6252907 Z" id="Fill-106"></path>
                            <path d="M5.93969875,3.18901163 C5.78281596,3.09947674 5.64917506,3.00994186 5.51553416,2.92040698 C5.51553416,3.00994186 5.51553416,3.09947674 5.53761397,3.18901163 C5.67125486,3.16633721 5.80605786,3.16633721 5.93969875,3.18901163" id="Fill-108"></path>
                            <path d="M27.7856858,16.353314 C27.6967855,17.4486628 27.1825586,18.4765698 26.7810549,19.5050581 C25.9542244,21.5614535 25.507399,23.7521512 25.1500549,25.9422674 C24.8374514,27.9091279 24.4801072,30.144593 22.8043666,31.216686 C22.3354613,31.5073837 21.8212344,31.7312209 21.2849277,31.8876163 C18.873,32.7149419 16.4604913,33.5643605 13.9143416,33.8544767 C11.367611,34.1451744 8.7093192,33.8992442 6.49785287,32.6248256 C5.84998504,32.2899419 5.31425935,31.7980814 4.89009476,31.216686 C4.28696758,30.278314 4.28696758,29.0934302 3.99644389,27.9980814 C3.75066085,27.1940116 3.46013716,26.4114535 3.10279302,25.6515698 C2.61122693,24.444593 2.23180299,23.1934302 1.851798,21.9631977 C1.49445387,20.8236628 1.15918953,19.6614535 0.802426434,18.5213372 C0.690284289,18.1864535 0.600802993,17.8288953 0.556062344,17.4486628 C0.466581047,18.0300581 0.645543641,18.6114535 0.802426434,19.1922674 C1.15918953,20.3544767 1.49445387,21.494593 1.851798,22.6341279 C2.23180299,23.8858721 2.61122693,25.1149419 3.10279302,26.3219186 C3.46013716,27.0818023 3.75066085,27.8643605 3.99644389,28.6690116 C4.28696758,29.741686 4.28696758,30.9259884 4.89009476,31.8876163 C5.2915985,32.4911047 5.84998504,32.9602907 6.49785287,33.2957558 C8.7093192,34.569593 11.367611,34.8376163 13.9143416,34.5248256 C16.4604913,34.2120349 18.873,33.3852907 21.2849277,32.5579651 C21.8212344,32.4021512 22.3354613,32.178314 22.8043666,31.8876163 C24.4568653,30.7922674 24.8374514,28.5573837 25.1500549,26.6126163 C25.4847382,24.4225 25.9542244,22.2318023 26.7810549,20.175407 C27.2720399,18.9463372 27.8972469,17.7172674 27.7856858,16.3980814 L27.7856858,16.353314 Z" id="Fill-110"></path>
                            <path d="M1.04786085,15.4817442 L1.04786085,15.4596512 C1.09202045,15.0573256 1.04786085,14.677093 0.936299751,14.2974419 C0.890978055,14.0515116 0.868898254,13.8055814 0.846237406,13.5596512 C0.824157606,14.0288372 0.846237406,14.4986047 0.936299751,14.9677907 C0.980459352,15.1468605 1.0252,15.3253488 1.04786085,15.4817442" id="Fill-112"></path>
                            <path d="M1.71798279,10.028314 C1.89636434,9.73761628 2.07474589,9.46959302 2.29844913,9.20098837 C1.89636434,9.60389535 1.13693541,9.24575581 0.980052618,8.70912791 C0.91323217,8.93296512 0.91323217,9.15680233 0.980052618,9.38005814 C1.09219476,9.71552326 1.38271845,9.96145349 1.71798279,10.028314" id="Fill-114"></path>
                        </g>
                        <path d="M98.190616,68.5437209 C98.190616,68.5437209 98.9047232,71.1140698 98.190616,73.3495349 C97.4759277,75.5838372 98.190616,68.5437209 98.190616,68.5437209" id="Fill-117" fill="#000000"></path>
                        <path d="M101.205903,71.1588953 C101.205903,71.1588953 101.496427,74.421686 100.826479,75.0030814 C100.155951,75.5838953 101.205903,71.1588953 101.205903,71.1588953" id="Fill-119" fill="#000000"></path>
                    </g>
                </g>
            </g>
        </g>
    </g>
</svg>