<svg xmlns="http://www.w3.org/2000/svg" viewBox="0 0 1031.58 539.56"><defs><style>.cls-1{fill:#fff;}</style></defs><title>Recurso 1</title><g id="Capa_2" data-name="Capa 2"><g id="Capa_1-2" data-name="Capa 1"><path class="cls-1" d="M591.59.54h48.72a19.66,19.66,0,0,1,9.52,2.05,16.46,16.46,0,0,1,8.5,16.86c-1.12,8.48-2.07,17-3.11,25.47s-2.12,17-3.15,25.46C651,79,650,87.68,649,96.32c-.84,6.9-1.72,13.8-2.57,20.7-.9,7.22-1.77,14.44-2.66,21.66q-1.58,12.85-3.16,25.7c-.53,4.28-.88,8.6-1.65,12.84a37.52,37.52,0,0,1-33.48,30.6c-1.43.13-2.88.09-4.32.09-20.24,0-40.48.12-60.72-.15l-24.7-.31c-2.71,0-3.3-.59-3-3.33.45-4.45,1.06-8.88,1.61-13.32L517,169.14q1.57-12.84,3.16-25.7,1.3-10.71,2.61-21.42,1.57-12.84,3.17-25.69.78-6.31,1.59-12.61c.36-2.86,1.08-3.52,4-3.53,6.72,0,13.44,0,20.16,0,7.51,0,15,0,22.55,0,3.91,0,4.54.88,4,4.81-1.11,8.72-2.15,17.45-3.23,26.18q-1.56,12.72-3.15,25.45c-.15,1.19-.3,2.38-.41,3.58-.16,1.74.46,2.51,2.21,2.75a11.49,11.49,0,0,0,1.44,0c4.4,0,8.8,0,13.2,0,3.31,0,3.87-.47,4.3-3.78.89-6.82,1.7-13.64,2.54-20.47q1.59-13,3.19-25.93,1.3-10.59,2.58-21.18c.24-2,.51-4,.73-6s-.35-2.63-2.32-2.79c-.79-.06-1.59,0-2.39,0q-26,0-52.08,0c-3.92,0-7.82-.49-11.74-.4-2.29,0-2.91-.62-2.71-2.9.28-3.26.72-6.51,1.12-9.76q1.34-10.95,2.69-21.89c.7-5.71,1.42-11.42,2.11-17.13.29-2.3.53-4.61.8-6.91S538.33.66,540.72.52c.47,0,1,0,1.44,0h49.43Z"/><path class="cls-1" d="M450.53.08c13,0,25.92-.22,38.87.08,7.92.19,15.83.22,23.74.33,2.49,0,3,.51,2.9,3-.08,3.52-.75,7-1.15,10.48-.84,7.22-1.79,14.43-2.68,21.65q-1.46,11.9-2.92,23.79c-.28,2.3-1.18,3.05-3.75,3.05-7.52,0-15,0-22.56,0l-42,0c-.48,0-1,0-1.44,0-1.84.13-2.59.69-2.94,2.53s-.49,3.48-.7,5.23Q434.6,81,433.29,91.87c-.88,7.21-1.79,14.43-2.68,21.65-1,8.48-2,17-3.1,25.46-.36,2.91.15,3.58,3.13,3.6q7,0,13.92,0c3,0,3.61-.46,4-3.54.78-5.78,1.42-11.58,2.14-17.37Q452,111,453.38,100.26c.69-5.55,1.35-11.1,2.08-16.65.39-3,1-3.45,4.05-3.46q16,0,31.92,0c3.84,0,7.68,0,11.52,0,3,0,3.75.89,3.39,3.79-1.35,10.94-2.75,21.88-4.09,32.83-1.21,9.91-2.35,19.84-3.56,29.75-.85,7-1.79,14-2.64,20.93-1,8.49-2,17-3.06,25.47-.47,3.89-.95,7.78-1.47,11.66-.25,1.87-1.12,2.64-3,2.8-.63.06-1.27,0-1.91,0q-38.16,0-76.32-.07c-10.28,0-19.36-3.36-26.65-10.73-8.39-8.5-11.78-18.8-10.33-30.68,1.21-9.92,2.34-19.84,3.55-29.76,1.35-11,2.77-22,4.13-33.06,1.2-9.76,2.34-19.52,3.54-29.28s2.45-19.5,3.65-29.25c1-8.41,2.09-16.81,3-25.23.58-5.26,2.22-10,6.13-13.71A19.29,19.29,0,0,1,410.93,0h39.6Z"/><path class="cls-1" d="M773.66,409h-13.2a17.53,17.53,0,0,1-1.92,0,4.13,4.13,0,0,1-3.8-4.87c.81-6.59,1.66-13.17,2.48-19.75q1.53-12.25,3-24.51,1.37-11,2.7-21.89c.22-1.83.44-3.65.59-5.49a10.63,10.63,0,0,0-.09-2.39c-.62-4.17-2.5-5.85-6.72-6q-2.64-.09-5.28,0c-4.4.15-6.94,2.16-8.2,6.39a55.77,55.77,0,0,0-1.51,9q-2.65,20.93-5.24,41.87c-.88,7.14-1.72,14.29-2.59,21.43a15.25,15.25,0,0,1-.33,1.89,5.19,5.19,0,0,1-5.25,4.37c-1,.05-1.92,0-2.88,0q-12.94,0-25.91,0c-4.09,0-5.58-1.62-5.09-5.61,1.38-11.35,2.81-22.69,4.22-34,1.35-10.87,2.67-21.74,4-32.61a38.65,38.65,0,0,0,.45-6.45c-.16-3.62-1.65-5.45-5.25-6a27,27,0,0,0-8.13,0c-3.66.53-5.79,2.82-6.86,6.23s-1.28,6.91-1.72,10.4q-1.87,14.63-3.67,29.26-1.8,14.4-3.57,28.8c-.2,1.66-.35,3.34-.63,5-.58,3.49-2.37,5.05-5.85,5.07q-14.4,0-28.8,0c-3.45,0-4.93-1.76-4.5-5.19,2.06-16.58,4-33.17,6.19-49.74,1-8,1.71-16.06,3.27-24a49.62,49.62,0,0,1,6.29-16.51c5.4-8.8,13.33-14.31,23-17.36a68.24,68.24,0,0,1,20.32-3.07c5.76,0,11.52-.26,17.21.94a46.54,46.54,0,0,1,14.56,5.38,3.48,3.48,0,0,0,3.79.15,56.45,56.45,0,0,1,20.3-6.22,77.49,77.49,0,0,1,13.63-.43,98.85,98.85,0,0,1,14,1.65,38.82,38.82,0,0,1,13.67,5.61c6.58,4.5,10.18,10.87,11.66,18.59,1.33,6.86.67,13.69-.2,20.52-1.25,9.75-2.45,19.51-3.67,29.27q-1.56,12.48-3.14,25c-.4,3.25-.78,6.5-1.18,9.76-.48,3.86-2.29,5.53-6.17,5.57-4.71,0-9.43,0-14.15,0Z"/><path class="cls-1" d="M123.79,359.06c-.24-5.85.63-11.63,1.41-17.42,1-7.12,1.68-14.29,2.93-21.38a79.94,79.94,0,0,1,11-29.48c8.6-13.46,21-21.7,36.23-25.85a86.61,86.61,0,0,1,21.8-2.92,169.49,169.49,0,0,1,43.51,4.81c1.24.31,2.45.71,3.67,1.1a2.59,2.59,0,0,1,2,2.91c-.19,2.15-.4,4.3-.67,6.44-.72,5.63-1.47,11.25-2.21,16.88,0,.31-.06.63-.1,1-.54,3.76-1.37,4.33-5.23,4.12-6.46-.35-12.92-.86-19.38-1.21-7.76-.43-15.51-.36-23.26-.37a32.94,32.94,0,0,0-6.42.77c-8.44,1.69-13.93,6.73-16.84,14.75a65.33,65.33,0,0,0-3.15,14c-.89,6.9-1.88,13.78-2.64,20.69-.67,6.05-1,12.11.68,18.09,1.94,6.87,6.9,10.74,14,10.82a54,54,0,0,0,9.34-.37c2.11-.35,2.15-.36,2.43-2.51q2.37-18.18,4.74-36.38c.5-3.72,2.13-5.24,5.87-5.26,9.76-.05,19.51,0,29.27,0a8.54,8.54,0,0,1,2.14.27,3.66,3.66,0,0,1,2.94,4.29c-.59,4.92-1.24,9.83-1.88,14.75q-1.81,14.15-3.65,28.3-1.43,11.06-2.9,22.11c-.36,2.72-1.5,4-4.19,4.56-6,1.25-12.11,2.22-18.22,3-7.38.94-14.8,1.39-22.23,1.73-10.78.5-21.42-.29-31.63-4.2q-21.47-8.22-27.48-30.42A58.53,58.53,0,0,1,123.79,359.06Z"/><path class="cls-1" d="M382.51,358.82c-.26-5.77.69-11.7,1.44-17.65.91-7.13,1.58-14.31,2.88-21.38,1.93-10.56,5.3-20.6,11.27-29.62,8.15-12.31,19.47-20.36,33.53-24.61A87.49,87.49,0,0,1,456.46,262a174.66,174.66,0,0,1,37.42,3.42q3.64.75,7.23,1.74c3.21.89,3.75,1.62,3.41,5-.44,4.29-1,8.57-1.56,12.85q-.65,5.11-1.3,10.23c-.42,3.18-1.34,4.05-4.56,3.87-6.3-.35-12.59-.82-18.89-1.24-1-.07-2.08-.1-3.12-.14-4.39-.15-8.78-.11-13.18-.35a60,60,0,0,0-14.09,1c-9.31,1.72-14.84,7.56-17.64,16.36a83,83,0,0,0-2.88,15.05c-.74,5.95-1.54,11.89-2.2,17.85-.61,5.49-.92,11,.24,16.46a22.09,22.09,0,0,0,1.08,3.67c2.2,5.49,6.23,8.64,12.17,9a58,58,0,0,0,11-.33,2,2,0,0,0,2.07-2.06c1.23-10.4,2.54-20.79,3.83-31.18.27-2.14.52-4.28.87-6.41.51-3,2.13-4.44,5.25-4.52,3.75-.08,7.51,0,11.27-.05h18a15.4,15.4,0,0,1,1.92.06,3.69,3.69,0,0,1,3.61,4,43.5,43.5,0,0,1-.64,6.44q-2.81,23-5.71,45.92c-.53,4.28-1,8.57-1.67,12.84-.53,3.56-1.42,4.43-5,5.16q-8.7,1.79-17.51,2.88a214.57,214.57,0,0,1-31.33,1.92c-9.43-.22-18.58-1.91-27.15-6.15-12.79-6.33-20.31-16.68-23.46-30.42-.4-1.79-.69-3.61-1-5.43A58.69,58.69,0,0,1,382.51,358.82Z"/><path class="cls-1" d="M560.81,411a68.13,68.13,0,0,1-17.35-1.53c-7.39-1.67-14.15-4.63-19.73-9.85-6.52-6.11-9.89-13.83-11.12-22.58a61.47,61.47,0,0,1,0-16.26c.9-7.29,1.51-14.63,2.91-21.86a59.53,59.53,0,0,1,8.26-21.09c7-10.93,16.94-17.91,29.27-21.57,9.86-2.93,20-3.38,30.17-2.72,6,.39,12,.83,17.9,1.63a181.09,181.09,0,0,1,18.19,3.17c5.39,1.29,6.33,2.66,5.65,8.09-1.66,13.41-3.39,26.81-5.06,40.21s-3.32,26.81-5,40.21c-.5,4-1.11,7.93-1.45,11.91s-2.49,5.87-6,6.82a115.41,115.41,0,0,1-11.77,2.31A206,206,0,0,1,560.81,411Zm4.81-31.35a57.55,57.55,0,0,0,8.61-.53c2.3-.2,2.74-.62,3-2.9.39-2.85.7-5.71,1.06-8.56q1.59-12.72,3.17-25.45c.6-4.92,1.19-9.84,1.74-14.76.18-1.72.07-1.75-1.56-2a76.89,76.89,0,0,0-12.69-.46,13.51,13.51,0,0,0-12.06,7.41,25.8,25.8,0,0,0-2.76,8.14c-1.32,7.88-2.24,15.83-3,23.78a20.51,20.51,0,0,0,1,8.29,9.57,9.57,0,0,0,6.77,6.53C561.16,379.87,563.4,379.6,565.62,379.67Z"/><path class="cls-1" d="M315.61,293.84c8,.27,16,1.08,23.5,4.12,12.24,4.93,19.59,14,22.38,26.77a60.77,60.77,0,0,1,.68,21.22c-.94,7-1.52,14-3.06,20.87-2.34,10.49-6.64,20.06-14,28-8.15,8.75-18.45,13.53-30.1,15.68a72.59,72.59,0,0,1-13.36,1.23c-8.75,0-17.41-1-25.54-4.61-11.69-5.21-18.63-14.23-21.23-26.67-1.58-7.61-1.32-15.28-.35-22.92.68-5.39,1.18-10.81,2.24-16.15,1.83-9.2,5-17.85,10.58-25.5a50.69,50.69,0,0,1,27.22-19C301.41,294.77,308.48,294.11,315.61,293.84Zm7.9,47.08a22.93,22.93,0,0,0-.65-6.91c-1.14-4.36-3.83-7.22-8.37-7.84-7.62-1-13.17,1.6-16.55,8.9A31.74,31.74,0,0,0,295.3,344c-.83,5.94-1.66,11.88-2.3,17.83a24.29,24.29,0,0,0,1.13,11.37c1.36,3.57,3.93,5.9,7.75,6.37,7.43.91,12.77-.77,16.52-8.79.43-.94.8-1.92,1.15-2.9a50.44,50.44,0,0,0,2.26-11C322.44,351.56,323.45,346.29,323.51,340.92Z"/><path class="cls-1" d="M71.05,362.92H42.75l-2.16,0a1.52,1.52,0,0,0-1.67,1.63,23,23,0,0,0,.23,6,9.64,9.64,0,0,0,5.39,6.94,22.76,22.76,0,0,0,10,2.07c7.91.12,15.81-.31,23.71-.7,5.51-.27,11-.52,16.53-.67,3-.08,3.92,1,3.54,3.93-.74,5.79-1.56,11.57-2.29,17.36a5.86,5.86,0,0,1-4.45,5.33,129,129,0,0,1-21.53,4.69A162.26,162.26,0,0,1,45,410.91a59.89,59.89,0,0,1-21.31-4.16C9.8,401,2.39,390.44.43,375.76a64.81,64.81,0,0,1,.38-17.43c.93-6.73,1.45-13.52,3-20.15,2.4-10.21,6.7-19.49,13.87-27.27,7.92-8.57,17.81-13.69,29.14-16.08a73.08,73.08,0,0,1,30.71-.11,39.32,39.32,0,0,1,18.73,9.16c7.08,6.46,10.5,14.73,11.8,24,1.07,7.68.38,15.31-.66,22.93-.27,2-.52,4-.78,5.94-.08.56-.14,1.11-.26,1.66-.71,3.11-2.36,4.49-5.57,4.51-7.19,0-14.39,0-21.59,0H71.05ZM56.39,341.7v0c4.15,0,8.3,0,12.45,0,1.85,0,2-.18,2.31-2a18.77,18.77,0,0,0-1-10.12,9.73,9.73,0,0,0-7.06-6.25,14.89,14.89,0,0,0-2.83-.44c-5.43-.4-10.06,1.21-13.57,5.55a23.57,23.57,0,0,0-4.54,10.67c-.44,2.24-.2,2.55,2.06,2.57C48.25,341.72,52.32,341.7,56.39,341.7Z"/><path class="cls-1" d="M888,362.5H859.66c-.56,0-1.12,0-1.68,0-1.73.09-2,.28-2.06,1.93a25.82,25.82,0,0,0,.07,4.31c.57,4.93,3.42,7.95,8.08,9.36a21,21,0,0,0,5.42,1,117.06,117.06,0,0,0,14.14-.17c.32,0,.64-.09,1-.09,8.88,0,17.72-.88,26.59-1.14a11.64,11.64,0,0,1,1.67,0c1.87.17,2.53.85,2.6,2.75a47,47,0,0,1-.67,6.68c-.38,3.57-.87,7.13-1.32,10.7-.06.48-.16,1-.22,1.42a5.53,5.53,0,0,1-4.23,4.95,123.66,123.66,0,0,1-13.24,3.42,152,152,0,0,1-37,2.78A49.81,49.81,0,0,1,834,403c-7.89-5-12.76-12.18-15.2-21.08a52.89,52.89,0,0,1-1.35-20.69c.88-7,1.46-14,2.82-20.91a62.4,62.4,0,0,1,10.52-25,51.61,51.61,0,0,1,28.25-19.58,70.5,70.5,0,0,1,37-1c15.92,3.94,25.35,14.13,28.51,30.17a67.7,67.7,0,0,1,.31,21.73c-.41,3.33-.88,6.65-1.25,10-.46,4.18-2.19,5.85-6.36,5.87-9.75,0-19.51,0-29.27,0Zm-14.61-21.21v0c4.15,0,8.3,0,12.45,0,1.84,0,2-.22,2.36-2a18.64,18.64,0,0,0-.47-8.07c-1.36-5.56-5.07-8.46-10.85-8.6-.87,0-1.75,0-2.63,0a13.45,13.45,0,0,0-9,3.85,21,21,0,0,0-5.86,11.29c-.74,3.5-.68,3.55,2.78,3.55C865.85,341.28,869.6,341.29,873.36,341.29Z"/><path class="cls-1" d="M992.73,292.77a127.33,127.33,0,0,1,33.91,4.34c.46.12.93.24,1.38.39,2.84.91,3.79,2.2,3.52,5.16s-.71,5.87-1.07,8.8c-.44,3.49-.87,7-1.32,10.46a11.15,11.15,0,0,1-.29,1.65c-.58,2.14-1.54,2.89-3.76,2.95a55.63,55.63,0,0,1-7.4-.69c-7.23-.72-14.46-1.53-21.73-1.81-3.11-.12-6.2-.67-9.31,0a9.47,9.47,0,0,0-2.29.69,3.5,3.5,0,0,0-.85,5.67,13.18,13.18,0,0,0,3,2q11.21,6.22,22.43,12.47a39,39,0,0,1,11.35,9.48,24.26,24.26,0,0,1,5.46,14.1,37.09,37.09,0,0,1-4.94,20.95c-4.22,7.38-10.53,12.36-18.2,15.69a64.39,64.39,0,0,1-21.87,5,139.11,139.11,0,0,1-41.37-3.86c-5.08-1.2-5.62-2.16-5-7.39.73-5.71,1.39-11.42,2.09-17.14a10.69,10.69,0,0,1,.38-1.87,3.94,3.94,0,0,1,4.07-3.06,59.4,59.4,0,0,1,7.87.77c9.85,1,19.68,2.38,29.62,2.18a16.18,16.18,0,0,0,4.27-.54,4.59,4.59,0,0,0,3.61-3.74,5,5,0,0,0-1.85-5.33,56.18,56.18,0,0,0-6.35-3.85c-6.76-3.8-13.56-7.54-20.29-11.39-5.69-3.25-10.23-7.59-12.88-13.76a27.47,27.47,0,0,1-2.12-9.06,37.83,37.83,0,0,1,3.1-18.26c3.71-8.3,10.28-13.49,18.54-16.76A66.31,66.31,0,0,1,987,292.78C988.89,292.71,990.81,292.77,992.73,292.77Z"/><path class="cls-1" d="M187.42,524.79c-7-.07-12.46-1.56-17.09-5.44a13.89,13.89,0,0,1-5.1-9.72c-.16-1.75.38-2.3,1.92-2.29,1,0,1.7.44,1.75,1.52.24,5.85,4.08,8.84,8.92,10.72a22.43,22.43,0,0,0,19.68-1.29,13.15,13.15,0,0,0,5.26-5.12c2-3.55,1.32-6.82-1.84-9.39a30.57,30.57,0,0,0-8.18-4.47c-4.15-1.67-8.37-3.18-12.52-4.86a35.32,35.32,0,0,1-8.8-4.84c-4.77-3.76-5.88-9.25-2.81-14.54a18.21,18.21,0,0,1,12.16-8.64,22,22,0,0,1,19.67,4.19,14,14,0,0,1,5.4,10.33c.12,1.74-.44,2.37-1.91,2.35a1.65,1.65,0,0,1-1.79-1.8,9.87,9.87,0,0,0-.8-4,12.34,12.34,0,0,0-5.77-5.9c-6.93-3.37-13.75-3.13-20.26,1.19a10.77,10.77,0,0,0-4.5,6.57,6.3,6.3,0,0,0,1.77,6.37,20.5,20.5,0,0,0,6.21,4c4.57,2.14,9.37,3.7,14,5.59a42.58,42.58,0,0,1,8.56,4.29,29.94,29.94,0,0,1,2.44,1.93c5.1,4.49,4.18,10.4,1.38,14.5s-6.87,6.36-11.52,7.7A21.48,21.48,0,0,1,187.42,524.79Z"/><path class="cls-1" d="M590.18,524.77c-6.62-.13-12.63-1.86-17.34-6.83a12.06,12.06,0,0,1-3.58-8.88c0-1.37.69-1.81,2-1.69a1.44,1.44,0,0,1,1.42,1.59,10.63,10.63,0,0,0,1.46,4.77,12.9,12.9,0,0,0,6.3,5.35,23.09,23.09,0,0,0,20-.22,13.15,13.15,0,0,0,6.28-5.71c1.78-3.38,1.32-6.28-1.42-8.9-2.91-2.78-6.62-4.13-10.26-5.58-4-1.6-8-3.11-12.07-4.7a31.34,31.34,0,0,1-6.92-3.81,13.1,13.1,0,0,1-3.78-4,9.48,9.48,0,0,1-1.24-6.91c1.33-6.28,5.5-10,11.2-12.1a22.33,22.33,0,0,1,18.39.95,15.61,15.61,0,0,1,8.73,10.27,10.33,10.33,0,0,1,.31,3.32,1.45,1.45,0,0,1-1.52,1.51c-1,.06-1.75-.21-1.9-1.34a2,2,0,0,0,0-.24c-1.39-7.07-5.25-10.9-12.41-12a19.58,19.58,0,0,0-11.73,1.43,13.64,13.64,0,0,0-6.66,6.32c-1.77,3.7-.9,7.08,2.41,9.52a28.61,28.61,0,0,0,6.51,3.56c4.46,1.77,8.94,3.48,13.39,5.27a40.26,40.26,0,0,1,8.67,4.6c5.76,4.15,6.71,10.75,2.29,16.33-3.22,4.07-7.56,6.3-12.53,7.46A22.07,22.07,0,0,1,590.18,524.77Z"/><path class="cls-1" d="M638,490.79a30.22,30.22,0,0,1,3.94-4.14c8.66-6.82,20.28-5,26.78,4a22.48,22.48,0,0,1-1.66,28.12,18.4,18.4,0,0,1-26.24,1c-1-.93-2.05-1.77-3.16-2.73-.31.3-.12,1-.12,1.54,0,5.83,0,11.67,0,17.5,0,.72,0,1.44,0,2.15-.07,1-.71,1.36-1.63,1.37s-1.71-.35-1.77-1.47c0-.56,0-1.12,0-1.68q0-25.41,0-50.82c0-.48,0-1,0-1.44a1.47,1.47,0,0,1,1.63-1.63c1.19,0,1.76.4,1.8,1.67.08,2.15,0,4.3,0,6.44ZM669.15,503a17.1,17.1,0,0,0-3.74-10.72,14.79,14.79,0,0,0-22.32-1.74,18.75,18.75,0,0,0-2.55,23.35c5.72,8.81,16.76,9.86,24,2.25C667.81,512.61,669.19,508.36,669.15,503Z"/><path class="cls-1" d="M532,505.5H518.11c-.56,0-1.12,0-1.68,0-1.58.13-1.86.44-1.57,2a17.7,17.7,0,0,0,2.29,6c6.63,10.73,19.5,8.86,24.82,3.22l1.66-1.73c1.33-1.44,1.54-1.49,2.71-.56s1.27,1.34,0,3a18.4,18.4,0,0,1-9.78,6.58c-12.52,3.49-22.67-4.08-25.12-15.15-1.78-8.1.23-15.22,6.14-21.1,7.37-7.32,19.49-6.9,26.72,1.28a21.11,21.11,0,0,1,5.35,13.32c.14,2.95-.11,3.18-3,3.19C541.78,505.52,536.9,505.5,532,505.5Zm-1.74-3.83c4.55,0,9.1,0,13.65,0,1.94,0,2.16-.28,1.82-2.09-1.5-7.91-9.23-15.76-19.82-12.68-5.95,1.73-9.35,6.14-10.87,12-.61,2.36-.36,2.71,2,2.73C521.49,501.7,525.88,501.67,530.28,501.67Z"/><path class="cls-1" d="M403.14,517.32c-.7.75-1.4,1.52-2.12,2.26-6.94,7-17.28,6.91-24.1-.3-8.23-8.71-7.94-23.36.62-31.72,7-6.84,16.94-6.7,23.74.36a8.68,8.68,0,0,0,2.37,1.94v-5.64a1.47,1.47,0,0,1,1.56-1.7c1.2-.06,1.75.38,1.88,1.61a15.7,15.7,0,0,1,0,1.68v35.51c0,.4,0,.8,0,1.2-.09,1.75-.48,2.22-1.82,2.18s-1.6-.42-1.65-2.08,0-3.48,0-5.22Zm.49-13.71a21.35,21.35,0,0,0-2.45-9.61,14.74,14.74,0,0,0-7.16-6.82c-5.44-2.29-11.78-.36-15.57,4.65a19.53,19.53,0,0,0,.51,24.23c6.18,7.28,15.47,6.67,20.93-.67C402.46,511.93,403.43,507.92,403.63,503.61Z"/><path class="cls-1" d="M265.55,503.67a21.92,21.92,0,0,1-5.62,14.88c-8.91,9.83-24.05,7.64-30.52-4.06A22.34,22.34,0,0,1,233,488.13c9.6-9.47,23.43-6.1,29.32,3.9A21.85,21.85,0,0,1,265.55,503.67Zm-35.14.18a17.26,17.26,0,0,0,3.52,10.92,14.88,14.88,0,0,0,22.83,1.93c6.8-6.68,6.94-18.82.29-25.65-6-6.17-14.74-6.58-21.06-.78A17.13,17.13,0,0,0,230.41,503.85Z"/><path class="cls-1" d="M711.45,524.76c-8.55,0-16-5.93-18.48-14.77a21.78,21.78,0,0,1,3.43-19.59c8-10.83,23.76-10.72,31.33,1.72a22.1,22.1,0,0,1-2.33,26.31A17.86,17.86,0,0,1,711.45,524.76Zm15.78-21.16a17.26,17.26,0,0,0-3.76-11.37,14.82,14.82,0,0,0-22.16-1.89,18.61,18.61,0,0,0-2.69,23.5c5.73,8.81,16.77,9.86,24,2.24A17.24,17.24,0,0,0,727.23,503.6Z"/><path class="cls-1" d="M849.26,524.76a19.85,19.85,0,0,1-12.59-3.88,9.88,9.88,0,0,1-3.73-5.7c-.37-1.56-.05-2.29,1-2.53,1.26-.31,2,.09,2.44,1.53a8.14,8.14,0,0,0,4.68,5.17,18.75,18.75,0,0,0,17.31-.48,7.54,7.54,0,0,0,2.57-2.12c1.89-2.58,1.5-5.2-1.13-7a29.84,29.84,0,0,0-8.34-3.6c-3-.94-6-1.85-8.84-3a22.28,22.28,0,0,1-4.25-2.21c-5.18-3.54-5.58-9.91-.9-14.11,5.81-5.21,16.09-5.7,22.32-1a10.59,10.59,0,0,1,4.53,7.09c.13.94,0,1.77-1.12,2s-2.21-.12-2.42-1.28c-.78-4.2-3.82-6-7.47-6.85a15.27,15.27,0,0,0-11.4,1.3,8.37,8.37,0,0,0-3.72,3.94,3.86,3.86,0,0,0,.69,4.45,11,11,0,0,0,3.91,2.71,68.27,68.27,0,0,0,8.12,2.92,59.35,59.35,0,0,1,7.42,2.72,23.37,23.37,0,0,1,2.76,1.45c5.89,3.64,6.37,9.73,1.14,14.32C859.15,523.22,854.47,524.75,849.26,524.76Z"/><path class="cls-1" d="M288.48,503.66a17.86,17.86,0,0,0,6.19,14c5.24,4.66,14.21,4.67,19.38-.07.88-.81,1.68-1.72,2.51-2.58,1.11-1.18,1.45-1.22,2.55-.3s1.16,1.32.21,2.63a17.43,17.43,0,0,1-9.88,6.79c-9.87,2.63-19.6-2.59-23.27-12.45A22.4,22.4,0,0,1,292.29,487c7.58-6.78,20.65-5.63,26.86,2.36,1.18,1.53,1.08,2.14-.4,3.08a1.33,1.33,0,0,1-2.06-.35,13.22,13.22,0,0,0-2.45-2.62c-5.94-4.67-16.82-4.87-22.52,3.39A18,18,0,0,0,288.48,503.66Z"/><path class="cls-1" d="M812,524.7c-3.41-.17-6.65-.81-9.38-3.07s-3.77-5.47-3.79-9c0-7.51,0-15,0-22.54,0-3.83,0-3.83-3.82-3.85-.56,0-1.12,0-1.68,0-1.42-.14-1.78-.6-1.78-2,0-1.22.64-1.73,1.78-1.76s2.4,0,3.59-.06c1.48-.1,1.81-.41,1.88-1.91.08-1.92,0-3.84.07-5.76,0-.95.33-1.71,1.46-1.86,1.38-.18,2.14.33,2.23,1.79.1,1.75,0,3.51.07,5.27.06,2.19.31,2.45,2.54,2.49,2.71,0,5.43,0,8.15.06,1.55,0,2,.64,1.88,2.12-.07,1.28-.85,1.62-1.92,1.63-2.16,0-4.32,0-6.48,0-4.29,0-4.19-.2-4.18,4.21q0,10.31,0,20.62c0,.8,0,1.6,0,2.4a6.89,6.89,0,0,0,5.28,6.87,18.19,18.19,0,0,0,5.43.87c1.12,0,1.83.44,1.82,1.69,0,1-.37,1.71-1.49,1.76C813.07,524.72,812.51,524.7,812,524.7Z"/><path class="cls-1" d="M436.79,494.78v25.89c0,.72,0,1.44,0,2.15-.13,1.53-.52,1.9-1.87,1.9s-1.73-.38-1.86-1.91c0-.64,0-1.28,0-1.92q0-26.13,0-52.25a19.41,19.41,0,0,1,.05-2.16c.15-1.28.65-1.7,1.84-1.7s1.69.43,1.83,1.72a19.3,19.3,0,0,1,.06,2.15Z"/><path class="cls-1" d="M757.45,490a21.08,21.08,0,0,1,7.18-5.45,24.36,24.36,0,0,1,9.54-2c1.59,0,2,.4,2.05,1.7s-.31,1.86-1.74,2-2.73.09-4.05.34c-8.32,1.6-13.15,7.43-13.34,16.26-.13,6,0,12,0,18,0,.72,0,1.44,0,2.15-.12,1.39-.52,1.78-1.72,1.78s-1.6-.39-1.73-1.78c-.05-.55,0-1.12,0-1.67q0-17.73,0-35.46c0-.56,0-1.12,0-1.68a1.47,1.47,0,0,1,1.66-1.6c1.18,0,1.7.4,1.78,1.7s0,2.4,0,3.59C757.08,488.49,756.85,489.23,757.45,490Z"/><path class="cls-1" d="M343.74,503.31v-17c0-.63,0-1.28,0-1.91.14-1.48.59-1.9,1.9-1.93s1.74.41,1.86,1.9c0,.47,0,.95,0,1.43q0,17.71,0,35.43c0,.56,0,1.12,0,1.68,0,1.13-.48,1.8-1.71,1.81s-1.85-.37-2-1.78a19.23,19.23,0,0,1-.06-2.15Z"/><path class="cls-1" d="M345.72,476.74c-1.34,0-1.94-.6-1.88-1.85s.6-1.61,1.88-1.62,1.9.51,1.84,1.85S347,476.74,345.72,476.74Z"/></g></g></svg>