<?xml version="1.0" encoding="UTF-8"?>
<svg width="100px" height="21px" viewBox="0 0 100 21" version="1.1" xmlns="http://www.w3.org/2000/svg" xmlns:xlink="http://www.w3.org/1999/xlink">
    <!-- Generator: Sketch 52.5 (67469) - http://www.bohemiancoding.com/sketch -->
    <title>endesa</title>
    <desc>Created with Sketch.</desc>
    <defs>
        <linearGradient x1="0.481540931%" y1="116.703679%" x2="74.4783307%" y2="3.5634711%" id="linearGradient-1">
            <stop stop-color="#FFFFFF" offset="34%"></stop>
            <stop stop-color="#FFFFFF" stop-opacity="0.96" offset="40%"></stop>
            <stop stop-color="#FFFFFF" stop-opacity="0.84" offset="50%"></stop>
            <stop stop-color="#FFFFFF" stop-opacity="0.64" offset="63%"></stop>
            <stop stop-color="#FFFFFF" stop-opacity="0.38" offset="80%"></stop>
            <stop stop-color="#FFFFFF" stop-opacity="0.04" offset="98%"></stop>
            <stop stop-color="#FFFFFF" stop-opacity="0" offset="100%"></stop>
        </linearGradient>
        <linearGradient x1="39.6057348%" y1="2.70792902%" x2="63.2616487%" y2="74.4680481%" id="linearGradient-2">
            <stop stop-color="#FFFFFF" stop-opacity="0" offset="0%"></stop>
            <stop stop-color="#FFFFFF" stop-opacity="0.12" offset="7%"></stop>
            <stop stop-color="#FFFFFF" stop-opacity="0.49" offset="30%"></stop>
            <stop stop-color="#FFFFFF" stop-opacity="0.76" offset="48%"></stop>
            <stop stop-color="#FFFFFF" stop-opacity="0.93" offset="61%"></stop>
            <stop stop-color="#FFFFFF" offset="68%"></stop>
            <stop stop-color="#FFFFFF" offset="94%"></stop>
        </linearGradient>
        <linearGradient x1="35.1398601%" y1="23.0406062%" x2="62.4125874%" y2="100.395678%" id="linearGradient-3">
            <stop stop-color="#FFFFFF" offset="2%"></stop>
            <stop stop-color="#FFFFFF" offset="22%"></stop>
            <stop stop-color="#FFFFFF" stop-opacity="0.93" offset="30%"></stop>
            <stop stop-color="#FFFFFF" stop-opacity="0.76" offset="45%"></stop>
            <stop stop-color="#FFFFFF" stop-opacity="0.49" offset="66%"></stop>
            <stop stop-color="#FFFFFF" stop-opacity="0.12" offset="92%"></stop>
            <stop stop-color="#FFFFFF" stop-opacity="0" offset="100%"></stop>
        </linearGradient>
        <linearGradient x1="-11.1872146%" y1="70.0303001%" x2="76.4840183%" y2="39.449383%" id="linearGradient-4">
            <stop stop-color="#FFFFFF" offset="28%"></stop>
            <stop stop-color="#FFFFFF" stop-opacity="0.96" offset="35%"></stop>
            <stop stop-color="#FFFFFF" stop-opacity="0.84" offset="46%"></stop>
            <stop stop-color="#FFFFFF" stop-opacity="0.64" offset="60%"></stop>
            <stop stop-color="#FFFFFF" stop-opacity="0.38" offset="78%"></stop>
            <stop stop-color="#FFFFFF" stop-opacity="0.04" offset="98%"></stop>
            <stop stop-color="#FFFFFF" stop-opacity="0" offset="100%"></stop>
        </linearGradient>
        <linearGradient x1="-11.4416476%" y1="70.0303314%" x2="76.6590389%" y2="39.4494007%" id="linearGradient-5">
            <stop stop-color="#FFFFFF" offset="27%"></stop>
            <stop stop-color="#FFFFFF" stop-opacity="0.96" offset="33%"></stop>
            <stop stop-color="#FFFFFF" stop-opacity="0.84" offset="45%"></stop>
            <stop stop-color="#FFFFFF" stop-opacity="0.64" offset="59%"></stop>
            <stop stop-color="#FFFFFF" stop-opacity="0.38" offset="77%"></stop>
            <stop stop-color="#FFFFFF" stop-opacity="0.04" offset="98%"></stop>
            <stop stop-color="#FFFFFF" stop-opacity="0" offset="100%"></stop>
        </linearGradient>
        <linearGradient x1="-2.28470333e-13%" y1="116.703257%" x2="74.1157556%" y2="3.56345823%" id="linearGradient-6">
            <stop stop-color="#FFFFFF" offset="34%"></stop>
            <stop stop-color="#FFFFFF" stop-opacity="0.96" offset="40%"></stop>
            <stop stop-color="#FFFFFF" stop-opacity="0.84" offset="50%"></stop>
            <stop stop-color="#FFFFFF" stop-opacity="0.64" offset="63%"></stop>
            <stop stop-color="#FFFFFF" stop-opacity="0.38" offset="80%"></stop>
            <stop stop-color="#FFFFFF" stop-opacity="0.04" offset="98%"></stop>
            <stop stop-color="#FFFFFF" stop-opacity="0" offset="100%"></stop>
        </linearGradient>
        <linearGradient x1="50%" y1="47.042641%" x2="50%" y2="99.8624484%" id="linearGradient-7">
            <stop stop-color="#FFFFFF" offset="0%"></stop>
            <stop stop-color="#FFFFFF" stop-opacity="0" offset="100%"></stop>
        </linearGradient>
        <linearGradient x1="50.4273504%" y1="98.7107172%" x2="50.4273504%" y2="2.01450443%" id="linearGradient-8">
            <stop stop-color="#FFFFFF" offset="0%"></stop>
            <stop stop-color="#FFFFFF" offset="22%"></stop>
            <stop stop-color="#FFFFFF" offset="58%"></stop>
            <stop stop-color="#FFFFFF" stop-opacity="0.98" offset="62%"></stop>
            <stop stop-color="#FFFFFF" stop-opacity="0.91" offset="67%"></stop>
            <stop stop-color="#FFFFFF" stop-opacity="0.79" offset="73%"></stop>
            <stop stop-color="#FFFFFF" stop-opacity="0.63" offset="80%"></stop>
            <stop stop-color="#FFFFFF" stop-opacity="0.43" offset="87%"></stop>
            <stop stop-color="#FFFFFF" stop-opacity="0.19" offset="95%"></stop>
            <stop stop-color="#FFFFFF" stop-opacity="0" offset="100%"></stop>
        </linearGradient>
        <linearGradient x1="50%" y1="95.658466%" x2="50%" y2="-1.1577424%" id="linearGradient-9">
            <stop stop-color="#FFFFFF" offset="0%"></stop>
            <stop stop-color="#FFFFFF" offset="79%"></stop>
            <stop stop-color="#FFFFFF" stop-opacity="0" offset="100%"></stop>
        </linearGradient>
    </defs>
    <g id="Page-1" stroke="none" stroke-width="1" fill="none" fill-rule="evenodd">
        <g id="endesa" transform="translate(0.000000, -1.000000)">
            <path d="M8,8.07 C9.46147259,8.07124101 10.8632515,8.64992412 11.9,9.68 L13.59,8 C12.1034504,6.52889779 10.091325,5.71180931 8,5.73 L8,8.07 Z" id="Path" fill="#FFFFFF"></path>
            <path d="M2.53,13.58 C2.53124101,12.1185274 3.10992412,10.7167485 4.14,9.68 L2.49,8 C0.996224573,9.48201858 0.166464726,11.5059111 0.19,13.61 L2.53,13.61 L2.53,13.58 Z" id="Path" fill="#FFFFFF"></path>
            <path d="M2.53,13.58 L0.189996781,13.58 C0.188095592,15.6818799 1.031328,17.6962684 2.53,19.17 L4.18,17.5 C3.1246899,16.4687545 2.52983171,15.0555157 2.53,13.58 Z" id="Path" fill="#FFFFFF"></path>
            <path d="M8,19.08 C6.54134204,19.0793876 5.14244389,18.5004092 4.11,17.47 L2.49,19.12 C3.97201858,20.6137754 5.99591108,21.4435353 8.1,21.42 L8.1,19.08 L8,19.08 Z" id="Path" fill="#FFFFFF"></path>
            <path d="M8,8.07 L8,5.72999371 C5.89597947,5.72733078 3.8801164,6.57478663 2.41,8.08 L4.08,9.72 C5.11124545,8.6646899 6.52448431,8.06983171 8,8.07 Z" id="Path" fill="#FFFFFF"></path>
            <path d="M12.4,16.93 C11.3509091,18.2961111 9.7224142,19.0918529 8,19.08 L8,21.4200041 C10.4413947,21.4225048 12.7446111,20.287533 14.23,18.35 L12.4,16.93 Z" id="Path" fill="url(#linearGradient-1)"></path>
            <rect id="Rectangle" fill="#FFFFFF" opacity="0.6" transform="translate(76.248380, 13.526663) rotate(-69.710000) translate(-76.248380, -13.526663) " x="75.0783795" y="9.42666299" width="2.34" height="8.2"></rect>
            <path d="M76.05,5.73 C73.0058935,5.75122303 70.5341895,8.19630192 70.48,11.24 C70.48,11.87 70.48,12.66 70.48,12.66 L72,13.2 L72.8,11 C73.1100627,9.39127215 74.4566661,8.18792435 76.09,8.06 L76.09,5.73 L76.05,5.73 Z" id="Path" fill="#FFFFFF"></path>
            <path d="M81.85,14.55 L81.85,14.33 L80.54,13.85 L79.73,16.05 C79.5708867,17.8383198 78.0112809,19.1713162 76.22,19.05 L76,19.05 L76,21.39 L76.19,21.39 C77.712854,21.4061757 79.1781944,20.8090556 80.2560156,19.7331153 C81.3338369,18.6571751 81.9335157,17.19288 81.92,15.67 C81.9424627,15.2952089 81.9189545,14.9190775 81.85,14.55 Z" id="Path" fill="#FFFFFF"></path>
            <path d="M72.83,16.25 L70.51,16.87 C71.0519683,19.5202455 73.3849077,21.4225527 76.09,21.4200026 L76.09,19.08 C74.4514384,19.0768422 73.0633683,17.8718611 72.83,16.25 Z" id="Path" fill="url(#linearGradient-2)"></path>
            <path d="M76.09,5.73 L76.09,8.07 C77.752913,7.94748554 79.2280644,9.13022526 79.47,10.78 L81.81,10.2 C81.2542389,7.51092094 78.8336779,5.61932865 76.09,5.73 Z" id="Path" fill="url(#linearGradient-3)"></path>
            <path d="M92,19.08 L92,21.4200131 C93.5598869,21.4228549 95.0850752,20.959727 96.38,20.09 L95.07,18.15 C94.1623356,18.7592743 93.0931879,19.0831529 92,19.08 Z" id="Path" fill="url(#linearGradient-4)"></path>
            <path d="M92,8.07 L92,5.72999371 C89.8959795,5.72733078 87.8801164,6.57478663 86.41,8.08 L88.08,9.72 C89.1112455,8.6646899 90.5244843,8.06983171 92,8.07 Z" id="Path" fill="#FFFFFF"></path>
            <path d="M86.48,13.58 C86.481241,12.1185274 87.0599241,10.7167485 88.09,9.68 L86.44,8 C84.9462246,9.48201858 84.1164647,11.5059111 84.14,13.61 L86.48,13.61 L86.48,13.58 Z" id="Path" fill="#FFFFFF"></path>
            <path d="M86.48,13.58 L84.1399937,13.58 C84.1373308,15.6840205 84.9847866,17.6998836 86.49,19.17 L88.13,17.5 C87.0746899,16.4687545 86.4798317,15.0555157 86.48,13.58 Z" id="Path" fill="#FFFFFF"></path>
            <path d="M92,19.08 C90.541342,19.0793876 89.1424439,18.5004092 88.11,17.47 L86.46,19.12 C87.9420186,20.6137754 89.9659111,21.4435353 92.07,21.42 L92.07,19.08 L92,19.08 Z" id="Path" fill="#FFFFFF"></path>
            <path d="M42.38,19.08 L42.38,21.4200117 C43.9367512,21.4226907 45.4586953,20.9594904 46.75,20.09 L45.45,18.15 C44.5418091,18.7581627 43.4730091,19.081936 42.38,19.08 Z" id="Path" fill="url(#linearGradient-5)"></path>
            <path d="M42.36,8.07 C43.8202604,8.06749391 45.2222387,8.64266448 46.26,9.67 L47.91,8 C46.4147078,6.52591148 44.3894324,5.71508059 42.29,5.75 L42.29,8.09 L42.36,8.07 Z" id="Path" fill="#FFFFFF"></path>
            <path d="M42.36,8.07 L42.36,5.72999939 C40.2534229,5.72917225 38.2351413,6.57612971 36.76,8.08 L38.43,9.72 C39.4636686,8.66220463 40.881016,8.06713514 42.36,8.07 Z" id="Path" fill="#FFFFFF"></path>
            <path d="M36.86,13.58 C36.855752,12.1174419 37.4352679,10.7136458 38.47,9.68 L36.81,8 C35.3200862,9.48459672 34.4910247,11.5067856 34.51,13.61 L36.86,13.61 L36.86,13.58 Z" id="Path" fill="#FFFFFF"></path>
            <path d="M36.86,13.58 L34.5099937,13.58 C34.5073308,15.6840205 35.3547866,17.6998836 36.86,19.17 L38.5,17.5 C37.4512142,16.4651574 36.860573,15.0533807 36.86,13.58 Z" id="Path" fill="#FFFFFF"></path>
            <path d="M42.36,19.08 C40.9009056,19.0815854 39.5011995,18.5022726 38.47,17.47 L36.81,19.12 C38.2957408,20.6143395 40.3228924,21.4439567 42.43,21.42 L42.43,19.08 L42.36,19.08 Z" id="Path" fill="#FFFFFF"></path>
            <path d="M65.74,12.22 L68.14,12.22 C67.8497242,10.6126645 67.0628211,9.13678404 65.89,8 L64.25,9.66 C64.9730665,10.3597375 65.4887094,11.2456742 65.74,12.22 Z" id="Path" fill="#FFFFFF"></path>
            <path d="M60.39,8.07 C61.8514726,8.07124101 63.2532515,8.64992412 64.29,9.68 L65.94,8 C64.4494024,6.51413766 62.4245736,5.68907399 60.32,5.71 L60.32,8.05 L60.39,8.07 Z" id="Path" fill="#FFFFFF"></path>
            <path d="M60.39,8.07 L60.39,5.72999939 C58.2834229,5.72917225 56.2651413,6.57612971 54.79,8.08 L56.46,9.72 C57.4936686,8.66220463 58.911016,8.06713514 60.39,8.07 Z" id="Path" fill="#FFFFFF"></path>
            <path d="M54.88,13.58 C54.8795086,12.1162207 55.4625387,10.7126297 56.5,9.68 L54.84,8 C53.3500862,9.48459672 52.5210247,11.5067856 52.54,13.61 L54.89,13.61 L54.88,13.58 Z" id="Path" fill="#FFFFFF"></path>
            <path d="M54.88,13.58 L52.5399937,13.58 C52.5373308,15.6840205 53.3847866,17.6998836 54.89,19.17 L56.53,17.5 C55.4784844,16.4661758 54.8843281,15.0546046 54.88,13.58 Z" id="Path" fill="#FFFFFF"></path>
            <path d="M60.39,19.08 C58.9309056,19.0815854 57.5311995,18.5022726 56.5,17.47 L54.84,19.12 C56.3257408,20.6143395 58.3528924,21.4439567 60.46,21.42 L60.46,19.08 L60.39,19.08 Z" id="Path" fill="#FFFFFF"></path>
            <path d="M64.76,16.93 C63.7173082,18.2876981 62.1018832,19.0824724 60.39,19.08 L60.39,21.4200204 C62.8293177,21.4255665 65.1307752,20.2896381 66.61,18.35 L64.76,16.93 Z" id="Path" fill="url(#linearGradient-6)"></path>
            <rect id="Rectangle" fill="#FFFFFF" opacity="0.6" x="18.13" y="6.37" width="2.34" height="8.2"></rect>
            <rect id="Rectangle" fill="#FFFFFF" opacity="0.6" x="29.85" y="12.99" width="2.34" height="8.2"></rect>
            <rect id="Rectangle" fill="#FFFFFF" opacity="0.6" x="59.94" y="12.22" width="8.2" height="2.34"></rect>
            <path d="M13.39,12.22 L15.78,12.22 C15.4937705,10.6134359 14.7102424,9.13732504 13.54,8 L11.9,9.64 C12.6225303,10.3481245 13.1377628,11.2402721 13.39,12.22 Z" id="Path" fill="#FFFFFF"></path>
            <path d="M12.4,16.93 C11.3509091,18.2961111 9.7224142,19.0918529 8,19.08 L8,21.4200041 C10.4413947,21.4225048 12.7446111,20.287533 14.23,18.35 L12.4,16.93 Z" id="Path" fill="url(#linearGradient-1)"></path>
            <rect id="Rectangle" fill="#FFFFFF" opacity="0.6" x="7.58" y="12.22" width="8.2" height="2.34"></rect>
            <path d="M32.2,13 L29.85,13 L29.85,12.23 C29.8611147,9.9568033 28.0331175,8.10198952 25.76,8.08 L25.76,5.73 C29.3247865,5.7574645 32.2001058,8.65510774 32.2,12.22 L32.2,13 Z" id="Path" fill="url(#linearGradient-7)"></path>
            <path d="M25.69,5.73 C23.7358942,5.72713973 21.8597615,6.49628225 20.47,7.87 L20.47,12.63 C20.8948108,10.0568151 23.0830699,8.14523246 25.69,8.07 L25.86,8.07 L25.86,5.72999205 L25.69,5.73 Z" id="Path" fill="#FFFFFF"></path>
            <path d="M48,8 L47.89,7.89 L46.26,9.59 C46.9814129,10.2933894 47.4937155,11.1829958 47.74,12.16 C47.74,12.16 47.84,12.56 47.85,12.65 L47.85,12.76 C47.8548989,12.8232386 47.8548989,12.8867614 47.85,12.95 L48,12.95 L48,8 Z" id="Path" fill="#FFFFFF"></path>
            <rect id="Rectangle" fill="#FFFFFF" opacity="0.6" x="47.86" y="12.99" width="2.34" height="8.2"></rect>
            <rect id="Rectangle" fill="url(#linearGradient-8)" x="47.86" y="0.58" width="2.34" height="12.41"></rect>
            <path d="M97.58,8.06 C96.1026132,6.57404506 94.0953995,5.73590742 92,5.73 L91.94,5.73 L91.94,8.07 C94.7761354,8.0486233 97.1669343,10.1800227 97.47,13 L97.58,13 L97.58,8.06 Z" id="Path" fill="#FFFFFF"></path>
            <rect id="Rectangle" fill="url(#linearGradient-9)" x="97.47" y="6.07" width="2.34" height="6.91"></rect>
            <rect id="Rectangle" fill="#FFFFFF" opacity="0.6" x="97.47" y="12.99" width="2.34" height="8.2"></rect>
        </g>
    </g>
</svg>