<?xml version="1.0" encoding="UTF-8"?>
<svg width="100px" height="14px" viewBox="0 0 100 14" version="1.1" xmlns="http://www.w3.org/2000/svg" xmlns:xlink="http://www.w3.org/1999/xlink">
    <!-- Generator: Sketch 52.5 (67469) - http://www.bohemiancoding.com/sketch -->
    <title>allic</title>
    <desc>Created with Sketch.</desc>
    <g id="Page-1" stroke="none" stroke-width="1" fill="none" fill-rule="evenodd">
        <g id="Artboard" transform="translate(-24.000000, -40.000000)" fill="#FFFFFF">
            <g id="allic" transform="translate(24.000000, 40.000000)">
                <polygon id="Path" points="7.02 2.45 7.02 0.74 2.37 0.74 0.53 0.74 0.53 2.45 0.53 9.37 2.37 9.37 2.37 5.91 6.44 5.91 6.44 4.2 2.37 4.2 2.37 2.45"></polygon>
                <polygon id="Path" points="17.9 2.45 17.9 0.74 13.24 0.74 11.41 0.74 11.41 2.45 11.41 7.66 11.41 9.37 13.24 9.37 17.9 9.37 17.9 7.66 13.24 7.66 13.24 5.91 17.32 5.91 17.32 4.2 13.24 4.2 13.24 2.45"></polygon>
                <path d="M27.87,6.27 C29.0464591,5.89471329 29.7897014,4.73575924 29.64,3.51 C29.64,1.71 28.72,0.79 26.85,0.74 L22.63,0.74 L22.63,9.37 L24.47,9.37 L24.47,6.55 L25.83,6.55 L27.75,9.37 L30,9.37 L27.87,6.27 Z M27,4.86 L24.47,4.86 L24.47,2.45 L27,2.45 C27.4367573,2.69378242 27.7074117,3.15481327 27.7074117,3.655 C27.7074117,4.15518673 27.4367573,4.61621758 27,4.86 Z" id="Shape" fill-rule="nonzero"></path>
                <polygon id="Path" points="40.76 0.74 38.17 0.74 36.33 0.74 33.74 0.74 33.74 2.46 36.33 2.46 36.33 9.37 38.17 9.37 38.17 2.46 40.76 2.46"></polygon>
                <rect id="Rectangle" x="45.3" y="0.74" width="1.84" height="8.63"></rect>
                <polygon id="Path" points="76.31 0.74 69.29 0.74 69.29 2.46 71.88 2.46 71.88 9.37 73.72 9.37 73.72 2.46 76.31 2.46"></polygon>
                <rect id="Rectangle" x="62.88" y="0.74" width="1.84" height="8.63"></rect>
                <path d="M87.11,9.37 L89,9.37 L85.52,0.61 L83.53,0.61 L80.05,9.37 L81.89,9.37 L82.68,7.37 L86.32,7.37 L87.11,9.37 Z M83.37,5.65 L84.5,2.8 L85.63,5.65 L83.37,5.65 Z" id="Shape" fill-rule="nonzero"></path>
                <path d="M94.45,5.33 C94.4364442,4.68582543 94.6607321,4.05924334 95.08,3.57 C94.57,1.57 97.29,2.37 98.23,3.14 L99.23,1.68 C96.64,-0.32 93.45,0.47 93.06,2.86 C92.9156363,3.37189537 92.9811128,3.92021023 93.2419535,4.38371848 C93.5027942,4.84722673 93.9375135,5.18774909 94.45,5.33 Z" id="Path"></path>
                <path d="M93.89,6.71 C95.43,8.03 97.89,8.18 97.54,6.51 C98.0575034,6.05278811 98.3466362,5.39034462 98.33,4.7 C99.2465363,5.19523458 99.7083294,6.25076168 99.45,7.26 C98.99,10.2 94.37,9.78 92.67,8.07 L93.89,6.71 Z" id="Path"></path>
                <circle id="Oval" cx="96.41" cy="4.99" r="1.38"></circle>
                <polygon id="Path" points="54.09 7.5 54.09 0.74 52.25 0.74 52.25 9.37 53.04 9.37 54.09 9.37 58.42 9.37 58.42 7.5"></polygon>
                <polygon id="Path" points="97.32 11.46 96.26 13.46 0.5 13.46 0.5 11.46"></polygon>
            </g>
        </g>
    </g>
</svg>