<?xml version="1.0" encoding="UTF-8"?>
<svg width="100px" height="26px" viewBox="0 0 100 26" version="1.1" xmlns="http://www.w3.org/2000/svg" xmlns:xlink="http://www.w3.org/1999/xlink">
    <!-- Generator: Sketch 52.5 (67469) - http://www.bohemiancoding.com/sketch -->
    <title>allic</title>
    <desc>Created with Sketch.</desc>
    <g id="Page-1" stroke="none" stroke-width="1" fill="none" fill-rule="evenodd">
        <g id="Artboard" transform="translate(-22.000000, -36.000000)" fill="#FFFFFF">
            <g id="allic" transform="translate(22.000000, 36.000000)">
                <g id="Group">
                    <g id="_Grupo_" transform="translate(23.000000, 0.000000)">
                        <g id="_Grupo_2">
                            <path d="M10,12.38 C14,12.38 14.15,12.77 14.15,14.79 C14.15,15.18 14.15,15.58 14.15,16.01 C14.1833668,16.2530145 14.3850065,16.4378509 14.63,16.45 C15.22,16.45 15.12,15.45 15.46,13.92 C15.8,12.39 16.8,9.1 16.8,8.3 C16.8,7.91 16.61,7.75 16.33,7.75 C15.81,7.75 15.81,8.75 15.33,9.65 C14.7,10.87 13.33,11.43 9.4,11.43 L9.22,11.43 L11.32,2.37 C11.44,1.9 11.67,1.86 12.46,1.86 C14.6,1.86 17.72,1.86 18.63,2.29 C20.4,3.29 19.98,6.05 20.25,6.05 C20.52,6.05 20.68,5.9 20.77,5.34 C20.77,5.06 22.06,0.44 21.83,0.44 L5.58,0.44 C5.11,0.44 4.83,0.59 4.83,0.95 C4.83,1.31 6.77,1.58 7.24,1.7 C7.71,1.82 8.11,2.06 8.11,2.53 C8.11,3 3.41,22 3.41,22 C3.17,23.11 2.7,23.63 2.22,23.82 C1.95,23.94 0.48,24.56 0.48,24.57 C0.48,24.97 0.56,24.93 1.12,24.93 L9,24.93 C9.47,24.93 10,25.04 10,24.46 C10,24.46 8.15,23.88 7.28,23.59 C6.6,23.36 6.38,23.11 6.38,22.68 C6.43786494,22.1028004 6.55515311,21.5331151 6.73,20.98 L8.87,12.36 L10,12.38 Z" id="_Trazado_"></path>
                        </g>
                    </g>
                    <g id="_Grupo_3" transform="translate(38.000000, 16.000000)">
                        <path d="M4.63,0.7 C2.39876961,0.7 0.59,2.50876961 0.59,4.74 C0.59,6.97123039 2.39876961,8.78 4.63,8.78 C5.7439683,8.82887676 6.8299874,8.42304418 7.63890848,7.65560623 C8.44782956,6.88816828 8.91021978,5.82499716 8.92,4.71 C8.8173107,2.42962985 6.91210628,0.648774431 4.63,0.7 Z M4.56,1.11 C6.66,1.11 7.14,3.11 7.14,4.82 C7.14,6.53 6.66,8.37 4.72,8.37 C2.78,8.37 2.13,6.37 2.13,4.71 C2.13,3.05 2.62,1.11 4.56,1.11 Z" id="_Trazado_compuesto_"></path>
                    </g>
                    <g id="_Grupo_4" transform="translate(48.000000, 16.000000)">
                        <path d="M8.92,3.16 C8.92,1.47 7.92,0.7 6.27,0.7 C5.08117234,0.642187009 3.96482224,1.27232191 3.4,2.32 L3.15,0.7 C2.27,0.86 1.62,1.15 0.69,1.25 L0.69,1.61 C1.26,1.61 1.74,1.54 1.88,2.18 C1.96683821,2.8966324 2.006923,3.61815864 2,4.34 L2,6.53 C2,7.71 2.09,8.13 0.75,8.22 L0.75,8.58 L2.82,8.51 L4.76,8.58 L4.76,8.22 C3.36,8.13 3.52,7.6 3.52,6.42 L3.52,3.66 C3.48694104,3.03570853 3.71281187,2.42541853 4.14433888,1.97307223 C4.57586589,1.52072594 5.17484437,1.26637127 5.8,1.27 C7.49,1.27 7.44,3.02 7.44,4.27 L7.44,6.55 C7.44,7.73 7.53,8.15 6.19,8.24 L6.19,8.6 L8.26,8.53 L10.2,8.6 L10.2,8.24 C8.81,8.15 8.95,7.62 8.95,6.44 L8.92,3.16 Z" id="_Trazado_2"></path>
                    </g>
                    <g id="_Grupo_5" transform="translate(60.000000, 12.000000)">
                        <path d="M6.4,9.62 C6.4,11.03 5.88,12.29 4.28,12.29 C2.35,12.29 1.84,10.44 1.84,8.84 C1.84,7.24 2.35,5.27 4.28,5.27 C5.36353491,5.20064671 6.30449957,6.00845598 6.4,7.09 L6.4,9.62 Z M9.4,12.19 L9.4,11.83 C8.83,11.83 8.34,11.83 8.11,11.24 C7.95929488,10.63555 7.89864113,10.0121643 7.93,9.39 L7.93,0.39 L5.06,1 L5.06,1.36 C6.35,1.36 6.4,1.96 6.4,3.03 L6.4,5.85 C5.75585847,5.12126529 4.82228696,4.71488711 3.85,4.74 C2.79395397,4.77615259 1.79668723,5.23497761 1.08216216,6.01343387 C0.367637093,6.79189013 -0.0042564416,7.8247292 0.05,8.88 C0.000322846683,9.91500509 0.379976142,10.9246326 1.09930711,11.6704652 C1.81863807,12.4162979 2.81387542,12.8322149 3.85,12.82 C4.94573275,12.8598187 5.98889536,12.3494946 6.63,11.46 C6.68245707,11.9168559 6.80735537,12.3624391 7,12.78 L9.4,12.19 Z" id="_Trazado_compuesto_2"></path>
                    </g>
                    <g id="_Grupo_6" transform="translate(70.000000, 16.000000)">
                        <path d="M7.75,6.89 C7.24055856,7.65011579 6.41206106,8.13616765 5.5,8.21 C3.6,8.21 2.71,6.32 2.71,4.62 L2.78,3.77 L7.89,3.77 C8.07,3.77 8.34,3.84 8.34,3.61 C8.34,1.68 6.68,0.7 4.93,0.7 C2.65902949,0.776145106 0.873838609,2.66844744 0.93,4.94 C0.929090935,5.98676901 1.35555015,6.98854102 2.11067633,7.71346215 C2.86580251,8.43838329 3.88413966,8.82361579 4.93,8.78 C6.17160257,8.8219687 7.3553221,8.25438078 8.1,7.26 L7.75,6.89 Z M2.87,3.29 C3.08,2.13 3.62,1.11 4.95,1.11 C5.43442899,1.07676552 5.90845347,1.26123502 6.24298958,1.61317474 C6.57752569,1.96511447 6.73773861,2.44787737 6.68,2.93 C6.68,3.38 6.09,3.29 5.81,3.29 L2.87,3.29 Z" id="_Trazado_compuesto_3"></path>
                    </g>
                    <g id="_Grupo_7" transform="translate(80.000000, 16.000000)">
                        <path d="M8.42,3.16 C8.42,1.47 7.42,0.7 5.76,0.7 C4.57233273,0.647062548 3.45839677,1.27583476 2.89,2.32 L2.64,0.7 C1.77,0.86 1.11,1.15 0.19,1.25 L0.19,1.61 C0.76,1.61 1.19,1.54 1.38,2.18 C1.45681722,2.89728587 1.48688073,3.61881005 1.47,4.34 L1.47,6.53 C1.47,7.71 1.56,8.13 0.22,8.22 L0.22,8.58 L2.29,8.51 L4.23,8.58 L4.23,8.22 C2.82,8.13 2.98,7.6 2.98,6.42 L2.98,3.66 C2.94694104,3.03570853 3.17281187,2.42541853 3.60433888,1.97307223 C4.03586589,1.52072594 4.63484437,1.26637127 5.26,1.27 C6.96,1.27 6.9,3.02 6.9,4.27 L6.9,6.55 C6.9,7.73 6.99,8.15 5.66,8.24 L5.66,8.6 L7.72,8.53 L9.72,8.6 L9.72,8.24 C8.33,8.15 8.47,7.62 8.47,6.44 L8.42,3.16 Z" id="_Trazado_3"></path>
                    </g>
                    <g id="_Grupo_8" transform="translate(91.000000, 16.000000)">
                        <path d="M5.29,7.05 C4.76419178,7.61154015 4.05471705,7.96627751 3.29,8.05 C2.96592447,8.04018838 2.66016347,7.89746321 2.44452605,7.65534399 C2.22888862,7.41322477 2.1223749,7.093045 2.15,6.77 C2.15,5.34 4.15,4.65 5.25,4.13 L5.29,7.05 Z M3.37,4.55 C2.23,5.07 0.53,5.71 0.53,7.21 C0.560169482,7.66811883 0.775425201,8.09424776 1.12626184,8.39038406 C1.47709848,8.68652036 1.93331897,8.82717511 2.39,8.78 C3.50576438,8.71200412 4.56455251,8.26378381 5.39,7.51 C5.56002136,8.23104757 6.18977039,8.75038606 6.93,8.78 C7.63551352,8.68494317 8.24120166,8.23067706 8.53,7.58 L8.19,7.4 C8,7.65 7.82,7.97 7.46,7.97 C6.77,7.97 6.84,6.66 6.84,6.21 L6.84,3.27 C6.84,1.22 5.93,0.7 3.95,0.7 C3.04,0.7 0.67,0.95 0.67,2.27 C0.666612758,2.44785183 0.738570826,2.61884689 0.868106013,2.74076236 C0.997641199,2.86267783 1.1726796,2.92415004 1.35,2.91 C1.75554362,2.87835532 2.06651556,2.53672419 2.06,2.13 C2.06,1.13 2.84,1.13 3.74,1.13 C5.2,1.13 5.3,1.99 5.3,3.2 C5.3,3.4 5.3,3.63 5.16,3.72 L3.37,4.55 Z" id="_Trazado_compuesto_4"></path>
                    </g>
                    <path d="M11.09,12 C9.62,10.72 8.91,10.49 8.73,10.51 C8.67,10.68 8.73,11.42 9.73,13.13 C10.15,13.9 10.73,14.75 11.3,15.64 C12.22,16.18 13.17,16.8 14.13,17.47 C15.7403925,18.5807885 17.2677643,19.807365 18.7,21.14 C17.7386515,19.5646461 16.6694304,18.0577126 15.5,16.63 C14.1610287,14.9669639 12.6859348,13.4182826 11.09,12 Z" id="Path"></path>
                    <path d="M14.76,9.93 C13.69,8.3 13.08,7.93 12.89,7.85 C12.79,8 12.67,8.73 13.1,10.64 C13.31,11.53 13.6,12.54 13.97,13.64 C14.69,14.4 15.42,15.25 16.15,16.14 C17.4015373,17.6762846 18.5411349,19.3004618 19.56,21 C19.0629612,19.163965 18.4346778,17.366005 17.68,15.62 C16.8712745,13.643274 15.8943549,11.7396191 14.76,9.93 Z" id="Path"></path>
                    <path d="M5.43,14.2 C5.43,14.38 5.71,15.07 7.09,16.46 C7.86210053,17.2183936 8.67320052,17.9360335 9.52,18.61 C10.52,18.87 11.52,19.18 12.52,19.53 C14.4811573,20.2043266 16.386903,21.0301497 18.22,22 C16.7775377,20.6404814 15.2330161,19.3934976 13.6,18.27 C11.8682502,17.0282773 10.0351213,15.9344212 8.12,15 C6.35,14.16 5.61,14.13 5.43,14.2 Z" id="Path"></path>
                    <path d="M12.88,0.57 C7.7674461,0.563517288 3.17766204,3.70289601 1.33019453,8.46998245 C-0.517272987,13.2370689 0.758273517,18.6495358 4.54,22.09 L4.78,22.09 C5.27,22.02 5.78,21.97 6.37,21.93 C5.81,21.66 5.29,21.38 4.82,21.12 C2.94,20 2.18,19.17 2.43,18.45 C2.68,17.73 3.79,17.54 5.94,17.84 C6.46,17.92 7.02,18.02 7.61,18.15 C7.11666667,17.71 6.67666667,17.29 6.29,16.89 C4.78,15.33 4.29,14.32 4.71,13.69 C5.13,13.06 6.27,13.19 8.25,14.08 C8.68,14.27 9.13,14.49 9.61,14.74 C9.31,14.26 9.04,13.8 8.81,13.36 C7.81,11.45 7.58,10.36 8.17,9.86 C8.76,9.36 9.81,9.86 11.47,11.21 C11.84,11.52 12.22,11.86 12.62,12.21 C12.45,11.62 12.3,11.06 12.19,10.55 C11.74,8.43 11.85,7.3 12.55,7 C13.25,6.7 14.14,7.41 15.35,9.21 C16.5751967,11.1113719 17.6261338,13.1195318 18.49,15.21 C19.3980272,17.2845271 20.1175936,19.4365328 20.64,21.64 C20.69,21.92 20.74,22.18 20.78,22.43 C24.7881986,19.0979121 26.2800086,13.6121942 24.5113174,8.7091138 C22.7426263,3.80603336 18.0923345,0.535959573 12.88,0.53 L12.88,0.57 Z" id="Path"></path>
                    <path d="M2.46,23.65 C2.55,23.81 3.15,24.25 5.06,24.65 C7.13969889,25.0998169 9.25408206,25.3708059 11.38,25.46 C13.5037883,25.5884203 15.6346104,25.5382439 17.75,25.31 C18.14,25.26 18.48,25.21 18.75,25.15 L18.83,25.15 C19.3985636,25.0992252 19.9436213,24.8991407 20.41,24.57 C20.32,24.41 19.72,23.98 17.81,23.57 C15.7291042,23.1288839 13.6151765,22.8612981 11.49,22.77 C9.36648123,22.6387757 7.23570298,22.6856059 5.12,22.91 C3.21,23.14 2.57,23.51 2.46,23.65 Z" id="Path"></path>
                    <path d="M3.26,18.74 C3.31,18.92 3.77,19.5 5.48,20.45 C6.39917898,20.9519697 7.34378189,21.4059132 8.31,21.81 C9.31,21.81 10.44,21.81 11.57,21.87 C13.5848749,21.9634462 15.590221,22.2040877 17.57,22.59 C15.8529654,21.7263572 14.0788171,20.9812818 12.26,20.36 C10.2523791,19.6504176 8.1883626,19.1118331 6.09,18.75 C4.13,18.45 3.41,18.63 3.26,18.74 Z" id="Path"></path>
                </g>
            </g>
        </g>
    </g>
</svg>