<?xml version="1.0" encoding="UTF-8"?>
<svg width="990px" height="166px" viewBox="0 0 990 166" version="1.1" xmlns="http://www.w3.org/2000/svg" xmlns:xlink="http://www.w3.org/1999/xlink">
    <!-- Generator: Sketch 52.5 (67469) - http://www.bohemiancoding.com/sketch -->
    <title>Group</title>
    <desc>Created with Sketch.</desc>
    <g id="Page-1" stroke="none" stroke-width="1" fill="none" fill-rule="evenodd">
        <g id="allic-2" fill="#FFFFFF">
            <g id="allic">
                <g id="Group">
                    <path d="M188.8,78.5 C182.773848,78.6098558 176.999079,76.0877858 172.984137,71.5925872 C168.969194,67.0973885 167.112848,61.0755306 167.9,55.1 C166.990055,49.1561796 168.802669,43.118379 172.835901,38.6585544 C176.869134,34.1987298 182.694915,31.7902285 188.7,32.1 C197.913268,31.5389892 206.102139,37.9271663 207.8,47 L200.6,47 C199.228248,41.6116972 194.253761,37.9330853 188.7,38.2 C180.1,38.2 175,44.5 175,55.1 C175,65.7 180.3,72.4 188.8,72.4 C192.010128,72.682939 195.190042,71.5940115 197.55288,69.4026704 C199.915717,67.2113293 201.240713,64.1223158 201.2,60.9 L201.2,60.2 L189.7,60.2 L189.7,54.5 L208.1,54.5 L208.1,59.1 C208.596083,64.3638525 206.726433,69.5758197 202.997507,73.3240665 C199.268581,77.0723132 194.066346,78.9688732 188.8,78.5 Z" id="Path"></path>
                    <path d="M239.6,65.6 L222.5,65.6 L218.4,77.7 L211.2,77.7 L227.4,33 L235,33 L251.2,77.8 L243.8,77.8 L239.6,65.6 Z M224.3,60 L237.8,60 L231.2,40 L224.3,60 Z" id="Shape" fill-rule="nonzero"></path>
                    <path d="M263,77.7 L256,77.7 L256,33 L273.4,33 C277.274739,32.5322765 281.160849,33.7771113 284.042643,36.40915 C286.924437,39.0411888 288.515505,42.7988432 288.4,46.7 C288.665753,52.4256679 285.121646,57.6399862 279.7,59.5 L289.7,77.8 L281.7,77.8 L272.6,60.6 L262.6,60.6 L263,77.7 Z M263,54.9 L273,54.9 C275.256475,55.1752852 277.517702,54.4260534 279.163356,52.8578424 C280.809009,51.2896314 281.666283,49.0671152 281.5,46.8 C281.599455,44.5333173 280.707024,42.3356658 279.055401,40.7800679 C277.403779,39.22447 275.156672,38.4651152 272.9,38.7 L262.9,38.7 L263,54.9 Z" id="Shape" fill-rule="nonzero"></path>
                    <polygon id="Path" points="307.6 77.7 291.6 33 299.2 33 311.4 70 311.4 70 323.8 33 331.2 33 315 77.7"></polygon>
                    <polygon id="Path" points="365 77.7 336.2 77.7 336.2 33 365 33 365 39 343.1 39 343.1 52 363.1 52 363.1 57.8 343.1 57.8 343.1 71.7 365 71.7"></polygon>
                    <polygon id="Path" points="399.6 77.7 371.8 77.7 371.8 33 378.8 33 378.8 71.8 399.6 71.8"></polygon>
                    <path d="M416.9,55.3 C416.117563,49.4127549 417.926753,43.4755268 421.859303,39.0250311 C425.791854,34.5745353 431.461214,32.0482332 437.4,32.1 C446.872249,31.4873383 455.208737,38.2961974 456.5,47.7 L449.6,47.7 C448.35094,42.0090622 443.223505,38.016387 437.4,38.2 C429.3,38.2 424,44.9 424,55.3 C424,65.7 429.2,72.4 437.5,72.4 C443.079735,72.8272474 448.169075,69.2100306 449.6,63.8 L456.5,63.8 C454.968052,72.9473959 446.634739,79.3609926 437.4,78.5 C431.405339,78.7279637 425.624934,76.2530019 421.652666,71.7575578 C417.680399,67.2621137 415.935828,61.2210048 416.9,55.3 Z" id="Path"></path>
                    <polygon id="Path" points="491.2 77.7 462.8 77.7 462.8 33 491.2 33 491.2 39 469.7 39 469.7 52 489.7 52 489.7 57.8 469.7 57.8 469.7 71.7 491.2 71.7"></polygon>
                    <polygon id="Path" points="498.4 77.7 498.4 33 505 33 528 66 528 66 528 33 535 33 535 77.8 528.7 77.8 505.5 44.8 505.5 44.8 505.5 77.8"></polygon>
                    <polygon id="Path" points="554.4 77.7 554.4 38.9 540.6 38.9 540.6 33 575 33 575 39 561.3 39 561.3 77.8"></polygon>
                    <path d="M587.7,77.7 L580.7,77.7 L580.7,33 L598.1,33 C601.974739,32.5322765 605.860849,33.7771113 608.742643,36.40915 C611.624437,39.0411888 613.215505,42.7988432 613.1,46.7 C613.365753,52.4256679 609.821646,57.6399862 604.4,59.5 L614.4,77.8 L606.4,77.8 L597.2,60.6 L587.7,60.6 L587.7,77.7 Z M587.7,54.9 L597.7,54.9 C599.956475,55.1752852 602.217702,54.4260534 603.863356,52.8578424 C605.509009,51.2896314 606.366283,49.0671152 606.2,46.8 C606.303577,44.513877 605.397974,42.2976019 603.723058,40.7381973 C602.048142,39.1787927 599.77291,38.4336008 597.5,38.7 L588,38.7 L587.7,54.9 Z" id="Shape" fill-rule="nonzero"></path>
                    <path d="M645,65.6 L627.8,65.6 L623.7,77.7 L616.4,77.7 L632.6,33 L640.2,33 L656.4,77.8 L649,77.8 L645,65.6 Z M629.7,60 L643.2,60 L636.5,40 L629.7,60 Z" id="Shape" fill-rule="nonzero"></path>
                    <polygon id="Path" points="689.2 77.7 661.3 77.7 661.3 33 668.3 33 668.3 71.8 689.2 71.8"></polygon>
                    <path d="M712.9,65.2 C712.9,69.7 717.7,72.6 723.6,72.6 C729.5,72.6 733.6,69.7 733.6,65.7 C733.6,61.7 731.1,60.1 725.3,58.7 L719.5,57.3 C711.2,55.3 707.4,51.4 707.4,45.2 C707.4,39 714.2,32.1 723.7,32.1 C727.603025,31.5947967 731.542755,32.7090769 734.602988,35.1837097 C737.663221,37.6583424 739.577265,41.2776698 739.9,45.2 L733.1,45.2 C733.1,40.7 729,38 723.1,38 C717.2,38 714,40.8 714,44.7 C714,48.6 716.4,49.8 722.2,51.2 L727.1,52.4 C736.3,54.6 740.1,58.3 740.1,64.8 C740.1,73.2 733.5,78.5 722.8,78.5 C712.1,78.5 706.5,73 706,65.2 L712.9,65.2 Z" id="Path"></path>
                    <polygon id="Path" points="775 77.7 746.7 77.7 746.7 33 775 33 775 39 753.6 39 753.6 52 773.6 52 773.6 57.8 753.6 57.8 753.6 71.7 775 71.7"></polygon>
                    <path d="M789.3,77.7 L782.3,77.7 L782.3,33 L799.7,33 C803.60482,32.4394147 807.558267,33.6279069 810.506688,36.2487256 C813.455109,38.8695443 815.098913,42.6563857 815,46.6 C815.265753,52.3256679 811.721646,57.5399862 806.3,59.4 L816.3,77.7 L808.3,77.7 L799.1,60.5 L789.6,60.5 L789.3,77.7 Z M789.3,54.9 L799.3,54.9 C801.556475,55.1752852 803.817702,54.4260534 805.463356,52.8578424 C807.109009,51.2896314 807.966283,49.0671152 807.8,46.8 C807.903577,44.513877 806.997974,42.2976019 805.323058,40.7381973 C803.648142,39.1787927 801.37291,38.4336008 799.1,38.7 L789.6,38.7 L789.3,54.9 Z" id="Shape" fill-rule="nonzero"></path>
                    <polygon id="Path" points="833.9 77.7 817.9 33 825 33 837.3 70 837.3 70 850.1 33 857.5 33 841.5 77.8"></polygon>
                    <polygon id="Path" points="862.5 77.7 862.5 33 869.4 33 869.4 77.8"></polygon>
                    <path d="M876.1,55.3 C875.328512,49.4989309 877.073082,43.6446958 880.894179,39.2122231 C884.715276,34.7797504 890.248573,32.1916597 896.1,32.1 C905.572249,31.4873383 913.908737,38.2961974 915.2,47.7 L908.3,47.7 C907.05094,42.0090622 901.923505,38.016387 896.1,38.2 C888,38.2 882.7,44.9 882.7,55.3 C882.7,65.7 887.9,72.4 896.2,72.4 C901.779735,72.8272474 906.869075,69.2100306 908.3,63.8 L915.2,63.8 C913.623636,72.9206694 905.320275,79.3112145 896.1,78.5 C890.191645,78.5762032 884.551991,76.0358745 880.693871,71.5604557 C876.835752,67.0850369 875.154093,61.1326427 876.1,55.3 Z" id="Path"></path>
                    <polygon id="Path" points="950.4 77.7 922 77.7 922 33 950.4 33 950.4 39 928.9 39 928.9 52 948.9 52 948.9 57.8 928.9 57.8 928.9 71.7 950.4 71.7"></polygon>
                    <path d="M962.5,65.2 C962.5,69.7 967.3,72.6 973.2,72.6 C979.1,72.6 983.2,69.7 983.2,65.7 C983.2,61.7 980.8,60.1 974.9,58.7 L969.1,57.3 C960.9,55.3 957.1,51.4 957.1,45.2 C957.1,39 963.8,32.1 973.4,32.1 C977.303025,31.5947967 981.242755,32.7090769 984.302988,35.1837097 C987.363221,37.6583424 989.277265,41.2776698 989.6,45.2 L982.8,45.2 C982.8,40.7 978.7,38 972.8,38 C966.9,38 963.7,40.8 963.7,44.7 C963.7,48.6 966.1,49.8 971.8,51.2 L976.8,52.4 C986,54.6 989.8,58.3 989.8,64.8 C989.8,73.2 983.1,78.5 972.5,78.5 C961.9,78.5 956,73 955.6,65.2 L962.5,65.2 Z" id="Path"></path>
                    <path d="M285,130.8 L282.5,130.8 L282.5,104.6 L291.7,104.6 C293.867781,104.370151 296.029894,105.082231 297.636841,106.555265 C299.243787,108.028299 300.140835,110.12045 300.1,112.3 C300.283952,115.8011 297.919364,118.925734 294.5,119.7 L300.9,130.8 L298,130.8 L291.9,120.1 L285,120.1 L285,130.8 Z M285,117.9 L291.5,117.9 C295.3,117.9 297.6,115.9 297.6,112.4 C297.642341,110.794215 296.980557,109.250172 295.788485,108.173463 C294.596414,107.096753 292.993208,106.594998 291.4,106.8 L285,106.8 L285,117.9 Z" id="Shape" fill-rule="nonzero"></path>
                    <polygon id="Path" points="320.7 130.8 305 130.8 305 104.6 320.8 104.6 320.8 106.9 307.3 106.9 307.3 116.3 320 116.3 320 118.5 307.3 118.5 307.3 128.5 320.7 128.5"></polygon>
                    <path d="M335,104.6 C338.127275,104.253062 341.177287,105.726161 342.849784,108.3913 C344.522281,111.056439 344.522281,114.443561 342.849784,117.1087 C341.177287,119.773839 338.127275,121.246938 335,120.9 L328.6,120.9 L328.6,130.9 L326.1,130.9 L326.1,104.6 L335,104.6 Z M328.6,118.7 L334.4,118.7 C336.080255,118.939947 337.780034,118.418607 339.03681,117.277841 C340.293585,116.137076 340.976601,114.495571 340.9,112.8 C340.971378,111.097958 340.290883,109.450598 339.039118,108.295122 C337.787353,107.139646 336.090903,106.592905 334.4,106.8 L328.6,106.8 L328.6,118.7 Z" id="Shape" fill-rule="nonzero"></path>
                    <path d="M359.7,123 L348.7,123 L345.8,131 L343.2,131 L353.2,104.8 L355.7,104.8 L365.7,131 L363.1,131 L359.7,123 Z M349.7,120.8 L359.2,120.8 L354.5,107.9 L349.7,120.8 Z" id="Shape" fill-rule="nonzero"></path>
                    <path d="M371.5,130.8 L369.1,130.8 L369.1,104.6 L378.3,104.6 C380.467781,104.370151 382.629894,105.082231 384.236841,106.555265 C385.843787,108.028299 386.740835,110.12045 386.7,112.3 C386.883952,115.8011 384.519364,118.925734 381.1,119.7 L387.4,130.8 L385,130.8 L379,120.1 L372,120.1 L371.5,130.8 Z M371.5,117.9 L378.1,117.9 C379.657914,118.109322 381.228367,117.616299 382.387109,116.554119 C383.545851,115.491938 384.173317,113.970202 384.1,112.4 C384.172897,110.803442 383.534819,109.256607 382.357485,108.175775 C381.180151,107.094944 379.584518,106.59116 378,106.8 L371.5,106.8 L371.5,117.9 Z" id="Shape" fill-rule="nonzero"></path>
                    <path d="M406.1,123 L395,123 L392.1,131 L389.5,131 L399.5,104.8 L401.9,104.8 L411.9,131 L409,131 L406.1,123 Z M396.1,120.8 L405,120.8 L400.3,107.9 L396.1,120.8 Z" id="Shape" fill-rule="nonzero"></path>
                    <path d="M413.5,117.6 C413.041852,114.255646 414.037923,110.875206 416.236302,108.313617 C418.43468,105.752028 421.624852,104.254585 425,104.2 C430.278477,103.839255 434.92451,107.652508 435.6,112.9 L433.1,112.9 C432.321785,109.07696 428.89937,106.372829 425,106.5 C419.5,106.5 415.9,110.8 415.9,117.6 C415.9,124.4 419.5,128.9 425,128.9 C428.797826,129.243971 432.262554,126.72028 433.1,123 L435.6,123 C434.691733,128.046834 430.113154,131.588753 425,131.2 C418.1,131.2 413.5,125.9 413.5,117.6 Z" id="Path"></path>
                    <polygon id="Path" points="440.4 130.8 440.4 104.6 442.8 104.6 442.8 130.8"></polygon>
                    <path d="M471.4,119.387485 C470.595845,126.568076 464.901417,131.757816 458.490708,131.152645 C452.08,130.547475 447.233977,124.362718 447.504754,117.131776 C447.77553,109.900834 453.066763,104.196515 459.5,104.200062 C462.953912,104.164756 466.251042,105.819475 468.535049,108.734448 C470.819056,111.649421 471.864553,115.536999 471.4,119.387485 Z M450.2,117.7 C450.2,124.6 453.8,128.9 459.5,128.9 C465.2,128.9 468.9,124.6 468.9,117.7 C468.9,110.8 465.2,106.5 459.5,106.5 C453.8,106.5 450.2,110.8 450.2,117.7 Z M458.4,102.7 L463,97.3 L465.8,97.3 L460.5,102.7 L458.4,102.7 Z" id="Shape" fill-rule="nonzero"></path>
                    <polygon id="Path" points="476.2 130.8 476.2 104.6 478.6 104.6 493.9 126.5 493.9 126.5 493.9 104.6 496.3 104.6 496.3 130.8 493.9 130.8 478.5 108.9 478.5 108.9 478.5 130.8"></polygon>
                    <polygon id="Path" points="526.4 130.8 510.6 130.8 510.6 104.6 526.4 104.6 526.4 106.9 513.1 106.9 513.1 116.3 525.7 116.3 525.7 118.5 513.1 118.5 513.1 128.5 526.4 128.5"></polygon>
                    <polygon id="Path" points="531.6 130.8 531.6 104.6 534 104.6 549.4 126.5 549.4 126.5 549.4 104.6 551.8 104.6 551.8 130.8 549.4 130.8 534 108.9 534 108.9 534 130.8"></polygon>
                    <path d="M576.7,131.2 C573.27217,131.144963 570.031554,129.626443 567.795747,127.027556 C565.55994,124.428669 564.542455,120.997602 565,117.6 C564.537604,114.221328 565.559509,110.807824 567.802403,108.239039 C570.045298,105.670253 573.289834,104.197405 576.7,104.2 C581.882316,103.763385 586.534245,107.371891 587.4,112.5 L585,112.5 C584.058013,108.836567 580.678938,106.333548 576.9,106.5 C571.2,106.5 567.7,110.7 567.7,117.6 C567.7,124.5 571.3,128.9 576.9,128.9 C579.141942,129.076315 581.35089,128.276403 582.96012,126.705488 C584.569349,125.134574 585.422249,122.94554 585.3,120.7 L585.3,119.8 L577,119.8 L577,117.6 L587.6,117.6 L587.6,120.2 C587.913829,123.184718 586.870542,126.152578 584.758105,128.284395 C582.645669,130.416212 579.68746,131.486559 576.7,131.2 Z" id="Path"></path>
                    <path d="M595,130.8 L592.5,130.8 L592.5,104.6 L601.7,104.6 C603.867781,104.370151 606.029894,105.082231 607.636841,106.555265 C609.243787,108.028299 610.140835,110.12045 610.1,112.3 C610.283952,115.8011 607.919364,118.925734 604.5,119.7 L610.8,130.8 L607.9,130.8 L601.9,120.1 L595,120.1 L595,130.8 Z M595,117.9 L601.5,117.9 C603.057914,118.109322 604.628367,117.616299 605.787109,116.554119 C606.945851,115.491938 607.573317,113.970202 607.5,112.4 C607.572897,110.803442 606.934819,109.256607 605.757485,108.175775 C604.580151,107.094944 602.984518,106.59116 601.4,106.8 L595,106.8 L595,117.9 Z" id="Shape" fill-rule="nonzero"></path>
                    <path d="M617.5,121.5 C617.40607,123.543318 618.197952,125.527875 619.672767,126.945229 C621.147582,128.362583 623.162025,129.075015 625.2,128.9 C627.229738,129.078441 629.236489,128.363633 630.696346,126.942193 C632.156203,125.520753 632.924261,123.533774 632.8,121.5 L632.8,104.6 L635,104.6 L635,121.7 C635,127.222847 630.522847,131.7 625,131.7 C619.477153,131.7 615,127.222847 615,121.7 L615,104.6 L617.4,104.6 L617.5,121.5 Z M624.1,103 L628.7,97.6 L631.4,97.6 L626.2,103 L624.1,103 Z" id="Shape" fill-rule="nonzero"></path>
                    <path d="M655,123 L644,123 L641.1,131 L638.5,131 L648.5,104.8 L651,104.8 L661,131 L658.4,131 L655,123 Z M645,120.8 L655,120.8 L650.3,107.9 L645,120.8 Z" id="Shape" fill-rule="nonzero"></path>
                    <path d="M665.8,123.7 C666.503875,127.128208 669.727689,129.437156 673.2,129 C677.1,129 679.9,126.8 679.9,123.9 C679.9,121 678.2,120 674.3,119 L671.1,118.2 C666.2,116.9 664.1,114.9 664.1,111.4 C664.273411,109.243318 665.323785,107.252143 667.005905,105.891327 C668.688025,104.530511 670.854662,103.919161 673,104.2 C675.150823,103.947569 677.313165,104.566915 679.004203,105.919746 C680.695241,107.272576 681.774142,109.246225 682,111.4 L679.5,111.4 C679.5,108.4 676.7,106.5 673,106.5 C669.3,106.5 666.7,108.5 666.7,111.4 C666.7,114.3 668.3,114.9 672.1,115.9 L675,116.6 C680.2,118 682.4,120 682.4,123.6 C682.4,127.2 678.7,131.2 673,131.2 C667.3,131.2 663.6,128.2 663,123.7 L665.8,123.7 Z" id="Path"></path>
                    <polygon id="Path" points="702.6 130.8 702.6 119.5 693.3 104.6 696.1 104.6 703.8 117 703.8 117 711.6 104.6 715 104.6 705 119.5 705 130.8"></polygon>
                    <polygon id="Path" points="742.4 130.8 726.6 130.8 726.6 104.6 742.4 104.6 742.4 106.9 729 106.9 729 116.3 741.7 116.3 741.7 118.5 729 118.5 729 128.5 742.4 128.5"></polygon>
                    <path d="M746.5,117.7 C746.5,109.4 751,104.2 758.3,104.2 C761.753912,104.168617 765.051042,105.639486 767.335049,108.230586 C769.619056,110.821687 770.664553,114.277328 770.2,117.7 C770.52282,122.121803 768.653926,126.42026 765.2,129.2 L768.6,133.9 L765.8,133.9 L763.2,130.3 C761.64596,130.933849 759.977852,131.240236 758.3,131.2 C751,131.2 746.5,126 746.5,117.7 Z M761.8,128.3 L758.4,123.6 L761.2,123.6 L763.8,127.2 C766.686081,124.725471 768.148724,120.975103 767.7,117.2 C767.7,110.3 764.1,106 758.3,106 C752.5,106 749,110.3 749,117.2 C749,124.1 752.6,128.4 758.3,128.4 C759.463469,128.572766 760.648294,128.538913 761.8,128.3 Z" id="Shape" fill-rule="nonzero"></path>
                    <path d="M777.5,121.5 C777.375739,123.533774 778.143797,125.520753 779.603654,126.942193 C781.063511,128.363633 783.070262,129.078441 785.1,128.9 C787.137975,129.075015 789.152418,128.362583 790.627233,126.945229 C792.102048,125.527875 792.89393,123.543318 792.8,121.5 L792.8,104.6 L795,104.6 L795,121.7 C795,127.222847 790.522847,131.7 785,131.7 C779.477153,131.7 775,127.222847 775,121.7 L775,104.6 L777.5,104.6 L777.5,121.5 Z" id="Path"></path>
                    <polygon id="Path" points="801.1 130.8 801.1 104.6 803.5 104.6 803.5 130.8"></polygon>
                    <path d="M818.3,104.6 C821.427275,104.253062 824.477287,105.726161 826.149784,108.3913 C827.822281,111.056439 827.822281,114.443561 826.149784,117.1087 C824.477287,119.773839 821.427275,121.246938 818.3,120.9 L811.9,120.9 L811.9,130.9 L809.5,130.9 L809.5,104.6 L818.3,104.6 Z M811.8,118.7 L817.7,118.7 C819.364311,118.907506 821.035543,118.371492 822.268692,117.234683 C823.501841,116.097874 824.171735,114.475663 824.1,112.8 C824.202472,111.10736 823.545986,109.456979 822.308881,108.297193 C821.071777,107.137408 819.382517,106.588652 817.7,106.8 L811.8,106.8 L811.8,118.7 Z" id="Shape" fill-rule="nonzero"></path>
                    <path d="M853.9,119.387485 C853.095845,126.568076 847.401417,131.757816 840.990708,131.152645 C834.58,130.547475 829.733977,124.362718 830.004754,117.131776 C830.27553,109.900834 835.566763,104.196515 842,104.200062 C845.453912,104.164756 848.751042,105.819475 851.035049,108.734448 C853.319056,111.649421 854.364553,115.536999 853.9,119.387485 Z M832.6,117.7 C832.6,124.6 836.2,128.9 842,128.9 C847.8,128.9 851.3,124.6 851.3,117.7 C851.3,110.8 847.7,106.5 842,106.5 C836.3,106.5 832.6,110.8 832.6,117.7 Z" id="Shape" fill-rule="nonzero"></path>
                    <path d="M859.8,123.7 C860.503875,127.128208 863.727689,129.437156 867.2,129 C871.1,129 873.9,126.8 873.9,123.9 C873.9,121 872.2,120 868.3,119 L865,118.2 C860.1,116.9 858,114.9 858,111.4 C858.173411,109.243318 859.223785,107.252143 860.905905,105.891327 C862.588025,104.530511 864.754662,103.919161 866.9,104.2 C869.050823,103.947569 871.213165,104.566915 872.904203,105.919746 C874.595241,107.272576 875.674142,109.246225 875.9,111.4 L873.4,111.4 C873.4,108.4 870.6,106.5 866.9,106.5 C863.2,106.5 860.6,108.5 860.6,111.4 C860.6,114.3 862.2,114.9 866,115.9 L868.9,116.6 C874.1,118 876.3,120 876.3,123.6 C876.3,127.2 872.6,131.2 866.3,131.2 C863.965002,131.631172 861.556095,131.065997 859.656516,129.641313 C857.756937,128.216628 856.539874,126.062326 856.3,123.7 L859.8,123.7 Z" id="Path"></path>
                    <polygon id="Path" points="68.5 165.6 32.2 63.9 49.3 63.9 77 147.8 77 147.8 105 63.9 122 63.9 85.7 165.6"></polygon>
                    <path d="M37.2,90 C24,85.5 16.1,72 16.1,52.3 C16.1,28.5 27.8,14.2 47.3,14.2 C59.8806626,13.6966403 71.1154034,22.0186706 74.3,34.2 L90.5,34.2 C86.6514533,13.6417768 68.0738433,-0.817009684 47.2,0.5 C18.2,0.4 0,20.4 0,53 C0,85.6 16.3,103 42.7,105.3 L37.2,90 Z" id="Path"></path>
                    <path d="M49.4,63.9 L75.7,63.9 L75.7,65.7 C75.8006936,75.3836468 70.3648202,84.2751826 61.7,88.6 L66.2,102.3 C82.6459471,95.7332658 92.8167287,79.1345502 91.2,61.5 L91.2,51.5 L49.4,51.5 L49.4,63.9 Z" id="Path"></path>
                </g>
            </g>
        </g>
    </g>
</svg>