<?xml version="1.0" encoding="UTF-8"?>
<svg width="201px" height="153px" viewBox="0 0 201 153" version="1.1" xmlns="http://www.w3.org/2000/svg" xmlns:xlink="http://www.w3.org/1999/xlink">
    <!-- Generator: Sketch 60.1 (88133) - https://sketch.com -->
    <title>Combined Shape</title>
    <desc>Created with Sketch.</desc>
    <g id="Page-1" stroke="none" stroke-width="1" fill="none" fill-rule="evenodd">
        <path d="M106.235354,100.936471 C109.082407,100.936471 111.741528,101.73951 114.143993,103.320991 C116.55908,104.914048 118.501528,107.106128 119.912432,109.833568 C121.328947,112.574031 122.047022,115.609664 122.047022,118.860889 C122.047022,122.162755 121.327544,125.237455 119.91103,127.998175 C118.501528,130.747318 116.560482,132.952421 114.143993,134.545478 C111.741528,136.126959 109.081005,136.929998 106.235354,136.929998 C104.191926,136.929998 102.207403,136.498817 100.339287,135.650923 C98.8245983,134.96219 97.4347311,134.026034 96.2033452,132.864159 C95.7938183,132.474938 95.2005651,132.375101 94.6914614,132.608055 C94.1837602,132.838115 93.8541751,133.357558 93.8541751,133.931985 L93.8541751,133.931985 L93.8541751,149.189733 C93.8541751,150.169296 93.533005,150.97957 92.8696274,151.662515 C92.2048473,152.348354 91.4208556,152.682592 90.4699676,152.682592 C89.5190797,152.682592 88.735088,152.348354 88.0717104,151.662515 C87.4097353,150.978123 87.0857602,150.169296 87.0857602,149.189733 L87.0857602,149.189733 L87.0857602,105.160024 C87.0857602,104.180461 87.4097353,103.370187 88.0731129,102.685795 C88.735088,101.999955 89.5190797,101.668611 90.4699676,101.668611 C91.4208556,101.668611 92.2048473,102.001402 92.8668224,102.684348 C93.3436689,103.1763 93.6395942,103.723235 93.7742332,104.354091 C93.8808224,104.861959 94.2454697,105.271437 94.7251212,105.426257 C95.2061751,105.583971 95.7307062,105.458089 96.1009635,105.103594 C97.3547892,103.895418 98.7811212,102.923089 100.339287,102.215546 C102.207403,101.367652 104.191926,100.936471 106.235354,100.936471 Z M24.3442647,87.4565505 C27.5713934,87.4565505 30.7073602,88.1105574 33.6610033,89.3983142 C36.6146465,90.6889649 39.2162647,92.5308913 41.4153685,94.8908142 C42.0969784,95.5954632 42.427966,96.3898211 42.427966,97.3201892 C42.427966,98.3011995 42.1067959,99.1114735 41.4448207,99.7944187 C40.7786382,100.478811 39.9946465,100.811602 39.0437585,100.811602 C38.0185386,100.811602 37.2093021,100.45566 36.5333021,99.6772183 C34.9064141,97.9510454 33.0411029,96.5967303 30.9864556,95.6533399 C28.9163809,94.701268 26.6822149,94.2194443 24.3442647,94.2194443 C21.3022647,94.2194443 18.4706382,95.0412937 15.9307295,96.6618416 C13.3992357,98.273708 11.3628207,100.480258 9.87477925,103.214932 C8.38673776,105.955395 7.63219834,108.976559 7.63219834,112.193057 C7.63219834,115.412449 8.38673776,118.432167 9.87477925,121.171182 C11.3628207,123.905857 13.3992357,126.112407 15.9307295,127.724273 C18.4706382,129.344821 21.3022647,130.16667 24.3442647,130.16667 C26.6738,130.16667 28.9388207,129.700763 31.0748124,128.777629 C33.1308622,127.889222 34.9611112,126.649213 36.5122647,125.090883 C36.7843477,124.818862 36.9372191,124.44411 36.9372191,124.05489 L36.9372191,124.05489 L36.9372191,119.403049 C36.9372191,118.602903 36.3103062,117.956131 35.5347295,117.956131 L35.5347295,117.956131 L26.9010033,117.956131 C25.9978,117.956131 25.247468,117.634915 24.6065303,116.972227 C23.9683975,116.316773 23.6584473,115.519521 23.6584473,114.538511 C23.6584473,113.606696 23.9698,112.832595 24.6065303,112.174247 C25.2488705,111.514453 25.9978,111.193237 26.9010033,111.193237 L26.9010033,111.193237 L40.3929535,111.193237 C41.3901237,111.193237 42.1979577,111.526028 42.8613353,112.208973 C43.5247129,112.894812 43.848688,113.728237 43.848688,114.756996 L43.848688,114.756996 L43.848688,124.062124 C43.848688,125.179145 43.7196589,126.142792 43.4672108,126.925574 C43.2245801,127.677972 42.763161,128.427475 42.0983809,129.153828 C39.8263477,131.64108 37.1069203,133.578503 34.0172357,134.914008 C30.9219411,136.25096 27.6681651,136.929564 24.3442647,136.929564 C20.0722813,136.929564 16.0906133,135.815437 12.5086548,133.614676 C8.91547635,131.409573 6.02073776,128.375386 3.9057834,124.598931 C1.79363402,120.823922 0.72213195,116.651011 0.72213195,112.193057 C0.72213195,107.736551 1.79363402,103.56364 3.9057834,99.7871841 C6.02073776,96.0121755 8.91547635,92.9779889 12.5086548,90.7728861 C16.0920158,88.5721241 20.0736838,87.4565505 24.3442647,87.4565505 Z M65.4914871,100.936471 C68.682151,100.936471 71.6526241,101.745298 74.3201593,103.342695 C76.9919021,104.938646 79.1433212,107.136514 80.7141095,109.869741 C82.2820929,112.597182 83.0787071,115.622687 83.0787071,118.860889 C83.0787071,122.148286 82.2820929,125.209964 80.7127071,127.963449 C79.1405162,130.719827 76.9904996,132.926377 74.3215618,134.525221 C71.6512216,136.119724 68.6807485,136.929998 65.4914871,136.929998 C62.3008232,136.929998 59.3303502,136.119724 56.6642174,134.525221 C53.9924747,132.926377 51.8410556,130.719827 50.2688647,127.963449 C48.7008813,125.211411 47.9056697,122.149733 47.9056697,118.860889 C47.9056697,115.619793 48.7008813,112.595735 50.2688647,109.869741 C51.8396531,107.136514 53.9910722,104.938646 56.6642174,103.342695 C59.3289477,101.745298 62.2994207,100.936471 65.4914871,100.936471 Z M154.464588,100.936037 C158.683276,100.936037 162.509268,102.369932 165.817741,105.182741 C166.619965,105.89173 167.009857,106.723708 167.009857,107.724975 C167.009857,108.60036 166.70131,109.335395 166.067384,109.969145 C165.426446,110.610129 164.698554,110.922664 163.837426,110.922664 C163.052032,110.922664 162.426521,110.705626 161.875343,110.218015 C159.561235,108.352937 157.066206,107.406653 154.464588,107.406653 C152.561409,107.406653 150.749393,107.930437 149.079027,108.963537 L149.079027,108.963537 C147.417077,109.990848 146.08331,111.394359 145.114189,113.133554 C144.139459,114.875643 143.647185,116.802937 143.647185,118.860455 C143.647185,120.913631 144.139459,122.851054 145.109982,124.617741 C146.079102,126.38298 147.414272,127.80096 149.079027,128.829718 C150.749393,129.862818 152.561409,130.388049 154.464588,130.388049 C157.066206,130.388049 159.566845,129.43453 161.944065,127.51447 C162.426521,127.086182 163.063251,126.870592 163.837426,126.870592 C164.697152,126.870592 165.426446,127.183126 166.068787,127.825557 C166.70131,128.459307 167.009857,129.192895 167.009857,130.069727 C167.009857,131.069547 166.62277,131.901525 165.845791,132.588811 C162.512073,135.420429 158.684679,136.857218 154.464588,136.857218 C151.273924,136.857218 148.304853,136.048391 145.637318,134.450994 C142.965575,132.853597 140.814156,130.6456 139.241965,127.889222 C137.673982,125.138631 136.87877,122.100104 136.87877,118.860455 C136.87877,115.620806 137.673982,112.596747 139.241965,109.869307 C140.812754,107.13608 142.964173,104.939658 145.637318,103.342261 C148.302048,101.746311 151.272521,100.936037 154.464588,100.936037 Z M174.310377,86.7223844 C175.261265,86.7223844 176.045256,87.0566224 176.708634,87.7381207 C177.370609,88.4254067 177.694584,89.2356807 177.694584,90.2137971 L177.694584,90.2137971 L177.694584,114.701434 C177.694584,115.27586 178.021364,115.793857 178.530468,116.025364 C179.036767,116.253977 179.63002,116.157033 180.042352,115.770706 L180.042352,115.770706 L194.302866,102.369354 C194.940999,101.750073 195.695539,101.449114 196.608559,101.449114 C197.5889,101.449114 198.396734,101.8311 199.131638,102.670312 C199.710866,103.26789 199.991364,104.010158 199.991364,104.940527 C199.991364,105.40354 199.894593,105.879576 199.702451,106.352718 C199.525738,106.792581 199.25646,107.164439 198.827298,107.520381 L198.827298,107.520381 L190.753165,115.152872 C190.225829,115.650612 190.14729,116.481143 190.572244,117.075826 L190.572244,117.075826 L200.305522,130.750646 C200.715049,131.33086 200.915605,131.993549 200.915605,132.779225 C200.915605,134.003318 200.472418,134.94092 199.563605,135.645569 C198.538385,136.439927 197.193398,136.584619 196.051771,135.968232 C195.584742,135.719362 195.17241,135.350398 194.835812,134.887384 L194.835812,134.887384 L185.73085,122.037307 C185.495232,121.704516 185.137597,121.493266 184.740692,121.449859 C184.693007,121.445518 184.645323,121.442624 184.599041,121.442624 C184.252626,121.442624 183.914626,121.575741 183.656568,121.817376 L183.656568,121.817376 L178.154601,126.965509 C177.86148,127.240424 177.694584,127.629645 177.694584,128.037676 L177.694584,128.037676 L177.694584,132.706879 C177.694584,133.686443 177.372012,134.496717 176.710037,135.181109 C176.045256,135.864054 175.261265,136.198292 174.310377,136.198292 C173.359489,136.198292 172.575497,135.865501 171.91212,135.181109 C171.248742,134.49527 170.926169,133.686443 170.926169,132.706879 L170.926169,132.706879 L170.926169,90.2137971 C170.926169,89.2356807 171.248742,88.4254067 171.913522,87.7395676 C172.575497,87.0551755 173.359489,86.7223844 174.310377,86.7223844 Z M129.576988,101.668177 C130.526474,101.668177 131.310466,102.000968 131.973843,102.68536 C132.638623,103.371199 132.961196,104.180027 132.961196,105.15959 L132.961196,105.15959 L132.961196,132.706011 C132.961196,133.687021 132.638623,134.495848 131.975246,135.180241 C131.311868,135.86608 130.527876,136.197424 129.576988,136.197424 C128.6261,136.197424 127.840706,135.86608 127.178731,135.181687 C126.513951,134.497295 126.192781,133.687021 126.192781,132.706011 L126.192781,132.706011 L126.192781,105.15959 C126.192781,104.17858 126.513951,103.369753 127.177329,102.686807 C127.842109,102.000968 128.6261,101.668177 129.576988,101.668177 Z M70.9471718,108.963971 C67.6092465,106.897772 63.3737278,106.897772 60.0344,108.963971 C58.3682423,109.995623 57.0428896,111.416497 56.0976116,113.186077 C55.1523336,114.948423 54.6740846,116.882952 54.6740846,118.933235 C54.6740846,120.983517 55.1523336,122.918046 56.0962091,124.681839 C57.0414871,126.45142 58.3668398,127.870846 60.0344,128.903945 C61.7159851,129.944279 63.6023336,130.463723 65.4900846,130.463723 C67.3778357,130.463723 69.2655867,129.944279 70.9513793,128.903945 C72.6161344,127.870846 73.9386822,126.45142 74.8867651,124.681839 L74.8867651,124.681839 C75.8320432,122.915152 76.3102921,120.98207 76.3102921,118.933235 C76.3102921,116.884399 75.8320432,114.951317 74.8867651,113.186077 C73.9386822,111.41505 72.614732,109.995623 70.9471718,108.963971 Z M109.915486,108.963971 C106.574756,106.897772 102.342042,106.897772 99.0027145,108.963971 C97.3365568,109.995623 96.0112041,111.416497 95.0659261,113.186077 C94.1206481,114.948423 93.6423992,116.882952 93.6423992,118.933235 C93.6423992,120.983517 94.1206481,122.918046 95.0645237,124.681839 C96.0098017,126.45142 97.3351544,127.870846 99.0027145,128.903945 C100.6843,129.944279 102.570648,130.463723 104.458399,130.463723 C106.34615,130.463723 108.233901,129.944279 109.919694,128.903945 C111.583046,127.872293 112.905594,126.452866 113.85508,124.683286 C113.85508,124.681839 113.85508,124.681839 113.856482,124.681839 C114.800358,122.915152 115.278607,120.98207 115.278607,118.933235 C115.278607,116.884399 114.800358,114.951317 113.85508,113.18463 C112.905594,111.41505 111.581644,109.995623 109.915486,108.963971 Z M129.576988,89.763661 C130.714407,89.763661 131.65688,90.1774795 132.464715,91.029714 C133.276756,91.8877363 133.670856,92.878875 133.670856,94.0610068 C133.670856,95.2431387 133.276756,96.2357243 132.464715,97.0922997 C131.658283,97.9430873 130.71581,98.3569058 129.576988,98.3569058 C128.438167,98.3569058 127.492889,97.9430873 126.686457,97.0908527 C125.875818,96.2357243 125.481719,95.2431387 125.481719,94.0610068 C125.481719,92.8774281 125.875818,91.8877363 126.68786,91.029714 C127.494291,90.1774795 128.438167,89.763661 129.576988,89.763661 Z M94.3787062,78.3278014 C94.8681751,78.0268425 95.4375859,77.9429212 95.9859593,78.0905068 C96.5329303,78.2351986 96.9943494,78.5925873 97.2832622,79.0946678 C97.5721751,79.5996421 97.6535195,80.1870908 97.5132705,80.7542825 C97.2678349,81.7410805 96.4039012,82.3994281 95.4572207,82.3994281 C95.283312,82.3994281 95.1080008,82.3762774 94.9312871,82.329976 C93.799478,82.0290171 93.1136606,80.8353099 93.4039759,79.6662003 C93.5456274,79.1004555 93.8920423,78.6244195 94.3787062,78.3278014 Z M95.9207436,71.8560274 C96.40881,71.5565154 96.9796232,71.4740411 97.5293992,71.6187329 C98.6626108,71.9196918 99.3470257,73.1148459 99.0567104,74.2825086 C98.9150589,74.8482534 98.568644,75.3242894 98.0819801,75.6209075 C97.7481876,75.8249229 97.3793328,75.9276541 97.004868,75.9276541 C96.8281544,75.9276541 96.6500382,75.9045034 96.474727,75.8582021 C95.9263535,75.7135103 95.4663369,75.3561216 95.1774241,74.8540411 C94.8885112,74.3490668 94.8071668,73.7616182 94.9474158,73.1944264 C95.0876647,72.6301284 95.4340797,72.1540925 95.9207436,71.8560274 Z M126.817871,1.73593065 C128.394269,0.770836473 130.232933,0.513285103 131.998667,0.998002568 C135.552576,1.98190668 137.68436,5.84228339 136.7489,9.60571661 L136.7489,9.60571661 L127.730891,45.9204598 C127.683207,46.1172406 127.542958,46.2720608 127.357829,46.3371721 C127.175505,46.4037303 126.970742,46.3690043 126.816468,46.2445693 L126.816468,46.2445693 L126.774393,46.2098433 L119.007406,39.9880967 C118.721298,39.755143 118.404335,39.5684906 118.06914,39.4310334 C118.06353,39.4281396 118.05231,39.4237988 118.055115,39.4252457 C117.895232,39.3572406 117.732543,39.3022577 117.572659,39.2602971 C117.362285,39.2038673 117.15051,39.1662474 116.926111,39.1488844 C116.872817,39.1430967 116.822327,39.1373091 116.770435,39.1358622 C116.544634,39.1242868 116.338468,39.1344152 116.139315,39.1590128 C116.02431,39.1676943 115.923331,39.1850574 115.819547,39.208208 C114.867256,39.3963074 114.021555,39.93022 113.436717,40.7086618 C113.257198,40.951744 113.102924,41.2107423 112.979505,41.4827628 C112.662543,42.1787303 112.544734,42.9557252 112.6387,43.7312731 C112.662543,43.9150317 112.693398,44.0814272 112.73407,44.2391413 C112.940236,45.0812474 113.389032,45.8177286 114.031373,46.3661104 C114.031373,46.3675574 114.077655,46.4080711 114.079057,46.4080711 C114.079057,46.409518 114.137962,46.4587132 114.137962,46.4587132 L114.137962,46.4587132 L118.682028,50.0991584 C118.687638,50.1034991 118.693248,50.1092868 118.696053,50.1136276 L118.696053,50.1136276 L118.75636,50.1628228 L124.736576,54.9521207 C125.043721,55.1980967 125.130676,55.633619 124.944144,55.986667 L124.944144,55.986667 L124.384551,57.0385762 C122.008734,61.1116498 118.391713,64.4424546 114.195464,66.4218382 C112.884136,67.0425659 111.447987,67.5446464 109.924883,67.9136104 L109.924883,67.9136104 L108.745389,72.6551601 C108.506966,73.6144666 107.814136,74.346607 106.891298,74.6142868 C106.647265,74.6851858 106.400427,74.7213587 106.156393,74.7213587 C105.477588,74.7213587 104.821223,74.4507851 104.314924,73.942917 L104.314924,73.942917 L98.9405842,68.5574889 C98.704966,68.3216413 98.5198373,68.043833 98.3781859,67.711042 C98.097688,67.9324204 97.8059701,68.0843467 97.4890075,68.1726087 L97.4890075,68.1726087 L90.2661859,70.2243382 C89.3447502,70.4862303 88.3798373,70.2301259 87.6954224,69.5370522 C87.0110075,68.8410848 86.7445344,67.8542868 86.9829577,66.8949803 L86.9829577,66.8949803 L88.2942855,61.6253057 C87.1344266,60.4315985 86.1035967,59.1221378 85.2298456,57.7330967 C82.0882689,52.7383365 80.8737129,46.7640128 81.807771,40.9126772 C81.9115552,40.2369666 82.0546091,39.5366584 82.2285178,38.8349033 L82.2285178,38.8349033 L85.047522,27.9034392 C85.0601444,27.8556909 85.0755718,27.8108365 85.0924017,27.7630882 L85.0924017,27.7630882 L85.3644846,26.6663245 C85.8090739,24.8735933 86.9114307,23.3615642 88.4695967,22.4094923 C90.0249577,21.4603142 91.8355718,21.1882937 93.5788664,21.6513074 C94.7289079,21.956607 95.7807751,22.5715471 96.6208664,23.4281224 C96.7947751,23.6046464 96.9560614,23.786958 97.1019203,23.9692697 L97.1019203,23.9692697 L97.559132,22.1287902 C97.5885842,22.0159307 97.6054141,21.9450317 97.6278539,21.8741327 C98.1103104,20.1942611 99.1888249,18.7719409 100.664244,17.871958 C102.2168,16.921333 104.028817,16.6522063 105.776319,17.1123262 C107.251738,17.5044409 108.554651,18.4029769 109.473281,19.6589015 C110.049705,18.595417 110.894003,17.7055625 111.927638,17.0761533 C113.487207,16.1255283 115.304833,15.8621892 117.03831,16.3194152 C118.422568,16.6854854 119.663771,17.502994 120.568377,18.6359307 L120.568377,18.6359307 L123.712759,5.99276284 C124.15875,4.19713784 125.261107,2.68510873 126.817871,1.73593065 Z M85.6590075,36.6833365 L84.9170905,39.561256 C84.7670241,40.1660676 84.643605,40.776667 84.5510407,41.3727971 L84.5510407,41.3727971 C83.7277793,46.5194837 84.7978788,51.7746892 87.5607834,56.1704255 C88.0095801,56.8823091 88.5439286,57.6086618 89.1932813,58.3885505 C89.5803685,57.6781139 90.2591734,57.1818211 91.05719,57.0371293 C91.9505759,56.8765214 92.8229245,57.1760334 93.4470324,57.8604255 L93.4470324,57.8604255 L98.7203934,63.6452029 C98.9223519,63.8665813 99.0836382,64.1140043 99.2042523,64.3845779 C99.4356631,64.2080539 99.6937212,64.0705967 99.9714141,63.9765471 L99.9714141,63.9765471 L107.295215,61.5240214 C107.571505,61.4328656 107.853406,61.3880111 108.129696,61.3880111 C108.791671,61.3880111 109.431207,61.6441156 109.937505,62.1346207 C110.631738,62.8074375 110.919248,63.766744 110.71729,64.7188159 C111.577016,64.4410077 112.338568,64.1458365 113.037007,63.8159392 C116.585306,62.1404084 119.568402,59.4751858 121.676344,56.0995265 C121.530485,56.0011361 121.381821,55.8926173 121.231754,55.7725231 L121.231754,55.7725231 L112.432534,48.7202457 C112.365215,48.6696036 112.299298,48.6131738 112.233381,48.5552971 C110.99919,47.4889187 110.180136,46.0000402 109.920676,44.349107 C107.972617,43.7877029 106.361157,42.3349974 105.550518,40.4221721 C103.898385,41.7938502 101.713306,42.2843553 99.6516465,41.7403142 C97.6348664,41.2049546 95.9645012,39.7262046 95.1412398,37.7598433 C93.4905095,39.1242868 91.3040282,39.614792 89.2465759,39.0721978 C87.8272564,38.6959991 86.5650158,37.8524461 85.6590075,36.6833365 L85.6590075,36.6833365 Z M131.235713,3.75872175 C130.216103,3.4867012 129.147406,3.64441524 128.23158,4.20292551 C127.315754,4.76288271 126.666402,5.65129024 126.404136,6.70609332 L126.404136,6.70609332 L118.944294,36.7050402 C119.572609,36.9452286 120.167265,37.2867012 120.711431,37.7222235 L120.711431,37.7222235 L125.861373,41.848833 L134.093987,8.74045976 C134.356252,7.68276284 134.204783,6.58165839 133.663422,5.63826798 C133.124866,4.69632449 132.260933,4.02929538 131.235713,3.75872175 Z M116.346883,19.0960505 C115.327273,18.8283707 114.258576,18.9860848 113.34275,19.5431481 C112.425522,20.1045522 111.776169,20.9929598 111.513904,22.044869 L111.513904,22.044869 L110.63314,25.5883707 L107.889871,36.6240128 C107.414427,38.5411789 108.347082,40.5393724 110.069339,41.3597748 C110.299348,40.4872834 110.693447,39.6784563 111.241821,38.9506567 C112.32314,37.5138673 113.886916,36.5834991 115.642833,36.3317354 C115.811132,36.3085848 115.989248,36.2897748 116.174377,36.2767526 L116.174377,36.2767526 L119.207962,24.0806824 C119.749323,21.8943896 118.466045,19.6574546 116.346883,19.0960505 Z M105.083489,19.8904084 C104.055464,19.6183878 102.990974,19.7789957 102.079356,20.3389529 C101.207007,20.8699717 100.57168,21.710631 100.289779,22.7061104 C100.275754,22.7524118 100.270144,22.7697748 100.261729,22.7871378 L100.261729,22.7871378 L97.4833975,33.9761533 C97.2197295,35.0338502 97.3726008,36.1364015 97.9139618,37.079792 C98.4553228,38.0217354 99.3164515,38.6902115 100.343074,38.962232 C102.458028,39.5221892 104.62768,38.1997063 105.173248,36.0119666 L105.173248,36.0119666 L107.941763,24.8750402 C108.145124,24.0589786 108.100244,23.2081909 107.808526,22.4167269 C107.34851,21.165143 106.3289,20.2203057 105.083489,19.8904084 Z M91.9085012,24.3006139 C91.2058539,24.3006139 90.5102191,24.4959478 89.8833062,24.8764872 C88.966078,25.4378913 88.3167253,26.3262988 88.0558622,27.379655 L88.0558622,27.379655 L87.0797295,31.3094837 C86.8974058,32.0416241 86.9142357,32.8084906 87.1330241,33.5261618 C87.548161,34.9050745 88.5986257,35.9396207 89.9394058,36.2941156 C90.9618207,36.5661361 92.0333228,36.409869 92.9449411,35.8499118 C93.8593643,35.2928485 94.5073145,34.4015471 94.7709826,33.3438502 L94.7709826,33.3438502 L95.7471154,29.4140214 C95.7807751,29.2866926 95.8046174,29.1550231 95.8228498,29.0276943 C96.0177959,27.7269152 95.5872315,26.3971978 94.6728083,25.4711704 C94.1749245,24.9661961 93.557829,24.6059135 92.887439,24.4293896 C92.5648664,24.3425745 92.2352813,24.3006139 91.9085012,24.3006139 Z" id="Combined-Shape" fill="#FFFFFF"></path>
    </g>
</svg>