<?xml version="1.0" encoding="UTF-8"?>
<svg width="101px" height="58px" viewBox="0 0 101 58" version="1.1" xmlns="http://www.w3.org/2000/svg" xmlns:xlink="http://www.w3.org/1999/xlink">
    <!-- Generator: Sketch 52.5 (67469) - http://www.bohemiancoding.com/sketch -->
    <title>FUndacion Iker Casillas</title>
    <desc>Created with Sketch.</desc>
    <g id="Page-1" stroke="none" stroke-width="1" fill="none" fill-rule="evenodd">
        <g id="FUndacion-Iker-Casillas" fill="#FFFFFF">
            <path d="M30.85,39.78 C30.85,39.78 30.91,39.72 30.93,39.69 C31.1887484,39.3421924 31.4658061,39.0083879 31.76,38.69 C32.6311587,37.6681959 33.5699364,36.7060323 34.57,35.81 C35.4019335,35.2300973 36.1666527,34.559291 36.85,33.81 C37.22,33.4 37.6,33.01 37.98,32.62 C38.2268881,32.3233322 38.6569355,32.258825 38.98,32.47 C39.7302848,32.8558848 40.5491779,33.0903397 41.39,33.16 C41.9163658,33.1902596 42.4260683,33.3555685 42.87,33.64 C43.7254451,34.2210906 44.7047934,34.5943387 45.73,34.73 C48.6138048,34.9622674 51.5085525,35.0290436 54.4,34.93 C54.75,34.93 54.94,34.93 55.04,35.31 C55.14,35.69 55.38,35.58 55.62,35.57 C55.86,35.56 55.93,35.33 55.98,35.13 C56.21,34.3 54.73,32.18 53.52,32.59 C52.4220616,32.9873911 51.2378529,33.0840612 50.09,32.87 C49.2623817,32.7997188 48.4445071,32.6421774 47.65,32.4 C47.1861868,32.1952566 46.6868229,32.0831545 46.18,32.07 C44.8806069,32.0193716 43.6649691,31.4151923 42.84,30.41 C42.2619644,29.8969801 41.8218651,29.247146 41.56,28.52 C41.480969,28.1058632 41.1816545,27.7681751 40.78,27.64 C40.14,27.4 39.94,26.86 40.36,26.36 C40.78,25.86 41.16,25.13 42.01,25.06 C42.2997647,25.0090703 42.5007101,24.7425992 42.47,24.45 C42.483478,23.9913447 42.5960546,23.5410385 42.8,23.13 C42.9275372,22.8625097 42.969443,22.5621852 42.92,22.27 C42.7175446,21.3407633 42.2842044,20.4775221 41.66,19.76 C41.2089993,19.349127 40.5579657,19.243236 40,19.49 C39.5229745,19.7003189 39.0966924,20.0106522 38.75,20.4 C38.7861223,19.8770459 38.849542,19.3563362 38.94,18.84 C39.1449754,16.5042256 39.6525571,14.2049812 40.45,12 C40.6213814,11.5719885 40.8429293,11.1658174 41.11,10.79 C41.7162181,9.94946842 42.1604701,9.00331349 42.42,8 C42.51,7.68 42.51,7.26 42.06,7.31 C41.38,7.39 41.55,7 41.58,6.64 C41.64,6.02 41.25,5.23 40.77,5.19 C40.1439193,5.06990649 39.4962373,5.13954971 38.91,5.39 C38.56,5.59 38.91,6.14 38.75,6.52 L38.58,6.45 C38.3489615,6.24486985 38.0010385,6.24486985 37.77,6.45 C37.53,6.7 37.77,6.92 37.92,7.12 C38.0919608,7.38534681 38.1855474,7.69383609 38.19,8.01 C38.1811044,8.45657544 38.3065205,8.89553176 38.55,9.27 C38.7056788,9.52559201 38.7387016,9.8374736 38.64,10.12 C38.4034336,11.4232658 38.069157,12.706888 37.64,13.96 C37.4122748,14.4816324 37.2639629,15.0344313 37.2,15.6 C37.08,17.8 35.68,19.46 34.86,21.36 C34.57,22.02 33.99,22.59 33.86,23.36 C33.7736774,23.9406323 33.4955855,24.4756951 33.07,24.88 C32.64,25.34 32.15,25.75 31.75,26.24 C31.0110626,27.1393521 30.0490082,27.8289968 28.96,28.24 C28.5244779,28.404822 28.1290434,28.6604909 27.8,28.99 C27.4944566,29.2769558 27.3487729,29.6953295 27.41,30.11 C27.62,31.11 27.52,31.4 26.48,31.49 C25.8658116,31.5199539 25.2787239,31.7519766 24.81,32.15 C23.9421589,32.7115663 23.0328708,33.206326 22.09,33.63 C21.19,34.22 20.09,34.47 19.15,35.04 C18.1791993,35.5845291 17.1577202,36.03331 16.1,36.38 C15.6534951,36.5747084 15.1651379,36.6538085 14.68,36.61 C13.9668079,36.5328395 13.2455874,36.6324366 12.58,36.9 C11.0576853,37.4008599 9.62600749,38.1437116 8.34,39.1 C7.31519874,39.8234641 6.18991048,40.3928465 5,40.79 C4.76404261,40.8747304 4.50595739,40.8747304 4.27,40.79 C3.28988062,40.5254796 2.25991219,40.5048803 1.27,40.73 C0.98,40.79 0.81,41 0.97,41.22 C1.33352314,41.8188837 1.7448627,42.3874018 2.2,42.92 C2.54732973,43.3897884 3.08966651,43.6758704 3.67351646,43.6972782 C4.25736642,43.7186861 4.81919805,43.4730902 5.2,43.03 C5.64,42.66 6.26,42.61 6.69,42.26 C7.17532295,41.8907792 7.72949231,41.6221941 8.32,41.47 C10.2564801,41.0458862 12.155885,40.4673703 14,39.74 C14.4802617,39.5122947 15.0090406,39.4058522 15.54,39.43 C16.4465369,39.4627304 17.3529472,39.3616437 18.23,39.13 C18.3978017,39.0601105 18.5874066,39.0648726 18.7514884,39.1430976 C18.9155701,39.2213226 19.0386475,39.36563 19.09,39.54 C19.31,40.06 19.64,40.14 20.14,39.87 C20.9641037,39.4505753 21.8284986,39.1155386 22.72,38.87 C23.09,38.76 23.19,38.87 23.2,39.24 C23.2555072,40.1561966 22.9942285,41.0636106 22.46,41.81 C22.3275844,41.9480462 22.2747921,42.1441321 22.32,42.33 C22.5439131,43.4925367 22.2233807,44.6936123 21.45,45.59 C21.3345477,45.7644723 21.2341841,45.9484723 21.15,46.14 C20.9396222,46.5770254 20.5870254,46.9296222 20.15,47.14 C19.0117297,47.590374 18.0262221,48.3572654 17.31,49.35 C17.2055003,49.5100973 17.0651191,49.6436307 16.9,49.74 C16.157189,50.2200133 15.4487998,50.7513052 14.78,51.33 C14.4025129,51.6839163 13.8632799,51.8062955 13.37,51.65 C12.8304341,51.5234004 12.2640959,51.5796825 11.76,51.81 C11.38,51.95 11.16,52.18 11.38,52.62 C11.5050398,52.8725067 11.4780014,53.1737919 11.31,53.4 C10.9816917,54.0132211 10.4991495,54.5302306 9.91,54.9 C9.43,55.13 9.29,55.73 8.91,56.05 C8.81,56.12 8.91,56.29 8.98,56.39 C9.14826895,56.6314071 9.25784456,56.9087703 9.3,57.2 C9.36860986,57.4289948 9.53843849,57.613883 9.76079411,57.7016549 C9.98314974,57.7894269 10.2334754,57.7703891 10.44,57.65 C10.869786,57.3781056 11.254429,57.0406995 11.58,56.65 C12.625739,55.4727146 13.8150224,54.4312517 15.12,53.55 C16.0761367,52.8891516 17.1481392,52.4142138 18.28,52.15 C20.28,51.53 21.64,49.99 23.19,48.73 C23.94,48.12 24.27,47.05 25.25,46.66 C25.7177268,46.5330813 26.1382494,46.2724268 26.46,45.91 C27.3863589,44.4513458 28.4549075,43.0880252 29.65,41.84 C29.72,41.78 29.65,41.62 29.77,41.56 C30.3809432,41.1607969 30.7780826,40.5062525 30.85,39.78 Z M34.76,23.66 C34.9034489,23.4845031 35.0570447,23.317551 35.22,23.16 C35.39,23.02 35.58,22.82 35.77,23.16 C35.72,23.28 35.93,23.53 35.53,23.49 C35.13,23.45 34.78,23.56 35.12,24.09 C35.35,23.92 35.53,23.65 35.87,23.68 C35.87,23.88 36.01,24.09 35.87,24.3 C35.7179885,24.3552976 35.6259818,24.5100361 35.65,24.67 L36.01,24.55 C36.09,24.85 35.55,24.95 35.76,25.29 C35.26,25.64 35.94,25.71 35.92,25.94 C35.9,26.17 36.03,26.2 36.22,26.1 C36.3871627,26.0128608 36.5610553,25.9392909 36.74,25.88 C36.95,25.81 37.19,25.82 37.27,26.06 C37.35,26.3 37.16,26.43 36.92,26.47 C36.68,26.51 36.59,26.9 36.27,26.86 L35.4,25.79 C35.2771167,25.6474602 35.163548,25.4971487 35.06,25.34 C35.06,25.27 34.99,25.06 35.06,25.12 C35.66,25.43 35.25,24.9 35.34,24.8 L34.93,24.8 C34.81,24.67 35.54,24.38 34.84,24.39 C34.66,24.39 34.84,24.2 34.73,24.13 C34.62,24.06 34.57,23.82 34.76,23.66 Z M31.76,28.55 C32.64,27.93 33.22,27 34.06,26.34 C34.27,26.18 34.43,25.89 34.73,26.19 C34.9869982,26.4011758 35.043098,26.772298 34.86,27.05 C34.86,27.1 34.79,27.18 34.74,27.19 C33.92,27.4 33.61,28.25 32.92,28.63 C32.7124151,28.7351295 32.5338457,28.8896608 32.4,29.08 C32.07,29.6 31.64,29.58 31.13,29.43 C31.2345189,29.0764899 31.4480026,28.7650136 31.74,28.54 L31.76,28.55 Z" id="Shape" fill-rule="nonzero"></path>
            <polygon id="Path" points="39.94 38.5 39.94 37.31 35.24 37.31 35.24 43.72 36.71 43.72 36.71 41.08 39.51 41.08 39.51 39.98 36.71 39.98 36.71 38.5"></polygon>
            <path d="M45,43.73 L45,39.08 L43.66,39.08 L43.66,41.52 C43.6858249,41.8701714 43.6019399,42.2196921 43.42,42.52 C43.2281526,42.7411925 42.9415922,42.8565609 42.65,42.83 C42.3992482,42.8569461 42.1526758,42.7507303 42,42.55 C41.8609223,42.2857473 41.7985711,41.9878471 41.82,41.69 L41.82,39.08 L40.5,39.08 L40.5,41.94 C40.4980955,42.205448 40.5249183,42.4703228 40.58,42.73 C40.6235105,42.9478312 40.7158225,43.152969 40.85,43.33 C40.9892573,43.5020471 41.1723602,43.6333284 41.38,43.71 C41.6559659,43.8069287 41.9477147,43.8510302 42.24,43.84 C42.5198218,43.8391188 42.7961412,43.7777145 43.05,43.66 C43.3169462,43.5356377 43.5400442,43.3334552 43.69,43.08 L43.69,43.73 L45,43.73 Z" id="Path"></path>
            <path d="M48.73,40.24 C48.875159,40.5022638 48.941157,40.800992 48.92,41.1 L48.92,43.72 L50.27,43.72 L50.27,40.87 C50.2733874,40.6044846 50.2465481,40.339446 50.19,40.08 C50.1441902,39.8610819 50.0483587,39.6557286 49.91,39.48 C49.7635189,39.3045802 49.5740032,39.1701963 49.36,39.09 C49.0746535,38.9882646 48.7727998,38.940782 48.47,38.95 C48.1802673,38.9484469 47.8936564,39.0098636 47.63,39.13 C47.3526448,39.255169 47.1192422,39.4607026 46.96,39.72 L46.96,39.07 L45.64,39.07 L45.64,43.72 L47,43.72 L47,41.29 C46.9744046,40.9385222 47.0620145,40.5880826 47.25,40.29 C47.4484095,40.0926495 47.7204352,39.9874663 48,40 C48.2688337,39.9420289 48.5480125,40.0338137 48.73,40.24 Z" id="Path"></path>
            <path d="M54.15,43.13 L54.15,43.72 L55.4,43.72 L55.4,37.31 L54.1,37.31 L54.1,39.65 C53.9516935,39.4209186 53.7396685,39.240176 53.49,39.13 C53.2361412,39.0122855 52.9598218,38.9508812 52.68,38.95 C52.3584265,38.9409007 52.0394033,39.0095078 51.75,39.15 C51.4947061,39.2775546 51.2696666,39.458268 51.09,39.68 C50.9090207,39.9089635 50.7732722,40.1702795 50.69,40.45 C50.6011873,40.7416516 50.5573504,41.0451372 50.56,41.35 C50.5573652,41.664706 50.6011701,41.9780793 50.69,42.28 C50.7726851,42.5691194 50.9083155,42.8403803 51.09,43.08 C51.2674414,43.3130207 51.4968729,43.50136 51.76,43.63 C52.0568168,43.7696009 52.3820925,43.83808 52.71,43.83 C53.002128,43.8336565 53.2917497,43.7757321 53.56,43.66 C53.8056402,43.5469135 54.0113175,43.3621526 54.15,43.13 Z M52.49,42.76 C52.3465381,42.6744123 52.2236392,42.5583411 52.13,42.42 C52.0314346,42.2740788 51.9602731,42.1114241 51.92,41.94 C51.8788275,41.7629869 51.8586882,41.5817335 51.86,41.4 C51.8590829,41.2149848 51.8792123,41.0304656 51.92,40.85 C51.95771,40.6825324 52.0254727,40.52329 52.12,40.38 C52.210883,40.2419383 52.3345713,40.1285573 52.48,40.05 C52.6488828,39.9595062 52.8384736,39.9146938 53.03,39.92 C53.3856336,39.9008104 53.7246343,40.0722152 53.92,40.37 C54.0131053,40.5129192 54.0776284,40.6725289 54.11,40.84 C54.1489209,41.0207724 54.169028,41.2050877 54.17,41.39 C54.1692179,41.5782282 54.1491125,41.7658787 54.11,41.95 C54.075477,42.1199551 54.0111519,42.2824605 53.92,42.43 C53.8331981,42.5704954 53.7129518,42.6873061 53.57,42.77 C53.4044115,42.8596695 53.2182553,42.9044849 53.03,42.9 C52.8403641,42.9055014 52.6530757,42.8569451 52.49,42.76 Z" id="Shape" fill-rule="nonzero"></path>
            <path d="M57.19,40.51 C57.1915726,40.3023728 57.2827025,40.1055324 57.44,39.97 C57.615144,39.8563883 57.8214535,39.80044 58.03,39.81 L58.35,39.81 C58.441706,39.82276 58.5300307,39.853334 58.61,39.9 C58.6861173,39.9458415 58.7483369,40.0115178 58.79,40.09 C58.8406811,40.1923743 58.8647552,40.3058665 58.86,40.42 C58.8713134,40.5335851 58.826527,40.645551 58.74,40.72 C58.6398463,40.7977438 58.5237419,40.8523812 58.4,40.88 C58.2388416,40.9186075 58.0750692,40.9453459 57.91,40.96 L57.34,41.03 C57.1479654,41.0596387 56.9576845,41.0996979 56.77,41.15 C56.5914349,41.1975874 56.4223284,41.2753764 56.27,41.38 C56.119365,41.4863853 55.9960111,41.6268717 55.91,41.79 C55.8098721,41.9916063 55.7617457,42.2150499 55.77,42.44 C55.7639638,42.652973 55.8049353,42.8646594 55.89,43.06 C55.9670151,43.2286445 56.0836623,43.3761688 56.23,43.49 C56.3783114,43.6058681 56.5483187,43.6908718 56.73,43.74 C56.9320381,43.7948826 57.140648,43.8218 57.35,43.82 C57.6348769,43.8183051 57.9179378,43.774498 58.19,43.69 C58.4638924,43.6077974 58.7119048,43.4562343 58.91,43.25 C58.9049852,43.3265847 58.9049852,43.4034153 58.91,43.48 C58.9254571,43.5544974 58.9454951,43.6279702 58.97,43.7 L60.3,43.7 C60.227549,43.5671352 60.1832929,43.4207498 60.17,43.27 C60.1579892,43.0701803 60.1579892,42.8698197 60.17,42.67 L60.17,40.28 C60.1816367,40.0387768 60.1149905,39.8002538 59.98,39.6 C59.8551958,39.4293472 59.6903609,39.2919848 59.5,39.2 C59.2914211,39.1021916 59.0686572,39.0380625 58.84,39.01 C58.6036055,38.9939478 58.3663945,38.9939478 58.13,39.01 C57.8713153,39.0110636 57.6133783,39.0378623 57.36,39.09 C57.1169582,39.1370456 56.883652,39.2249581 56.67,39.35 C56.4683701,39.4690672 56.2971944,39.6333958 56.17,39.83 C56.0307853,40.0557695 55.9548022,40.3148028 55.95,40.58 L57.19,40.51 Z M58.86,41.93 C58.865589,42.0265859 58.865589,42.1234141 58.86,42.22 C58.8421195,42.3431154 58.801423,42.4618134 58.74,42.57 C58.6641843,42.6949944 58.5574123,42.7983221 58.43,42.87 C58.2517319,42.9643155 58.0514702,43.0092018 57.85,43 L57.55,43 C57.4617456,42.9859993 57.3769273,42.9554647 57.3,42.91 C57.2285678,42.8658984 57.1699511,42.8038337 57.13,42.73 C57.0544013,42.6356141 57.0090877,42.5205872 57,42.4 C56.994626,42.296558 57.015254,42.193418 57.06,42.1 C57.1021421,42.0250338 57.1601632,41.9601867 57.23,41.91 C57.3032286,41.8576891 57.3842141,41.8171964 57.47,41.79 L57.75,41.72 L58.05,41.72 L58.34,41.72 L58.6,41.65 C58.6734014,41.6271931 58.7414318,41.5897764 58.8,41.54 L58.86,41.93 Z" id="Shape" fill-rule="nonzero"></path>
            <path d="M61.16,43.18 C61.3691372,43.3939502 61.6213832,43.560978 61.9,43.67 C62.2177314,43.7970062 62.5579241,43.8582409 62.9,43.85 C63.4474553,43.8745404 63.985925,43.7044974 64.42,43.37 C64.8339137,43.0112678 65.0921081,42.505637 65.14,41.96 L63.87,41.96 C63.8430626,42.2172193 63.7344184,42.4590403 63.56,42.65 C63.3701587,42.832226 63.1126265,42.9265335 62.85,42.91 C62.6742103,42.9164613 62.5003807,42.8712656 62.35,42.78 C62.2131599,42.6919226 62.0998827,42.5717801 62.02,42.43 C61.935273,42.2839572 61.8745022,42.1252778 61.84,41.96 C61.8059082,41.7921614 61.7891535,41.6212639 61.79,41.45 C61.7886286,41.2720939 61.8053817,41.0945108 61.84,40.92 C61.8731204,40.7511688 61.9339414,40.5889794 62.02,40.44 C62.1047797,40.2959291 62.2210047,40.1728673 62.36,40.08 C62.5121429,39.9833107 62.6898156,39.9345378 62.87,39.94 C63.1015076,39.917871 63.3321079,39.9904457 63.5092136,40.141174 C63.6863193,40.2919023 63.7948299,40.5079325 63.81,40.74 L65.06,40.74 C65.0436086,40.2102255 64.7810604,39.7184099 64.35,39.41 C64.1447085,39.2605251 63.914451,39.1487825 63.67,39.08 C63.4097415,39.0063316 63.140483,38.9693086 62.87,38.97 C62.5272611,38.9652097 62.1870985,39.0298406 61.87,39.16 C61.584278,39.2797451 61.328272,39.4606559 61.12,39.69 C60.9130405,39.9220205 60.7564133,40.1944155 60.66,40.49 C60.5518558,40.8122218 60.4977918,41.1501218 60.5,41.49 C60.490725,41.8312432 60.5484822,42.1709916 60.67,42.49 C60.7877934,42.7491682 60.9541213,42.9833851 61.16,43.18 Z" id="Path"></path>
            <rect id="Rectangle" x="65.47" y="39.08" width="1.28" height="4.65"></rect>
            <rect id="Rectangle" x="65.47" y="37.31" width="1.28" height="1.05"></rect>
            <path d="M67.79,43.18 C68.0192754,43.3977298 68.2918664,43.5646918 68.59,43.67 C68.9112676,43.783017 69.2494336,43.8405052 69.59,43.84 C69.9304537,43.839174 70.2683989,43.7817233 70.59,43.67 C70.8880046,43.5644212 71.1605422,43.3974919 71.39,43.18 C71.612804,42.9625059 71.7866698,42.7000027 71.9,42.41 C72.0227449,42.0910619 72.0838263,41.7517209 72.08,41.41 C72.0828701,41.0683597 72.0218206,40.729196 71.9,40.41 C71.7869449,40.1198546 71.6130427,39.8572965 71.39,39.64 C71.159656,39.4236667 70.8873752,39.2568947 70.59,39.15 C70.269326,39.0335775 69.9311432,38.9727046 69.59,38.97 C69.2487276,38.9713041 68.9103067,39.0322198 68.59,39.15 C68.2923761,39.2563757 68.0199947,39.4232093 67.79,39.64 C67.5664733,39.8568952 67.3924968,40.1195655 67.28,40.41 C67.1577207,40.7290682 67.0966555,41.0683195 67.1,41.41 C67.0956845,41.7517617 67.1567823,42.0911943 67.28,42.41 C67.3927773,42.7002893 67.5667164,42.9629032 67.79,43.18 Z M68.5,40.86 C68.5351732,40.6886256 68.6030809,40.525647 68.7,40.38 C68.7942995,40.2386491 68.9211982,40.1220395 69.07,40.04 C69.2454693,39.9478554 69.4419298,39.9030486 69.64,39.91 C69.8379397,39.9043998 70.0340624,39.9491295 70.21,40.04 C70.3588018,40.1220395 70.4857005,40.2386491 70.58,40.38 C70.6733978,40.5264021 70.7378929,40.689337 70.77,40.86 C70.8092816,41.0407139 70.8293928,41.2250671 70.83,41.41 C70.8291365,41.5916144 70.8090241,41.7726257 70.77,41.95 C70.7369685,42.1203944 70.67254,42.283161 70.58,42.43 C70.4876158,42.5729782 70.3602618,42.6900062 70.21,42.77 C70.0337664,42.860058 69.8378541,42.9047397 69.64,42.9 C69.4420171,42.9060424 69.2457848,42.8612876 69.07,42.77 C68.9197382,42.6900062 68.7923842,42.5729782 68.7,42.43 C68.6039433,42.2838935 68.5361067,42.1210857 68.5,41.95 C68.4614816,41.7725426 68.4413751,41.5915845 68.44,41.41 C68.4443982,41.2247503 68.4678551,41.0404455 68.51,40.86 L68.5,40.86 Z" id="Shape" fill-rule="nonzero"></path>
            <polygon id="Path" points="71.15 37.15 69.67 37.15 68.9 38.53 69.84 38.53"></polygon>
            <path d="M73.9,41.29 C73.8728187,40.9397198 73.9568021,40.5897892 74.14,40.29 C74.3390486,40.0669119 74.6323518,39.9518182 74.93,39.98 C75.1869225,39.9498076 75.4409604,40.0559727 75.6,40.26 C75.7440902,40.5226668 75.810018,40.8210768 75.79,41.12 L75.79,43.74 L77.12,43.74 L77.12,40.87 C77.1223822,40.6045298 77.0955542,40.3396032 77.04,40.08 C76.9931761,39.861421 76.8974474,39.6562881 76.76,39.48 C76.6169253,39.3053084 76.4308159,39.170896 76.22,39.09 C75.9383417,38.9873982 75.6395929,38.93987 75.34,38.95 C75.0570103,38.9513108 74.7775204,39.0126622 74.52,39.13 C74.2456541,39.2557901 74.0156343,39.4614138 73.86,39.72 L73.86,39.07 L72.57,39.07 L72.57,43.72 L73.9,43.72 L73.9,41.29 Z" id="Path"></path>
            <rect id="Rectangle" x="29.71" y="45.07" width="2.21" height="10.05"></rect>
            <polygon id="Path" points="39.72 47.84 37.35 47.84 34.84 50.46 34.84 45.07 32.84 45.07 32.84 55.11 34.84 55.11 34.84 52.61 35.61 51.86 37.61 55.11 40.03 55.11 36.97 50.51"></polygon>
            <path d="M46.65,50.34 C46.5191313,49.8565803 46.2986435,49.4020363 46,49 C45.707569,48.5821252 45.3203365,48.2394416 44.87,48 C44.3671995,47.7503594 43.8112083,47.6268058 43.25,47.64 C42.7313895,47.6350711 42.2173399,47.7372002 41.74,47.94 C40.8495618,48.3137045 40.1517571,49.0368183 39.81,49.94 C39.6277419,50.4258749 39.5362252,50.9410798 39.54,51.46 C39.5384092,51.985245 39.6298198,52.506624 39.81,53 C39.9717567,53.4494876 40.2235635,53.8612257 40.55,54.21 C40.8775595,54.5532757 41.2771457,54.8196665 41.72,54.99 C42.2147889,55.1777736 42.7408626,55.2694122 43.27,55.26 C44.0128999,55.2831402 44.7463457,55.0884816 45.38,54.7 C46.0152907,54.2465443 46.4717087,53.5849152 46.67,52.83 L44.91,52.83 C44.8089348,53.0990728 44.6182279,53.3250957 44.37,53.47 C43.6433569,53.9593157 42.6828413,53.9187876 42,53.37 C41.6848613,52.9851779 41.5244241,52.4967357 41.55,52 L46.8,52 C46.8402887,51.4421942 46.7896279,50.8815483 46.65,50.34 Z M41.54,50.69 C41.5524956,50.5272085 41.5826734,50.3662607 41.63,50.21 C41.6854208,50.023831 41.7771887,49.8504917 41.9,49.7 C42.0392646,49.5315505 42.2132188,49.3951158 42.41,49.3 C42.6571801,49.1855677 42.9277732,49.130764 43.2,49.14 C43.6025837,49.106655 43.9999487,49.2488315 44.29,49.53 C44.5590696,49.860169 44.7320558,50.2580373 44.79,50.68 L41.54,50.69 Z" id="Shape" fill-rule="nonzero"></path>
            <path d="M50.95,47.75 C50.7164213,47.8260319 50.4943574,47.9336992 50.29,48.07 C50.0836557,48.2055122 49.8983431,48.3706089 49.74,48.56 C49.5824688,48.749764 49.4543698,48.9621386 49.36,49.19 L49.36,47.84 L47.46,47.84 L47.46,55.12 L49.46,55.12 L49.46,51.83 C49.4583972,51.5238392 49.4919502,51.2185067 49.56,50.92 C49.6183593,50.6534017 49.7306636,50.401568 49.89,50.18 C50.0484241,49.965042 50.2581289,49.7931528 50.5,49.68 C50.792456,49.5506244 51.1103917,49.4890884 51.43,49.5 L51.81,49.5 L52.15,49.5 L52.15,47.71 C52.0074379,47.6657351 51.8592604,47.6421614 51.71,47.64 C51.4523936,47.6354623 51.1957482,47.6726083 50.95,47.75 Z" id="Path"></path>
            <path d="M59.49,52.88 C59.0814912,53.310977 58.5025926,53.5381397 57.91,53.5 C57.4688298,53.5135586 57.0315579,53.4137091 56.64,53.21 C56.3027012,53.0238545 56.014718,52.75987 55.8,52.44 C55.5802165,52.1108898 55.4210455,51.7451351 55.33,51.36 C55.2302911,50.9576026 55.1799208,50.5445667 55.18,50.13 C55.1795736,49.698924 55.2299204,49.2692979 55.33,48.85 C55.4204276,48.4584386 55.5795565,48.0860091 55.8,47.75 C56.0138222,47.4293612 56.302013,47.1651863 56.64,46.98 C57.0317124,46.7767116 57.4688733,46.6768875 57.91,46.69 C58.1755553,46.6879781 58.4394548,46.7319614 58.69,46.82 C58.9326656,46.9045223 59.1592185,47.0296336 59.36,47.19 C59.553544,47.3479063 59.7191828,47.5372077 59.85,47.75 C59.9811275,47.9633986 60.066276,48.2018145 60.1,48.45 L62.24,48.45 C62.1861985,47.9062435 62.022922,47.3789966 61.76,46.9 C61.5064485,46.4596303 61.166266,46.0752241 60.76,45.77 C60.3647893,45.4605478 59.9178846,45.2235529 59.44,45.07 C58.243725,44.7023671 56.9568031,44.7624706 55.8,45.24 C55.2071692,45.4992284 54.6781588,45.884894 54.25,46.37 C53.8093623,46.858739 53.4695335,47.4296513 53.25,48.05 C53.0509787,48.7244832 52.9664735,49.4275663 53,50.13 C53.0005264,50.8110033 53.1154593,51.4870792 53.34,52.13 C53.5602029,52.7410698 53.9001797,53.3020316 54.34,53.78 C54.7714195,54.2540133 55.3001445,54.6292375 55.89,54.88 C56.5482135,55.155732 57.2564661,55.2919344 57.97,55.28 C58.5485994,55.2857365 59.1238037,55.190997 59.67,55 C60.1587848,54.8361178 60.6106569,54.5779052 61,54.24 C61.3916121,53.8751624 61.7076137,53.4368376 61.93,52.95 C62.1734729,52.4129008 62.3223284,51.8377772 62.37,51.25 L60.19,51.25 C60.1346521,51.8536215 59.8896094,52.4242208 59.49,52.88 Z" id="Path"></path>
            <path d="M69.61,53.5 L69.61,49.71 C69.6296612,49.3346935 69.527979,48.9630276 69.32,48.65 C69.1232866,48.3797961 68.8619942,48.1631984 68.56,48.02 C68.2441575,47.8689631 67.9068246,47.7677632 67.56,47.72 C67.1922583,47.6680422 66.8213918,47.6413131 66.45,47.64 C66.0470281,47.6404601 65.6450834,47.6806546 65.25,47.76 C64.8700284,47.8315096 64.5048822,47.9667489 64.17,48.16 C63.8524455,48.3458561 63.5820907,48.602522 63.38,48.91 C63.149908,49.2584835 63.0185844,49.6628218 63,50.08 L65,50.08 C65.0040193,49.7571403 65.1459602,49.4514216 65.39,49.24 C65.6647101,49.0580714 65.9910975,48.9703328 66.32,48.99 C66.486434,48.9775448 66.653566,48.9775448 66.82,48.99 C66.964476,49.0095369 67.1037479,49.0570932 67.23,49.13 C67.3484373,49.2032156 67.4451167,49.3068006 67.51,49.43 C67.5885841,49.5881805 67.626396,49.7634905 67.62,49.94 C67.641139,50.1167592 67.5738032,50.2925804 67.44,50.41 C67.2808353,50.5324607 67.0963542,50.6178686 66.9,50.66 C66.6468719,50.7221731 66.3895094,50.7656239 66.13,50.79 L65.24,50.9 C64.9401108,50.9471659 64.6430062,51.0105928 64.35,51.09 C64.0677553,51.1632025 63.800424,51.2850243 63.56,51.45 C63.3254122,51.6161172 63.1335072,51.8354372 63,52.09 C62.8460627,52.4003513 62.7705263,52.7436983 62.78,53.09 C62.7671662,53.4333922 62.832118,53.7752438 62.97,54.09 C63.0896551,54.3558434 63.2714214,54.5890529 63.5,54.77 C63.7346342,54.9514721 64.0032564,55.084083 64.29,55.16 C64.6155033,55.2504304 64.9521947,55.2942003 65.29,55.29 C65.7374742,55.2890402 66.1823256,55.2216384 66.61,55.09 C67.0398987,54.9613664 67.4291876,54.723659 67.74,54.4 C67.732981,54.5198974 67.732981,54.6401026 67.74,54.76 C67.7627936,54.8751193 67.7928537,54.9886799 67.83,55.1 L69.83,55.1 C69.7157319,54.8901364 69.6475479,54.6583108 69.63,54.42 C69.6044834,54.1140331 69.5978041,53.8067867 69.61,53.5 Z M67.61,52.3 C67.618866,52.449869 67.618866,52.600131 67.61,52.75 C67.5844541,52.9474251 67.5198658,53.1377905 67.42,53.31 C67.3032109,53.5054407 67.1378559,53.6673509 66.94,53.78 C66.653105,53.9390173 66.3276655,54.0151839 66,54 C65.8469925,54.0141366 65.6930075,54.0141366 65.54,54 C65.4017414,53.9749077 65.2694393,53.9240223 65.15,53.85 C65.035941,53.7789077 64.9427745,53.67884 64.88,53.56 C64.8098331,53.4206251 64.7754664,53.265975 64.78,53.11 C64.7762538,52.9508938 64.810537,52.7931912 64.88,52.65 C64.9429741,52.5316999 65.0318515,52.429149 65.14,52.35 C65.2554845,52.2664118 65.3838387,52.2022346 65.52,52.16 L65.96,52.05 L66.44,51.98 L66.9,51.91 L67.31,51.8 C67.4280177,51.7628928 67.5370031,51.7015886 67.63,51.62 L67.61,52.3 Z" id="Shape" fill-rule="nonzero"></path>
            <path d="M76.43,51.35 C76.1855548,51.1898103 75.919554,51.0652277 75.64,50.98 C75.3466667,50.8866667 75.0433333,50.8066667 74.73,50.74 L73.84,50.56 C73.5800884,50.5106279 73.3230446,50.4472015 73.07,50.37 C72.8715844,50.3146891 72.6851133,50.2231488 72.52,50.1 C72.3826918,49.9961456 72.3043824,49.8320689 72.31,49.66 C72.3032232,49.5291682 72.3460795,49.4005994 72.43,49.3 C72.5103809,49.2123555 72.609512,49.1439893 72.72,49.1 C72.8417601,49.052139 72.9697075,49.0218357 73.1,49.01 L73.49,49.01 C73.8342473,48.9992513 74.1763674,49.0676753 74.49,49.21 C74.8016584,49.348852 75.0017606,49.6588142 75,50 L77,50 C76.9770436,49.6006748 76.84944,49.2144154 76.63,48.88 C76.4297529,48.588647 76.1666065,48.3460055 75.86,48.17 C75.530322,47.9851254 75.1720471,47.8566872 74.8,47.79 C74.3976703,47.7152457 73.9892125,47.6784175 73.58,47.68 C73.1675926,47.6810752 72.7560538,47.7178795 72.35,47.79 C71.9723966,47.8542616 71.6076817,47.9792102 71.27,48.16 C70.9577399,48.3281897 70.6929146,48.5723793 70.5,48.87 C70.287001,49.2081075 70.1759052,49.6004146 70.18,50 C70.170052,50.2846426 70.2430083,50.5660454 70.39,50.81 C70.5326134,51.0333708 70.7240961,51.2214341 70.95,51.36 C71.1964131,51.5116289 71.4621382,51.6293553 71.74,51.71 C72.0333333,51.7966667 72.3366667,51.8733333 72.65,51.94 C73.2528446,52.0494932 73.8475488,52.1998397 74.43,52.39 C74.8566667,52.5433333 75.07,52.77 75.07,53.07 C75.0765547,53.2270119 75.0308332,53.3817618 74.94,53.51 C74.8488852,53.6274426 74.7327348,53.7230959 74.6,53.79 C74.4579012,53.8611566 74.306373,53.911666 74.15,53.94 C73.9936983,53.955124 73.8363017,53.955124 73.68,53.94 C73.4746156,53.9408419 73.2698548,53.9173448 73.07,53.87 C72.8851886,53.8274745 72.7092157,53.7530244 72.55,53.65 C72.3996503,53.5527807 72.2731761,53.4228883 72.18,53.27 C72.0793014,53.1011532 72.0306056,52.9063701 72.04,52.71 L70,52.71 C69.9881783,53.1649539 70.1098524,53.6134099 70.35,54 C70.5632403,54.3201673 70.8472177,54.5870376 71.18,54.78 C71.5368709,54.9839244 71.925703,55.1259326 72.33,55.2 C72.7647772,55.2858066 73.2068369,55.3293428 73.65,55.33 C74.0861069,55.3301803 74.5212952,55.2900091 74.95,55.21 C75.3484526,55.1376063 75.7309921,54.9954235 76.08,54.79 C76.4047833,54.5971653 76.679006,54.3297981 76.88,54.01 C77.0961986,53.6479742 77.2038025,53.2314428 77.19,52.81 C77.1998651,52.5127075 77.127177,52.2184938 76.98,51.96 C76.8444121,51.7182231 76.6564978,51.509809 76.43,51.35 Z" id="Path"></path>
            <rect id="Rectangle" x="77.87" y="47.84" width="2" height="7.28"></rect>
            <rect id="Rectangle" x="77.87" y="45.07" width="2" height="1.65"></rect>
            <rect id="Rectangle" x="80.95" y="45.07" width="2" height="10.05"></rect>
            <rect id="Rectangle" x="84.03" y="45.07" width="2" height="10.05"></rect>
            <path d="M93.44,53.5 L93.44,49.71 C93.4596612,49.3346935 93.357979,48.9630276 93.15,48.65 C92.9532866,48.3797961 92.6919942,48.1631984 92.39,48.02 C92.0741575,47.8689631 91.7368246,47.7677632 91.39,47.72 C91.0222583,47.6680422 90.6513918,47.6413131 90.28,47.64 C89.8770281,47.6404601 89.4750834,47.6806546 89.08,47.76 C88.7000284,47.8315096 88.3348822,47.9667489 88,48.16 C87.6824455,48.3458561 87.4120907,48.602522 87.21,48.91 C86.9904884,49.2615409 86.8695969,49.6656641 86.86,50.08 L88.86,50.08 C88.8640193,49.7571403 89.0059602,49.4514216 89.25,49.24 C89.5247101,49.0580714 89.8510975,48.9703328 90.18,48.99 C90.346434,48.9775448 90.513566,48.9775448 90.68,48.99 C90.824476,49.0095369 90.9637479,49.0570932 91.09,49.13 C91.2084373,49.2032156 91.3051167,49.3068006 91.37,49.43 C91.4485841,49.5881805 91.486396,49.7634905 91.48,49.94 C91.501139,50.1167592 91.4338032,50.2925804 91.3,50.41 C91.1408353,50.5324607 90.9563542,50.6178686 90.76,50.66 C90.5068719,50.7221731 90.2495094,50.7656239 89.99,50.79 L89.1,50.9 C88.8001108,50.9471659 88.5030062,51.0105928 88.21,51.09 C87.9277553,51.1632025 87.660424,51.2850243 87.42,51.45 C87.1854122,51.6161172 86.9935072,51.8354372 86.86,52.09 C86.7060627,52.4003513 86.6305263,52.7436983 86.64,53.09 C86.6271662,53.4333922 86.692118,53.7752438 86.83,54.09 C86.9496551,54.3558434 87.1314214,54.5890529 87.36,54.77 C87.5946342,54.9514721 87.8632564,55.084083 88.15,55.16 C88.4755033,55.2504304 88.8121947,55.2942003 89.15,55.29 C89.5974742,55.2890402 90.0423256,55.2216384 90.47,55.09 C90.8998987,54.9613664 91.2891876,54.723659 91.6,54.4 C91.592981,54.5198974 91.592981,54.6401026 91.6,54.76 C91.6227936,54.8751193 91.6528537,54.9886799 91.69,55.1 L93.69,55.1 C93.5757319,54.8901364 93.5075479,54.6583108 93.49,54.42 C93.4544695,54.11465 93.4377712,53.8074022 93.44,53.5 Z M91.44,52.3 C91.448866,52.449869 91.448866,52.600131 91.44,52.75 C91.4144541,52.9474251 91.3498658,53.1377905 91.25,53.31 C91.1332109,53.5054407 90.9678559,53.6673509 90.77,53.78 C90.4870125,53.9285 90.1690987,53.9976117 89.85,53.98 C89.6969925,53.9941366 89.5430075,53.9941366 89.39,53.98 C89.2517414,53.9549077 89.1194393,53.9040223 89,53.83 C88.885941,53.7589077 88.7927745,53.65884 88.73,53.54 C88.6598331,53.4006251 88.6254664,53.245975 88.63,53.09 C88.6262538,52.9308938 88.660537,52.7731912 88.73,52.63 C88.7929741,52.5116999 88.8818515,52.409149 88.99,52.33 C89.1054845,52.2464118 89.2338387,52.1822346 89.37,52.14 L89.81,52.03 L90.29,51.96 L90.75,51.89 L91.16,51.78 C91.2780177,51.7428928 91.3870031,51.6815886 91.48,51.6 L91.44,52.3 Z" id="Shape" fill-rule="nonzero"></path>
            <path d="M100.83,51.93 C100.687983,51.6980495 100.496826,51.5000658 100.27,51.35 C100.025555,51.1898103 99.759554,51.0652277 99.48,50.98 C99.1866667,50.8866667 98.8833333,50.8066667 98.57,50.74 L97.68,50.56 C97.4200884,50.5106279 97.1630446,50.4472015 96.91,50.37 C96.7115844,50.3146891 96.5251133,50.2231488 96.36,50.1 C96.2226918,49.9961456 96.1443824,49.8320689 96.15,49.66 C96.1432232,49.5291682 96.1860795,49.4005994 96.27,49.3 C96.3503809,49.2123555 96.449512,49.1439893 96.56,49.1 C96.6817601,49.052139 96.8097075,49.0218357 96.94,49.01 L97.33,49.01 C97.6742473,48.9992513 98.0163674,49.0676753 98.33,49.21 C98.6227647,49.3589127 98.8051411,49.6615799 98.8,49.99 L100.8,49.99 C100.777044,49.5906748 100.64944,49.2044154 100.43,48.87 C100.229753,48.578647 99.9666065,48.3360055 99.66,48.16 C99.330322,47.9751254 98.9720471,47.8466872 98.6,47.78 C98.1976703,47.7052457 97.7892125,47.6684175 97.38,47.67 C96.9675926,47.6710752 96.5560538,47.7078795 96.15,47.78 C95.7723966,47.8442616 95.4076817,47.9692102 95.07,48.15 C94.7577399,48.3181897 94.4929146,48.5623793 94.3,48.86 C94.0921593,49.2031194 93.9879746,49.5990211 94,50 C93.990052,50.2846426 94.0630083,50.5660454 94.21,50.81 C94.3526134,51.0333708 94.5440961,51.2214341 94.77,51.36 C95.0164131,51.5116289 95.2821382,51.6293553 95.56,51.71 C95.8533333,51.7966667 96.1566667,51.8733333 96.47,51.94 C97.0728446,52.0494932 97.6675488,52.1998397 98.25,52.39 C98.6766667,52.5433333 98.89,52.77 98.89,53.07 C98.8965547,53.2270119 98.8508332,53.3817618 98.76,53.51 C98.6688852,53.6274426 98.5527348,53.7230959 98.42,53.79 C98.2779012,53.8611566 98.126373,53.911666 97.97,53.94 C97.8136983,53.955124 97.6563017,53.955124 97.5,53.94 C97.2946156,53.9408419 97.0898548,53.9173448 96.89,53.87 C96.7051886,53.8274745 96.5292157,53.7530244 96.37,53.65 C96.2196503,53.5527807 96.0931761,53.4228883 96,53.27 C95.8993014,53.1011532 95.8506056,52.9063701 95.86,52.71 L93.86,52.71 C93.8421748,53.1629457 93.9568586,53.6112551 94.19,54 C94.4032403,54.3201673 94.6872177,54.5870376 95.02,54.78 C95.3768709,54.9839244 95.765703,55.1259326 96.17,55.2 C96.6047772,55.2858066 97.0468369,55.3293428 97.49,55.33 C97.9261069,55.3301803 98.3612952,55.2900091 98.79,55.21 C99.1884526,55.1376063 99.5709921,54.9954235 99.92,54.79 C100.244783,54.5971653 100.519006,54.3297981 100.72,54.01 C100.936199,53.6479742 101.043803,53.2314428 101.03,52.81 C101.048587,52.5035986 100.979194,52.1982692 100.83,51.93 Z" id="Path"></path>
            <circle id="Oval" cx="43.6" cy="3.09" r="2.85"></circle>
        </g>
    </g>
</svg>