<?xml version="1.0" encoding="UTF-8"?>
<svg width="100px" height="20px" viewBox="0 0 100 20" version="1.1" xmlns="http://www.w3.org/2000/svg" xmlns:xlink="http://www.w3.org/1999/xlink">
    <!-- Generator: Sketch 52.5 (67469) - http://www.bohemiancoding.com/sketch -->
    <title>allic</title>
    <desc>Created with Sketch.</desc>
    <g id="Page-1" stroke="none" stroke-width="1" fill="none" fill-rule="evenodd">
        <g id="Artboard" transform="translate(-22.000000, -39.000000)" fill="#FFFFFF">
            <g id="allic" transform="translate(22.000000, 39.000000)">
                <path d="M81.47,4.52 L77.47,0.88 L77.47,6.23 L81.47,10.31 L85.47,6.23 L85.47,0.88 L81.47,4.52 Z M78.25,2.52 L80.46,4.63 L78.25,4.63 L78.25,2.52 Z M81.47,9.44 L80.47,8.44 L82.47,8.44 L81.47,9.44 Z M84.68,4.63 L82.47,4.63 L84.68,2.52 L84.68,4.63 Z" id="Shape" fill-rule="nonzero"></path>
                <polygon id="Path" points="2.36 5.91 0.17 5.91 0.17 19.01 8.91 19.01 8.91 16.82 2.36 16.82"></polygon>
                <path d="M32.6,12.19 C32.81,12.1 32.95,12.02 33.04,11.98 C33.1992669,11.8832294 33.3498322,11.7728149 33.49,11.65 C34.1319313,11.0732446 34.4683859,10.2302593 34.4,9.37 C34.4036526,8.53063713 34.1055358,7.71791387 33.56,7.08 C33.1989488,6.67786972 32.7359751,6.38073732 32.22,6.22 C31.5255827,5.99772138 30.7989255,5.89294754 30.07,5.91 L25.3,5.91 L25.3,19 L30.67,19 C31.972155,19.1351095 33.2675652,18.6886687 34.21,17.78 C34.7877202,17.1110413 35.1007277,16.2538276 35.09,15.37 C35.1540691,13.8442715 34.0974863,12.499144 32.6,12.2 L32.6,12.19 Z M27.37,8 L30,8 C30.589576,7.95173289 31.1789404,8.09556585 31.68,8.41 C32.0723719,8.74348635 32.2776132,9.24726048 32.23,9.76 C32.23,10.84 31.48,11.38 29.98,11.38 L27.37,11.38 L27.37,8 Z M32.37,16.62 C31.8321318,16.9036013 31.2270482,17.0349909 30.62,17 L27.37,17 L27.37,13.37 L30.37,13.37 C32.11,13.37 32.99,13.95 32.99,15.11 C33.0517493,15.673651 32.8124457,16.2282277 32.36,16.57 L32.37,16.62 Z" id="Shape" fill-rule="nonzero"></path>
                <path d="M43.3,5.24 C41.4308174,5.19960689 39.6256887,5.92165836 38.3,7.24 C36.9870909,8.55277518 36.2494949,10.3333608 36.2494949,12.19 C36.2494949,14.0466392 36.9870909,15.8272248 38.3,17.14 C41.1280754,19.7943284 45.5319246,19.7943284 48.36,17.14 C51.0667198,14.3950252 51.0667198,9.98497485 48.36,7.24 C47.018473,5.90840242 45.1894103,5.18545272 43.3,5.24 Z M46.67,15.63 C45.7836906,16.537731 44.5686686,17.0495289 43.3,17.0495289 C42.0313314,17.0495289 40.8163094,16.537731 39.93,15.63 C38.0887291,13.6985085 38.0887291,10.6614915 39.93,8.73 C40.8163094,7.82226898 42.0313314,7.31047109 43.3,7.31047109 C44.5686686,7.31047109 45.7836906,7.82226898 46.67,8.73 C48.5112709,10.6614915 48.5112709,13.6985085 46.67,15.63 Z" id="Shape" fill-rule="nonzero"></path>
                <path d="M61.84,10.21 C61.9497163,8.9708033 61.4766202,7.75110254 60.56,6.91 C59.2833483,6.12999668 57.7903769,5.77953393 56.3,5.91 L51.46,5.91 L51.46,19 L53.66,19 L53.66,14.62 L56.54,14.62 L59.65,19 L62.44,19 L59,14.26 C60.8237889,13.8065577 62.0351013,12.0791579 61.84,10.21 Z M56.39,12.62 L53.66,12.62 L53.66,8 L56.45,8 C57.2955638,7.92627 58.1447712,8.09264532 58.9,8.48 C59.407096,8.91201483 59.6658032,9.56815634 59.59,10.23 C59.6535895,10.9157078 59.4079267,11.5940305 58.92,12.08 C58.1597617,12.5352709 57.2698664,12.725209 56.39,12.62 Z" id="Shape" fill-rule="nonzero"></path>
                <polygon id="Path" points="64.64 18.99 66.84 18.99 66.84 13.63 72.3 13.63 72.3 11.6 66.84 11.6 66.84 8.09 73.3 8.09 73.32 5.89 64.64 5.89"></polygon>
                <polygon id="Path" points="95.32 12.27 99.52 5.91 96.77 5.91 93.83 10.32 93.74 10.32 90.8 5.91 88.06 5.91 92.25 12.27 87.74 18.99 90.5 18.99 93.74 14.07 93.83 14.07 97.07 18.99 99.83 18.99"></polygon>
                <polygon id="Path" points="18.23 5.88 15.99 5.88 15.84 5.88 10 19.01 12.39 19.01 17.11 8.41 21.83 19.01 24.22 19.01 18.38 5.88"></polygon>
                <path d="M86.79,7.51 L76.91,16.79 L80.82,11.89 L76.16,7.53 C73.7347392,10.314679 73.8610738,14.4967912 76.45,17.13 C79.2780754,19.7843284 83.6819246,19.7843284 86.51,17.13 C89.1424788,14.5061906 89.2654142,10.2824799 86.79,7.51 Z" id="Path"></path>
            </g>
        </g>
    </g>
</svg>