<svg xmlns="http://www.w3.org/2000/svg" viewBox="0 0 398.31 194.15"><defs><style>.cls-1{fill:#fff;}</style></defs><title>Logo-latterpay</title><g id="Capa_2" data-name="Capa 2"><g id="Capa_1-2" data-name="Capa 1"><path class="cls-1" d="M384.39,178.22a6.88,6.88,0,0,1,7.11,0,7.06,7.06,0,0,1,2.5,2.62,7.17,7.17,0,0,1,.9,3.54,7.33,7.33,0,0,1-.9,3.56,7,7,0,0,1-2.51,2.64,6.81,6.81,0,0,1-6.31.4,6.87,6.87,0,0,1-2.21-1.57,7.41,7.41,0,0,1-1.44-2.29,7.43,7.43,0,0,1,.36-6.28A6.83,6.83,0,0,1,384.39,178.22Zm-.3,10.29a5.49,5.49,0,0,0,7.71,0,5.7,5.7,0,0,0,1.54-4.12,6.12,6.12,0,0,0-.72-3,4.81,4.81,0,0,0-1.94-2,5.59,5.59,0,0,0-2.74-.67,5.19,5.19,0,0,0-3.85,1.55,5.51,5.51,0,0,0-1.55,4.1A5.63,5.63,0,0,0,384.09,188.51ZM390.6,183a2,2,0,0,1-1.74,2.08l1.12,1.82a.6.6,0,0,1,.09.64.63.63,0,0,1-.59.26c-.07,0-.2-.17-.4-.5l-1.28-2.08h-1V187a.88.88,0,0,1-.09.41.64.64,0,0,1-.24.25.73.73,0,0,1-.33.08.33.33,0,0,1-.31-.16,1.31,1.31,0,0,1-.09-.58v-5.5a.65.65,0,0,1,.74-.74h1.34a3.28,3.28,0,0,1,2.11.58A2,2,0,0,1,390.6,183Zm-2.68,1.34A1.62,1.62,0,0,0,389,184a1.26,1.26,0,0,0,.39-1,1.21,1.21,0,0,0-.39-1,1.62,1.62,0,0,0-1.11-.34h-1.16v2.64Z"/><path class="cls-1" d="M6.63,92.24a4,4,0,0,1,2.15-.14,2.39,2.39,0,0,1,1.44,1.05,3.7,3.7,0,0,1,.53,2.07v68.26a4.39,4.39,0,0,1-2.49,4.12l-1.06.58a7.88,7.88,0,0,1-3.93,1.15,3.32,3.32,0,0,1-2.45-.81A3.77,3.77,0,0,1,0,165.78V97.52a4,4,0,0,1,3-4Zm57.5,32.35q3.65,0,3.55,3.65v39.65a1.47,1.47,0,0,1-1.44,1.44h-2.3a7.65,7.65,0,0,1-6-3.93,23.4,23.4,0,0,1-14.49,4.8q-10.47,0-16.8-6.82a23.41,23.41,0,0,1-6.34-16.51A24.58,24.58,0,0,1,23,135.54a21.41,21.41,0,0,1,8-8.5,23,23,0,0,1,12.43-3.31q8.73,0,13.63,5.38V126.9c0-1.54,1.19-2.31,3.56-2.31ZM44.26,161.07a16.4,16.4,0,0,0,4.31-.57,14.66,14.66,0,0,0,4.28-2,9.81,9.81,0,0,0,3.45-4.36,17.32,17.32,0,0,0,1.3-7.06,20,20,0,0,0-.62-5.18,10.81,10.81,0,0,0-1.78-3.8,15,15,0,0,0-2.49-2.54,10.17,10.17,0,0,0-3-1.63,18.55,18.55,0,0,0-3-.82,15.29,15.29,0,0,0-2.69-.24,12.51,12.51,0,0,0-7,2A12.22,12.22,0,0,0,32.59,140a16.49,16.49,0,0,0-1.49,7.1,14.64,14.64,0,0,0,3.51,10Q38.1,161.07,44.26,161.07Zm59-35q3.55,0,3.56,3.64v1.92q0,3.56-3.56,3.56H96.38v30.62q0,3.56-3.55,3.55H89.28q-3.56,0-3.56-3.55V135.16H80.83q-3.56,0-3.55-3.56v-1.92q0-3.65,3.55-3.64h4.89V111.83a4,4,0,0,1,2.88-4l3.65-1.24a3.25,3.25,0,0,1,3,.24,3.1,3.1,0,0,1,1.15,2.73V126Zm34.37,0q3.56,0,3.56,3.64v1.92q0,3.56-3.56,3.56h-6.91v30.62q0,3.56-3.55,3.55h-3.55q-3.56,0-3.56-3.55V135.16H115.2q-3.56,0-3.55-3.56v-1.92q0-3.65,3.55-3.64h4.89V111.83a4,4,0,0,1,2.88-4l3.65-1.24a3.25,3.25,0,0,1,3,.24,3.1,3.1,0,0,1,1.15,2.73V126Zm33.22,36.67a18.62,18.62,0,0,0,11-3.17q3-2.21,5,.19l.57.67c1.6,1.86,1.51,3.52-.29,5a18.72,18.72,0,0,1-7.2,3.4,35.91,35.91,0,0,1-9.89,1.4q-11,0-17.51-6.77A23.13,23.13,0,0,1,146,146.77a23.53,23.53,0,0,1,6-16.27q6-6.77,16.5-6.77a24.39,24.39,0,0,1,8,1.29,19.59,19.59,0,0,1,6.24,3.46,22.91,22.91,0,0,1,4.37,5,21.79,21.79,0,0,1,2.69,5.71,21,21,0,0,1,.86,5.9,7.38,7.38,0,0,1-.33,2.45,2.54,2.54,0,0,1-1.06,1.34,4.25,4.25,0,0,1-2.16.44H156.77a18.36,18.36,0,0,0,1.44,5.95,12.18,12.18,0,0,0,3,4.22,12,12,0,0,0,4.27,2.45A17,17,0,0,0,170.88,162.71Zm-1.73-31.3a13.18,13.18,0,0,0-3.26.39,10.7,10.7,0,0,0-2.74,1,10.41,10.41,0,0,0-2.21,1.68,13.29,13.29,0,0,0-3.07,4.85,17.68,17.68,0,0,0-.81,3.17h23.23a16.87,16.87,0,0,0-3.51-8.21C175.09,132.39,172.54,131.41,169.15,131.41ZM223.68,124a17,17,0,0,1,5.57,1,11,11,0,0,1,4.22,2.4c1.79,1.66,1.79,3.33,0,5l-2.4,2.3a6.16,6.16,0,0,1-1.1.77,2.72,2.72,0,0,1-1,.34,2.54,2.54,0,0,1-1-.1,4.09,4.09,0,0,1-1-.38c-.29-.16-.63-.37-1-.63a9.26,9.26,0,0,0-5.38-1.82,8.33,8.33,0,0,0-6.86,3.36q-2.64,3.36-2.64,10.46l-.1,19.11q0,3.56-3.64,3.55H203.9q-3.56,0-3.55-3.55V128.24q0-3.65,3.55-3.65h3.56q3.64,0,3.64,3.65v1.44Q217,124,223.68,124Zm39.93-.29A23.09,23.09,0,0,1,280,130.16q6.87,6.43,6.87,16.61A22.06,22.06,0,0,1,280,163.48,23.79,23.79,0,0,1,250.37,166v22.66a4,4,0,0,1-3,4l-3.65,1.25a4.92,4.92,0,0,1-1.68.24,2.61,2.61,0,0,1-1.29-.43,2.32,2.32,0,0,1-.87-1.11,4.54,4.54,0,0,1-.29-1.68V126a1.51,1.51,0,0,1,.44-1.11,1.46,1.46,0,0,1,1.1-.43h1.35a7.37,7.37,0,0,1,6.71,3.84A24.43,24.43,0,0,1,263.61,123.73Zm-1.05,37.15a13.17,13.17,0,0,0,9.7-3.84q3.83-3.84,3.83-10.37a15.85,15.85,0,0,0-1-5.9,12.25,12.25,0,0,0-2.88-4.37,12.57,12.57,0,0,0-4.27-2.64,16.08,16.08,0,0,0-11.76.43,11.08,11.08,0,0,0-4.8,4.56,15.14,15.14,0,0,0-1.93,7.92q0,7.11,3.8,10.66A13.17,13.17,0,0,0,262.56,160.88Zm77.66-36.29c2.43,0,3.62,1.22,3.55,3.65v39.65a1.37,1.37,0,0,1-.43,1,1.41,1.41,0,0,1-1,.43H340a7.62,7.62,0,0,1-5.95-3.93,23.45,23.45,0,0,1-14.5,4.8q-10.45,0-16.8-6.82a23.4,23.4,0,0,1-6.33-16.51,24.45,24.45,0,0,1,2.64-11.33,21.27,21.27,0,0,1,8-8.5,23,23,0,0,1,12.43-3.31q8.73,0,13.63,5.38V126.9c0-1.54,1.18-2.31,3.55-2.31Zm-19.87,36.48a16.53,16.53,0,0,0,4.32-.57,14.73,14.73,0,0,0,4.27-2,9.89,9.89,0,0,0,3.46-4.36,17.49,17.49,0,0,0,1.29-7.06,19.62,19.62,0,0,0-.62-5.18,10.81,10.81,0,0,0-1.78-3.8,14.65,14.65,0,0,0-2.49-2.54,10.17,10.17,0,0,0-3-1.63,18.74,18.74,0,0,0-3-.82,15.37,15.37,0,0,0-2.69-.24,12.46,12.46,0,0,0-7,2,12.16,12.16,0,0,0-4.51,5.14,16.35,16.35,0,0,0-1.49,7.1,14.63,14.63,0,0,0,3.5,10Q314.21,161.07,320.35,161.07Zm67.2-33.78a4.25,4.25,0,0,1,4.13-2.7h3.55A2.91,2.91,0,0,1,398,125.8a3.21,3.21,0,0,1,0,3L371.42,189a4.26,4.26,0,0,1-4.13,2.69h-3.55a3,3,0,0,1-2.69-1.15,3.11,3.11,0,0,1,.1-3.07l9-20.64-16.42-38a3.14,3.14,0,0,1,0-3,3,3,0,0,1,2.78-1.21H361a4,4,0,0,1,4,2.79l10.65,27.07Z"/><path class="cls-1" d="M201.76,11V70.17a5.68,5.68,0,0,1-3.68,4.93l-9.65,3.29c-2,.68-3.67-.41-3.67-2.43V16.81a5.64,5.64,0,0,1,3.67-4.92l9.65-3.29C200.1,7.91,201.76,9,201.76,11Zm20,14.08L210.64,11.71s-.6-.68-.83-.89a2.81,2.81,0,0,0-1.95-.69,3,3,0,0,0-3.1,2.91v55.9c0,2,1.65,3.11,3.67,2.42l9.66-3.29a5.65,5.65,0,0,0,3.67-4.92v-38Z"/><path class="cls-1" d="M225.31,2.25c4.12,4.66,15.9,19.15,15.9,19.15a3.7,3.7,0,0,1,1.06,3,1.1,1.1,0,0,1-.7.81l-10.91,4.5a2.31,2.31,0,0,1-.82.14,6.26,6.26,0,0,1-4.34-2.35l-3.18-3.83L211.2,10.22c-.07-.08-.64-.72-.88-1A3.38,3.38,0,0,0,209,8.54l-.3-.08-.11,0a3.86,3.86,0,0,0-.77-.09,3.29,3.29,0,0,0-3,1.79l0,0V9.77a5,5,0,0,1,1.2-3.24,8.31,8.31,0,0,1,2.72-2c3.19-1.23,11.25-4,12.58-4.44a2.74,2.74,0,0,1,.81-.12,2.55,2.55,0,0,1,1.73.62C224.19,1,224.94,1.83,225.31,2.25Z"/><path class="cls-1" d="M183,75V50.38l-.2-.24a6.26,6.26,0,0,0-4.34-2.35,2.31,2.31,0,0,0-.82.14l-10.9,4.5a1.1,1.1,0,0,0-.7.81,3.7,3.7,0,0,0,1.06,2.95S178.89,70.68,183,75.34l0,0C183,75.24,183,75.11,183,75Z"/></g></g></svg>