<?xml version="1.0" encoding="UTF-8"?>
<svg width="235px" height="57px" viewBox="0 0 235 57" version="1.1" xmlns="http://www.w3.org/2000/svg" xmlns:xlink="http://www.w3.org/1999/xlink">
    <!-- Generator: Sketch 60.1 (88133) - https://sketch.com -->
    <title>Combined Shape</title>
    <desc>Created with Sketch.</desc>
    <g id="web" stroke="none" stroke-width="1" fill="none" fill-rule="evenodd">
        <path d="M50.9803805,30.8959129 L51.1355675,30.9014521 C52.2131236,30.9785149 53.0959515,31.8494374 53.0959515,32.8716217 L53.0959515,32.8716217 L53.0959515,52.1045289 L53.0909316,52.3066117 C52.9775672,54.5838272 50.9584561,56.4037781 48.4921292,56.4037781 L48.4921292,56.4037781 L15.1786646,56.4037781 L14.9622696,56.3990897 C12.5237711,56.2932126 10.5748423,54.4074636 10.5748423,52.1045289 L10.5748423,52.1045289 L10.5748423,32.8716217 L10.5807736,32.7266937 C10.6632934,31.7203725 11.5958993,30.8959129 12.6910158,30.8959129 L12.6910158,30.8959129 L12.8461635,30.9014521 C13.9234576,30.9785149 14.8062855,31.8494374 14.8062855,32.8716217 L14.8062855,32.8716217 L14.8062855,52.3879023 L48.8648095,52.3879023 L48.8648095,32.8716217 C48.8648095,31.800762 49.8334169,30.8959129 50.9803805,30.8959129 L50.9803805,30.8959129 Z M113.336429,19.0460997 C114.115232,19.0460997 114.747011,19.6833858 114.747011,20.4696559 L114.747011,20.4696559 L114.74775,34.4901274 C114.781124,38.7442835 115.969865,45.6421553 123.315344,45.6421553 C130.770458,45.6421553 131.883979,38.5368403 131.883979,34.3014413 L131.883979,20.4696559 C131.883979,19.6833858 132.515156,19.0460997 133.29426,19.0460997 L133.29426,19.0460997 L135.242019,19.0460997 C136.020822,19.0460997 136.652601,19.6833858 136.652601,20.4696559 L136.652601,20.4696559 L136.652601,48.1332267 C136.652601,48.9191926 136.020822,49.5567829 135.242019,49.5567829 L135.242019,49.5567829 L133.29426,49.5567829 C132.515156,49.5567829 131.883979,48.9191926 131.883979,48.1332267 L131.883979,48.1332267 L131.883979,46.7689599 C131.883979,46.7194 131.825833,46.6950761 131.791789,46.7303458 C130.03293,48.5515977 127.284978,50.1177528 123.037567,50.1177528 C115.104627,50.1177528 109.978691,44.1298169 109.978691,34.8627153 L109.978691,34.8627153 L109.978691,20.4696559 C109.978691,19.6833858 110.609867,19.0460997 111.388971,19.0460997 L111.388971,19.0460997 Z M157.255014,18.4851298 C166.426205,18.4851298 169.952357,25.6886526 170.097874,25.9951337 C170.358479,26.5448538 170.233449,27.219538 169.744174,27.6373009 C169.485979,27.8577363 169.145235,27.9547278 168.807201,27.9547278 L168.807201,27.9547278 L166.567504,27.9547278 C166.069191,27.9547278 165.610646,27.6786516 165.374143,27.2359566 C165.281952,27.0678176 162.960308,22.9610313 157.255014,22.9610313 C151.260796,22.9610313 147.074243,27.6245309 147.074243,34.3014413 C147.074243,40.9786557 151.260796,45.6421553 157.255014,45.6421553 C162.960308,45.6421553 165.281952,41.5350649 165.37806,41.3602369 C165.616973,40.9251431 166.074614,40.6481547 166.567504,40.6481547 L166.567504,40.6481547 L168.807201,40.6481547 C169.145235,40.6481547 169.485979,40.7448422 169.744174,40.9655816 C170.233449,41.3833446 170.358479,42.0580287 170.097874,42.6074448 C169.952357,42.91423 166.426205,50.1177528 157.255014,50.1177528 C148.592682,50.1177528 142.305622,43.4660785 142.305622,34.3014413 C142.305622,25.1368041 148.592682,18.4851298 157.255014,18.4851298 Z M188.74822,18.4853426 C193.753043,18.4853426 197.072218,20.808275 199.113976,23.0612762 C199.14097,23.0909513 199.184354,23.0813191 199.200628,23.0504374 L199.207071,23.0235741 L199.207071,20.4695647 C199.207071,19.729832 199.766442,19.1215325 200.481543,19.0525275 L200.617351,19.0460085 L202.56511,19.0460085 C203.298101,19.0460085 203.900856,19.6107943 203.969232,20.3325046 L203.975692,20.4695647 L203.975692,48.1331354 C203.975692,48.8731543 203.416054,49.4812013 202.700921,49.5501756 L202.56511,49.5566916 L200.617351,49.5566916 C199.88436,49.5566916 199.281872,48.9921752 199.213527,48.270243 L199.207071,48.1331354 L199.207071,45.5937203 C199.207071,45.5435523 199.14802,45.5192284 199.113976,45.5563223 C197.072519,47.8020264 193.753043,50.1179656 188.74822,50.1179656 C184.533046,50.1179656 180.670065,48.5229259 177.870895,45.6265576 C175.0657,42.7238043 173.520749,38.7021516 173.520749,34.3013501 C173.520749,29.9008526 175.0657,25.8788959 177.870895,22.9764466 C180.670065,20.0803823 184.533046,18.4853426 188.74822,18.4853426 Z M221.658937,18.4851906 C231.556809,18.4851906 233.149964,25.2180459 233.212931,25.5047639 C233.347,26.117118 233.054158,26.772039 232.430212,27.0593651 C232.251856,27.1417623 232.053013,27.1691267 231.857182,27.1691267 L231.857182,27.1691267 L229.831995,27.1691267 C229.230343,27.1691267 228.700396,26.7686945 228.531078,26.1858331 C228.494322,26.0754634 227.403698,22.9610921 221.658937,22.9610921 C217.167793,22.9610921 214.591869,24.507484 214.591869,27.2037882 C214.591869,28.8274085 215.472504,30.4634948 221.860793,31.4334103 C228.350312,32.4148796 234.356882,34.2364357 234.356882,40.8662185 C234.356882,46.5729093 229.49125,50.1178136 221.658937,50.1178136 C211.050954,50.1178136 209.188155,43.152665 209.11374,42.8559134 C208.979069,42.3180512 209.178213,41.7379262 209.650014,41.399824 C209.892843,41.2262122 210.192615,41.1532405 210.490578,41.1532405 L210.490578,41.1532405 L212.485337,41.1532405 C213.039687,41.1532405 213.538302,41.4937751 213.744074,42.0133944 C213.801016,42.1456556 215.368262,45.6419121 221.658937,45.6419121 C228.815484,45.6419121 229.58796,42.3022407 229.58796,40.8662185 L229.587409,40.7715538 C229.565186,38.9093212 228.837171,37.0231083 221.477869,36.022418 C218.594342,35.6277627 209.823248,34.4273783 209.823248,27.2037882 C209.823248,25.1584524 210.676768,18.4851906 221.658937,18.4851906 Z M81.3985979,6.58998284 C82.1774004,6.58998284 82.8091795,7.22726901 82.8091795,8.013235 L82.8091795,8.013235 L82.8091795,44.6888105 C82.8091795,44.7192153 82.8335829,44.7441473 82.864012,44.7441473 L82.864012,44.7441473 L103.721156,44.7441473 C104.499958,44.7441473 105.131737,45.3814335 105.131737,46.1677036 L105.131737,46.1677036 L105.131737,48.1330746 C105.131737,48.9193447 104.499958,49.5566308 103.721156,49.5566308 L103.721156,49.5566308 L79.2284957,49.5566308 C78.4493919,49.5566308 77.8179142,48.9193447 77.8179142,48.1330746 L77.8179142,48.1330746 L77.8179142,8.013235 C77.8179142,7.22726901 78.4493919,6.58998284 79.2284957,6.58998284 L79.2284957,6.58998284 Z M188.74822,22.9609401 C182.688022,22.9609401 178.28937,27.7302486 178.28937,34.3013501 C178.28937,40.8724515 182.688022,45.6420641 188.74822,45.6420641 C194.808418,45.6420641 199.207071,40.8724515 199.207071,34.3013501 C199.207071,27.7302486 194.808418,22.9609401 188.74822,22.9609401 Z M31.8688387,20.6433893 L32.0994546,20.6474994 C35.4673805,20.7677214 38.1851462,23.5104792 38.3042726,26.9091054 L38.3083452,27.1418231 L38.3022258,27.4105826 C38.2250867,29.1050984 37.4216522,30.7383719 36.0623131,31.96604 L35.8306386,32.1668367 L35.5591875,32.3924408 L38.6572246,40.5816897 L38.658731,40.5841221 L38.7056865,40.734705 C38.7223656,40.8028269 38.7334322,40.8724704 38.7387823,40.9433417 L38.7425071,41.0505328 L38.7353872,41.1810863 C38.6720905,41.7821297 38.1948216,42.2612361 37.598242,42.3224457 L37.4686847,42.3290578 L26.2732106,42.3290578 L26.1159772,42.3197674 C26.0473306,42.3114793 25.9801717,42.2976056 25.9138659,42.2779864 L25.8149675,42.2442282 L25.6956142,42.1906262 C25.1571541,41.9150019 24.8820565,41.2917679 25.040668,40.7046741 L25.0813566,40.5795613 L28.1778874,32.3924408 L27.9064363,32.1668367 L27.6861474,31.9763025 C26.2483433,30.683074 25.4296335,28.9365794 25.4296335,27.1418231 C25.4296335,23.5586087 28.3179814,20.6433893 31.8688387,20.6433893 Z M31.8688387,23.2153377 L31.6689209,23.2204573 C29.6822855,23.3224357 28.0842446,24.9354347 27.9832125,26.9400932 L27.9781403,27.1418231 L27.9841266,27.3339743 C28.0633671,28.615731 28.9217472,29.9644718 30.1090465,30.6714469 L30.2991826,30.777638 L30.4091007,30.8414687 C30.8645113,31.1374998 31.0833289,31.698163 30.9528476,32.2277274 L30.912885,32.3592995 L28.1236574,39.7568054 L35.6143213,39.7568054 L32.8293116,32.3705493 L32.791323,32.2468444 C32.6551117,31.7110653 32.8705249,31.1454363 33.3260127,30.8437438 L33.4448216,30.7739894 L33.625466,30.6733864 C34.8108077,29.9714874 35.6705431,28.6252964 35.7535533,27.3435631 L35.7601396,27.1418231 L35.7550658,26.9400932 C35.6506305,24.8686128 33.9471925,23.2153377 31.8688387,23.2153377 Z M31.8356982,0.304048742 C32.7024737,0.304048742 33.5258653,0.626644458 34.1537277,1.21315448 L34.1537277,1.21315448 L63.0118998,28.0965362 L63.0311815,28.1229884 L63.0797207,28.190262 C63.1156732,28.2385269 63.1591241,28.2926476 63.2119481,28.3467683 L63.2119481,28.3467683 L63.3231745,28.4807997 C64.1198396,29.5088431 63.6423858,30.5412147 62.9612852,31.1315507 L62.9612852,31.1315507 L62.8519933,31.221507 C62.0313148,31.8624517 60.7977979,32.0804472 59.7900376,31.1631718 L59.7900376,31.1631718 L36.6829528,9.58604874 L36.5336368,9.45212952 C36.3816376,9.31232886 36.2215462,9.15589578 36.0529814,8.9919375 L36.0529814,8.9919375 L35.9042003,8.84736838 C34.8951479,7.86936955 33.5423638,6.63221521 31.8356982,6.63221521 L31.8356982,6.63221521 L31.5713085,6.64046376 C29.83594,6.74945117 28.6384403,7.91851513 27.5759348,8.9557557 L27.5759348,8.9557557 L27.3053876,9.21936596 L27.3053876,9.21936596 L27.0321288,9.47932763 L3.95005005,31.1631718 L3.8107137,31.2848868 C2.77991706,32.1264988 1.56069634,31.8576588 0.780308873,31.189624 L0.780308873,31.189624 L0.66580982,31.0854111 C0.292064938,30.7242762 0.00410833032,30.2282495 -1.3500312e-13,29.6781977 L-1.3500312e-13,29.6781977 L-1.3500312e-13,29.6541779 L0.00676655342,29.5189975 C0.0404567406,29.1559809 0.201554686,28.7735851 0.54380599,28.3935918 L0.54380599,28.3935918 L0.611894718,28.3157553 L0.660400405,28.2254528 L29.5182712,1.21254638 L29.6790206,1.07159076 C30.2828111,0.575118753 31.0411539,0.304048742 31.8356982,0.304048742 Z" id="Combined-Shape" fill="#FFFFFF"></path>
    </g>
</svg>