<?xml version="1.0" encoding="UTF-8"?>
<svg width="212px" height="22px" viewBox="0 0 212 22" version="1.1" xmlns="http://www.w3.org/2000/svg" xmlns:xlink="http://www.w3.org/1999/xlink">
    <!-- Generator: Sketch 60.1 (88133) - https://sketch.com -->
    <title>Combined Shape</title>
    <desc>Created with Sketch.</desc>
    <g id="WEB" stroke="none" stroke-width="1" fill="none" fill-rule="evenodd">
        <g id="vectormatelier" fill="#FFFFFF" fill-rule="nonzero">
            <path d="M205.463199,0.439806895 L205.776222,0.442760137 C206.610215,0.470124233 207.436437,0.656147745 208.209391,0.993030619 C210.560666,2.03112106 211.90491,3.7810947 211.928385,6.17865356 C211.950668,8.5803955 210.629712,10.3736802 208.31627,11.3387535 L208.178339,11.3881461 C207.994533,11.4430274 208.031796,11.3884454 208.150179,11.6404282 L208.78021,13.1546361 C209.063303,13.8467591 209.36184,14.5896213 209.735394,15.5293691 L211.384456,19.6919939 L211.431213,19.7850803 C211.675337,20.2613524 211.756941,20.6178866 211.554852,21.0650102 L211.485593,21.2020752 L211.239748,21.6439079 L210.737964,21.5817148 C210.10825,21.5036658 209.798875,21.1568511 209.633786,20.6258545 L209.544178,20.2942342 C208.436838,17.573424 207.349186,14.8454097 206.28041,12.1081047 L206.237088,11.9933295 C206.190912,11.8773636 206.169426,11.8973205 205.912687,11.9050281 C203.458382,11.9818967 200.903612,11.99831 198.154124,11.9614454 C197.825236,11.9571016 197.955629,11.8239477 197.961407,12.1558686 L197.98103,13.8580627 C197.984263,14.374448 197.985493,14.9339221 197.985187,15.6038582 L197.977054,19.8638109 C197.976437,20.0183613 197.974676,20.1337519 197.970462,20.2435514 L197.952168,20.5313631 C197.951022,20.5420638 197.949505,20.5558279 197.947229,20.576474 C197.881777,21.1107987 197.553293,21.5477794 196.882767,21.4864508 C196.295022,21.4326936 196.044078,21.0633364 195.990626,20.5982906 L195.972068,20.3047405 L195.965952,19.965431 L195.98512,7.56250812 C195.984967,5.63413464 195.981853,3.89523898 195.97518,2.1971223 C195.97518,0.983509381 196.54377,0.426710508 197.755433,0.440040505 L199.340446,0.460259018 C199.94709,0.465028054 200.577509,0.466540658 201.302133,0.465125482 L205.463199,0.439806895 Z M42.8285929,0.354960383 L42.896,0.504 L43.0224771,0.509070842 C43.53378,0.554044073 43.7984395,0.876958169 43.9733344,1.37714826 L43.9733344,1.37714826 L44.0621322,1.65430694 L46.737864,7.71818359 C48.5143292,11.7511473 50.2841146,15.7848596 52.0475618,19.8200765 L52.0475618,19.8200765 L52.0430925,19.8025049 L52.1616705,19.9640909 C52.2041524,20.0270516 52.2386945,20.0861062 52.2715591,20.1550306 C52.5363653,20.7103871 52.3007503,21.2995253 51.6583643,21.5468696 C50.8787985,21.829321 50.4501044,21.412363 50.2158903,20.7497235 L50.2158903,20.7497235 L50.1722414,20.6247126 L45.2053604,9.35763777 L42.851,4.006 L35.654,20.361 L35.6144248,20.4644808 L35.5723743,20.5480274 L35.5039309,20.6505201 C35.5128627,20.6392701 35.5164245,20.6366158 35.5157644,20.6423097 L35.5157644,20.6423097 L35.4393857,20.8566573 C35.3641201,21.0536254 35.30355,21.1608563 35.1708747,21.3004032 C34.8699633,21.6168999 34.438233,21.6856764 34.0266679,21.5150913 C33.3258826,21.2265327 33.1874859,20.574681 33.5049258,20.0111663 C33.5181498,19.9876913 33.5313532,19.9653985 33.5452038,19.943104 L33.5452038,19.943104 L33.641415,19.7998485 C33.6999479,19.7170402 33.7149125,19.6945105 33.7064185,19.7144136 L33.7065661,19.7119289 L35.4099881,15.8019938 L41.6443378,1.65503344 L41.7422313,1.3599852 C41.9214247,0.855354777 42.1710758,0.558690486 42.7455458,0.510212006 L42.7455458,0.510212006 L42.759,0.51 L42.8285929,0.354960383 Z M104.316609,0.405645602 C104.936243,0.368111629 105.437857,0.59686079 105.487955,1.35946899 C105.517922,1.8041543 105.345841,2.19737817 104.956234,2.40084192 C104.70796,2.53049786 104.487204,2.54286157 104.194599,2.51054338 L104.194599,2.51054338 L103.986643,2.48440967 L97.6827849,2.50201252 C96.1382673,2.50209949 94.756573,2.49715895 93.4264723,2.48606769 L93.4264723,2.48606769 L92.354263,2.47434741 C92.0294466,2.46002711 92.1206676,2.39764621 92.1296334,2.77165224 L92.1296334,2.77165224 L92.1493014,3.72329964 C92.1818941,5.63849436 92.1742183,7.62706556 92.1297011,9.7245989 C92.1219795,10.1043615 92.0167298,9.99316126 92.3724148,9.98683346 C93.2337268,9.97002255 93.9959468,9.96195027 94.9960692,9.95991676 L94.9960692,9.95991676 L99.9535554,9.96931831 L100.377543,9.96488046 L100.643888,9.97012364 L100.863937,9.97095889 C101.44772,9.99128616 101.878354,10.2295262 101.913292,10.9538169 C101.947716,11.7299179 101.419198,12.0342685 100.797962,12.0160313 L100.797962,12.0160313 L100.718519,12.0127544 L100.395107,12.0145524 L98.0147239,12.0108346 L95.4620449,12.0172665 C94.5807056,12.0185003 93.9274452,12.016894 93.3152706,12.0111105 L93.3152706,12.0111105 L92.300959,11.9973743 C92.0012024,11.9922937 92.1300156,11.8756151 92.1340753,12.1303603 C92.1735337,14.5787047 92.1735337,17.0270507 92.1340919,19.4743145 L92.1340919,19.4743145 L92.132,19.538 L93.2444853,19.5329716 L103.228943,19.5301231 C103.508544,19.5075831 103.789633,19.5110462 104.131139,19.5497446 C104.105547,19.5448383 104.103367,19.5423828 104.119516,19.539438 L104.119516,19.539438 L104.337339,19.5134605 C104.563166,19.4925495 104.711617,19.506693 104.917461,19.5963838 C105.338477,19.7798298 105.524767,20.1793808 105.503108,20.6414293 C105.463997,21.4627664 104.887539,21.6974415 104.215389,21.6191462 L104.215389,21.6191462 L104.028441,21.5951664 L102.474137,21.6023564 L96.4967063,21.6042121 L93.9948369,21.594729 C93.5548202,21.5944984 93.1767613,21.5960656 92.8236994,21.599916 L92.8236994,21.599916 L91.802544,21.6188031 C90.6746902,21.6486041 90.1068716,21.0692268 90.1162157,19.9502814 C90.1189329,19.6393125 90.1212397,19.338604 90.1231732,19.0377537 L90.1231732,19.0377537 L90.1292339,4.67167884 L90.1133454,2.22317993 C90.101618,1.02699014 90.6176429,0.399921989 91.8571914,0.412635531 C92.7860156,0.4228787 93.6346594,0.429443863 94.6123308,0.433426747 L94.6123308,0.433426747 L103.988012,0.441370748 Z M121.284,0.493 L121.398462,0.498273298 C121.95942,0.555726166 122.202034,0.975249127 122.236309,1.46112995 C122.254144,1.74649155 122.260791,2.03896171 122.260791,2.40863309 L122.260791,2.40863309 L122.256079,16.5526978 L122.240606,19.3375813 C122.230598,19.6084239 122.179522,19.5819926 122.394835,19.5638244 L122.394835,19.5638244 L122.540546,19.5565704 C122.71837,19.5537314 122.897869,19.5511359 123.079425,19.5487737 L123.079425,19.5487737 L124.77926,19.5335314 L131.646857,19.5378925 L131.960847,19.5405449 L132.295451,19.5513594 C132.808785,19.5943307 133.232728,19.916908 133.265468,20.5266959 C133.302023,21.2075269 132.81596,21.5811873 132.229275,21.6041047 C132.06384,21.610567 131.946383,21.6126459 131.699281,21.6147482 L131.699281,21.6147482 L124.501108,21.6119438 L121.880599,21.6307214 C120.743269,21.6438497 120.218429,21.0488384 120.225492,19.941301 C120.232719,19.1558059 120.237374,18.3739519 120.240012,17.5123174 L120.240012,17.5123174 L120.238489,2.29784173 C120.238489,1.99638536 120.250527,1.70824344 120.276168,1.42921196 L120.273,1.473 L120.272131,1.45164695 C120.276817,1.25126135 120.342716,1.05695419 120.460897,0.895060489 L120.460897,0.895060489 L120.538009,0.802024569 C120.731921,0.595339889 121.005492,0.482487149 121.284,0.493 L121.284,0.493 Z M179.806269,0.408562067 C180.435049,0.371769397 180.947557,0.613161829 180.975421,1.39337524 C180.992494,1.83473921 180.806572,2.22012934 180.415911,2.41240469 C180.17068,2.53310188 179.955055,2.54348727 179.665968,2.51135055 L179.665968,2.51135055 L179.459947,2.48585752 L172.224105,2.50213408 C171.531793,2.50117956 170.872697,2.49906076 170.23384,2.49565104 L170.23384,2.49565104 L167.828438,2.47419634 C167.51687,2.4591073 167.605689,2.39429587 167.614554,2.78437685 L167.614554,2.78437685 L167.627816,3.43886173 C167.655147,4.97409997 167.65732,6.56995628 167.637241,8.30770611 L167.637241,8.30770611 L167.614648,9.83385103 C167.610198,10.1058519 167.487412,9.98507396 167.768776,9.98099723 C168.668679,9.96942776 169.591339,9.96375134 170.671983,9.96229941 L171.640092,9.96205054 L176.24143,9.9689771 L176.462215,9.98415333 C176.985218,10.0465236 177.38916,10.3295819 177.396002,10.9864325 C177.403295,11.6864681 176.924216,11.9835979 176.355746,12.0054821 L176.355746,12.0054821 L175.950752,12.009516 L169.734726,12.0131828 C169.428538,12.0126781 169.139658,12.0116047 168.862139,12.0098776 L168.862139,12.0098776 L167.669913,11.9974062 C167.648215,11.9970977 167.630665,11.9951293 167.611,11.99 L167.611,11.99 L167.617585,12.0439456 C167.64309,14.4796946 167.648707,16.5182672 167.630102,18.4444281 L167.630102,18.4444281 L167.616,19.535 L170.888189,19.5248851 L179.889209,19.526259 C180.561539,19.526259 181.091398,19.9053333 181.007724,20.6902655 C180.941204,21.3202471 180.517326,21.5624473 180.000438,21.5879057 L180.000438,21.5879057 L179.844248,21.5940552 L172.115872,21.5854865 C171.322257,21.5863037 170.584068,21.5883297 169.88044,21.5917984 L169.88044,21.5917984 L167.363099,21.6122197 C166.136613,21.6246228 165.584617,21.0242794 165.598242,19.8253277 C165.603542,19.3134216 165.607448,18.830828 165.610181,18.3249183 L165.610181,18.3249183 L165.613288,4.64649617 L165.596812,2.21293667 C165.583034,1.0142749 166.122235,0.401247578 167.353061,0.414068686 C168.338451,0.424234574 169.231547,0.43048928 170.293535,0.434135526 L170.293535,0.434135526 L177.80683,0.438858351 L179.484682,0.442810498 Z M17.7864796,1.12582963 C18.009622,0.666565669 18.32897,0.39987389 18.9326699,0.513244779 L18.9326699,0.513244779 L19.0668283,0.543671355 C19.6620014,0.705139918 19.8306146,1.13640799 19.825854,1.71606583 L19.825854,1.71606583 L19.8255932,1.77633348 L19.8364908,1.96683125 L19.833835,2.13011506 L19.8352517,11.0859208 L19.844964,19.9669065 C19.844964,20.1781479 19.8404158,20.3893856 19.83132,20.6006121 L19.83132,20.6006121 L19.832819,20.6198495 C19.8251911,20.9042896 19.697265,21.1745956 19.4773629,21.3611197 C19.2260462,21.5742901 18.886366,21.6510847 18.5677907,21.566755 L18.6075661,21.5739289 L18.657,21.584 L18.6241394,21.5816107 C18.4321355,21.5538273 18.252435,21.4701062 18.1076458,21.3409803 L18.1076458,21.3409803 L18.0251425,21.2581404 C17.8432539,21.0525272 17.7550246,20.7805558 17.781573,20.5073244 L17.778,20.606 L17.7775661,20.5999289 L17.7727898,20.4696101 C17.7693171,20.3715813 17.7670369,20.2712254 17.7656249,20.1589757 L17.7641175,19.980485 L17.756,6.149 L14.357413,13.6229826 L11.3167946,20.2963059 L11.2081299,20.6233894 C10.9934716,21.2246527 10.6871856,21.5667536 10.0041955,21.5302056 C9.32529766,21.4935744 9.07184388,21.1231639 8.85989244,20.4488566 L8.85989244,20.4488566 L8.82214641,20.3290027 L8.78727396,20.2304937 C6.36875918,14.954083 3.95648035,9.67191673 1.53785572,4.35470742 L1.53785572,4.35470742 L2.377,6.198 L2.37719429,19.9338588 L2.37438052,20.2929393 L2.36367128,20.6444818 C2.31681553,21.1803348 1.94461461,21.6041292 1.32113217,21.5959791 C0.652141856,21.5872341 0.321579615,21.1166521 0.303603353,20.5414117 C0.297751605,20.3541557 0.294604317,20.1303049 0.294604317,19.9165468 L0.294604317,19.9165468 L0.296762634,11.0356978 L0.30323741,2.15539568 L0.261089826,1.7933655 C0.21229841,1.18251973 0.39121934,0.71197634 1.08067096,0.544538099 C1.5084757,0.440714142 1.91305461,0.555828144 2.18970141,0.868966887 C2.35299146,1.0537962 2.42617701,1.22595096 2.51048632,1.5090749 L2.51048632,1.5090749 L2.56509428,1.68727299 L6.3654627,9.98437202 L10.067,18.095 L12.457034,12.8439732 L17.432355,1.87959746 C17.5053888,1.69265655 17.591057,1.51090123 17.7092937,1.30097695 L17.7092937,1.30097695 Z M148.535518,0.482462404 L148.675551,0.496310085 C149.044817,0.553315897 149.344098,0.768481919 149.483964,1.11852618 C149.578843,1.35598243 149.58039,1.55857106 149.54267,1.83495846 L149.54267,1.83495846 L149.513343,2.0367968 L149.519146,3.59070495 L149.522103,14.2582826 L149.511151,19.9899281 L149.561429,20.349567 C149.57971,20.5494755 149.566136,20.7151744 149.494154,20.9051545 C149.344597,21.2998762 148.992172,21.5302158 148.562231,21.5596444 C148.112577,21.5914262 147.715369,21.4218575 147.51349,21.0240294 C147.384269,20.769383 147.378059,20.5469078 147.420128,20.2518644 L147.420128,20.2518644 L147.45212,20.0523123 L147.442646,14.0366801 C147.439235,10.0263789 147.442645,6.01636127 147.452878,2.00719424 L147.452878,2.00719424 L147.407179,1.65962412 C147.389171,1.43642906 147.409967,1.25192395 147.508942,1.04499125 C147.699283,0.647036359 148.089182,0.46173097 148.535518,0.482462404 L148.535518,0.482462404 Z M69.4935252,13.7607914 C70.2604551,13.7607914 70.4809353,14.2587723 70.4809314,14.8695488 C70.4866919,16.6745021 70.4866919,18.478976 70.4809353,20.2805755 C70.4809353,20.8982229 70.2452327,21.4049833 69.4594343,21.3813147 C68.8237649,21.362168 68.5277866,20.9202418 68.5005367,20.4034019 L68.5005367,20.4034019 L68.4931655,18.6045982 L68.4930527,14.9478654 L68.4911487,14.817297 C68.4947844,14.2589596 68.7839868,13.7814354 69.4713674,13.7611188 L69.4713674,13.7611188 Z M201.934,2.511 L199.962969,2.51600499 L198.736824,2.51608698 L197.971,2.511 L197.980169,4.35450799 C197.984948,5.89117546 197.982666,7.50384331 197.97413,9.26961395 L197.97,9.942 L199.920482,9.93666935 L202.405833,9.93951092 C203.854516,9.93669427 204.954404,9.91925817 206.038147,9.87647883 C208.200983,9.79140328 209.931097,8.03669304 209.867678,6.09821856 C209.80856,4.31404131 208.066259,2.67020346 206.025534,2.56024642 L205.562012,2.538472 C205.246223,2.52703436 204.912671,2.52155485 204.536084,2.52083861 L202.192625,2.54236474 L201.965468,2.54280576 L201.934,2.511 Z M69.502543,1.16713688 L69.63636,1.17954585 C70.3293122,1.2747582 70.4838129,1.71855912 70.483809,2.32129271 C70.4895697,4.08599467 70.4895697,5.85021725 70.4838129,7.61151079 L70.4838129,7.61151079 L70.4840903,7.77206724 C70.4700086,8.32929858 70.1792718,8.80615723 69.4925621,8.81329302 C68.7972051,8.82040463 68.5037998,8.34221191 68.4870459,7.78139132 L68.4870459,7.78139132 L68.4821972,6.26696139 L68.494,4.454 L68.4958524,2.21867199 L68.508354,2.05849841 C68.5793071,1.51516282 68.9457,1.08285345 69.63636,1.17954585 Z M65.8398744,0.258539016 C66.4405785,0.219117444 66.9645143,0.499604596 66.9884621,1.24498079 C67.0155669,2.0581068 66.4653327,2.37790647 65.8094377,2.33862719 L65.8094377,2.33862719 L65.6675896,2.32865746 L65.5144734,2.33014325 L60.6330935,2.32985612 L60.3759599,2.33883768 C59.837101,2.32627332 59.3967476,2.04920521 59.3419352,1.38044003 C59.2733702,0.578528387 59.8137622,0.23443257 60.4531089,0.262985478 L60.4531089,0.262985478 L60.5607033,0.269116896 L63.1401205,0.262948154 L65.6964029,0.270143885 Z M75.6460432,0.257194245 L78.4017828,0.26192522 C79.0098342,0.273535728 79.5166727,0.60781569 79.4478563,1.36475134 C79.3877089,2.05113946 78.9228053,2.30668774 78.3519468,2.31753135 L78.3519468,2.31753135 L77.783632,2.32347607 L73.0388312,2.32283254 L72.9207461,2.32545011 C72.2934992,2.33184013 71.7769812,2.01355247 71.8014164,1.24081947 C71.8221116,0.550978554 72.2973817,0.26719568 72.8573605,0.260768954 L72.8573605,0.260768954 L75.6460432,0.257194245 Z" id="Combined-Shape"></path>
        </g>
    </g>
</svg>