<?xml version="1.0" encoding="UTF-8"?>
<svg width="99px" height="32px" viewBox="0 0 99 32" version="1.1" xmlns="http://www.w3.org/2000/svg" xmlns:xlink="http://www.w3.org/1999/xlink">
    <!-- Generator: Sketch 52.5 (67469) - http://www.bohemiancoding.com/sketch -->
    <title>micappital</title>
    <desc>Created with Sketch.</desc>
    <g id="Page-1" stroke="none" stroke-width="1" fill="none" fill-rule="evenodd">
        <g id="micappital" fill="#FFFFFF">
            <path d="M41.21,19.46 L39.91,19.46 L39.91,16 C39.9291278,15.6833494 39.8487044,15.368649 39.68,15.1 C39.5196309,14.8892098 39.2643015,14.7728096 39,14.79 C38.8610709,14.7889405 38.7227997,14.8091753 38.59,14.85 C38.4589081,14.8921452 38.3317563,14.9456828 38.21,15.01 C38.0945574,15.071056 37.9842029,15.1412816 37.88,15.22 L37.63,15.43 L37.63,19.43 L36.34,19.43 L36.34,13.93 L37.59,13.93 L37.59,14.48 L37.91,14.23 C38.0290854,14.1442895 38.1563745,14.0705958 38.29,14.01 C38.4321527,13.9476262 38.579349,13.8974456 38.73,13.86 C38.890071,13.8189982 39.0547653,13.7988315 39.22,13.8 C39.568215,13.7946063 39.9121626,13.8771537 40.22,14.04 C40.4951179,14.1948437 40.7179129,14.4280822 40.86,14.71 C40.9733333,14.6033333 41.1,14.4933333 41.24,14.38 C41.3846873,14.2702544 41.538594,14.1732263 41.7,14.09 C41.8629423,14.0039563 42.0337144,13.9336384 42.21,13.88 C42.3850859,13.8269205 42.5670451,13.7999636 42.75,13.8 C43.303208,13.7564038 43.8456006,13.970409 44.22,14.38 C44.5896844,14.8376681 44.7846249,15.4118565 44.77,16 L44.77,19.46 L43.47,19.46 L43.47,16 C43.4891278,15.6833494 43.4087044,15.368649 43.24,15.1 C43.0839892,14.8893627 42.8315401,14.7725579 42.57,14.79 C42.4204407,14.7884268 42.2716873,14.8120921 42.13,14.86 C41.994367,14.9069544 41.8637272,14.9672497 41.74,15.04 C41.622573,15.109255 41.5120661,15.1896237 41.41,15.28 C41.3270234,15.3537048 41.2501088,15.4339636 41.18,15.52 C41.18,15.52 41.18,15.64 41.18,15.73 C41.18,15.82 41.18,15.9 41.18,15.96 L41.21,19.46 Z" id="Path"></path>
            <path d="M49.32,12.35 C49.3210287,12.4509704 49.2969761,12.550617 49.25,12.64 C49.2054433,12.7247171 49.1442164,12.7995499 49.07,12.86 C48.992903,12.9225935 48.9046957,12.9700898 48.81,13 C48.7072949,13.016114 48.6027051,13.016114 48.5,13 C48.2951521,13.0058938 48.0943117,12.9424706 47.93,12.82 C47.7903251,12.6912564 47.7108687,12.5099579 47.7108687,12.32 C47.7108687,12.1300421 47.7903251,11.9487436 47.93,11.82 C48.0939447,11.6968142 48.2950419,11.6333098 48.5,11.64 C48.6027051,11.623886 48.7072949,11.623886 48.81,11.64 C48.9046957,11.6699102 48.992903,11.7174065 49.07,11.78 C49.1440235,11.8406431 49.2052159,11.9154337 49.25,12 C49.3089099,12.1066412 49.3333625,12.2289043 49.32,12.35 Z M49.14,19.46 L47.85,19.46 L47.85,13.93 L49.14,13.93 L49.14,19.46 Z" id="Shape" fill-rule="nonzero"></path>
            <path d="M52.5,16.76 C52.4933293,17.0356852 52.537395,17.310248 52.63,17.57 C52.7067193,17.7788452 52.8258925,17.9695223 52.98,18.13 C53.1199842,18.2735218 53.2910425,18.3829991 53.48,18.45 C53.6695164,18.5167682 53.8690669,18.5505903 54.07,18.55 C54.4306808,18.5575284 54.7897623,18.4999399 55.13,18.38 C55.4300623,18.2777463 55.7210714,18.1506389 56,18 L56,19 C55.7211104,19.1878193 55.4138641,19.3296253 55.09,19.42 C54.7117202,19.5203572 54.3212944,19.5674776 53.93,19.56 C53.5482199,19.5652881 53.1686765,19.5009013 52.81,19.37 C52.482878,19.2485195 52.1860381,19.0574502 51.94,18.81 C51.6906207,18.555845 51.4965494,18.2528213 51.37,17.92 C51.2259947,17.5400122 51.1547559,17.136326 51.16,16.73 C51.1493714,16.2912255 51.231141,15.8551206 51.4,15.45 C51.5485041,15.1004469 51.7701398,14.7867472 52.05,14.53 C52.3280611,14.2916152 52.6510932,14.1113973 53,14 C53.3767331,13.8720942 53.7721518,13.8078809 54.17,13.81 C54.4831785,13.8111141 54.7952035,13.8480203 55.1,13.92 C55.411365,13.9900595 55.7088077,14.1117406 55.98,14.28 L55.98,15.4 C55.7089631,15.2262629 55.4165196,15.0884446 55.11,14.99 C54.8089593,14.8961542 54.4953275,14.8489408 54.18,14.85 C53.9560387,14.8474075 53.7331411,14.8811798 53.52,14.95 C53.315747,15.0192486 53.1307285,15.1357417 52.98,15.29 C52.8151347,15.4612052 52.6889569,15.6658179 52.61,15.89 C52.5223607,16.1712539 52.4851213,16.4657841 52.5,16.76 Z" id="Path"></path>
            <path d="M62.62,19.58 C62.4717641,19.5829392 62.3237969,19.5661247 62.18,19.53 C62.0662651,19.5015265 61.9581022,19.4542053 61.86,19.39 C61.7705988,19.3312558 61.6926576,19.2567033 61.63,19.17 C61.5693598,19.0807246 61.5221878,18.9830111 61.49,18.88 C61.2635567,19.0843316 61.0072775,19.2529363 60.73,19.38 C60.414121,19.5152221 60.0735891,19.5833284 59.73,19.58 C59.4478841,19.5851837 59.1670208,19.5411931 58.9,19.45 C58.6791752,19.3750128 58.4776884,19.2520717 58.31,19.09 C58.1553926,18.9376427 58.0359404,18.7533452 57.96,18.55 C57.8791286,18.3359491 57.8384475,18.1088134 57.84,17.88 C57.8164511,17.3317513 58.0772717,16.8101101 58.53,16.5 C59.1353636,16.1478139 59.8307337,15.9809251 60.53,16.02 L60.93,16.02 L61.36,16.02 C61.3804609,15.6864526 61.2889551,15.3556239 61.1,15.08 C60.8883804,14.8427209 60.5765389,14.7202117 60.26,14.75 C59.9737092,14.7496045 59.6883822,14.7831724 59.41,14.85 C59.1164599,14.9207274 58.8289132,15.0143472 58.55,15.13 L58.55,14.13 C58.8214855,14.0039417 59.1067455,13.9099737 59.4,13.85 C59.7023109,13.7844936 60.0106749,13.7509757 60.32,13.75 C60.6565753,13.7456791 60.9924117,13.7826211 61.32,13.86 C61.5891576,13.9239007 61.8393317,14.0507013 62.05,14.23 C62.2565597,14.4136962 62.4116601,14.6480701 62.5,14.91 C62.6042182,15.2329184 62.6548878,15.5707157 62.65,15.91 L62.65,18.05 C62.6389813,18.1831868 62.6864294,18.3145815 62.78,18.41 C62.8477028,18.4823737 62.9410011,18.5254344 63.04,18.53 L63.29,18.53 L63.55,18.53 L63.55,19.31 C63.4260743,19.395618 63.2869024,19.4567179 63.14,19.49 C62.9707761,19.540204 62.7962532,19.5704099 62.62,19.58 Z M61.37,16.92 L61.03,16.92 L60.63,16.92 C60.380887,16.9139713 60.1320689,16.9408706 59.89,17 C59.7235563,17.0419968 59.5671684,17.116791 59.43,17.22 C59.32531,17.2974664 59.2425962,17.4008586 59.19,17.52 C59.1445275,17.6311253 59.1207659,17.7499334 59.12,17.87 C59.1128114,18.0771546 59.1883727,18.2786513 59.33,18.43 C59.4832439,18.5824874 59.6941761,18.6624962 59.91,18.65 C60.175631,18.6469293 60.4377681,18.5890549 60.68,18.48 C60.9342163,18.3708885 61.1676542,18.2186463 61.37,18.03 L61.37,16.92 Z" id="Shape" fill-rule="nonzero"></path>
            <path d="M65.37,13.93 L66.64,13.93 L66.64,14.42 C66.8711551,14.2460499 67.1230987,14.1016022 67.39,13.99 C67.7067765,13.8587594 68.0471641,13.7940858 68.39,13.8 C68.7322302,13.8007872 69.0713292,13.865216 69.39,13.99 C69.6970988,14.1116537 69.9736454,14.2994322 70.2,14.54 C70.4397479,14.7960269 70.6236401,15.0991084 70.74,15.43 C70.9966049,16.2162598 70.9966049,17.0637402 70.74,17.85 C70.6230934,18.1917882 70.4357169,18.505218 70.19,18.77 C69.9411143,19.0330724 69.6372145,19.2379486 69.3,19.37 C68.9205351,19.5158973 68.5164822,19.5872007 68.11,19.58 C67.8340886,19.5821504 67.5588766,19.5519442 67.29,19.49 C67.0503713,19.4361195 66.818528,19.3521183 66.6,19.24 L66.6,22.66 L65.37,22.66 L65.37,13.93 Z M66.66,18.23 L66.86,18.37 C66.9492728,18.4215907 67.0429792,18.4650972 67.14,18.5 C67.2540895,18.5392538 67.3711269,18.5693492 67.49,18.59 C67.6296737,18.6035177 67.7703263,18.6035177 67.91,18.59 C68.1628409,18.5960879 68.4143732,18.5518998 68.65,18.46 C68.8605535,18.3734219 69.0486378,18.240053 69.2,18.07 C69.3606073,17.8876081 69.4799881,17.6727227 69.55,17.44 C69.6333758,17.1679299 69.6738612,16.8845325 69.67,16.6 C69.6726987,16.3359521 69.6356162,16.0730035 69.56,15.82 C69.4949333,15.6085274 69.3896763,15.411595 69.25,15.24 C69.1224991,15.0835531 68.9620075,14.9572087 68.78,14.87 C68.5920815,14.7828087 68.3871549,14.738408 68.18,14.74 C68.0148156,14.7396881 67.8502288,14.7598416 67.69,14.8 C67.5451994,14.8353742 67.4044493,14.8856421 67.27,14.95 C67.1472119,15.0092515 67.0300633,15.0795406 66.92,15.16 L66.64,15.39 L66.66,18.23 Z" id="Shape" fill-rule="nonzero"></path>
            <path d="M73.38,13.93 L74.65,13.93 L74.65,14.42 C74.8811551,14.2460499 75.1330987,14.1016022 75.4,13.99 C75.7167765,13.8587594 76.0571641,13.7940858 76.4,13.8 C76.7422302,13.8007872 77.0813292,13.865216 77.4,13.99 C77.7070988,14.1116537 77.9836454,14.2994322 78.21,14.54 C78.4497479,14.7960269 78.6336401,15.0991084 78.75,15.43 C79.0066049,16.2162598 79.0066049,17.0637402 78.75,17.85 C78.6330934,18.1917882 78.4457169,18.505218 78.2,18.77 C77.9511143,19.0330724 77.6472145,19.2379486 77.31,19.37 C76.9305351,19.5158973 76.5264822,19.5872007 76.12,19.58 C75.8440886,19.5821504 75.5688766,19.5519442 75.3,19.49 C75.0603713,19.4361195 74.828528,19.3521183 74.61,19.24 L74.61,22.66 L73.38,22.66 L73.38,13.93 Z M74.67,18.23 L74.87,18.37 C74.9592728,18.4215907 75.0529792,18.4650972 75.15,18.5 C75.2640895,18.5392538 75.3811269,18.5693492 75.5,18.59 C75.6396737,18.6035177 75.7803263,18.6035177 75.92,18.59 C76.1728409,18.5960879 76.4243732,18.5518998 76.66,18.46 C76.8705535,18.3734219 77.0586378,18.240053 77.21,18.07 C77.3706073,17.8876081 77.4899881,17.6727227 77.56,17.44 C77.6433758,17.1679299 77.6838612,16.8845325 77.68,16.6 C77.6826987,16.3359521 77.6456162,16.0730035 77.57,15.82 C77.5049333,15.6085274 77.3996763,15.411595 77.26,15.24 C77.1324991,15.0835531 76.9720075,14.9572087 76.79,14.87 C76.6020815,14.7828087 76.3971549,14.738408 76.19,14.74 C76.0248156,14.7396881 75.8602288,14.7598416 75.7,14.8 C75.5551994,14.8353742 75.4144493,14.8856421 75.28,14.95 C75.1572119,15.0092515 75.0400633,15.0795406 74.93,15.16 L74.65,15.39 L74.67,18.23 Z" id="Shape" fill-rule="nonzero"></path>
            <path d="M82.87,12.35 C82.8710287,12.4509704 82.8469761,12.550617 82.8,12.64 C82.7554433,12.7247171 82.6942164,12.7995499 82.62,12.86 C82.542903,12.9225935 82.4546957,12.9700898 82.36,13 C82.2572949,13.016114 82.1527051,13.016114 82.05,13 C81.8451521,13.0058938 81.6443117,12.9424706 81.48,12.82 C81.3403251,12.6912564 81.2608687,12.5099579 81.2608687,12.32 C81.2608687,12.1300421 81.3403251,11.9487436 81.48,11.82 C81.6439447,11.6968142 81.8450419,11.6333098 82.05,11.64 C82.1527051,11.623886 82.2572949,11.623886 82.36,11.64 C82.4546957,11.6699102 82.542903,11.7174065 82.62,11.78 C82.6940235,11.8406431 82.7552159,11.9154337 82.8,12 C82.8589099,12.1066412 82.8833625,12.2289043 82.87,12.35 Z M82.69,19.46 L81.4,19.46 L81.4,13.93 L82.69,13.93 L82.69,19.46 Z" id="Shape" fill-rule="nonzero"></path>
            <path d="M88.14,19.34 C87.9667552,19.4273012 87.7813379,19.4879832 87.59,19.52 C87.3689593,19.5603574 87.1446943,19.5804408 86.92,19.58 C86.482538,19.6252465 86.0492405,19.462297 85.75,19.14 C85.4872081,18.7373771 85.3642154,18.2594625 85.4,17.78 L85.4,14.78 L84.4,14.78 L84.4,13.9 L85.48,13.9 L85.71,13.16 L85.93,12.43 L86.73,12.43 L86.73,13.91 L88.27,13.91 L88.27,14.79 L86.69,14.79 L86.69,18 C86.6822113,18.1695601 86.7354263,18.3363002 86.84,18.47 C86.9478369,18.5931963 87.1065582,18.6596378 87.27,18.65 L87.73,18.65 L88.13,18.59 L88.14,19.34 Z" id="Path"></path>
            <path d="M94.42,19.58 C94.2717641,19.5829392 94.1237969,19.5661247 93.98,19.53 C93.8662651,19.5015265 93.7581022,19.4542053 93.66,19.39 C93.5705988,19.3312558 93.4926576,19.2567033 93.43,19.17 C93.3693598,19.0807246 93.3221878,18.9830111 93.29,18.88 C93.0635567,19.0843316 92.8072775,19.2529363 92.53,19.38 C92.214121,19.5152221 91.8735891,19.5833284 91.53,19.58 C91.2478841,19.5851837 90.9670208,19.5411931 90.7,19.45 C90.4791752,19.3750128 90.2776884,19.2520717 90.11,19.09 C89.9553926,18.9376427 89.8359404,18.7533452 89.76,18.55 C89.6791286,18.3359491 89.6384475,18.1088134 89.64,17.88 C89.6164511,17.3317513 89.8772717,16.8101101 90.33,16.5 C90.9353636,16.1478139 91.6307337,15.9809251 92.33,16.02 L92.73,16.02 L93.16,16.02 C93.1804609,15.6864526 93.0889551,15.3556239 92.9,15.08 C92.6883804,14.8427209 92.3765389,14.7202117 92.06,14.75 C91.7737092,14.7496045 91.4883822,14.7831724 91.21,14.85 C90.9164599,14.9207274 90.6289132,15.0143472 90.35,15.13 L90.35,14.13 C90.6214855,14.0039417 90.9067455,13.9099737 91.2,13.85 C91.5023109,13.7844936 91.8106749,13.7509757 92.12,13.75 C92.4565753,13.7456791 92.7924117,13.7826211 93.12,13.86 C93.3891576,13.9239007 93.6393317,14.0507013 93.85,14.23 C94.0565597,14.4136962 94.2116601,14.6480701 94.3,14.91 C94.4042182,15.2329184 94.4548878,15.5707157 94.45,15.91 L94.45,18.05 C94.4389813,18.1831868 94.4864294,18.3145815 94.58,18.41 C94.6477028,18.4823737 94.7410011,18.5254344 94.84,18.53 L95.09,18.53 L95.35,18.53 L95.35,19.31 C95.2260743,19.395618 95.0869024,19.4567179 94.94,19.49 C94.7707761,19.540204 94.5962532,19.5704099 94.42,19.58 Z M93.17,16.92 L92.83,16.92 L92.43,16.92 C92.180887,16.9139713 91.9320689,16.9408706 91.69,17 C91.5235563,17.0419968 91.3671684,17.116791 91.23,17.22 C91.12531,17.2974664 91.0425962,17.4008586 90.99,17.52 C90.9445275,17.6311253 90.9207659,17.7499334 90.92,17.87 C90.9128114,18.0771546 90.9883727,18.2786513 91.13,18.43 C91.2832439,18.5824874 91.4941761,18.6624962 91.71,18.65 C91.975631,18.6469293 92.2377681,18.5890549 92.48,18.48 C92.7342163,18.3708885 92.9676542,18.2186463 93.17,18.03 L93.17,16.92 Z" id="Shape" fill-rule="nonzero"></path>
            <polygon id="Path" points="98.46 19.46 97.17 19.46 97.17 10.74 98.46 10.74"></polygon>
            <path d="M25.42,0.47 L6.64,0.47 C3.24897164,0.47 0.5,3.21897164 0.5,6.61 L0.5,25.39 C0.5,28.7810284 3.24897164,31.53 6.64,31.53 L25.42,31.53 C28.8110284,31.53 31.56,28.7810284 31.56,25.39 L31.56,6.61 C31.56,3.21897164 28.8110284,0.47 25.42,0.47 Z M28.91,10.54 L28.91,10.66 C28.9492467,11.2661624 28.7241005,11.8596241 28.2926683,12.2872213 C27.861236,12.7148186 27.2657879,12.9346572 26.66,12.89 L26.55,12.89 L26.55,12.78 C26.5107533,12.1738376 26.7358995,11.5803759 27.1673317,11.1527787 C27.598764,10.7251814 28.1942121,10.5053428 28.8,10.55 L28.91,10.54 Z M24.73,17.33 L24.62,17.33 L24.62,17.22 C24.4879668,16.6329023 24.6153962,16.0173827 24.9696766,15.5309653 C25.323957,15.0445479 25.8707063,14.7344383 26.47,14.68 L26.59,14.68 L26.59,14.79 C26.7221256,15.3786781 26.5934147,15.9957344 26.2369636,16.4825009 C25.8805125,16.9692675 25.3310999,17.2782508 24.73,17.33 Z M27.59,7.4 L27.72,7.4 L27.78,7.53 C28.0566654,8.17135637 28.0414649,8.90119789 27.7383357,9.53047877 C27.4352065,10.1597597 26.8739702,10.6265718 26.2,10.81 L26.07,10.81 L26,10.68 C25.7233346,10.0386436 25.7385351,9.30880211 26.0416643,8.67952123 C26.3447935,8.05024034 26.9060298,7.58342823 27.58,7.4 L27.59,7.4 Z M25.79,12.69 L25.72,12.78 C25.3460112,13.2476198 24.7878559,13.5303848 24.1895963,13.5553123 C23.5913368,13.5802398 23.0115932,13.3448872 22.6,12.91 L22.53,12.82 L22.59,12.73 C22.9620683,12.2594078 23.5207941,11.9743868 24.1201838,11.9494122 C24.7195736,11.9244376 25.3000733,12.1619909 25.71,12.6 L25.79,12.69 Z M24.4,5.69 L24.49,5.61 L24.58,5.68 C25.0780215,6.05939739 25.3879116,6.63540436 25.430066,7.26005689 C25.4722205,7.88470942 25.242531,8.49712974 24.8,8.94 L24.71,9.03 L24.61,8.96 C24.1061649,8.57723277 23.7934926,7.99444354 23.7531869,7.36298807 C23.7128812,6.7315326 23.9489194,6.1137193 24.4,5.67 L24.4,5.69 Z M24.48,9.49 L24.58,9.49 L24.58,9.58 C24.6820766,10.072578 24.5672459,10.5852614 24.2648077,10.9872363 C23.9623695,11.3892111 23.5015755,11.6415984 23,11.68 L22.91,11.68 L22.91,11.59 C22.8014768,11.0960783 22.9119238,10.5793587 23.2128865,10.1729631 C23.5138493,9.76656757 23.9758996,9.51023351 24.48,9.47 L24.48,9.49 Z M22.68,8.39 L22.68,8.52 C22.7388642,9.17814616 22.5093066,9.82945917 22.0507824,10.30525 C21.5922582,10.7810408 20.9498717,11.0345066 20.29,11 L20.16,11 L20.16,10.87 C20.1042345,10.2108526 20.3362267,9.55979173 20.7962494,9.0844349 C21.2562721,8.60907808 21.8993789,8.35587005 22.56,8.39 L22.68,8.39 Z M18.59,16.33 C18.6551165,15.7212438 18.981432,15.1707852 19.4842484,14.8215005 C19.9870649,14.4722158 20.6167998,14.3585478 21.21,14.51 L21.32,14.51 L21.32,14.63 C21.2517037,15.2372844 20.9246686,15.7855578 20.4227689,16.1342057 C19.9208691,16.4828536 19.2929308,16.5979586 18.7,16.45 L18.59,16.45 L18.59,16.33 Z M18.35,11.92 L18.25,11.98 L18.18,11.89 C17.8100138,11.3902323 17.6757013,10.7542499 17.8120151,10.1475572 C17.948329,9.54086451 18.3417878,9.02346359 18.89,8.73 L18.99,8.73 L19.07,8.82 C19.4069592,9.3182789 19.5197718,9.93492964 19.3810475,10.520232 C19.2423233,11.1055345 18.8647497,11.6059573 18.34,11.9 L18.35,11.92 Z M18.84,13.17 L18.77,13.11 L18.83,13.02 C19.1177095,12.5765876 19.5830924,12.2792349 20.1063547,12.2044831 C20.6296171,12.1297313 21.1596434,12.2848828 21.56,12.63 L21.63,12.7 L21.63,12.79 C21.3365683,13.2492413 20.8546532,13.5547785 20.3141211,13.6242754 C19.773589,13.6937724 19.2300586,13.5200783 18.83,13.15 L18.84,13.17 Z M22.29,6.25 L22.39,6.25 L22.39,6.36 C22.2735989,6.90155317 21.9278269,7.36589956 21.4423506,7.63262372 C20.9568742,7.89934787 20.3795168,7.94217534 19.86,7.75 L19.76,7.75 L19.76,7.65 C19.8726535,7.107209 20.2144159,6.63960007 20.6973759,6.3674559 C21.180336,6.09531174 21.7573525,6.04519603 22.28,6.23 L22.29,6.25 Z M18.62,2.37 L18.62,2.24 L18.75,2.24 C19.4017998,2.34468389 19.9767152,2.72556086 20.327284,3.28493843 C20.6778529,3.84431599 20.7699671,4.5277704 20.58,5.16 L20.58,5.29 L20.45,5.29 C19.7876091,5.19258916 19.20151,4.80896213 18.8471871,4.24089007 C18.4928642,3.67281801 18.4061322,2.97772135 18.61,2.34 L18.62,2.37 Z M17.12,4.96 L17.12,4.85 L17.23,4.85 C17.8158907,5.00884753 18.3037693,5.41458145 18.5667674,5.96169427 C18.8297655,6.50880708 18.8418944,7.14323475 18.6,7.7 L18.6,7.81 L18.49,7.81 C17.8943384,7.65507557 17.3972468,7.24547428 17.1312859,6.69042549 C16.8653251,6.13537669 16.8575375,5.49131724 17.11,4.93 L17.12,4.96 Z M16.21,12.12 L16.09,12.22 L15.96,12.12 C15.3327901,11.5712224 14.9730173,10.7783961 14.9730173,9.945 C14.9730173,9.11160386 15.3327901,8.31877761 15.96,7.77 L16.09,7.67 L16.21,7.77 C16.828658,8.31815284 17.1819763,9.10569458 17.180063,9.93225709 C17.1781497,10.7588196 16.8211891,11.5447172 16.2,12.09 L16.21,12.12 Z M13.42,2.56 C13.9669815,2.25370595 14.6196992,2.19893152 15.2100782,2.40978114 C15.8004571,2.62063076 16.2708024,3.07649911 16.5,3.66 L16.5,3.77 L16.4,3.83 C15.8530185,4.13629405 15.2003008,4.19106848 14.6099218,3.98021886 C14.0195429,3.76936924 13.5491976,3.31350089 13.32,2.73 L13.32,2.61 L13.42,2.56 Z M14.08,5.25 L14.17,5.19 L14.25,5.27 C14.640525,5.69800123 14.8262509,6.27432444 14.7591106,6.8498129 C14.6919703,7.42530137 14.3785627,7.94339232 13.9,8.27 L13.81,8.33 L13.73,8.25 C13.3286626,7.82111005 13.1361524,7.23747749 13.2035536,6.65397484 C13.2709549,6.07047219 13.5914528,5.546098 14.08,5.22 L14.08,5.25 Z M13.17,8.97 L13.26,9.03 C13.769319,9.35613632 14.1123898,9.88690964 14.2006039,10.4852315 C14.2888181,11.0835533 14.1135252,11.690752 13.72,12.15 L13.64,12.24 L13.55,12.18 C13.0223756,11.8536223 12.6670245,11.3097019 12.5800966,10.6954109 C12.4931686,10.0811198 12.6836496,9.45995904 13.1,9 L13.17,8.97 Z M11.32,12.77 L11.32,12.68 L11.4,12.68 C11.8345653,12.4200743 12.3604141,12.3611236 12.8417471,12.5183718 C13.32308,12.67562 13.7127042,13.0336495 13.91,13.5 L13.91,13.59 L13.83,13.65 C13.3823903,13.9050078 12.8451606,13.9498417 12.3614742,13.7725542 C11.8777877,13.5952668 11.496786,13.2138699 11.32,12.73 L11.32,12.77 Z M12.98,15.77 L12.87,15.83 C12.2907968,16.1616727 11.5964439,16.2266089 10.9657858,16.008083 C10.3351278,15.7895571 9.82981467,15.3089311 9.58,14.69 L9.58,14.56 L9.69,14.5 C10.2705009,14.168838 10.9659763,14.1053187 11.5968639,14.3258417 C12.2277514,14.5463647 12.7322117,15.0293145 12.98,15.65 L12.98,15.77 Z M11.56,2.56 L11.63,2.47 L11.74,2.53 C12.278441,2.83739607 12.6570975,3.36320573 12.7779534,3.97132157 C12.8988092,4.57943741 12.7499834,5.21007795 12.37,5.7 L12.3,5.79 L12.2,5.73 C11.6599599,5.42435848 11.2791792,4.89935374 11.1563761,4.29109442 C11.0335729,3.6828351 11.1808407,3.0512212 11.56,2.56 Z M9.71,6.27 C10.1907327,6.0471285 10.7442115,6.04232527 11.2287398,6.25682 C11.713268,6.47131472 12.0818046,6.88428285 12.24,7.39 L12.24,7.48 L12.15,7.48 C11.6696625,7.70634842 11.1146938,7.71290005 10.6291467,7.49795429 C10.1435996,7.28300852 9.77535577,6.86776203 9.62,6.36 L9.62,6.27 L9.71,6.27 Z M9.51,8.41 L9.51,8.3 L9.63,8.3 C10.2512079,8.33513918 10.827091,8.63645193 11.2101453,9.12676146 C11.5931997,9.617071 11.7462154,10.2487488 11.63,10.86 L11.63,10.98 L11.51,10.98 C10.8887921,10.9448608 10.312909,10.6435481 9.92985467,10.1532385 C9.54680035,9.662929 9.39378455,9.0312512 9.51,8.42 L9.51,8.41 Z M8.51,11.62 L8.45,11.69 L8.37,11.69 C7.94194037,11.4983496 7.6179469,11.1305913 7.48177254,10.6817912 C7.34559817,10.2329912 7.41060915,9.74720161 7.66,9.35 L7.66,9.28 L7.75,9.28 C8.1878115,9.46043546 8.52551524,9.82234469 8.67526031,10.2715799 C8.82500538,10.7208151 8.77198792,11.2129647 8.53,11.62 L8.51,11.62 Z M7.51,5.75 L7.6,5.69 L7.68,5.76 C8.08997062,6.16356089 8.30631554,6.72411349 8.27376903,7.29846358 C8.24122253,7.87281367 7.96293663,8.40533719 7.51,8.76 L7.42,8.82 L7.34,8.74 C6.93917013,8.32983788 6.73370117,7.76734194 6.77578443,7.19539217 C6.81786769,6.62344239 7.1034535,6.09707757 7.56,5.75 L7.51,5.75 Z M6.59,12.59 C6.96999582,12.1350475 7.53222806,11.8720979 8.125,11.8720979 C8.71777194,11.8720979 9.28000418,12.1350475 9.66,12.59 L9.73,12.68 L9.66,12.77 C9.28000418,13.2249525 8.71777194,13.4879021 8.125,13.4879021 C7.53222806,13.4879021 6.96999582,13.2249525 6.59,12.77 L6.52,12.68 L6.59,12.59 Z M4.41,7.49 L4.47,7.37 L4.6,7.37 C5.24625339,7.5702571 5.77289156,8.04264296 6.04195458,8.66340978 C6.3110176,9.2841766 6.29569473,9.99146818 6,10.6 L6,10.71 L5.87,10.71 C5.21562273,10.5227107 4.67650219,10.0575076 4.39542678,9.43760152 C4.11435137,8.81769548 4.11967951,8.10563048 4.41,7.49 Z M2.75,10.89 C3.30593135,10.6359975 3.94468911,10.635542 4.50098219,10.8887512 C5.05727527,11.1419605 5.47643661,11.6239516 5.65,12.21 L5.65,12.32 L5.54,12.38 C4.98511261,12.6304559 4.34908912,12.6290364 3.79532521,12.3761062 C3.2415613,12.1231759 2.82403149,11.6433877 2.65,11.06 L2.65,10.95 L2.75,10.89 Z M2.69,17.23 L2.56,17.23 L2.56,17.1 C2.56682052,16.4250614 2.86599237,15.7862474 3.38009149,15.3488795 C3.89419062,14.9115116 4.57269084,14.7185747 5.24,14.82 L5.37,14.82 L5.37,14.95 C5.35988382,15.6237863 5.0597861,16.2605047 4.54653302,16.6971529 C4.03327995,17.133801 3.3566999,17.3279875 2.69,17.23 Z M6.15,20.9 L6,20.9 L6,20.8 C5.95762378,20.2364232 6.16311788,19.6823858 6.56275183,19.2827518 C6.96238578,18.8831179 7.51642317,18.6776238 8.08,18.72 L8.18,18.72 L8.18,18.82 C8.22078216,19.374341 8.021829,19.9195475 7.6336016,20.3173371 C7.24537421,20.7151268 6.70516905,20.9272845 6.15,20.9 Z M10.58,21.07 L10.52,21.13 C10.0725938,21.315452 9.57551154,21.3436553 9.11,21.21 L9.05,21.21 L8.99,21.21 L8.91,21.21 C8.84073751,21.1382263 8.80765422,21.0389764 8.82,20.94 L8.82,20.77 C8.85578949,20.5732675 8.90592329,20.3794168 8.97,20.19 L9,19.92 L9.06,19.83 C9.19,19.57 10.12,18.45 10.06,18.09 L10,18.09 C9.23081549,17.9076657 8.43680011,17.8536051 7.65,17.93 L7.53,17.93 L7.41,17.93 C6.65633933,18.2986204 6.02965964,18.8835214 5.61,19.61 L5.55,19.74 L5.49,19.86 L5.43,19.99 L5.43,20.12 C5.11,20.8 5.34,21.51 5.11,22.04 L4.77,22 L4.71,22.06 C4.54,22.2 4.33,22.33 4.17,22.49 L3.95,22.68 L3.85,22.77 C3.77576358,22.8390088 3.69146713,22.8963304 3.6,22.94 L3.5,22.94 C3.39505235,22.4874612 3.34138108,22.0245465 3.34,21.56 L3.34,21.13 C3.44415188,19.8846335 3.92162462,18.6996647 4.71,17.73 L4.86,17.56 L5,17.37 L5.16,17.21 L5.33,17.06 C5.75,16.68 6.24,16.4 6.69,16.06 C6.94,15.82 6.59,15.42 6.45,15.23 C6.31,15.04 6.22,14.97 6.12,14.82 C6.09731823,14.7836652 6.07046961,14.7501045 6.04,14.72 L6,14.64 C5.22,14.19 4.29,14.42 3.48,14.07 C3.40086962,14.033869 3.34213767,13.9641248 3.32,13.88 L3.32,13.78 C3.33937227,13.5584659 3.3968853,13.3419463 3.49,13.14 L3.55,13.14 L3.61,13.14 C4.33129865,13.0719344 5.05839072,13.1782545 5.73,13.45 L5.82,13.45 L5.91,13.45 C6.47936809,13.6222911 7.01412738,13.8930553 7.49,14.25 L7.62,14.34 L7.75,14.45 L7.87,14.58 L8.01,14.74 L8.17,14.91 L8.27,15.01 C8.83336641,15.6296523 9.55115136,16.0886206 10.35,16.34 L10.44,16.34 L10.65,16.34 L10.87,16.34 C11.3697551,16.4194394 11.8741586,16.4662053 12.38,16.48 L12.56,16.48 L12.65,16.48 C12.8069375,16.4871103 12.9619548,16.5174398 13.11,16.57 L13.17,16.57 L13.23,16.57 L13.29,16.57 L13.38,16.66 C13.6217438,17.062465 13.6936871,17.5444856 13.58,18 L13.58,18.06 L13.52,18.06 L13.45,18.06 L13.38,18.06 L13.29,18.06 L13.21,18.06 L13.12,18.06 C12.9287178,18.1381855 12.7474386,18.2388961 12.58,18.36 L12.48,18.44 L12.39,18.52 L12.28,18.6 L12,19 L11.89,19.1 L11.77,19.2 L11.66,19.31 L11.56,19.42 C11.3108665,19.6772611 11.1018602,19.9705442 10.94,20.29 L10.83,20.53 C10.7570538,20.7178795 10.6735884,20.9015034 10.58,21.08 L10.58,21.07 Z M11.22,22.44 L11.12,22.44 L11.12,22.35 C10.9530634,21.823576 11.0208882,21.2507603 11.3061486,20.7778791 C11.5914089,20.3049979 12.0664783,19.977848 12.61,19.88 L12.72,19.88 L12.72,19.98 C12.88699,20.5051848 12.8189984,21.0769024 12.5334928,21.5482741 C12.2479872,22.0196458 11.7727961,22.3447263 11.23,22.44 L11.22,22.44 Z M15.41,27.44 L15.3,27.55 C14.74,28.1 14.14,28.63 13.57,29.18 L13.38,29.37 C12.84,29.88 12.69,29.76 12,29.74 L11.87,29.74 L11.74,29.74 L11.62,29.74 C11.4342851,29.7336126 11.2498391,29.7067841 11.07,29.66 C11.0185078,29.6497028 10.972397,29.6213269 10.94,29.58 L10.94,29.51 C11.1104804,29.267838 11.3122283,29.0492777 11.54,28.86 L11.68,28.72 L13.3,27 L13.38,26.93 L13.46,26.85 L13.54,26.78 L13.61,26.72 C13.922288,26.4158614 14.256523,26.135104 14.61,25.88 L14.7,25.88 C14.94,25.73 15.05,25.88 15.2,26.04 L15.27,26.13 L15.34,26.23 L15.4,26.32 L15.4,26.39 L15.4,26.45 C15.83,27 15.71,27.09 15.42,27.43 L15.41,27.44 Z M20.64,29.72 L20.57,29.72 C20.33535,29.7592051 20.0979015,29.7792712 19.86,29.78 L18.78,29.78 C18.6181385,29.7418014 18.4779469,29.6411511 18.39,29.5 C18.19,29.23 17.99,28.99 17.77,28.73 L17.58,28.51 L17.48,28.38 C16.3673657,27.1617472 15.4498532,25.778732 14.76,24.28 L14.76,24.16 L14.67,23.91 L14.58,23.64 C14.3414681,22.9855051 14.1411311,22.3177151 13.98,21.64 L13.98,21.54 L13.98,21.44 C13.9107721,20.9256523 13.9107721,20.4043477 13.98,19.89 L13.98,19.67 L13.98,19.44 L14.04,18.97 C14.09,18.71 14.17,17.32 14.41,17.15 L14.5,17.15 L14.69,17.15 C14.96,17.15 15.06,17.22 15.12,17.49 L15.12,17.58 L15.12,17.67 C15.12,18.2 15.29,18.67 15.35,19.15 L15.35,19.47 L15.35,19.64 C15.3825142,20.7212422 15.5402331,21.795073 15.82,22.84 L15.82,22.92 L15.82,22.98 C15.82,23.04 15.9,23.09 15.95,22.98 C16.0408132,22.8455553 16.1084188,22.6968229 16.15,22.54 L16.15,22.4 L16.15,22.32 C16.4694028,20.8965363 16.4591413,19.4188905 16.12,18 L16.12,17.88 L16.12,17.78 L16.12,17.68 L16.12,17.58 L16.12,17.49 L16.12,17.4 L16.12,17.31 L16.12,17.23 L16.12,17.16 C15.8856865,16.6572965 15.5828026,16.1895091 15.22,15.77 L15.04,15.55 L14.85,15.34 C14.6510017,15.140098 14.4945265,14.9019835 14.39,14.64 L14.39,14.56 C14.46,13.56 16.28,13.97 16.88,14.02 L17.04,14.02 L17.2,14.02 L17,14 L17.13,14 C17.57,14.11 18.31,14.31 17.75,14.83 L17.75,14.89 C17.2870127,15.4581014 17.2195394,16.2519055 17.58,16.89 L17.58,16.96 L17.71,17.28 L17.77,17.45 L17.9,17.78 L18,18 L18.06,18.16 C18.2346029,18.6632638 18.3389203,19.1882155 18.37,19.72 L18.37,19.9 L18.37,20.27 C18.4116964,20.8474658 18.388215,21.4277907 18.3,22 L18.3,22.15 L18.3,22.3 L18.23,22.59 L18.15,22.88 C17.97,23.53 17.69,24.12 17.55,24.78 L17.55,25 C17.5007495,25.283414 17.5899439,25.5732957 17.79,25.78 L17.86,25.87 L17.94,25.98 L18.03,26.09 L18.12,26.22 L18.22,26.35 L18.33,26.49 C18.85,27.15 19.33,27.81 19.93,28.44 L20.04,28.56 L20.14,28.67 C20.35,28.91 20.58,29.12 20.79,29.36 C20.8866498,29.3986599 20.9336599,29.5083502 20.895,29.605 C20.8563401,29.7016498 20.7466498,29.7486599 20.65,29.71 L20.64,29.72 Z M26.64,21.55 L26.55,21.64 C26.4091788,21.7595223 26.2407575,21.8420144 26.06,21.88 L25.99,21.88 L25.91,21.88 L25.63,21.88 C25.4570047,21.8704573 25.2965796,21.7865987 25.19,21.65 L25.13,21.58 L25,21.54 C24.8084719,21.2999798 24.6013578,21.0728224 24.38,20.86 L24.16,20.65 L24,20.45 C23.2377602,19.8162962 22.2811674,19.4633099 21.29,19.45 L21.07,19.45 L20.86,19.45 L20.65,19.45 L20.45,19.45 L20.17,19.45 C19.52,19.38 19.31,19.15 19.17,18.51 L19.17,18.38 L19.17,18.32 C19.11,17.62 19.38,17.71 19.93,17.49 L20.02,17.49 L20.11,17.49 L20.2,17.43 L20.29,17.37 C21.0447526,16.8837778 21.6422346,16.1890313 22.01,15.37 L22.01,15.26 L22.01,15.17 C22.14,14.58 22.77,14.68 23.23,14.69 L23.39,14.69 L23.47,14.69 L23.61,14.69 L23.67,14.69 L23.73,14.69 C23.7841671,14.8419846 23.7841671,15.0080154 23.73,15.16 L23.73,15.25 L23.73,15.34 C23.6794993,15.5820249 23.5845614,15.8125884 23.45,16.02 L23.34,16.19 L23.1,16.52 L22.98,16.69 L22.88,16.86 C22.725643,17.0747404 22.6105324,17.3151183 22.54,17.57 L22.54,17.63 C22.5542277,17.7047611 22.6077892,17.7659742 22.68,17.79 L22.76,17.79 L22.86,17.79 C23.86,17.9 24.8,18.24 25.69,17.62 L25.96,17.43 C26.7306911,16.8710343 27.2767401,16.0555066 27.5,15.13 L27.5,14.99 L27.5,14.84 L27.5,14.8 L27.5,14.5 L27.5,14.16 C27.5082721,14.0109184 27.5684086,13.8694209 27.67,13.76 L27.73,13.7 L27.81,13.64 C28.11,13.43 28.31,13.23 28.59,12.98 L28.68,12.92 C29.04,12.64 29.01,13.22 29.05,13.42 L29.05,13.57 L29.05,13.65 L29.05,13.74 C29.1769347,15.106395 28.8424729,16.4759282 28.1,17.63 L27.97,17.81 L27.84,17.98 C27.2675737,18.6406951 26.5922144,19.2046201 25.84,19.65 C25.59,19.97 26.38,20.65 26.53,20.93 L26.53,21.01 C26.83,21.37 26.71,21.44 26.63,21.54 L26.64,21.55 Z M27.93,20.67 L27.82,20.67 L27.82,20.55 C27.8253796,19.9386619 28.094414,19.3594075 28.558053,18.9609078 C29.0216921,18.5624081 29.6347938,18.3834629 30.24,18.47 L30.35,18.47 L30.35,18.59 C30.345474,19.2027556 30.0747905,19.7832763 29.6083218,20.1806386 C29.141853,20.5780009 28.5256817,20.752949 27.92,20.66 L27.93,20.67 Z" id="Shape" fill-rule="nonzero"></path>
        </g>
    </g>
</svg>