<?xml version="1.0" encoding="UTF-8"?>
<svg width="99px" height="18px" viewBox="0 0 99 18" version="1.1" xmlns="http://www.w3.org/2000/svg" xmlns:xlink="http://www.w3.org/1999/xlink">
    <!-- Generator: Sketch 52.5 (67469) - http://www.bohemiancoding.com/sketch -->
    <title>allic</title>
    <desc>Created with Sketch.</desc>
    <g id="Page-1" stroke="none" stroke-width="1" fill="none" fill-rule="evenodd">
        <g id="Artboard" transform="translate(-23.000000, -39.000000)" fill="#FFFFFF">
            <g id="allic" transform="translate(23.000000, 39.000000)">
                <path d="M21.52,13.08 L22.22,4.08 C22.5276701,4.03303725 22.838846,4.01296139 23.15,4.02 C23.4545278,4.01223721 23.7591278,4.03232073 24.06,4.08 L25.32,8.23 C25.5477173,8.9202514 25.7281352,9.62521762 25.86,10.34 L25.94,10.34 C26.0669636,9.62695621 26.2372795,8.92231584 26.45,8.23 L27.71,4 C28.3274212,3.92002786 28.9525788,3.92002786 29.57,4 L30.28,13 C30.0541399,13.0547995 29.822407,13.0816671 29.59,13.08 C29.3670114,13.0975485 29.1429886,13.0975485 28.92,13.08 L28.62,8.22 C28.56,7.51 28.53,6.61 28.51,5.52 L28.43,5.52 L26.61,11.68 C26.3683718,11.7170684 26.1244381,11.7371178 25.88,11.74 C25.6455001,11.7374176 25.4115188,11.717362 25.18,11.68 L23.36,5.52 L23.28,5.52 C23.28,6.86 23.2,7.76 23.17,8.22 L22.86,13.08 C22.6370444,13.0983684 22.4129556,13.0983684 22.19,13.08 C21.967631,13.1093515 21.742369,13.1093515 21.52,13.08 Z" id="Path"></path>
                <path d="M33.33,12.47 C32.2986666,11.4468661 31.7779487,10.0167253 31.91,8.57 C31.8979612,7.89548468 31.9787174,7.22251675 32.15,6.57 C32.2978271,6.03692101 32.5418358,5.53534744 32.87,5.09 C33.1731413,4.70778898 33.559656,4.3999454 34,4.19 C35.012925,3.74323624 36.167075,3.74323624 37.18,4.19 C37.6397044,4.40057019 38.0387283,4.72391718 38.34,5.13 C38.6705942,5.57250732 38.9117582,6.07521551 39.05,6.61 C39.2282872,7.26133259 39.3124735,7.93482232 39.3,8.61 C39.3153014,9.28532457 39.2310643,9.95922114 39.05,10.61 C38.9103033,11.1110416 38.679817,11.5821827 38.37,12 C38.0687283,12.4060828 37.6697044,12.7294298 37.21,12.94 C36.7147734,13.1671821 36.1747584,13.2799701 35.63,13.27 C34.7896792,13.3042759 33.9676655,13.0183581 33.33,12.47 Z M33.81,6.18 C33.6606759,6.54326073 33.553314,6.9223824 33.49,7.31 C33.4290901,7.70036317 33.3989972,8.09491468 33.4,8.49 C33.3997781,8.9348622 33.4298477,9.37922327 33.49,9.82 C33.5444794,10.227957 33.6590548,10.625601 33.83,11 C33.9892502,11.3285527 34.2260637,11.6134153 34.52,11.83 C34.8544214,12.04191 35.2442128,12.1497987 35.64,12.14 C36.0590867,12.1641158 36.4722772,12.0323223 36.8,11.77 C37.093133,11.5270965 37.3201559,11.2140801 37.46,10.86 C37.6203955,10.4908839 37.7248768,10.0999216 37.77,9.7 C37.8161453,9.31839648 37.8395201,8.93438315 37.84,8.55 C37.8398077,8.16560798 37.8164319,7.78157744 37.77,7.4 C37.724625,7.00122769 37.623645,6.61077146 37.47,6.24 C37.3274126,5.8875805 37.0967111,5.57768294 36.8,5.34 C36.4606447,5.09561264 36.0474797,4.9755476 35.63,5 C35.2264117,4.98915747 34.8289909,5.10071417 34.49,5.32 C34.1853608,5.53532343 33.9492648,5.8339154 33.81,6.18 Z" id="Shape" fill-rule="nonzero"></path>
                <path d="M43.8,11.83 L45.91,4 C46.1170578,3.95625611 46.3284074,3.93612757 46.54,3.94 C46.7494447,3.93660229 46.9582778,3.9635485 47.16,4.02 L47.23,4.13 L44.6,13.13 C44.14,13.13 43.78,13.13 43.51,13.13 C43.2914893,13.1379086 43.0745954,13.08971 42.88,12.99 C42.700111,12.8555336 42.5756225,12.6599088 42.53,12.44 L40.09,4.12 C40.3581388,3.98736309 40.6511075,3.9124176 40.95,3.9 C41.33,3.9 41.59,4.13 41.72,4.59 L43.1,9.39 C43.31,10.14 43.51,10.9 43.68,11.67 C43.71,11.79 43.75,11.83 43.8,11.83 Z" id="Path"></path>
                <path d="M48.7,13.09 L48.7,4 C48.930544,3.95522333 49.1651988,3.93511006 49.4,3.94 C49.6380962,3.93565473 49.8760096,3.95576009 50.11,4 L50.11,13.06 C49.8760096,13.1042399 49.6380962,13.1243453 49.4,13.12 C49.1662624,13.1347931 48.9316149,13.1247367 48.7,13.09 Z" id="Path"></path>
                <path d="M53.94,11.26 L53.94,11.94 C54.2331112,11.9238544 54.5268888,11.9238544 54.82,11.94 L58.26,11.94 C58.2747073,12.1196996 58.2747073,12.3003004 58.26,12.48 C58.193247,12.9160155 57.7861707,13.2157309 57.35,13.15 L53.36,13.15 C53.1376793,13.160246 52.9220396,13.0725282 52.77,12.91 C52.6132975,12.7351007 52.5339535,12.5042817 52.55,12.27 L52.55,4.11 L52.64,4.03 L58,4.03 C58.0183191,4.21621722 58.0183191,4.40378278 58,4.59 C58.0028048,4.80501127 57.9655008,5.01866113 57.89,5.22 L53.89,5.22 L53.89,7.94 L57.21,7.94 C57.2625779,8.13208466 57.2861715,8.33094507 57.28,8.53 C57.287197,8.72580669 57.2635755,8.92152793 57.21,9.11 L54.77,9.11 L53.94,9.11 L53.94,11.26 Z" id="Path"></path>
                <path d="M59.27,12.27 C59.3003435,11.8386038 59.5154008,11.4412945 59.86,11.18 C60.645322,11.7297489 61.5721262,12.0421548 62.53,12.08 C62.9728479,12.108481 63.4125918,11.9888707 63.78,11.74 C64.0691284,11.5324707 64.2374536,11.1958203 64.23,10.84 C64.23,10.2266667 63.83,9.74666667 63.03,9.4 L61.46,8.73 C60.4237115,8.43171209 59.6920671,7.50710656 59.64,6.43 C59.6395919,6.0846183 59.7146773,5.74332092 59.86,5.43 C60.0164174,5.11647579 60.2300905,4.83497 60.49,4.6 C60.7817611,4.35184229 61.1224761,4.16785617 61.49,4.06 C61.8910671,3.93312189 62.3093434,3.86903117 62.73,3.87 C63.6917187,3.87772908 64.6377874,4.11424626 65.49,4.56 C65.4826969,4.98503745 65.2977381,5.38759485 64.98,5.67 C64.2722224,5.27091775 63.4814728,5.04156613 62.67,5 C62.2547075,4.9807544 61.8453429,5.10426958 61.51,5.35 C61.2432307,5.54404895 61.080881,5.85029942 61.07,6.18 C61.0490767,6.46487693 61.1509772,6.74510347 61.35,6.95 C61.5926053,7.16759089 61.874238,7.33724913 62.18,7.45 L63.71,8.11 C64.2827976,8.31853803 64.7971966,8.66147067 65.21,9.11 C65.5437296,9.5146375 65.7211513,10.0256122 65.71,10.55 C65.7343559,11.2847981 65.4301134,11.9922535 64.88,12.48 C64.1579118,13.0248547 63.262033,13.2879302 62.36,13.22 C61.2559109,13.2348669 60.1750417,12.9025609 59.27,12.27 Z" id="Path"></path>
                <path d="M71,5.22 L70.23,5.22 L70.23,13.1 C69.7533333,13.18 69.2666667,13.18 68.79,13.1 L68.79,6.2 L68.79,5.2 L66.48,5.2 C66.438226,5.00277923 66.4181069,4.80158747 66.42,4.6 C66.4185952,4.40174178 66.438713,4.20391669 66.48,4.01 L72.6,4.01 C72.6505302,4.20948596 72.6773819,4.4142305 72.68,4.62 C72.68,5.01 72.41,5.2 71.88,5.2 L71,5.22 Z" id="Path"></path>
                <path d="M74.48,12.47 C73.4486666,11.4468661 72.9279487,10.0167253 73.06,8.57 C73.0464152,7.89476388 73.1306212,7.22111566 73.31,6.57 C73.4487408,6.05137525 73.6827185,5.56307401 74,5.13 C74.3071376,4.72958293 74.7046227,4.40748298 75.16,4.19 C75.6611814,3.9583956 76.2079469,3.84220793 76.76,3.85 C77.3047584,3.84002994 77.8447734,3.95281789 78.34,4.18 C78.801763,4.39170981 79.2037756,4.7146943 79.51,5.12 C79.8329274,5.56710757 80.0733721,6.06831629 80.22,6.6 C80.3896901,7.25281884 80.47042,7.92556794 80.46,8.6 C80.4730642,9.27456706 80.3922912,9.94767559 80.22,10.6 C80.070882,11.1023507 79.8375676,11.5757423 79.53,12 C79.2237756,12.4053057 78.821763,12.7282902 78.36,12.94 C77.8647734,13.1671821 77.3247584,13.2799701 76.78,13.27 C75.9396792,13.3042759 75.1176655,13.0183581 74.48,12.47 Z M75,6.18 C74.8506759,6.54326073 74.743314,6.9223824 74.68,7.31 C74.6190901,7.70036317 74.5889972,8.09491468 74.59,8.49 C74.5897781,8.9348622 74.6198477,9.37922327 74.68,9.82 C74.7234689,10.2278043 74.8314832,10.626107 75,11 C75.1525531,11.3328175 75.3906473,11.6192207 75.69,11.83 C76.0195258,12.0445611 76.4069852,12.1527705 76.8,12.14 C77.2325618,12.1743357 77.6618801,12.0419625 78,11.77 C78.2931515,11.5248547 78.5229623,11.2127236 78.67,10.86 C78.8224251,10.4888214 78.9233607,10.098537 78.97,9.7 C79.0027894,9.31760038 79.012807,8.9335891 79,8.55 C78.9998077,8.16560798 78.9764319,7.78157744 78.93,7.4 C78.884625,7.00122769 78.783645,6.61077146 78.63,6.24 C78.4874126,5.8875805 78.2567111,5.57768294 77.96,5.34 C77.6179338,5.09338526 77.2008447,4.97320701 76.78,5 C76.3764117,4.98915747 75.9789909,5.10071417 75.64,5.32 C75.3501257,5.5408646 75.1283234,5.83891151 75,6.18 Z" id="Shape" fill-rule="nonzero"></path>
                <path d="M82.43,4 L85.29,4 C86.0888273,3.95749955 86.8753964,4.21019822 87.5,4.71 C88.0455264,5.22813051 88.337705,5.95857695 88.3,6.71 C88.3115978,7.25722466 88.1468108,7.79365901 87.83,8.24 C87.5250452,8.65771375 87.0938031,8.96624467 86.6,9.12 C87.0711625,9.33111079 87.4181877,9.7482793 87.54,10.25 L88.13,11.8 C88.2267173,12.1830084 88.43152,12.5301316 88.72,12.8 C88.4937421,13.1203806 88.1090661,13.2896381 87.72,13.24 C87.5106896,13.2537554 87.3048268,13.1815229 87.15,13.04 C86.9907744,12.8400741 86.8688306,12.6131232 86.79,12.37 L86.13,10.58 C86.0225545,10.2799122 85.8559254,10.0044642 85.64,9.77 C85.3997944,9.56993071 85.0919527,9.46970321 84.78,9.49 L83.75,9.49 L83.75,13.14 C83.5160096,13.1842399 83.2780962,13.2043453 83.04,13.2 C82.8085245,13.2044827 82.5772274,13.1843699 82.35,13.14 L82.35,4.14 L82.43,4 Z M83.75,5.07 L83.75,8.3 L85.22,8.3 C85.6836332,8.34966972 86.1444121,8.18378931 86.47,7.85 C86.7260234,7.52665097 86.8573346,7.1220705 86.84,6.71 C86.9054731,6.26430079 86.75558,5.81397339 86.4360561,5.49642185 C86.1165322,5.17887031 85.6652853,5.03176843 85.22,5.1 L83.75,5.07 Z" id="Shape" fill-rule="nonzero"></path>
                <path d="M90.09,13.08 L90.79,4.08 C91.0977545,4.03382055 91.4088629,4.01374904 91.72,4.02 C92.0278437,4.0124548 92.3357439,4.03253524 92.64,4.08 L93.9,8.23 C94.1246634,8.92039922 94.301745,9.62538443 94.43,10.34 L94.51,10.34 C94.6298824,9.61082768 94.7935111,8.88952548 95,8.18 L96.29,4 C96.9074212,3.92002786 97.5325788,3.92002786 98.15,4 L98.85,13 C98.6276466,13.0554151 98.3991431,13.0822979 98.17,13.08 C97.9470282,13.0979707 97.7229718,13.0979707 97.5,13.08 L97.19,8.22 C97.19,7.51 97.11,6.61 97.09,5.52 L97,5.52 L95.18,11.68 C94.9383267,11.7166845 94.6944198,11.7367317 94.45,11.74 C94.215482,11.7377963 93.9814722,11.7177383 93.75,11.68 L91.93,5.52 L91.85,5.52 C91.85,6.86 91.77,7.76 91.74,8.22 L91.42,13.08 C91.2003756,13.098181 90.9796244,13.098181 90.76,13.08 C90.537573,13.1084547 90.312427,13.1084547 90.09,13.08 Z" id="Path"></path>
                <path d="M14.21,7.46 L10,5 L8.06,7.15 L9.88,7.54 C10.0184742,7.54867138 10.1355849,7.64559058 10.17,7.78 C10.2011159,7.91446394 10.145266,8.05408882 10.03,8.13 L4,13.14 C3.93195471,13.2165907 3.83219576,13.2572332 3.73,13.25 C3.67913364,13.2367582 3.63801531,13.1993779 3.62,13.15 C3.59502038,13.042917 3.62501783,12.9304265 3.7,12.85 L6,9.26 L3.74,8.76 C3.60796891,8.72969218 3.49943046,8.63612455 3.45,8.51 C3.40182691,8.38332265 3.42888058,8.24032472 3.52,8.14 L7.15,3.43 L3.28,1.15 C2.64119867,0.761110027 1.83880133,0.761110027 1.2,1.15 C0.559677109,1.51913268 0.175130744,2.21131613 0.2,2.95 L0.2,15.56 C0.175130744,16.2986839 0.559677109,16.9908673 1.2,17.36 C1.83880133,17.74889 2.64119867,17.74889 3.28,17.36 L14.21,11.05 C14.8474087,10.6768256 15.2391075,9.99361282 15.2391075,9.255 C15.2391075,8.51638718 14.8474087,7.83317436 14.21,7.46 Z" id="Path"></path>
            </g>
        </g>
    </g>
</svg>