<?xml version="1.0" encoding="UTF-8"?>
<svg width="54px" height="44px" viewBox="0 0 54 44" version="1.1" xmlns="http://www.w3.org/2000/svg" xmlns:xlink="http://www.w3.org/1999/xlink">
    <!-- Generator: Sketch 60.1 (88133) - https://sketch.com -->
    <title>Combined Shape</title>
    <desc>Created with Sketch.</desc>
    <g id="Symbols" stroke="none" stroke-width="1" fill="none" fill-rule="evenodd">
        <g id="Logo-2" fill="#FFFFFF">
            <g id="Logo">
                <g id="Group-6">
                    <path d="M11.08,36.527506 L12.59,40.177506 L14.11,36.527506 L15.61,36.527506 L13.18,42.237506 L13.0847656,42.4614123 C12.8561719,42.9638081 12.5829167,43.3258393 12.265,43.547506 C11.9016667,43.8008393 11.4633333,43.927506 10.95,43.927506 C10.67,43.927506 10.3933333,43.8841727 10.12,43.797506 C9.84666667,43.7108393 9.62333333,43.5908393 9.45,43.437506 L9.45,43.437506 L10.02,42.327506 L10.1461111,42.4263949 C10.2342593,42.4871356 10.3305556,42.537506 10.435,42.577506 C10.5916667,42.637506 10.7466667,42.667506 10.9,42.667506 C11.1133333,42.667506 11.2866667,42.6158393 11.42,42.512506 C11.5533333,42.4091727 11.6733333,42.237506 11.78,41.997506 L11.78,41.997506 L11.8,41.947506 L9.47,36.527506 L11.08,36.527506 Z M18.82,34.787506 C19.2666667,34.787506 19.7033333,34.8408393 20.13,34.947506 C20.5566667,35.0541727 20.93,35.207506 21.25,35.407506 L21.25,35.407506 L20.75,36.637506 L20.5075,36.5085998 C19.9416667,36.2278706 19.3758333,36.087506 18.81,36.087506 C18.3566667,36.087506 18.0216667,36.1608393 17.805,36.307506 C17.5883333,36.4541727 17.48,36.647506 17.48,36.887506 C17.48,37.127506 17.605,37.3058393 17.855,37.422506 C18.105,37.5391727 18.4866667,37.6541727 19,37.767506 C19.5333333,37.8941727 19.97,38.0208393 20.31,38.147506 C20.65,38.2741727 20.9416667,38.4741727 21.185,38.747506 C21.4283333,39.0208393 21.55,39.3908393 21.55,39.857506 C21.55,40.257506 21.4383333,40.622506 21.215,40.952506 C20.9916667,41.282506 20.6566667,41.5441727 20.21,41.737506 C19.7633333,41.9308393 19.22,42.027506 18.58,42.027506 C18.0266667,42.027506 17.4916667,41.952506 16.975,41.802506 C16.4583333,41.652506 16.0433333,41.457506 15.73,41.217506 L15.73,41.217506 L16.28,39.997506 L16.4668,40.124306 C16.7249333,40.2864393 17.0193333,40.4208393 17.35,40.527506 C17.7633333,40.6608393 18.1766667,40.727506 18.59,40.727506 C19.05,40.727506 19.39,40.6591727 19.61,40.522506 C19.83,40.3858393 19.94,40.2041727 19.94,39.977506 C19.94,39.8108393 19.875,39.672506 19.745,39.562506 C19.615,39.452506 19.4483333,39.3641727 19.245,39.297506 C19.0416667,39.2308393 18.7666667,39.157506 18.42,39.077506 C17.8866667,38.9508393 17.45,38.8241727 17.11,38.697506 C16.77,38.5708393 16.4783333,38.367506 16.235,38.087506 C15.9916667,37.807506 15.87,37.4341727 15.87,36.967506 C15.87,36.5608393 15.98,36.192506 16.2,35.862506 C16.42,35.532506 16.7516667,35.2708393 17.195,35.077506 C17.6383333,34.8841727 18.18,34.787506 18.82,34.787506 Z M45.06,36.447506 C45.6266667,36.447506 46.1216667,36.5658393 46.545,36.802506 C46.9683333,37.0391727 47.2766667,37.377506 47.47,37.817506 L47.47,37.817506 L46.26,38.467506 L46.1723,38.326906 C45.8981,37.927306 45.524,37.727506 45.05,37.727506 C44.6433333,37.727506 44.3066667,37.8608393 44.04,38.127506 C43.7733333,38.3941727 43.64,38.757506 43.64,39.217506 C43.64,39.677506 43.7733333,40.0408393 44.04,40.307506 C44.3066667,40.5741727 44.6433333,40.707506 45.05,40.707506 C45.5833333,40.707506 45.9866667,40.4608393 46.26,39.967506 L46.26,39.967506 L47.47,40.627506 L47.380102,40.8046489 C47.1862245,41.147506 46.9078571,41.4217917 46.545,41.627506 C46.1216667,41.867506 45.6266667,41.987506 45.06,41.987506 C44.4866667,41.987506 43.9716667,41.8691727 43.515,41.632506 C43.0583333,41.3958393 42.7016667,41.067506 42.445,40.647506 C42.1883333,40.227506 42.06,39.7508393 42.06,39.217506 C42.06,38.6841727 42.1883333,38.207506 42.445,37.787506 C42.7016667,37.367506 43.0583333,37.0391727 43.515,36.802506 C43.9716667,36.5658393 44.4866667,36.447506 45.06,36.447506 Z M25.02,36.447506 C25.5466667,36.447506 26.0233333,36.5608393 26.45,36.787506 C26.8766667,37.0141727 27.2116667,37.3391727 27.455,37.762506 C27.6983333,38.1858393 27.82,38.677506 27.82,39.237506 C27.82,39.257506 27.81,39.397506 27.79,39.657506 L27.79,39.657506 L23.72,39.657506 L23.757551,39.7960774 C23.844898,40.0646489 24.0057143,40.2817917 24.24,40.447506 C24.5133333,40.6408393 24.8533333,40.737506 25.26,40.737506 C25.54,40.737506 25.7883333,40.6958393 26.005,40.612506 C26.2216667,40.5291727 26.4233333,40.397506 26.61,40.217506 L26.61,40.217506 L27.44,41.117506 L27.3084722,41.2564643 C26.8083796,41.7438255 26.1122222,41.987506 25.22,41.987506 C24.6133333,41.987506 24.0766667,41.8691727 23.61,41.632506 C23.1433333,41.3958393 22.7833333,41.067506 22.53,40.647506 C22.2766667,40.227506 22.15,39.7508393 22.15,39.217506 C22.15,38.6908393 22.275,38.2158393 22.525,37.792506 C22.775,37.3691727 23.1183333,37.0391727 23.555,36.802506 C23.9916667,36.5658393 24.48,36.447506 25.02,36.447506 Z M50.7,36.447506 C51.2266667,36.447506 51.7033333,36.5608393 52.13,36.787506 C52.5566667,37.0141727 52.8916667,37.3391727 53.135,37.762506 C53.3783333,38.1858393 53.5,38.677506 53.5,39.237506 C53.5,39.257506 53.49,39.397506 53.47,39.657506 L53.47,39.657506 L49.4,39.657506 L49.437551,39.7960774 C49.524898,40.0646489 49.6857143,40.2817917 49.92,40.447506 C50.1933333,40.6408393 50.5333333,40.737506 50.94,40.737506 C51.22,40.737506 51.4683333,40.6958393 51.685,40.612506 C51.9016667,40.5291727 52.1033333,40.397506 52.29,40.217506 L52.29,40.217506 L53.12,41.117506 L52.9884722,41.2564643 C52.4883796,41.7438255 51.7922222,41.987506 50.9,41.987506 C50.2933333,41.987506 49.7566667,41.8691727 49.29,41.632506 C48.8233333,41.3958393 48.4633333,41.067506 48.21,40.647506 C47.9566667,40.227506 47.83,39.7508393 47.83,39.217506 C47.83,38.6908393 47.955,38.2158393 48.205,37.792506 C48.455,37.3691727 48.7983333,37.0391727 49.235,36.802506 C49.6716667,36.5658393 50.16,36.447506 50.7,36.447506 Z M41.01,36.527506 L41.01,41.907506 L39.45,41.907506 L39.45,36.527506 L41.01,36.527506 Z M34.28,36.527506 L35.77,40.187506 L37.31,36.527506 L38.81,36.527506 L36.54,41.907506 L34.93,41.907506 L32.67,36.527506 L34.28,36.527506 Z M2.17,34.907506 L4.79,39.257506 L7.37,34.907506 L8.7,34.907506 L8.72,41.907506 L7.2,41.907506 L7.19,37.707506 L5.13,41.167506 L4.4,41.167506 L2.35,37.797506 L2.35,41.907506 L0.83,41.907506 L0.83,34.907506 L2.17,34.907506 Z M32.2,36.447506 L32.2,37.887506 L32.1028,37.880306 C31.9822667,37.8717727 31.898,37.867506 31.85,37.867506 C31.4033333,37.867506 31.0533333,37.992506 30.8,38.242506 C30.5466667,38.492506 30.42,38.867506 30.42,39.367506 L30.42,39.367506 L30.42,41.907506 L28.86,41.907506 L28.86,36.527506 L30.35,36.527506 L30.35,37.237506 L30.44875,37.1127838 C30.6223611,36.9137097 30.8411111,36.7586171 31.105,36.647506 C31.4216667,36.5141727 31.7866667,36.447506 32.2,36.447506 L32.2,36.447506 Z M50.71,37.627506 C50.3566667,37.627506 50.06,37.727506 49.82,37.927506 C49.58,38.127506 49.4333333,38.4008393 49.38,38.747506 L49.38,38.747506 L52.03,38.747506 C51.9766667,38.407506 51.83,38.1358393 51.59,37.932506 C51.35,37.7291727 51.0566667,37.627506 50.71,37.627506 Z M25.03,37.627506 C24.6766667,37.627506 24.38,37.727506 24.14,37.927506 C23.9,38.127506 23.7533333,38.4008393 23.7,38.747506 L23.7,38.747506 L26.35,38.747506 C26.2966667,38.407506 26.15,38.1358393 25.91,37.932506 C25.67,37.7291727 25.3766667,37.627506 25.03,37.627506 Z M40.23,34.037506 C40.5166667,34.037506 40.75,34.117506 40.93,34.277506 C41.11,34.437506 41.2,34.637506 41.2,34.877506 C41.2,35.137506 41.11,35.352506 40.93,35.522506 C40.75,35.692506 40.5166667,35.777506 40.23,35.777506 C39.9433333,35.777506 39.71,35.6941727 39.53,35.527506 C39.35,35.3608393 39.26,35.1541727 39.26,34.907506 C39.26,34.6608393 39.35,34.4541727 39.53,34.287506 C39.71,34.1208393 39.9433333,34.037506 40.23,34.037506 Z M40.337208,14.207225 C40.851903,14.207225 41.2697839,14.6332307 41.2697839,15.1579328 L41.2697839,15.1579328 L41.2697839,31.2555101 C41.2697839,31.7802122 40.851903,32.207225 40.337208,32.207225 L40.337208,32.207225 L31.0035454,32.207225 C30.5125599,32.207225 30.1104854,31.8194893 30.0739331,31.3290288 C30.0719573,31.3068725 30.0699815,31.282702 30.0699815,31.2555101 L30.0699815,31.2555101 L30.0699815,22.0364646 C30.0699815,20.4623584 28.8143629,19.18132 27.2702779,19.18132 C25.7261929,19.18132 24.4695864,20.4623584 24.4695864,22.0364646 L24.4695864,22.0364646 L24.4695864,31.2555101 C24.4695864,31.282702 24.4685985,31.3068725 24.4666227,31.3300359 C24.4290825,31.8204964 24.027008,32.207225 23.5370104,32.207225 L23.5370104,32.207225 L14.2033478,32.207225 C13.6876649,32.207225 13.2697839,31.7802122 13.2697839,31.2555101 L13.2697839,31.2555101 L13.2697839,15.1579328 C13.2697839,14.6332307 13.6876649,14.207225 14.2033478,14.207225 C14.7180428,14.207225 15.1369116,14.6332307 15.1369116,15.1579328 L15.1369116,15.1579328 L15.1369116,30.3037952 L22.6034466,30.3037952 L22.6034466,22.0364646 C22.6034466,19.4129543 24.696803,17.2788974 27.2702779,17.2788974 C29.8437528,17.2788974 31.9371092,19.4129543 31.9371092,22.0364646 L31.9371092,22.0364646 L31.9371092,30.3037952 L39.4036442,30.3037952 L39.4036442,15.1579328 C39.4036442,14.6332307 39.822513,14.207225 40.337208,14.207225 Z M26.7170644,0.383078335 C27.0457554,0.148607222 27.4932503,0.148607222 27.8229313,0.383078335 L27.8229313,0.383078335 L44.8871401,12.5601378 C45.303944,12.8573275 45.394037,13.4275844 45.0891068,13.833808 C44.9059507,14.0779282 44.6208212,14.207225 44.3327216,14.207225 C44.1416453,14.207225 43.9485888,14.1493309 43.7822633,14.030648 L43.7822633,14.030648 L27.2704929,2.24823332 L10.7577324,14.030648 C10.3409285,14.3278377 9.75581902,14.2400317 9.45088886,13.833808 C9.14496866,13.4275844 9.2360517,12.8573275 9.65285559,12.5601378 L9.65285559,12.5601378 Z" id="Combined-Shape"></path>
                </g>
            </g>
        </g>
    </g>
</svg>