<?xml version="1.0" encoding="UTF-8"?>
<svg width="139px" height="37px" viewBox="0 0 139 37" version="1.1" xmlns="http://www.w3.org/2000/svg" xmlns:xlink="http://www.w3.org/1999/xlink">
    <!-- Generator: Sketch 60.1 (88133) - https://sketch.com -->
    <title>Group 14</title>
    <desc>Created with Sketch.</desc>
    <g id="Home" stroke="none" stroke-width="1" fill="none" fill-rule="evenodd">
        <g id="Group-14" transform="translate(-1.000000, 0.000000)" fill="#FFFFFF">
            <g id="Group-3" transform="translate(0.860870, 0.000000)">
                <path d="M135.445605,28.1930707 C136.276732,28.1930707 136.94187,28.2749425 137.443392,28.4363132 C137.944913,28.5988704 138.316015,28.8741497 138.554327,29.2645243 C138.793824,29.6537124 138.913573,30.1935921 138.913573,30.8806039 C138.913573,31.5688023 138.688303,32.0683394 138.238949,32.3768421 C137.78841,32.6841583 137.14817,32.8395962 136.315857,32.8395962 L132.966452,32.8395962 C132.978309,33.537287 133.057746,34.0771667 133.20595,34.4580489 C133.354153,34.836558 133.626848,35.115397 134.026406,35.2921928 C134.425963,35.467802 135.000994,35.5567932 135.751497,35.5567932 L138.690674,35.5567932 L138.690674,36.2865208 C138.076518,36.3577137 137.528757,36.4099219 137.052134,36.4455183 C136.573139,36.4811148 136.031306,36.498913 135.42782,36.498913 C134.44849,36.498913 133.687315,36.3731389 133.146668,36.1192174 C132.606021,35.8664825 132.214763,35.441698 131.975266,34.8436773 C131.736954,34.2468432 131.617205,33.4115128 131.617205,32.337686 C131.617205,31.2555534 131.739325,30.4154768 131.984751,29.8174561 C132.22899,29.2218086 132.626177,28.8005837 133.171566,28.5573412 C133.719327,28.3152852 134.476945,28.1930707 135.445605,28.1930707 Z M126.918553,28.2084958 C128.011704,28.2084958 129.01949,28.2796887 129.943096,28.4220746 L129.943096,29.1351905 L127.276614,29.1351905 C126.650601,29.1351905 126.146708,29.2253682 125.764935,29.4092833 C125.381977,29.5896387 125.092683,29.9159397 124.893497,30.3881861 C124.694311,30.856873 124.593533,31.5296462 124.593533,32.3993865 C124.593533,33.2287842 124.70024,33.8742668 124.910096,34.3358344 C125.121138,34.7962154 125.419917,35.115397 125.807618,35.2921928 C126.194133,35.467802 126.689727,35.5567932 127.293213,35.5567932 L130.079443,35.5567932 L130.079443,36.2556705 C129.008819,36.4170412 127.942938,36.498913 126.88417,36.498913 C125.722253,36.498913 124.824731,36.1975296 124.19279,35.5959493 C123.560849,34.994369 123.244286,33.9181692 123.244286,32.3685363 C123.244286,31.2864037 123.388933,30.4415808 123.679412,29.8328813 C123.971077,29.2253682 124.383676,28.8041433 124.918396,28.565647 C125.4543,28.3283372 126.120624,28.2084958 126.918553,28.2084958 Z M97.6821016,28.1930707 C98.5132283,28.1930707 99.1795524,28.2749425 99.6810739,28.4363132 C100.18141,28.5988704 100.552512,28.8741497 100.790824,29.2645243 C101.030321,29.6537124 101.15007,30.1935921 101.15007,30.8806039 C101.15007,31.5688023 100.925985,32.0683394 100.475446,32.3768421 C100.024907,32.6841583 99.3846664,32.8395962 98.5523541,32.8395962 L95.2029492,32.8395962 C95.2148055,33.537287 95.2954283,34.0771667 95.4424464,34.4580489 C95.5906502,34.836558 95.8633451,35.115397 96.2640881,35.2921928 C96.6624598,35.467802 97.2374903,35.5567932 97.9879942,35.5567932 L100.927171,35.5567932 L100.927171,36.2865208 C100.313015,36.3577137 99.7652536,36.4099219 99.2874447,36.4455183 C98.8096358,36.4811148 98.2678029,36.498913 97.6643172,36.498913 C96.6849867,36.498913 95.9238122,36.3731389 95.3831649,36.1192174 C94.841332,35.8664825 94.4512597,35.441698 94.212948,34.8436773 C93.9734508,34.2468432 93.8537021,33.4115128 93.8537021,32.337686 C93.8537021,31.2555534 93.9770077,30.4154768 94.2212475,29.8174561 C94.4654873,29.2218086 94.8626733,28.8005837 95.4092488,28.5573412 C95.9558242,28.3152852 96.7134419,28.1930707 97.6821016,28.1930707 Z M88.3855763,28.2239209 C88.8752415,28.2239209 89.453829,28.2464654 90.1201531,28.2915542 C90.7864772,28.3366431 91.3081544,28.3900378 91.6839991,28.4517383 L91.6839991,29.1802793 L88.1626778,29.1802793 C87.5485214,29.1802793 87.0920539,29.2728302 86.7956464,29.4531856 C86.5004245,29.6359141 86.3522207,29.9645882 86.3522207,30.4415808 L86.3522207,30.7738145 C86.3522207,31.2104645 86.4968676,31.4999825 86.7873469,31.6471145 C87.0790119,31.7942466 87.5248088,31.8689992 88.1282945,31.8689992 L89.4277451,31.8689992 C90.2588718,31.8689992 90.9038545,32.0410488 91.3591365,32.385148 C91.8144184,32.7292471 92.043245,33.2252246 92.043245,33.8718937 L92.043245,34.4343179 C92.043245,35.2043882 91.7622507,35.7407083 91.2050046,36.0432783 C90.6465728,36.3470348 89.8379731,36.498913 88.7792055,36.498913 C88.2658276,36.498913 87.6220305,36.4787417 86.8478141,36.438399 C86.072412,36.3980564 85.543621,36.3470348 85.2578842,36.2865208 L85.2578842,35.5567932 L89.0009183,35.5567932 C89.6387873,35.5567932 90.1047399,35.4820406 90.402333,35.3301624 C90.6987405,35.1782841 90.8457587,34.8591024 90.8457587,34.3726174 L90.8457587,34.0095334 C90.8457587,33.2489556 90.293255,32.8704465 89.1894335,32.8704465 L87.9077674,32.8704465 C87.0304011,32.8704465 86.354592,32.7185682 85.8827112,32.4148117 C85.4084592,32.1098686 85.1725188,31.5949064 85.1725188,30.8651788 L85.1725188,30.4415808 C85.1725188,29.6715106 85.4262436,29.110273 85.9336933,28.7554948 C86.4399573,28.4007167 87.2580421,28.2239209 88.3855763,28.2239209 Z M120.971433,28.2998601 L120.971433,36.4075488 L119.621,36.4075488 L119.621,28.2998601 L120.971433,28.2998601 Z M110.872236,28.2998601 L113.709449,35.283887 L116.630841,28.2998601 L117.997873,28.2998601 L114.459953,36.4075488 L112.92219,36.4075488 L109.488606,28.2998601 L110.872236,28.2998601 Z M107.899862,28.2084958 C108.20694,28.2084958 108.491491,28.2345999 108.753515,28.2844349 L108.753515,29.5148861 C108.241323,29.4638645 107.909347,29.4377605 107.762328,29.4377605 C107.158843,29.4377605 106.637166,29.5350575 106.198482,29.7260918 C105.760985,29.9194993 105.285547,30.228002 104.772169,30.6539731 L104.772169,36.4075488 L103.421737,36.4075488 L103.421737,28.2998601 L104.447307,28.2998601 L104.772169,29.7118533 C105.216781,29.2360471 105.695775,28.8670304 106.206782,28.6036166 C106.72016,28.3402027 107.283334,28.2084958 107.899862,28.2084958 Z M25.6658558,14.4994876 L25.825812,14.5050471 C26.9881442,14.5861288 27.9053362,15.543981 27.9053362,16.71297 L27.9053362,16.71297 L27.8989531,16.8815435 C27.8355059,17.7158853 27.3048376,18.4168659 26.5659341,18.738071 L26.5659341,18.738071 L26.4480667,26.3628117 L26.3742507,31.1865551 L26.3361522,33.5990155 L26.3350443,33.694073 C26.3318198,33.8709259 26.3190872,34.1315857 26.2575739,34.3513641 L26.2575739,34.3513641 L26.211027,34.5128164 C26.1412305,34.7255368 26.0406503,34.927105 25.9111152,35.1060674 L25.9111152,35.1060674 L25.7991615,35.2532146 C25.4860636,35.6327943 25.0594539,35.9083894 24.5895717,36.0444427 L24.5895717,36.0444427 L24.4319676,36.0845209 C24.2153011,36.129544 23.9792806,36.1421656 23.8049797,36.1374561 L23.8049797,36.1374561 L23.1954029,36.128037 L21.9762493,36.1103762 L19.5367514,36.0726999 L14.6589464,35.9985247 L12.218258,35.9632032 L11.6086812,35.9526067 L11.4381306,35.946683 C11.2586507,35.9353139 11.0577404,35.9063944 10.8836181,35.8489969 L10.8836181,35.8489969 L10.706545,35.7850341 C10.3004387,35.6186711 9.94663188,35.3343328 9.7049442,34.9706682 L9.7049442,34.9706682 L9.60640978,34.8150029 C9.39730957,34.4343881 9.33154864,33.9441363 9.35967609,33.5990155 L9.35967609,33.5990155 L9.37872536,32.3921966 L9.41563333,29.9797362 L9.42366975,29.913283 C9.45752686,29.7633551 9.59347618,29.6528649 9.75494855,29.6559555 L9.75494855,29.6559555 L9.82956631,29.6653643 C9.97331059,29.7003357 10.080317,29.8283582 10.082358,29.9797362 L10.082358,29.9797362 L10.1192659,32.3921966 L10.1383152,33.5990155 L10.1392732,33.7629054 C10.1505612,34.0734053 10.219955,34.2867762 10.3811935,34.5209074 L10.3811935,34.5209074 L10.4784131,34.6411369 C10.6521496,34.8316715 10.8818322,34.9716494 11.1288775,35.0413113 L11.1288775,35.0413113 L11.2435266,35.0672505 C11.3555341,35.0876708 11.4640257,35.0925275 11.6086812,35.0907614 L11.6086812,35.0907614 L12.218258,35.0813424 L14.6589464,35.0448434 L21.9762493,34.9341693 L23.1954029,34.9141538 L23.8049797,34.9047347 L23.9088173,34.9014475 C24.0348092,34.8952685 24.1169116,34.8809515 24.2264449,34.8470429 L24.2264449,34.8470429 L24.348562,34.799446 C24.5469093,34.7087983 24.7175591,34.563097 24.8336406,34.3855082 L24.8336406,34.3855082 L24.8960358,34.2771453 C24.9324587,34.202752 24.9586514,34.1245214 24.9753196,34.0452442 L24.9753196,34.0452442 L24.9880731,33.9720486 C25.0013694,33.8774434 25.000798,33.7864551 24.9979406,33.5990155 L24.9979406,33.5990155 L24.959842,31.1865551 L24.8848355,26.3628117 L24.7669681,18.738071 L24.6222368,18.6688393 C23.9130992,18.2980926 23.4275659,17.5639981 23.4275659,16.71297 C23.4275659,15.4908451 24.4300341,14.4994876 25.6658558,14.4994876 L25.6658558,14.4994876 Z M135.445605,29.1055268 C134.782838,29.1055268 134.276574,29.1897717 133.924441,29.3630079 C133.571124,29.5350575 133.320956,29.8281351 133.171566,30.2434272 C133.024548,30.6575327 132.949854,31.2602996 132.949854,32.0493546 L136.196109,32.0493546 C136.720157,32.0493546 137.10193,31.9639231 137.341427,31.7930601 C137.580925,31.6210105 137.699488,31.3220001 137.699488,30.8960291 C137.699488,30.2173231 137.532314,29.7498228 137.195595,29.4911552 C136.860062,29.233674 136.276732,29.1055268 135.445605,29.1055268 Z M97.6821016,29.1055268 C97.02052,29.1055268 96.514256,29.1897717 96.1609382,29.3630079 C95.8064349,29.5350575 95.5574525,29.8281351 95.4092488,30.2434272 C95.261045,30.6575327 95.1863503,31.2602996 95.1863503,32.0493546 L98.4326055,32.0493546 C98.9566539,32.0493546 99.3384268,31.9639231 99.5779241,31.7930601 C99.8174214,31.6210105 99.93717,31.3220001 99.93717,30.8960291 C99.93717,30.2173231 99.7688105,29.7498228 99.4320916,29.4911552 C99.0965583,29.233674 98.5132283,29.1055268 97.6821016,29.1055268 Z M67.8792622,7.02389649 L67.9422086,7.03079524 C68.0445708,7.05340209 68.1315319,7.12960861 68.1632142,7.2302403 L68.1632142,7.2302403 L71.6823182,18.6717702 L71.7599154,18.885581 C72.1326759,19.8536982 72.6548835,20.4071686 73.3468235,20.5745885 L73.3468235,20.5745885 L73.4013825,20.5867888 C73.4567955,20.5928341 73.5140463,20.5807436 73.566619,20.5534851 L73.566619,20.5534851 L73.6156646,20.5203646 C73.6609974,20.4825544 73.694635,20.4315547 73.7115652,20.3752791 L73.7115652,20.3752791 L77.6286773,7.23375753 L77.652923,7.17546822 C77.7035266,7.08414523 77.8025335,7.02389649 77.9114412,7.02389649 L77.9114412,7.02389649 L80.3089942,7.02389649 L80.3780516,7.03181024 C80.4453268,7.04741792 80.5059191,7.08544791 80.547799,7.13996488 L80.547799,7.13996488 L80.5824391,7.19906158 C80.6097279,7.26138239 80.6146287,7.3319467 80.5941343,7.39789465 L80.5941343,7.39789465 L74.8247997,27.0216602 L74.8164831,27.0461342 L74.8164831,27.0461342 L74.8081665,27.0662117 L73.4454345,29.9585423 L73.4097444,30.0157183 C73.3540471,30.08535 73.2679348,30.1273691 73.1757395,30.1273691 L73.1757395,30.1273691 L71.3425262,30.1273691 L71.2736545,30.1194553 C71.2067134,30.1038476 71.1467895,30.0658176 71.1049095,30.0113007 L71.1049095,30.0113007 L71.0702323,29.9522223 C71.0428321,29.8899564 71.0374857,29.819612 71.0561981,29.7545433 L71.0561981,29.7545433 L72.8727781,23.5044361 L72.8839721,23.4433976 C72.8885945,23.3822859 72.8736692,23.3218336 72.8406998,23.2699545 L72.8406998,23.2699545 L72.8033495,23.2218491 C72.761024,23.1777739 72.7046643,23.1465586 72.6422899,23.1351276 L72.6422899,23.1351276 L72.3897687,23.081293 C71.805025,22.9378333 71.2522319,22.6698282 70.7449201,22.2851318 L70.7449201,22.2851318 L70.5690567,22.1417495 C69.8772253,21.5401809 69.3252515,20.6027263 68.927152,19.3505945 L68.927152,19.3505945 L65.1395411,7.4049291 L65.1265278,7.33637987 C65.1217941,7.26746426 65.1416202,7.19887839 65.1835002,7.14348211 L65.1835002,7.14348211 L65.2306708,7.09314184 C65.283522,7.04895671 65.351911,7.02389649 65.422305,7.02389649 L65.422305,7.02389649 L67.8792622,7.02389649 Z M2.53899852,10.1038752 L2.69653449,10.1100652 L3.91180531,10.12905 L6.33997568,10.165833 C6.52374834,10.1693927 6.66958084,10.3200844 6.66720958,10.5028129 C6.66483832,10.6831683 6.51900582,10.8279273 6.33997568,10.8303004 L6.33997568,10.8303004 L3.91180531,10.8670834 L2.69653449,10.8848817 C2.28986338,10.8789489 2.04206669,10.9406495 1.76818615,11.1281242 C1.51564694,11.3072931 1.32713176,11.5766397 1.24295203,11.8732769 C1.20026934,12.0310879 1.19196993,12.1604217 1.19434119,12.3526427 L1.19434119,12.3526427 L1.2026406,12.9589692 L1.24058077,15.3902079 L1.31527546,20.2526853 L1.35202999,22.683924 L1.37100007,23.8989501 L1.37929948,24.5064632 C1.384042,24.6951245 1.39708394,24.7888618 1.43858099,24.9253149 C1.52157509,25.1744902 1.68993456,25.3940018 1.90334797,25.5316414 C2.00886905,25.6016478 2.12743206,25.6479232 2.24718069,25.6728408 C2.37641437,25.6989448 2.45940847,25.6989448 2.69653449,25.6953852 L2.69653449,25.6953852 L5.12589049,25.6574156 L9.98341688,25.582663 L17.6603716,25.4663813 C18.0053899,24.6796993 18.7879057,24.1315137 19.6996553,24.1315137 C20.9315249,24.1315137 21.9286398,25.1294014 21.9286398,26.3610391 C21.9286398,27.5938635 20.9315249,28.5929376 19.6996553,28.5929376 C18.7879057,28.5929376 18.0053899,28.0423789 17.6603716,27.2580701 L17.6603716,27.2580701 L9.98341688,27.1406018 L5.12589049,27.0658492 L2.69653449,27.0290662 C2.52936065,27.0278796 2.20331238,27.02432 1.93891688,26.9507539 C1.66503633,26.8831207 1.40538335,26.7656523 1.17774237,26.6054682 C0.720089167,26.2874731 0.385741489,25.8140401 0.23398084,25.2883989 C0.155729256,25.035664 0.134387915,24.7236016 0.139130435,24.5064632 L0.139130435,24.5064632 L0.148615475,23.8989501 L0.167585556,22.683924 L0.205525718,20.2526853 L0.279034783,15.3902079 L0.315789315,12.9589692 L0.325274355,12.3526427 C0.327645615,12.1390639 0.352543847,11.8602249 0.429609801,11.6288478 C0.58137045,11.1506686 0.896748047,10.7294438 1.31408983,10.4541644 C1.71009027,10.1670196 2.29816279,10.0780284 2.69653449,10.1100652 Z M15.8831121,8.26972785 C16.7960472,8.26972785 17.5773775,8.8191 17.9235814,9.60459538 L25.6005361,9.72325027 L30.4580625,9.7968163 L32.8874185,9.83478587 C33.0545923,9.83478587 33.379455,9.83953207 33.6450361,9.910725 C33.917731,9.98073139 34.177384,10.0970132 34.405025,10.2571973 C34.8626782,10.5751924 35.1970259,11.0486254 35.3499721,11.5742666 C35.4282237,11.8258149 35.4483794,12.1402504 35.4436369,12.3562023 L35.4341519,12.9637154 L35.4151818,14.179928 L35.3037326,21.4724576 L35.266978,23.9025098 L35.257493,24.5112094 C35.2563074,24.7247882 35.2302235,25.0024406 35.1531576,25.2338177 C35.0013969,25.7131834 34.6872049,26.1332217 34.2698632,26.4085011 C33.8738627,26.6956459 33.2857902,26.7846371 32.8862329,26.7526003 L31.6721477,26.734802 L29.2427917,26.698019 C29.059019,26.6944594 28.9131865,26.5437677 28.9155578,26.3598526 C28.917929,26.1794971 29.0637615,26.0359247 29.2427917,26.0323651 L31.6721477,25.9955821 L32.8862329,25.9765973 C33.292904,25.9849031 33.5407007,25.922016 33.8145812,25.7357279 C34.068306,25.556559 34.2556356,25.2860258 34.3398153,24.9893886 C34.382498,24.8315776 34.3919831,24.7022438 34.3896118,24.5112094 L34.3801268,23.9025098 L34.3433722,21.4724576 L34.2686775,16.6111667 L34.2307374,14.179928 L34.2129529,12.9637154 L34.2034679,12.3562023 C34.1987254,12.167541 34.186869,12.0738037 34.1441864,11.936164 C34.0611923,11.6869887 33.8940184,11.4698503 33.680605,11.331024 C33.5738983,11.2610177 33.4565209,11.2159288 33.3355867,11.1898247 C33.2075386,11.1637207 33.1245445,11.1637207 32.8874185,11.1684668 L30.4580625,11.2052499 L25.6005361,11.2800024 L17.9235814,11.3974708 C17.5773775,12.1829662 16.7960472,12.7323383 15.8831121,12.7323383 C14.6524281,12.7323383 13.6541276,11.7332641 13.6541276,10.5016264 C13.6541276,9.26880204 14.6524281,8.26972785 15.8831121,8.26972785 Z M100.974523,6.81872508 L101.335755,6.82211747 C102.509317,6.84449825 103.499048,6.9775309 104.286269,7.21858212 L104.54115,7.3029296 L104.769473,7.39214524 C105.506927,7.70334019 106.085484,8.18037994 106.493135,8.81404796 L106.622673,9.03105903 L106.72113,9.2207682 C107.064331,9.92763026 107.246126,10.8212047 107.276344,11.9389034 L107.280871,12.2809741 L107.27582,12.5417639 C107.228686,13.7385864 106.851869,14.6522082 106.152532,15.2637793 L105.997741,15.3902002 L105.814429,15.5206203 C105.059811,16.0233167 104.049252,16.2979986 102.801457,16.3372828 L102.484577,16.3421955 L97.2950274,16.3421955 L97.2343608,16.3483873 C97.1947086,16.3565208 97.1571354,16.3724216 97.1246116,16.3946241 L97.0799842,16.4324709 L97.0437848,16.4792207 C97.0229191,16.5126343 97.0087363,16.5501514 97.0021276,16.589427 L96.9980064,16.6493664 L97.0164829,16.9799099 C97.0666562,17.733601 97.1661814,18.3637277 97.3133816,18.8592574 L97.3793813,19.0633545 L97.4544338,19.2563692 C97.6694389,19.7559182 98.0038987,20.1347373 98.4705875,20.4054323 L98.651819,20.5018992 L98.819147,20.5786166 C99.3989772,20.8233364 100.198892,20.9579394 101.200327,20.9803902 L101.506784,20.9837589 L106.598911,20.9837589 L106.667054,20.9915043 C106.77658,21.0168324 106.863331,21.1018063 106.889205,21.2096815 L106.89712,21.2768609 L106.89712,22.6790609 L106.890442,22.7402654 C106.869443,22.8352448 106.80072,22.9142373 106.709939,22.950782 L106.638118,22.9698181 L106.185683,23.0265175 C105.443165,23.1175244 104.759013,23.1910135 104.143184,23.2461304 L103.781965,23.276989 L103.417251,23.3049183 C102.822197,23.3460667 102.172477,23.3702832 101.476517,23.3783239 L100.946009,23.3813333 L100.599019,23.3779991 C99.1284717,23.3492546 97.9691596,23.1343995 97.0747381,22.7236873 L96.8566245,22.6169232 L96.6463964,22.5001276 C95.822062,22.0109771 95.1970555,21.2586193 94.7855923,20.2578204 L94.6871836,20.0024533 L94.6051593,19.7609039 C94.2618802,18.6866697 94.0767314,17.2554367 94.052033,15.4969695 L94.0491826,15.0853741 L94.0521122,14.6692759 C94.077497,12.8921037 94.2677942,11.4526155 94.6206836,10.3790497 L94.7050048,10.1378122 L94.8052316,9.88235501 C95.2590156,8.79846165 95.9653919,8.01516747 96.9053359,7.55030769 C97.9045143,7.05789632 99.2351681,6.81872508 100.974523,6.81872508 Z M116.721385,6.84803528 L117.350432,6.85319452 C119.015457,6.88068902 120.57962,7.01790418 122.009545,7.26072291 L122.009545,7.26072291 L122.077767,7.28078954 C122.184887,7.32657316 122.256667,7.43111288 122.256667,7.55030769 L122.256667,7.55030769 L122.256667,8.92319749 L122.248818,8.99037681 C122.218018,9.11982707 122.100179,9.2162995 121.959646,9.2162995 L121.959646,9.2162995 L117.341564,9.2162995 L117.038448,9.22122127 C116.146887,9.25074485 115.416037,9.41302957 114.863222,9.70636605 L114.863222,9.70636605 L114.704491,9.79925671 C114.186358,10.1307196 113.778285,10.6801042 113.490985,11.4368403 L113.490985,11.4368403 L113.417403,11.6438816 C113.134728,12.5003809 112.99199,13.6960706 112.99199,15.2014425 L112.99199,15.2014425 L112.995129,15.5539002 C113.020237,16.9395617 113.195792,18.0345214 113.517123,18.814804 L113.517123,18.814804 L113.613172,19.033477 C113.943586,19.7399696 114.377187,20.2230792 114.934507,20.5065888 L114.934507,20.5065888 L115.14934,20.6063239 C115.741641,20.8568493 116.48852,20.9837589 117.372454,20.9837589 L117.372454,20.9837589 L122.196074,20.9837589 L122.263778,20.9915043 C122.39446,21.021898 122.493095,21.1381817 122.493095,21.2768609 L122.493095,21.2768609 L122.493095,22.6216129 L122.484768,22.6905244 C122.457486,22.8014147 122.365574,22.8895081 122.244786,22.9100253 L122.244786,22.9100253 L121.545132,23.0201515 C119.911426,23.2601539 118.27124,23.3813333 116.66198,23.3813333 L116.66198,23.3813333 L116.335912,23.3762112 C114.40186,23.3147626 112.87093,22.7007196 111.78252,21.5500319 L111.78252,21.5500319 L111.640821,21.3923465 C110.578187,20.1485525 110.060987,18.1011495 110.060987,15.1428221 L110.060987,15.1428221 L110.064471,14.7263022 C110.096978,12.8095842 110.356899,11.2723124 110.84037,10.1507087 L110.84037,10.1507087 L110.956872,9.89336941 C111.477783,8.80188317 112.207091,8.01843347 113.123867,7.565549 C114.090967,7.09072375 115.300436,6.84803528 116.721385,6.84803528 L116.721385,6.84803528 Z M127.269192,0.335308696 L127.339213,0.343426681 C127.473179,0.375481616 127.56774,0.49994828 127.569777,0.671789799 L127.569777,0.671789799 L128.056891,3.85605 L128.056891,7.97120217 L128.06345,8.03266449 C128.080748,8.11268837 128.131503,8.18340803 128.20659,8.22561472 L128.20659,8.22561472 L128.277207,8.25397233 C128.350942,8.27287741 128.432029,8.26342487 128.502423,8.22561472 L128.502423,8.22561472 L128.858116,8.03109816 C129.340687,7.77789554 129.85565,7.54960425 130.392664,7.34982592 L130.392664,7.34982592 L130.741565,7.22646897 C131.673961,6.91665734 132.621377,6.76010468 133.561283,6.76010468 L133.561283,6.76010468 L133.853963,6.76557823 C135.393592,6.82394615 136.591246,7.34886041 137.414239,8.32761421 L137.414239,8.32761421 L137.580615,8.53616736 C138.330611,9.52843099 138.710438,10.786232 138.710438,12.2809741 L138.710438,12.2809741 L138.710438,22.9123701 L138.702589,22.9795494 C138.671789,23.1089996 138.553951,23.2054721 138.413417,23.2054721 L138.413417,23.2054721 L136.076457,23.2054721 L136.008313,23.1977267 C135.876883,23.1673329 135.778248,23.0510492 135.778248,22.9123701 L135.778248,22.9123701 L135.778248,12.5447659 L135.772743,12.3172441 C135.732341,11.4976753 135.469148,10.8385214 134.970351,10.3054666 L134.970351,10.3054666 L134.832138,10.1674535 C134.311847,9.68407402 133.641974,9.4496087 132.791405,9.4496087 L132.791405,9.4496087 L132.454407,9.45515245 C131.678171,9.48100725 130.97334,9.59718556 130.355833,9.8013311 L130.355833,9.8013311 L130.077365,9.89770783 C129.510451,10.1042909 128.884307,10.3935646 128.210154,10.7603609 L128.210154,10.7603609 L128.157717,10.7960583 C128.09415,10.8504956 128.056891,10.9305945 128.056891,11.0159458 L128.056891,11.0159458 L128.056891,22.9123701 L128.048977,22.9795494 C128.017927,23.1089996 127.899216,23.2054721 127.758682,23.2054721 L127.758682,23.2054721 L125.421722,23.2054721 L125.353644,23.1977267 C125.222463,23.1673329 125.124701,23.0510492 125.124701,22.9123701 L125.124701,22.9123701 L125.124701,0.628410702 L125.13255,0.561231381 C125.16335,0.431781128 125.281188,0.335308696 125.421722,0.335308696 L125.421722,0.335308696 L127.269192,0.335308696 Z M48.2331095,1.12316689 L48.296463,1.13007107 C48.3992102,1.15270506 48.4851813,1.22907441 48.5158734,1.33068311 L48.5158734,1.33068311 L53.74463,18.0691525 L53.7703718,18.1267742 C53.8230105,18.2168759 53.9218524,18.2754963 54.02977,18.2754963 L54.02977,18.2754963 L54.093206,18.2685867 C54.1962008,18.2459256 54.2828319,18.1693934 54.312534,18.0668077 L54.312534,18.0668077 L59.4331749,1.33185552 L59.4582511,1.27324597 C59.5097073,1.18178729 59.6072291,1.12316689 59.7171269,1.12316689 L59.7171269,1.12316689 L62.144382,1.12316689 L62.20734,1.12977066 C62.3293351,1.15575505 62.4247697,1.25581648 62.4390267,1.38344147 L62.4390267,1.38344147 L64.9850902,22.8783702 L64.98561,22.9399949 C64.9795953,23.0013265 64.9542,23.0606797 64.911429,23.1081622 L64.911429,23.1081622 L64.8653722,23.1495812 C64.815417,23.1856877 64.7546019,23.2054721 64.6904454,23.2054721 L64.6904454,23.2054721 L62.4105127,23.2054721 L62.3475547,23.1988683 C62.2255596,23.1728839 62.130125,23.0728225 62.115868,22.9451975 L62.115868,22.9451975 L60.3800776,8.00168478 L60.36444,7.93625247 C60.3255248,7.83201129 60.2240426,7.75450209 60.0854329,7.74375502 L60.0854329,7.74375502 L60.0214908,7.7507569 C59.917781,7.77371656 59.8309849,7.85122575 59.8002928,7.95478846 L59.8002928,7.95478846 L55.3853736,22.9932662 L55.3602918,23.0533576 C55.3088082,23.1468517 55.2111213,23.2054721 55.1002335,23.2054721 L55.1002335,23.2054721 L52.9391092,23.2054721 L52.8752442,23.1985679 C52.7717544,23.1759339 52.6854533,23.0995645 52.652781,22.9979559 L52.652781,22.9979559 L48.1630126,8.0778913 L48.1379173,8.0157571 C48.0769614,7.90021167 47.9557768,7.83905504 47.8529227,7.86920268 L47.8529227,7.86920268 L47.7853449,7.88245197 C47.6774823,7.9172714 47.5962966,8.01301806 47.5844158,8.12830485 L47.5844158,8.12830485 L45.9246628,22.9451975 L45.910579,23.0064977 C45.870011,23.1236428 45.7579916,23.2054721 45.6276419,23.2054721 L45.6276419,23.2054721 L43.3500853,23.2054721 L43.2873211,23.1990055 C43.2262276,23.1862006 43.1709817,23.1547654 43.1291018,23.1081622 L43.1291018,23.1081622 L43.0915101,23.0572907 C43.0600444,23.0033782 43.047124,22.9413872 43.0542525,22.8807151 L43.0542525,22.8807151 L45.5409118,1.38461388 L45.5545557,1.32324874 C45.5943755,1.20585755 45.7063948,1.12316689 45.8367446,1.12316689 L45.8367446,1.12316689 L48.2331095,1.12316689 Z M87.1250306,2.67074548 L87.192734,2.67855584 C87.3234163,2.70919568 87.4220515,2.82634078 87.4220515,2.9650199 L87.4220515,2.9650199 L87.4220515,6.73079448 L87.4298347,6.79760465 C87.4603854,6.9265627 87.577351,7.02389649 87.7178844,7.02389649 L87.7178844,7.02389649 L91.6813317,7.02389649 L91.7494751,7.0316419 C91.8809055,7.06203564 91.9795407,7.17831937 91.9795407,7.31699849 L91.9795407,7.31699849 L91.9795407,9.21512709 L91.971626,9.28224147 C91.9405764,9.41144562 91.8218651,9.50705669 91.6813317,9.50705669 L91.6813317,9.50705669 L87.7178844,9.50705669 L87.6498726,9.51486705 C87.518941,9.54550689 87.4220515,9.66265198 87.4220515,9.8013311 L87.4220515,9.8013311 L87.4220515,17.8604639 L87.425552,18.1082449 C87.4535533,19.07426 87.6495239,19.7386615 88.0125291,20.0903839 L88.0125291,20.0903839 L88.1519261,20.214455 C88.5332472,20.5281264 88.9921702,20.7045955 89.5487214,20.7504497 L89.5487214,20.7504497 L91.4734171,20.9251385 L91.5358001,20.937929 C91.6555091,20.9764851 91.741924,21.0896106 91.741924,21.2182405 L91.741924,21.2182405 L91.741924,22.9123701 L91.7340785,22.9795494 C91.7032991,23.1089996 91.5856061,23.2054721 91.4460911,23.2054721 L91.4460911,23.2054721 L89.2849668,23.2054721 L88.9825841,23.200433 C87.494766,23.1500575 86.3689638,22.7222201 85.6316093,21.9275473 L85.6316093,21.9275473 L85.4965956,21.7719581 C84.8000288,20.9155604 84.479238,19.6323862 84.5183749,17.8569467 L84.5183749,17.8569467 L84.6027288,9.80367592 L84.5970297,9.74664926 C84.5857244,9.69009889 84.5578787,9.63602157 84.5159987,9.59381488 L84.5159987,9.59381488 L84.4704246,9.55750687 C84.4214718,9.52552212 84.36333,9.50705669 84.3045198,9.50705669 L84.3045198,9.50705669 L82.3881407,9.50705669 L82.3204373,9.49937622 C82.189755,9.46922859 82.0911198,9.35380621 82.0911198,9.21512709 L82.0911198,9.21512709 L82.0911198,7.72499649 L82.0995354,7.65510252 C82.1270923,7.54288244 82.2198289,7.45495184 82.3406174,7.43541171 L82.3406174,7.43541171 L84.4292686,7.0989306 L84.4935351,7.08191983 C84.5954023,7.04229678 84.6686675,6.94866697 84.6775781,6.8363112 L84.6775781,6.8363112 L85.0233105,2.93805452 L85.0357074,2.8752572 C85.0735737,2.75515886 85.1867568,2.67074548 85.3191433,2.67074548 L85.3191433,2.67074548 L87.1250306,2.67074548 Z M11.5360558,0.990180189 L11.592013,0.991357574 L13.4219341,1.01843741 L15.8614319,1.05729109 L20.739237,1.1314663 L23.1787348,1.16678783 L23.7895022,1.17620691 L23.9600341,1.18214902 C24.1394582,1.19357333 24.3401453,1.22271359 24.5133746,1.28099411 L24.5133746,1.28099411 L24.6904989,1.34461655 C25.0968331,1.51040008 25.4515514,1.79551104 25.6932391,2.15814541 L25.6932391,2.15814541 L25.7917736,2.31381309 C26.0008738,2.69444395 26.0666347,3.18482451 26.0385072,3.53097549 L26.0385072,3.53097549 L26.019458,4.73661701 L25.98255,7.1502548 L25.9745159,7.2163217 C25.9406751,7.36547697 25.804856,7.47609591 25.6444254,7.47403548 L25.6444254,7.47403548 L25.5694258,7.46462671 C25.42514,7.4296553 25.3187168,7.30163278 25.3146348,7.1502548 L25.3146348,7.1502548 L25.2789174,4.73661701 L25.2598681,3.53097549 L25.2585352,3.36702387 C25.2467474,3.0562974 25.1782284,2.84220568 25.0169899,2.60908359 L25.0169899,2.60908359 L24.9198474,2.48876691 C24.7463314,2.29795979 24.5171448,2.15716425 24.2681152,2.08750235 L24.2681152,2.08750235 L24.153987,2.06125036 C24.0422027,2.04099567 23.9332647,2.03746352 23.7895022,2.03922959 L23.7895022,2.03922959 L23.1787348,2.04747128 L20.739237,2.08514758 L15.8614319,2.15932279 L13.4219341,2.19464432 L12.2015899,2.21348247 L11.592013,2.22290154 L11.4662209,2.22829176 C11.3535995,2.23585277 11.2741283,2.25086442 11.1705478,2.28177076 L11.1705478,2.28177076 L11.0488496,2.32985818 C10.8509433,2.42115998 10.6796321,2.56669776 10.5645428,2.7433054 L10.5645428,2.7433054 L10.5021035,2.85249689 C10.4655924,2.92723899 10.439135,3.00546964 10.4216732,3.08474684 L10.4216732,3.08474684 L10.4111564,3.14592177 C10.3967702,3.24444594 10.3972663,3.33356739 10.4002428,3.52979811 L10.4002428,3.52979811 L10.4383413,5.9434359 L10.5133478,10.7671793 L10.6312152,18.3907426 L10.7759465,18.4599873 C11.4850841,18.830859 11.9706174,19.5659193 11.9706174,20.4158436 L11.9706174,20.4158436 L11.9649955,20.57388 C11.8830051,21.7222995 10.9144179,22.6293261 9.73232754,22.6293261 L9.73232754,22.6293261 L9.57237134,22.6237665 C8.4100391,22.5426848 7.4928471,21.5848326 7.4928471,20.4158436 L7.4928471,20.4158436 L7.49923019,20.2474642 C7.56267739,19.4139632 8.09334574,18.7119478 8.83224928,18.3907426 L8.83224928,18.3907426 L8.95011667,10.7671793 L9.02512319,5.9434359 L9.06203116,3.52979811 L9.06272015,3.43514404 C9.06550368,3.25867267 9.07889771,2.99703171 9.13941884,2.77627216 L9.13941884,2.77627216 L9.18665152,2.61596893 C9.25728623,2.4044542 9.35824739,2.20288601 9.48587754,2.0239236 L9.48587754,2.0239236 L9.59787205,1.87669726 C9.91117907,1.49671708 10.3387295,1.21937766 10.8086116,1.08437093 C11.0395841,1.01372788 11.3241326,0.990180189 11.5360558,0.990180189 L11.5360558,0.990180189 Z M100.974523,9.1576791 L100.683951,9.16151343 C99.830989,9.18451147 99.1472874,9.31089371 98.6458607,9.53873373 L98.4854873,9.61843545 L98.3258575,9.71293037 C97.9135545,9.98154311 97.6077797,10.3836415 97.3969757,10.9306309 L97.3223533,11.1425659 L97.2615864,11.3489648 C97.1066888,11.9216345 97.0090473,12.67191 96.9704869,13.585985 L96.9587997,13.9364142 L96.9631065,13.9954559 C96.9733537,14.0534352 97.0009767,14.1072927 97.0419655,14.1486201 C97.0838455,14.1899474 97.1384231,14.2194042 97.1966763,14.2315496 L97.2558206,14.2377231 L102.277851,14.2377231 L102.518405,14.2332398 C103.143461,14.2093789 103.635679,14.090675 103.960387,13.8867323 L104.074233,13.8062769 L104.17114,13.7180474 C104.416133,13.4641976 104.553608,13.0621554 104.581134,12.520925 L104.586297,12.3114567 L104.582335,12.0579546 C104.550647,11.067046 104.328982,10.3536801 103.921083,9.93040836 L103.815231,9.8306413 L103.754617,9.78188151 C103.368989,9.48703157 102.580687,9.1576791 100.974523,9.1576791 Z" id="Combined-Shape"></path>
            </g>
        </g>
    </g>
</svg>