<?xml version="1.0" encoding="UTF-8"?>
<svg width="222px" height="26px" viewBox="0 0 222 26" version="1.1" xmlns="http://www.w3.org/2000/svg" xmlns:xlink="http://www.w3.org/1999/xlink">
    <!-- Generator: Sketch 60.1 (88133) - https://sketch.com -->
    <title>PABLOMANSO</title>
    <desc>Created with Sketch.</desc>
    <g id="Page-1" stroke="none" stroke-width="1" fill="none" fill-rule="evenodd">
        <path d="M3.37402778,25.0340278 C6.01523148,25.030787 7.87055556,25.0194444 8.94,25 C9.03333333,25.0233333 9.15,25.035 9.29,25.035 C9.61666667,25.035 9.78,24.9183333 9.78,24.685 C9.78,24.5216667 9.65166667,24.44 9.395,24.44 C8.765,24.44 8.11166667,24.3933333 7.435,24.3 C7.03833333,24.23 6.78166667,24.0316667 6.665,23.705 C6.61833333,23.565 6.595,23.2266667 6.595,22.69 L6.595,22.69 L6.595,12.75 C7.59833333,12.9133333 8.49666667,12.995 9.29,12.995 C11.1566667,12.995 12.6966667,12.5983333 13.91,11.805 C15.8466667,10.545 16.815,8.78333333 16.815,6.52 C16.815,4.60666667 16.115,3.125 14.715,2.075 C13.4783333,1.14166667 11.53,0.675 8.87,0.675 L8.87,0.675 L1.17,0.675 C0.516666667,0.675 0.19,0.791666667 0.19,1.025 C0.19,1.235 0.365,1.34 0.715,1.34 C0.808333333,1.34 0.89,1.32833333 0.96,1.305 L0.96,1.305 L1.31,1.305 C1.89333333,1.305 2.30166667,1.35166667 2.535,1.445 C2.93166667,1.60833333 3.13,2.05166667 3.13,2.775 L3.13,2.775 L3.13,23.425 C3.10666667,23.7983333 3.00166667,24.0316667 2.815,24.125 C2.65166667,24.335 2.02166667,24.44 0.925,24.44 C0.435,24.44 0.19,24.5216667 0.19,24.685 C0.19,24.9183333 0.54,25.035 1.24,25.035 L1.24,25.035 L3.37402778,25.0340278 Z M7.225,12.26 C6.99166667,12.26 6.78166667,12.2483333 6.595,12.225 L6.595,12.225 L6.595,2.915 C6.595,2.33166667 6.665,1.97 6.805,1.83 C7.10833333,1.50333333 7.75,1.34 8.73,1.34 C11.67,1.34 13.14,3.09 13.14,6.59 C13.14,8.85333333 12.475,10.405 11.145,11.245 C10.0716667,11.9216667 8.765,12.26 7.225,12.26 Z M39.145,25.07 C39.495,25.07 39.67,24.965 39.67,24.755 C39.67,24.545 39.3666667,24.4283333 38.76,24.405 C37.85,24.3816667 37.2491667,24.3 36.9575,24.16 C36.6658333,24.02 36.4266667,23.6933333 36.24,23.18 C32.9033333,14.08 30.815,8.39833333 29.975,6.135 C28.9016667,3.24166667 28.2133333,1.34 27.91,0.43 C27.8633333,0.29 27.805,0.22 27.735,0.22 C27.6183333,0.22 27.525,0.348333333 27.455,0.605 L27.455,0.605 L27.28,1.235 C27.14,1.585 27.0466667,1.9 27,2.18 C25.11,7.38333333 22.66,14.2783333 19.65,22.865 C19.4633333,23.425 19.2066667,23.8041667 18.88,24.0025 C18.5533333,24.2008333 18.0225,24.3116667 17.2875,24.335 C16.5525,24.3583333 16.185,24.475 16.185,24.685 C16.185,24.895 16.3483333,25 16.675,25 C16.7916667,25 16.9433333,24.9883333 17.13,24.965 C17.48,24.9183333 17.8416667,24.895 18.215,24.895 C18.5883333,24.895 18.95,24.9066667 19.3,24.93 C20.7233333,25.0233333 21.9716667,25.07 23.045,25.07 C23.6516667,25.07 23.955,24.9533333 23.955,24.72 C23.955,24.51 23.6166667,24.3933333 22.94,24.37 C21.8433333,24.3 21.26,24.2533333 21.19,24.23 C20.91,24.16 20.77,23.9616667 20.77,23.635 C20.77,23.075 21.47,20.9283333 22.87,17.195 L22.87,17.195 L30.36,17.195 C31.1766667,19.6683333 31.69,21.2666667 31.9,21.99 L31.9,21.99 L32.075,22.48 L32.355,23.425 C32.4016667,23.5883333 32.425,23.6816667 32.425,23.705 C32.425,24.1016667 31.3983333,24.3116667 29.345,24.335 C28.715,24.335 28.4,24.4633333 28.4,24.72 C28.4,24.9533333 28.6333333,25.07 29.1,25.07 C29.2866667,25.07 29.4616667,25.0583333 29.625,25.035 L29.625,25.035 L34.07,24.965 L38.515,25.035 C38.7016667,25.0583333 38.9116667,25.07 39.145,25.07 Z M30.15,16.39 L23.08,16.39 C24.4566667,12.2833333 25.635,8.94666667 26.615,6.38 L26.615,6.38 L28.295,11.175 C29.1583333,13.6016667 29.7766667,15.34 30.15,16.39 L30.15,16.39 Z M44.8831474,24.9994045 C46.9377158,24.996758 48.1983333,24.9852899 48.665,24.965 C50.625,24.825 52.13,24.475 53.18,23.915 C55.35,22.7716667 56.435,21.01 56.435,18.63 C56.435,16.3666667 55.5483333,14.675 53.775,13.555 C52.585,12.8083333 50.9283333,12.365 48.805,12.225 L48.805,12.225 L48.805,12.015 C50.9516667,11.7583333 52.62,11.1225 53.81,10.1075 C55,9.0925 55.595,7.79166667 55.595,6.205 C55.595,4.385 54.8716667,2.99666667 53.425,2.04 C52.1883333,1.22333333 50.31,0.803333333 47.79,0.78 L47.79,0.78 L40.965,0.71 C40.755,0.71 40.5216667,0.698333333 40.265,0.675 L40.265,0.675 L39.845,0.675 C39.2616667,0.675 38.97,0.78 38.97,0.99 C38.97,1.22333333 39.285,1.34 39.915,1.34 C40.9416667,1.36333333 41.5366667,1.515 41.7,1.795 C41.7933333,1.95833333 41.84,2.55333333 41.84,3.58 L41.84,22.515 C41.84,23.4016667 41.7641667,23.9325 41.6125,24.1075 C41.4608333,24.2825 40.965,24.37 40.125,24.37 C39.4016667,24.37 39.04,24.475 39.04,24.685 C39.04,24.895 39.2383333,25 39.635,25 L39.635,25 L44.8831474,24.9994045 Z M45.62,11.735 L45.305,11.735 L45.305,1.585 C46.145,1.515 46.7633333,1.48 47.16,1.48 C48.6533333,1.48 49.6683333,1.67833333 50.205,2.075 C51.2316667,2.82166667 51.745,4.315 51.745,6.555 C51.745,8.11833333 51.3775,9.34916667 50.6425,10.2475 C49.9075,11.1458333 48.875,11.6183333 47.545,11.665 L47.545,11.665 L45.62,11.735 Z M47.475,24.3 C46.4016667,24.3 45.7483333,24.2183333 45.515,24.055 C45.375,23.9616667 45.305,23.5766667 45.305,22.9 L45.305,22.9 L45.305,12.47 C47.195,12.47 48.49,12.575 49.19,12.785 C51.57,13.485 52.76,15.305 52.76,18.245 C52.76,20.2283333 52.2816667,21.7333333 51.325,22.76 C50.3683333,23.7866667 49.085,24.3 47.475,24.3 Z M77.4,25.245 C77.47,23.845 77.505,22.8416667 77.505,22.235 L77.505,22.235 L77.505,20.87 C77.505,20.7066667 77.4933333,20.5433333 77.47,20.38 L77.47,20.38 L77.47,20.065 L77.505,19.19 C77.5283333,18.84 77.3883333,18.665 77.085,18.665 C76.8283333,18.665 76.6883333,18.8166667 76.665,19.12 C76.595,20.4266667 76.3616667,21.465 75.965,22.235 C75.5683333,23.005 74.81,23.53 73.69,23.81 C72.57,24.09 70.645,24.23 67.915,24.23 C66.795,24.23 65.92,24.2183333 65.29,24.195 L65.29,24.195 L65.29,3.545 C65.29,2.51833333 65.3541667,1.90583333 65.4825,1.7075 C65.6108333,1.50916667 66.0133333,1.39833333 66.69,1.375 C67.3666667,1.35166667 67.7691667,1.3225 67.8975,1.2875 C68.0258333,1.2525 68.09,1.165 68.09,1.025 C68.09,0.791666667 67.88,0.675 67.46,0.675 L67.46,0.675 L67.075,0.675 C66.6783333,0.675 66.1766667,0.6925 65.57,0.7275 C64.9633333,0.7625 64.555,0.78 64.345,0.78 L63.9709105,0.779675926 C61.8908591,0.776003086 60.4872222,0.741111111 59.76,0.675 L59.76,0.675 L59.445,0.675 C59.165,0.675 59.025,0.78 59.025,0.99 C59.025,1.24666667 59.2466667,1.375 59.69,1.375 C60.7633333,1.375 61.3875,1.445 61.5625,1.585 C61.7375,1.725 61.825,2.22666667 61.825,3.09 L61.825,3.09 L61.825,22.76 C61.825,23.4833333 61.7375,23.9208333 61.5625,24.0725 C61.3875,24.2241667 60.8566667,24.3233333 59.97,24.37 C59.34,24.4166667 59.025,24.5216667 59.025,24.685 C59.025,24.895 59.2233333,25 59.62,25 L59.62,25 L74.18,25.105 C74.8566667,25.105 75.4633333,25.1283333 76,25.175 C76.5366667,25.2216667 76.875,25.245 77.015,25.245 L77.4,25.245 Z M90.735,25.42 C93.7683333,25.42 96.3291667,24.2183333 98.4175,21.815 C100.505833,19.4116667 101.55,16.4716667 101.55,12.995 C101.55,9.40166667 100.5,6.39166667 98.4,3.965 C96.3,1.53833333 93.6983333,0.325 90.595,0.325 C87.305,0.325 84.6041667,1.48583333 82.4925,3.8075 C80.3808333,6.12916667 79.325,9.11 79.325,12.75 C79.325,16.32 80.4216667,19.3241667 82.615,21.7625 C84.8083333,24.2008333 87.515,25.42 90.735,25.42 Z M90.77,24.79 C88.39,24.79 86.5408333,23.7516667 85.2225,21.675 C83.9041667,19.5983333 83.245,16.6816667 83.245,12.925 C83.245,8.18833333 84.19,4.77 86.08,2.67 C87.1066667,1.52666667 88.5533333,0.955 90.42,0.955 C92.38,0.955 93.9083333,1.70166667 95.005,3.195 C96.755,5.575 97.63,8.9 97.63,13.17 C97.63,16.7866667 97.0116667,19.68 95.775,21.85 C94.655,23.81 92.9866667,24.79 90.77,24.79 Z M134.94,25.07 C135.43,25.07 135.675,24.9533333 135.675,24.72 C135.675,24.4866667 135.441667,24.37 134.975,24.37 L134.975,24.37 L134.765,24.37 C133.551667,24.37 132.793333,24.265 132.49,24.055 C132.303333,23.8916667 132.21,23.3433333 132.21,22.41 L132.21,22.41 L132.21028,5.832768 C132.21476,3.461056 132.273,2.1968 132.385,2.04 C132.595,1.76 132.98,1.57333333 133.54,1.48 C133.773333,1.43333333 134.216667,1.41 134.87,1.41 C135.266667,1.41 135.465,1.29333333 135.465,1.06 C135.465,0.92 135.406667,0.815 135.29,0.745 C135.173333,0.675 134.73,0.64 133.96,0.64 L133.96,0.64 L128.71,0.675 C128.546667,1.11833333 128.36,1.67833333 128.15,2.355 L128.15,2.355 L124.44,13.94 C123.973333,15.41 123.518333,16.9033333 123.075,18.42 C120.601667,11.6533333 119.096667,7.57 118.56,6.17 C117.3,2.81 116.611667,0.978333333 116.495,0.675 C116.021154,0.69474359 115.254951,0.706134122 114.196391,0.709171598 L111.77,0.71 C111.466667,0.686666667 111.268333,0.675 111.175,0.675 C110.498333,0.675 110.16,0.803333333 110.16,1.06 C110.16,1.24666667 110.346667,1.35166667 110.72,1.375 C111.723333,1.445 112.376667,1.53833333 112.68,1.655 C112.983333,1.77166667 113.181667,1.99333333 113.275,2.32 C113.321667,2.48333333 113.345,3.53333333 113.345,5.47 L113.345,5.47 L113.345,22.235 C113.345,23.2616667 113.298333,23.8683333 113.205,24.055 C113.111667,24.2416667 112.785,24.335 112.225,24.335 C110.895,24.3583333 110.23,24.4866667 110.23,24.72 C110.23,24.93 110.44,25.035 110.86,25.035 L110.86,25.035 L114.885,24.93 C115.141667,24.93 115.433333,24.9416667 115.76,24.965 C116.016667,24.9883333 116.296667,25 116.6,25 C117.09,25 117.335,24.8833333 117.335,24.65 C117.335,24.44 116.95,24.335 116.18,24.335 C115.223333,24.335 114.663333,24.1833333 114.5,23.88 C114.436,23.8373333 114.401257,22.0294857 114.395771,18.4564571 L114.395,6.03 C114.395,5.26 114.383333,4.65333333 114.36,4.21 L114.36,4.21 L115.76,7.955 C118.91,16.425 120.823333,21.7216667 121.5,23.845 C121.686667,24.405 121.861667,24.685 122.025,24.685 C122.165,24.685 122.398333,24.1366667 122.725,23.04 L122.725,23.04 L124.37,17.475 C126.143333,11.805 127.496667,7.55833333 128.43,4.735 C128.686667,3.94166667 128.815,3.53333333 128.815,3.51 L128.815,3.51 L128.815,21.64 C128.815,23.0866667 128.756667,23.8683333 128.64,23.985 C128.383333,24.2416667 127.66,24.37 126.47,24.37 C125.793333,24.37 125.455,24.4866667 125.455,24.72 C125.455,24.93 125.7,25.035 126.19,25.035 L126.19,25.035 L128.325,25.035 C129.258333,25.0116667 130.075,25 130.775,25 C131.241667,25 131.906667,25.0116667 132.77,25.035 C133.633333,25.0583333 134.228333,25.07 134.555,25.07 L134.94,25.07 Z M158.075,25.07 C158.425,25.07 158.6,24.965 158.6,24.755 C158.6,24.545 158.296667,24.4283333 157.69,24.405 C156.78,24.3816667 156.179167,24.3 155.8875,24.16 C155.595833,24.02 155.356667,23.6933333 155.17,23.18 C151.833333,14.08 149.745,8.39833333 148.905,6.135 C147.831667,3.24166667 147.143333,1.34 146.84,0.43 C146.793333,0.29 146.735,0.22 146.665,0.22 C146.548333,0.22 146.455,0.348333333 146.385,0.605 L146.385,0.605 L146.21,1.235 C146.07,1.585 145.976667,1.9 145.93,2.18 C144.04,7.38333333 141.59,14.2783333 138.58,22.865 C138.393333,23.425 138.136667,23.8041667 137.81,24.0025 C137.483333,24.2008333 136.9525,24.3116667 136.2175,24.335 C135.4825,24.3583333 135.115,24.475 135.115,24.685 C135.115,24.895 135.278333,25 135.605,25 C135.721667,25 135.873333,24.9883333 136.06,24.965 C136.41,24.9183333 136.771667,24.895 137.145,24.895 C137.518333,24.895 137.88,24.9066667 138.23,24.93 C139.653333,25.0233333 140.901667,25.07 141.975,25.07 C142.581667,25.07 142.885,24.9533333 142.885,24.72 C142.885,24.51 142.546667,24.3933333 141.87,24.37 C140.773333,24.3 140.19,24.2533333 140.12,24.23 C139.84,24.16 139.7,23.9616667 139.7,23.635 C139.7,23.075 140.4,20.9283333 141.8,17.195 L141.8,17.195 L149.29,17.195 C150.106667,19.6683333 150.62,21.2666667 150.83,21.99 L150.83,21.99 L151.005,22.48 L151.285,23.425 C151.331667,23.5883333 151.355,23.6816667 151.355,23.705 C151.355,24.1016667 150.328333,24.3116667 148.275,24.335 C147.645,24.335 147.33,24.4633333 147.33,24.72 C147.33,24.9533333 147.563333,25.07 148.03,25.07 C148.216667,25.07 148.391667,25.0583333 148.555,25.035 L148.555,25.035 L153,24.965 L157.445,25.035 C157.631667,25.0583333 157.841667,25.07 158.075,25.07 Z M149.08,16.39 L142.01,16.39 C143.386667,12.2833333 144.565,8.94666667 145.545,6.38 L145.545,6.38 L147.225,11.175 C148.088333,13.6016667 148.706667,15.34 149.08,16.39 L149.08,16.39 Z M176.205,25.315 C176.321667,25.315 176.391667,25.21 176.415,25 C176.438333,24.79 176.45,24.0666667 176.45,22.83 L176.45,22.83 L176.45,2.67 C176.45,2.01666667 176.485,1.62583333 176.555,1.4975 C176.625,1.36916667 176.846667,1.305 177.22,1.305 L177.22,1.305 L177.85,1.305 L178.62,1.34 C179.203333,1.36333333 179.495,1.25833333 179.495,1.025 C179.495,0.791666667 179.238333,0.675 178.725,0.675 L178.725,0.675 L176.59,0.675 C176.193333,0.698333333 175.983333,0.71 175.96,0.71 L175.926641,0.709453125 C175.832214,0.706901042 175.621667,0.695416667 175.295,0.675 L175.295,0.675 L173.09,0.675 C172.53,0.675 172.25,0.791666667 172.25,1.025 C172.25,1.235 172.67,1.34 173.51,1.34 C174.466667,1.34 175.026667,1.38083333 175.19,1.4625 C175.353333,1.54416667 175.446667,1.66083333 175.47,1.8125 C175.493333,1.96416667 175.505,2.40166667 175.505,3.125 L175.505,3.125 L175.505,18.7 L163.43,0.745 C162.706667,0.768333333 161.96,0.78 161.19,0.78 C160.606667,0.803333333 160.28,0.815 160.21,0.815 L160.158472,0.814027778 C160.025602,0.810787037 159.657778,0.799444444 159.055,0.78 C158.331667,0.756666667 157.736667,0.745 157.27,0.745 C156.92,0.745 156.745,0.85 156.745,1.06 C156.745,1.29333333 157.048333,1.41 157.655,1.41 C158.611667,1.41 159.276667,1.52666667 159.65,1.76 C160.443333,2.25 160.84,3.46333333 160.84,5.4 L160.84,5.4 L160.84,22.655 C160.84,23.495 160.729167,23.9908333 160.5075,24.1425 C160.285833,24.2941667 159.486667,24.3816667 158.11,24.405 C157.643333,24.405 157.41,24.51 157.41,24.72 C157.41,24.93 157.678333,25.035 158.215,25.035 L158.215,25.035 L158.85213,25.0341358 C159.59534,25.0295267 160.158796,25.0064815 160.5425,24.965 C160.974167,24.9183333 161.178333,24.895 161.155,24.895 C161.505,24.895 161.866667,24.9066667 162.24,24.93 C163.36,25 164.025,25.035 164.235,25.035 C164.841667,25.035 165.145,24.9183333 165.145,24.685 C165.145,24.4983333 164.993333,24.405 164.69,24.405 C163.453333,24.3816667 162.671667,24.3291667 162.345,24.2475 C162.018333,24.1658333 161.843333,23.9733333 161.82,23.67 L161.82,23.67 L161.785,4.14 C165.495,9.83333333 168.645,14.5816667 171.235,18.385 L171.235,18.385 L175.715,24.93 C175.901667,25.1866667 176.065,25.315 176.205,25.315 Z M182.05,25.49 C182.33,25.49 182.481667,25.315 182.505,24.965 C182.575,24.2883333 182.75,23.95 183.03,23.95 C183.263333,23.95 183.613333,24.055 184.08,24.265 C185.83,25.035 187.335,25.42 188.595,25.42 C190.741667,25.42 192.579167,24.7141667 194.1075,23.3025 C195.635833,21.8908333 196.4,20.1816667 196.4,18.175 C196.4,16.7283333 195.921667,15.4391667 194.965,14.3075 C194.008333,13.1758333 192.433333,12.0616667 190.24,10.965 C188.373333,10.0316667 187.16,9.30833333 186.6,8.795 C185.596667,7.885 185.095,6.68333333 185.095,5.19 C185.095,3.90666667 185.439167,2.89166667 186.1275,2.145 C186.815833,1.39833333 187.743333,1.025 188.91,1.025 C190.1,1.025 191.173333,1.48583333 192.13,2.4075 C193.086667,3.32916667 193.693333,4.47833333 193.95,5.855 C194.043333,6.39166667 194.218333,6.66 194.475,6.66 C194.708333,6.66 194.813333,6.53166667 194.79,6.275 L194.79,6.275 L194.755,5.715 C194.638333,5.06166667 194.58,4.175 194.58,3.055 C194.58,2.26166667 194.615,1.585 194.685,1.025 C194.708333,0.931666667 194.72,0.791666667 194.72,0.605 C194.72,0.325 194.603333,0.185 194.37,0.185 C194.16,0.185 194.031667,0.301666667 193.985,0.535 C193.915,0.931666667 193.839167,1.17666667 193.7575,1.27 C193.675833,1.36333333 193.506667,1.41 193.25,1.41 C193.016667,1.41 192.655,1.31666667 192.165,1.13 C190.765,0.593333333 189.668333,0.325 188.875,0.325 C186.961667,0.325 185.380833,0.955 184.1325,2.215 C182.884167,3.475 182.26,5.07333333 182.26,7.01 C182.26,8.52666667 182.691667,9.79833333 183.555,10.825 C184.418333,11.8516667 185.958333,12.9133333 188.175,14.01 C190.018333,14.92 191.319167,15.8358333 192.0775,16.7575 C192.835833,17.6791667 193.215,18.7933333 193.215,20.1 C193.215,21.57 192.824167,22.7075 192.0425,23.5125 C191.260833,24.3175 190.158333,24.72 188.735,24.72 C185.398333,24.72 183.426667,22.6433333 182.82,18.49 C182.726667,17.93 182.563333,17.65 182.33,17.65 C182.05,17.65 181.91,17.825 181.91,18.175 C181.91,18.4083333 181.921667,18.595 181.945,18.735 C181.991667,19.8083333 182.015,20.4616667 182.015,20.695 C182.015,21.9083333 181.921667,23.2266667 181.735,24.65 C181.711667,24.7433333 181.7,24.8833333 181.7,25.07 C181.7,25.35 181.816667,25.49 182.05,25.49 Z M210.33,25.42 C213.363333,25.42 215.924167,24.2183333 218.0125,21.815 C220.100833,19.4116667 221.145,16.4716667 221.145,12.995 C221.145,9.40166667 220.095,6.39166667 217.995,3.965 C215.895,1.53833333 213.293333,0.325 210.19,0.325 C206.9,0.325 204.199167,1.48583333 202.0875,3.8075 C199.975833,6.12916667 198.92,9.11 198.92,12.75 C198.92,16.32 200.016667,19.3241667 202.21,21.7625 C204.403333,24.2008333 207.11,25.42 210.33,25.42 Z M210.365,24.79 C207.985,24.79 206.135833,23.7516667 204.8175,21.675 C203.499167,19.5983333 202.84,16.6816667 202.84,12.925 C202.84,8.18833333 203.785,4.77 205.675,2.67 C206.701667,1.52666667 208.148333,0.955 210.015,0.955 C211.975,0.955 213.503333,1.70166667 214.6,3.195 C216.35,5.575 217.225,8.9 217.225,13.17 C217.225,16.7866667 216.606667,19.68 215.37,21.85 C214.25,23.81 212.581667,24.79 210.365,24.79 Z" id="PABLOMANSO" fill="#FFFFFF" fill-rule="nonzero"></path>
    </g>
</svg>