<?xml version="1.0" encoding="UTF-8"?>
<svg width="70px" height="76px" viewBox="0 0 70 76" version="1.1" xmlns="http://www.w3.org/2000/svg" xmlns:xlink="http://www.w3.org/1999/xlink">
    <!-- Generator: Sketch 52.5 (67469) - http://www.bohemiancoding.com/sketch -->
    <title>Push for burguer</title>
    <desc>Created with Sketch.</desc>
    <g id="Page-1" stroke="none" stroke-width="1" fill="none" fill-rule="evenodd">
        <g id="Push-for-burguer" fill="#FFFFFF">
            <path d="M30.07,46.18 C31.2,46.18 31.98,45.73 31.98,44.68 C31.98,43.63 31.48,43.08 29.98,43.08 C29.65,43.08 29.18,43.08 28.83,43.13 C28.83,43.6 28.83,45.52 28.83,46.13 C29.15,46.16 29.67,46.18 30.07,46.18 Z" id="Path"></path>
            <path d="M7.64,33.64 C8.55,33.64 9.25,33.26 9.25,32.36 C9.25,31.24 8.38,30.98 7.36,30.98 C7.11353347,30.9659476 6.86646653,30.9659476 6.62,30.98 C6.62,31.4 6.62,33.03 6.62,33.57 L7.64,33.64 Z" id="Path"></path>
            <path d="M10.15,48.94 C10.15,48.03 9.4,47.54 8.06,47.54 C7.64,47.54 7.33,47.54 7.06,47.59 C7.06,47.92 7.06,50.22 7.06,50.22 C7.45131984,50.2697544 7.84554233,50.2931405 8.24,50.29 C9.56,50.3 10.15,49.72 10.15,48.94 Z" id="Path"></path>
            <path d="M68.39,50 C68.22,49.71 67.98,49.34 67.72,48.95 L67.42,48.51 C68.2024749,47.3695923 68.608128,46.0127528 68.58,44.63 C68.5934277,43.0687243 68.1140135,41.5429972 67.21,40.27 C67.3614782,40.1415582 67.4989129,39.9974194 67.62,39.84 C68.3950358,38.7983505 68.3950358,37.3716495 67.62,36.33 C67.47,36.08 67.27,35.77 67.04,35.43 L66.97,35.33 C67.5581142,34.3529621 67.8595917,33.2302182 67.84,32.09 C67.9269864,30.1803535 67.0895993,28.3455455 65.59,27.16 C64.5885472,26.4170899 63.4088787,25.9514313 62.17,25.81 C63.0590752,24.9732163 63.3656405,23.6880003 62.95,22.54 C64.434192,22.0475801 65.6119813,20.9038962 66.1477885,19.4348101 C66.6835958,17.9657241 66.5186691,16.3323228 65.7,15 C62.6619694,10.7097324 58.607706,7.23955772 53.9,4.9 C41.9191748,-1.30544938 27.6708252,-1.30544938 15.69,4.9 C10.982294,7.23955772 6.92803056,10.7097324 3.89,15 C2.85462893,16.5636132 2.78127249,18.575124 3.7,20.21 C4.20088066,21.1382237 4.9762101,21.8891058 5.92,22.36 C5.36734109,23.512375 5.58641897,24.8865908 6.47,25.81 C5.47,25.81 4.31,25.89 3.61,25.98 L1.4,26.24 L1.11,28.45 C0.94,29.75 0.98,38.39 1.11,39.23 L1.11,39.4 C1.13148688,39.5285331 1.1615541,39.6554836 1.2,39.78 C0.97,40.38 0.97,40.42 1.04,46.78 C1.04,48.37 1.04,49.78 1.1,50.86 C1.1,51.43 1.1,51.86 1.1,52.25 C1.02139122,53.2584781 1.43032606,54.2436393 2.2,54.9 C2.68,55.28 3.1,55.62 6.52,55.71 C5.35861248,57.2222628 5.09537314,59.240431 5.83,61 L5.54,61 C4.42177805,60.9991726 3.50300824,61.8826051 3.46,63 C3.35,64.86 3.21,67.18 4.85,69.19 C7.41,72.38 13.74,74.25 24.48,74.94 L4.1,74.94 C3.56,74.94 3.1,75.14 3.1,75.4 C3.1,75.66 3.54,75.86 4.1,75.86 L64.78,75.86 C65.32,75.86 65.78,75.66 65.78,75.4 C65.78,75.14 65.34,74.94 64.78,74.94 L45.26,74.94 C56.04,74.24 62.55,72.27 65.46,68.94 C66.7862434,67.3477702 67.4960528,65.3319115 67.46,63.26 C67.5109217,62.674389 67.3116788,62.094574 66.9115494,61.6639585 C66.51142,61.2333431 65.9477682,60.9921381 65.36,61 L65.2,61 C65.9335526,59.2449949 65.6742871,57.2318742 64.52,55.72 C65.9957721,55.4195055 67.3554603,54.7049754 68.44,53.66 C69.2557563,52.56999 69.235228,51.067319 68.39,50 Z M62.39,66.06 C58.65,70.38 43.65,71 35,71 C14.7,71 9.41,68.19 8.06,66.5 C7.7525388,66.1001011 7.57772555,65.6141203 7.56,65.11 L62.93,65.11 C62.7991634,65.4750293 62.5988003,65.8112319 62.34,66.1 L62.39,66.06 Z M65,32.06 C65.126459,33.3593356 64.344568,34.5756104 63.11,35 C63.9379002,35.9855705 64.6711379,37.0469236 65.3,38.17 C64.6127642,38.6148932 63.8449362,38.9206655 63.04,39.07 C63.04,39.07 61.74,37 60.53,35.45 C60.4668755,35.4572729 60.4031245,35.4572729 60.34,35.45 L59.57,35.45 C59.57,36.45 59.57,38.45 59.5,38.85 C58.6748844,38.9216172 57.8451156,38.9216172 57.02,38.85 C56.95,38.17 57.02,29.75 57.14,28.74 C57.88,28.65 59.45,28.58 60.58,28.58 C63.36,28.61 65,29.72 65,32.15 L65,32.06 Z M10.8,57.66 L60.27,57.66 C60.7119847,57.619007 61.1391038,57.8316575 61.3727879,58.2090468 C61.6064719,58.5864361 61.6064719,59.0635639 61.3727879,59.4409532 C61.1391038,59.8183425 60.7119847,60.030993 60.27,59.99 L10.75,59.99 C10.3080153,60.030993 9.88089617,59.8183425 9.64721212,59.4409532 C9.41352807,59.0635639 9.41352807,58.5864361 9.64721212,58.2090468 C9.88089617,57.8316575 10.3080153,57.619007 10.75,57.66 L10.8,57.66 Z M16.4,36.54 C17.69,36.54 18.08,35.61 18.08,34.42 C18.08,32.57 17.98,29.34 17.98,28.63 C18.8804361,28.4641758 19.8005975,28.4338408 20.71,28.54 C20.77,28.8 20.83,32.82 20.83,34.54 C20.83,36.92 19.95,39.06 16.45,39.06 C13.72,39.06 12.08,37.77 12.08,34.62 C12.08,33.21 12.17,29.53 12.3,28.75 C12.3,28.5 14.82,28.6 14.87,28.75 C14.94,29.01 14.74,32.88 14.74,34.36 C14.74,35.84 15.28,36.54 16.4,36.54 Z M14.15,40.6 C14.2,40.3 17.15,40.43 17.23,40.55 C17.32,40.86 17.07,45.55 17.07,47.28 C17.07,49.01 17.73,49.9 19.07,49.9 C20.62,49.9 21.07,48.78 21.07,47.35 C21.07,45.14 20.95,41.26 20.95,40.41 C22.028922,40.2138575 23.1311089,40.1801515 24.22,40.31 C24.29,40.62 24.36,45.44 24.36,47.55 C24.36,50.41 23.3,52.97 19.11,52.97 C15.84,52.97 13.87,51.42 13.87,47.65 C13.89,46 14,41.54 14.15,40.6 Z M24.34,34.76 C22.44,34.37 21.34,33.48 21.34,31.58 C21.34,29.92 22.69,28.48 25.14,28.48 C26.3303295,28.4236615 27.5104754,28.7230495 28.53,29.34 C28.72,29.49 27.85,31.34 27.7,31.34 C26.9199126,30.946455 26.0632859,30.7280322 25.19,30.7 C24.32,30.7 23.91,31.05 23.91,31.53 C23.91,32.01 24.16,32.21 25.56,32.53 C27.43,32.97 28.88,33.72 28.88,35.71 C28.88,37.25 27.65,38.87 24.82,38.87 C23.5590448,38.8834904 22.3204676,38.53655 21.25,37.87 C21.3598105,37.124487 21.6367098,36.4134368 22.06,35.79 C22.8332772,36.3630515 23.7509181,36.7093311 24.71,36.79 C25.57,36.79 26.12,36.53 26.12,35.9 C26.19,35.42 25.84,35.07 24.34,34.76 Z M42.11,33.42 C43.294271,33.3891405 44.4793441,33.4225229 45.66,33.52 C45.7616676,34.1817087 45.781818,34.8533868 45.72,35.52 C44.5308808,35.5847494 43.3391192,35.5847494 42.15,35.52 C42.15,36.74 42.15,38.33 42.15,38.78 C41.3080933,38.9262599 40.4501232,38.9565412 39.6,38.87 C39.6,38.39 39.41,29.8 39.48,28.68 C40.09,28.59 46.33,28.56 46.48,28.68 C46.5761747,29.4135277 46.5761747,30.1564723 46.48,30.89 C46.07,30.95 43.17,30.89 42,30.89 L42.11,33.42 Z M41.69,40.23 C43.1197104,40.1615089 44.5302272,40.5811377 45.69,41.42 C45.3853764,42.3110927 44.9470336,43.1506877 44.39,43.91 C43.5903684,43.4342717 42.6803121,43.175733 41.75,43.16 C40.8771206,43.1681192 40.0470159,43.5392298 39.4588845,44.1842771 C38.8707532,44.8293243 38.5776825,45.6900836 38.65,46.56 C38.65,49.05 39.95,50.2 41.65,50.2 C42.1870354,50.1856276 42.7178057,50.0808258 43.22,49.89 C43.22,49.45 43.22,48.23 43.22,48.23 L41.22,48.3 C41.1242283,47.5597515 41.1242283,46.8102485 41.22,46.07 C42.844003,45.8980766 44.4788209,45.851272 46.11,45.93 C46.2056644,47.8287958 46.2056644,49.7312042 46.11,51.63 C44.7015602,52.5401121 43.0568227,53.0164948 41.38,53 C37.31,53 35.38,50.11 35.38,46.46 C35.2906325,44.767732 35.9295389,43.1180814 37.1354405,41.9274686 C38.3413421,40.7368558 39.9990099,40.1190487 41.69,40.23 Z M38.4,38.83 C38.33,39.14 35.82,39 35.82,38.89 C35.82,38.35 35.82,36.8 35.82,35.07 C34.82,35.07 33.14,35.07 32.24,35.07 C32.24,36.63 32.24,38.07 32.24,38.87 C31.3754576,39.0078133 30.4945424,39.0078133 29.63,38.87 C29.56,38.04 29.46,29.61 29.57,28.62 C29.57,28.31 32.12,28.46 32.17,28.56 C32.17,29.04 32.24,30.74 32.26,32.68 L35.87,32.68 C35.87,30.92 35.87,29.31 35.94,28.77 C36.7966075,28.6619713 37.6633925,28.6619713 38.52,28.77 C38.53,28.83 38.54,37.85 38.4,38.83 Z M29.85,40.37 C33.19,40.37 35.1,41.7 35.1,44.61 C35.1925472,46.1039866 34.2943031,47.4818362 32.89,48 C33.884013,49.1812967 34.7645674,50.4535805 35.52,51.8 C34.6959441,52.3336768 33.775243,52.7005983 32.81,52.88 C32.76,52.88 31.24,50.42 29.81,48.52 C29.7335885,48.528846 29.6564115,48.528846 29.58,48.52 C29.28,48.52 28.87,48.52 28.66,48.52 C28.66,49.72 28.66,52.1 28.57,52.6 C27.5733656,52.7040228 26.5695473,52.7207531 25.57,52.65 C25.48,51.83 25.57,41.73 25.71,40.53 C26.61,40.46 28.49,40.37 29.84,40.37 L29.85,40.37 Z M55.42,43.06 C54.93,43.11 51.42,43.13 50.03,43.06 L50.03,45.19 C51.3808077,45.1475392 52.7329339,45.180925 54.08,45.29 C54.1912751,46.1221034 54.2080485,46.9641252 54.13,47.8 C52.7613061,47.8846002 51.3886939,47.8846002 50.02,47.8 C50.02,48.58 50.02,49.42 50.02,50.03 C51.59,50.03 54.67,49.98 55.15,50.03 C55.2631893,50.8996658 55.2631893,51.7803342 55.15,52.65 C55.29,52.74 48.36,52.77 46.97,52.65 C46.88,51.27 46.97,42.8 47.07,40.44 C48.69,40.34 55.14,40.3 55.33,40.39 C55.465031,41.2734456 55.4918957,42.1700547 55.41,43.06 L55.42,43.06 Z M51.42,39.11 C48.33,39.11 46.42,36.91 46.42,33.67 C46.42,31.04 48.07,28.46 51.42,28.46 C54.42,28.46 56.42,30.51 56.42,33.9 C56.38,36.48 54.86,39.11 51.39,39.11 L51.42,39.11 Z M60,24.34 L8.68,24.34 C8.27130929,24.34 7.94,24.0086907 7.94,23.6 C7.94,23.1913093 8.27130929,22.86 8.68,22.86 L60,22.86 C60.4086907,22.86 60.74,23.1913093 60.74,23.6 C60.74,24.0086907 60.4086907,24.34 60,24.34 Z M7.37,17.24 C11.46,11 21.78,4.37 34.8,4.37 C47.82,4.37 58.13,11 62.22,17.24 C62.3912859,17.519153 62.3912859,17.870847 62.22,18.15 C62.0816648,18.4561724 61.7759667,18.6521327 61.44,18.65 L8.13,18.65 C7.79403332,18.6521327 7.48833524,18.4561724 7.35,18.15 C7.18480049,17.8670952 7.19253063,17.5153737 7.37,17.24 Z M4,28.76 C4.74,28.67 6.39,28.6 7.53,28.6 C10.32,28.6 11.82,29.92 11.82,32.21 C11.82,34.83 10.28,35.9 7.53,35.9 L6.75,35.9 C6.75,36.9 6.75,38.58 6.68,38.84 C5.78247005,38.9342983 4.87752995,38.9342983 3.98,38.84 C3.85,38.18 3.82,29.76 4,28.76 Z M3.92,40.64 C5.08086872,40.4940717 6.25001098,40.4239232 7.42,40.43 C10.2,40.43 12.66,41.2 12.66,43.74 C12.7638726,44.7952658 12.1907345,45.8012634 11.23,46.25 L11.23,46.35 C12.6062452,46.6731543 13.5511526,47.9386553 13.47,49.35 C13.47,51.7 11.66,52.73 8.6,52.73 C7.06427087,52.7411796 5.52896362,52.6744271 4,52.53 C3.93,52.46 3.82,40.77 3.87,40.63 L3.92,40.64 Z M63.43,52.93 C63.38,52.93 61.86,50.47 60.43,48.57 C60.3535885,48.578846 60.2764115,48.578846 60.2,48.57 C59.9,48.57 59.49,48.57 59.28,48.57 C59.28,49.77 59.28,52.15 59.19,52.65 C58.1933656,52.7540228 57.1895473,52.7707531 56.19,52.7 C56.1,51.88 56.19,41.78 56.33,40.58 C57.22,40.48 59.1,40.39 60.45,40.39 C63.79,40.39 65.7,41.72 65.7,44.63 C65.7878602,46.1090272 64.9050332,47.4737643 63.52,48 C64.514013,49.1812967 65.3945674,50.4535805 66.15,51.8 C65.3268089,52.3525123 64.4023662,52.7365639 63.43,52.93 Z" id="Shape" fill-rule="nonzero"></path>
            <path d="M9.53,44.07 C9.53,43.07 8.45,42.8 7.69,42.8 C7.42261675,42.801942 7.15554425,42.818634 6.89,42.85 C6.89,42.94 6.89,43.13 6.89,43.37 L6.94,43.37 L7,44 L6.93,44.8 L6.88,44.8 C6.88,45.1 6.88,45.32 6.88,45.32 C7.07,45.32 7.28,45.32 7.63,45.32 C8.88,45.34 9.53,44.89 9.53,44.07 Z" id="Path"></path>
            <path d="M59.72,33.41 C60,33.41 60.43,33.41 60.72,33.41 C61.66,33.41 62.32,33.03 62.32,32.16 C62.32,31.29 61.9,30.82 60.64,30.82 C60.36,30.82 59.97,30.82 59.64,30.82 C59.73,31.3 59.72,32.9 59.72,33.41 Z" id="Path"></path>
            <path d="M51.39,30.84 C49.9,30.84 49.05,32.02 49.05,33.84 C49.05,35.47 49.93,36.75 51.33,36.75 C52.88,36.75 53.61,35.56 53.61,33.75 C53.61,31.94 52.68,30.84 51.39,30.84 Z" id="Path"></path>
            <path d="M60.59,43.08 C60.26,43.08 59.79,43.08 59.44,43.13 C59.44,43.6 59.44,45.52 59.44,46.13 C59.77,46.13 60.29,46.18 60.69,46.18 C61.82,46.18 62.6,45.73 62.6,44.68 C62.6,43.63 62.11,43.08 60.59,43.08 Z" id="Path"></path>
        </g>
    </g>
</svg>