<?xml version="1.0" encoding="UTF-8"?>
<svg width="100px" height="18px" viewBox="0 0 100 18" version="1.1" xmlns="http://www.w3.org/2000/svg" xmlns:xlink="http://www.w3.org/1999/xlink">
    <!-- Generator: Sketch 52.5 (67469) - http://www.bohemiancoding.com/sketch -->
    <title>santiago rotaeche</title>
    <desc>Created with Sketch.</desc>
    <g id="Page-1" stroke="none" stroke-width="1" fill="none" fill-rule="evenodd">
        <g id="santiago-rotaeche" transform="translate(-1.000000, 0.000000)" fill="#FFFFFF">
            <path d="M3.36,5.61 C3.73703461,5.60223705 4.11257073,5.65975159 4.47,5.78 L4.83,5.9 C4.94333333,5.96666667 5,6.05 5,6.15 L5,6.28 C4.99451681,6.35656863 4.99451681,6.43343137 5,6.51 L5,6.83 C5.00722353,6.93320709 5.00722353,7.03679291 5,7.14 C5,7.35333333 4.94,7.46333333 4.82,7.47 C4.7,7.47666667 4.64,7.40666667 4.64,7.26 C4.45409847,6.53824 3.81488901,6.02524387 3.07,6 C2.77430413,5.98752673 2.48486812,6.08757869 2.26,6.28 C2.06444813,6.46848323 1.95397406,6.72840018 1.95397406,7 C1.95397406,7.27159982 2.06444813,7.53151677 2.26,7.72 C2.68379662,8.00760835 3.14467011,8.23636308 3.63,8.4 C4.15968422,8.5714195 4.64469198,8.8583255 5.05,9.24 C5.33002828,9.57516786 5.4729219,10.0038487 5.45,10.44 C5.45754109,11.0293581 5.21822853,11.595006 4.79,12 C4.35741333,12.4300704 3.76994153,12.6679424 3.16,12.66 C2.64917619,12.6519658 2.14672989,12.5289177 1.69,12.3 C1.61507516,12.2578991 1.53413304,12.2275458 1.45,12.21 L1.24,12.21 C1.17866641,12.2226831 1.11493313,12.205902 1.06779834,12.164659 C1.02066355,12.1234161 0.995570814,12.0624744 1,12 L1,11.65 L1,10.65 L1,10.41 C1,10.2633333 1.06,10.1866667 1.18,10.18 C1.3,10.1733333 1.36666667,10.2566667 1.38,10.43 C1.45846556,10.956073 1.69169546,11.4469001 2.05,11.84 C2.35710002,12.1700617 2.7891967,12.355246 3.24,12.35 C3.60662462,12.3710339 3.96651279,12.245073 4.24,12 C4.49073673,11.7689837 4.62929928,11.4408093 4.62,11.1 C4.61345051,10.5290459 4.24319581,10.0259824 3.7,9.85 L3,9.46 C2.48146837,9.2645971 2.00842517,8.96511651 1.61,8.58 C1.33561599,8.27652822 1.18876977,7.87896893 1.2,7.47 C1.19005578,6.96189785 1.41064464,6.47660235 1.8,6.15 C2.23573629,5.78399544 2.79123748,5.59170657 3.36,5.61 Z" id="Path"></path>
            <path d="M9.92,8.88 L9.92,7.88 C9.96916312,7.42132917 9.84424697,6.96092391 9.57,6.59 C9.23099544,6.25428809 8.76652228,6.07648196 8.29,6.1 C7.57,6.1 7.21,6.40333333 7.21,7.01 C7.21604014,7.22094517 7.25310422,7.4298518 7.32,7.63 C7.35087198,7.71379333 7.37103167,7.80115198 7.38,7.89 C7.38,7.99 7.38,8.04 7.22,8.04 C6.9803968,8.043704 6.74352082,7.98877624 6.53,7.88 C6.32333333,7.77333333 6.22,7.65333333 6.22,7.52 C6.26015222,7.10054953 6.45646028,6.71150265 6.77,6.43 C7.28681639,5.88353498 8.01924852,5.59422429 8.77,5.64 C9.38588702,5.59924071 9.99696552,5.77232075 10.5,6.13 C10.8652704,6.4875554 11.0490891,6.99121853 11,7.5 L11,10.7 C10.9729751,11.069205 11.0346938,11.4395168 11.18,11.78 C11.3070565,11.997945 11.5487459,12.1226879 11.8,12.1 L12,12.1 L12.2,12.1 C12.2933333,12.1 12.3366667,12.1366667 12.33,12.21 C12.3233333,12.2833333 12.1933333,12.3833333 11.94,12.51 C11.7050944,12.6065302 11.4539531,12.6574372 11.2,12.66 C10.6746526,12.6016854 10.2187745,12.2711738 10,11.79 C9.38443533,12.3218863 8.61185756,12.6379408 7.8,12.69 C7.35587777,12.7142873 6.91931638,12.567574 6.58,12.28 C6.27480798,11.9936692 6.11035604,11.5880211 6.13,11.17 C6.12094258,10.5580688 6.45750343,9.9932655 7,9.71 C7.91500956,9.25871074 8.90441974,8.97747429 9.92,8.88 Z M9.92,9.21 C9.2162873,9.2306059 8.52884552,9.42652681 7.92,9.78 C7.49900955,10.0395339 7.25057827,10.5058203 7.27,11 C7.2458746,11.3303714 7.36664083,11.6548993 7.60087075,11.8891292 C7.83510068,12.1233592 8.15962857,12.2441254 8.49,12.22 C8.91830611,12.2310689 9.33295307,12.0688157 9.64,11.77 C9.84913578,11.5190806 9.94987431,11.1952781 9.92,10.87 L9.92,9.21 Z" id="Shape" fill-rule="nonzero"></path>
            <path d="M14.73,6.91 C15.2479495,6.15222018 16.0843029,5.67325132 17,5.61 C17.8280337,5.58722282 18.6097386,5.99129245 19.07,6.68 C19.4651108,7.35720141 19.6463656,8.13799156 19.59,8.92 L19.59,11.12 L19.59,11.51 C19.6378865,11.8589658 19.9281289,12.1239697 20.28,12.14 L20.62,12.14 C20.7666667,12.14 20.8433333,12.1933333 20.85,12.3 C20.8566667,12.4066667 20.7666667,12.4666667 20.58,12.48 L20.26,12.48 C19.9269495,12.4605811 19.5930505,12.4605811 19.26,12.48 L18.45,12.48 L18.14,12.48 L17.9,12.48 L17.79,12.48 C17.7457889,12.4525764 17.7221854,12.4014354 17.73,12.35 C17.73,12.2633333 17.78,12.21 17.88,12.19 L18.13,12.12 C18.35,12.0666667 18.46,11.87 18.46,11.53 L18.46,8.73 C18.5136758,8.11728549 18.3509081,7.50513728 18,7 C17.6244057,6.57617458 17.0753824,6.34772192 16.51,6.38 C16.0738403,6.3778264 15.6489267,6.51829373 15.3,6.78 C14.9825922,6.98065891 14.7843604,7.32475944 14.77,7.7 L14.77,11.48 C14.77,11.94 15.15,12.19 15.91,12.23 C16.09,12.23 16.18,12.29 16.18,12.41 C16.18,12.53 16.1166667,12.58 15.99,12.56 C15.8502032,12.5706676 15.7097968,12.5706676 15.57,12.56 L14.8,12.56 C13.9333333,12.56 13.4166667,12.56 13.25,12.56 L12.92,12.56 C12.8133333,12.56 12.7633333,12.5166667 12.77,12.43 C12.7766667,12.3433333 12.83,12.29 12.93,12.27 C13.1496416,12.2113358 13.3454435,12.0854632 13.49,11.91 C13.6012835,11.6979756 13.6498463,11.4586305 13.63,11.22 L13.63,7.51 C13.6539536,7.23892238 13.6056475,6.96633818 13.49,6.72 C13.3631398,6.56683101 13.1676488,6.48788273 12.97,6.51 L12.6,6.51 C12.5574249,6.52146379 12.5125751,6.52146379 12.47,6.51 C12.4235308,6.48894632 12.3954531,6.44081307 12.4,6.39 C12.4,6.31 12.47,6.25666667 12.61,6.23 C12.9767119,6.16363091 13.3331016,6.04931723 13.67,5.89 L14.1,5.68 L14.42,5.52 C14.4793812,5.47954482 14.5483513,5.45540529 14.62,5.45 C14.72,5.45 14.7633333,5.53 14.75,5.69 C14.7366667,5.85 14.7366667,5.95333333 14.75,6 L14.73,6.91 Z" id="Path"></path>
            <path d="M22.63,6.6 L22.63,10.71 C22.5940455,11.0595916 22.6749258,11.411245 22.86,11.71 C23.1257038,11.9679503 23.4914296,12.0959544 23.86,12.06 C24.1504239,12.0686752 24.4386315,12.0069164 24.7,11.88 L25.13,11.68 C25.1966667,11.68 25.23,11.71 25.23,11.77 C25.23,11.95 25.0133333,12.1433333 24.58,12.35 C24.2084242,12.5423179 23.7982314,12.6482844 23.38,12.66 C22.1266667,12.66 21.5,11.9933333 21.5,10.66 L21.5,6.6 L20.77,6.6 C20.63,6.6 20.56,6.56 20.56,6.48 C20.56,6.4 20.63,6.3 20.77,6.18 C21.3365319,5.71771827 21.8289086,5.17138248 22.23,4.56 C22.3766667,4.32 22.48,4.2 22.54,4.2 C22.6,4.2 22.6366667,4.27 22.65,4.41 L22.65,5.82 L24.39,5.82 C24.5853673,5.83241394 24.7800817,5.78721238 24.95,5.69 C25.0024121,5.64453913 25.0637118,5.61048374 25.13,5.59 C25.19,5.59 25.2166667,5.62 25.21,5.68 C25.1967686,5.75297182 25.173198,5.82368372 25.14,5.89 L24.95,6.36 C24.8997399,6.51347333 24.7509985,6.61263425 24.59,6.6 L22.63,6.6 Z" id="Path"></path>
            <path d="M27.85,11.15 C27.8273896,11.4167816 27.872088,11.6849721 27.98,11.93 C28.1163244,12.0862448 28.312663,12.1771423 28.52,12.18 L28.9,12.18 C29.0933333,12.18 29.19,12.25 29.19,12.39 C29.19,12.53 29.1166667,12.5766667 28.97,12.53 L28.44,12.53 L27.87,12.53 L27.35,12.53 L26.75,12.53 L26.5,12.53 L26.2,12.53 C26.0533333,12.53 25.98,12.48 25.98,12.38 C25.9787595,12.2912156 26.0424474,12.2147902 26.13,12.2 L26.29,12.2 C26.4481391,12.1516801 26.5787432,12.0392155 26.65,11.89 C26.730345,11.6623695 26.7643454,11.4209672 26.75,11.18 L26.75,7.62 C26.7769116,7.32051239 26.7323573,7.01891379 26.62,6.74 C26.5333333,6.60666667 26.3466667,6.54 26.06,6.54 C25.7733333,6.54 25.6733333,6.49666667 25.76,6.41 C25.8466667,6.32333333 25.9866667,6.24333333 26.18,6.17 C26.5823377,6.02587599 26.9734136,5.85206444 27.35,5.65 L27.79,5.45 C27.8633333,5.45 27.9,5.51666667 27.9,5.65 L27.85,11.15 Z M27.34,2.24 C27.4733333,2.24 27.6066667,2.35 27.74,2.57 L27.94,2.88 C27.9877933,2.9400132 28.0157498,3.01339893 28.02,3.09 C27.9899684,3.29347071 27.8911514,3.48051709 27.74,3.62 C27.5466667,3.84666667 27.3933333,3.96 27.28,3.96 C27.1666667,3.96 27.02,3.85 26.84,3.63 C26.6807143,3.51320983 26.5866061,3.32751422 26.5866061,3.13 C26.5866061,2.93248578 26.6807143,2.74679017 26.84,2.63 C27.06,2.37 27.2266667,2.24 27.34,2.24 Z" id="Shape" fill-rule="nonzero"></path>
            <path d="M33.52,8.88 L33.52,7.88 C33.5691631,7.42132917 33.444247,6.96092391 33.17,6.59 C32.8309954,6.25428809 32.3665223,6.07648196 31.89,6.1 C31.17,6.1 30.81,6.40333333 30.81,7.01 C30.8160401,7.22094517 30.8531042,7.4298518 30.92,7.63 C30.950872,7.71379333 30.9710317,7.80115198 30.98,7.89 C30.98,7.99 30.98,8.04 30.82,8.04 C30.5803968,8.043704 30.3435208,7.98877624 30.13,7.88 C29.9233333,7.77333333 29.82,7.65333333 29.82,7.52 C29.8601522,7.10054953 30.0564603,6.71150265 30.37,6.43 C30.8868164,5.88353498 31.6192485,5.59422429 32.37,5.64 C32.985887,5.59924071 33.5969655,5.77232075 34.1,6.13 C34.5116837,6.47081415 34.7378943,6.98627754 34.71,7.52 L34.71,10.72 C34.6829751,11.089205 34.7446938,11.4595168 34.89,11.8 C35.0170565,12.017945 35.2587459,12.1426879 35.51,12.12 L35.71,12.12 L35.91,12.12 C36.0033333,12.12 36.0466667,12.1566667 36.04,12.23 C36.0333333,12.3033333 35.9033333,12.4033333 35.65,12.53 C35.4150944,12.6265302 35.1639531,12.6774372 34.91,12.68 C34.3896393,12.6329501 33.9312532,12.3185199 33.7,11.85 C33.0844353,12.3818863 32.3118576,12.6979408 31.5,12.75 C31.0558778,12.7742873 30.6193164,12.627574 30.28,12.34 C29.974808,12.0536692 29.810356,11.6480211 29.83,11.23 C29.8190092,10.6202549 30.1513781,10.0560007 30.69,9.77 C31.5732238,9.30817777 32.5314268,9.00683477 33.52,8.88 Z M33.52,9.21 C32.8162873,9.2306059 32.1288455,9.42652681 31.52,9.78 C31.0990096,10.0395339 30.8505783,10.5058203 30.87,11 C30.8458746,11.3303714 30.9666408,11.6548993 31.2008708,11.8891292 C31.4351007,12.1233592 31.7596286,12.2441254 32.09,12.22 C32.5183061,12.2310689 32.9329531,12.0688157 33.24,11.77 C33.4491358,11.5190806 33.5498743,11.1952781 33.52,10.87 L33.52,9.21 Z" id="Shape" fill-rule="nonzero"></path>
            <path d="M37.09,13.81 L37.09,13.74 C36.7242166,13.5108416 36.4900652,13.1205893 36.46,12.69 C36.4811095,11.9269474 36.8927701,11.2282573 37.55,10.84 C36.7335466,10.370907 36.2531787,9.47990197 36.31,8.54 C36.2953265,7.7886842 36.5921301,7.06477299 37.13,6.54 C37.66105,6.01269204 38.3816793,5.72083716 39.13,5.73 C39.836755,5.71962728 40.5313941,5.91412623 41.13,6.29 C41.2638518,6.39466433 41.4221653,6.46349632 41.59,6.49 C41.8563291,6.47501331 42.1144481,6.39241522 42.34,6.25 C42.5568862,6.15721259 42.7339871,5.99073776 42.84,5.78 L42.96,5.43 C42.9784851,5.36301538 43.0405567,5.31749621 43.11,5.32 C43.2166667,5.32 43.27,5.39333333 43.27,5.54 C43.249228,5.78759238 43.2022997,6.03228964 43.13,6.27 C43.067321,6.52768167 42.9802619,6.77881373 42.87,7.02 C42.7555305,7.23252342 42.5551648,7.38553 42.32,7.44 C42.2,7.48 42.14,7.53666667 42.14,7.61 C42.1329629,7.66979366 42.1329629,7.73020634 42.14,7.79 C42.2015524,8.04862547 42.2284546,8.31428522 42.22,8.58 C42.2161263,9.29459148 41.8979122,9.97125367 41.35,10.43 C40.8086505,10.9390291 40.0930795,11.2216797 39.35,11.22 C38.9774639,11.2164363 38.6059896,11.1796235 38.24,11.11 C38.1402513,11.0999749 38.0397487,11.0999749 37.94,11.11 C37.7114897,11.125334 37.502079,11.2428979 37.37,11.43 C37.1973348,11.6144231 37.1008725,11.8573651 37.1,12.11 C37.0960832,12.428327 37.3045333,12.7103477 37.61,12.8 C38.1746343,12.9640002 38.7628812,13.0316148 39.35,13 C40.2337542,12.9422122 41.1197503,13.0717039 41.95,13.38 C42.4474798,13.6200623 42.7485267,14.1389721 42.71,14.69 C42.6923852,15.4409731 42.2876365,16.1294242 41.64,16.51 C40.8693958,17.0258373 39.9568938,17.2880505 39.03,17.26 C38.1933536,17.2953311 37.3612324,17.1199667 36.61,16.75 C36.0631063,16.5200546 35.6999775,15.9929322 35.68,15.4 C35.7266667,14.64 36.1966667,14.11 37.09,13.81 Z M37.5,13.95 C37.0136187,14.1378351 36.6732583,14.5820654 36.6184572,15.1005686 C36.563656,15.6190719 36.8036314,16.1246385 37.24,16.41 C37.7551576,16.7178923 38.3508208,16.8641956 38.95,16.83 C39.6874409,16.8557318 40.4186462,16.6867268 41.07,16.34 C41.5606197,16.1260315 41.8892411,15.6543633 41.92,15.12 C41.92,14.54 41.4833333,14.25 40.61,14.25 L39.61,14.19 L38.61,14.12 C38.234894,14.104122 37.8626645,14.0471139 37.5,13.95 Z M39.21,6 C38.7343959,6.00363356 38.2903717,6.2387052 38.02,6.63 C37.6893737,7.06662263 37.5166291,7.60248355 37.53,8.15 C37.5005962,8.82210393 37.6824414,9.48653841 38.05,10.05 C38.3361388,10.5094327 38.8387487,10.7890802 39.38,10.79 C39.8634006,10.802955 40.322643,10.5789343 40.61,10.19 C40.9400515,9.73504736 41.1057713,9.18147283 41.08,8.62 C41.1063062,7.95308731 40.9207732,7.2949701 40.55,6.74 C40.2592765,6.28040517 39.7538253,6.0012754 39.21,6 Z" id="Shape" fill-rule="nonzero"></path>
            <path d="M46.95,5.61 C47.8940858,5.58623571 48.8072892,5.94718568 49.48,6.61 C50.1584105,7.24722577 50.5391714,8.13929418 50.53,9.07 C50.5708883,10.0288415 50.208197,10.9609581 49.53,11.64 C48.8246647,12.3153203 47.8758344,12.6760923 46.9,12.64 C45.94581,12.6708408 45.0206404,12.3094464 44.34,11.64 C43.0104251,10.2290611 43.0369503,8.01862738 44.4,6.64 C45.0770834,5.96799397 45.9961347,5.5967693 46.95,5.61 Z M46.74,5.94 C46.1000373,5.91452625 45.4865843,6.19708642 45.09,6.7 C44.6498348,7.27056567 44.4297531,7.98050656 44.47,8.7 C44.4373344,9.63192065 44.7113495,10.5488175 45.25,11.31 C45.6807796,11.9619722 46.408577,12.3558832 47.19,12.36 C47.8117443,12.3872192 48.4081158,12.1113973 48.79,11.62 C49.2016134,11.0369826 49.405833,10.3327769 49.37,9.62 C49.4086085,8.69015003 49.1493563,7.77225687 48.63,7 C48.222843,6.34658305 47.5098607,5.94670939 46.74,5.94 Z" id="Shape" fill-rule="nonzero"></path>
            <path d="M53.65,7.1 C54.2833333,6.10666667 54.8666667,5.61 55.4,5.61 C55.6481595,5.64128232 55.8813937,5.74571555 56.07,5.91 C56.3433333,6.11 56.4866667,6.27333333 56.5,6.4 C56.5133333,6.52666667 56.4266667,6.67666667 56.24,6.85 C56.06,7.07 55.9333333,7.18333333 55.86,7.19 C55.7302754,7.14257853 55.6087973,7.0750907 55.5,6.99 C55.3079025,6.83936963 55.0738163,6.75202405 54.83,6.74 C54.5142453,6.7340941 54.2114505,6.86542677 54,7.1 C53.7766568,7.345374 53.6582101,7.6684105 53.67,8 L53.67,10.91 C53.6386108,11.2534713 53.7008119,11.5990326 53.85,11.91 C53.9978846,12.1164818 54.2360235,12.2392722 54.49,12.24 L54.92,12.24 C55.0933333,12.24 55.18,12.2933333 55.18,12.4 C55.18,12.5066667 55.1033333,12.56 54.95,12.56 L54.56,12.56 L54.1,12.56 L53.1,12.56 C52.7969952,12.5400338 52.4930048,12.5400338 52.19,12.56 L51.89,12.56 C51.7433333,12.56 51.67,12.5066667 51.67,12.4 C51.67,12.2933333 51.7533333,12.2333333 51.92,12.22 C52.1085561,12.1955942 52.27495,12.0846649 52.37,11.92 C52.4581465,11.614945 52.4919947,11.2967721 52.47,10.98 L52.47,7.51 C52.47,6.88333333 52.17,6.57 51.57,6.57 L51.29,6.57 C51.1633333,6.57 51.1,6.51333333 51.1,6.4 C51.1021965,6.3288794 51.1510962,6.26775472 51.22,6.25 L51.4,6.25 C52.05276,6.14869528 52.674602,5.90269185 53.22,5.53 C53.2781347,5.49444217 53.3426917,5.470658 53.41,5.46 C53.5366667,5.46 53.6,5.55333333 53.6,5.74 L53.6,7.1 L53.65,7.1 Z" id="Path"></path>
            <path d="M59.79,5.61 C60.7340858,5.58623571 61.6472892,5.94718568 62.32,6.61 C63.0021006,7.24547376 63.3865878,8.13777433 63.38,9.07 C63.4208883,10.0288415 63.058197,10.9609581 62.38,11.64 C61.6746647,12.3153203 60.7258344,12.6760923 59.75,12.64 C58.79581,12.6708408 57.8706404,12.3094464 57.19,11.64 C55.8604251,10.2290611 55.8869503,8.01862738 57.25,6.64 C57.9240102,5.9695263 58.8393746,5.59833521 59.79,5.61 Z M59.58,5.94 C58.9435078,5.91776222 58.3344776,6.19999575 57.94,6.7 C57.4998348,7.27056567 57.2797531,7.98050656 57.32,8.7 C57.2873344,9.63192065 57.5613495,10.5488175 58.1,11.31 C58.5273538,11.9427609 59.236551,12.3272204 60,12.34 C60.6217443,12.3672192 61.2181158,12.0913973 61.6,11.6 C62.0116134,11.0169826 62.215833,10.3127769 62.18,9.6 C62.2261366,8.68125913 61.9811715,7.7713887 61.48,7 C61.0709479,6.3435916 60.3534241,5.94328883 59.58,5.94 Z" id="Shape" fill-rule="nonzero"></path>
            <path d="M65.49,6.6 L65.49,10.71 C65.4540455,11.0595916 65.5349258,11.411245 65.72,11.71 C65.9857038,11.9679503 66.3514296,12.0959544 66.72,12.06 C67.0104239,12.0686752 67.2986315,12.0069164 67.56,11.88 L67.99,11.68 C68.0566667,11.68 68.09,11.71 68.09,11.77 C68.09,11.95 67.8733333,12.1433333 67.44,12.35 C67.0684242,12.5423179 66.6582314,12.6482844 66.24,12.66 C64.9866667,12.66 64.36,11.9933333 64.36,10.66 L64.36,6.6 L63.63,6.6 C63.49,6.6 63.42,6.6 63.42,6.48 C63.42,6.36 63.49,6.31 63.63,6.18 C64.1965319,5.71771827 64.6889086,5.17138248 65.09,4.56 C65.2366667,4.32 65.34,4.2 65.4,4.2 C65.46,4.2 65.4966667,4.27 65.51,4.41 L65.51,5.82 L67.25,5.82 C67.4453673,5.83241394 67.6400817,5.78721238 67.81,5.69 C67.8624121,5.64453913 67.9237118,5.61048374 67.99,5.59 C68.05,5.59 68.08,5.59 68.07,5.68 C68.0569028,5.75300608 68.0333259,5.82373679 68,5.89 L67.81,6.36 C67.7597399,6.51347333 67.6109985,6.61263425 67.45,6.6 L65.49,6.6 Z" id="Path"></path>
            <path d="M72.23,8.88 L72.23,7.88 C72.2791631,7.42132917 72.154247,6.96092391 71.88,6.59 C71.5409954,6.25428809 71.0765223,6.07648196 70.6,6.1 C69.88,6.1 69.52,6.40333333 69.52,7.01 C69.5260401,7.22094517 69.5631042,7.4298518 69.63,7.63 C69.6607703,7.71382363 69.680927,7.8011693 69.69,7.89 C69.69,7.99 69.69,8.04 69.53,8.04 C69.2903968,8.043704 69.0535208,7.98877624 68.84,7.88 C68.6333333,7.77333333 68.53,7.65333333 68.53,7.52 C68.5701522,7.10054953 68.7664603,6.71150265 69.08,6.43 C69.5976062,5.88470379 70.3294706,5.59561736 71.08,5.64 C71.695887,5.59924071 72.3069655,5.77232075 72.81,6.13 C73.2216837,6.47081415 73.4478943,6.98627754 73.42,7.52 L73.42,10.72 C73.3929751,11.089205 73.4546938,11.4595168 73.6,11.8 C73.7270565,12.017945 73.9687459,12.1426879 74.22,12.12 L74.42,12.12 L74.62,12.12 C74.7133333,12.12 74.7566667,12.1566667 74.75,12.23 C74.7433333,12.3033333 74.6133333,12.4033333 74.36,12.53 C74.1250944,12.6265302 73.8739531,12.6774372 73.62,12.68 C73.0996393,12.6329501 72.6412532,12.3185199 72.41,11.85 C71.7944353,12.3818863 71.0218576,12.6979408 70.21,12.75 C69.7658778,12.7742873 69.3293164,12.627574 68.99,12.34 C68.684808,12.0536692 68.520356,11.6480211 68.54,11.23 C68.5290092,10.6202549 68.8613781,10.0560007 69.4,9.77 C70.2832238,9.30817777 71.2414268,9.00683477 72.23,8.88 Z M72.23,9.21 C71.5262873,9.2306059 70.8388455,9.42652681 70.23,9.78 C69.8090096,10.0395339 69.5605783,10.5058203 69.58,11 C69.5558746,11.3303714 69.6766408,11.6548993 69.9108708,11.8891292 C70.1451007,12.1233592 70.4696286,12.2441254 70.8,12.22 C71.2283061,12.2310689 71.6429531,12.0688157 71.95,11.77 C72.1591358,11.5190806 72.2598743,11.1952781 72.23,10.87 L72.23,9.21 Z" id="Shape" fill-rule="nonzero"></path>
            <path d="M75.64,8.41 L75.64,8.59 C75.6119941,9.43955695 75.8846698,10.2717489 76.41,10.94 C76.8473628,11.5575522 77.5533372,11.9291178 78.31,11.94 C79.0266549,11.8922443 79.7079941,11.6112797 80.25,11.14 C80.2845466,11.1105708 80.3257287,11.0899797 80.37,11.08 C80.4433333,11.08 80.48,11.1233333 80.48,11.21 C80.48,11.2966667 80.29,11.5266667 79.91,11.9 C79.2769048,12.4256907 78.4828188,12.7186202 77.66,12.73 C76.8016024,12.7472187 75.9802829,12.3805582 75.42,11.73 C74.1946936,10.2885397 74.1946936,8.17146032 75.42,6.73 C75.9480116,6.06269224 76.7491147,5.66949026 77.6,5.66 C78.473598,5.64306772 79.2954992,6.07286924 79.78,6.8 C79.9380611,7.03600502 80.0720645,7.28726131 80.18,7.55 C80.28328,7.75719853 80.3508939,7.98032454 80.38,8.21 C80.38,8.39 80.2033333,8.48 79.85,8.48 L79.24,8.48 L78.68,8.48 L75.64,8.41 Z M75.64,7.96 L78.41,7.96 C78.8433333,7.96 79.06,7.87333333 79.06,7.7 C79.0488753,7.24439913 78.8498075,6.81368865 78.51,6.51 C78.2017974,6.17061614 77.7682882,5.97192439 77.31,5.96 C76.8724823,5.95368213 76.4575291,6.15374889 76.19,6.5 C75.8784789,6.93945876 75.7044584,7.46152033 75.69,8 L75.64,7.96 Z" id="Shape" fill-rule="nonzero"></path>
            <path d="M84.52,5.61 C84.9468092,5.60404493 85.3719306,5.66477655 85.78,5.79 C86.1466667,5.91 86.33,6.04333333 86.33,6.19 L86.33,6.44 L86.39,7.06 C86.39,7.34666667 86.3233333,7.49666667 86.19,7.51 C86.0566667,7.52333333 85.98,7.44333333 85.96,7.27 C85.7479179,6.92323928 85.4431118,6.64267912 85.08,6.46 C84.7160285,6.24504427 84.3026329,6.12791554 83.88,6.12 C83.3458414,6.11797239 82.8492968,6.39467279 82.57,6.85 C82.2111831,7.40951771 82.033134,8.06585553 82.06,8.73 C82.0443034,9.5549525 82.3205591,10.3589273 82.84,11 C83.2942681,11.5952287 84.0012365,11.9431608 84.75,11.94 C85.4133806,11.9170823 86.0458875,11.65413 86.53,11.2 C86.5851286,11.1473625 86.6548129,11.1125204 86.73,11.1 C86.8166667,11.1 86.86,11.1366667 86.86,11.21 C86.86,11.2833333 86.73,11.46 86.47,11.74 C85.8029053,12.3441029 84.9297588,12.6697436 84.03,12.65 C83.188425,12.6551198 82.3873126,12.289315 81.84,11.65 C81.2860341,11.0249706 80.9863377,10.2150768 81,9.38 C80.9666136,8.3926928 81.3262505,7.43246229 82,6.71 C82.6438877,5.99961589 83.5612928,5.59916127 84.52,5.61 Z" id="Path"></path>
            <path d="M88.87,6.91 C89.3921996,6.1469106 90.237114,5.66726488 91.16,5.61 C91.8697563,5.58237389 92.555027,5.87187329 93.03,6.4 C93.5212624,6.97855659 93.774971,7.72181568 93.74,8.48 L93.74,11.07 C93.7074944,11.3678683 93.7780849,11.6678778 93.94,11.92 C94.1871255,12.1218388 94.491502,12.2407906 94.81,12.26 C94.9566667,12.26 95.03,12.32 95.03,12.44 C95.03,12.56 94.9566667,12.61 94.81,12.59 L94.41,12.59 C94.0033333,12.59 93.67,12.59 93.41,12.59 C93.0569534,12.5698691 92.7030466,12.5698691 92.35,12.59 L92.1,12.59 C91.9533333,12.59 91.8766667,12.54 91.87,12.44 C91.8633333,12.34 91.9166667,12.2833333 92.03,12.27 C92.2227899,12.2184775 92.4008629,12.1225921 92.55,11.99 C92.631136,11.8401786 92.6659412,11.6696331 92.65,11.5 L92.65,8.5 C92.6815307,7.90669142 92.4927843,7.3226458 92.12,6.86 C91.7633506,6.45227813 91.2412502,6.22799555 90.7,6.25 C90.2500656,6.2497732 89.8131985,6.40126744 89.46,6.68 C89.1224457,6.90174769 88.9165093,7.27617757 88.91,7.68 L88.91,10.85 C88.8714762,11.2206709 88.9372834,11.5947325 89.1,11.93 C89.356995,12.1482471 89.6828406,12.2686683 90.02,12.27 C90.2066667,12.27 90.3,12.3366667 90.3,12.47 C90.3,12.56 90.24,12.61 90.12,12.61 L89.67,12.61 C89.47,12.61 89.0533333,12.61 88.42,12.61 C88.2,12.61 87.8866667,12.61 87.48,12.61 L87.1,12.61 C86.9666667,12.61 86.8966667,12.5666667 86.89,12.48 C86.8833333,12.3933333 86.9466667,12.3266667 87.08,12.28 C87.3103863,12.2391792 87.5191651,12.1188659 87.67,11.94 C87.7679487,11.6541623 87.8054078,11.351084 87.78,11.05 L87.78,2.54 C87.78,1.87333333 87.5966667,1.54 87.23,1.54 L86.81,1.54 L86.7,1.54 C86.660925,1.51751498 86.6377494,1.47502625 86.64,1.43 C86.64,1.35 86.7033333,1.29333333 86.83,1.26 C87.2274219,1.15761383 87.6128996,1.0134787 87.98,0.83 L88.62,0.53 C88.6760121,0.517819235 88.7339879,0.517819235 88.79,0.53 C88.8833333,0.53 88.93,0.59 88.93,0.71 C88.93,0.71 88.93,0.81 88.93,0.91 C88.93,1.01 88.93,1.14 88.93,1.33 L88.87,6.91 Z" id="Path"></path>
            <path d="M96.15,8.41 L96.15,8.59 C96.1219941,9.43955695 96.3946698,10.2717489 96.92,10.94 C97.3573628,11.5575522 98.0633372,11.9291178 98.82,11.94 C99.5366549,11.8922443 100.217994,11.6112797 100.76,11.14 C100.794547,11.1105708 100.835729,11.0899797 100.88,11.08 C100.953333,11.08 100.99,11.1233333 100.99,11.21 C100.99,11.2966667 100.8,11.5266667 100.42,11.9 C99.7869048,12.4256907 98.9928188,12.7186202 98.17,12.73 C97.3116024,12.7472187 96.4902829,12.3805582 95.93,11.73 C94.7046936,10.2885397 94.7046936,8.17146032 95.93,6.73 C96.4580116,6.06269224 97.2591147,5.66949026 98.11,5.66 C98.983598,5.64306772 99.8054992,6.07286924 100.29,6.8 C100.448061,7.03600502 100.582064,7.28726131 100.69,7.55 C100.79328,7.75719853 100.860894,7.98032454 100.89,8.21 C100.89,8.39 100.713333,8.48 100.36,8.48 L99.8,8.48 L99.24,8.48 L96.15,8.41 Z M96.15,7.96 L99,7.96 C99.4333333,7.96 99.65,7.87333333 99.65,7.7 C99.6388753,7.24439913 99.4398075,6.81368865 99.1,6.51 C98.7917974,6.17061614 98.3582882,5.97192439 97.9,5.96 C97.4624823,5.95368213 97.0475291,6.15374889 96.78,6.5 C96.439892,6.93010842 96.2377196,7.4529681 96.2,8 L96.15,7.96 Z" id="Shape" fill-rule="nonzero"></path>
            <path d="M45.88,15.34 L45.73,15.34 C45.6933493,15.0078279 45.4037066,14.7620705 45.07,14.78 C44.8498994,14.7947516 44.645658,14.8997322 44.5055573,15.0701249 C44.3654567,15.2405176 44.3019319,15.4611986 44.33,15.68 C44.33,16.32 44.68,16.61 45.06,16.61 C45.3820991,16.6248153 45.6649212,16.3977006 45.72,16.08 L45.87,16.08 C45.8044567,16.4710508 45.4559646,16.750705 45.06,16.73 C44.58,16.73 44.19,16.37 44.19,15.73 C44.1736277,15.4772791 44.2599213,15.2286432 44.4293371,15.0404034 C44.5987529,14.8521636 44.8369567,14.7402468 45.09,14.73 C45.468661,14.7076971 45.805791,14.9680126 45.88,15.34 Z" id="Path"></path>
            <path d="M47.6,16.25 L47.51,16.45 C47.3695736,16.6380009 47.1442892,16.7431337 46.91,16.73 C46.54,16.73 46.3,16.55 46.3,16.19 C46.3,15.83 46.82,15.53 47.47,15.53 L47.6,15.53 L47.6,15.44 C47.6,15.35 47.6,15.27 47.6,15.19 C47.6,14.93 47.41,14.78 47.1,14.78 C46.959343,14.7689814 46.820098,14.8145001 46.7131087,14.9064734 C46.6061194,14.9984466 46.5402172,15.1292826 46.53,15.27 L46.38,15.27 C46.4118397,14.9076454 46.7269843,14.6368874 47.09,14.66 C47.5,14.66 47.7,14.85 47.73,15.18 C47.73,15.28 47.73,15.34 47.73,15.44 L47.73,16.08 C47.73,16.28 47.73,16.43 47.73,16.68 L47.58,16.68 L47.6,16.25 Z M47.6,15.91 L47.6,15.66 C47.03,15.66 46.46,15.77 46.46,16.19 C46.46,16.45 46.62,16.61 46.95,16.61 C47.1304564,16.6075983 47.3020579,16.5314051 47.4248605,16.3991562 C47.5476631,16.2669072 47.6109537,16.0901396 47.6,15.91 Z" id="Shape" fill-rule="nonzero"></path>
            <path d="M50.94,15.56 L50.94,16.68 L50.8,16.68 L50.8,15.63 C50.8068384,15.5167698 50.8068384,15.4032302 50.8,15.29 C50.8,14.98 50.62,14.79 50.32,14.79 C50.02,14.79 49.76,15.03 49.76,15.6 L49.76,16.69 L49.62,16.69 L49.62,15.63 C49.6267426,15.516767 49.6267426,15.403233 49.62,15.29 C49.62,14.98 49.43,14.79 49.14,14.79 C48.85,14.79 48.58,15.03 48.58,15.6 L48.58,16.69 L48.44,16.69 L48.44,14.69 L48.58,14.69 L48.58,15.07 L48.68,14.85 C48.803639,14.7032398 48.9882679,14.6220031 49.18,14.63 C49.4626025,14.6167489 49.7091595,14.8200503 49.75,15.1 L49.88,14.85 C50.0014418,14.7060508 50.1817302,14.625105 50.37,14.63 C50.5246081,14.6245718 50.6747817,14.6822202 50.786043,14.7897099 C50.8973043,14.8971996 50.9600953,15.0452967 50.96,15.2 C50.9621843,15.3203283 50.9554995,15.4406541 50.94,15.56 Z" id="Path"></path>
            <path d="M53.3,15.68 C53.334275,15.943232 53.2544297,16.2085649 53.0805757,16.4091656 C52.9067218,16.6097664 52.6554312,16.7265134 52.39,16.73 C52.183143,16.7416749 51.9817413,16.6611142 51.84,16.51 L51.73,16.28 L51.73,16.68 L51.59,16.68 L51.59,13.94 L51.73,13.94 L51.73,15.13 L51.85,14.91 C51.9967026,14.7389222 52.2150458,14.6464039 52.44,14.66 C52.6940002,14.6690051 52.9323515,14.7849865 53.0961822,14.9792974 C53.2600129,15.1736082 53.3340476,15.4281311 53.3,15.68 Z M53.14,15.68 C53.14,15.18 52.89,14.76 52.42,14.76 C51.95,14.76 51.73,14.98 51.73,15.6 L51.73,15.79 C51.73,16.4 52.09,16.59 52.39,16.59 C52.69,16.59 53.14,16.25 53.14,15.7 L53.14,15.68 Z" id="Shape" fill-rule="nonzero"></path>
            <path d="M54,14.31 C54,14.3707513 53.9507513,14.42 53.89,14.42 C53.8292487,14.42 53.78,14.3707513 53.78,14.31 C53.78,14.2492487 53.8292487,14.2 53.89,14.2 C53.9507513,14.2 54,14.2492487 54,14.31 Z M53.82,16.68 L53.82,14.68 L54,14.68 L54,16.68 L53.82,16.68 Z" id="Shape" fill-rule="nonzero"></path>
            <path d="M55.82,16.25 L55.73,16.45 C55.5895736,16.6380009 55.3642892,16.7431337 55.13,16.73 C54.76,16.73 54.52,16.55 54.52,16.19 C54.52,15.83 55.04,15.53 55.69,15.53 L55.82,15.53 L55.82,15.44 C55.82,15.35 55.82,15.27 55.82,15.19 C55.82,14.93 55.63,14.78 55.32,14.78 C55.179343,14.7689814 55.040098,14.8145001 54.9331087,14.9064734 C54.8261194,14.9984466 54.7602172,15.1292826 54.75,15.27 L54.6,15.27 C54.6318397,14.9076454 54.9469843,14.6368874 55.31,14.66 C55.72,14.66 55.92,14.85 55.95,15.18 C55.95,15.28 55.95,15.34 55.95,15.44 L55.95,16.08 C55.95,16.28 55.95,16.43 55.95,16.68 L55.8,16.68 L55.82,16.25 Z M55.82,15.91 L55.82,15.66 C55.25,15.66 54.68,15.77 54.68,16.19 C54.68,16.45 54.84,16.61 55.17,16.61 C55.3504564,16.6075983 55.5220579,16.5314051 55.6448605,16.3991562 C55.7676631,16.2669072 55.8309537,16.0901396 55.82,15.91 Z" id="Shape" fill-rule="nonzero"></path>
            <path d="M59,15.58 L59,16.67 L58.86,16.67 L58.86,15.62 C58.8665201,15.513433 58.8665201,15.406567 58.86,15.3 C58.860439,15.1575151 58.8012517,15.0213436 58.6967716,14.924462 C58.5922915,14.8275804 58.4520466,14.778824 58.31,14.79 C57.96,14.79 57.65,15.03 57.65,15.59 L57.65,16.68 L57.51,16.68 L57.51,13.92 L57.65,13.92 L57.65,15.13 L57.74,14.93 C57.8826698,14.751463 58.101628,14.6512618 58.33,14.66 C58.5011295,14.6432952 58.6715111,14.6984065 58.8004404,14.8121676 C58.9293696,14.9259287 59.0052668,15.0881223 59.01,15.26 C59.0135624,15.3667707 59.0102221,15.4736601 59,15.58 Z" id="Path"></path>
            <path d="M60.83,16.25 L60.74,16.45 C60.5995736,16.6380009 60.3742892,16.7431337 60.14,16.73 C59.77,16.73 59.53,16.55 59.53,16.19 C59.53,15.83 60.05,15.53 60.7,15.53 L60.83,15.53 L60.83,15.44 C60.83,15.35 60.83,15.27 60.83,15.19 C60.83,14.93 60.64,14.78 60.33,14.78 C60.189343,14.7689814 60.050098,14.8145001 59.9431087,14.9064734 C59.8361194,14.9984466 59.7702172,15.1292826 59.76,15.27 L59.61,15.27 C59.6418397,14.9076454 59.9569843,14.6368874 60.32,14.66 C60.73,14.66 60.93,14.85 60.96,15.18 C60.96,15.28 60.96,15.34 60.96,15.44 L60.96,16.08 C60.96,16.28 60.96,16.43 60.96,16.68 L60.81,16.68 L60.83,16.25 Z M60.83,15.91 L60.83,15.66 C60.26,15.66 59.69,15.77 59.69,16.19 C59.69,16.45 59.85,16.61 60.18,16.61 C60.3604564,16.6075983 60.5320579,16.5314051 60.6548605,16.3991562 C60.7776631,16.2669072 60.8409537,16.0901396 60.83,15.91 Z" id="Shape" fill-rule="nonzero"></path>
            <path d="M62.86,15.26 L62.71,15.26 C62.6836585,14.9846439 62.4463573,14.7781039 62.17,14.79 C62.0526031,14.7789264 61.9358097,14.8165494 61.8469503,14.894065 C61.7580909,14.9715807 61.7049634,15.0821865 61.7,15.2 C61.7,15.46 61.9,15.56 62.21,15.63 C62.52,15.7 62.88,15.88 62.88,16.21 C62.88,16.54 62.59,16.73 62.2,16.73 C62.0172901,16.749466 61.8346036,16.6930407 61.6946952,16.5739294 C61.5547868,16.4548182 61.4699358,16.2834751 61.46,16.1 L61.61,16.1 C61.6201358,16.2479023 61.6895495,16.3854497 61.8025064,16.4814631 C61.9154633,16.5774764 62.0623967,16.6238241 62.21,16.61 C62.49,16.61 62.73,16.47 62.73,16.21 C62.73,15.95 62.58,15.85 62.14,15.74 C61.7,15.63 61.55,15.53 61.55,15.2 C61.5543971,15.0420182 61.6253449,14.8932497 61.74534,14.7903967 C61.8653352,14.6875437 62.0232043,14.6401834 62.18,14.66 C62.3498193,14.6490533 62.5170062,14.7061889 62.6446074,14.8187782 C62.7722087,14.9313675 62.8497167,15.0901392 62.86,15.26 Z" id="Path"></path>
            <path d="M64,16.58 L64,16.69 L63.79,16.69 C63.7099819,16.7020832 63.6287631,16.6776375 63.5687083,16.6233944 C63.5086534,16.5691513 63.4760956,16.490831 63.48,16.41 C63.48,16.33 63.48,16.26 63.48,16.15 L63.48,14.84 L63.24,14.84 L63.24,14.73 L63.48,14.73 L63.48,14.31 L63.62,14.31 L63.62,14.73 L64,14.73 L64,14.84 L63.62,14.84 L63.62,16.17 C63.62,16.27 63.62,16.32 63.62,16.37 C63.62,16.42 63.72,16.62 64,16.58 Z" id="Path"></path>
            <path d="M65.68,16.25 L65.59,16.45 C65.4495736,16.6380009 65.2242892,16.7431337 64.99,16.73 C64.62,16.73 64.38,16.55 64.38,16.19 C64.38,15.83 64.9,15.53 65.55,15.53 L65.68,15.53 L65.68,15.44 C65.68,15.35 65.68,15.27 65.68,15.19 C65.68,14.93 65.49,14.78 65.18,14.78 C65.039343,14.7689814 64.900098,14.8145001 64.7931087,14.9064734 C64.6861194,14.9984466 64.6202172,15.1292826 64.61,15.27 L64.46,15.27 C64.4918397,14.9076454 64.8069843,14.6368874 65.17,14.66 C65.58,14.66 65.78,14.85 65.81,15.18 C65.81,15.28 65.81,15.34 65.81,15.44 L65.81,16.08 C65.81,16.28 65.81,16.43 65.81,16.68 L65.66,16.68 L65.68,16.25 Z M65.68,15.91 L65.68,15.66 C65.11,15.66 64.54,15.77 64.54,16.19 C64.54,16.45 64.7,16.61 65.03,16.61 C65.2104564,16.6075983 65.3820579,16.5314051 65.5048605,16.3991562 C65.6276631,16.2669072 65.6909537,16.0901396 65.68,15.91 Z" id="Shape" fill-rule="nonzero"></path>
            <path d="M68.89,16.68 L68.75,16.68 L68.75,16.26 L68.63,16.48 C68.4832974,16.6510778 68.2649542,16.7435961 68.04,16.73 C67.51,16.73 67.18,16.31 67.18,15.73 C67.1606997,15.4749029 67.2473352,15.2231206 67.4195167,15.0339102 C67.5916981,14.8446998 67.8342184,14.7347726 68.09,14.73 C68.296857,14.7183251 68.4982587,14.7988858 68.64,14.95 L68.75,15.18 L68.75,13.94 L68.89,13.94 L68.89,16.68 Z M68.75,15.77 L68.75,15.58 C68.75,14.97 68.39,14.78 68.09,14.78 C67.79,14.78 67.34,15.14 67.34,15.69 C67.34,16.24 67.59,16.61 68.06,16.61 C68.53,16.61 68.74,16.4 68.74,15.77 L68.75,15.77 Z" id="Shape" fill-rule="nonzero"></path>
            <path d="M71.27,15.7 C71.2372752,16.211346 70.8010522,16.6022853 70.2891897,16.5789936 C69.7773272,16.5557019 69.3784119,16.1267607 69.3922626,15.6145558 C69.4061132,15.1023509 69.8276268,14.6955951 70.34,14.7 C70.5992728,14.6992644 70.8470823,14.8067956 71.0236511,14.9966545 C71.2002198,15.1865134 71.2895163,15.4414618 71.27,15.7 Z M71.12,15.7 C71.1547058,15.4713913 71.0887999,15.2389478 70.9392681,15.062577 C70.7897363,14.8862062 70.5712064,14.7831613 70.34,14.78 C69.92,14.78 69.56,15.09 69.56,15.7 C69.5104461,16.0084769 69.6473469,16.317179 69.9092494,16.4875337 C70.1711518,16.6578883 70.5088482,16.6578883 70.7707506,16.4875337 C71.0326531,16.317179 71.1695539,16.0084769 71.12,15.7 Z" id="Shape" fill-rule="nonzero"></path>
            <path d="M73.29,15.58 L73.29,16.67 L73.15,16.67 L73.15,15.62 C73.1564219,15.51343 73.1564219,15.40657 73.15,15.3 C73.150439,15.1575151 73.0912517,15.0213436 72.9867716,14.924462 C72.8822915,14.8275804 72.7420466,14.778824 72.6,14.79 C72.25,14.79 71.94,15.03 71.94,15.59 L71.94,16.68 L71.8,16.68 L71.8,14.68 L71.94,14.68 L71.94,15.1 L72.03,14.9 C72.1726698,14.721463 72.391628,14.6212618 72.62,14.63 C72.7911295,14.6132952 72.9615111,14.6684065 73.0904404,14.7821676 C73.2193696,14.8959287 73.2952668,15.0581223 73.3,15.23 C73.3048838,15.3467568 73.3015422,15.4637125 73.29,15.58 Z" id="Path"></path>
            <path d="M75.49,16.68 L75.35,16.68 L75.35,16.26 L75.23,16.48 C75.0832974,16.6510778 74.8649542,16.7435961 74.64,16.73 C74.11,16.73 73.78,16.31 73.78,15.73 C73.7606997,15.4749029 73.8473352,15.2231206 74.0195167,15.0339102 C74.1916981,14.8446998 74.4342184,14.7347726 74.69,14.73 C74.896857,14.7183251 75.0982587,14.7988858 75.24,14.95 L75.35,15.18 L75.35,13.94 L75.49,13.94 L75.49,16.68 Z M75.35,15.77 L75.35,15.58 C75.35,14.97 74.99,14.78 74.69,14.78 C74.39,14.78 73.94,15.14 73.94,15.69 C73.94,16.24 74.19,16.61 74.66,16.61 C75.13,16.61 75.35,16.4 75.35,15.77 Z" id="Shape" fill-rule="nonzero"></path>
            <path d="M77.72,15.74 L76.15,15.74 C76.15,16.38 76.52,16.61 76.86,16.61 C77.1870472,16.6169923 77.4727261,16.3901297 77.54,16.07 L77.69,16.07 C77.6119467,16.4633622 77.2608346,16.7425598 76.86,16.73 C76.39,16.73 76,16.38 76,15.73 C75.9807944,15.4782704 76.0647547,15.2295498 76.2325978,15.040962 C76.4004409,14.8523743 76.637742,14.740127 76.89,14.73 C77.1381157,14.7386046 77.3707361,14.8527998 77.5292953,15.0438349 C77.6878545,15.23487 77.7572462,15.484545 77.72,15.73 C77.72,15.73 77.72,15.69 77.72,15.74 Z M76.16,15.62 L77.58,15.62 C77.58,15.01 77.22,14.79 76.89,14.79 C76.6820732,14.7976582 76.4860961,14.8891375 76.3466981,15.0436056 C76.2073001,15.1980737 76.1363481,15.4023806 76.15,15.61 L76.16,15.62 Z" id="Shape" fill-rule="nonzero"></path>
            <path d="M79.7,16.58 L79.7,16.69 L79.49,16.69 C79.4099819,16.7020832 79.3287631,16.6776375 79.2687083,16.6233944 C79.2086534,16.5691513 79.1760956,16.490831 79.18,16.41 C79.18,16.33 79.18,16.26 79.18,16.15 L79.18,14.84 L78.94,14.84 L78.94,14.73 L79.18,14.73 L79.18,14.31 L79.32,14.31 L79.32,14.73 L79.7,14.73 L79.7,14.84 L79.32,14.84 L79.32,16.17 C79.32,16.27 79.32,16.32 79.32,16.37 C79.32,16.42 79.42,16.62 79.7,16.58 Z" id="Path"></path>
            <path d="M81.73,15.74 L80.16,15.74 C80.16,16.38 80.53,16.61 80.87,16.61 C81.1970472,16.6169923 81.4827261,16.3901297 81.55,16.07 L81.7,16.07 C81.6219467,16.4633622 81.2708346,16.7425598 80.87,16.73 C80.4,16.73 80.01,16.38 80.01,15.73 C79.9907944,15.4782704 80.0747547,15.2295498 80.2425978,15.040962 C80.4104409,14.8523743 80.647742,14.740127 80.9,14.73 C81.1481157,14.7386046 81.3807361,14.8527998 81.5392953,15.0438349 C81.6978545,15.23487 81.7672462,15.484545 81.73,15.73 C81.73,15.73 81.73,15.69 81.73,15.74 Z M80.17,15.62 L81.59,15.62 C81.59,15.01 81.23,14.79 80.9,14.79 C80.6920732,14.7976582 80.4960961,14.8891375 80.3566981,15.0436056 C80.2173001,15.1980737 80.1463481,15.4023806 80.16,15.61 L80.17,15.62 Z" id="Shape" fill-rule="nonzero"></path>
            <path d="M84.82,15.68 C84.854275,15.943232 84.7744297,16.2085649 84.6005757,16.4091656 C84.4267218,16.6097664 84.1754312,16.7265134 83.91,16.73 C83.703143,16.7416749 83.5017413,16.6611142 83.36,16.51 L83.25,16.28 L83.25,17.41 L83.11,17.41 L83.11,14.69 L83.25,14.69 L83.25,15.13 L83.37,14.91 C83.5167026,14.7389222 83.7350458,14.6464039 83.96,14.66 C84.2140002,14.6690051 84.4523515,14.7849865 84.6161822,14.9792974 C84.7800129,15.1736082 84.8540476,15.4281311 84.82,15.68 Z M84.66,15.68 C84.66,15.18 84.41,14.76 83.94,14.76 C83.47,14.76 83.25,14.98 83.25,15.6 L83.25,15.79 C83.25,16.4 83.61,16.59 83.91,16.59 C84.21,16.59 84.66,16.25 84.66,15.7 L84.66,15.68 Z" id="Shape" fill-rule="nonzero"></path>
            <path d="M86.07,14.68 L86.07,14.8 C85.72,14.8 85.47,15 85.47,15.6 L85.47,16.69 L85.33,16.69 L85.33,14.69 L85.47,14.69 L85.47,15.09 L85.57,14.85 C85.6611844,14.7190432 85.8104262,14.6406912 85.97,14.64 L86.07,14.68 Z" id="Path"></path>
            <path d="M88.18,15.7 C88.1472752,16.211346 87.7110522,16.6022853 87.1991897,16.5789936 C86.6873272,16.5557019 86.2884119,16.1267607 86.3022626,15.6145558 C86.3161132,15.1023509 86.7376268,14.6955951 87.25,14.7 C87.5092728,14.6992644 87.7570823,14.8067956 87.9336511,14.9966545 C88.1102198,15.1865134 88.1995163,15.4414618 88.18,15.7 Z M88.03,15.7 C88.0647058,15.4713913 87.9987999,15.2389478 87.8492681,15.062577 C87.6997363,14.8862062 87.4812064,14.7831613 87.25,14.78 C86.83,14.78 86.47,15.09 86.47,15.7 C86.4204461,16.0084769 86.5573469,16.317179 86.8192494,16.4875337 C87.0811518,16.6578883 87.4188482,16.6578883 87.6807506,16.4875337 C87.9426531,16.317179 88.0795539,16.0084769 88.03,15.7 Z" id="Shape" fill-rule="nonzero"></path>
            <path d="M90.39,15.68 C90.424275,15.943232 90.3444297,16.2085649 90.1705757,16.4091656 C89.9967218,16.6097664 89.7454312,16.7265134 89.48,16.73 C89.273143,16.7416749 89.0717413,16.6611142 88.93,16.51 L88.82,16.28 L88.82,17.41 L88.68,17.41 L88.68,14.69 L88.82,14.69 L88.82,15.13 L88.94,14.91 C89.0867026,14.7389222 89.3050458,14.6464039 89.53,14.66 C89.7840002,14.6690051 90.0223515,14.7849865 90.1861822,14.9792974 C90.3500129,15.1736082 90.4240476,15.4281311 90.39,15.68 Z M90.23,15.68 C90.23,15.18 89.98,14.76 89.51,14.76 C89.04,14.76 88.82,14.98 88.82,15.6 L88.82,15.79 C88.82,16.4 89.18,16.59 89.48,16.59 C89.78,16.59 90.24,16.25 90.24,15.7 L90.23,15.68 Z" id="Shape" fill-rule="nonzero"></path>
            <path d="M92.62,15.7 C92.5872752,16.211346 92.1510522,16.6022853 91.6391897,16.5789936 C91.1273272,16.5557019 90.7284119,16.1267607 90.7422626,15.6145558 C90.7561132,15.1023509 91.1776268,14.6955951 91.69,14.7 C91.9492728,14.6992644 92.1970823,14.8067956 92.3736511,14.9966545 C92.5502198,15.1865134 92.6395163,15.4414618 92.62,15.7 Z M92.47,15.7 C92.5047058,15.4713913 92.4387999,15.2389478 92.2892681,15.062577 C92.1397363,14.8862062 91.9212064,14.7831613 91.69,14.78 C91.27,14.78 90.91,15.09 90.91,15.7 C90.8604461,16.0084769 90.9973469,16.317179 91.2592494,16.4875337 C91.5211518,16.6578883 91.8588482,16.6578883 92.1207506,16.4875337 C92.3826531,16.317179 92.5195539,16.0084769 92.47,15.7 Z" id="Shape" fill-rule="nonzero"></path>
            <path d="M94.64,15.58 L94.64,16.67 L94.5,16.67 L94.5,15.62 C94.5064219,15.51343 94.5064219,15.40657 94.5,15.3 C94.500439,15.1575151 94.4412517,15.0213436 94.3367716,14.924462 C94.2322915,14.8275804 94.0920466,14.778824 93.95,14.79 C93.6,14.79 93.29,15.03 93.29,15.59 L93.29,16.68 L93.15,16.68 L93.15,14.68 L93.29,14.68 L93.29,15.1 L93.38,14.9 C93.5226698,14.721463 93.741628,14.6212618 93.97,14.63 C94.1411295,14.6132952 94.3115111,14.6684065 94.4404404,14.7821676 C94.5693696,14.8959287 94.6452668,15.0581223 94.65,15.23 C94.6548838,15.3467568 94.6515422,15.4637125 94.64,15.58 Z" id="Path"></path>
            <path d="M96.84,16.17 C96.84,16.43 96.84,16.59 96.84,16.71 C96.8466494,16.9303967 96.7584947,17.1430693 96.5978727,17.2941305 C96.4372507,17.4451917 96.2195748,17.5201455 96,17.5 C95.8146982,17.5283527 95.6259113,17.4789522 95.478247,17.3634711 C95.3305826,17.24799 95.2371406,17.0766731 95.22,16.89 L95.37,16.89 C95.3922022,17.0400105 95.4732653,17.1749903 95.5952532,17.2650738 C95.7172412,17.3551572 95.8700971,17.3929176 96.02,17.37 C96.2035664,17.3846171 96.384534,17.3194564 96.5166465,17.1911732 C96.648759,17.0628901 96.719213,16.8839168 96.71,16.7 C96.71,16.58 96.71,16.49 96.71,16.34 L96.71,16.27 L96.59,16.49 C96.4432974,16.6610778 96.2249542,16.7535961 96,16.74 C95.47,16.74 95.14,16.32 95.14,15.74 C95.1206997,15.4849029 95.2073352,15.2331206 95.3795167,15.0439102 C95.5516981,14.8546998 95.7942184,14.7447726 96.05,14.74 C96.256857,14.7283251 96.4582587,14.8088858 96.6,14.96 L96.71,15.19 L96.71,14.78 L96.85,14.78 L96.84,16.17 Z M96.7,15.78 L96.7,15.59 C96.7,14.98 96.34,14.79 96.04,14.79 C95.74,14.79 95.29,15.15 95.29,15.7 C95.29,16.25 95.54,16.62 96.01,16.62 C96.48,16.62 96.7,16.4 96.7,15.77 L96.7,15.78 Z" id="Shape" fill-rule="nonzero"></path>
            <path d="M98.71,16.25 L98.62,16.45 C98.4795736,16.6380009 98.2542892,16.7431337 98.02,16.73 C97.65,16.73 97.41,16.55 97.41,16.19 C97.41,15.83 97.93,15.53 98.58,15.53 L98.71,15.53 L98.71,15.44 C98.71,15.35 98.71,15.27 98.71,15.19 C98.71,14.93 98.52,14.78 98.21,14.78 C98.069343,14.7689814 97.930098,14.8145001 97.8231087,14.9064734 C97.7161194,14.9984466 97.6502172,15.1292826 97.64,15.27 L97.49,15.27 C97.5218397,14.9076454 97.8369843,14.6368874 98.2,14.66 C98.61,14.66 98.81,14.85 98.84,15.18 C98.84,15.28 98.84,15.34 98.84,15.44 L98.84,16.08 C98.84,16.28 98.84,16.43 98.84,16.68 L98.69,16.68 L98.71,16.25 Z M98.71,15.91 L98.71,15.66 C98.14,15.66 97.57,15.77 97.57,16.19 C97.57,16.45 97.73,16.61 98.06,16.61 C98.2404564,16.6075983 98.4120579,16.5314051 98.5348605,16.3991562 C98.6576631,16.2669072 98.7209537,16.0901396 98.71,15.91 Z" id="Shape" fill-rule="nonzero"></path>
            <path d="M100.74,15.26 L100.59,15.26 C100.563658,14.9846439 100.326357,14.7781039 100.05,14.79 C99.9326031,14.7789264 99.8158097,14.8165494 99.7269503,14.894065 C99.6380909,14.9715807 99.5849634,15.0821865 99.58,15.2 C99.58,15.46 99.78,15.56 100.09,15.63 C100.4,15.7 100.76,15.88 100.76,16.21 C100.76,16.54 100.47,16.73 100.08,16.73 C99.8972901,16.749466 99.7146036,16.6930407 99.5746952,16.5739294 C99.4347868,16.4548182 99.3499358,16.2834751 99.34,16.1 L99.49,16.1 C99.5001358,16.2479023 99.5695495,16.3854497 99.6825064,16.4814631 C99.7954633,16.5774764 99.9423967,16.6238241 100.09,16.61 C100.37,16.61 100.61,16.47 100.61,16.21 C100.61,15.95 100.46,15.85 100.02,15.74 C99.58,15.63 99.43,15.53 99.43,15.2 C99.4343971,15.0420182 99.5053449,14.8932497 99.62534,14.7903967 C99.7453352,14.6875437 99.9032043,14.6401834 100.06,14.66 C100.229819,14.6490533 100.397006,14.7061889 100.524607,14.8187782 C100.652209,14.9313675 100.729717,15.0901392 100.74,15.26 Z" id="Path"></path>
        </g>
    </g>
</svg>