<?xml version="1.0" encoding="UTF-8"?>
<svg width="68px" height="76px" viewBox="0 0 68 76" version="1.1" xmlns="http://www.w3.org/2000/svg" xmlns:xlink="http://www.w3.org/1999/xlink">
    <!-- Generator: Sketch 52.5 (67469) - http://www.bohemiancoding.com/sketch -->
    <title>sgv</title>
    <desc>Created with Sketch.</desc>
    <g id="Page-1" stroke="none" stroke-width="1" fill="none" fill-rule="evenodd">
        <g id="sgv" fill="#FFFFFF">
            <path d="M41.94,63.36 L33.34,63.36 C33.2056408,63.3599731 33.0769246,63.414022 32.9828636,63.5099643 C32.8888025,63.6059065 32.8373128,63.7356677 32.84,63.87 L32.84,65 C32.8373217,65.1352679 32.8885015,65.2660569 32.9822752,65.3635815 C33.0760489,65.4611062 33.2047311,65.5173737 33.34,65.52 L40.27,65.52 L40.27,66.25 C40.27,70.65 37.61,73.39 33.34,73.39 C28.78,73.39 25.71,69.48 25.71,63.65 C25.71,57.82 28.71,54.21 33.34,54.21 C36.5218918,54.0920877 39.3510037,56.2201807 40.12,59.31 C40.175586,59.5348813 40.3783605,59.692135 40.61,59.69 L41.81,59.69 C41.9617995,59.6878701 42.1047588,59.6182233 42.2,59.5 C42.2930778,59.3774619 42.3294563,59.2210344 42.3,59.07 C41.4216121,54.845898 37.6103481,51.8815816 33.3,52.07 C27.42,52.07 23.46,56.73 23.46,63.68 C23.46,70.78 27.46,75.55 33.3,75.55 C38.92,75.55 42.4,71.92 42.4,66.08 L42.4,63.87 C42.4026872,63.7356677 42.3511975,63.6059065 42.2571364,63.5099643 C42.1630754,63.414022 42.0343592,63.3599731 41.9,63.36" id="Fill-4"></path>
            <path d="M67.13,52.24 C67.0358802,52.1007305 66.8780798,52.0180732 66.71,52.02 L65.45,52.02 C65.2376223,52.0216548 65.0475954,52.1522983 64.97,52.35 L57.87,71.61 L50.77,52.35 C50.6924046,52.1522983 50.5023777,52.0216548 50.29,52.02 L49,52.02 C48.829639,52.0199626 48.6696451,52.1018199 48.57,52.24 C48.4949806,52.3912064 48.4949806,52.5687936 48.57,52.72 L56.82,74.79 C56.8915751,74.9879737 57.079485,75.1199104 57.29,75.12 L58.49,75.12 C58.7041706,75.1241784 58.8972089,74.9914645 58.97,74.79 L67.22,52.72 C67.2819789,52.5600891 67.2594346,52.3797342 67.16,52.24" id="Fill-6"></path>
            <path d="M10.87,62.66 L8.41,62.05 C5.03,61.22 3.65,60.13 3.65,58.28 C3.65,55.91 5.98,54.13 9.08,54.13 C12.18,54.13 14.62,55.81 14.77,58.13 C14.7909424,58.4014602 15.0177343,58.6108066 15.29,58.61 L16.5,58.61 C16.6398298,58.6085858 16.773197,58.5509135 16.87,58.45 C16.9682036,58.3521756 17.0223588,58.2185929 17.02,58.08 C16.86,54.57 13.54,52.08 9.11,52.08 C4.68,52.08 1.37,54.78 1.37,58.37 C1.37,61.37 3.32,63.12 7.68,64.21 L10.3,64.84 C14.56,65.84 15.15,67.37 15.15,68.84 C15.15,71.38 12.7,73.22 9.32,73.22 C5.78,73.22 3.19,71.37 3.02,68.72 C3.00392918,68.446207 2.77420188,68.234151 2.5,68.24 L1.3,68.24 C1.15737826,68.2420413 1.02112753,68.29941 0.92,68.4 C0.820724859,68.5005551 0.769692255,68.6390722 0.78,68.78 C0.98,72.64 4.45,75.34 9.23,75.34 C14.01,75.34 17.43,72.63 17.43,68.75 C17.43,65.66 15.43,63.87 10.87,62.75" id="Fill-1"></path>
            <path d="M50,4.45 L34,0.53 C33.8289813,0.489939939 33.6510187,0.489939939 33.48,0.53 L17.48,4.45 C17.0173964,4.56331481 16.6890039,4.97380541 16.68,5.45 L16.68,9.38 C16.6673369,9.8536615 16.9888324,10.2711882 17.45,10.38 L49.45,19.1 C49.5427618,19.1146074 49.6372382,19.1146074 49.73,19.1 C50.1936952,19.0926937 50.5988068,18.7848089 50.73,18.34 C50.7964629,18.0813401 50.7567012,17.8068418 50.6195752,17.5776722 C50.4824491,17.3485027 50.259353,17.1837044 50,17.12 L18.81,8.6 L18.81,6.28 L33.73,2.62 L48.65,6.28 L48.65,12 C48.7031977,12.5483514 49.1640742,12.9666801 49.715,12.9666801 C50.2659258,12.9666801 50.7268023,12.5483514 50.78,12 L50.78,5.46 C50.7663797,4.98215373 50.4346017,4.57255129 49.97,4.46 M50.78,22.75 L50.78,27.84 C50.7827557,28.1707551 50.6217806,28.4814745 50.35,28.67 L34.35,40.45 C34.1648368,40.587073 33.9403777,40.6607237 33.71,40.66 C33.479846,40.659324 33.2558122,40.5858129 33.07,40.45 L17.07,28.67 C16.8020093,28.4792509 16.6449671,28.1689057 16.65,27.84 L16.65,20.29 C16.65,19.7045782 17.1245782,19.23 17.71,19.23 C18.2954218,19.23 18.77,19.7045782 18.77,20.29 L18.77,27.29 L33.69,38.29 L48.61,27.29 L48.61,23.54 L17.47,15.23 C17.2047336,15.1709649 16.9749176,15.0065126 16.8334393,14.7744882 C16.6919611,14.5424638 16.6510063,14.2628522 16.72,14 C16.8628536,13.4346568 17.4320738,13.0877882 18,13.22 L50,21.74 C50.4691379,21.8406417 50.8006736,22.2603072 50.79,22.74" id="Fill-9" fill-rule="nonzero"></path>
        </g>
    </g>
</svg>