<?xml version="1.0" encoding="UTF-8"?>
<svg width="135px" height="99px" viewBox="0 0 135 99" version="1.1" xmlns="http://www.w3.org/2000/svg" xmlns:xlink="http://www.w3.org/1999/xlink">
    <!-- Generator: Sketch 52.5 (67469) - http://www.bohemiancoding.com/sketch -->
    <title>Group 9</title>
    <desc>Created with Sketch.</desc>
    <g id="Page-1" stroke="none" stroke-width="1" fill="none" fill-rule="evenodd">
        <g id="Group-8" fill="#FFFFFF">
            <g id="Group-9">
                <path d="M91.7353119,12.1860538 C91.3223119,12.1710538 91.0093119,12.4960538 90.9593119,12.9070538 C90.4453119,17.1270538 87.9883119,19.6580538 86.0883119,20.5520538 C85.5343119,20.8130538 84.9243119,20.3170538 85.0613119,19.7210538 C85.1133119,19.4920538 85.1613119,19.2590538 85.2063119,19.0200538 C85.7233119,16.2350538 85.7453119,13.8280538 85.4373119,11.7570538 C85.2663119,10.6010538 85.4203119,10.0240538 85.8333119,8.64805379 C86.3863119,6.80705379 86.7233119,2.85505379 83.9283119,0.711053785 C83.7263119,0.556053785 83.4523119,0.538053785 83.2763119,0.722053785 C83.0993119,0.905053785 83.1093119,1.19105379 83.2873119,1.37405379 C85.1083119,3.25205379 84.9963119,5.43405379 84.5913119,6.91805379 C84.5073119,7.22305379 84.0913119,7.26405379 83.9483119,6.98105379 C81.3173119,1.76205379 76.5363119,0.0680537854 76.5093119,0.0540537854 C76.2873119,-0.0649462146 76.0103119,0.0190537854 75.8913119,0.242053785 C75.7723119,0.465053785 75.8563119,0.741053785 76.0793119,0.860053785 C76.0873119,0.864053785 83.8583119,5.28405379 83.1773119,15.1240538 C83.1353119,15.7270538 82.5243119,16.1230538 81.9573119,15.9150538 C81.3053119,15.6760538 80.5163119,15.3300538 79.6743119,14.8390538 C76.8233119,13.1740538 75.6033119,10.6670538 75.3213119,8.73905379 C75.2673119,8.36905379 74.9693119,8.08605379 74.5953119,8.11305379 C74.2223119,8.14105379 74.0003119,8.46605379 73.9703119,8.83905379 C73.5953119,13.4930538 78.1133119,16.9350538 80.8923119,18.2660538 C81.8563119,18.7280538 82.2913119,19.8690538 81.8753119,20.8540538 C80.7253119,23.5780538 78.9413119,25.3510538 77.1653119,26.5110538 C75.9753119,27.2880538 74.4063119,27.1590538 73.3643119,26.1920538 C67.6383119,20.8790538 68.6743119,14.0220538 69.4703119,12.2170538 C69.6053119,11.9100538 69.4643119,11.5510538 69.1543119,11.4200538 C68.8663119,11.2980538 68.5303119,11.4280538 68.3833119,11.7040538 C66.8973119,14.4950538 67.1393119,17.7260538 67.3243119,19.0470538 C67.3643119,19.3300538 67.0853119,19.5520538 66.8183119,19.4490538 C65.6093119,18.9830538 63.0013119,17.6830538 62.7133119,15.0580538 C62.6803119,14.7640538 62.4763119,14.5220538 62.1813119,14.5200538 C61.8853119,14.5190538 61.6713119,14.7580538 61.6433119,15.0520538 C61.5413119,16.1110538 61.7833119,19.4350538 66.5923119,21.8000538 C67.7033119,22.3460538 68.6463119,23.1750538 69.2373119,24.2620538 C69.4423119,24.6390538 69.6693119,25.0100538 69.9183119,25.3740538 C70.5183119,26.2500538 71.1593119,27.0080538 71.7623119,27.6400538 C72.1193119,28.0140538 71.9773119,28.6300538 71.4923119,28.8100538 C70.5253119,29.1680538 69.1203119,29.8300538 68.0833119,30.9140538 C67.5603119,31.4610538 67.1303119,32.0790538 66.7973119,32.7450538 C66.1033119,31.7910538 65.0873119,31.1930538 63.9273119,30.7950538 C63.7453119,30.7320538 63.5663119,30.6620538 63.3893119,30.5890538 C63.3773119,30.5840538 63.3643119,30.5790538 63.3513119,30.5740538 C59.9883119,29.2590538 58.2193119,25.0650538 58.1173119,24.0740538 C58.0843119,23.7610538 57.8043119,23.5330538 57.4913119,23.5650538 C57.1783119,23.5980538 56.9903119,23.8760538 56.9823119,24.1910538 C56.9393119,25.9120538 57.7853119,27.8630538 59.0763119,29.4960538 C59.2083119,29.6620538 59.0723119,29.9050538 58.8613119,29.8790538 C58.5113119,29.8370538 58.1683119,29.7930538 57.8383119,29.7440538 C54.5443119,29.2580538 53.0993119,27.8820538 51.9713119,25.7790538 C51.6863119,25.2480538 50.8793119,25.5590538 51.0153119,26.1450538 C51.7403119,29.2700538 55.1153119,31.6950538 59.7553119,32.3790538 C63.4343119,32.9210538 64.6243119,34.2280538 64.9683119,35.2500538 C63.5053119,35.5440538 62.1353119,36.1810538 60.9593119,37.1030538 C57.9243119,39.4830538 54.9383119,41.5970538 52.0063119,43.4240538 C51.2183119,44.1990538 51.0293119,45.0610538 51.8453119,46.0720538 C54.2733119,48.1090538 56.9503119,48.3540538 59.7443119,47.7540538 C62.7083119,47.0170538 62.3113119,53.5990538 58.6913119,59.2370538 C55.9593119,63.7050538 55.1413119,67.4670538 55.1513119,70.9240538 C57.0943119,67.8850538 58.3893119,65.3450538 67.0443119,62.8230538 C71.5353119,61.1480538 73.7353119,58.8410538 75.2933119,56.6040538 C72.1683119,49.6220538 71.0883119,43.8960538 71.1313119,38.8580538 C73.9893119,37.6340538 74.9363119,35.7640538 74.6493119,33.4780538 L69.1343119,34.4840538 C70.1173119,32.3370538 71.8653119,31.6020538 73.0973119,31.1980538 C75.6163119,30.3700538 80.0123119,28.6170538 82.8433119,24.8500538 C83.1023119,24.5050538 83.4653119,24.2550538 83.8803119,24.1400538 C86.0113119,23.5520538 92.4053119,20.9620538 92.4563119,12.9620538 C92.4583119,12.5480538 92.1483119,12.2000538 91.7353119,12.1860538" id="Fill-1"></path>
                <path d="M12.2629392,86.9211 L12.7189392,86.9211 C13.2719392,86.9211 13.6539392,86.7791 13.8539392,86.5001 C14.0669392,86.2011 14.1749392,85.7901 14.1749392,85.2771 C14.1749392,84.7131 14.0669392,84.2971 13.8529392,84.0421 C13.6469392,83.7961 13.2869392,83.6711 12.7849392,83.6711 C12.5749392,83.6711 12.4709392,83.6981 12.4189392,83.7211 C12.3839392,83.7371 12.3389392,83.7671 12.3099392,83.8531 C12.2889392,83.9181 12.2629392,84.0491 12.2629392,84.3061 L12.2629392,86.9211 Z M13.0209392,83.1421 C13.7959392,83.1421 14.4019392,83.3261 14.8229392,83.6881 C15.2499392,84.0581 15.4669392,84.5581 15.4669392,85.1731 C15.4669392,85.5441 15.3839392,85.9041 15.2189392,86.2441 C15.0499392,86.5921 14.7629392,86.8851 14.3669392,87.1151 C13.9749392,87.3431 13.4519392,87.4601 12.8139392,87.4601 L12.2629392,87.4601 L12.2629392,88.9811 C12.2629392,89.2451 12.2949392,89.3681 12.3219392,89.4241 C12.3509392,89.4871 12.3989392,89.5251 12.4769392,89.5481 C12.5879392,89.5821 12.7799392,89.6051 13.0479392,89.6171 C13.1409392,89.6211 13.2149392,89.6981 13.2149392,89.7921 L13.2149392,89.9801 C13.2149392,90.0281 13.1949392,90.0741 13.1599392,90.1071 C13.1249392,90.1401 13.0799392,90.1581 13.0299392,90.1551 C12.7069392,90.1361 12.2439392,90.1271 11.6549392,90.1271 C11.1209392,90.1271 10.7199392,90.1361 10.4609392,90.1541 C10.4559392,90.1551 10.4519392,90.1551 10.4479392,90.1551 C10.4039392,90.1551 10.3619392,90.1381 10.3289392,90.1081 C10.2929392,90.0751 10.2729392,90.0281 10.2729392,89.9801 L10.2729392,89.7921 C10.2729392,89.6981 10.3459392,89.6221 10.4379392,89.6171 C10.6979392,89.6021 10.8239392,89.5731 10.8829392,89.5511 C10.9379392,89.5321 10.9699392,89.4991 10.9899392,89.4411 C11.0109392,89.3801 11.0359392,89.2521 11.0359392,88.9811 L11.0359392,84.3061 C11.0359392,84.0361 11.0109392,83.9071 10.9899392,83.8461 C10.9699392,83.7891 10.9369392,83.7551 10.8829392,83.7351 C10.8239392,83.7141 10.6979392,83.6851 10.4379392,83.6711 C10.3459392,83.6661 10.2729392,83.5881 10.2729392,83.4961 L10.2729392,83.3071 C10.2729392,83.2591 10.2929392,83.2131 10.3289392,83.1791 C10.3649392,83.1461 10.4109392,83.1301 10.4609392,83.1331 C10.7189392,83.1511 11.1009392,83.1611 11.5979392,83.1611 L12.6139392,83.1511 C12.7279392,83.1451 12.8669392,83.1421 13.0209392,83.1421 Z M22.3699392,87.0905 L23.9939392,87.0905 L23.1889392,84.9425 L22.3699392,87.0905 Z M26.5629392,89.6165 C26.6559392,89.6205 26.7299392,89.6975 26.7299392,89.7915 L26.7299392,89.9805 C26.7299392,90.0285 26.7089392,90.0755 26.6739392,90.1085 C26.6379392,90.1415 26.5899392,90.1565 26.5409392,90.1545 C26.2949392,90.1355 25.9599392,90.1265 25.5459392,90.1265 C25.0139392,90.1265 24.6119392,90.1355 24.3529392,90.1545 C24.3489392,90.1545 24.3439392,90.1545 24.3399392,90.1545 C24.2959392,90.1545 24.2529392,90.1385 24.2209392,90.1085 C24.1849392,90.0745 24.1649392,90.0285 24.1649392,89.9805 L24.1649392,89.7915 C24.1649392,89.6985 24.2379392,89.6215 24.3309392,89.6165 C24.5999392,89.6025 24.7239392,89.5685 24.7809392,89.5425 C24.8109392,89.5285 24.8339392,89.5125 24.8339392,89.4435 C24.8339392,89.3855 24.8169392,89.2735 24.7339392,89.0645 L24.1999392,87.6295 L22.1609392,87.6295 L21.8179392,88.5165 C21.6709392,88.9105 21.6409392,89.1195 21.6409392,89.2255 C21.6409392,89.4035 21.7109392,89.4695 21.7639392,89.5035 C21.8369392,89.5515 21.9879392,89.6105 22.2889392,89.6165 C22.3849392,89.6185 22.4609392,89.6955 22.4609392,89.7915 L22.4609392,89.9805 C22.4609392,90.0285 22.4409392,90.0735 22.4059392,90.1075 C22.3709392,90.1405 22.3269392,90.1565 22.2769392,90.1545 C21.9209392,90.1355 21.5629392,90.1265 21.2019392,90.1265 C20.9269392,90.1265 20.6949392,90.1355 20.5129392,90.1535 C20.4629392,90.1595 20.4139392,90.1425 20.3769392,90.1105 C20.3409392,90.0765 20.3199392,90.0295 20.3199392,89.9805 L20.3199392,89.7915 C20.3199392,89.7105 20.3749392,89.6405 20.4539392,89.6215 C20.7069392,89.5605 20.9169392,89.3205 21.0759392,88.9085 L23.2909392,83.1965 C23.3169392,83.1295 23.3819392,83.0855 23.4539392,83.0855 L23.6049392,83.0855 C23.6769392,83.0855 23.7419392,83.1295 23.7679392,83.1965 L26.0679392,89.1255 C26.2529392,89.6025 26.4859392,89.6125 26.5629392,89.6165 Z M34.4788392,83.1325 C34.5288392,83.1285 34.5748392,83.1465 34.6098392,83.1795 C34.6448392,83.2125 34.6658392,83.2585 34.6658392,83.3075 L34.6658392,83.4955 C34.6658392,83.5885 34.5928392,83.6655 34.4998392,83.6705 C34.2408392,83.6855 34.1148392,83.7145 34.0548392,83.7355 C34.0008392,83.7555 33.9688392,83.7885 33.9488392,83.8465 C33.9268392,83.9065 33.9018392,84.0355 33.9018392,84.3065 L33.9018392,88.9815 C33.9018392,89.2525 33.9268392,89.3805 33.9488392,89.4415 C33.9688392,89.4985 33.9998392,89.5315 34.0558392,89.5515 C34.1148392,89.5735 34.2398392,89.6025 34.4998392,89.6165 C34.5928392,89.6215 34.6658392,89.6985 34.6658392,89.7915 L34.6658392,89.9805 C34.6658392,90.0285 34.6448392,90.0745 34.6098392,90.1075 C34.5748392,90.1405 34.5278392,90.1575 34.4788392,90.1545 C34.1938392,90.1355 33.7948392,90.1265 33.2928392,90.1265 C32.7598392,90.1265 32.3588392,90.1355 32.0998392,90.1545 C32.0948392,90.1545 32.0908392,90.1545 32.0868392,90.1545 C32.0428392,90.1545 31.9998392,90.1385 31.9678392,90.1085 C31.9318392,90.0745 31.9118392,90.0285 31.9118392,89.9805 L31.9118392,89.7915 C31.9118392,89.6985 31.9848392,89.6215 32.0778392,89.6165 C32.3368392,89.6025 32.4618392,89.5735 32.5218392,89.5515 C32.5768392,89.5315 32.6088392,89.4985 32.6288392,89.4415 C32.6498392,89.3805 32.6748392,89.2525 32.6748392,88.9815 L32.6748392,84.3065 C32.6748392,84.0355 32.6498392,83.9065 32.6288392,83.8455 C32.6088392,83.7885 32.5768392,83.7555 32.5218392,83.7355 C32.4618392,83.7145 32.3358392,83.6855 32.0778392,83.6705 C31.9848392,83.6655 31.9118392,83.5885 31.9118392,83.4955 L31.9118392,83.3075 C31.9118392,83.2585 31.9318392,83.2125 31.9678392,83.1795 C32.0028392,83.1465 32.0498392,83.1305 32.0998392,83.1325 C32.3578392,83.1515 32.7588392,83.1605 33.2928392,83.1605 C33.7908392,83.1605 34.1888392,83.1515 34.4788392,83.1325 Z M46.5657392,83.133 C46.6137392,83.129 46.6637392,83.145 46.6997392,83.178 C46.7357392,83.212 46.7567392,83.258 46.7567392,83.307 L46.7567392,83.496 C46.7567392,83.589 46.6847392,83.665 46.5917392,83.671 C46.3487392,83.684 46.2287392,83.722 46.1697392,83.752 C46.1067392,83.783 46.0657392,83.834 46.0427392,83.91 C46.0197392,83.983 45.9937392,84.126 45.9937392,84.401 L45.9937392,90.027 C45.9937392,90.124 45.9147392,90.202 45.8177392,90.202 L45.6017392,90.202 C45.5427392,90.202 45.4867392,90.172 45.4547392,90.122 L41.8177392,84.503 L41.8177392,88.886 C41.8177392,89.167 41.8467392,89.307 41.8697392,89.377 C41.8947392,89.45 41.9417392,89.499 42.0157392,89.532 C42.0847392,89.563 42.2247392,89.602 42.5097392,89.617 C42.6027392,89.621 42.6757392,89.698 42.6757392,89.792 L42.6757392,89.98 C42.6757392,90.029 42.6557392,90.076 42.6197392,90.109 C42.5837392,90.142 42.5357392,90.158 42.4867392,90.154 C42.2657392,90.136 41.9467392,90.127 41.5397392,90.127 C41.1697392,90.127 40.8807392,90.136 40.6787392,90.154 C40.6297392,90.159 40.5817392,90.142 40.5447392,90.109 C40.5087392,90.076 40.4877392,90.029 40.4877392,89.98 L40.4877392,89.792 C40.4877392,89.699 40.5607392,89.622 40.6527392,89.617 C40.8967392,89.603 41.0167392,89.565 41.0747392,89.536 C41.1387392,89.504 41.1787392,89.454 41.2027392,89.377 C41.2347392,89.272 41.2517392,89.107 41.2517392,88.886 L41.2517392,84.306 C41.2517392,84.036 41.2267392,83.907 41.2047392,83.846 C41.1847392,83.789 41.1527392,83.756 41.0977392,83.736 C41.0387392,83.714 40.9127392,83.685 40.6537392,83.671 C40.5607392,83.666 40.4877392,83.589 40.4877392,83.496 L40.4877392,83.307 C40.4877392,83.258 40.5087392,83.212 40.5447392,83.178 C40.5817392,83.145 40.6297392,83.129 40.6787392,83.133 C40.8797392,83.152 41.1697392,83.161 41.5397392,83.161 C41.8157392,83.161 42.0577392,83.152 42.2587392,83.133 C42.3227392,83.126 42.3857392,83.158 42.4207392,83.212 L45.4267392,87.843 L45.4267392,84.401 C45.4267392,84.121 45.3987392,83.98 45.3747392,83.91 C45.3497392,83.838 45.3027392,83.788 45.2287392,83.755 C45.1607392,83.724 45.0197392,83.685 44.7347392,83.671 C44.6417392,83.666 44.5687392,83.589 44.5687392,83.496 L44.5687392,83.307 C44.5687392,83.258 44.5897392,83.212 44.6257392,83.178 C44.6617392,83.146 44.7097392,83.13 44.7587392,83.133 C44.9787392,83.152 45.2967392,83.161 45.7057392,83.161 C46.0757392,83.161 46.3647392,83.152 46.5657392,83.133 Z M66.7561392,83.133 C66.8061392,83.131 66.8531392,83.146 66.8881392,83.179 C66.9231392,83.213 66.9431392,83.259 66.9431392,83.307 L66.9431392,83.496 C66.9431392,83.589 66.8711392,83.666 66.7781392,83.671 C66.5191392,83.685 66.3941392,83.714 66.3341392,83.736 C66.2791392,83.756 66.2471392,83.789 66.2271392,83.846 C66.2061392,83.906 66.1811392,84.035 66.1811392,84.306 L66.1811392,88.981 C66.1811392,89.253 66.2061392,89.381 66.2271392,89.441 C66.2471392,89.499 66.2791392,89.532 66.3341392,89.551 C66.3931392,89.573 66.5191392,89.602 66.7781392,89.617 C66.8711392,89.622 66.9431392,89.698 66.9431392,89.792 L66.9431392,89.98 C66.9431392,90.029 66.9231392,90.075 66.8881392,90.108 C66.8561392,90.138 66.8131392,90.155 66.7691392,90.155 C66.7651392,90.155 66.7601392,90.155 66.7561392,90.154 C66.4971392,90.136 66.0961392,90.127 65.5631392,90.127 C65.0601392,90.127 64.6611392,90.136 64.3771392,90.155 C64.3271392,90.158 64.2811392,90.141 64.2461392,90.108 C64.2111392,90.075 64.1911392,90.029 64.1911392,89.98 L64.1911392,89.792 C64.1911392,89.698 64.2631392,89.622 64.3561392,89.617 C64.6161392,89.602 64.7411392,89.573 64.8001392,89.551 C64.8551392,89.532 64.8871392,89.499 64.9071392,89.442 C64.9291392,89.381 64.9541392,89.252 64.9541392,88.981 L64.9541392,86.894 L62.2411392,86.894 L62.2411392,88.981 C62.2411392,89.252 62.2661392,89.381 62.2871392,89.441 C62.3081392,89.499 62.3401392,89.532 62.3951392,89.551 C62.4541392,89.573 62.5791392,89.602 62.8391392,89.617 C62.9321392,89.622 63.0041392,89.698 63.0041392,89.792 L63.0041392,89.98 C63.0041392,90.029 62.9841392,90.075 62.9491392,90.108 C62.9141392,90.141 62.8671392,90.158 62.8181392,90.155 C62.5331392,90.136 62.1351392,90.127 61.6321392,90.127 C61.0991392,90.127 60.6981392,90.136 60.4391392,90.154 C60.3901392,90.157 60.3421392,90.141 60.3071392,90.108 C60.2721392,90.075 60.2511392,90.029 60.2511392,89.98 L60.2511392,89.792 C60.2511392,89.698 60.3241392,89.622 60.4161392,89.617 C60.6761392,89.602 60.8011392,89.573 60.8611392,89.551 C60.9161392,89.532 60.9471392,89.499 60.9681392,89.441 C60.9891392,89.381 61.0141392,89.252 61.0141392,88.981 L61.0141392,84.306 C61.0141392,84.036 60.9891392,83.907 60.9681392,83.846 C60.9471392,83.789 60.9161392,83.756 60.8611392,83.736 C60.8011392,83.714 60.6761392,83.685 60.4161392,83.671 C60.3241392,83.666 60.2511392,83.589 60.2511392,83.496 L60.2511392,83.307 C60.2511392,83.259 60.2721392,83.213 60.3071392,83.179 C60.3421392,83.146 60.3901392,83.131 60.4391392,83.133 C60.6961392,83.152 61.0981392,83.161 61.6321392,83.161 C62.1301392,83.161 62.5281392,83.151 62.8181392,83.133 C62.8681392,83.129 62.9141392,83.147 62.9491392,83.18 C62.9851392,83.213 63.0041392,83.259 63.0041392,83.307 L63.0041392,83.496 C63.0041392,83.589 62.9321392,83.666 62.8391392,83.671 C62.5801392,83.685 62.4541392,83.714 62.3941392,83.736 C62.3401392,83.756 62.3081392,83.789 62.2871392,83.846 C62.2661392,83.907 62.2411392,84.036 62.2411392,84.306 L62.2411392,86.356 L64.9541392,86.356 L64.9541392,84.306 C64.9541392,84.035 64.9291392,83.907 64.9071392,83.846 C64.8871392,83.789 64.8551392,83.756 64.8001392,83.736 C64.7411392,83.714 64.6151392,83.685 64.3561392,83.671 C64.2631392,83.666 64.1911392,83.589 64.1911392,83.496 L64.1911392,83.307 C64.1911392,83.259 64.2111392,83.213 64.2461392,83.18 C64.2811392,83.147 64.3271392,83.13 64.3771392,83.133 C64.6601392,83.151 65.0591392,83.161 65.5631392,83.161 C66.0971392,83.161 66.4981392,83.152 66.7561392,83.133 Z M78.7029392,83.133 C78.7519392,83.129 78.8009392,83.145 78.8369392,83.178 C78.8729392,83.212 78.8939392,83.258 78.8939392,83.307 L78.8939392,83.496 C78.8939392,83.589 78.8219392,83.665 78.7289392,83.671 C78.4859392,83.684 78.3659392,83.722 78.3069392,83.752 C78.2439392,83.783 78.2029392,83.834 78.1789392,83.91 C78.1569392,83.983 78.1309392,84.127 78.1309392,84.401 L78.1309392,87.237 C78.1309392,87.698 78.0989392,88.1 78.0379392,88.433 C77.9749392,88.776 77.8679392,89.076 77.7199392,89.325 C77.5469392,89.622 77.2899392,89.86 76.9559392,90.032 C76.6279392,90.201 76.2529392,90.287 75.8449392,90.287 C75.1109392,90.287 74.5379392,90.1 74.1419392,89.731 C73.8429392,89.453 73.6399392,89.132 73.5369392,88.775 C73.4369392,88.429 73.3889392,87.936 73.3889392,87.265 L73.3889392,84.306 C73.3889392,84.035 73.3639392,83.907 73.3419392,83.846 C73.3219392,83.789 73.2899392,83.756 73.2349392,83.736 C73.1759392,83.714 73.0499392,83.685 72.7899392,83.671 C72.6979392,83.666 72.6249392,83.589 72.6249392,83.496 L72.6249392,83.307 C72.6249392,83.259 72.6459392,83.213 72.6809392,83.179 C72.7169392,83.146 72.7639392,83.131 72.8129392,83.133 C73.0709392,83.152 73.4729392,83.161 74.0069392,83.161 C74.5099392,83.161 74.9089392,83.151 75.1919392,83.133 C75.2419392,83.13 75.2879392,83.147 75.3229392,83.18 C75.3589392,83.213 75.3789392,83.259 75.3789392,83.307 L75.3789392,83.496 C75.3789392,83.589 75.3059392,83.666 75.2129392,83.671 C74.9529392,83.685 74.8279392,83.714 74.7689392,83.736 C74.7139392,83.756 74.6819392,83.789 74.6609392,83.846 C74.6409392,83.906 74.6159392,84.035 74.6159392,84.306 L74.6159392,87.426 C74.6159392,87.915 74.6489392,88.325 74.7149392,88.644 C74.7779392,88.943 74.9009392,89.175 75.0919392,89.352 C75.2739392,89.521 75.5559392,89.607 75.9299392,89.607 C76.5369392,89.607 76.9479392,89.424 77.1859392,89.048 C77.4359392,88.651 77.5639392,88.077 77.5639392,87.341 L77.5639392,84.401 C77.5639392,84.039 77.4909392,83.888 77.4299392,83.825 C77.3689392,83.762 77.2219392,83.684 76.8739392,83.671 C76.7809392,83.667 76.7059392,83.59 76.7059392,83.496 L76.7059392,83.307 C76.7059392,83.258 76.7269392,83.212 76.7629392,83.178 C76.7989392,83.146 76.8479392,83.13 76.8959392,83.133 C77.1159392,83.152 77.4339392,83.161 77.8419392,83.161 C78.2129392,83.161 78.5019392,83.152 78.7029392,83.133 Z M90.6536392,83.133 C90.7026392,83.129 90.7506392,83.145 90.7876392,83.178 C90.8236392,83.212 90.8436392,83.258 90.8436392,83.307 L90.8436392,83.496 C90.8436392,83.589 90.7716392,83.665 90.6786392,83.671 C90.4366392,83.684 90.3156392,83.722 90.2576392,83.752 C90.1936392,83.783 90.1536392,83.834 90.1296392,83.91 C90.1076392,83.983 90.0806392,84.126 90.0806392,84.401 L90.0806392,90.027 C90.0806392,90.124 90.0026392,90.202 89.9056392,90.202 L89.6896392,90.202 C89.6296392,90.202 89.5746392,90.172 89.5426392,90.122 L85.9056392,84.503 L85.9056392,88.886 C85.9056392,89.167 85.9336392,89.307 85.9576392,89.376 C85.9826392,89.45 86.0286392,89.499 86.1036392,89.532 C86.1716392,89.563 86.3116392,89.602 86.5966392,89.617 C86.6906392,89.621 86.7636392,89.698 86.7636392,89.792 L86.7636392,89.98 C86.7636392,90.029 86.7426392,90.076 86.7066392,90.109 C86.6706392,90.142 86.6226392,90.158 86.5736392,90.154 C86.3526392,90.136 86.0346392,90.127 85.6276392,90.127 C85.2576392,90.127 84.9676392,90.136 84.7666392,90.154 C84.7176392,90.159 84.6696392,90.142 84.6326392,90.109 C84.5966392,90.076 84.5756392,90.029 84.5756392,89.98 L84.5756392,89.792 C84.5756392,89.699 84.6486392,89.622 84.7406392,89.617 C84.9836392,89.603 85.1046392,89.565 85.1626392,89.536 C85.2256392,89.504 85.2666392,89.454 85.2906392,89.377 C85.3226392,89.272 85.3396392,89.107 85.3396392,88.886 L85.3396392,84.306 C85.3396392,84.036 85.3136392,83.907 85.2926392,83.846 C85.2726392,83.789 85.2396392,83.756 85.1856392,83.736 C85.1256392,83.714 85.0006392,83.685 84.7406392,83.671 C84.6486392,83.666 84.5756392,83.589 84.5756392,83.496 L84.5756392,83.307 C84.5756392,83.258 84.5966392,83.212 84.6326392,83.178 C84.6696392,83.145 84.7176392,83.129 84.7666392,83.133 C84.9666392,83.152 85.2566392,83.161 85.6276392,83.161 C85.9036392,83.161 86.1456392,83.152 86.3456392,83.133 C86.4096392,83.126 86.4736392,83.158 86.5086392,83.212 L89.5136392,87.843 L89.5136392,84.401 C89.5136392,84.121 89.4866392,83.98 89.4626392,83.91 C89.4376392,83.838 89.3906392,83.788 89.3166392,83.755 C89.2476392,83.724 89.1066392,83.685 88.8226392,83.671 C88.7296392,83.666 88.6566392,83.589 88.6566392,83.496 L88.6566392,83.307 C88.6566392,83.258 88.6766392,83.212 88.7136392,83.178 C88.7496392,83.146 88.7976392,83.13 88.8456392,83.133 C89.0656392,83.152 89.3836392,83.161 89.7926392,83.161 C90.1636392,83.161 90.4526392,83.152 90.6536392,83.133 Z M102.096439,83.1877 C102.131439,83.2247 102.148439,83.2737 102.143439,83.3247 C102.099439,83.7617 102.078439,84.1617 102.078439,84.5137 C102.078439,84.8207 102.087439,85.0747 102.105439,85.2707 C102.110439,85.3197 102.094439,85.3677 102.060439,85.4047 C102.027439,85.4407 101.980439,85.4617 101.931439,85.4617 L101.714439,85.4617 C101.625439,85.4617 101.550439,85.3947 101.540439,85.3047 C101.491439,84.8347 101.430439,84.4837 101.359439,84.2607 C101.297439,84.0657 101.193439,83.9287 101.042439,83.8407 C100.881439,83.7467 100.619439,83.6997 100.263439,83.6997 L99.9294392,83.6997 L99.9294392,88.8867 C99.9294392,89.1857 99.9624392,89.3277 99.9904392,89.3937 C100.021439,89.4667 100.072439,89.5147 100.151439,89.5417 C100.225439,89.5677 100.384439,89.6027 100.714439,89.6167 C100.807439,89.6207 100.881439,89.6977 100.881439,89.7917 L100.881439,89.9797 C100.881439,90.0277 100.861439,90.0747 100.826439,90.1067 C100.791439,90.1407 100.746439,90.1587 100.696439,90.1547 C100.373439,90.1357 99.9104392,90.1267 99.3204392,90.1267 C98.6994392,90.1267 98.2344392,90.1357 97.9364392,90.1547 L97.9264392,90.1547 C97.8814392,90.1547 97.8384392,90.1387 97.8064392,90.1077 C97.7704392,90.0747 97.7514392,90.0287 97.7514392,89.9797 L97.7514392,89.7917 C97.7514392,89.6977 97.8244392,89.6207 97.9184392,89.6167 C98.2474392,89.6027 98.4064392,89.5677 98.4804392,89.5417 C98.5594392,89.5147 98.6104392,89.4667 98.6414392,89.3937 C98.6694392,89.3267 98.7024392,89.1847 98.7024392,88.8867 L98.7024392,83.6997 L98.3684392,83.6997 C98.0124392,83.6997 97.7504392,83.7467 97.5904392,83.8407 C97.4384392,83.9287 97.3354392,84.0657 97.2724392,84.2607 C97.2014392,84.4847 97.1394392,84.8357 97.0914392,85.3047 C97.0824392,85.3937 97.0074392,85.4617 96.9174392,85.4617 L96.7004392,85.4617 C96.6514392,85.4617 96.6044392,85.4407 96.5714392,85.4047 C96.5384392,85.3677 96.5214392,85.3197 96.5264392,85.2707 C96.5444392,85.0757 96.5544392,84.8217 96.5544392,84.5137 C96.5544392,84.1647 96.5324392,83.7647 96.4894392,83.3247 C96.4844392,83.2737 96.5014392,83.2247 96.5354392,83.1877 C96.5704392,83.1507 96.6184392,83.1327 96.6694392,83.1327 C97.1854392,83.1507 98.0774392,83.1607 99.3204392,83.1607 C100.557439,83.1607 101.447439,83.1507 101.962439,83.1327 C102.014439,83.1317 102.061439,83.1507 102.096439,83.1877 Z M110.411439,83.1325 C110.461439,83.1285 110.507439,83.1465 110.542439,83.1795 C110.577439,83.2125 110.598439,83.2585 110.598439,83.3075 L110.598439,83.4955 C110.598439,83.5885 110.525439,83.6655 110.432439,83.6705 C110.173439,83.6855 110.047439,83.7145 109.987439,83.7355 C109.933439,83.7555 109.901439,83.7885 109.880439,83.8465 C109.859439,83.9065 109.834439,84.0355 109.834439,84.3065 L109.834439,88.9815 C109.834439,89.2525 109.859439,89.3805 109.881439,89.4415 C109.901439,89.4985 109.933439,89.5315 109.988439,89.5515 C110.047439,89.5735 110.172439,89.6025 110.432439,89.6165 C110.525439,89.6215 110.598439,89.6985 110.598439,89.7915 L110.598439,89.9805 C110.598439,90.0285 110.577439,90.0745 110.542439,90.1075 C110.507439,90.1405 110.461439,90.1575 110.411439,90.1545 C110.126439,90.1355 109.727439,90.1265 109.225439,90.1265 C108.692439,90.1265 108.291439,90.1355 108.032439,90.1545 C108.028439,90.1545 108.023439,90.1545 108.019439,90.1545 C107.975439,90.1545 107.932439,90.1385 107.900439,90.1085 C107.865439,90.0745 107.844439,90.0285 107.844439,89.9805 L107.844439,89.7915 C107.844439,89.6985 107.917439,89.6215 108.010439,89.6165 C108.269439,89.6025 108.394439,89.5735 108.454439,89.5515 C108.509439,89.5315 108.541439,89.4985 108.561439,89.4415 C108.582439,89.3805 108.607439,89.2525 108.607439,88.9815 L108.607439,84.3065 C108.607439,84.0355 108.582439,83.9065 108.561439,83.8465 C108.541439,83.7885 108.509439,83.7555 108.454439,83.7355 C108.394439,83.7145 108.268439,83.6855 108.010439,83.6705 C107.917439,83.6655 107.844439,83.5885 107.844439,83.4955 L107.844439,83.3075 C107.844439,83.2585 107.865439,83.2125 107.900439,83.1795 C107.935439,83.1465 107.982439,83.1305 108.032439,83.1325 C108.290439,83.1515 108.691439,83.1605 109.225439,83.1605 C109.723439,83.1605 110.121439,83.1515 110.411439,83.1325 Z M122.498839,83.133 C122.547839,83.129 122.596839,83.145 122.632839,83.178 C122.668839,83.212 122.689839,83.258 122.689839,83.307 L122.689839,83.496 C122.689839,83.589 122.617839,83.665 122.524839,83.671 C122.281839,83.684 122.161839,83.722 122.102839,83.752 C122.039839,83.783 121.998839,83.834 121.974839,83.91 C121.952839,83.983 121.925839,84.127 121.925839,84.401 L121.925839,90.027 C121.925839,90.124 121.847839,90.202 121.750839,90.202 L121.534839,90.202 C121.474839,90.202 121.419839,90.172 121.387839,90.122 L117.750839,84.503 L117.750839,88.886 C117.750839,89.167 117.779839,89.307 117.802839,89.376 C117.827839,89.45 117.873839,89.499 117.948839,89.532 C118.016839,89.563 118.157839,89.602 118.442839,89.617 C118.535839,89.621 118.608839,89.698 118.608839,89.792 L118.608839,89.98 C118.608839,90.029 118.587839,90.076 118.552839,90.109 C118.516839,90.142 118.466839,90.158 118.418839,90.154 C118.198839,90.136 117.879839,90.127 117.472839,90.127 C117.102839,90.127 116.812839,90.136 116.611839,90.154 C116.562839,90.159 116.514839,90.142 116.477839,90.109 C116.441839,90.076 116.420839,90.029 116.420839,89.98 L116.420839,89.792 C116.420839,89.699 116.493839,89.622 116.585839,89.617 C116.829839,89.603 116.949839,89.565 117.007839,89.536 C117.071839,89.504 117.111839,89.454 117.135839,89.377 C117.167839,89.272 117.184839,89.107 117.184839,88.886 L117.184839,84.306 C117.184839,84.036 117.158839,83.906 117.137839,83.846 C117.117839,83.789 117.084839,83.756 117.030839,83.736 C116.971839,83.714 116.845839,83.685 116.585839,83.671 C116.493839,83.666 116.420839,83.589 116.420839,83.496 L116.420839,83.307 C116.420839,83.258 116.441839,83.212 116.477839,83.178 C116.514839,83.145 116.562839,83.129 116.611839,83.133 C116.812839,83.152 117.101839,83.161 117.472839,83.161 C117.748839,83.161 117.990839,83.152 118.191839,83.133 C118.255839,83.126 118.318839,83.158 118.353839,83.212 L121.359839,87.843 L121.359839,84.401 C121.359839,84.121 121.331839,83.98 121.307839,83.91 C121.282839,83.838 121.235839,83.788 121.161839,83.755 C121.092839,83.724 120.952839,83.685 120.667839,83.671 C120.574839,83.666 120.501839,83.589 120.501839,83.496 L120.501839,83.307 C120.501839,83.258 120.521839,83.212 120.558839,83.178 C120.594839,83.146 120.642839,83.13 120.691839,83.133 C120.911839,83.152 121.229839,83.161 121.637839,83.161 C122.008839,83.161 122.297839,83.152 122.498839,83.133 Z M134.593039,86.986 C134.629039,87.019 134.650039,87.066 134.650039,87.115 L134.650039,87.303 C134.650039,87.394 134.580039,87.47 134.489039,87.478 C134.329039,87.492 134.265039,87.52 134.245039,87.531 C134.226039,87.542 134.209039,87.578 134.198039,87.631 C134.185039,87.696 134.169039,87.833 134.169039,88.114 L134.169039,89.98 C134.169039,90.077 134.091039,90.155 133.994039,90.155 L133.805039,90.155 C133.712039,90.155 133.635039,90.082 133.630039,89.989 C133.625039,89.882 133.604039,89.778 133.566039,89.679 C133.546039,89.625 133.530039,89.611 133.530039,89.611 C133.483039,89.644 133.426039,89.684 133.343039,89.744 C133.113039,89.922 132.867039,90.059 132.616039,90.149 C132.362039,90.241 132.077039,90.287 131.770039,90.287 C131.094039,90.287 130.505039,90.144 130.019039,89.863 C129.528039,89.579 129.148039,89.166 128.888039,88.633 C128.633039,88.109 128.503039,87.477 128.503039,86.757 C128.503039,86.018 128.641039,85.357 128.912039,84.791 C129.186039,84.22 129.571039,83.775 130.055039,83.466 C130.540039,83.157 131.098039,83 131.713039,83 C132.106039,83 132.437039,83.057 132.697039,83.171 C132.947039,83.279 133.220039,83.439 133.511039,83.646 C133.539039,83.667 133.561039,83.681 133.576039,83.691 C133.598039,83.646 133.635039,83.536 133.659039,83.29 C133.668039,83.201 133.743039,83.132 133.834039,83.132 L134.051039,83.132 C134.099039,83.132 134.145039,83.153 134.178039,83.188 C134.211039,83.223 134.228039,83.27 134.225039,83.318 C134.200039,83.721 134.188039,84.447 134.188039,85.475 C134.188039,85.572 134.110039,85.65 134.013039,85.65 L133.796039,85.65 C133.711039,85.65 133.638039,85.589 133.623039,85.505 C133.568039,85.179 133.509039,84.908 133.449039,84.699 C133.393039,84.506 133.305039,84.335 133.189039,84.19 C133.025039,83.986 132.806039,83.822 132.541039,83.702 C132.273039,83.582 131.988039,83.52 131.694039,83.52 C131.320039,83.52 130.999039,83.639 130.715039,83.883 C130.426039,84.131 130.200039,84.494 130.041039,84.961 C129.878039,85.44 129.796039,86.009 129.796039,86.653 C129.796039,87.743 129.968039,88.545 130.307039,89.037 C130.636039,89.516 131.146039,89.749 131.864039,89.749 C132.207039,89.749 132.494039,89.663 132.743039,89.488 C132.860039,89.411 132.896039,89.359 132.907039,89.334 C132.924039,89.301 132.942039,89.236 132.942039,89.113 L132.942039,88.208 C132.942039,87.911 132.909039,87.768 132.881039,87.701 C132.850039,87.628 132.799039,87.581 132.720039,87.553 C132.645039,87.527 132.487039,87.493 132.157039,87.478 C132.064039,87.474 131.990039,87.397 131.990039,87.303 L131.990039,87.115 C131.990039,87.067 132.010039,87.021 132.045039,86.988 C132.080039,86.955 132.128039,86.938 132.176039,86.94 C132.499039,86.959 132.943039,86.968 133.494039,86.968 C133.914039,86.968 134.239039,86.959 134.460039,86.941 C134.510039,86.937 134.557039,86.953 134.593039,86.986 Z M3.56033921,86.7101 C3.80533921,86.9081 4.00433921,87.1381 4.15333921,87.3951 C4.30633921,87.6601 4.38433921,87.9721 4.38433921,88.3211 C4.38433921,88.9451 4.17233921,89.4361 3.75533921,89.7801 C3.34733921,90.1171 2.82833921,90.2871 2.21133921,90.2871 C1.89333921,90.2871 1.62633921,90.2521 1.41733921,90.1841 C1.21333921,90.1171 1.01533921,90.0261 0.829339207,89.9131 C0.665339207,89.8091 0.606339207,89.8061 0.600339207,89.8061 C0.612339207,89.8331 0.587339207,89.9031 0.565339207,90.0681 C0.554339207,90.1561 0.480339207,90.2211 0.392339207,90.2211 L0.175339207,90.2211 C0.126339207,90.2211 0.0803392068,90.2011 0.0473392068,90.1651 C0.0143392068,90.1291 -0.00266079323,90.0821 0.000339206774,90.0331 C0.0253392068,89.6941 0.0383392068,88.9381 0.0383392068,87.7841 C0.0383392068,87.6871 0.116339207,87.6091 0.213339207,87.6091 L0.430339207,87.6091 C0.521339207,87.6091 0.598339207,87.6801 0.604339207,87.7721 C0.646339207,88.3721 0.794339207,88.8631 1.04533921,89.2311 C1.28333921,89.5791 1.64333921,89.7491 2.14533921,89.7491 C2.44333921,89.7491 2.68833921,89.6601 2.89633921,89.4761 C3.09833921,89.2991 3.19533921,89.0351 3.19533921,88.6701 C3.19533921,88.3621 3.09633921,88.1091 2.89133921,87.8961 C2.66733921,87.6631 2.30333921,87.3941 1.81033921,87.0951 C1.43533921,86.8661 1.12733921,86.6601 0.893339207,86.4811 C0.647339207,86.2921 0.443339207,86.0611 0.288339207,85.7941 C0.128339207,85.5201 0.0473392068,85.1971 0.0473392068,84.8341 C0.0473392068,84.2541 0.240339207,83.8011 0.620339207,83.4881 C0.990339207,83.1831 1.45333921,83.0281 1.99433921,83.0281 C2.29433921,83.0281 2.52833921,83.0621 2.71033921,83.1291 C2.88333921,83.1941 3.06233921,83.2871 3.24133921,83.4071 C3.39733921,83.5061 3.45833921,83.5091 3.46433921,83.5091 C3.45133921,83.4831 3.47733921,83.4121 3.49833921,83.2471 C3.51033921,83.1601 3.58433921,83.0941 3.67233921,83.0941 L3.88933921,83.0941 C3.93733921,83.0941 3.98433921,83.1151 4.01833921,83.1511 C4.05133921,83.1871 4.06733921,83.2361 4.06233921,83.2851 C4.03233921,83.6401 4.01733921,84.2821 4.01733921,85.1921 C4.01733921,85.2891 3.93833921,85.3671 3.84133921,85.3671 L3.62433921,85.3671 C3.53333921,85.3671 3.45633921,85.2961 3.45033921,85.2051 C3.41533921,84.7311 3.27933921,84.3291 3.04533921,84.0091 C2.82333921,83.7051 2.50833921,83.5581 2.07933921,83.5581 C1.78433921,83.5581 1.55233921,83.6421 1.37133921,83.8151 C1.19133921,83.9871 1.10433921,84.2031 1.10433921,84.4761 C1.10433921,84.6831 1.14933921,84.8561 1.24333921,85.0051 C1.34033921,85.1621 1.46633921,85.2971 1.61833921,85.4101 C1.78333921,85.5331 2.02333921,85.6911 2.33133921,85.8821 L2.60533921,86.0521 C3.00433921,86.2991 3.32633921,86.5211 3.56033921,86.7101 Z" id="Combined-Shape"></path>
                <path d="M53.901515,97.0179 C53.891515,97.1119 53.885515,97.2409 53.885515,97.4009 C53.885515,97.6059 53.898515,97.8389 53.923515,98.0939 C53.927515,98.1299 53.915515,98.1659 53.890515,98.1929 C53.866515,98.2179 53.833515,98.2319 53.799515,98.2319 L53.794515,98.2319 C53.545515,98.2209 53.122515,98.2149 52.536515,98.2149 C51.838515,98.2149 51.301515,98.2209 50.941515,98.2319 C50.907515,98.2319 50.874515,98.2199 50.850515,98.1969 C50.826515,98.1729 50.812515,98.1409 50.812515,98.1069 L50.812515,97.9969 C50.812515,97.9299 50.864515,97.8749 50.930515,97.8719 C51.079515,97.8629 51.151515,97.8469 51.184515,97.8349 C51.210515,97.8259 51.223515,97.8109 51.233515,97.7839 C51.242515,97.7559 51.258515,97.6859 51.258515,97.5219 L51.258515,94.7869 C51.258515,94.6229 51.242515,94.5529 51.233515,94.5249 C51.223515,94.4979 51.210515,94.4839 51.184515,94.4749 C51.150515,94.4619 51.079515,94.4459 50.930515,94.4379 C50.864515,94.4339 50.812515,94.3789 50.812515,94.3129 L50.812515,94.2029 C50.812515,94.1689 50.826515,94.1369 50.850515,94.1129 C50.874515,94.0889 50.907515,94.0779 50.941515,94.0779 C51.298515,94.0889 51.835515,94.0939 52.536515,94.0939 C53.072515,94.0939 53.458515,94.0889 53.683515,94.0779 C53.719515,94.0749 53.755515,94.0899 53.780515,94.1169 C53.805515,94.1429 53.817515,94.1799 53.813515,94.2159 C53.788515,94.4539 53.775515,94.6679 53.775515,94.8529 C53.775515,94.9899 53.780515,95.0999 53.791515,95.1789 C53.795515,95.2149 53.784515,95.2499 53.760515,95.2779 C53.737515,95.3049 53.703515,95.3199 53.667515,95.3199 L53.540515,95.3199 C53.476515,95.3199 53.422515,95.2719 53.416515,95.2079 C53.391515,94.9799 53.359515,94.8099 53.322515,94.7039 C53.292515,94.6179 53.244515,94.5569 53.175515,94.5179 C53.123515,94.4889 53.015515,94.4549 52.801515,94.4549 L52.343515,94.4549 C52.195515,94.4549 52.126515,94.4669 52.093515,94.4779 C52.073515,94.4849 52.058515,94.4959 52.047515,94.5249 C52.038515,94.5529 52.021515,94.6229 52.021515,94.7869 L52.021515,95.9629 L52.260515,95.9629 C52.358515,95.9629 52.430515,95.9429 52.477515,95.9029 C52.528515,95.8579 52.562515,95.8069 52.579515,95.7469 C52.600515,95.6729 52.618515,95.5749 52.632515,95.4559 L52.650515,95.3419 C52.659515,95.2809 52.712515,95.2359 52.773515,95.2359 L52.900515,95.2359 C52.935515,95.2359 52.968515,95.2499 52.992515,95.2749 C53.015515,95.3009 53.027515,95.3349 53.025515,95.3699 C53.014515,95.5209 53.008515,95.6909 53.008515,95.8789 L53.008515,96.1429 C53.008515,96.3279 53.020515,96.5889 53.042515,96.9179 C53.044515,96.9529 53.032515,96.9869 53.008515,97.0119 C52.984515,97.0379 52.951515,97.0519 52.917515,97.0519 L52.790515,97.0519 C52.728515,97.0519 52.675515,97.0069 52.667515,96.9459 C52.662515,96.9189 52.651515,96.8289 52.632515,96.6739 C52.618515,96.5519 52.580515,96.4619 52.520515,96.4059 C52.461515,96.3509 52.376515,96.3239 52.260515,96.3239 L52.021515,96.3239 L52.021515,97.5219 C52.021515,97.6859 52.038515,97.7559 52.047515,97.7839 C52.058515,97.8139 52.073515,97.8239 52.093515,97.8309 C52.126515,97.8419 52.195515,97.8549 52.343515,97.8549 L52.746515,97.8549 C52.953515,97.8549 53.109515,97.8289 53.210515,97.7769 C53.303515,97.7299 53.370515,97.6559 53.413515,97.5489 C53.464515,97.4259 53.502515,97.2389 53.526515,96.9919 C53.532515,96.9279 53.586515,96.8789 53.650515,96.8789 L53.777515,96.8789 C53.812515,96.8789 53.846515,96.8939 53.870515,96.9199 C53.894515,96.9469 53.905515,96.9819 53.901515,97.0179 Z M66.922015,94.0784 C66.957015,94.0754 66.992015,94.0864 67.019015,94.1094 C67.045015,94.1334 67.060015,94.1674 67.060015,94.2024 L67.060015,94.3124 C67.060015,94.3704 67.020015,94.4204 66.964015,94.4344 C66.823015,94.4684 66.706015,94.6034 66.615015,94.8374 L65.320015,98.1794 C65.301015,98.2274 65.255015,98.2594 65.203015,98.2594 L65.115015,98.2594 C65.063015,98.2594 65.017015,98.2274 64.998015,98.1794 L63.653015,94.7104 C63.550015,94.4454 63.424015,94.4394 63.383015,94.4374 C63.317015,94.4344 63.264015,94.3794 63.264015,94.3124 L63.264015,94.2024 C63.264015,94.1674 63.278015,94.1344 63.304015,94.1104 C63.329015,94.0874 63.364015,94.0754 63.398015,94.0784 C63.541015,94.0884 63.737015,94.0944 63.979015,94.0944 C64.291015,94.0944 64.525015,94.0884 64.676015,94.0784 C64.711015,94.0754 64.744015,94.0874 64.770015,94.1114 C64.795015,94.1344 64.810015,94.1674 64.810015,94.2024 L64.810015,94.3124 C64.810015,94.3794 64.758015,94.4334 64.692015,94.4374 C64.529015,94.4464 64.462015,94.4674 64.436015,94.4784 C64.425015,94.4834 64.418015,94.4864 64.418015,94.5164 C64.418015,94.5424 64.426015,94.6054 64.476015,94.7294 L65.359015,97.0774 L66.140015,95.0514 C66.224015,94.8234 66.242015,94.7034 66.242015,94.6434 C66.242015,94.5524 66.209015,94.5184 66.180015,94.5004 C66.139015,94.4744 66.055015,94.4414 65.884015,94.4374 C65.816015,94.4364 65.762015,94.3804 65.762015,94.3124 L65.762015,94.2024 C65.762015,94.1684 65.776015,94.1354 65.801015,94.1114 C65.826015,94.0884 65.859015,94.0744 65.894015,94.0774 C66.258015,94.0974 66.675015,94.1024 66.922015,94.0784 Z M71.475715,94.0779 C71.511715,94.0769 71.543715,94.0879 71.568715,94.1119 C71.594715,94.1349 71.608715,94.1679 71.608715,94.2029 L71.608715,94.3129 C71.608715,94.3789 71.556715,94.4339 71.490715,94.4379 C71.341715,94.4459 71.270715,94.4619 71.236715,94.4739 C71.210715,94.4839 71.197715,94.4979 71.187715,94.5249 C71.178715,94.5529 71.162715,94.6229 71.162715,94.7869 L71.162715,97.5219 C71.162715,97.6859 71.178715,97.7559 71.187715,97.7839 C71.197715,97.8109 71.210715,97.8259 71.236715,97.8349 C71.270715,97.8469 71.341715,97.8629 71.490715,97.8709 C71.556715,97.8749 71.608715,97.9299 71.608715,97.9959 L71.608715,98.1069 C71.608715,98.1409 71.594715,98.1739 71.568715,98.1979 C71.543715,98.2219 71.509715,98.2329 71.475715,98.2309 C71.308715,98.2209 71.075715,98.2149 70.783715,98.2149 C70.472715,98.2149 70.238715,98.2209 70.086715,98.2309 C70.082715,98.2319 70.079715,98.2319 70.077715,98.2319 C70.045715,98.2319 70.015715,98.2199 69.992715,98.1979 C69.966715,98.1749 69.952715,98.1409 69.952715,98.1069 L69.952715,97.9959 C69.952715,97.9299 70.003715,97.8749 70.070715,97.8709 C70.219715,97.8629 70.290715,97.8469 70.324715,97.8349 C70.349715,97.8259 70.363715,97.8109 70.372715,97.7839 C70.382715,97.7559 70.398715,97.6859 70.398715,97.5219 L70.398715,94.7869 C70.398715,94.6229 70.382715,94.5529 70.372715,94.5249 C70.363715,94.4979 70.349715,94.4839 70.324715,94.4739 C70.290715,94.4619 70.219715,94.4459 70.070715,94.4379 C70.004715,94.4339 69.952715,94.3789 69.952715,94.3129 L69.952715,94.2029 C69.952715,94.1679 69.966715,94.1349 69.992715,94.1109 C70.017715,94.0869 70.050715,94.0759 70.086715,94.0779 C70.237715,94.0889 70.471715,94.0939 70.783715,94.0939 C71.073715,94.0939 71.306715,94.0889 71.475715,94.0779 Z M84.561115,97.0179 C84.550115,97.1129 84.545115,97.2419 84.545115,97.4009 C84.545115,97.6049 84.558115,97.8379 84.583115,98.0939 C84.587115,98.1299 84.574115,98.1659 84.550115,98.1929 C84.526115,98.2179 84.493115,98.2319 84.459115,98.2319 L84.453115,98.2319 C84.204115,98.2209 83.781115,98.2149 83.196115,98.2149 C82.497115,98.2149 81.960115,98.2209 81.601115,98.2319 C81.566115,98.2319 81.534115,98.2199 81.510115,98.1969 C81.485115,98.1729 81.472115,98.1409 81.472115,98.1069 L81.472115,97.9969 C81.472115,97.9299 81.523115,97.8749 81.590115,97.8719 C81.739115,97.8629 81.810115,97.8469 81.844115,97.8349 C81.869115,97.8259 81.883115,97.8109 81.893115,97.7839 C81.902115,97.7559 81.918115,97.6859 81.918115,97.5219 L81.918115,94.7869 C81.918115,94.6229 81.902115,94.5529 81.893115,94.5249 C81.883115,94.4979 81.869115,94.4839 81.844115,94.4749 C81.810115,94.4619 81.738115,94.4459 81.590115,94.4379 C81.523115,94.4339 81.472115,94.3789 81.472115,94.3129 L81.472115,94.2029 C81.472115,94.1689 81.485115,94.1369 81.510115,94.1129 C81.534115,94.0889 81.566115,94.0779 81.601115,94.0779 C81.958115,94.0889 82.495115,94.0939 83.196115,94.0939 C83.732115,94.0939 84.118115,94.0889 84.342115,94.0779 C84.379115,94.0749 84.414115,94.0899 84.439115,94.1169 C84.464115,94.1429 84.477115,94.1799 84.473115,94.2159 C84.447115,94.4529 84.435115,94.6669 84.435115,94.8529 C84.435115,94.9909 84.440115,95.0999 84.450115,95.1789 C84.455115,95.2149 84.444115,95.2499 84.420115,95.2779 C84.396115,95.3049 84.362115,95.3199 84.326115,95.3199 L84.200115,95.3199 C84.136115,95.3199 84.082115,95.2719 84.075115,95.2079 C84.051115,94.9799 84.019115,94.8099 83.982115,94.7039 C83.952115,94.6179 83.904115,94.5569 83.835115,94.5179 C83.783115,94.4889 83.675115,94.4549 83.461115,94.4549 L83.003115,94.4549 C82.855115,94.4549 82.786115,94.4669 82.753115,94.4779 C82.733115,94.4849 82.718115,94.4959 82.707115,94.5249 C82.697115,94.5529 82.681115,94.6229 82.681115,94.7869 L82.681115,95.9629 L82.920115,95.9629 C83.017115,95.9629 83.090115,95.9429 83.136115,95.9029 C83.187115,95.8579 83.221115,95.8069 83.238115,95.7469 C83.260115,95.6729 83.278115,95.5749 83.292115,95.4559 L83.310115,95.3419 C83.319115,95.2809 83.371115,95.2359 83.433115,95.2359 L83.560115,95.2359 C83.595115,95.2359 83.628115,95.2499 83.651115,95.2749 C83.675115,95.3009 83.687115,95.3349 83.685115,95.3699 C83.674115,95.5209 83.668115,95.6909 83.668115,95.8789 L83.668115,96.1429 C83.668115,96.3259 83.679115,96.5869 83.701115,96.9179 C83.703115,96.9529 83.691115,96.9869 83.667115,97.0119 C83.644115,97.0379 83.611115,97.0519 83.576115,97.0519 L83.450115,97.0519 C83.388115,97.0519 83.335115,97.0069 83.326115,96.9459 C83.322115,96.9189 83.311115,96.8289 83.292115,96.6739 C83.277115,96.5519 83.240115,96.4619 83.180115,96.4059 C83.120115,96.3509 83.035115,96.3239 82.920115,96.3239 L82.681115,96.3239 L82.681115,97.5219 C82.681115,97.6859 82.697115,97.7559 82.707115,97.7839 C82.718115,97.8139 82.733115,97.8249 82.752115,97.8309 C82.786115,97.8419 82.855115,97.8549 83.003115,97.8549 L83.405115,97.8549 C83.612115,97.8549 83.769115,97.8289 83.870115,97.7769 C83.963115,97.7299 84.029115,97.6559 84.073115,97.5489 C84.123115,97.4269 84.161115,97.2399 84.186115,96.9919 C84.192115,96.9279 84.246115,96.8789 84.310115,96.8789 L84.436115,96.8789 C84.472115,96.8789 84.506115,96.8939 84.530115,96.9199 C84.554115,96.9469 84.565115,96.9819 84.561115,97.0179 Z M90.368315,96.5828 C90.460315,96.7408 90.506315,96.9268 90.506315,97.1358 C90.506315,97.5078 90.379315,97.8008 90.130315,98.0068 C89.887315,98.2078 89.578315,98.3088 89.212315,98.3088 C89.020315,98.3088 88.866315,98.2888 88.740315,98.2478 C88.619315,98.2078 88.502315,98.1538 88.391315,98.0868 C88.347315,98.0578 88.316315,98.0428 88.297315,98.0358 C88.289315,98.0588 88.280315,98.0968 88.271315,98.1618 C88.264315,98.2238 88.210315,98.2698 88.147315,98.2698 L88.021315,98.2698 C87.986315,98.2698 87.953315,98.2558 87.929315,98.2298 C87.906315,98.2048 87.893315,98.1708 87.896315,98.1358 C87.910315,97.9378 87.918315,97.4968 87.918315,96.8218 C87.918315,96.7528 87.973315,96.6968 88.043315,96.6968 L88.170315,96.6968 C88.235315,96.6968 88.290315,96.7478 88.294315,96.8128 C88.318315,97.1608 88.404315,97.4438 88.549315,97.6558 C88.683315,97.8528 88.888315,97.9488 89.173315,97.9488 C89.342315,97.9488 89.481315,97.8978 89.598315,97.7948 C89.711315,97.6958 89.765315,97.5468 89.765315,97.3398 C89.765315,97.1658 89.709315,97.0228 89.593315,96.9028 C89.464315,96.7688 89.252315,96.6118 88.965315,96.4378 C88.745315,96.3038 88.565315,96.1828 88.428315,96.0778 C88.281315,95.9648 88.160315,95.8278 88.067315,95.6688 C87.972315,95.5048 87.923315,95.3118 87.923315,95.0958 C87.923315,94.7498 88.039315,94.4788 88.266315,94.2908 C88.487315,94.1088 88.763315,94.0168 89.085315,94.0168 C89.264315,94.0168 89.403315,94.0368 89.512315,94.0768 C89.614315,94.1148 89.721315,94.1708 89.827315,94.2418 C89.869315,94.2688 89.899315,94.2828 89.918315,94.2908 C89.926315,94.2668 89.934315,94.2278 89.943315,94.1648 C89.951315,94.1018 90.004315,94.0558 90.067315,94.0558 L90.193315,94.0558 C90.228315,94.0558 90.262315,94.0698 90.285315,94.0958 C90.309315,94.1218 90.321315,94.1568 90.318315,94.1908 C90.300315,94.3998 90.291315,94.7748 90.291315,95.3058 C90.291315,95.3748 90.235315,95.4308 90.166315,95.4308 L90.039315,95.4308 C89.973315,95.4308 89.919315,95.3798 89.914315,95.3148 C89.894315,95.0418 89.816315,94.8108 89.681315,94.6258 C89.556315,94.4548 89.378315,94.3718 89.135315,94.3718 C88.968315,94.3718 88.837315,94.4188 88.736315,94.5158 C88.636315,94.6118 88.587315,94.7328 88.587315,94.8858 C88.587315,95.0028 88.612315,95.1008 88.664315,95.1838 C88.721315,95.2728 88.792315,95.3508 88.878315,95.4148 C88.974315,95.4858 89.115315,95.5788 89.294315,95.6898 L89.454315,95.7898 C89.687315,95.9338 89.877315,96.0638 90.015315,96.1758 C90.161315,96.2928 90.280315,96.4308 90.368315,96.5828 Z M58.330215,96.0184 L58.575215,96.0184 C58.898215,96.0184 59.119215,95.9514 59.229215,95.8204 C59.345215,95.6824 59.404215,95.4824 59.404215,95.2274 C59.404215,94.9604 59.343215,94.7594 59.222215,94.6294 C59.104215,94.5024 58.899215,94.4374 58.613215,94.4374 C58.488215,94.4374 58.431215,94.4554 58.408215,94.4654 C58.391215,94.4734 58.371215,94.4874 58.357215,94.5284 C58.345215,94.5654 58.330215,94.6394 58.330215,94.7874 L58.330215,96.0184 Z M60.644215,97.6694 L60.727215,97.7294 C60.782215,97.7694 60.795215,97.8454 60.757215,97.9004 C60.663215,98.0404 60.568215,98.1414 60.468215,98.2064 C60.363215,98.2744 60.227215,98.3094 60.063215,98.3094 C59.881215,98.3094 59.728215,98.2534 59.607215,98.1434 C59.489215,98.0374 59.405215,97.8644 59.351215,97.6144 L59.230215,97.0634 C59.188215,96.8814 59.148215,96.7384 59.111215,96.6394 C59.080215,96.5574 59.036215,96.4934 58.976215,96.4444 C58.922215,96.4004 58.839215,96.3784 58.729215,96.3784 L58.330215,96.3784 L58.330215,97.5224 C58.330215,97.6854 58.347215,97.7564 58.356215,97.7834 C58.366215,97.8114 58.379215,97.8254 58.405215,97.8344 C58.438215,97.8474 58.510215,97.8634 58.659215,97.8714 C58.725215,97.8754 58.777215,97.9304 58.777215,97.9964 L58.777215,98.1064 C58.777215,98.1414 58.763215,98.1744 58.737215,98.1974 C58.712215,98.2214 58.679215,98.2334 58.643215,98.2314 C58.476215,98.2204 58.244215,98.2154 57.952215,98.2154 C57.641215,98.2154 57.406215,98.2204 57.255215,98.2314 C57.219215,98.2334 57.186215,98.2224 57.161215,98.1984 C57.135215,98.1744 57.121215,98.1414 57.121215,98.1064 L57.121215,97.9964 C57.121215,97.9304 57.172215,97.8754 57.239215,97.8714 C57.388215,97.8634 57.459215,97.8474 57.493215,97.8344 C57.518215,97.8254 57.532215,97.8114 57.541215,97.7834 C57.551215,97.7564 57.567215,97.6854 57.567215,97.5224 L57.567215,94.7874 C57.567215,94.6234 57.551215,94.5534 57.541215,94.5254 C57.532215,94.4974 57.518215,94.4834 57.493215,94.4744 C57.459215,94.4624 57.388215,94.4454 57.239215,94.4374 C57.173215,94.4344 57.121215,94.3794 57.121215,94.3124 L57.121215,94.2024 C57.121215,94.1674 57.135215,94.1344 57.161215,94.1114 C57.186215,94.0874 57.219215,94.0754 57.255215,94.0784 C57.405215,94.0884 57.629215,94.0944 57.918215,94.0944 L58.513215,94.0884 C58.579215,94.0854 58.660215,94.0834 58.751215,94.0834 C59.204215,94.0834 59.561215,94.1824 59.812215,94.3764 C60.073215,94.5794 60.205215,94.8454 60.205215,95.1674 C60.205215,95.3284 60.167215,95.4924 60.091215,95.6534 C60.015215,95.8174 59.886215,95.9654 59.709215,96.0934 C59.641215,96.1434 59.563215,96.1864 59.477215,96.2244 C59.563215,96.2644 59.634215,96.3114 59.693215,96.3674 C59.822215,96.4934 59.913215,96.6794 59.971215,96.9384 L60.108215,97.4974 C60.150215,97.6934 60.186215,97.7784 60.209215,97.8154 C60.231215,97.8514 60.249215,97.8544 60.267215,97.8544 C60.313215,97.8544 60.335215,97.8414 60.348215,97.8314 C60.371215,97.8134 60.411215,97.7754 60.471215,97.6954 C60.512215,97.6404 60.590215,97.6294 60.644215,97.6694 Z M76.112915,94.555 C75.951915,94.698 75.823915,94.908 75.731915,95.178 C75.637915,95.455 75.589915,95.788 75.589915,96.165 C75.589915,96.549 75.640915,96.882 75.741915,97.153 C75.839915,97.416 75.975915,97.618 76.145915,97.752 C76.445915,97.988 76.841915,97.997 77.198915,97.853 C77.350915,97.792 77.466915,97.703 77.551915,97.582 C77.616915,97.491 77.664915,97.393 77.693915,97.29 C77.724915,97.179 77.754915,97.003 77.782915,96.768 C77.790915,96.705 77.843915,96.659 77.907915,96.659 L78.033915,96.659 C78.103915,96.659 78.158915,96.714 78.158915,96.784 C78.158915,97.409 78.166915,97.851 78.180915,98.099 C78.183915,98.134 78.170915,98.167 78.147915,98.193 C78.123915,98.218 78.090915,98.232 78.056915,98.232 L77.929915,98.232 C77.864915,98.232 77.811915,98.182 77.804915,98.118 C77.794915,98.005 77.780915,97.947 77.772915,97.917 C77.765915,97.921 77.756915,97.926 77.746915,97.932 C77.581915,98.05 77.412915,98.145 77.253915,98.209 C77.089915,98.275 76.889915,98.309 76.661915,98.309 C76.290915,98.309 75.959915,98.223 75.678915,98.054 C75.395915,97.884 75.173915,97.635 75.018915,97.315 C74.865915,96.999 74.787915,96.62 74.787915,96.188 C74.787915,95.766 74.867915,95.387 75.023915,95.058 C75.181915,94.726 75.406915,94.464 75.691915,94.28 C75.977915,94.094 76.305915,94 76.666915,94 C76.902915,94 77.107915,94.035 77.276915,94.103 C77.440915,94.17 77.602915,94.264 77.758915,94.385 C77.760915,94.387 77.763915,94.389 77.766915,94.391 C77.778915,94.361 77.793915,94.301 77.804915,94.19 C77.811915,94.126 77.864915,94.077 77.929915,94.077 L78.056915,94.077 C78.090915,94.077 78.123915,94.092 78.147915,94.117 C78.170915,94.142 78.183915,94.176 78.180915,94.21 C78.166915,94.447 78.158915,94.871 78.158915,95.471 C78.158915,95.54 78.103915,95.596 78.033915,95.596 L77.907915,95.596 C77.846915,95.596 77.794915,95.552 77.783915,95.492 C77.744915,95.26 77.709915,95.092 77.677915,94.992 C77.649915,94.904 77.601915,94.816 77.534915,94.733 C77.436915,94.606 77.311915,94.51 77.161915,94.447 C77.006915,94.382 76.836915,94.349 76.655915,94.349 C76.446915,94.349 76.268915,94.417 76.112915,94.555 Z M47.120215,96.1761 C47.266215,96.2931 47.384215,96.4301 47.472215,96.5831 C47.564215,96.7411 47.610215,96.9271 47.610215,97.1361 C47.610215,97.5081 47.484215,97.8011 47.234215,98.0071 C46.991215,98.2071 46.683215,98.3091 46.316215,98.3091 C46.124215,98.3091 45.970215,98.2891 45.845215,98.2471 C45.724215,98.2081 45.606215,98.1541 45.496215,98.0871 C45.451215,98.0581 45.420215,98.0431 45.401215,98.0351 C45.393215,98.0591 45.384215,98.0971 45.376215,98.1611 C45.368215,98.2241 45.314215,98.2701 45.252215,98.2701 L45.125215,98.2701 C45.090215,98.2701 45.057215,98.2561 45.034215,98.2301 C45.010215,98.2051 44.998215,98.1711 45.000215,98.1361 C45.015215,97.9381 45.022215,97.4961 45.022215,96.8221 C45.022215,96.7531 45.078215,96.6971 45.147215,96.6971 L45.274215,96.6971 C45.340215,96.6971 45.394215,96.7471 45.399215,96.8131 C45.423215,97.1601 45.508215,97.4441 45.653215,97.6551 C45.787215,97.8531 45.992215,97.9481 46.277215,97.9481 C46.446215,97.9481 46.585215,97.8981 46.703215,97.7951 C46.815215,97.6961 46.870215,97.5471 46.870215,97.3401 C46.870215,97.1661 46.813215,97.0231 46.698215,96.9031 C46.568215,96.7681 46.357215,96.6121 46.069215,96.4381 C45.850215,96.3041 45.669215,96.1831 45.532215,96.0771 C45.385215,95.9651 45.264215,95.8271 45.171215,95.6691 C45.076215,95.5051 45.028215,95.3121 45.028215,95.0961 C45.028215,94.7491 45.143215,94.4781 45.371215,94.2911 C45.592215,94.1091 45.867215,94.0171 46.189215,94.0171 C46.368215,94.0171 46.508215,94.0361 46.616215,94.0771 C46.719215,94.1151 46.825215,94.1711 46.932215,94.2421 C46.974215,94.2691 47.003215,94.2821 47.022215,94.2901 C47.030215,94.2661 47.039215,94.2281 47.047215,94.1641 C47.056215,94.1021 47.108215,94.0551 47.171215,94.0551 L47.298215,94.0551 C47.333215,94.0551 47.366215,94.0701 47.390215,94.0961 C47.414215,94.1221 47.426215,94.1561 47.422215,94.1911 C47.404215,94.3991 47.395215,94.7741 47.395215,95.3051 C47.395215,95.3741 47.339215,95.4301 47.270215,95.4301 L47.143215,95.4301 C47.078215,95.4301 47.023215,95.3801 47.019215,95.3151 C46.998215,95.0421 46.920215,94.8101 46.786215,94.6261 C46.661215,94.4551 46.482215,94.3711 46.239215,94.3711 C46.072215,94.3711 45.942215,94.4191 45.840215,94.5161 C45.740215,94.6121 45.691215,94.7331 45.691215,94.8861 C45.691215,95.0031 45.717215,95.1001 45.769215,95.1841 C45.825215,95.2731 45.896215,95.3511 45.982215,95.4141 C46.079215,95.4861 46.219215,95.5781 46.398215,95.6901 L46.558215,95.7891 C46.792215,95.9331 46.981215,96.0641 47.120215,96.1761 Z" id="Combined-Shape"></path>
            </g>
        </g>
    </g>
</svg>