<svg xmlns="http://www.w3.org/2000/svg" viewBox="0 0 608 608"><defs><style>.cls-1{fill:none;stroke:#fff;stroke-miterlimit:10;stroke-width:7px;}.cls-2{fill:#fff;}.cls-2,.cls-3{fill-rule:evenodd;}.cls-3{fill:#002e52;}</style></defs><title>student-guru</title><g id="Capa_2" data-name="Capa 2"><g id="Capa_1-2" data-name="Capa 1"><circle class="cls-1" cx="304" cy="304" r="300.5"/><path class="cls-2" d="M355.38,599.65c0-1-.1-2.07-.1-3.11V502.7c0-3.32,0-3.32-3.27-3.32-6.8,0-13.6.05-20.4,0a7.51,7.51,0,0,0-4.87,1.57c-4.52,3.41-9.09,6.76-13.64,10.14-.26.19-.48.43-.75.6-1.51,1-1.86.85-2.6-.88q-1.87-4.41-3.8-8.79a20.7,20.7,0,0,0-1.13-1.94c-1.15,2.49-2.17,4.62-3.13,6.78-.61,1.38-1.13,2.81-1.73,4.2s-1,1.62-2.32.73c-2-1.4-4-2.89-6-4.36-3.21-2.37-6.37-4.79-9.63-7.09a4.93,4.93,0,0,0-2.64-.88c-8.08-.07-16.16-.05-24.24,0-1.82,0-2,.24-2,2.14,0,.56,0,1.12,0,1.68q0,46.8,0,93.6c0,1-.1,2.07-.15,3.11l-8.48-1.64c.07-.63.12-1.27.2-1.9.4-3.31,1.14-6.61,1.16-9.92.11-24.23.08-48.45.11-72.68,0-.88.08-1.75.1-2.63.1-3.27.2-6.53.27-9.8a1.31,1.31,0,0,0-1.49-1.47l-12,0c-.87,0-1.36.33-1.35,1.26,0,.47,0,1,0,1.43-.26,15.1.45,30.2-.39,45.29-.19,3.38,0,6.78,0,10.17,0,8.56-.06,17.11,0,25.67a32,32,0,0,1-1.46,8.92c-.24.87-.52,1.68-1.49,2l-4.83-1.22c.24-.75.43-1.33.6-1.91a28.6,28.6,0,0,0,1.36-8.23q0-38.87.23-77.75c0-1.52,0-3,.05-4.55a6.76,6.76,0,0,1,7-6.91l37.92.05h2.64c-.6-.74-1.33-1.26-1.41-1.86s.45-1.32.73-2q2-4.74,4.06-9.47l1.86-3.78c1.75,1.19,3.4,2.34,5.46,3.75-5.41-6.46-10.38-12.58-15.57-18.52a43.39,43.39,0,0,1-8-13.79c-1.23-3.29-2.52-6.56-3.71-9.86a2.82,2.82,0,0,0-2.54-2.15c-1.5-.19-3-.6-4.47-.86a9.84,9.84,0,0,1-8.35-7.59,74.73,74.73,0,0,1-2-8.87c-.67-4.49-1-9-1.62-13.54a5.25,5.25,0,0,1,2.51-5.48,10.89,10.89,0,0,1,1.93-1.3c1.33-.55,1.28-1.47.91-2.55-.8-2.35-1.67-4.67-2.39-7-1.35-4.42-2.61-8.88-3.92-13.31a4.43,4.43,0,0,1,.77-4.32c1.2-1.37,1.06-2.47.1-3.82a3.4,3.4,0,0,1,0-3.85c1.1-2,1.05-2-.88-3.53-4.33-3.4-8.7-6.76-13-10.23a47.15,47.15,0,0,1-9.21-9.71c-.63-.89-1.1-1.79-.52-2.86a5.8,5.8,0,0,1,4.55-3.42c4.43-.57,8.84-1.33,13.23-2.16,8.47-1.6,16.93-3.3,25.38-5a173.55,173.55,0,0,0,26.81-7.19q6.51-2.42,13-4.78c7.64-2.74,15.7-3.59,23.59-5.21a3.31,3.31,0,0,1,1.65.13,53.86,53.86,0,0,1,6.73,2.42,86.83,86.83,0,0,1,7.87,4.55c7.86,4.92,15.66,9.93,23.51,14.85a11,11,0,0,1,4.67,5.55c3,7.68,6.21,15.28,12.84,20.74.12.1.21.24.33.35a11.14,11.14,0,0,1,3.45,8.83,33.46,33.46,0,0,1-.7,5.17,183.28,183.28,0,0,1-6.7,25.45c-1.09,3-1.31,2.54,1.76,3.94,1.12.52,2.48,1.26,2.95,2.27A12.31,12.31,0,0,1,380,411.6c-.32,1.72-.35,3.51-.79,5.19q-2,7.63-4.22,15.21a5.49,5.49,0,0,1-4.84,4.06c-1.81.27-3.59.81-5.41,1a4.2,4.2,0,0,0-3.5,2.45c-2.4,4.25-4.9,8.43-7.36,12.63a35.87,35.87,0,0,1-6.16,7.92c-4.58,4.34-9.07,8.78-13.77,13-3.21,2.86-6.65,5.48-10.11,8a13.18,13.18,0,0,1-8.1,2.46q-12.94,0-25.91,0c-.58,0-1.16.08-2.27.16l8.08,5.67a27.6,27.6,0,0,1,2.78,2.22c2.33,2.42,5.21,2.79,8.31,2.46a3.78,3.78,0,0,0,1.76-.53c1.87-1.33,3.67-2.76,5.5-4.15.66-.44,1.35-.84,2-1.31l13.49-9.94c.63-.46,1.28-.89,2-1.38l2.17,4.33c1.23,2.94,2.44,5.88,3.69,8.81,1,2.35,1,2.35-.68,4.19h2.46q18.45,0,36.9,0c4.5,0,7.3,2.79,7.31,7.31q.09,23.25.15,46.49c0,12.38.05,24.76.24,37.14a29.14,29.14,0,0,0,1.39,6.76c.26,1,0,1.34-.81,1.55-1.47.37-2.94.7-4.41,1.05-.67-2.93-1.82-5.85-1.94-8.81-.37-9.49-.38-19-.49-28.49-.05-4.21,0-8.42,0-12.62q0-20.14,0-40.29c0-4.28,0-4.28-4.33-4.27-2.88,0-5.76,0-8.64,0-1.57,0-1.78.28-1.88,1.81,0,.48,0,1,0,1.44.13,6.27.36,12.54.38,18.82.05,20.62,0,41.24.06,61.87,0,2.77.24,5.56.49,8.33.18,2,.55,3.92.84,5.89ZM249.24,401.79a1.79,1.79,0,0,0-2.43,0c-.63,0-1.27.07-1.9.13a3.19,3.19,0,0,0-3.26,3.54c0,1.27.28,2.53.28,3.8,0,5.71,1.52,11.18,2.66,16.71a6.62,6.62,0,0,0,5.67,5.66,49.2,49.2,0,0,0,6.14.93,3.06,3.06,0,0,1,3.13,2.35c.87,2.64,1.93,5.23,2.82,7.87,2.33,6.84,5.27,13.28,10.26,18.7,4.58,5,8.86,10.25,13.21,15.44a7.89,7.89,0,0,0,6.92,3c3.59-.2,7.18-.23,10.77-.28,3.2-.05,6.41-.07,9.6,0a17,17,0,0,0,12.27-4.41c2.37-2.15,4.76-4.25,7.11-6.4,3.12-2.86,6.24-5.71,9.31-8.62,3.94-3.75,7.77-7.59,10.36-12.48,2-3.81,4.22-7.51,6.23-11.32a5,5,0,0,1,4.18-3.07c1.74-.17,3.45-.69,5.18-.89a4.57,4.57,0,0,0,4.32-3.8c.13-.54.28-1.07.45-1.6a81.24,81.24,0,0,0,3.73-18.44,2.58,2.58,0,0,0-1.69-3,43.71,43.71,0,0,0-4.42-1.69c-2-.64-2.33-.36-3.1,1.69q-3.44,9.06-6.93,18.09a10.46,10.46,0,0,1-.58,1.16l-.39-.09v-7.52c-2.94.18-3.15-.17-4,3.12-1.94,7.12-6.31,12.09-13.44,14.43-15.56,5.09-28-6.7-28.25-18.71a8.59,8.59,0,0,0-.41-2.35,5.43,5.43,0,0,0-5-3.78,5.36,5.36,0,0,0-5.43,3.53,11.22,11.22,0,0,0-.53,3.05c-.66,10.31-7.77,18-18.43,19.65a21.26,21.26,0,0,1-22.54-13.06c-.42-1-.68-2.13-1-3.2-.56-1.84-.55-1.84-2.69-1.56.13,3,1.74,5.86,1.22,9a12.63,12.63,0,0,1-1.6-3.12c-1.2-3.59-2.28-7.23-3.52-10.81C252.12,409.56,250.65,405.68,249.24,401.79Zm110.21,10.82c0-.48.07-.88.07-1.27.06-10.88.15-21.75.14-32.62a18.48,18.48,0,0,0-.83-5.15c-1.11-3.65-2.43-7.25-3.65-10.87-.33-1-.56-2-1-2.95-.58-1.36-1.21-1.7-2.65-1.37-7.84,1.78-15.73,3.4-23.51,5.44-14,3.68-27.89,7.92-42.18,10.46-2.79.5-5.56,1-8.34,1.54-.1-.15-.19-.31-.28-.47a21.36,21.36,0,0,0,2.14-2,10.52,10.52,0,0,0,1-2c-.66-.21-1.31-.43-2-.61a3.45,3.45,0,0,0-.72,0c-3.91-.06-7.83-.06-11.74-.19a12.84,12.84,0,0,0-8.14,2.21,23.28,23.28,0,0,1-2.8,1.84c-2.87,1.47-3.93,3.74-3.45,6.91s.75,6.15,1.08,9.23c.19,1.81.17,3.66.48,5.45.54,3.13,1.33,6.22,1.89,9.35.41,2.25.6,4.53.93,6.79a1,1,0,0,0,.54.66,2.51,2.51,0,0,0,3.57-1.87c.08-.31.12-.63.2-.94A19.79,19.79,0,0,1,270,397.38c.54-.3,1.07-.63,2.09-1.23-1.33.11-2.1.16-2.86.25-2.7.31-5.39.66-8.09,1-1.6.17-2.48-.36-2.84-1.58s.11-2.13,1.55-2.81c.51-.24,1-.43,1.56-.62A70.46,70.46,0,0,1,290,388.59a26.58,26.58,0,0,1,5.32,1.28,2.14,2.14,0,0,1,1.83,2.2,2.88,2.88,0,0,1-2.09,2.64,22.65,22.65,0,0,1-3.08.46c-1.06.12-2.12.19-3.18.29A24.45,24.45,0,0,1,301.2,409a11.76,11.76,0,0,1,6.4-2.5c2.43-.08,4.42,1.08,6.27,2.14,1.63-2.54,2.92-5.15,4.79-7.26s4.33-3.77,6.56-5.64c-2-.15-4-.25-5.92-.47a6.58,6.58,0,0,1-2.25-.67,2.34,2.34,0,0,1-1.52-2.48,2.48,2.48,0,0,1,2-2.13,48.12,48.12,0,0,1,7.74-1.44,85.81,85.81,0,0,1,17.69.9,39,39,0,0,1,7.58,2.07,2.77,2.77,0,0,1,1.9,3.24c-.53,1.38-1.81,1.4-3,1.43-.88,0-1.75-.06-2.63-.07s-1.52,0-2.4,0c.2.29.26.45.36.5a20.29,20.29,0,0,1,10.52,13.87c.32,1.39,1,2.09,2.48,2A12.38,12.38,0,0,1,359.45,412.61ZM316.87,415a17.78,17.78,0,1,0,18-17.51A17.68,17.68,0,0,0,316.87,415Zm-53.78.27A17.53,17.53,0,0,0,280.7,433a17.59,17.59,0,1,0,.17-35.17C270.77,397.91,263.08,405.48,263.09,415.28Zm49.16,91.77c3.78-2.78,7.44-5.47,11.09-8.17,3.15-2.32,6.28-4.66,9.45-6.95.79-.57,1-1.05.52-2-.69-1.35-1.23-2.77-1.83-4.16-.49-1.12-1-2.24-1.54-3.47l-20.33,15c-.68.5-1.26.91-.8,1.92C310,501.79,311.07,504.35,312.25,507.05Zm-14.69,0c1.08-2.45,2-4.83,3.15-7.1.64-1.27.39-1.91-.74-2.72-6.21-4.47-12.37-9-18.55-13.55-.49-.36-1-.65-1.64-1-1.1,2.5-2,4.86-3.18,7.13-.61,1.21-.24,1.79.74,2.5,4.28,3.06,8.51,6.21,12.75,9.32Z"/><path class="cls-2" d="M213.38,348.63a66.61,66.61,0,0,1-25.72,19.5,74,74,0,0,1-39,6.3,72.31,72.31,0,0,1-39.89-17.73C96.36,346,88,332.65,84.55,316.56a70.61,70.61,0,0,1,9.62-54.25c11.8-18.71,28.77-30.29,50.54-34,24.82-4.21,46.51,2.73,64.59,20.34,3.6,3.5,6.74,7.47,10,11.32,1.56,1.85,1.43,2.14-.43,3.65s-3.74,3-5.63,4.48-2.88,1.36-4.28-.68a68.29,68.29,0,0,0-17.81-17.94,57.78,57.78,0,0,0-40.52-10c-19.65,2.36-34.5,12.66-45.37,28.89a56.72,56.72,0,0,0-9.45,39.71c2.53,19.84,12.44,35.4,29.53,45.67,21.75,13.07,43.69,12.24,65.19-1.12a51,51,0,0,0,17.15-17.12l.43.51a9.6,9.6,0,0,0,2.35,8.82C211.49,346.08,212.4,347.39,213.38,348.63Z"/><path class="cls-2" d="M426.67,280.68V233.16c0-.72,0-1.44,0-2.16a1.91,1.91,0,0,1,2-1.94c2.8,0,5.6,0,8.4,0a2,2,0,0,1,2.06,1.95,14.14,14.14,0,0,1,.05,2.16q0,42.72,0,85.43A102.8,102.8,0,0,0,440.64,338a26.67,26.67,0,0,0,14.21,19.42c14,7.44,28.16,7.51,42.19,0,8.68-4.62,13.53-12.07,14.64-21.75a158.48,158.48,0,0,0,1.05-17.7c.1-28.16,0-56.31,0-84.47,0-.64,0-1.28,0-1.92.09-1.79.71-2.47,2.47-2.51,2.56-.05,5.13-.05,7.68,0,1.65,0,2.23.71,2.33,2.39,0,.56,0,1.12,0,1.68v85.2a137.87,137.87,0,0,1-1.31,20.8,37.67,37.67,0,0,1-13.72,23.74,52.1,52.1,0,0,1-28.63,11.67,54.06,54.06,0,0,1-34.44-7.76c-8.88-5.37-15.17-12.91-18.18-22.94-1.5-5-1.82-10.22-2.1-15.41-.19-3.51-.21-7-.21-10.55C426.65,305.48,426.67,293.08,426.67,280.68Z"/><path class="cls-2" d="M347,316.18c0-.88.08-1.76.08-2.64q0-39.72,0-79.43c0-.4,0-.8,0-1.2-.21-3.56.78-3.94,3.76-3.9,6.4.1,12.81-.11,19.2.12a114.31,114.31,0,0,1,15.49,1.39,34.43,34.43,0,0,1,27.84,28.18,46.82,46.82,0,0,1-1.1,22.77c-3.67,11.53-11.6,18.93-23,22.47-4.24,1.31-8.7,1.94-13.27,2.93.36.54.85,1.3,1.36,2.05l40.88,59.2a19.33,19.33,0,0,1,1.22,1.78,2,2,0,0,1-1.68,3.12c-3.19.1-6.39,0-9.59,0-1.14,0-1.68-.77-2.23-1.57l-7.59-11.08-35.73-52c-.22-.33-.47-.65-.67-1-.39-.7-1-1.2-1.74-.85-.36.18-.58,1-.59,1.53-.06,5.35-.07,10.71-.09,16.07Zm12.58-48.44c0,8.39,0,16.78,0,25.17,0,1.26.35,1.65,1.6,1.6,6.14-.24,12.32-.1,18.42-.67,9.5-.87,16.08-6.2,19.94-14.76a28.08,28.08,0,0,0,1.16-19.24c-2.54-9.41-8.38-15.56-18.26-17.44-7-1.32-14-1.4-21-1.4-1.94,0-1.84,0-1.84,1.81Q359.6,255.28,359.59,267.74Z"/><path class="cls-2" d="M461.88,206.61V133c0-.48,0-1,0-1.43,0-1.8,0-1.8,1.9-1.83,1,0,1.93.08,2.87,0,1.35-.15,1.7.5,1.59,1.67a13.83,13.83,0,0,0,0,1.44v89.63l-.55.23c-8.25-8.62-16.36-17.37-24.55-26.05s-16.53-17.6-24.8-26.4-16.37-17.43-25-26v73.3c0,2.34,0,2.34-2.35,2.35-4,0-4,0-4-4V129c1.2-.25,1.55.75,2.09,1.31q9.92,10.42,19.8,20.9l51.26,54.19,1.3,1.41Z"/><path class="cls-2" d="M262.37,174.8V133.31c0-.4,0-.8,0-1.2,0-2.34,0-2.35,2.35-2.35,5.36,0,10.71-.09,16.07,0,7.15.13,14.22.87,20.75,4.07,12.65,6.2,20.48,16.35,23.71,29.94,4.32,18.11-1.87,36.91-17.37,48.24a38.13,38.13,0,0,1-20.45,7.39c-7.81.48-15.65.34-23.48.5-1.09,0-1.69-.27-1.59-1.46,0-.56,0-1.12,0-1.68Zm6.46.07v24.95c0,4.16,0,8.32,0,12.48,0,1.15.29,1.52,1.47,1.48,5.67-.22,11.36-.1,17-.6a32.74,32.74,0,0,0,16.82-6.37,39.65,39.65,0,0,0,13.44-46.07c-5-13-14.19-21.37-28.18-24-6.51-1.22-13.07-.71-19.61-.84-.77,0-.94.39-.92,1s0,1.12,0,1.68Z"/><path class="cls-2" d="M244.77,129.76c1.88,0,3.55,0,5.21,0,.82,0,1.18.35,1.14,1.16,0,.32,0,.64,0,1,0,19.59,0,39.19-.07,58.78a53.5,53.5,0,0,1-1,9.77,22.17,22.17,0,0,1-7.27,12.4A32,32,0,0,1,223.27,221a33.41,33.41,0,0,1-22.65-6.15A24.09,24.09,0,0,1,190.23,196c-.25-3.91-.43-7.83-.44-11.74,0-17.28,0-34.55,0-51.83,0-2.91,0-2.63,2.57-2.63,3.9,0,3.9,0,3.9,3.93,0,15.28-.06,30.55,0,45.83,0,5.59.21,11.19.66,16.76.58,7.27,4.3,12.57,10.93,15.72a28,28,0,0,0,25.84-.29,17.76,17.76,0,0,0,10.24-14.66,138.69,138.69,0,0,0,.8-14.11c.1-16.8,0-33.59,0-50.39Z"/><path class="cls-2" d="M333.2,174.74V133c0-.4,0-.8,0-1.2,0-2,0-2,2.17-2h39.11c2,0,2,0,2,1.93,0,.72,0,1.44,0,2.16,0,2,0,2.05-2.18,2.06H340.5c-.72,0-1,.37-.95,1.05,0,.32,0,.64,0,1q0,13.67,0,27.35c0,2.56-.24,2.35,2.29,2.35H373a6.18,6.18,0,0,1,1.67,0c.35.1.82.54.84.85.09,1.35,0,2.72,0,4.08,0,.83-.45,1.12-1.2,1.13H340.56c-.69,0-1.05.28-1,1,0,.39,0,.79,0,1.19V211.7c0,2.11-.26,2.06,2.07,2.06h31.92c.56,0,1.12,0,1.68,0,.9-.05,1.23.35,1.31,1.26.43,4.9.45,4.9-4.38,4.9h-36c-.56,0-1.12,0-1.67,0-.91.05-1.34-.33-1.29-1.26,0-.56,0-1.12,0-1.68Z"/><path class="cls-2" d="M107.55,221.1c-10.91.28-21.49-6.52-26.17-18.41-.4-1-.3-1.6.82-2a27.26,27.26,0,0,0,3.28-1.45c.76-.38,1.17-.16,1.49.56.46,1,.92,2,1.46,3,3.23,5.71,7.57,10.05,14.21,11.62,10.85,2.56,22.15-3.4,25.76-13.64,2.59-7.36.9-13.38-5.35-18a58.4,58.4,0,0,0-7.42-4.36c-6.06-3.23-12.12-6.45-18.25-9.55-10-5-13.14-14-10.13-24.63a21.4,21.4,0,0,1,19.28-15.51c10.16-.79,18.3,2.76,24.16,11.21,1.09,1.58,1.06,1.64-.4,2.82-1,.8-2.07,2.16-3,2.09s-1.68-1.67-2.45-2.65a19.33,19.33,0,0,0-21-6.68,16.54,16.54,0,0,0-10.9,18.63A9.83,9.83,0,0,0,97,160.93a94.07,94.07,0,0,0,8.32,5.2q9.15,5,18.48,9.6c13.2,6.59,14.62,20.48,9.37,30.19C127.75,216,118.84,220.7,107.55,221.1Z"/><path class="cls-2" d="M245.89,323.25l-12.55,2.41q-.06-46.67-.11-93.33c0-2.92.39-3.28,3.36-3.29,2.08,0,4.16,0,6.24,0,2.31,0,2.9.66,2.95,3,0,.56,0,1.12,0,1.68q0,42.23,0,84.46C245.79,319.89,245.86,321.57,245.89,323.25Z"/><path class="cls-2" d="M331.76,307.18c-2.33-.81-4.63-1.75-7-2.38a46.36,46.36,0,0,0-5.41-.78q0-35.85,0-71.7c0-2.8.45-3.26,3.15-3.28,2.24,0,4.48,0,6.71,0,2,0,2.53.64,2.62,2.59,0,.24,0,.48,0,.72q0,36.69,0,73.38C331.82,306.22,331.78,306.7,331.76,307.18Z"/><path class="cls-2" d="M223.82,327.41c-2,.36-4,.77-6.07,1a10.85,10.85,0,0,0-7.54,4l-.44-1a53.45,53.45,0,0,0,3.57-15.82c.11-1.9.13-1.93-1.87-1.93H167.58c-4,0-4.14-.14-4.14-4.22,0-1.68-.05-3.36,0-5,.06-1.91.73-2.56,2.62-2.68.48,0,1,0,1.44,0H222.2c.39,0,.8,0,1.19,0,2,.1,2.8.81,2.73,2.79-.15,4.07-.25,8.15-.65,12.2C225.12,320.34,224.38,323.87,223.82,327.41Z"/><path class="cls-2" d="M157.83,177.74v-39.6c0-2.41.19-2.23-2.16-2.23H138.39c-3.62,0-3.62,0-3.6-3.72,0-.4,0-.8,0-1.2-.06-.92.36-1.31,1.28-1.24.47,0,1,0,1.44,0h47c.4,0,.8,0,1.2,0,1.1-.11,1.59.28,1.56,1.47-.13,5.73.79,4.61-4.38,4.67-5.51.07-11,0-16.55,0-2.4,0-2.15-.2-2.15,2.21q0,28.8,0,57.59,0,11,0,22.08c0,2.09,0,2.1-2.11,2.12-1,0-2.08,0-3.12,0-.82,0-1.16-.36-1.15-1.14,0-.56,0-1.12,0-1.68Z"/><path class="cls-2" d="M500.87,178v39.83c0,2.06,0,2.07-2.13,2.09-1,0-1.92,0-2.88,0s-1.42-.46-1.35-1.45c0-.56,0-1.12,0-1.68q0-39.1,0-78.22c0-3,.43-2.65-2.67-2.66-6.16,0-12.31,0-18.47,0-1.85,0-1.85,0-1.89-1.85-.11-4.29-.11-4.29,4.23-4.29h45.35c.56,0,1.12,0,1.68,0,1-.09,1.28.4,1.23,1.28v.24c.25,4.64.25,4.64-4.38,4.64H503c-2.46,0-2.16,0-2.16,2.25Z"/><path class="cls-2" d="M209.77,331.46l.44,1-2.12,3.66-.43-.51Q208.73,333.52,209.77,331.46Z"/><path class="cls-3" d="M249.24,401.79l-2.43,0A1.79,1.79,0,0,1,249.24,401.79Z"/><path class="cls-2" d="M328.33,524.48c.21-.46.36-1,.61-1.39a7.88,7.88,0,0,1,4.34-3.94l1.47-.5h1.38a.69.69,0,0,0,.25.14,7.41,7.41,0,0,1,6.21,6.15,1,1,0,0,0,.06.35c.07.44-.12,1.32.08.72-.08-.19-.11.82-.12.85a9,9,0,0,1-2.29,3.66,7.9,7.9,0,0,0-1.91,3.16c-.12.39-.33.71,0,1.13.19.26.05.46-.28.56-.1,0-.22,0-.3,0s-.58-.07-.69.3c.24,0,.48.08.72.09s.47,0,.57.3a.64.64,0,0,1-.64,1c-.21,0-.41,0-.61,0a15,15,0,0,0-1.66.17,5,5,0,0,0-1,.39c.38.28.71-.08,1.07-.1.1,0,.19-.08.29-.08a9.26,9.26,0,0,1,1.29,0c.29,0,.37.18.25.48a2.26,2.26,0,0,1-1.45,1.32h-1.69c-.18-.21-.45-.39-.51-.62-.11-.43-.31-.68-.75-.72a.56.56,0,0,1-.21-.09.77.77,0,0,1-.37-.85c.1-.31.37-.29.63-.33a4.62,4.62,0,0,0,.74-.15c.07,0,.1-.14.16-.21-.09,0-.17-.12-.25-.12s-.4.08-.6.11-.54,0-.66-.26a.6.6,0,0,1,.16-.7l.29-.25c.2-.16.22-.35,0-.51a2,2,0,0,1-.62-1.12,5.3,5.3,0,0,0-.94-1.81c-.4-.5-.79-1-1.2-1.49a8.55,8.55,0,0,1-1.69-3m12.39-1.53a5,5,0,0,0-2.15-4,5.42,5.42,0,0,0-2.84-1,4.64,4.64,0,0,0-3.27.73,10.4,10.4,0,0,0-1.29,1.19,4.85,4.85,0,0,0-.67,5.48A10.52,10.52,0,0,0,332,529.8a9.08,9.08,0,0,1,2.2,4c.1.4.06.56-.29.77-.08.05-.2,0-.28.1s-.09.15-.14.23.14.09.2.08c.69-.07,1.37-.14,2-.23.48-.07,1-.16,1.42-.26.06,0,.11-.09.16-.14s-.14-.15-.2-.15c-.25,0-.5,0-.4-.35a7,7,0,0,1,1.73-3.5,11.43,11.43,0,0,0,1.37-1.65A5.78,5.78,0,0,0,340.88,525.6Z"/></g></g></svg>