<?xml version="1.0" encoding="UTF-8"?>
<svg width="68px" height="69px" viewBox="0 0 68 69" version="1.1" xmlns="http://www.w3.org/2000/svg" xmlns:xlink="http://www.w3.org/1999/xlink">
    <!-- Generator: Sketch 52.5 (67469) - http://www.bohemiancoding.com/sketch -->
    <title>Torrealta</title>
    <desc>Created with Sketch.</desc>
    <g id="Page-1" stroke="none" stroke-width="1" fill="none" fill-rule="evenodd">
        <g id="Torrealta" transform="translate(0.000000, -1.000000)" fill="#FFFFFF" fill-rule="nonzero">
            <path d="M65.27,62.9 L50.27,32.08 C50.2177936,31.9738352 50.2245271,31.8481651 50.2877788,31.7481866 C50.3510305,31.6482081 50.4617055,31.5882969 50.58,31.59 L55.23,31.59 C55.4177768,31.59 55.57,31.4377768 55.57,31.25 L55.57,26 C55.57,25.9098264 55.5341787,25.8233461 55.4704163,25.7595837 C55.4066539,25.6958213 55.3201736,25.66 55.23,25.66 L47.3,25.66 C47.1686369,25.6618779 47.0479468,25.5879065 46.99,25.47 L35.51,1.92 C35.2243852,1.35373186 34.6442203,0.996571213 34.01,0.996571213 C33.3757797,0.996571213 32.7956148,1.35373186 32.51,1.92 L21,25.47 C20.9420532,25.5879065 20.8213631,25.6618779 20.69,25.66 L12.82,25.66 C12.7298264,25.66 12.6433461,25.6958213 12.5795837,25.7595837 C12.5158213,25.8233461 12.48,25.9098264 12.48,26 L12.48,31.24 C12.48,31.4277768 12.6322232,31.58 12.82,31.58 L17.47,31.58 C17.5882945,31.5782969 17.6989695,31.6382081 17.7622212,31.7381866 C17.8254729,31.8381651 17.8322064,31.9638352 17.78,32.07 L2.78,62.89 C2.72205321,63.0079065 2.60136305,63.0818779 2.47,63.08 L0.34,63.08 C0.152223185,63.08 0,63.2322232 0,63.42 L0,68.66 C0,68.8477768 0.152223185,69 0.34,69 L10.58,69 C10.7677768,69 10.92,68.8477768 10.92,68.66 L10.92,63.43 C10.92,63.2422232 10.7677768,63.09 10.58,63.09 L9.78,63.09 C9.66170553,63.0917031 9.55103051,63.0317919 9.4877788,62.9318134 C9.42452709,62.8318349 9.4177936,62.7061648 9.47,62.6 L22.16,36.66 C22.217231,36.5438239 22.3354922,36.4702498 22.465,36.4702498 C22.5945078,36.4702498 22.712769,36.5438239 22.77,36.66 L33.7,57.48 C33.7590899,57.5907936 33.8744339,57.66 34,57.66 C34.1255661,57.66 34.2409101,57.5907936 34.3,57.48 L45.23,36.65 C45.287231,36.5338239 45.4054922,36.4602498 45.535,36.4602498 C45.6645078,36.4602498 45.782769,36.5338239 45.84,36.65 L58.53,62.6 C58.5822064,62.7061648 58.5754729,62.8318349 58.5122212,62.9318134 C58.4489695,63.0317919 58.3382945,63.0917031 58.22,63.09 L57.42,63.09 C57.2322232,63.09 57.08,63.2422232 57.08,63.43 L57.08,68.67 C57.08,68.8577768 57.2322232,69.01 57.42,69.01 L67.66,69.01 C67.8477768,69.01 68,68.8577768 68,68.67 L68,63.43 C68,63.2422232 67.8477768,63.09 67.66,63.09 L65.58,63.09 C65.4486369,63.0918779 65.3279468,63.0179065 65.27,62.9 Z M33.7,44.74 L25.76,29.6 C25.7101515,29.5026785 25.7101515,29.3873215 25.76,29.29 L33.7,13.18 C33.757231,13.0638239 33.8754922,12.9902498 34.005,12.9902498 C34.1345078,12.9902498 34.252769,13.0638239 34.31,13.18 L42.24,29.3 C42.2898485,29.3973215 42.2898485,29.5126785 42.24,29.61 L34.3,44.74 C34.2409101,44.8507936 34.1255661,44.92 34,44.92 C33.8744339,44.92 33.7590899,44.8507936 33.7,44.74 Z" id="Shape"></path>
        </g>
    </g>
</svg>