<svg width="40" height="61" viewBox="0 0 40 61" fill="none" xmlns="http://www.w3.org/2000/svg">
<path d="M8.49931 55.5H10.5473L13.6033 47.82H11.5713L9.53931 53.42H9.50731L7.49131 47.82H5.39531L8.49931 55.5ZM13.5024 51.628C13.5024 54.044 15.3584 55.724 17.6784 55.724C19.9984 55.724 21.8544 54.044 21.8544 51.628C21.8544 49.212 19.9984 47.596 17.6784 47.596C15.3584 47.596 13.5024 49.212 13.5024 51.628ZM15.4544 51.628C15.4544 50.428 16.1584 49.164 17.6784 49.164C19.1984 49.164 19.9024 50.428 19.9024 51.628C19.9024 52.828 19.1984 54.124 17.6784 54.124C16.1584 54.124 15.4544 52.828 15.4544 51.628ZM25.0601 55.5L24.6761 56.476C24.3561 57.276 24.1321 57.676 23.3161 57.676C23.1081 57.676 22.8521 57.644 22.5961 57.564L22.4361 59.228C22.7721 59.308 23.1081 59.34 23.4281 59.34C25.1241 59.34 25.7961 58.54 26.3401 57.148L29.9721 47.82H27.9721L26.0681 53.404H26.0361L23.8921 47.82H21.7641L25.0601 55.5ZM32.8472 44.172H30.9272V51.948H32.8472V44.172ZM30.6072 54.38C30.6072 55.068 31.2152 55.596 31.8872 55.596C32.5912 55.596 33.1672 55.036 33.1672 54.348C33.1672 53.66 32.5752 53.132 31.8872 53.132C31.1832 53.132 30.6072 53.692 30.6072 54.38Z" fill="white"/>
<path d="M20 39.2087C14.6962 39.2087 9.89409 37.0584 6.41787 33.5822C2.94165 30.1065 0.791382 25.3044 0.791382 20C0.791382 14.6962 2.94165 9.89409 6.41787 6.41787C9.89409 2.94165 14.6962 0.791382 20 0.791382C23.7617 0.791382 27.2708 1.873 30.2335 3.74219L29.0395 5.21409C28.7173 5.61138 28.4773 6.033 28.3168 6.48598C28.2784 6.59354 28.2449 6.70273 28.2157 6.81246C25.8325 5.32436 23.0168 4.4649 20 4.4649C15.7103 4.4649 11.826 6.20381 9.01463 9.01463C6.20381 11.826 4.4649 15.7103 4.4649 20C4.4649 24.2903 6.20381 28.1741 9.01463 30.9854C11.826 33.7962 15.7103 35.5352 20 35.5352C24.2903 35.5352 28.1741 33.7962 30.9854 30.9854C33.7962 28.1741 35.5352 24.2903 35.5352 20C35.5352 16.9838 34.6757 14.1676 33.1876 11.7844C33.2973 11.7552 33.406 11.7217 33.5141 11.6833C33.9671 11.5227 34.3887 11.2827 34.786 10.9606L36.2579 9.76652C38.1271 12.7292 39.2087 16.2384 39.2087 20C39.2087 25.3044 37.0584 30.106 33.5822 33.5822C30.106 37.0584 25.3044 39.2087 20 39.2087Z" fill="white"/>
<path d="M20 25.4578C18.493 25.4578 17.1281 24.847 16.1405 23.8595C15.153 22.8714 14.5416 21.507 14.5416 20C14.5416 18.493 15.153 17.1287 16.1405 16.1405C17.1281 15.153 18.493 14.5416 20 14.5416C20.6005 14.5416 21.1784 14.6389 21.7189 14.8184L18.2687 18.2687C17.3124 19.2249 17.3124 20.7751 18.2687 21.7314C19.2249 22.6876 20.7751 22.6876 21.7314 21.7314L25.1816 18.2811C25.3611 18.8216 25.4578 19.3995 25.4578 20C25.4578 21.507 24.847 22.8714 23.8595 23.8595C22.8714 24.847 21.507 25.4578 20 25.4578Z" fill="white"/>
<path d="M19.9999 32.2443C16.6189 32.2443 13.5578 30.874 11.3421 28.6578C9.12589 26.4421 7.75562 23.381 7.75562 19.9999C7.75562 16.6189 9.12589 13.5578 11.3421 11.3421C13.5578 9.12589 16.6189 7.75562 19.9999 7.75562C22.4956 7.75562 24.8167 8.5021 26.7524 9.78426L24.3032 12.2335C23.0286 11.5259 21.561 11.1226 19.9999 11.1226C17.5486 11.1226 15.3291 12.1162 13.7226 13.7226C12.1162 15.3291 11.1226 17.5486 11.1226 19.9999C11.1226 22.4513 12.1162 24.6708 13.7226 26.2772C15.3291 27.8837 17.5486 28.8772 19.9999 28.8772C22.4513 28.8772 24.6707 27.8837 26.2772 26.2772C27.8837 24.6708 28.8772 22.4513 28.8772 19.9999C28.8772 18.4383 28.474 16.9713 27.7664 15.6967L30.2156 13.2475C31.4978 15.1832 32.2443 17.5043 32.2443 19.9999C32.2443 23.381 30.874 26.4421 28.6578 28.6578C26.4421 30.874 23.381 32.2443 19.9999 32.2443Z" fill="white"/>
<path fill-rule="evenodd" clip-rule="evenodd" d="M34.5481 1.62592V4.83944C34.5481 5.17674 34.8233 5.45187 35.1606 5.45187H38.3741C38.4941 5.45187 38.5957 5.52376 38.6357 5.63619C38.6752 5.74863 38.6417 5.86863 38.5487 5.94376L33.8233 9.77674C33.3092 10.194 32.74 10.3957 32.0773 10.3957H31.9081H31.1195L20.7573 20.7573C20.3395 21.1757 19.6606 21.1757 19.2427 20.7573C18.8244 20.3394 18.8244 19.6605 19.2427 19.2427L29.6044 8.88052V8.09187V7.92268C29.6044 7.25998 29.806 6.69079 30.2233 6.17674L34.0563 1.45133C34.1314 1.35836 34.2509 1.32484 34.3638 1.3643C34.4763 1.4043 34.5481 1.50592 34.5481 1.62592Z" fill="white"/>
<g style="mix-blend-mode:multiply" opacity="0.1">
<path fill-rule="evenodd" clip-rule="evenodd" d="M32.3702 34.6968C32.7859 34.346 33.1908 33.9746 33.5827 33.5827C33.9784 33.187 34.3529 32.7778 34.707 32.3578L22.9059 20.5568L21.7313 21.7314C21.2838 22.1795 20.7054 22.4173 20.1189 22.4454L32.3702 34.6968Z" fill="#6699FF"/>
</g>
</svg>
