<?xml version="1.0" encoding="UTF-8"?>
<svg width="101px" height="32px" viewBox="0 0 101 32" version="1.1" xmlns="http://www.w3.org/2000/svg" xmlns:xlink="http://www.w3.org/1999/xlink">
    <!-- Generator: Sketch 52.5 (67469) - http://www.bohemiancoding.com/sketch -->
    <title>allic</title>
    <desc>Created with Sketch.</desc>
    <g id="Page-1" stroke="none" stroke-width="1" fill="none" fill-rule="evenodd">
        <g id="Artboard" transform="translate(-22.000000, -41.000000)">
            <g id="allic" transform="translate(22.000000, 41.000000)">
                <path d="M26.24,10.47 L26.24,14.42 C26.24,14.8507821 26.5892179,15.2 27.02,15.2 L27.84,15.2 C28.2707821,15.2 28.62,14.8507821 28.62,14.42 L28.62,10.49 L33.55,1.49 C33.684659,1.24861546 33.6815127,0.953991657 33.5417295,0.715537905 C33.4019462,0.477084153 33.1464044,0.330416365 32.87,0.33 L32,0.33 C31.7155254,0.332434156 31.4549376,0.489553247 31.32,0.74 L27.44,7.81 L23.55,0.74 C23.412441,0.493415444 23.1523584,0.340425692 22.87,0.34 L22,0.34 C21.7235956,0.340416365 21.4680538,0.487084153 21.3282705,0.725537905 C21.1884873,0.963991657 21.185341,1.25861546 21.32,1.5 L26.24,10.47 Z" id="Path" fill="#FFFFFF"></path>
                <path d="M58.75,1.12 C58.75,0.689217895 58.4007821,0.34 57.97,0.34 L57.17,0.34 C56.7392179,0.34 56.39,0.689217895 56.39,1.12 L56.39,9.94 C56.39,11.94 55.33,13.09 53.47,13.09 C51.61,13.09 50.57,11.97 50.57,9.94 L50.57,1.12 C50.57,0.689217895 50.2207821,0.34 49.79,0.34 L49,0.34 C48.5692179,0.34 48.22,0.689217895 48.22,1.12 L48.22,10 C48.1143408,11.4337028 48.6308963,12.8435178 49.6378101,13.8695745 C50.6447238,14.8956311 52.0445618,15.4386428 53.48,15.36 C54.9171264,15.4416349 56.3197182,14.8999425 57.3289044,13.8735216 C58.3380905,12.8471008 58.8559566,11.4355381 58.75,10 L58.75,1.12 Z" id="Path" fill="#FFFFFF"></path>
                <path d="M61.87,15.2 L62.61,15.2 C63.0407821,15.2 63.39,14.8507821 63.39,14.42 L63.39,5.12 L71.05,15.05 C71.1989317,15.2407729 71.4279827,15.351604 71.67,15.35 L71.9,15.35 C72.3307821,15.35 72.68,15.0007821 72.68,14.57 L72.68,1.12 C72.68,0.689217895 72.3307821,0.34 71.9,0.34 L71.16,0.34 C70.7292179,0.34 70.38,0.689217895 70.38,1.12 L70.38,10.42 L62.72,0.49 C62.5710683,0.299227118 62.3420173,0.188395955 62.1,0.19 L61.87,0.19 C61.4392179,0.19 61.09,0.539217895 61.09,0.97 L61.09,14.42 C61.09,14.8507821 61.4392179,15.2 61.87,15.2 Z" id="Path" fill="#FFFFFF"></path>
                <path d="M81.88,15.36 C84.0610251,15.4665251 86.1890648,14.6667006 87.76,13.15 C87.9101434,13.006007 87.9965453,12.8080026 88,12.6 L88,8.49 C88,8.28313114 87.9178217,8.08473509 87.7715433,7.93845671 C87.6252649,7.79217834 87.4268689,7.71 87.22,7.71 L82.14,7.71 C81.7092179,7.71 81.36,8.0592179 81.36,8.49 L81.36,9.19 C81.36,9.6207821 81.7092179,9.97 82.14,9.97 L85.64,9.97 L85.64,11.97 C84.5559471,12.7728559 83.2273813,13.1756658 81.88,13.11 C78.9501294,13.11 76.575,10.7348706 76.575,7.805 C76.575,4.8751294 78.9501294,2.5 81.88,2.5 C83.1539519,2.41763732 84.4044683,2.87072298 85.33,3.75 C85.4764115,3.90260966 85.6785161,3.98922594 85.89,3.99 C86.1014839,3.98922594 86.3035885,3.90260966 86.45,3.75 L86.98,3.2 C87.2695335,2.89821502 87.2695335,2.42178498 86.98,2.12 C85.6107079,0.809450374 83.7631986,0.118894046 81.87,0.21 C77.6781587,0.21 74.28,3.60815875 74.28,7.8 C74.28,11.9918413 77.6781587,15.39 81.87,15.39 L81.88,15.36 Z" id="Path" fill="#FFFFFF"></path>
                <path d="M10,16.42 L0.78,16.42 C0.349217895,16.42 5.27555926e-17,16.7692179 0,17.2 L0,17.9 C5.27555926e-17,18.3307821 0.349217895,18.68 0.78,18.68 L4.23,18.68 L4.23,30.5 C4.23,30.9307821 4.5792179,31.28 5.01,31.28 L5.81,31.28 C6.2407821,31.28 6.59,30.9307821 6.59,30.5 L6.59,18.68 L10,18.68 C10.4307821,18.68 10.78,18.3307821 10.78,17.9 L10.78,17.2 C10.78,16.7692179 10.4307821,16.42 10,16.42 Z" id="Path" fill="#FFFFFF"></path>
                <path d="M19,26.74 C20.604612,25.7336095 21.5442307,23.9422227 21.46,22.05 C21.46,18.63 19.07,16.42 15.38,16.42 L12.7,16.42 C12.2692179,16.42 11.92,16.7692179 11.92,17.2 L11.92,30.5 C11.92,30.9307821 12.2692179,31.28 12.7,31.28 L13.5,31.28 C13.9307821,31.28 14.28,30.9307821 14.28,30.5 L14.28,27.66 L15.38,27.66 C15.8252419,27.6608273 16.2698876,27.6273953 16.71,27.56 L19.19,31 C19.336872,31.2011254 19.5709562,31.3200253 19.82,31.32 L20.82,31.32 C21.1374931,31.3312495 21.4300855,31.1488165 21.5597239,30.8587781 C21.6893623,30.5687396 21.6301401,30.2290563 21.41,30 L19,26.74 Z M14.28,25.4 L14.28,18.68 L15.28,18.68 C18.4,18.68 19.06,20.51 19.06,22.05 C19.06,24.82 17.01,25.4 15.28,25.4 L14.28,25.4 Z" id="Shape" fill="#FFFFFF" fill-rule="nonzero"></path>
                <path d="M29.18,16.74 C29.0558126,16.453254 28.7724786,16.2682999 28.46,16.27 L28.23,16.27 C27.9090239,16.2675698 27.6193315,16.4620209 27.5,16.76 L22.12,30.21 C22.0233498,30.4512991 22.0532531,30.7248886 22.1997467,30.939612 C22.3462403,31.1543355 22.5900719,31.281974 22.85,31.28 L23.65,31.28 C23.9709761,31.2824302 24.2606685,31.0879791 24.38,30.79 L25.2,28.7 L31.83,28.7 L32.65,30.79 C32.7693315,31.0879791 33.0590239,31.2824302 33.38,31.28 L34.2,31.28 C34.4634737,31.2814369 34.7098654,31.1497633 34.8550843,30.929918 C35.0003031,30.7100728 35.0247194,30.4317733 34.92,30.19 L29.18,16.74 Z M26.09,26.44 L28.36,20.72 L30.87,26.44 L26.09,26.44 Z" id="Shape" fill="#FFFFFF" fill-rule="nonzero"></path>
                <path d="M39.19,4.77 C37.162964,4.72300121 35.2049901,5.50755794 33.771274,6.94127403 C32.3375579,8.37499013 31.5530012,10.332964 31.6,12.36 C31.5917454,13.4602652 31.8131285,14.5501511 32.25,15.56 L32.25,15.64 L38.35,26.07 C38.4883467,26.3096394 38.7432997,26.4580449 39.02,26.46 L39.27,26.46 C39.5467003,26.4580449 39.8016533,26.3096394 39.94,26.07 L46.03,15.66 L46.03,15.58 C46.4787153,14.5626614 46.7070511,13.4618783 46.7,12.35 C46.7435319,10.3388103 45.968597,8.3961376 44.5527518,6.96709547 C43.1369067,5.53805334 41.201507,4.74512874 39.19,4.77 Z M39.19,7.06 C40.5987186,7.02259368 41.9596773,7.57203654 42.9475737,8.57699831 C43.9354701,9.58196007 44.4615255,10.9521286 44.4,12.36 C44.4067466,13.1437058 44.2500823,13.9202158 43.94,14.64 L39.2,22.24 L34.7,15.16 C34.2251509,14.3042059 33.9837422,13.3385708 34,12.36 C33.9387664,10.9556869 34.4621411,9.58877287 35.4456072,8.58446256 C36.4290734,7.58015225 37.7847116,7.02822837 39.19,7.06 Z" id="Shape" fill="#FFFFFF" fill-rule="nonzero"></path>
                <path d="M55.81,29 L49.35,29 L49.35,26.51 L54.81,26.51 C55.0168689,26.51 55.2152649,26.4278217 55.3615433,26.2815433 C55.5078217,26.1352649 55.59,25.9368689 55.59,25.73 L55.59,25 C55.59,24.7931311 55.5078217,24.5947351 55.3615433,24.4484567 C55.2152649,24.3021783 55.0168689,24.22 54.81,24.22 L49.35,24.22 L49.35,18.68 L55.53,18.68 C55.9607821,18.68 56.31,18.3307821 56.31,17.9 L56.31,17.2 C56.31,16.7692179 55.9607821,16.42 55.53,16.42 L47.77,16.42 C47.5631311,16.42 47.3647351,16.5021783 47.2184567,16.6484567 C47.0721783,16.7947351 46.99,16.9931311 46.99,17.2 L46.99,30.5 C46.99,30.9307821 47.3392179,31.28 47.77,31.28 L55.77,31.28 C56.2007821,31.28 56.55,30.9307821 56.55,30.5 L56.55,29.8 C56.5614081,29.3766641 56.2329403,29.0215637 55.81,29 Z" id="Path" fill="#FFFFFF"></path>
                <path d="M66.18,29 L60.56,29 L60.56,17.2 C60.56,16.7692179 60.2107821,16.42 59.78,16.42 L59,16.42 C58.5692179,16.42 58.22,16.7692179 58.22,17.2 L58.22,30.5 C58.22,30.9307821 58.5692179,31.28 59,31.28 L66.2,31.28 C66.410312,31.2853944 66.6138852,31.2056037 66.7645181,31.0587366 C66.9151511,30.9118694 67.0000692,30.7103812 67,30.5 L67,29.8 C67.0058677,29.5825604 66.9206725,29.3725477 66.7649765,29.2206491 C66.6092804,29.0687506 66.3972285,28.988766 66.18,29 Z" id="Path" fill="#FFFFFF"></path>
                <path d="M76.68,29 L71.06,29 L71.06,17.2 C71.06,16.7692179 70.7107821,16.42 70.28,16.42 L69.48,16.42 C69.2731311,16.42 69.0747351,16.5021783 68.9284567,16.6484567 C68.7821783,16.7947351 68.7,16.9931311 68.7,17.2 L68.7,30.5 C68.7,30.9307821 69.0492179,31.28 69.48,31.28 L76.68,31.28 C77.1107821,31.28 77.46,30.9307821 77.46,30.5 L77.46,29.8 C77.4653944,29.589688 77.3856037,29.3861148 77.2387366,29.2354819 C77.0918694,29.0848489 76.8903812,28.9999308 76.68,29 Z" id="Path" fill="#FFFFFF"></path>
                <path d="M88,29 L81.51,29 L81.51,26.51 L87,26.51 C87.4307821,26.51 87.78,26.1607821 87.78,25.73 L87.78,25 C87.78,24.5692179 87.4307821,24.22 87,24.22 L81.51,24.22 L81.51,18.68 L87.7,18.68 C88.1307821,18.68 88.48,18.3307821 88.48,17.9 L88.48,17.2 C88.48,16.7692179 88.1307821,16.42 87.7,16.42 L79.93,16.42 C79.4992179,16.42 79.15,16.7692179 79.15,17.2 L79.15,30.5 C79.15,30.9307821 79.4992179,31.28 79.93,31.28 L87.93,31.28 C88.3607821,31.28 88.71,30.9307821 88.71,30.5 L88.71,29.8 C88.7222305,29.3874987 88.4110336,29.0368543 88,29 Z" id="Path" fill="#FFFFFF"></path>
                <path d="M99.85,30 L97.44,26.7 C99.044612,25.6936095 99.9842307,23.9022227 99.9,22.01 C99.9,18.59 97.51,16.38 93.82,16.38 L91.14,16.38 C90.7092179,16.38 90.36,16.7292179 90.36,17.16 L90.36,30.5 C90.36,30.9307821 90.7092179,31.28 91.14,31.28 L91.94,31.28 C92.3707821,31.28 92.72,30.9307821 92.72,30.5 L92.72,27.66 L93.82,27.66 C94.2652419,27.6608273 94.7098876,27.6273953 95.15,27.56 L97.63,31 C97.776872,31.2011254 98.0109562,31.3200253 98.26,31.32 L99.26,31.32 C99.5774931,31.3312495 99.8700855,31.1488165 99.9997239,30.8587781 C100.129362,30.5687396 100.07014,30.2290563 99.85,30 Z M92.72,18.68 L93.72,18.68 C96.84,18.68 97.5,20.51 97.5,22.05 C97.5,24.82 95.45,25.4 93.72,25.4 L92.72,25.4 L92.72,18.68 Z" id="Shape" fill="#FFFFFF" fill-rule="nonzero"></path>
                <path d="M39.19,14.36 C40.3857924,14.3489784 41.3472901,13.3726102 41.3399592,12.1767895 C41.3326284,10.9809687 40.3592324,10.0164622 39.1633947,10.0201022 C37.967557,10.0237423 37.0000508,10.9941568 37,12.19 C36.9859169,12.7732248 37.2127976,13.3364776 37.627208,13.7471035 C38.0416184,14.1577293 38.6069289,14.379433 39.19,14.36 Z" id="Path" fill="#FFFFFF"></path>
                <ellipse id="Oval" fill="#000002" opacity="0.21" cx="39.19" cy="31.16" rx="2.32" ry="1"></ellipse>
            </g>
        </g>
    </g>
</svg>