<?xml version="1.0" encoding="UTF-8"?>
<svg width="103px" height="96px" viewBox="0 0 103 96" version="1.1" xmlns="http://www.w3.org/2000/svg" xmlns:xlink="http://www.w3.org/1999/xlink">
    <!-- Generator: Sketch 52.5 (67469) - http://www.bohemiancoding.com/sketch -->
    <title>blanco 2</title>
    <desc>Created with Sketch.</desc>
    <defs>
        <polygon id="path-1" points="0 0.373584 101.996064 0.373584 101.996064 14.399664 0 14.399664"></polygon>
        <path d="M26.0928,-79.89456 L24.71808,-57.08112 L29.48256,-56.89776 C31.48272,-63.64704 34.10928,-68.3352 37.36176,-70.97712 C40.61424,-73.61856 45.53136,-74.9472 52.128,-74.9472 L59.50416,-74.9472 L32.42736,-43.63392 L44.196,-43.72944 L27.88992,-21.8544 L70.28928,-51.54528 L58.68432,-51.54528 L78.22464,-75.19152 L78.22464,-79.89456 L26.0928,-79.89456 Z M73.644,-38.84832 C71.46,-31.25904 68.78784,-26.00592 65.5968,-23.07408 C62.4048,-20.1576 57.71712,-18.69168 51.54816,-18.69168 L46.39296,-18.69168 L23.58768,-18.5184 L23.58768,-13.74384 L76.78992,-13.74384 L78.408,-38.84832 L73.644,-38.84832 Z" id="path-3"></path>
    </defs>
    <g id="Page-1" stroke="none" stroke-width="1" fill="none" fill-rule="evenodd">
        <g id="blanco-2">
            <g id="blanco">
                <g id="Group-3" transform="translate(0.520000, 80.680000)">
                    <g id="Fill-1-Clipped">
                        <g id="Group">
                            <mask id="mask-2" fill="white">
                                <use xlink:href="#path-1"></use>
                            </mask>
                            <g id="path-1"></g>
                            <path d="M2.357184,13.406064 L6.008544,13.406064 C6.460704,13.406064 6.795744,13.364304 7.013184,13.281744 C7.233984,13.195824 7.413504,13.064304 7.555104,12.888144 C7.696704,12.709104 7.824384,12.456624 7.938144,12.132624 C8.051904,11.811504 8.190144,11.307504 8.352384,10.627824 L9.343104,10.627824 L9.343104,14.337744 L-9.6e-05,14.337744 L-9.6e-05,13.840944 L6.927264,1.467504 L3.257664,1.467504 C2.996064,1.467504 2.788704,1.488144 2.637024,1.533264 C2.484864,1.575024 2.347104,1.643664 2.226144,1.733424 C2.105184,1.826544 1.984704,1.957584 1.867104,2.133744 C1.749984,2.309904 1.632384,2.547984 1.511424,2.855184 C1.394304,3.162384 1.273344,3.545424 1.142304,4.004304 L0.151584,4.004304 L0.151584,0.535824 L9.273984,0.535824 L9.273984,1.022544 L2.357184,13.406064 Z M23.501184,14.337744 L23.501184,13.840944 C23.839584,13.775664 24.087744,13.699344 24.253824,13.620144 C24.419424,13.540464 24.543744,13.426704 24.622944,13.281744 C24.705984,13.136784 24.743904,12.943344 24.743904,12.698544 C24.743904,12.471024 24.719424,12.222384 24.664704,11.955984 C24.609024,11.691024 24.533184,11.390544 24.433344,11.062704 L24.057024,9.757584 L19.345824,9.757584 L19.000704,10.748784 C18.827904,11.245584 18.710784,11.625264 18.658944,11.880144 C18.603744,12.135984 18.576384,12.370704 18.576384,12.577584 C18.576384,12.981264 18.679584,13.278384 18.886944,13.468464 C19.090464,13.657584 19.407744,13.782384 19.832544,13.840944 L19.832544,14.337744 L15.514944,14.337744 L15.514944,13.840944 C15.890784,13.782384 16.218624,13.561104 16.497984,13.185264 C16.777824,12.808944 17.050464,12.267024 17.313024,11.566224 L21.530304,0.373584 L23.128224,0.373584 L26.565984,11.649264 C26.728224,12.174384 26.869824,12.574704 26.994144,12.850704 C27.118464,13.126704 27.270144,13.343664 27.446304,13.499184 C27.618624,13.654704 27.860544,13.768464 28.163904,13.840944 L28.163904,14.337744 L23.501184,14.337744 Z M19.618464,8.877744 L23.846304,8.877744 L21.923904,2.355024 L19.618464,8.877744 Z M42.964704,8.867664 C43.206144,9.271344 43.409664,9.627024 43.575744,9.930384 C43.740864,10.234224 43.909824,10.572624 44.086464,10.952304 L44.217024,10.952304 C44.186304,10.537584 44.155104,9.723504 44.127264,8.498064 C44.099904,7.275984 44.086464,6.171984 44.086464,5.188464 L44.086464,3.062064 C44.086464,2.599824 44.072064,2.257584 44.048064,2.040624 C44.020704,1.826544 43.972224,1.660944 43.899744,1.547184 C43.830624,1.433424 43.730784,1.339824 43.606464,1.267344 C43.482144,1.198224 43.264704,1.119024 42.954144,1.033104 L42.954144,0.535824 L46.595424,0.535824 L46.595424,1.033104 C46.291584,1.112304 46.077504,1.184784 45.953184,1.253904 C45.829344,1.322544 45.725664,1.408944 45.649824,1.515984 C45.570144,1.623024 45.511584,1.785264 45.473664,2.002224 C45.431904,2.216304 45.411744,2.571984 45.411744,3.062064 L45.411744,14.399664 L44.148384,14.399664 L38.515584,4.953744 C38.163264,4.366704 37.915104,3.938544 37.766784,3.669744 C37.617984,3.400464 37.480224,3.135024 37.352544,2.872464 L37.179744,2.872464 C37.228224,3.390384 37.262784,4.328784 37.283424,5.688624 C37.300704,7.045104 37.310784,8.397744 37.310784,9.747504 L37.310784,11.811504 C37.310784,12.259824 37.328064,12.591504 37.359264,12.801744 C37.387104,13.009584 37.438944,13.175184 37.510944,13.295664 C37.580064,13.416144 37.683744,13.519824 37.821984,13.599024 C37.959744,13.682064 38.184384,13.761264 38.494944,13.840944 L38.494944,14.337744 L34.805184,14.337744 L34.805184,13.840944 C35.223264,13.733904 35.502624,13.616304 35.644224,13.481904 C35.785344,13.350864 35.878464,13.164624 35.923584,12.922704 C35.965344,12.681264 35.988864,12.308304 35.988864,11.811504 L35.988864,3.062064 C35.988864,2.599824 35.971584,2.257584 35.937504,2.047344 C35.902944,1.833744 35.847744,1.671504 35.771904,1.550544 C35.692224,1.433424 35.588544,1.339824 35.460864,1.267344 C35.333184,1.198224 35.116224,1.119024 34.805184,1.033104 L34.805184,0.535824 L37.970304,0.535824 L42.964704,8.867664 Z M54.199584,14.337744 L54.199584,13.840944 C54.506784,13.761264 54.730944,13.685424 54.865824,13.609584 C55.000224,13.537104 55.103904,13.440624 55.179744,13.326864 C55.252224,13.213104 55.307424,13.047024 55.341984,12.829584 C55.372704,12.615984 55.389984,12.274224 55.389984,11.811504 L55.389984,3.062064 C55.389984,2.593104 55.372704,2.251344 55.341984,2.036784 C55.307424,1.826544 55.252224,1.660944 55.173024,1.547184 C55.096704,1.433424 54.993024,1.339824 54.865824,1.267344 C54.738144,1.198224 54.513504,1.119024 54.199584,1.033104 L54.199584,0.535824 L58.627584,0.535824 C59.901504,0.535824 60.943584,0.676944 61.758144,0.956784 C62.568864,1.236144 63.256224,1.647024 63.814944,2.192784 C64.374144,2.740944 64.791744,3.417264 65.067744,4.232304 C65.344224,5.043024 65.482464,6.013584 65.482464,7.138224 C65.482464,8.277264 65.354304,9.281424 65.091744,10.147824 C64.833024,11.014704 64.453824,11.739024 63.956544,12.326064 C63.525504,12.836304 62.993664,13.257264 62.368704,13.588944 C61.847904,13.858224 61.250784,14.051664 60.567264,14.165424 C59.887584,14.279184 58.983264,14.337744 57.858144,14.337744 L54.199584,14.337744 Z M57.281664,13.398864 C57.550464,13.423344 57.947424,13.436784 58.475904,13.436784 C59.041824,13.436784 59.545824,13.392624 59.990784,13.295664 C60.436224,13.202064 60.840384,13.054224 61.206144,12.850704 C61.568064,12.650544 61.896384,12.367344 62.186304,12.008304 C62.476224,11.645904 62.710464,11.231664 62.893824,10.762224 C63.076224,10.296144 63.207744,9.775344 63.294144,9.202224 C63.376704,8.629584 63.418464,8.000784 63.418464,7.321104 C63.418464,5.951184 63.221664,4.829424 62.827584,3.949104 C62.434464,3.069264 61.879104,2.427024 61.161024,2.023344 C60.443424,1.616304 59.584224,1.416144 58.586784,1.416144 C58.127424,1.416144 57.692544,1.429584 57.281664,1.456944 L57.281664,13.398864 Z M82.632864,0.535824 L82.632864,3.590064 L81.642624,3.590064 C81.538944,3.258864 81.435264,2.968944 81.328224,2.720304 C81.221184,2.468784 81.107424,2.261424 80.993184,2.092464 C80.879424,1.923024 80.751744,1.788624 80.613984,1.688304 C80.475744,1.588464 80.313504,1.519344 80.123904,1.481424 C79.937184,1.443504 79.709184,1.426224 79.447104,1.426224 L76.250784,1.426224 L76.250784,6.723984 L78.415104,6.723984 C78.712224,6.723984 78.943584,6.682704 79.112544,6.596304 C79.281504,6.513744 79.423104,6.368784 79.533504,6.168624 C79.643904,5.965104 79.750944,5.647344 79.850784,5.216304 L80.803584,5.216304 L80.803584,9.098544 L79.850784,9.098544 C79.758144,8.694864 79.650624,8.391504 79.536864,8.184144 C79.423104,7.980144 79.288224,7.832304 79.129344,7.745904 C78.970944,7.656144 78.732864,7.614864 78.415104,7.614864 L76.250784,7.614864 L76.250784,13.447344 L79.395264,13.447344 C79.726944,13.447344 79.996224,13.419984 80.199744,13.360944 C80.407104,13.305744 80.582784,13.205904 80.731104,13.068144 C80.879424,12.929904 81.010464,12.750384 81.124704,12.529584 C81.238464,12.304944 81.334944,12.074064 81.414624,11.835984 C81.490464,11.597424 81.597504,11.245584 81.731904,10.790064 L82.733184,10.790064 L82.539744,14.337744 L73.175904,14.337744 L73.175904,13.840944 C73.597344,13.733904 73.876704,13.616304 74.018304,13.481904 C74.159904,13.350864 74.253024,13.164624 74.294304,12.922704 C74.338944,12.681264 74.360064,12.308304 74.360064,11.811504 L74.360064,3.062064 C74.360064,2.599824 74.342784,2.257584 74.311584,2.047344 C74.277024,1.833744 74.221824,1.671504 74.142624,1.550544 C74.066784,1.433424 73.963104,1.339824 73.834944,1.267344 C73.707264,1.198224 73.486944,1.119024 73.175904,1.033104 L73.175904,0.535824 L82.632864,0.535824 Z M93.440064,8.343024 L93.440064,11.780304 C93.440064,12.263664 93.457344,12.615984 93.495264,12.836304 C93.533184,13.054224 93.588384,13.219824 93.664704,13.330224 C93.736704,13.443984 93.837024,13.534224 93.964704,13.606224 C94.092384,13.675344 94.313184,13.755024 94.624224,13.840944 L94.624224,14.337744 L90.354144,14.337744 L90.354144,13.840944 C90.775584,13.733904 91.054944,13.616304 91.196544,13.481904 C91.338144,13.350864 91.431264,13.164624 91.472544,12.922704 C91.517664,12.681264 91.538304,12.308304 91.538304,11.811504 L91.538304,3.062064 C91.538304,2.599824 91.521024,2.257584 91.489824,2.047344 C91.455264,1.833744 91.400064,1.671504 91.320864,1.550544 C91.245024,1.433424 91.141344,1.339824 91.013664,1.267344 C90.885984,1.198224 90.665184,1.119024 90.354144,1.033104 L90.354144,0.535824 L95.362944,0.535824 C96.939744,0.535824 98.120064,0.822384 98.900064,1.395504 C99.683904,1.968144 100.073664,2.858544 100.073664,4.062864 C100.073664,4.988304 99.818304,5.775024 99.310464,6.420144 C98.800224,7.069584 98.037504,7.573584 97.018944,7.938864 L97.018944,8.018544 C97.429824,8.187504 97.782144,8.429424 98.075424,8.739504 C98.368704,9.053904 98.696544,9.540144 99.051744,10.203024 L99.963264,11.859984 C100.225824,12.346224 100.449504,12.715824 100.639584,12.975024 C100.829184,13.230384 101.019264,13.423344 101.216064,13.557744 C101.412864,13.692624 101.671584,13.789104 101.996064,13.840944 L101.996064,14.337744 L99.193344,14.337744 C98.937984,13.978704 98.693184,13.596144 98.465664,13.185264 C98.237664,12.774864 98.009664,12.356304 97.788864,11.932464 L96.898464,10.240944 C96.629184,9.730224 96.408384,9.354384 96.235584,9.109104 C96.063264,8.867664 95.904384,8.698224 95.759424,8.597904 C95.614464,8.501424 95.462784,8.436144 95.296704,8.397744 C95.131104,8.359824 94.882944,8.343024 94.551264,8.343024 L93.440064,8.343024 Z M93.440064,1.467504 L93.440064,7.473264 L94.582464,7.473264 C95.169024,7.473264 95.645664,7.431984 96.007584,7.345584 C96.373824,7.262064 96.708384,7.099824 97.018944,6.865584 C97.329504,6.630864 97.578624,6.299664 97.764864,5.878224 C97.947264,5.457264 98.040864,4.939344 98.040864,4.328784 C98.040864,3.687024 97.929984,3.155664 97.712544,2.730864 C97.491744,2.306064 97.161024,1.982064 96.715584,1.757424 C96.270144,1.536624 95.673024,1.426224 94.917024,1.426224 C94.309824,1.426224 93.816384,1.439664 93.440064,1.467504 Z" id="Fill-1" fill="#FFFFFF" fill-rule="nonzero" mask="url(#mask-2)"></path>
                            <mask id="mask-4" fill="white">
                                <use xlink:href="#path-3"></use>
                            </mask>
                            <g id="path-3"></g>
                            <path d="M26.0928,-79.89456 L24.71808,-57.08112 L29.48256,-56.89776 C31.48272,-63.64704 34.10928,-68.3352 37.36176,-70.97712 C40.61424,-73.61856 45.53136,-74.9472 52.128,-74.9472 L59.50416,-74.9472 L32.42736,-43.63392 L44.196,-43.72944 L27.88992,-21.8544 L70.28928,-51.54528 L58.68432,-51.54528 L78.22464,-75.19152 L78.22464,-79.89456 L26.0928,-79.89456 Z M73.644,-38.84832 C71.46,-31.25904 68.78784,-26.00592 65.5968,-23.07408 C62.4048,-20.1576 57.71712,-18.69168 51.54816,-18.69168 L46.39296,-18.69168 L23.58768,-18.5184 L23.58768,-13.74384 L76.78992,-13.74384 L78.408,-38.84832 L73.644,-38.84832 Z" id="Fill-4" fill="#FFFFFF" fill-rule="nonzero" mask="url(#mask-4)"></path>
                        </g>
                    </g>
                </g>
                <g id="Group-6" transform="translate(24.040000, 0.520000)">
                    <g id="Fill-4-Clipped"></g>
                </g>
            </g>
        </g>
    </g>
</svg>