<?xml version="1.0" encoding="UTF-8"?>
<svg width="233px" height="129px" viewBox="0 0 233 129" version="1.1" xmlns="http://www.w3.org/2000/svg" xmlns:xlink="http://www.w3.org/1999/xlink">
    <!-- Generator: Sketch 59.1 (86144) - https://sketch.com -->
    <title>Ilustración / UX</title>
    <desc>Created with Sketch.</desc>
    <defs>
        <polygon id="path-1" points="0.185770084 0.193741508 223.553823 0.193741508 223.553823 124.505226 0.185770084 124.505226"></polygon>
        <polygon id="path-3" points="0.313171462 0.266989547 9.87103689 0.266989547 9.87103689 8.21415366 0.313171462 8.21415366"></polygon>
        <polygon id="path-5" points="0 0.0692195122 16.0190473 0.0692195122 16.0190473 13.3876829 0 13.3876829"></polygon>
        <path d="M18.7621763,0.713320557 C18.6735174,0.768156794 18.6075638,0.823442509 18.5410696,0.897156794 L18.5410696,0.897156794 C18.5183643,0.934013937 18.4967401,0.952442509 18.4745754,0.989299652 L18.4745754,0.989299652 L18.4745754,1.00727875 C18.4524107,1.04413589 18.4302459,1.08099303 18.4080812,1.11785017 L18.4080812,1.11785017 C18.3859165,1.15470732 18.3859165,1.20999303 18.3642923,1.24685017 L18.3642923,1.24685017 L18.3642923,1.28325784 L18.3642923,1.3754007 L18.3642923,1.43023693 L18.3642923,1.52282927 L18.3642923,1.55923693 C18.3859165,1.72509408 18.4080812,1.89050174 18.4080812,2.05635889 L18.4080812,2.05635889 C18.4080812,2.12962369 18.4080812,2.22176655 18.3859165,2.29503136 L18.3859165,2.29503136 C18.3194223,2.51572474 18.1869745,2.71798955 18.0101972,2.88384669 L18.0101972,2.88384669 L17.9658677,2.93868293 L17.8999142,3.03127526 L17.8328794,3.10454007 L17.7885499,3.17825436 C17.7669258,3.21466202 17.7442204,3.23354007 17.7225963,3.27039721 L17.7225963,3.27039721 L17.6782668,3.32523345 C17.6561021,3.38051916 17.6339374,3.43580488 17.6117726,3.49064111 L17.6117726,3.49064111 C17.5674432,3.65649826 17.5674432,3.82190592 17.6117726,3.96933449 L17.6117726,3.96933449 C17.6782668,4.1715993 17.7669258,4.37386411 17.9215383,4.55770035 L17.9215383,4.55770035 C17.9658677,4.63141463 18.0323619,4.70512892 18.0988561,4.77884321 L18.0988561,4.77884321 C18.1648097,4.85255749 18.2091392,4.88896516 18.2534687,4.94425087 L18.2534687,4.94425087 C18.2313039,5.10965854 18.2091392,5.29349477 18.2091392,5.45935192 L18.2091392,5.45935192 C18.2091392,6.61810453 18.8508353,7.72202091 19.9574501,8.43938676 L19.9574501,8.43938676 C20.0450278,9.21203833 20.0234037,10.0031185 19.9347448,10.77577 L19.9347448,10.77577 C19.9131206,10.9411777 19.8904153,11.1065854 19.8687912,11.2540139 L19.8687912,11.2540139 C19.8460858,11.4014425 19.8244617,11.529993 19.8017564,11.6585436 L19.8017564,11.6585436 C19.4703666,11.6954007 19.1384362,11.6769721 18.8286705,11.6037073 L18.8286705,11.6037073 C18.6735174,11.5479721 18.5410696,11.5115645 18.3859165,11.4562787 L18.3859165,11.4562787 C18.0739884,11.3938014 17.7566543,11.4877422 17.4387796,11.5821324 L17.4387796,11.5821324 C17.1036056,11.6810174 16.7684316,11.7803519 16.4392042,11.6954007 L16.4392042,11.6954007 C16.4392042,11.7138293 16.4170394,11.7502369 16.4170394,11.769115 L16.4170394,11.769115 C16.284051,11.6954007 16.1288979,11.6585436 15.9742854,11.6585436 L15.9742854,11.6585436 C15.5980255,11.6405645 15.2882599,11.4194216 15.0233643,11.1991777 L15.0233643,11.1991777 L14.1821856,10.5361986 C14.116232,10.4997909 14.0713619,10.4445052 14.0270325,10.4076481 L14.0270325,10.4076481 C13.9832436,10.3339338 13.9389142,10.260669 13.9167494,10.1869547 L13.9167494,10.1869547 C13.7394316,9.81928223 13.4523712,9.48801742 13.0982761,9.21203833 L13.0982761,9.21203833 C13.0317819,9.13832404 12.943123,9.1014669 12.854464,9.06460976 L12.854464,9.06460976 L12.744181,9.06460976 C12.7220162,9.04663066 12.6998515,9.00977352 12.6776868,8.99134495 L12.6776868,8.99134495 C12.6111926,8.93605923 12.5668631,8.881223 12.5009095,8.84436585 L12.5009095,8.84436585 C12.1024849,8.53152962 12.0581555,8.27397909 11.7040603,7.92428571 L11.7040603,7.92428571 C11.3942947,7.59302091 11.1288585,7.243777 10.885587,6.89408362 L10.885587,6.89408362 C10.8634223,6.71024739 10.8190928,6.5075331 10.7753039,6.30526829 L10.7753039,6.30526829 C10.6644803,5.84545296 10.5093271,5.4040662 10.2882204,4.96222997 L10.2882204,4.96222997 L10.5979861,4.68625087 L10.5979861,4.41072125 L11.1288585,3.87764111 L11.084529,3.85876307 L11.7489304,3.34366202 L11.084529,3.32523345 L10.7753039,3.67492683 L10.7525986,3.65649826 L10.1995615,4.11631359 L9.80167749,4.15317073 L9.75734803,4.19002787 C9.42541763,3.78504878 9.09348724,3.58278397 8.78372158,3.61964111 L8.78372158,3.61964111 C8.27501392,3.71178397 8.00903712,4.53927178 8.09769606,5.62520906 L8.09769606,5.62520906 L6.57103248,6.94936934 L6.39425522,7.09634843 L5.59740603,7.94316376 L6.21747796,8.43938676 L7.16839907,7.70359233 L7.3230116,7.55661324 L8.27501392,6.71024739 C8.27501392,6.72867596 8.29663805,6.7655331 8.29663805,6.80194077 L8.29663805,6.80194077 C8.27501392,6.93094077 8.25230858,7.05994077 8.25230858,7.20691986 L8.25230858,7.20691986 C8.25230858,7.37232753 8.42962645,7.48244948 8.51828538,7.61144948 L8.51828538,7.61144948 C8.67289791,7.79528571 8.73939211,8.01597909 8.73939211,8.23712195 L8.73939211,8.23712195 C8.73939211,8.31083624 8.69506265,8.38410105 8.69506265,8.4762439 L8.69506265,8.4762439 C8.69506265,8.64165157 8.78372158,8.80750871 8.89400464,8.9544878 L8.89400464,8.9544878 C9.2702645,9.46958885 9.62435963,9.9846899 10.0006195,10.4997909 L10.0006195,10.4997909 C10.0671137,10.6099129 10.155232,10.7204843 10.2217262,10.8310557 L10.2217262,10.8310557 L10.2217262,10.8490348 C10.2882204,10.9596063 10.3990441,11.0517491 10.5093271,11.1254634 L10.5093271,11.1254634 C10.5536566,11.5115645 10.686645,11.898115 10.885587,12.2473589 L10.885587,12.2473589 C10.9299165,12.3210732 10.9742459,12.3763589 11.0185754,12.4496237 L11.0185754,12.4496237 C11.3061763,12.8541533 11.6602715,13.2407038 12.0581555,13.5719686 L12.0581555,13.5719686 L12.5895684,14.0686411 C13.0982761,14.546885 13.6291485,15.0251289 14.1821856,15.4849443 L14.1821856,15.4849443 C14.3816682,15.66923 14.6249397,15.7977805 14.8903759,15.9083519 L14.8903759,15.9083519 C15.1558121,16.0004948 15.4661183,15.9631882 15.6866845,15.8162091 L15.6866845,15.8162091 L15.6866845,16.4967178 C15.8418376,16.5151463 15.9742854,16.5888606 16.085109,16.6994321 L16.085109,16.6994321 C16.1516032,16.8279826 16.1288979,16.9754111 16.0407796,17.1039617 L16.0407796,17.1039617 C15.5764014,18.0973066 15.1114826,19.0906516 14.4032923,19.9923031 L14.4032923,19.9923031 C14.8903759,20.2314251 15.3552947,20.5253833 15.7753434,20.8566481 L15.7753434,20.8566481 C16.0407796,21.09577 16.284051,21.3717491 16.4835336,21.6661568 L16.4835336,21.6661568 C16.5056984,21.7947073 16.5273225,21.9421359 16.5273225,22.0706864 L16.5273225,22.0706864 C16.6830162,24.2600906 15.6650603,26.4490453 14.7573875,28.527878 L14.7573875,28.527878 C14.4919513,29.1162439 14.2043503,29.7419164 14.2265151,30.3491603 L14.2265151,30.3491603 C14.0497378,30.4408537 13.8945847,30.5329965 13.7394316,30.6431185 L13.7394316,30.6431185 C13.9167494,31.029669 13.8507958,31.3793624 13.8280905,31.8023206 L13.8280905,31.8023206 C13.8280905,32.0598711 13.7615963,32.298993 13.6513132,32.538115 L13.6513132,32.538115 C13.5626543,32.7039721 13.4296659,32.8505017 13.3415476,33.0163589 L13.3415476,33.0163589 C12.7663457,33.8627247 12.6338979,34.8560697 12.5230742,35.8125575 L12.5230742,35.8125575 C12.45658,36.4013728 12.7220162,37.1003101 12.41171,37.6154111 L12.41171,37.6154111 C11.8592135,38.4981847 11.3721299,39.455122 11.3061763,40.4484669 L11.3061763,40.4484669 C11.3061763,40.6691603 11.2618469,40.8898537 11.1948121,41.110547 L11.1948121,41.110547 C11.1288585,41.2948328 10.9958701,41.4418118 10.9299165,41.6256481 L10.9299165,41.6256481 C10.8634223,41.86477 10.8412575,42.1223206 10.885587,42.3614425 L10.885587,42.3614425 C10.9299165,43.2446655 10.7753039,44.1278885 10.4212088,44.9553763 L10.4212088,44.9553763 C10.155232,45.6174564 9.84546636,46.3168432 10.0671137,46.9973519 L10.0671137,46.9973519 C9.5357007,47.4571672 9.2043109,48.0644111 9.1372761,48.7080627 L9.1372761,48.7080627 C9.1372761,48.8734704 9.11565197,49.038878 9.07132251,49.2047352 L9.07132251,49.2047352 C9.00482831,49.3705923 8.91670998,49.5364495 8.80588631,49.6829791 L8.80588631,49.6829791 C8.36313225,50.3634878 8.14202552,51.1181603 8.20851972,51.8908118 L8.20851972,51.8908118 C7.54465893,52.6450348 7.21272854,53.5646655 7.01378654,54.4842962 L7.01378654,54.4842962 C6.81430394,55.4043763 6.72618561,56.3424355 6.48291415,57.2436376 L6.48291415,57.2436376 C6.15098376,58.4396969 5.53145244,59.6537352 5.42008817,60.8862021 L5.42008817,60.8862021 C4.71243852,61.2723031 4.40321346,62.0080976 4.24751972,62.7074843 L4.24751972,62.7074843 C4.09290719,63.4064216 4.09290719,64.142216 3.73881206,64.7863171 L3.73881206,64.7863171 C3.5620348,65.1175819 3.29659861,65.4304181 3.11928074,65.7612334 L3.11928074,65.7612334 C2.98683295,66.037662 2.89817401,66.3127422 2.85384455,66.6075993 L2.85384455,66.6075993 C2.74356148,67.0674146 2.65490255,67.5640871 2.78735035,67.9870453 L2.78735035,67.9870453 C2.61057309,68.1529024 2.38892575,68.2998815 2.14565429,68.3915749 L2.14565429,68.3915749 C2.18998376,68.281453 2.2126891,68.171331 2.23485383,68.042331 L2.23485383,68.042331 C1.65911137,68.4652892 0.641696056,68.3183101 0.176777262,68.8329617 L0.176777262,68.8329617 C-0.110823666,69.1831045 -0.000540603248,69.6424704 0.398424594,69.9004704 L0.398424594,69.9004704 C0.530331787,69.9737352 0.685484919,70.0290209 0.862802784,70.065878 L0.862802784,70.065878 C1.96941763,70.3602857 3.09765661,70.6542439 4.24751972,70.5072648 L4.24751972,70.5072648 C4.38050812,70.4888362 4.51349652,70.4519791 4.62432019,70.3971429 L4.62432019,70.3971429 C4.77893271,70.305 4.88921578,70.194878 4.97787471,70.0474495 L4.97787471,70.0474495 L5.48712297,69.3664913 C5.88554756,69.4770627 6.30505568,69.550777 6.72618561,69.6060627 L6.72618561,69.6060627 C6.76997448,69.9004704 6.79213921,70.194878 6.81430394,70.4888362 L6.81430394,70.4888362 C7.03541067,70.5256934 7.3230116,70.5256934 7.43383527,70.3602857 L7.43383527,70.3602857 C7.456,70.2865714 7.47816473,70.2312857 7.47816473,70.1580209 L7.47816473,70.1580209 C7.47816473,70.0290209 7.50032947,69.8451847 7.5224942,69.6793275 L7.5224942,69.6793275 L7.56682367,69.6793275 C8.25230858,69.6982056 8.91670998,69.5876341 9.51353596,69.3485122 L9.51353596,69.3485122 C9.2702645,67.7294948 10.0671137,66.1293554 10.7309745,64.5840523 L10.7309745,64.5840523 C11.4386241,62.9650348 12.0581555,61.3091603 12.6776868,59.6537352 L12.6776868,59.6537352 C13.1204408,58.4949826 13.6075244,57.3726376 14.0497378,56.195007 L14.0497378,56.195007 C14.6027749,54.7234181 15.1558121,53.2518293 15.6866845,51.7802404 L15.6866845,51.7802404 C15.9299559,51.1365889 16.173768,50.4924878 16.4392042,49.8483868 L16.4392042,49.8483868 C17.014406,48.5422056 17.699891,47.273331 18.4967401,46.0592927 L18.4967401,46.0592927 C18.7178469,45.7095993 18.9394942,45.3603554 19.1162715,45.0102125 L19.1162715,45.0102125 C19.3373782,44.5692753 19.4925313,44.1090105 19.6693086,43.6676237 L19.6693086,43.6676237 C20.0450278,42.729115 20.5321114,41.8279129 21.0635244,40.9451394 L21.0635244,40.9451394 L21.1073132,40.8718746 C21.2846311,41.4782195 21.4614084,42.1043415 21.5943968,42.7111359 L21.5943968,42.7111359 C21.7490093,43.4649094 21.7717146,44.2380105 21.6387262,44.9922334 L21.6387262,44.9922334 C21.5279026,45.5073345 21.3289606,46.004007 21.3511253,46.5375366 L21.3511253,46.5375366 C21.3949142,47.2549024 21.8376682,47.9174321 22.0814803,48.5979408 L22.0814803,48.5979408 C22.2355522,49.1130418 22.302587,49.646122 22.3247517,50.180101 L22.3247517,50.180101 C22.3907053,51.0075889 22.9215777,51.927669 22.5458585,52.6998711 L22.5458585,52.6998711 C21.37329,55.1283972 21.9263271,57.8697596 21.2624664,60.4268362 L21.2624664,60.4268362 C20.9083712,61.7325679 19.8460858,62.9650348 19.9347448,64.3080732 L19.9347448,64.3080732 C20.0017796,65.264561 20.0898979,66.2030697 20.2445104,67.1595575 L20.2445104,67.1595575 C20.2666752,67.4535157 20.3553341,67.7294948 20.4877819,68.0054739 L20.4877819,68.0054739 C20.5764408,68.1529024 20.6872645,68.281453 20.7980882,68.4100035 L20.7980882,68.4100035 C20.7094292,68.4473101 20.6207703,68.5205749 20.5548167,68.7044111 L20.5548167,68.7044111 C20.3553341,69.1831045 20.5548167,69.6982056 21.0413596,69.9926132 L21.0413596,69.9926132 C21.2403016,70.0843066 21.4614084,70.1391429 21.6830557,70.176 L21.6830557,70.176 C21.9922807,70.2497143 22.302587,70.2865714 22.6123527,70.2865714 L22.6123527,70.2865714 C22.7010116,70.2865714 22.8112947,70.2685923 22.8999536,70.2497143 L22.8999536,70.2497143 C23.231884,70.3782648 23.5854385,70.4708571 23.9395336,70.5625505 L23.9395336,70.5625505 C23.9395336,70.6362648 23.9395336,70.7099791 23.9616984,70.7832439 L23.9616984,70.7832439 C23.9616984,70.8569582 24.0060278,70.9486516 24.072522,70.9855087 L24.072522,70.9855087 C24.1168515,71.0043868 24.1828051,71.0223659 24.2492993,71.0223659 L24.2492993,71.0223659 L25.4440325,71.0223659 L25.4440325,70.7648153 C25.732174,70.7832439 25.9976102,70.7099791 26.2187169,70.5625505 L26.2187169,70.5625505 C26.3295406,70.4519791 26.3954942,70.3234286 26.4398237,70.176 L26.4398237,70.176 C26.7717541,69.2563693 27.1036845,68.3367387 27.4134501,67.39823 L27.4134501,67.39823 C27.5680626,67.0121289 27.6794269,66.6075993 27.7453805,66.2030697 L27.7453805,66.2030697 C27.8783689,65.5589686 27.9221578,64.896439 27.8783689,64.2343589 L27.8783689,64.2343589 C27.4577796,60.8497944 28.3870766,57.4463519 28.0773109,54.0429094 L28.0773109,54.0429094 C27.899993,52.0009338 28.0102761,49.9409791 28.4530302,47.9354111 L28.4530302,47.9354111 C28.5643944,47.4755958 28.6746775,47.0157805 28.719007,46.5555157 L28.719007,46.5555157 C28.8076659,45.6911707 28.6968422,44.8268258 28.7633364,43.9804599 L28.7633364,43.9804599 C28.7849606,43.6860523 28.82929,43.3916446 28.8736195,43.0972369 L28.8736195,43.0972369 C29.1833852,41.2579756 29.3601624,39.3998362 29.3823271,37.5416969 L29.3823271,37.5416969 C29.3823271,36.9349024 29.3385383,36.30923 29.2498794,35.7019861 L29.2498794,35.7019861 C29.4709861,35.6471498 29.6926334,35.555007 29.8472459,35.4075784 L29.8472459,35.4075784 C30.0467285,35.1873345 30.0018585,34.8929268 30.0018585,34.6169477 L30.0018585,34.6169477 C30.0018585,33.9728467 30.3337889,33.3471742 30.5992251,32.7403798 L30.5992251,32.7403798 C30.9311555,31.8944634 31.2187564,31.029669 31.4404037,30.1648746 L31.4404037,30.1648746 C31.6615104,29.4659373 31.7944988,28.7301429 31.816123,27.9943484 L31.816123,27.9943484 C31.816123,27.9206341 31.816123,27.8469199 31.7944988,27.7732056 L31.7944988,27.7732056 C31.8831578,27.7183693 31.9491114,27.6630836 31.9934408,27.5898188 L31.9934408,27.5898188 C32.0593944,27.4792474 32.0820998,27.368676 32.1042645,27.258554 L32.1042645,27.258554 C32.1923828,26.7803101 32.258877,26.3204948 32.347536,25.8418014 L32.347536,25.8418014 C32.4134896,25.5109861 32.457819,25.1612927 32.5243132,24.8300279 L32.5243132,24.8300279 C32.7681253,23.4690105 32.989232,22.1075436 33.2325035,20.7460767 L33.2325035,20.7460767 C33.2984571,20.3968328 33.3427865,20.0287108 33.4092807,19.6794669 L33.4092807,19.6794669 L33.586058,18.6303868 C33.6087633,18.5018362 33.6303875,18.3728362 33.6530928,18.2627143 L33.6530928,18.2627143 C34.2499188,17.5457979 33.7190464,16.5335749 33.6747169,15.6872091 L33.6747169,15.6872091 C33.6747169,15.4669652 33.6303875,15.2458223 33.5644339,15.0251289 L33.5644339,15.0251289 C33.3649513,14.3994564 32.9227378,13.6456829 32.1702181,13.4613972 L32.1702181,13.4613972 C31.418239,13.2591324 30.6657193,13.0015819 29.9802343,12.6887456 L29.9802343,12.6887456 C29.8472459,10.7204843 30.4002831,8.69693728 29.8029165,6.7835122 L29.8029165,6.7835122 C29.5812691,6.08457491 29.2277146,5.42249477 29.116891,4.70512892 L29.116891,4.70512892 C29.0066079,3.82190592 29.2942088,2.8658676 28.8514548,2.03748084 L28.8514548,2.03748084 C28.5195244,1.39382927 27.7670046,0.934013937 26.9706961,0.694442509 L26.9706961,0.694442509 C26.1743875,0.455320557 25.3115847,0.400484321 24.4709466,0.326770035 L24.4709466,0.326770035 C23.9573735,0.291261324 22.8896821,0.195522648 21.7863109,0.195522648 L21.7863109,0.195522648 C20.608877,0.195522648 19.3903573,0.304745645 18.7621763,0.713320557 M27.3247912,28.8407143 C27.258297,28.7117143 27.1480139,28.5827143 27.059355,28.4541638 L27.059355,28.4541638 C26.9706961,28.2887561 26.9490719,28.1233484 26.9490719,27.9386132 L26.9490719,27.9386132 C26.9047425,26.8171672 26.9928608,25.6948223 27.258297,24.6093345 L27.258297,24.6093345 C27.2804617,24.4803345 27.3247912,24.351784 27.3469559,24.2232334 L27.3469559,24.2232334 C27.4356148,24.1863763 27.5237332,24.1310906 27.5902274,24.0578258 L27.5902274,24.0578258 C27.701051,23.9472544 27.8113341,23.8182544 27.8783689,23.6897038 L27.8783689,23.6897038 C28.1216404,23.2667456 28.3649118,22.843338 28.5638538,22.4203798 L28.5638538,22.4203798 C28.630348,22.2729512 28.7406311,22.1259721 28.8957842,22.0895645 L28.8957842,22.0895645 C28.8514548,23.1561742 28.9839026,24.2600906 28.4530302,25.235007 L28.4530302,25.235007 C28.3422065,25.4004146 28.2762529,25.5658223 28.2319234,25.7316794 L28.2319234,25.7316794 C28.1881346,26.0076585 28.3205824,26.2836376 28.2762529,26.5591672 L28.2762529,26.5591672 C28.2540882,26.7065958 28.1881346,26.8351463 28.1432645,26.9641463 L28.1432645,26.9641463 C28.098935,27.1111254 28.1432645,27.258554 28.2762529,27.3502474 L28.2762529,27.3502474 C28.2984176,27.368676 28.3422065,27.3871045 28.3649118,27.3871045 L28.3649118,27.3871045 C28.3422065,27.4608188 28.3422065,27.5340836 28.3422065,27.6077979 L28.3422065,27.6077979 C28.3205824,27.7552265 28.3205824,27.9022056 28.2984176,27.9943484 L28.2984176,27.9943484 C28.2540882,28.4361847 28.2319234,28.8955505 28.2319234,29.3373868 L28.2319234,29.3373868 C28.2319234,29.8340592 28.2540882,30.3123031 28.2540882,30.8089756 L28.2540882,30.8089756 C28.2540882,30.9564042 28.2319234,31.1029338 28.1654292,31.2319338 L28.1654292,31.2319338 C28.1216404,31.3051986 28.0551462,31.3609338 27.988652,31.41577 L27.988652,31.41577 C27.9443225,31.2503624 27.8783689,31.1029338 27.8113341,30.9564042 L27.8113341,30.9564042 C27.5464385,30.4408537 27.3026265,29.907324 27.3691206,29.3553659 L27.3691206,29.3553659 L27.3469559,29.3553659 C27.4134501,29.1899582 27.3912854,29.006122 27.3247912,28.8407143" id="path-7"></path>
    </defs>
    <g id="Page-1" stroke="none" stroke-width="1" fill="none" fill-rule="evenodd">
        <g id="Desktop-HD-Copy" transform="translate(-198.000000, -404.000000)">
            <g id="Ilustración-/-UX" transform="translate(198.000000, 404.000000)">
                <g id="Group-172">
                    <g id="Group-118" transform="translate(0.000000, 0.182488)">
                        <g id="Group-3" transform="translate(3.243619, 4.045296)">
                            <mask id="mask-2" fill="white">
                                <use xlink:href="#path-1"></use>
                            </mask>
                            <g id="Clip-2"></g>
                            <path d="M129.951939,20.6883188 C115.636765,20.2837892 101.985452,16.4389599 88.9758343,12.2260087 C75.9656766,8.01350697 63.0441777,3.35916899 49.0830988,1.13335714 C40.1004353,-0.301374564 29.8116742,-0.503639373 22.576781,3.50659756 C15.6073239,7.3698554 13.3508459,14.0108833 12.133948,20.1916463 C11.2262752,24.8459843 10.6954028,29.7205662 13.1956928,34.0804965 C14.9212984,37.0973885 17.9967903,39.6360366 20.1429852,42.5428066 C27.5551963,52.6052561 22.3113448,65.0225174 14.2796023,74.8458449 C10.5186255,79.4633258 6.15974153,83.8601132 3.23886218,88.7720017 C0.318523434,93.6834408 -1.00919814,99.2942666 1.53542135,104.316277 C4.0578761,109.283002 10.0537067,112.99928 16.5587856,115.630071 C29.7678854,120.964918 45.322122,122.473364 60.5000988,123.337709 C94.0866974,125.251134 127.872238,124.423197 161.546955,123.59526 C174.004076,123.282423 186.52715,122.970037 198.784788,121.369448 C205.599092,120.486674 212.635043,119.069922 217.569129,115.666929 C223.852561,111.343406 225.401389,104.003441 221.197658,98.5769007 C214.139542,89.470939 194.647011,87.20827 189.712925,77.4397787 C186.991528,72.0685244 189.779419,66.0711481 193.739878,61.0859948 C202.19167,50.3794443 216.374396,40.9975035 217.126375,28.7640784 C217.635623,20.357054 210.820779,11.9504791 200.288746,7.97664983 C189.248547,3.8194338 173.915417,4.33453484 165.773391,11.2326638 C157.343224,18.3150784 142.585837,21.0559913 129.951939,20.6883188" id="Fill-1" fill="#005C7C" opacity="0.1" mask="url(#mask-2)"></path>
                        </g>
                        <path d="M32.6129722,30.7859624 C32.6129722,30.7859624 65.137826,31.8898787 69.5626636,30.7859624 C69.5626636,30.7859624 67.1288677,76.0397916 68.0138353,77.51183 C68.0138353,77.51183 31.9491114,79.1672551 29.2942088,77.51183 C26.6393063,75.8559554 32.6129722,30.7859624 32.6129722,30.7859624" id="Fill-4" fill="#FFFFFF"></path>
                        <path d="M32.6129722,30.7859624 C32.6129722,30.7859624 65.137826,31.8898787 69.5626636,30.7859624 C69.5626636,30.7859624 67.1288677,76.0397916 68.0138353,77.51183 C68.0138353,77.51183 31.9491114,79.1672551 29.2942088,77.51183 C26.6393063,75.8559554 32.6129722,30.7859624 32.6129722,30.7859624 Z" id="Stroke-6" stroke="#302D3D" stroke-width="2"></path>
                        <g id="Group-11" transform="translate(37.301624, 39.104530)">
                            <path d="M0.178885615,0.143608014 C0.178885615,0.143608014 15.2244146,20.0114059 20.313113,21.8506672" id="Fill-8" fill="#FFFFFF"></path>
                            <path d="M0.178885615,0.143608014 C0.178885615,0.143608014 15.2244146,20.0114059 20.313113,21.8506672" id="Stroke-10" stroke="#302D3D" stroke-width="2"></path>
                        </g>
                        <g id="Group-15" transform="translate(40.545244, 39.104530)">
                            <path d="M17.0696016,0.143608014 C17.0696016,0.143608014 2.68793341,15.7800261 0.475244316,21.1148728" id="Fill-12" fill="#FFFFFF"></path>
                            <path d="M17.0696016,0.143608014 C17.0696016,0.143608014 2.68793341,15.7800261 0.475244316,21.1148728" id="Stroke-14" stroke="#302D3D" stroke-width="2"></path>
                        </g>
                        <path d="M56.2873399,68.4975167 L38.8080151,68.4975167 C37.4802935,68.4975167 37.4802935,73.6485272 37.4802935,73.6485272 L56.2873399,73.6485272 L56.2873399,68.4975167 Z" id="Fill-16" fill="#FFFFFF"></path>
                        <path d="M56.2873399,68.4975167 L38.8080151,68.4975167 C37.4802935,68.4975167 37.4802935,73.6485272 37.4802935,73.6485272 L56.2873399,73.6485272 L56.2873399,68.4975167 Z" id="Stroke-18" stroke="#302D3D" stroke-width="2"></path>
                        <path d="M93.6795151,30.7859624 C93.6795151,30.7859624 124.876647,29.4982098 130.629206,30.7859624 C130.629206,30.7859624 128.195411,76.0397916 129.080378,77.51183 C129.080378,77.51183 89.2098074,80.1057638 90.3607517,77.51183 C92.7945476,71.9926976 93.6795151,30.7859624 93.6795151,30.7859624" id="Fill-20" fill="#FFFFFF"></path>
                        <path d="M93.6795151,30.7859624 C93.6795151,30.7859624 124.876647,29.4982098 130.629206,30.7859624 C130.629206,30.7859624 128.195411,76.0397916 129.080378,77.51183 C129.080378,77.51183 89.2098074,80.1057638 90.3607517,77.51183 C92.7945476,71.9926976 93.6795151,30.7859624 93.6795151,30.7859624 Z" id="Stroke-22" stroke="#302D3D" stroke-width="2"></path>
                        <g id="Group-27" transform="translate(105.417633, 34.160279)">
                            <path d="M0.408804176,0.0656686411 C0.408804176,0.0656686411 7.35609652,9.2453446 9.70123341,10.091261" id="Fill-24" fill="#FFFFFF"></path>
                            <path d="M0.408804176,0.0656686411 C0.408804176,0.0656686411 7.35609652,9.2453446 9.70123341,10.091261" id="Stroke-26" stroke="#302D3D" stroke-width="2"></path>
                        </g>
                        <g id="Group-31" transform="translate(107.039443, 34.160279)">
                            <path d="M8.07969397,0.0656686411 C8.07969397,0.0656686411 1.44216729,7.2766338 0.424211369,9.74201707" id="Fill-28" fill="#FFFFFF"></path>
                            <path d="M8.07969397,0.0656686411 C8.07969397,0.0656686411 1.44216729,7.2766338 0.424211369,9.74201707" id="Stroke-30" stroke="#302D3D" stroke-width="2"></path>
                        </g>
                        <path d="M123.039948,50.1016672 L99.5869571,50.1016672 C97.817022,50.1016672 97.817022,55.2522282 97.817022,55.2522282 L123.039948,55.2522282 L123.039948,50.1016672 Z" id="Fill-32" fill="#FFFFFF"></path>
                        <path d="M123.039948,50.1016672 L99.5869571,50.1016672 C97.817022,50.1016672 97.817022,55.2522282 97.817022,55.2522282 L123.039948,55.2522282 L123.039948,50.1016672 Z" id="Stroke-34" stroke="#302D3D" stroke-width="2"></path>
                        <path d="M119.831738,66.4740146 L102.352413,66.4740146 C101.025232,66.4740146 101.025232,71.6250251 101.025232,71.6250251 L119.831738,71.6250251 L119.831738,66.4740146 Z" id="Fill-36" fill="#FFFFFF"></path>
                        <path d="M119.831738,66.4740146 L102.352413,66.4740146 C101.025232,66.4740146 101.025232,71.6250251 101.025232,71.6250251 L119.831738,71.6250251 L119.831738,66.4740146 Z" id="Stroke-38" stroke="#302D3D" stroke-width="2"></path>
                        <path d="M123.039948,57.6439871 C124.809883,57.6439871 101.666658,59.2998617 99.5869571,57.6439871 C98.502507,56.7791927 97.817022,62.7945481 97.817022,62.7945481 L123.039948,62.7945481 L123.039948,57.6439871 Z" id="Fill-40" fill="#FFFFFF"></path>
                        <path d="M123.039948,57.6439871 C124.809883,57.6439871 101.666658,59.2998617 99.5869571,57.6439871 C98.502507,56.7791927 97.817022,62.7945481 97.817022,62.7945481 L123.039948,62.7945481 L123.039948,57.6439871 Z" id="Stroke-42" stroke="#302D3D" stroke-width="2"></path>
                        <g id="Group-47" transform="translate(108.120650, 66.972125)">
                            <polyline id="Fill-44" fill="#FFFFFF" points="0.0508707657 1.98538641 1.37859234 3.08930279 3.81238817 0.329511847"></polyline>
                            <polyline id="Stroke-46" stroke="#302D3D" stroke-width="2" points="0.0508707657 1.98538641 1.37859234 3.08930279 3.81238817 0.329511847"></polyline>
                        </g>
                        <path d="M153.197068,31.1538146 C153.197068,31.1538146 184.172552,34.281278 190.146759,31.1538146 C190.146759,31.1538146 187.712963,76.4080934 188.597931,77.8796822 C188.597931,77.8796822 147.488838,79.7926578 149.878304,77.8796822 C155.85197,73.0963443 153.197068,31.1538146 153.197068,31.1538146" id="Fill-48" fill="#FFFFFF"></path>
                        <path d="M153.197068,31.1538146 C153.197068,31.1538146 184.172552,34.281278 190.146759,31.1538146 C190.146759,31.1538146 187.712963,76.4080934 188.597931,77.8796822 C188.597931,77.8796822 147.488838,79.7926578 149.878304,77.8796822 C155.85197,73.0963443 153.197068,31.1538146 153.197068,31.1538146 Z" id="Stroke-50" stroke="#302D3D" stroke-width="2"></path>
                        <g id="Group-55" transform="translate(157.315545, 39.104530)">
                            <path d="M0.173912065,0.0514202091 C0.173912065,0.0514202091 4.64361972,5.93822509 6.14757796,6.49018328" id="Fill-52" fill="#FFFFFF"></path>
                            <path d="M0.173912065,0.0514202091 C0.173912065,0.0514202091 4.64361972,5.93822509 6.14757796,6.49018328" id="Stroke-54" stroke="#302D3D" stroke-width="3"></path>
                        </g>
                        <g id="Group-59" transform="translate(158.396752, 39.104530)">
                            <path d="M5.06647958,0.0514202091 C5.06647958,0.0514202091 0.796254524,4.70575819 0.154558469,6.26904042" id="Fill-56" fill="#FFFFFF"></path>
                            <path d="M5.06647958,0.0514202091 C5.06647958,0.0514202091 0.796254524,4.70575819 0.154558469,6.26904042" id="Stroke-58" stroke="#302D3D" stroke-width="3"></path>
                        </g>
                        <path d="M183.0002,51.297322 L159.54721,51.297322 C157.777274,51.297322 157.777274,54.0202557 157.777274,54.0202557 L183.0002,54.0202557 L183.0002,51.297322 Z" id="Fill-60" fill="#FFFFFF"></path>
                        <path d="M183.0002,51.297322 L159.54721,51.297322 C157.777274,51.297322 157.777274,54.0202557 157.777274,54.0202557 L183.0002,54.0202557 L183.0002,51.297322 Z" id="Stroke-62" stroke="#302D3D" stroke-width="2"></path>
                        <g id="Group-67" transform="translate(169.749420, 59.331010)">
                            <path d="M0.462161717,0.0606344948 L12.6754703,0.0606344948 C14.4454053,0.0606344948 14.4454053,2.78311882 14.4454053,2.78311882 L14.4897348,2.78311882" id="Fill-64" fill="#FFFFFF"></path>
                            <path d="M0.462161717,0.0606344948 L12.6754703,0.0606344948 C14.4454053,0.0606344948 14.4454053,2.78311882 14.4454053,2.78311882 L14.4897348,2.78311882" id="Stroke-66" stroke="#302D3D" stroke-width="2"></path>
                        </g>
                        <path d="M183.0002,55.2708366 C184.770135,55.2708366 161.62691,56.1540596 159.54721,55.2708366 C158.462759,54.8110213 157.777274,57.9937704 157.777274,57.9937704 L183.0002,57.9937704 L183.0002,55.2708366 Z" id="Fill-68" fill="#FFFFFF"></path>
                        <path d="M183.0002,55.2708366 C184.770135,55.2708366 161.62691,56.1540596 159.54721,55.2708366 C158.462759,54.8110213 157.777274,57.9937704 157.777274,57.9937704 L183.0002,57.9937704 L183.0002,55.2708366 Z" id="Stroke-70" stroke="#302D3D" stroke-width="2"></path>
                        <g id="Group-75" transform="translate(152.990719, 34.160279)">
                            <path d="M0.383503944,0.433520906 C0.383503944,0.433520906 34.7220817,2.5492108 36.9347708,1.15088676" id="Fill-72" fill="#FFFFFF"></path>
                            <path d="M0.383503944,0.433520906 C0.383503944,0.433520906 34.7220817,2.5492108 36.9347708,1.15088676" id="Stroke-74" stroke="#302D3D" stroke-width="2"></path>
                        </g>
                        <g id="Group-79" transform="translate(185.426914, 32.811847)">
                            <path d="M0.162018794,0.52935 C0.626396984,0.42685 1.11348051,0.57035 1.60002343,0.63185 C2.08710696,0.69335 2.61797935,0.69335 2.97207448,0.38585" id="Fill-76" fill="#FFFFFF"></path>
                            <path d="M0.162018794,0.52935 C0.626396984,0.42685 1.11348051,0.57035 1.60002343,0.63185 C2.08710696,0.69335 2.61797935,0.69335 2.97207448,0.38585" id="Stroke-78" stroke="#302D3D" stroke-width="2"></path>
                        </g>
                        <g id="Group-83" transform="translate(184.886311, 33.710801)">
                            <path d="M0.481136891,0.348 C1.47692807,0.5115 2.47271926,0.5525 3.49013457,0.5115" id="Fill-80" fill="#FFFFFF"></path>
                            <path d="M0.481136891,0.348 C1.47692807,0.5115 2.47271926,0.5525 3.49013457,0.5115" id="Stroke-82" stroke="#302D3D" stroke-width="2"></path>
                        </g>
                        <g id="Group-87" transform="translate(184.886311, 34.609756)">
                            <path d="M0.481136891,0.49395 C1.32231555,0.35045 2.18511833,0.26895 3.04792111,0.22795" id="Fill-84" fill="#FFFFFF"></path>
                            <path d="M0.481136891,0.49395 C1.32231555,0.35045 2.18511833,0.26895 3.04792111,0.22795" id="Stroke-86" stroke="#302D3D" stroke-width="2"></path>
                        </g>
                        <path d="M155.299041,33.6739892 C155.71909,33.8398463 156.161844,33.9131111 156.626763,33.8946826 C156.914364,33.9315397 157.201965,33.876254 157.445236,33.7477035 C157.732837,33.5454387 157.755002,33.1957453 157.755002,32.8829091 C157.755002,32.7912157 157.755002,32.6990728 157.710672,32.60693 C157.644178,32.5152366 157.577684,32.4599509 157.467401,32.4046652 C156.914364,32.0918289 155.896408,31.9632784 155.254712,32.1839718 C154.414074,32.4599509 154.546521,33.3431739 155.299041,33.6739892" id="Fill-88" fill="#FFFFFF"></path>
                        <path d="M155.299041,33.6739892 C155.71909,33.8398463 156.161844,33.9131111 156.626763,33.8946826 C156.914364,33.9315397 157.201965,33.876254 157.445236,33.7477035 C157.732837,33.5454387 157.755002,33.1957453 157.755002,32.8829091 C157.755002,32.7912157 157.755002,32.6990728 157.710672,32.60693 C157.644178,32.5152366 157.577684,32.4599509 157.467401,32.4046652 C156.914364,32.0918289 155.896408,31.9632784 155.254712,32.1839718 C154.414074,32.4599509 154.546521,33.3431739 155.299041,33.6739892 Z" id="Stroke-90" stroke="#302D3D" stroke-width="2"></path>
                        <path d="M165.100665,37.9971523 C164.967676,39.3581697 165.366101,40.7196366 165.631537,42.0626749 C165.963467,43.7733857 166.096456,45.4840965 166.029961,47.2132359 C162.53388,47.3975216 159.03834,47.4343787 155.542258,47.3422359 C155.874189,47.3422359 155.786071,41.1978805 155.808235,40.6279432 C155.852024,39.9101279 155.653082,38.6592324 156.671038,38.3832533 C157.732783,38.0892951 159.237282,38.2731314 160.343897,38.2362742 C161.914349,38.1625599 163.507507,38.0892951 165.100665,37.9971523" id="Fill-92" fill="#FFFFFF"></path>
                        <path d="M165.100665,37.9971523 C164.967676,39.3581697 165.366101,40.7196366 165.631537,42.0626749 C165.963467,43.7733857 166.096456,45.4840965 166.029961,47.2132359 C162.53388,47.3975216 159.03834,47.4343787 155.542258,47.3422359 C155.874189,47.3422359 155.786071,41.1978805 155.808235,40.6279432 C155.852024,39.9101279 155.653082,38.6592324 156.671038,38.3832533 C157.732783,38.0892951 159.237282,38.2731314 160.343897,38.2362742 C161.914349,38.1625599 163.507507,38.0892951 165.100665,37.9971523 Z" id="Stroke-94" stroke="#302D3D" stroke-width="2"></path>
                        <path d="M74.6514701,51.9412432 C74.6514701,51.9412432 83.2805791,51.5735707 84.8294074,51.9412432" id="Stroke-96" stroke="#302D3D"></path>
                        <path d="M84.8292452,48.0781202 C84.8292452,48.0781202 88.5907626,51.2055836 88.5907626,51.941378 C88.5907626,52.6771725 83.723171,55.2522282 83.723171,55.2522282" id="Stroke-98" stroke="#302D3D"></path>
                        <path d="M134.390508,51.9412432 C134.390508,51.9412432 143.019076,51.5735707 144.567904,51.9412432" id="Stroke-100" stroke="#302D3D"></path>
                        <path d="M144.568013,48.0781202 C144.568013,48.0781202 148.32953,51.2055836 148.32953,51.941378 C148.32953,52.6771725 143.461938,55.2522282 143.461938,55.2522282" id="Stroke-102" stroke="#302D3D"></path>
                        <g id="Group-106" transform="translate(78.387471, 0.000000)">
                            <mask id="mask-4" fill="white">
                                <use xlink:href="#path-3"></use>
                            </mask>
                            <g id="Clip-105"></g>
                            <path d="M5.09210418,0.266944599 C7.73132923,0.266944599 9.87103689,2.04597596 9.87103689,4.24032439 C9.87103689,6.4351223 7.73132923,8.21415366 5.09210418,8.21415366 C2.45287912,8.21415366 0.313171462,6.4351223 0.313171462,4.24032439 C0.313171462,2.04597596 2.45287912,0.266944599 5.09210418,0.266944599" id="Fill-104" fill="#005C7C" opacity="0.1" mask="url(#mask-4)"></path>
                        </g>
                        <path d="M156.294724,5.7673338 C158.933949,5.7673338 161.073657,7.54636516 161.073657,9.74071359 C161.073657,11.9355115 158.933949,13.7145429 156.294724,13.7145429 C153.655499,13.7145429 151.515791,11.9355115 151.515791,9.74071359 C151.515791,7.54636516 153.655499,5.7673338 156.294724,5.7673338" id="Fill-107" fill="#005C7C" opacity="0.1"></path>
                        <path d="M207.448766,64.708108 C210.087991,64.708108 212.227699,66.4871394 212.227699,68.6814878 C212.227699,70.8762857 210.087991,72.6553171 207.448766,72.6553171 C204.809541,72.6553171 202.669833,70.8762857 202.669833,68.6814878 C202.669833,66.4871394 204.809541,64.708108 207.448766,64.708108" id="Fill-109" fill="#005C7C" opacity="0.1"></path>
                        <path d="M216.663294,49.870546 C217.372025,46.2401174 221.486016,43.7747341 225.852468,44.363999 C230.218921,44.9532638 233.184129,48.3737864 232.475939,52.004215 C231.766668,55.6346436 227.652677,58.1000268 223.286225,57.510762 C218.919772,56.9214972 215.954563,53.5009746 216.663294,49.870546" id="Fill-111" fill="#005C7C" opacity="0.1"></path>
                        <path d="M213.953683,76.6469456 C218.377439,76.6469456 221.96326,79.6283289 221.96326,83.3064021 C221.96326,86.9844753 218.377439,89.9658585 213.953683,89.9658585 C209.529926,89.9658585 205.944645,86.9844753 205.944645,83.3064021 C205.944645,79.6283289 209.529926,76.6469456 213.953683,76.6469456" id="Fill-113" fill="#005C7C" opacity="0.1"></path>
                        <g id="Group-117" opacity="0.1" transform="translate(0.000000, 55.735192)">
                            <mask id="mask-6" fill="white">
                                <use xlink:href="#path-5"></use>
                            </mask>
                            <g id="Clip-116"></g>
                            <path d="M8.00946961,0.0692195122 C12.433226,0.0692195122 16.0190473,3.05060279 16.0190473,6.72867596 C16.0190473,10.4062997 12.433226,13.3876829 8.00946961,13.3876829 C3.58571323,13.3876829 -0.00010812065,10.4062997 -0.00010812065,6.72867596 C-0.00010812065,3.05060279 3.58571323,0.0692195122 8.00946961,0.0692195122" id="Fill-115" fill="#005C7C" mask="url(#mask-6)"></path>
                        </g>
                    </g>
                    <g id="Group-121" transform="translate(158.396752, 55.917679)">
                        <mask id="mask-8" fill="white">
                            <use xlink:href="#path-7"></use>
                        </mask>
                        <g id="Clip-120"></g>
                        <path d="M18.7621763,0.713320557 C18.6735174,0.768156794 18.6075638,0.823442509 18.5410696,0.897156794 L18.5410696,0.897156794 C18.5183643,0.934013937 18.4967401,0.952442509 18.4745754,0.989299652 L18.4745754,0.989299652 L18.4745754,1.00727875 C18.4524107,1.04413589 18.4302459,1.08099303 18.4080812,1.11785017 L18.4080812,1.11785017 C18.3859165,1.15470732 18.3859165,1.20999303 18.3642923,1.24685017 L18.3642923,1.24685017 L18.3642923,1.28325784 L18.3642923,1.3754007 L18.3642923,1.43023693 L18.3642923,1.52282927 L18.3642923,1.55923693 C18.3859165,1.72509408 18.4080812,1.89050174 18.4080812,2.05635889 L18.4080812,2.05635889 C18.4080812,2.12962369 18.4080812,2.22176655 18.3859165,2.29503136 L18.3859165,2.29503136 C18.3194223,2.51572474 18.1869745,2.71798955 18.0101972,2.88384669 L18.0101972,2.88384669 L17.9658677,2.93868293 L17.8999142,3.03127526 L17.8328794,3.10454007 L17.7885499,3.17825436 C17.7669258,3.21466202 17.7442204,3.23354007 17.7225963,3.27039721 L17.7225963,3.27039721 L17.6782668,3.32523345 C17.6561021,3.38051916 17.6339374,3.43580488 17.6117726,3.49064111 L17.6117726,3.49064111 C17.5674432,3.65649826 17.5674432,3.82190592 17.6117726,3.96933449 L17.6117726,3.96933449 C17.6782668,4.1715993 17.7669258,4.37386411 17.9215383,4.55770035 L17.9215383,4.55770035 C17.9658677,4.63141463 18.0323619,4.70512892 18.0988561,4.77884321 L18.0988561,4.77884321 C18.1648097,4.85255749 18.2091392,4.88896516 18.2534687,4.94425087 L18.2534687,4.94425087 C18.2313039,5.10965854 18.2091392,5.29349477 18.2091392,5.45935192 L18.2091392,5.45935192 C18.2091392,6.61810453 18.8508353,7.72202091 19.9574501,8.43938676 L19.9574501,8.43938676 C20.0450278,9.21203833 20.0234037,10.0031185 19.9347448,10.77577 L19.9347448,10.77577 C19.9131206,10.9411777 19.8904153,11.1065854 19.8687912,11.2540139 L19.8687912,11.2540139 C19.8460858,11.4014425 19.8244617,11.529993 19.8017564,11.6585436 L19.8017564,11.6585436 C19.4703666,11.6954007 19.1384362,11.6769721 18.8286705,11.6037073 L18.8286705,11.6037073 C18.6735174,11.5479721 18.5410696,11.5115645 18.3859165,11.4562787 L18.3859165,11.4562787 C18.0739884,11.3938014 17.7566543,11.4877422 17.4387796,11.5821324 L17.4387796,11.5821324 C17.1036056,11.6810174 16.7684316,11.7803519 16.4392042,11.6954007 L16.4392042,11.6954007 C16.4392042,11.7138293 16.4170394,11.7502369 16.4170394,11.769115 L16.4170394,11.769115 C16.284051,11.6954007 16.1288979,11.6585436 15.9742854,11.6585436 L15.9742854,11.6585436 C15.5980255,11.6405645 15.2882599,11.4194216 15.0233643,11.1991777 L15.0233643,11.1991777 L14.1821856,10.5361986 C14.116232,10.4997909 14.0713619,10.4445052 14.0270325,10.4076481 L14.0270325,10.4076481 C13.9832436,10.3339338 13.9389142,10.260669 13.9167494,10.1869547 L13.9167494,10.1869547 C13.7394316,9.81928223 13.4523712,9.48801742 13.0982761,9.21203833 L13.0982761,9.21203833 C13.0317819,9.13832404 12.943123,9.1014669 12.854464,9.06460976 L12.854464,9.06460976 L12.744181,9.06460976 C12.7220162,9.04663066 12.6998515,9.00977352 12.6776868,8.99134495 L12.6776868,8.99134495 C12.6111926,8.93605923 12.5668631,8.881223 12.5009095,8.84436585 L12.5009095,8.84436585 C12.1024849,8.53152962 12.0581555,8.27397909 11.7040603,7.92428571 L11.7040603,7.92428571 C11.3942947,7.59302091 11.1288585,7.243777 10.885587,6.89408362 L10.885587,6.89408362 C10.8634223,6.71024739 10.8190928,6.5075331 10.7753039,6.30526829 L10.7753039,6.30526829 C10.6644803,5.84545296 10.5093271,5.4040662 10.2882204,4.96222997 L10.2882204,4.96222997 L10.5979861,4.68625087 L10.5979861,4.41072125 L11.1288585,3.87764111 L11.084529,3.85876307 L11.7489304,3.34366202 L11.084529,3.32523345 L10.7753039,3.67492683 L10.7525986,3.65649826 L10.1995615,4.11631359 L9.80167749,4.15317073 L9.75734803,4.19002787 C9.42541763,3.78504878 9.09348724,3.58278397 8.78372158,3.61964111 L8.78372158,3.61964111 C8.27501392,3.71178397 8.00903712,4.53927178 8.09769606,5.62520906 L8.09769606,5.62520906 L6.57103248,6.94936934 L6.39425522,7.09634843 L5.59740603,7.94316376 L6.21747796,8.43938676 L7.16839907,7.70359233 L7.3230116,7.55661324 L8.27501392,6.71024739 C8.27501392,6.72867596 8.29663805,6.7655331 8.29663805,6.80194077 L8.29663805,6.80194077 C8.27501392,6.93094077 8.25230858,7.05994077 8.25230858,7.20691986 L8.25230858,7.20691986 C8.25230858,7.37232753 8.42962645,7.48244948 8.51828538,7.61144948 L8.51828538,7.61144948 C8.67289791,7.79528571 8.73939211,8.01597909 8.73939211,8.23712195 L8.73939211,8.23712195 C8.73939211,8.31083624 8.69506265,8.38410105 8.69506265,8.4762439 L8.69506265,8.4762439 C8.69506265,8.64165157 8.78372158,8.80750871 8.89400464,8.9544878 L8.89400464,8.9544878 C9.2702645,9.46958885 9.62435963,9.9846899 10.0006195,10.4997909 L10.0006195,10.4997909 C10.0671137,10.6099129 10.155232,10.7204843 10.2217262,10.8310557 L10.2217262,10.8310557 L10.2217262,10.8490348 C10.2882204,10.9596063 10.3990441,11.0517491 10.5093271,11.1254634 L10.5093271,11.1254634 C10.5536566,11.5115645 10.686645,11.898115 10.885587,12.2473589 L10.885587,12.2473589 C10.9299165,12.3210732 10.9742459,12.3763589 11.0185754,12.4496237 L11.0185754,12.4496237 C11.3061763,12.8541533 11.6602715,13.2407038 12.0581555,13.5719686 L12.0581555,13.5719686 L12.5895684,14.0686411 C13.0982761,14.546885 13.6291485,15.0251289 14.1821856,15.4849443 L14.1821856,15.4849443 C14.3816682,15.66923 14.6249397,15.7977805 14.8903759,15.9083519 L14.8903759,15.9083519 C15.1558121,16.0004948 15.4661183,15.9631882 15.6866845,15.8162091 L15.6866845,15.8162091 L15.6866845,16.4967178 C15.8418376,16.5151463 15.9742854,16.5888606 16.085109,16.6994321 L16.085109,16.6994321 C16.1516032,16.8279826 16.1288979,16.9754111 16.0407796,17.1039617 L16.0407796,17.1039617 C15.5764014,18.0973066 15.1114826,19.0906516 14.4032923,19.9923031 L14.4032923,19.9923031 C14.8903759,20.2314251 15.3552947,20.5253833 15.7753434,20.8566481 L15.7753434,20.8566481 C16.0407796,21.09577 16.284051,21.3717491 16.4835336,21.6661568 L16.4835336,21.6661568 C16.5056984,21.7947073 16.5273225,21.9421359 16.5273225,22.0706864 L16.5273225,22.0706864 C16.6830162,24.2600906 15.6650603,26.4490453 14.7573875,28.527878 L14.7573875,28.527878 C14.4919513,29.1162439 14.2043503,29.7419164 14.2265151,30.3491603 L14.2265151,30.3491603 C14.0497378,30.4408537 13.8945847,30.5329965 13.7394316,30.6431185 L13.7394316,30.6431185 C13.9167494,31.029669 13.8507958,31.3793624 13.8280905,31.8023206 L13.8280905,31.8023206 C13.8280905,32.0598711 13.7615963,32.298993 13.6513132,32.538115 L13.6513132,32.538115 C13.5626543,32.7039721 13.4296659,32.8505017 13.3415476,33.0163589 L13.3415476,33.0163589 C12.7663457,33.8627247 12.6338979,34.8560697 12.5230742,35.8125575 L12.5230742,35.8125575 C12.45658,36.4013728 12.7220162,37.1003101 12.41171,37.6154111 L12.41171,37.6154111 C11.8592135,38.4981847 11.3721299,39.455122 11.3061763,40.4484669 L11.3061763,40.4484669 C11.3061763,40.6691603 11.2618469,40.8898537 11.1948121,41.110547 L11.1948121,41.110547 C11.1288585,41.2948328 10.9958701,41.4418118 10.9299165,41.6256481 L10.9299165,41.6256481 C10.8634223,41.86477 10.8412575,42.1223206 10.885587,42.3614425 L10.885587,42.3614425 C10.9299165,43.2446655 10.7753039,44.1278885 10.4212088,44.9553763 L10.4212088,44.9553763 C10.155232,45.6174564 9.84546636,46.3168432 10.0671137,46.9973519 L10.0671137,46.9973519 C9.5357007,47.4571672 9.2043109,48.0644111 9.1372761,48.7080627 L9.1372761,48.7080627 C9.1372761,48.8734704 9.11565197,49.038878 9.07132251,49.2047352 L9.07132251,49.2047352 C9.00482831,49.3705923 8.91670998,49.5364495 8.80588631,49.6829791 L8.80588631,49.6829791 C8.36313225,50.3634878 8.14202552,51.1181603 8.20851972,51.8908118 L8.20851972,51.8908118 C7.54465893,52.6450348 7.21272854,53.5646655 7.01378654,54.4842962 L7.01378654,54.4842962 C6.81430394,55.4043763 6.72618561,56.3424355 6.48291415,57.2436376 L6.48291415,57.2436376 C6.15098376,58.4396969 5.53145244,59.6537352 5.42008817,60.8862021 L5.42008817,60.8862021 C4.71243852,61.2723031 4.40321346,62.0080976 4.24751972,62.7074843 L4.24751972,62.7074843 C4.09290719,63.4064216 4.09290719,64.142216 3.73881206,64.7863171 L3.73881206,64.7863171 C3.5620348,65.1175819 3.29659861,65.4304181 3.11928074,65.7612334 L3.11928074,65.7612334 C2.98683295,66.037662 2.89817401,66.3127422 2.85384455,66.6075993 L2.85384455,66.6075993 C2.74356148,67.0674146 2.65490255,67.5640871 2.78735035,67.9870453 L2.78735035,67.9870453 C2.61057309,68.1529024 2.38892575,68.2998815 2.14565429,68.3915749 L2.14565429,68.3915749 C2.18998376,68.281453 2.2126891,68.171331 2.23485383,68.042331 L2.23485383,68.042331 C1.65911137,68.4652892 0.641696056,68.3183101 0.176777262,68.8329617 L0.176777262,68.8329617 C-0.110823666,69.1831045 -0.000540603248,69.6424704 0.398424594,69.9004704 L0.398424594,69.9004704 C0.530331787,69.9737352 0.685484919,70.0290209 0.862802784,70.065878 L0.862802784,70.065878 C1.96941763,70.3602857 3.09765661,70.6542439 4.24751972,70.5072648 L4.24751972,70.5072648 C4.38050812,70.4888362 4.51349652,70.4519791 4.62432019,70.3971429 L4.62432019,70.3971429 C4.77893271,70.305 4.88921578,70.194878 4.97787471,70.0474495 L4.97787471,70.0474495 L5.48712297,69.3664913 C5.88554756,69.4770627 6.30505568,69.550777 6.72618561,69.6060627 L6.72618561,69.6060627 C6.76997448,69.9004704 6.79213921,70.194878 6.81430394,70.4888362 L6.81430394,70.4888362 C7.03541067,70.5256934 7.3230116,70.5256934 7.43383527,70.3602857 L7.43383527,70.3602857 C7.456,70.2865714 7.47816473,70.2312857 7.47816473,70.1580209 L7.47816473,70.1580209 C7.47816473,70.0290209 7.50032947,69.8451847 7.5224942,69.6793275 L7.5224942,69.6793275 L7.56682367,69.6793275 C8.25230858,69.6982056 8.91670998,69.5876341 9.51353596,69.3485122 L9.51353596,69.3485122 C9.2702645,67.7294948 10.0671137,66.1293554 10.7309745,64.5840523 L10.7309745,64.5840523 C11.4386241,62.9650348 12.0581555,61.3091603 12.6776868,59.6537352 L12.6776868,59.6537352 C13.1204408,58.4949826 13.6075244,57.3726376 14.0497378,56.195007 L14.0497378,56.195007 C14.6027749,54.7234181 15.1558121,53.2518293 15.6866845,51.7802404 L15.6866845,51.7802404 C15.9299559,51.1365889 16.173768,50.4924878 16.4392042,49.8483868 L16.4392042,49.8483868 C17.014406,48.5422056 17.699891,47.273331 18.4967401,46.0592927 L18.4967401,46.0592927 C18.7178469,45.7095993 18.9394942,45.3603554 19.1162715,45.0102125 L19.1162715,45.0102125 C19.3373782,44.5692753 19.4925313,44.1090105 19.6693086,43.6676237 L19.6693086,43.6676237 C20.0450278,42.729115 20.5321114,41.8279129 21.0635244,40.9451394 L21.0635244,40.9451394 L21.1073132,40.8718746 C21.2846311,41.4782195 21.4614084,42.1043415 21.5943968,42.7111359 L21.5943968,42.7111359 C21.7490093,43.4649094 21.7717146,44.2380105 21.6387262,44.9922334 L21.6387262,44.9922334 C21.5279026,45.5073345 21.3289606,46.004007 21.3511253,46.5375366 L21.3511253,46.5375366 C21.3949142,47.2549024 21.8376682,47.9174321 22.0814803,48.5979408 L22.0814803,48.5979408 C22.2355522,49.1130418 22.302587,49.646122 22.3247517,50.180101 L22.3247517,50.180101 C22.3907053,51.0075889 22.9215777,51.927669 22.5458585,52.6998711 L22.5458585,52.6998711 C21.37329,55.1283972 21.9263271,57.8697596 21.2624664,60.4268362 L21.2624664,60.4268362 C20.9083712,61.7325679 19.8460858,62.9650348 19.9347448,64.3080732 L19.9347448,64.3080732 C20.0017796,65.264561 20.0898979,66.2030697 20.2445104,67.1595575 L20.2445104,67.1595575 C20.2666752,67.4535157 20.3553341,67.7294948 20.4877819,68.0054739 L20.4877819,68.0054739 C20.5764408,68.1529024 20.6872645,68.281453 20.7980882,68.4100035 L20.7980882,68.4100035 C20.7094292,68.4473101 20.6207703,68.5205749 20.5548167,68.7044111 L20.5548167,68.7044111 C20.3553341,69.1831045 20.5548167,69.6982056 21.0413596,69.9926132 L21.0413596,69.9926132 C21.2403016,70.0843066 21.4614084,70.1391429 21.6830557,70.176 L21.6830557,70.176 C21.9922807,70.2497143 22.302587,70.2865714 22.6123527,70.2865714 L22.6123527,70.2865714 C22.7010116,70.2865714 22.8112947,70.2685923 22.8999536,70.2497143 L22.8999536,70.2497143 C23.231884,70.3782648 23.5854385,70.4708571 23.9395336,70.5625505 L23.9395336,70.5625505 C23.9395336,70.6362648 23.9395336,70.7099791 23.9616984,70.7832439 L23.9616984,70.7832439 C23.9616984,70.8569582 24.0060278,70.9486516 24.072522,70.9855087 L24.072522,70.9855087 C24.1168515,71.0043868 24.1828051,71.0223659 24.2492993,71.0223659 L24.2492993,71.0223659 L25.4440325,71.0223659 L25.4440325,70.7648153 C25.732174,70.7832439 25.9976102,70.7099791 26.2187169,70.5625505 L26.2187169,70.5625505 C26.3295406,70.4519791 26.3954942,70.3234286 26.4398237,70.176 L26.4398237,70.176 C26.7717541,69.2563693 27.1036845,68.3367387 27.4134501,67.39823 L27.4134501,67.39823 C27.5680626,67.0121289 27.6794269,66.6075993 27.7453805,66.2030697 L27.7453805,66.2030697 C27.8783689,65.5589686 27.9221578,64.896439 27.8783689,64.2343589 L27.8783689,64.2343589 C27.4577796,60.8497944 28.3870766,57.4463519 28.0773109,54.0429094 L28.0773109,54.0429094 C27.899993,52.0009338 28.0102761,49.9409791 28.4530302,47.9354111 L28.4530302,47.9354111 C28.5643944,47.4755958 28.6746775,47.0157805 28.719007,46.5555157 L28.719007,46.5555157 C28.8076659,45.6911707 28.6968422,44.8268258 28.7633364,43.9804599 L28.7633364,43.9804599 C28.7849606,43.6860523 28.82929,43.3916446 28.8736195,43.0972369 L28.8736195,43.0972369 C29.1833852,41.2579756 29.3601624,39.3998362 29.3823271,37.5416969 L29.3823271,37.5416969 C29.3823271,36.9349024 29.3385383,36.30923 29.2498794,35.7019861 L29.2498794,35.7019861 C29.4709861,35.6471498 29.6926334,35.555007 29.8472459,35.4075784 L29.8472459,35.4075784 C30.0467285,35.1873345 30.0018585,34.8929268 30.0018585,34.6169477 L30.0018585,34.6169477 C30.0018585,33.9728467 30.3337889,33.3471742 30.5992251,32.7403798 L30.5992251,32.7403798 C30.9311555,31.8944634 31.2187564,31.029669 31.4404037,30.1648746 L31.4404037,30.1648746 C31.6615104,29.4659373 31.7944988,28.7301429 31.816123,27.9943484 L31.816123,27.9943484 C31.816123,27.9206341 31.816123,27.8469199 31.7944988,27.7732056 L31.7944988,27.7732056 C31.8831578,27.7183693 31.9491114,27.6630836 31.9934408,27.5898188 L31.9934408,27.5898188 C32.0593944,27.4792474 32.0820998,27.368676 32.1042645,27.258554 L32.1042645,27.258554 C32.1923828,26.7803101 32.258877,26.3204948 32.347536,25.8418014 L32.347536,25.8418014 C32.4134896,25.5109861 32.457819,25.1612927 32.5243132,24.8300279 L32.5243132,24.8300279 C32.7681253,23.4690105 32.989232,22.1075436 33.2325035,20.7460767 L33.2325035,20.7460767 C33.2984571,20.3968328 33.3427865,20.0287108 33.4092807,19.6794669 L33.4092807,19.6794669 L33.586058,18.6303868 C33.6087633,18.5018362 33.6303875,18.3728362 33.6530928,18.2627143 L33.6530928,18.2627143 C34.2499188,17.5457979 33.7190464,16.5335749 33.6747169,15.6872091 L33.6747169,15.6872091 C33.6747169,15.4669652 33.6303875,15.2458223 33.5644339,15.0251289 L33.5644339,15.0251289 C33.3649513,14.3994564 32.9227378,13.6456829 32.1702181,13.4613972 L32.1702181,13.4613972 C31.418239,13.2591324 30.6657193,13.0015819 29.9802343,12.6887456 L29.9802343,12.6887456 C29.8472459,10.7204843 30.4002831,8.69693728 29.8029165,6.7835122 L29.8029165,6.7835122 C29.5812691,6.08457491 29.2277146,5.42249477 29.116891,4.70512892 L29.116891,4.70512892 C29.0066079,3.82190592 29.2942088,2.8658676 28.8514548,2.03748084 L28.8514548,2.03748084 C28.5195244,1.39382927 27.7670046,0.934013937 26.9706961,0.694442509 L26.9706961,0.694442509 C26.1743875,0.455320557 25.3115847,0.400484321 24.4709466,0.326770035 L24.4709466,0.326770035 C23.9573735,0.291261324 22.8896821,0.195522648 21.7863109,0.195522648 L21.7863109,0.195522648 C20.608877,0.195522648 19.3903573,0.304745645 18.7621763,0.713320557 M27.3247912,28.8407143 C27.258297,28.7117143 27.1480139,28.5827143 27.059355,28.4541638 L27.059355,28.4541638 C26.9706961,28.2887561 26.9490719,28.1233484 26.9490719,27.9386132 L26.9490719,27.9386132 C26.9047425,26.8171672 26.9928608,25.6948223 27.258297,24.6093345 L27.258297,24.6093345 C27.2804617,24.4803345 27.3247912,24.351784 27.3469559,24.2232334 L27.3469559,24.2232334 C27.4356148,24.1863763 27.5237332,24.1310906 27.5902274,24.0578258 L27.5902274,24.0578258 C27.701051,23.9472544 27.8113341,23.8182544 27.8783689,23.6897038 L27.8783689,23.6897038 C28.1216404,23.2667456 28.3649118,22.843338 28.5638538,22.4203798 L28.5638538,22.4203798 C28.630348,22.2729512 28.7406311,22.1259721 28.8957842,22.0895645 L28.8957842,22.0895645 C28.8514548,23.1561742 28.9839026,24.2600906 28.4530302,25.235007 L28.4530302,25.235007 C28.3422065,25.4004146 28.2762529,25.5658223 28.2319234,25.7316794 L28.2319234,25.7316794 C28.1881346,26.0076585 28.3205824,26.2836376 28.2762529,26.5591672 L28.2762529,26.5591672 C28.2540882,26.7065958 28.1881346,26.8351463 28.1432645,26.9641463 L28.1432645,26.9641463 C28.098935,27.1111254 28.1432645,27.258554 28.2762529,27.3502474 L28.2762529,27.3502474 C28.2984176,27.368676 28.3422065,27.3871045 28.3649118,27.3871045 L28.3649118,27.3871045 C28.3422065,27.4608188 28.3422065,27.5340836 28.3422065,27.6077979 L28.3422065,27.6077979 C28.3205824,27.7552265 28.3205824,27.9022056 28.2984176,27.9943484 L28.2984176,27.9943484 C28.2540882,28.4361847 28.2319234,28.8955505 28.2319234,29.3373868 L28.2319234,29.3373868 C28.2319234,29.8340592 28.2540882,30.3123031 28.2540882,30.8089756 L28.2540882,30.8089756 C28.2540882,30.9564042 28.2319234,31.1029338 28.1654292,31.2319338 L28.1654292,31.2319338 C28.1216404,31.3051986 28.0551462,31.3609338 27.988652,31.41577 L27.988652,31.41577 C27.9443225,31.2503624 27.8783689,31.1029338 27.8113341,30.9564042 L27.8113341,30.9564042 C27.5464385,30.4408537 27.3026265,29.907324 27.3691206,29.3553659 L27.3691206,29.3553659 L27.3469559,29.3553659 C27.4134501,29.1899582 27.3912854,29.006122 27.3247912,28.8407143" id="Fill-119" mask="url(#mask-8)"></path>
                    </g>
                    <g id="Group-171" transform="translate(158.396752, 55.917679)">
                        <polygon id="Fill-122" fill="#302D3D" points="11.0846912 4.15312578 11.8372109 3.58273902 11.1733501 3.56431045 10.819255 4.00569721"></polygon>
                        <polygon id="Fill-124" fill="#67617F" points="5.73039443 8.20017491 6.52670302 7.35425854 6.70402088 7.20682997 9.11565197 5.11001812 9.93412529 4.39220279 10.3103852 4.35534564 10.8634223 3.89553031 11.1953527 4.13465226 10.6644803 4.64975331 10.6644803 4.9257324 9.82330162 5.6799554 7.456 7.81407387 7.30138747 7.96105296 6.34992575 8.69684739"></polygon>
                        <polygon id="Fill-126" fill="#302D3D" points="6.70391276 7.20682997 9.11554385 5.10956864 9.82373411 5.6799554 7.45643248 7.81407387"></polygon>
                        <path d="M8.90508701,3.86626934 C9.57543503,3.75210209 10.436616,4.95040871 10.8296346,6.54290697 C11.2221125,8.13540523 10.996681,9.51889652 10.3257923,9.63306376 C9.65598492,9.74723101 8.79426334,8.54892439 8.40178538,6.95642613 C8.00930742,5.36392787 8.23473898,3.98043659 8.90508701,3.86626934" id="Fill-128" fill="#FFBFBF"></path>
                        <path d="M20.642881,68.7413582 C20.443939,69.2011735 20.642881,69.7347031 21.1294239,70.0106822 C21.3289065,70.1028251 21.5500132,70.1576613 21.77112,70.1945185 C22.0808856,70.2682328 22.3906513,70.3050899 22.7004169,70.3050899 C23.0766768,70.2866613 23.4529367,70.1576613 23.8291965,70.1208042 C23.873526,70.1208042 23.9173148,70.1208042 23.9616443,70.1392328 C24.0059738,70.1760899 24.0281385,70.212947 24.0059738,70.2682328 C24.0059738,70.452069 24.0281385,70.6359052 24.0503032,70.8201909 C24.0281385,70.9303129 24.1167974,71.0408843 24.27141,71.0593129 L24.3600689,71.0593129 L25.5548021,71.0593129 C25.5769668,70.1760899 25.4661432,69.3117449 25.200707,68.4653791 C25.1785422,68.3916648 25.1563775,68.3368286 25.1125886,68.2815429 C25.001765,68.1894 24.8687766,68.1156857 24.7363288,68.0972571 C24.4487278,67.9871352 24.1167974,67.950278 23.8070318,67.9687066 C23.4307719,68.0055638 23.0988415,68.2262571 22.7669111,68.3916648 C22.4349807,68.557522 21.9927673,68.7229296 21.5943427,68.6307868 C21.1959181,68.5390934 20.841823,68.2446857 20.642881,68.7413582" id="Fill-130" fill="#3D3A56"></path>
                        <path d="M3.03105429,67.9319394 C2.6991239,68.226347 2.27853457,68.465469 1.81415638,68.6124481 L1.61467378,68.7045909 C1.59304965,68.7045909 1.57088492,68.7230195 1.54872019,68.7414481 C1.54872019,68.7783052 1.54872019,68.7962843 1.57088492,68.8331415 C1.92498005,69.2749777 2.58830023,69.4772425 3.18620742,69.3298139 C3.31865522,69.3113854 3.45110302,69.2565491 3.53976195,69.1828348 C3.71707981,69.0174272 3.80519814,68.8147129 3.80519814,68.5940195 C3.87169234,68.3733261 3.84952761,68.1342042 3.76140928,67.9135108 C3.49543248,67.3246955 3.38514942,67.582246 3.03105429,67.9319394" id="Fill-132" fill="#FFBFBF"></path>
                        <path d="M7.63304756,70.2131268 C7.63304756,70.2868411 7.63304756,70.3601059 7.5887181,70.4153916 C7.47843503,70.5807993 7.19083411,70.5807993 6.96918677,70.5439422 C6.92485731,69.9187192 6.83673898,69.2934962 6.70375058,68.6862523 C6.28316125,68.6678237 5.97393619,69.0170676 5.73012413,69.3114753 L5.13275754,70.1025554 C5.04409861,70.2315554 4.93381555,70.3601059 4.77920302,70.4338202 C4.66837935,70.4891059 4.53593155,70.5259631 4.40294316,70.5439422 C3.27416357,70.6913707 2.12375986,70.3969631 1.03985035,70.1025554 C0.884697216,70.0656983 0.730084687,70.010862 0.574931555,69.9371477 C0.177047564,69.6980258 0.0662238979,69.2197819 0.353824826,68.8700885 C0.818743619,68.3549875 1.83615893,68.5019666 2.41136079,68.0790084 C2.34486659,68.373416 2.25674826,68.6678237 2.12375986,68.9622314 C2.89844432,68.8700885 3.40715197,68.2812732 4.02668329,67.8951721 C4.18129582,67.7846007 4.35861369,67.7113359 4.55755568,67.6744787 C4.71270882,67.6560502 4.86732135,67.6744787 5.00030974,67.7113359 C5.7079594,67.858315 6.37182019,68.1342941 6.94702204,68.5019666 C7.16866937,68.6493951 7.54438863,68.8700885 7.6552123,69.1092105 C7.74387123,69.3851895 7.63304756,69.9002906 7.63304756,70.2131268" id="Fill-134" fill="#3D3A56"></path>
                        <path d="M22.8554619,1.90879547 C25.3849445,1.90879547 27.4354527,3.61366307 27.4354527,5.7167676 C27.4354527,7.81987213 25.3849445,9.52473972 22.8554619,9.52473972 C20.3259794,9.52473972 18.2754712,7.81987213 18.2754712,5.7167676 C18.2754712,3.61366307 20.3259794,1.90879547 22.8554619,1.90879547" id="Fill-136" fill="#FFBFBF"></path>
                        <path d="M31.8606687,28.1415523 C31.8385039,28.8773467 31.7276803,29.5947125 31.4844088,30.2936498 C31.2633021,31.1584443 30.9978659,32.0227892 30.6437708,32.8691551 C30.3783346,33.476399 30.0464042,34.101622 30.0464042,34.745723 C30.0464042,35.0217021 30.0907336,35.3156603 29.891251,35.5368031 C29.7144738,35.6837822 29.4933671,35.7939042 29.249555,35.8491899 C29.0062835,35.9044756 28.8073415,36.0519042 28.6965179,36.254169 C28.4975759,35.9966185 28.3424227,35.7206394 28.2321397,35.4078031 C27.8337151,34.3960296 27.4574552,33.3842561 27.1255248,32.354054 C27.0595712,32.2434826 27.081736,32.0965035 27.1476896,31.9863815 C27.2141838,31.9495244 27.280678,31.9126672 27.3466316,31.8942387 C27.5682789,31.8205244 27.7893856,31.7104024 27.9661629,31.5629739 C28.0548218,31.5081376 28.121316,31.4344233 28.1656455,31.3422805 C28.2321397,31.2132805 28.2543044,31.0663014 28.2543044,30.9193223 C28.2543044,30.4410784 28.2543044,29.9444059 28.2321397,29.466162 C28.2321397,29.0243258 28.2321397,28.5645105 28.2986339,28.1231237 C28.2986339,28.0309808 28.320258,27.9024303 28.3424227,27.7370226 C28.3867522,27.4421655 28.4532464,27.1113502 28.6300237,27.0007787 C28.9181652,26.8353711 29.7588032,27.0560645 30.0685689,27.0929216 C30.621606,27.1482073 31.1746432,27.2399007 31.7055155,27.313615 C31.8163392,27.5895941 31.8606687,27.8655732 31.8606687,28.1415523" id="Fill-138" fill="#005C7C"></path>
                        <path d="M13.4078255,9.96626132 C13.2310483,10.260669 12.8104589,10.4076481 12.4785285,10.5919338 L11.3502896,11.2355854 C11.1951364,11.3457073 10.9961944,11.400993 10.7967118,11.400993 C10.6199346,11.3457073 10.465322,11.2355854 10.3766631,11.0701777 L10.3544984,11.0517491 L10.1333916,10.7204843 L9.0267768,9.17518118 C8.894329,9.02820209 8.8278348,8.86234495 8.8278348,8.69693728 C8.8278348,8.623223 8.87216427,8.54995819 8.87216427,8.4762439 C8.87216427,8.25555052 8.80567007,8.03485714 8.65105754,7.85057143 C8.56239861,7.70359233 8.38508074,7.59302091 8.38508074,7.44604181 C8.38508074,7.243777 8.40724548,7.0415122 8.51806914,6.85722648 C8.62889281,6.69181882 8.80567007,6.52641115 9.00461206,6.43426829 C9.11543573,6.37898258 9.2262594,6.30526829 9.33654246,6.24998258 C9.40303666,6.21357491 9.46953086,6.19514634 9.53602506,6.17671777 C9.71280232,6.13986063 9.89012019,6.26841115 10.0890622,6.26841115 C10.8853708,6.71024739 11.1951364,7.55661324 11.8146677,8.16340767 C12.1687629,8.51310105 12.2130923,8.77065157 12.6115169,9.0834878 C12.6774705,9.13832404 12.7439647,9.17518118 12.7882942,9.2304669 C12.8769531,9.30373171 12.9434473,9.37744599 12.9877768,9.46958885 C13.0537304,9.63499652 13.4964845,9.81883275 13.4078255,9.96626132" id="Fill-140" fill="#005C7C"></path>
                        <path d="M21.2402476,9.52469477 C21.572178,10.0950815 21.8376142,10.7387331 21.7267905,11.3828341 C21.7051664,11.5482418 21.6386722,11.714099 21.5278485,11.861078 C21.2180828,12.2656077 20.5320573,12.339322 19.9568555,12.3577505 C19.713584,12.339322 19.4703125,12.4130362 19.2708299,12.5415868 C19.1162174,12.7258725 19.1162174,13.0014021 19.3151594,13.1672592 C19.4924773,13.3326669 19.7357487,13.4616669 20.0011849,13.5349317 C20.9304819,13.8661965 21.9041084,14.1606042 22.9220643,14.0684613 C23.3864425,14.0316042 23.8291965,13.9214822 24.2935747,13.8661965 C24.8022824,13.8293394 25.2893659,13.7924822 25.7980735,13.7924822 C26.3954401,13.7745031 26.9928067,13.7192174 27.5901733,13.6823603 L29.1833311,13.5533603 C29.27199,13.5533603 29.360649,13.5349317 29.4266026,13.479646 C29.5374262,13.369524 29.3828137,13.2041164 29.2498253,13.1119735 C28.4091872,12.5968725 27.3247371,12.2292 26.8603589,11.456099 C26.6387116,11.0884265 26.572758,10.6470397 26.3954401,10.2604892 C26.2186629,9.87438815 25.9753914,9.5062662 25.8645677,9.10173659 C25.8202383,8.75204321 25.7759088,8.38392125 25.7980735,8.03467735 C25.7980735,7.6665554 25.643461,7.3173115 25.3558601,7.05976098 C25.0460944,6.82063902 24.5811756,6.74692474 24.1605863,6.72849617 C23.0988415,6.69163902 21.9706026,6.89390383 21.2180828,7.51957631 C21.0191408,7.68498397 20.8423636,7.88724878 20.642881,8.03467735 C20.443939,8.18165645 20.1563381,8.23694216 20.2887858,8.4207784 C20.4217742,8.60506411 20.6872104,8.73361463 20.8423636,8.91745087 C20.9969761,9.12016516 21.1294239,9.32242997 21.2402476,9.52469477" id="Fill-142" fill="#FFBFBF"></path>
                        <path d="M30.267619,14.8595864 C29.9800181,16.2758895 29.537264,17.655785 28.9177327,18.9983739 C28.6079671,19.6056178 28.3425309,20.2312902 28.1214241,20.8565132 C27.9446469,21.4269 27.9884357,22.0336944 27.8338232,22.6040812 C27.6343406,23.3218965 27.4353986,24.0392624 27.2807861,24.7566282 C27.0148093,25.842116 26.9045262,26.9640115 26.9710204,28.0863564 C26.9710204,28.2701927 27.0148093,28.4360498 27.0813035,28.6014575 C27.1477977,28.730008 27.2807861,28.8405794 27.3467397,28.9875585 C27.4575633,29.2266805 27.4353986,29.5026596 27.2807861,29.723353 C27.1699624,29.9260672 27.0148093,30.1283321 26.8158673,30.2937397 C24.7583313,30.8088408 22.5456422,30.6434331 20.3994473,30.7535551 C18.4084056,30.8456979 16.4168232,31.1953913 14.4701109,30.9005341 C14.2484636,30.1651892 14.6247234,29.3925376 14.9344891,28.6747223 C15.8416213,26.596339 16.8595773,24.4253634 16.7044241,22.2364087 C16.6828,21.9788582 16.6606353,21.7213077 16.5941411,21.4821857 C16.2843754,19.9368826 16.6163058,18.3362937 17.1915077,16.8278477 C17.5450622,15.8897885 17.5234381,14.8964436 17.4347791,13.9215272 C17.3904497,13.6086909 17.3904497,13.2958547 17.4126144,12.9645899 C17.4569439,12.6337746 17.5893916,12.3393669 17.8332037,12.0818164 L17.8775332,12.0449592 C17.8996979,12.0081021 17.9656515,12.0265307 18.0321457,12.0449592 C18.0764752,12.0633878 18.0986399,12.0633878 18.1429694,12.0449592 L18.1645935,12.0265307 C18.1867582,12.0081021 18.208923,12.0081021 18.2310877,12.0265307 C18.2754172,12.0449592 18.2975819,12.1371021 18.4084056,12.1550812 C18.5630181,12.1735098 18.740336,12.1919383 18.8949485,12.1919383 C19.0944311,12.1919383 19.2933731,12.2287955 19.4923151,12.2656526 L19.5144798,12.2656526 C19.8020807,12.3025098 20.0896817,12.2840812 20.3772826,12.2103669 C20.5546005,12.1735098 20.7313777,12.1186735 20.9086956,12.0449592 C21.0411434,12.0081021 21.1741318,11.9528164 21.3287443,11.9348373 C21.5276863,11.8242659 21.4833568,11.3644505 21.5276863,11.1617362 C21.5503916,10.9594714 21.6163452,10.7756352 21.6828394,10.591799 C21.8817814,10.3158199 22.2358766,10.1499627 22.6343012,10.1315341 C23.010561,10.1131056 23.408445,10.1499627 23.7625401,10.223677 C24.5810135,10.3158199 25.4221921,10.2973913 26.2406654,10.462799 C26.63909,10.5365132 27.0813035,10.6650638 27.4575633,10.4996561 C27.568387,10.5180847 27.568387,10.591799 27.568387,10.6834923 C27.568387,10.7756352 27.5462223,10.8493495 27.5018928,10.9410429 C27.3689044,11.4561439 27.8338232,11.9164087 28.2760367,12.2840812 C28.4755193,12.4499383 28.696626,12.5969174 28.9398974,12.7254679 C29.1615448,12.8176108 29.3826515,12.8360394 29.6037582,12.9281822 C29.7810761,13.001447 29.9356886,13.130447 30.0465123,13.2589976 C30.1789601,13.4248547 30.267619,13.6086909 30.2897838,13.7925272 C30.4000668,14.1606491 30.356278,14.509893 30.267619,14.8595864" id="Fill-144" fill="#005C7C"></path>
                        <path d="M30.267619,14.8595864 C29.9800181,16.2758895 29.537264,17.655785 28.9177327,18.9983739 C28.6079671,19.6056178 28.3425309,20.2312902 28.1214241,20.8565132 C27.9446469,21.4269 27.9884357,22.0336944 27.8338232,22.6040812 C27.6343406,23.3218965 27.4353986,24.0392624 27.2807861,24.7566282 C27.2364566,24.7750568 27.1921271,24.7934854 27.1477977,24.8119139 C26.8823615,24.9220359 26.5725958,24.9957502 26.2849949,25.0510359 C25.7535819,25.1058721 25.2005448,25.0874436 24.6696724,25.0141787 L21.5055216,24.6644854 C20.2442942,24.5175063 18.8949485,24.3520986 17.9656515,23.6527118 C17.4569439,23.2666108 17.1028487,22.7515098 16.7265889,22.2548373 C16.7044241,21.9972868 16.6828,21.7397362 16.6163058,21.5006143 C16.3065401,19.9553111 16.6384705,18.3547223 17.2136724,16.8462763 C17.5672269,15.9082171 17.5456028,14.9148721 17.4569439,13.9399557 C17.4126144,13.6271195 17.4126144,13.3142833 17.4347791,12.9830185 C17.4791086,12.6522031 17.6115564,12.3577955 17.8553684,12.1002449 C17.921322,12.0818164 17.9878162,12.0633878 18.0543104,12.0633878 C18.0986399,12.0633878 18.1429694,12.0449592 18.1867582,12.0449592 L18.2532524,12.0449592 C18.3197466,12.0449592 18.4084056,12.0449592 18.4748998,12.0633878 C18.6295123,12.1002449 18.7625007,12.1550812 18.9171132,12.2103669 L18.939278,12.2103669 C19.1387606,12.2656526 19.3377026,12.2840812 19.5366445,12.2840812 C19.8242455,12.2840812 20.1340111,12.247224 20.4216121,12.2287955 C20.7757072,12.1735098 21.1519671,12.2287955 21.4617327,12.376224 C21.6606747,12.5047746 21.8596167,12.6701822 22.0369346,12.8176108 C22.2580413,12.9645899 22.5013128,13.0751613 22.766749,13.1488756 C24.6696724,13.75567 26.7937026,13.7188129 28.6522965,13.0383042 C28.8290738,12.9466108 29.0285564,12.9097537 29.2496631,12.9097537 C29.4048162,12.9281822 29.537264,12.9830185 29.6702524,13.0567328 C29.8027002,13.130447 29.9356886,13.1852833 30.0681364,13.240569 C30.2011248,13.4064261 30.2897838,13.5902624 30.3119485,13.7740986 C30.3784427,14.1422206 30.356278,14.509893 30.267619,14.8595864" id="Fill-146" fill="#000000"></path>
                        <path d="M32.192491,13.6455031 C31.3075234,13.4248098 30.4668854,13.1119735 29.6700362,12.7258725 C29.5375884,12.6521582 29.4046,12.5968725 29.2499875,12.5784439 C29.0505049,12.5784439 28.8293981,12.615301 28.6526209,12.7074439 C26.7718622,13.369524 24.6694561,13.4063812 22.7670733,12.8175659 C22.5016371,12.744301 22.2583657,12.6337296 22.0367183,12.486301 C21.8599411,12.3208934 21.6609991,12.1739143 21.4615165,12.0449143 C20.7311615,11.6588132 19.7359109,12.1186286 18.916897,11.861078 C18.7844492,11.8057923 18.6298367,11.7689352 18.4746835,11.714099 C17.8329875,11.585099 17.1691267,12.1186286 16.5495954,11.9527714 C16.3063239,12.486301 16.1295466,13.0382592 16.0408877,13.5902174 C15.9522288,14.2343185 15.9078993,14.87797 15.8857346,15.5216216 C15.8635698,15.9081721 15.8635698,16.2947226 15.8857346,16.6808237 C16.0408877,16.6992523 16.1738761,16.7729666 16.2841592,16.8830885 C16.3506534,17.0120885 16.3284886,17.1590676 16.2398297,17.269639 C15.7754515,18.262984 15.3105327,19.2563289 14.6023425,20.1391024 C15.089426,20.3782244 15.5543448,20.6726321 15.9743935,21.0038969 C16.749078,21.6844056 17.1247972,22.6413429 17.9659759,23.2665659 C18.916897,23.9839317 20.2446186,24.1497889 21.5058459,24.2967679 L24.6694561,24.6648899 C25.2008691,24.7381547 25.7539063,24.7565833 26.2847787,24.7012976 C26.5950849,24.6648899 26.8821452,24.572747 27.1475814,24.4621756 C27.3248993,24.4068899 27.5016766,24.3151965 27.634665,24.2046251 C27.744948,24.0945031 27.8557717,23.9655031 27.9222659,23.8369526 C28.1655374,23.4135449 28.4088088,22.9905868 28.6082914,22.5676286 C28.6747856,22.4202 28.7850687,22.2363638 28.9840107,22.2179352 C30.1565791,21.3347122 31.263194,20.4335101 32.4357624,19.5507366 C32.9006812,19.2194718 33.3207299,18.8517993 33.6969898,18.4468202 C34.2721916,17.7294544 33.7413193,16.7176808 33.6969898,15.8528864 C33.6969898,15.632193 33.6526603,15.4114997 33.6083309,15.1908063 C33.3650594,14.5835624 32.9228459,13.8293394 32.192491,13.6455031" id="Fill-148" fill="#005C7C"></path>
                        <path d="M13.4078255,9.96626132 C13.2310483,10.260669 12.8104589,10.4076481 12.4785285,10.5919338 L11.3502896,11.2355854 C11.1951364,11.3457073 10.9961944,11.400993 10.7967118,11.400993 C10.6199346,11.3457073 10.465322,11.2355854 10.3766631,11.0701777 L10.3766631,10.9411777 C10.3766631,10.7941986 10.3988278,10.64677 10.4431573,10.4997909 C10.5534404,10.2975261 10.7307582,10.1132404 10.9297002,9.96626132 C11.3502896,9.63499652 11.8368325,9.37744599 12.3898696,9.2304669 C12.4785285,9.19360976 12.5671875,9.19360976 12.6553058,9.21203833 C12.6996353,9.21203833 12.7218,9.2304669 12.7439647,9.24889547 C12.8326237,9.32216028 12.8991179,9.39587456 12.9434473,9.48801742 C13.0537304,9.63499652 13.4964845,9.81883275 13.4078255,9.96626132" id="Fill-150" fill="#000000"></path>
                        <path d="M16.0408877,11.9162739 C15.6646278,11.8978453 15.3548622,11.6771519 15.089426,11.4564585 L14.2487879,10.7939289 C14.1822937,10.7570718 14.1379643,10.7022355 14.0936348,10.6653784 C14.0493053,10.5916641 14.0049759,10.5179498 13.9833517,10.444685 C13.8060339,10.0765631 13.5184329,9.74529826 13.1643378,9.46976864 C13.0983842,9.39605436 13.0097253,9.35919721 12.9210664,9.32234007 C12.8324074,9.3039115 12.7442891,9.32234007 12.6556302,9.34076864 C12.102593,9.48819721 11.6155095,9.74529826 11.1954608,10.0765631 C10.9738135,10.2235422 10.8192009,10.3893993 10.7083773,10.6100927 C10.6424237,10.7570718 10.6202589,10.9045003 10.6424237,11.0514794 C10.6424237,11.5481519 10.7748715,12.0268453 11.0403077,12.4682321 C11.0846371,12.5419463 11.1289666,12.5967826 11.1732961,12.6704969 C11.460897,13.0750265 11.8149921,13.4431484 12.2128761,13.7923923 L12.7442891,14.2890648 C13.2529968,14.7677582 13.7838691,15.2460021 14.3374469,15.6873889 C14.5363889,15.8712251 14.7796603,16.0002251 15.0450965,16.1107965 C15.3326974,16.2024899 15.6424631,16.1656328 15.8635698,16.0002251 C15.9743935,15.8896537 16.0408877,15.7795317 16.1073819,15.6505317 C16.4387717,14.9147373 16.7712427,14.1605143 16.7934074,13.3510056 C16.7934074,13.0386188 16.7934074,12.707354 16.749078,12.3945178 C16.7047485,12.063253 16.4171476,11.9347024 16.0408877,11.9162739" id="Fill-152" fill="#005C7C"></path>
                        <path d="M29.4488213,37.670562 C29.4266566,39.5287014 29.2720441,41.3684122 28.9844432,43.2076735 C28.9401137,43.5020812 28.8957842,43.7964889 28.8736195,44.0908965 C28.8071253,44.9552415 28.917949,45.8200359 28.82929,46.6664017 C28.7849606,47.1262171 28.6525128,47.5860324 28.5638538,48.0458477 C28.1210998,50.0509662 28.0108167,52.1113704 28.187594,54.1349174 C28.4973596,57.5199314 27.5680626,60.9229244 27.988652,64.2895098 C28.0329814,64.9515899 27.988652,65.6141195 27.8556636,66.2577711 C27.7675452,66.6623007 27.6567216,67.0672798 27.5237332,67.4538303 C27.1923434,68.373461 26.8820371,69.2930916 26.5506473,70.2131718 C26.5063179,70.3601509 26.4398237,70.4891509 26.329,70.5992728 C26.1078933,70.7646805 25.7981276,70.8383948 25.4883619,70.8015376 C24.2049698,70.7646805 23.0102367,70.3048652 21.8598329,69.8634784 C21.7268445,69.8266213 21.5943968,69.752907 21.4835731,69.6796422 C21.2403016,69.4773774 21.2624664,69.1461125 21.1516427,68.8701334 C21.0413596,68.5941544 20.7537587,68.3366038 20.5986056,68.0606247 C20.4661578,67.8030742 20.3774988,67.5086666 20.3553341,67.2331369 C20.2007216,66.2946282 20.1120626,65.3381404 20.0455684,64.3996317 C19.9569095,63.0570429 21.0191949,61.8430045 21.37329,60.5368233 C22.0371508,57.9797467 21.4835731,55.2383843 22.6566821,52.8287362 C23.0324014,52.0560847 22.4793643,51.136454 22.4350348,50.3085167 C22.4128701,49.7749871 22.3242111,49.2414575 22.1917633,48.7263564 C21.9706566,48.0274192 21.5057378,47.3837676 21.4835731,46.6664017 C21.4614084,46.1513007 21.660891,45.6361997 21.771174,45.1210986 C21.9041624,44.3664261 21.9041624,43.6122031 21.7268445,42.8584296 C21.6165615,42.2327571 21.4397842,41.6255132 21.2403016,41.0187188 L21.1959722,41.0919836 C20.6650998,41.9752066 20.2007216,42.8768582 19.802297,43.8149174 C19.6249791,44.2747328 19.4703666,44.7161195 19.2487193,45.1575063 C19.071942,45.5256282 18.8508353,45.8564436 18.6291879,46.2061369 C17.8328794,47.4201753 17.1690186,48.6899488 16.5938167,49.9956805 C16.3283805,50.6397815 16.085109,51.2834331 15.8418376,51.9275341 C15.2888005,53.399123 14.7573875,54.8707118 14.2043503,56.3427502 C13.7615963,57.5015028 13.2750534,58.6233983 12.8328399,59.7826003 C12.2133086,61.4380254 11.615942,63.0754714 10.885587,64.6944889 C10.1995615,66.2393425 9.42541763,67.8215028 9.6686891,69.4405202 C9.04915777,69.6796422 8.38529698,69.7897641 7.72143619,69.7713355 C6.57103248,69.6796422 5.46495824,69.4589488 4.40267285,69.0908268 C3.9604594,68.998684 3.5620348,68.7964192 3.25226914,68.5204401 C2.76572622,68.0237676 2.87600928,67.2879732 3.03116241,66.6623007 C3.07495128,66.3683425 3.18577494,66.0923634 3.29659861,65.8163843 C3.47337587,65.4851195 3.73881206,65.1727328 3.91612993,64.8414679 C4.27022506,64.1978164 4.29184919,63.4615725 4.42483759,62.7810638 C4.55782599,62.1005551 4.86759165,61.3458826 5.5752413,60.9782101 C5.68606497,59.7457432 6.30559629,58.5501334 6.63752668,57.3540742 C6.88079814,56.4528721 6.96945708,55.5148129 7.16839907,54.5947328 C7.36734107,53.6751021 7.69981206,52.7554714 8.36313225,52.0192275 C8.31934339,51.2470254 8.51828538,50.492353 8.96049884,49.8118443 C9.07132251,49.6648652 9.15998144,49.499008 9.22593503,49.3520289 C9.2702645,49.1866213 9.29242923,49.0207641 9.29242923,48.873785 C9.35892343,48.229684 9.69085383,47.6413181 10.2217262,47.1630742 C10.0006195,46.482116 10.3103852,45.7831787 10.5758213,45.1395272 C10.9299165,44.3115899 11.084529,43.4283669 11.0401995,42.5455934 C10.9964107,42.306022 11.0185754,42.0489209 11.084529,41.8093495 C11.1510232,41.6255132 11.2618469,41.4785341 11.3278005,41.2946979 C11.3942947,41.0740045 11.4164594,40.8533111 11.4386241,40.6321683 C11.5272831,39.6388233 12.013826,38.7007641 12.5446984,37.8179906 C12.8550046,37.3028895 12.5890278,36.5850742 12.655522,36.0146875 C12.7663457,35.0581997 12.8987935,34.0648547 13.474536,33.2189383 C13.584819,33.0715098 13.6956427,32.9061021 13.783761,32.7402449 C13.8945847,32.5015725 13.9610789,32.262001 13.9610789,32.0049 C13.9832436,31.5814923 14.0497378,31.231799 13.87242,30.8456979 C15.0449884,30.0177606 16.6824756,29.7970672 18.2091392,29.7417815 C19.7358028,29.6864958 21.3067958,29.7970672 22.8112947,29.5210882 C23.2540487,29.4478233 23.6962622,29.3188233 24.1606404,29.2635376 C25.2229258,29.1349871 26.3068353,29.3372519 27.3469559,29.5395167 C27.2804617,30.0914749 27.5237332,30.6250045 27.78971,31.1401056 C28.8736195,33.1820812 29.4266566,35.407893 29.4488213,37.670562" id="Fill-154" fill="#302D3D"></path>
                        <path d="M24.2494615,38.0752714 L21.704842,42.8397314 C21.5940183,42.2140589 21.4172411,41.6072645 21.2182991,41.0000206 L21.1739696,41.0737348 L21.1739696,40.9820415 L22.5676448,38.4429439 L24.2494615,38.0752714 Z" id="Fill-156" fill="#000000"></path>
                        <path d="M31.8606687,28.1415523 C31.7055155,28.2336951 31.5287383,28.2885314 31.351961,28.2885314 C31.0638195,28.2885314 30.7983833,28.2701028 30.5107824,28.196838 L28.5419053,27.7734303 C28.4754111,27.7550017 28.4089169,27.7365732 28.3645875,27.7185941 C28.4089169,27.4241864 28.4754111,27.0929216 28.6521884,26.9823502 C28.9397893,26.8169425 29.780968,27.0376359 30.0907336,27.074493 C30.6437708,27.1297787 31.1968079,27.2219216 31.7276803,27.2951864 C31.8163392,27.5895941 31.8606687,27.8655732 31.8606687,28.1415523" id="Fill-158" fill="#000000"></path>
                        <path d="M33.542161,17.1958798 C33.5864905,17.3428589 33.6529847,17.4902875 33.6751494,17.6556951 C33.741103,18.0422456 33.7189383,18.4099181 33.63082,18.7964686 L33.4535021,19.8450993 L33.2767248,20.9117091 L32.5685346,24.9772317 L32.3917573,25.9890052 L32.1479452,27.4057578 C32.1257805,27.5158798 32.1041564,27.6448798 32.0376622,27.7365732 C31.882509,27.9392875 31.6392376,28.067838 31.3516367,28.067838 C31.0640357,28.067838 30.7985995,28.0494094 30.5331633,27.9756951 L28.541581,27.5527369 C28.452922,27.5343084 28.3648037,27.5158798 28.2983095,27.4605941 C28.1658617,27.3689007 28.1215323,27.203493 28.1658617,27.074493 C28.1880265,26.9270645 28.2761448,26.7985139 28.2983095,26.6699634 C28.342639,26.3939843 28.2096506,26.1180052 28.25398,25.8420261 C28.2983095,25.6766185 28.3648037,25.4923328 28.4750868,25.3453537 C29.1389476,24.1313153 28.7632283,22.6961341 28.984335,21.3719739 C29.183277,20.3233432 29.6919847,19.3484268 30.4888339,18.5204895 C30.9753768,18.0053885 31.5505787,17.5455732 32.1922747,17.1405941 C32.4360868,16.9751864 32.8339708,16.6439216 33.1437364,16.5886359 C33.5643258,16.5517787 33.4756668,16.9751864 33.542161,17.1958798" id="Fill-160" fill="#005C7C"></path>
                        <path d="M18.4746835,1.35683728 C18.3195304,1.7433878 18.5633425,2.16634599 18.4525188,2.55289652 C18.3416951,2.99428328 17.8551522,3.28824146 17.6999991,3.7300777 C17.4788923,4.39215784 18.1649179,4.99940174 18.6514608,5.55135993 C20.48789,7.59333554 20.2446186,10.4259418 19.6250872,12.9281822 C19.1163796,14.9333007 18.4303541,16.901562 17.5232218,18.8145376 C17.2577856,19.403353 16.94802,20.0101474 16.3949828,20.4519836 C17.4129387,20.2128617 18.4968483,19.9737397 19.5142636,20.1944331 C20.7976557,20.4888408 21.9264353,21.537022 23.2314515,21.2983495 C24.0277601,21.1509209 24.5813378,20.5625551 25.2889875,20.2497188 C26.616709,19.6609035 28.2098668,20.0290254 29.6922009,20.2128617 C30.0019666,20.2681474 30.3560617,20.2681474 30.6436626,20.1760045 C30.8869341,20.0658826 31.0864167,19.918454 31.2188645,19.7346178 C31.8827253,19.0356805 32.2811499,18.1708861 32.3476441,17.2876631 C32.4135977,16.386461 32.0151731,15.5036875 31.263194,14.878015 C30.9534283,14.638893 30.5771684,14.4366282 30.333897,14.1422206 C30.0906255,13.8109557 29.9798019,13.4248547 29.9576371,13.0198756 C29.7808599,10.9963286 30.3782265,8.93592439 29.7586951,6.96766307 C29.5370478,6.26872578 29.1834933,5.60664564 29.0726696,4.88883031 C28.9618459,4.00605679 29.2499875,3.04956899 28.8072334,2.24006028 C28.475303,1.59595923 27.744948,1.1361439 26.9486394,0.897021951 C26.1523309,0.676328571 25.3111522,0.565757143 24.4705142,0.529349477 C23.3201104,0.474063763 18.9833912,0.0506560976 18.4746835,1.35683728" id="Fill-162" fill="#302D3D"></path>
                        <g id="Group-170" transform="translate(16.218097, 0.898955)" fill="#000000">
                            <path d="M3.40693573,12.0475213 C2.89822807,14.0526397 2.21220255,16.0024725 1.32723503,17.9158976 C1.48184756,17.658347 1.61483596,17.4007965 1.72565963,17.143246 C2.61062715,15.2298209 3.3182768,13.2615596 3.82752506,11.2564411 C4.44705638,8.75465017 4.69032784,5.92159443 2.85389861,3.87961882 C2.41114455,3.40137491 1.83594269,2.8678453 1.85810742,2.27947944 C1.7034949,2.44488711 1.5705065,2.64715192 1.48184756,2.84941672 C1.26074084,3.51149686 1.94676636,4.11874077 2.43330928,4.67069895 C4.26973852,6.71267456 4.02646705,9.54573031 3.40693573,12.0475213" id="Fill-164"></path>
                            <path d="M2.25658608,1.4696561 C2.43336334,1.28581986 2.56635174,1.08355505 2.65501067,0.844433101 C2.69879954,0.568454007 2.6766348,0.292474913 2.63284594,0.0164958188 C2.45552807,0.127067247 2.34524501,0.274046341 2.25658608,0.439454007 C2.12359768,0.789147387 2.27875081,1.13884077 2.25658608,1.4696561" id="Fill-166"></path>
                            <path d="M15.4433049,18.0445829 C15.2881517,18.2284192 15.0892097,18.3938268 14.8459383,18.4859697 C14.5361726,18.5781125 14.2042422,18.5965411 13.8944766,18.5228268 C12.4121425,18.3389906 10.79682,17.9524401 9.49180371,18.559684 C8.78361346,18.8725202 8.23057633,19.4608861 7.43426775,19.6083146 C6.1287109,19.8474366 4.99993132,18.8172345 3.71707981,18.5043983 C2.80940696,18.3021334 1.83632111,18.4675411 0.90702413,18.6882345 C0.729706265,19.0194993 0.486434803,19.313907 0.176669142,19.5714575 C1.19462506,19.3323355 2.27853457,19.0932136 3.29649049,19.313907 C4.5798826,19.6083146 5.70812158,20.6569453 7.01367842,20.4178233 C7.80998701,20.2703948 8.36302413,19.6820289 9.07121439,19.3691927 C10.3983954,18.7803774 11.9915531,19.1484993 13.4738872,19.3323355 C13.7841935,19.3876213 14.137748,19.3876213 14.425349,19.2954784 C14.6686204,19.1853564 14.868103,19.0379279 15.0010914,18.8540916 C15.3989754,18.4122554 15.7087411,17.9155829 15.9076831,17.4004819 C15.7974,17.6216247 15.6427875,17.8423181 15.4433049,18.0445829" id="Fill-168"></path>
                        </g>
                    </g>
                </g>
            </g>
        </g>
    </g>
</svg>