<?xml version="1.0" encoding="UTF-8"?>
<svg width="235px" height="151px" viewBox="0 0 235 151" version="1.1" xmlns="http://www.w3.org/2000/svg" xmlns:xlink="http://www.w3.org/1999/xlink">
    <!-- Generator: Sketch 59.1 (86144) - https://sketch.com -->
    <title>Ilustración / GT</title>
    <desc>Created with Sketch.</desc>
    <defs>
        <polygon id="path-1" points="0 0.39382032 234.38326 0.39382032 234.38326 124.811139 0 124.811139"></polygon>
        <path d="M20.8528134,0.936722944 C20.0456964,1.46751082 19.7275627,2.50620779 19.1966852,3.31154113 L19.1966852,3.31154113 C18.7083565,4.03320346 18.0079387,4.62674459 17.6466017,5.39024242 L17.6466017,5.39024242 L17.6466017,5.34709957 C17.5615042,5.51705628 17.4770613,5.70793074 17.4338579,5.89880519 L17.4338579,5.89880519 C17.2859192,6.493 17.4129109,7.1290303 17.5615042,7.701 L17.5615042,7.701 C17.6466017,8.01868831 17.7316992,8.33768398 18.0079387,8.50633333 L18.0079387,8.50633333 C18.2835237,8.67629004 18.6448607,8.63445455 18.9629944,8.69786147 L18.9629944,8.69786147 C18.9420474,8.74035065 18.9420474,8.80375758 18.9204457,8.84624675 L18.9204457,8.84624675 C18.2409749,12.0479697 20.1314485,15.2287749 23.2735097,16.1615758 L23.2735097,16.1615758 L23.2735097,16.3308788 C23.2735097,16.5008355 23.2525627,16.6492208 23.2525627,16.7976061 L23.2525627,16.7976061 C23.2525627,16.7976061 20.4914763,16.2249827 19.7485097,16.6067316 L19.7485097,16.6067316 C19.0061978,16.9884805 17.5615042,17.2852511 17.3278134,17.517961 L17.3278134,17.517961 C17.0947772,17.7519784 16.5638997,17.5826753 16.054624,18.8540823 L16.054624,18.8540823 C15.5656407,20.1477143 15.5014903,21.4629177 14.8652228,22.0564589 L14.8652228,22.0564589 C14.2283008,22.65 13.9095125,23.0735844 13.8669638,23.4978225 L13.8669638,23.4978225 C13.824415,23.9227143 13.9520613,24.0488745 13.6974234,24.176342 L13.6974234,24.176342 C13.4427855,24.3038095 13.1030501,24.8764329 13.2090947,25.1097965 L13.2090947,25.1097965 C13.2090947,25.1097965 13.3570334,25.6601948 12.9119081,25.9367013 L12.9119081,25.9367013 C12.6566156,26.1269221 12.5080223,26.4452641 12.529624,26.7636061 L12.529624,26.7636061 C12.529624,26.7636061 12.359429,27.3571472 11.9777994,27.5055325 L11.9777994,27.5055325 C11.5955153,27.6545714 11.3402228,28.5448831 11.3402228,28.5448831 L11.3402228,28.5448831 L10.0873259,29.965329 L7.62408078,27.2296797 C7.24179666,26.8060952 6.58392758,26.7636061 6.15909471,27.1662727 L6.15909471,27.1662727 L4.97034819,28.2690303 C4.50296657,28.3749264 4.0781337,28.6298615 3.7593454,28.990039 L3.7593454,28.990039 C3.48376045,29.2658918 3.27101671,29.5842338 3.12307799,29.9228398 L3.12307799,29.9228398 L2.46455432,30.516381 C2.25246518,30.7079091 2.12481894,30.9621905 2.12481894,31.2373896 L2.12481894,31.2373896 C1.95462396,31.6191385 2.01877437,32.0649481 2.29435933,32.3617186 L2.29435933,32.3617186 L3.86604457,34.1005065 L3.86604457,34.1214242 C3.31356546,34.1632597 2.76174095,34.3757056 2.33690808,34.7365368 L2.33690808,34.7365368 C-0.019637883,36.8139307 -0.0405849582,38.7226753 0.299150418,39.6136407 L0.299150418,39.6136407 C0.638231198,40.5032987 3.65330084,43.8540606 3.65330084,43.8540606 L3.65330084,43.8540606 C3.65330084,43.8540606 5.39518106,46.122329 7.90097493,47.3100649 L7.90097493,47.3100649 L7.87871866,47.3316364 C7.83616992,47.3741255 7.77267409,47.4375325 7.73012535,47.5009394 L7.73012535,47.5009394 L7.6882312,47.5434286 L7.64568245,47.5859177 L7.6031337,47.6493247 L7.56058496,47.6918139 L7.51869081,47.7761385 C7.51869081,47.79771 7.49643454,47.8192814 7.49643454,47.8192814 L7.49643454,47.8192814 C7.47614206,47.8617706 7.45454039,47.8826883 7.43359331,47.9251775 L7.43359331,47.9251775 L7.41264624,47.9676667 C7.39038997,48.0108095 7.37009749,48.0735628 7.34784123,48.1167056 L7.34784123,48.1167056 C7.32689415,48.1578874 7.32689415,48.1578874 7.32689415,48.1794589 L7.32689415,48.1794589 C7.32689415,48.2003766 7.30594708,48.2435195 7.2843454,48.285355 L7.2843454,48.285355 L7.26339833,48.3494156 C7.24179666,48.3912511 7.24179666,48.4128225 7.22084958,48.4553117 L7.22084958,48.4553117 C7.19990251,48.4984545 7.19990251,48.4984545 7.19990251,48.54029 L7.19990251,48.54029 L7.15735376,48.6671039 L7.13575209,48.7311645 C7.11480501,48.7945714 7.11480501,48.8579784 7.09385794,48.922039 L7.09385794,48.922039 L7.07225627,49.0063636 C7.07225627,49.0488528 7.05130919,49.0919957 7.05130919,49.1547489 L7.05130919,49.1547489 C7.05130919,49.2188095 7.05130919,49.2188095 7.02970752,49.260645 L7.02970752,49.260645 C7.00876045,49.3037879 7.02970752,49.3456234 7.00876045,49.3881126 L7.00876045,49.3881126 C6.98781337,49.4306017 7.00876045,49.4521732 7.00876045,49.4940087 L7.00876045,49.4940087 L7.00876045,49.6423939 L7.00876045,49.74829 L7.00876045,50.0032251 C6.94526462,53.2049481 7.13575209,53.6710216 7.13575209,53.6710216 L7.13575209,53.6710216 C7.13575209,53.6710216 7.51869081,54.6894545 8.60139276,54.7744329 L8.60139276,54.7744329 C8.74998607,54.7953506 8.92018106,54.7744329 9.06811978,54.7522078 L9.06811978,54.7522078 C10.4912117,54.4985801 13.8453621,53.9259567 15.0354178,54.1586667 L15.0354178,54.1586667 C15.7358357,54.2867879 17.0522284,54.0952597 17.986337,53.9259567 L17.986337,53.9259567 L18.2409749,53.8828139 L18.4111699,54.4351732 L18.9629944,54.2867879 L19.4310306,54.5404156 L19.7275627,54.7103723 C20.2584401,56.5550563 22.4670474,55.9183723 22.4670474,55.9183723 L22.4670474,55.9183723 L22.9972702,56.2157965 L28.3060446,56.3432641 C28.9004178,56.7034416 29.5379944,57.0002121 30.1749164,57.2342294 L30.1749164,57.2342294 C30.2593593,57.2551472 30.3444568,57.2760649 30.4295543,57.2969827 L30.4295543,57.2969827 C30.917883,57.3401255 31.4062117,57.3401255 31.9154875,57.3185541 L31.9154875,57.3185541 C32.3193733,57.3185541 32.6381616,57.2969827 32.6381616,57.2969827 L32.6381616,57.2969827 C32.6381616,57.2969827 32.5740111,55.855619 32.5098607,54.243645 L32.5098607,54.243645 C34.5273259,54.1586667 36.3327019,54.0318528 37.4154039,53.8409784 L37.4154039,53.8409784 C40.2393315,53.3533333 41.4071309,50.7667229 41.8529109,49.3881126 L41.8529109,49.3881126 C41.9805571,49.9398182 42.0656546,50.5117879 42.1291504,51.0844113 L42.1291504,51.0844113 C42.235195,51.5936277 42.3837883,52.0812727 42.5749304,52.5689177 L42.5749304,52.5689177 C42.7235237,52.9506667 42.9362674,53.3324156 43.1693036,53.6710216 L43.1693036,53.6710216 C45.2509192,52.9715844 43.9980223,51.8903983 43.5515877,51.4230173 L43.5515877,51.4230173 C43.1058078,50.9575974 43.849429,50.5751948 43.849429,50.5751948 L43.849429,50.5751948 C43.849429,50.5751948 44.4222006,50.1940996 44.3803064,49.8332684 L44.3803064,49.8332684 C44.3377577,49.4724372 44.2945543,49.0919957 46.1634262,49.1338312 L46.1634262,49.1338312 C48.0322981,49.1756667 47.9262535,47.6284069 47.9262535,47.6284069 L47.9262535,47.6284069 L42.0440529,39.1259957 C42.0440529,39.1259957 41.9380084,37.0263766 41.5557242,36.5171602 L41.5557242,36.5171602 C41.1740947,36.0085974 41.4706267,34.9267576 41.4706267,34.9267576 L41.4706267,34.9267576 C41.4706267,34.9267576 41.8745125,34.3332165 41.5347772,34.2691558 L41.5347772,34.2691558 C41.1943872,34.2064026 41.4706267,32.8702814 41.4706267,32.8702814 L41.4706267,32.8702814 L41.4496797,30.7288268 C41.4496797,30.7288268 41.768468,28.671697 41.5131755,28.1840519 L41.5131755,28.1840519 C41.3436351,27.9081991 41.3639276,27.5695931 41.5347772,27.314658 L41.5347772,27.314658 C41.5347772,27.314658 41.8529109,26.1484935 41.5347772,25.8308052 L41.5347772,25.8308052 C41.2159889,25.5124632 41.2801393,23.688697 41.3639276,22.2473333 L41.3639276,22.2473333 C41.4496797,20.805316 40.7918106,19.9784113 40.7918106,19.7659654 L40.7918106,19.7659654 C40.7918106,19.5535195 38.6250975,17.4120649 38.6250975,17.2218442 L38.6250975,17.2218442 C38.6250975,17.030316 37.2458635,16.2465541 36.4387465,16.0131905 L36.4387465,16.0131905 C35.6322841,15.7798268 35.2074513,15.6314416 35.2277437,15.5255455 L35.2277437,15.5255455 C35.2493454,15.4189957 33.9329526,14.9738398 33.9329526,14.9738398 L33.9329526,14.9738398 C33.9329526,14.9738398 32.7861003,14.8895152 32.3403203,14.3168918 L32.3403203,14.3168918 C31.8945404,13.7442684 30.556546,13.5749654 30.5139972,13.5749654 L30.5139972,13.5749654 C30.5139972,13.5324762 30.4930501,13.4893333 30.4930501,13.4684156 L30.4930501,13.4684156 L30.4714485,13.3416017 C30.5781476,13.171645 30.6625905,12.9807706 30.7483426,12.8114675 L30.7483426,12.8114675 L30.8327855,12.6415108 C31.3211142,12.6415108 31.7884958,12.4931255 32.191727,12.2172727 L32.191727,12.2172727 C32.5740111,11.8995844 32.828649,11.4119394 32.8502507,10.9033766 L32.8502507,10.9033766 C32.8711978,10.3941602 32.7651532,9.8855974 32.532117,9.44044156 L32.532117,9.44044156 C32.2977716,8.95214286 31.9370891,8.44358009 32.0640808,7.91279221 L32.0640808,7.91279221 C32.1066295,7.68008225 32.2558774,7.48920779 32.3193733,7.25649784 L32.3193733,7.25649784 C32.4254178,6.81068831 32.361922,6.34396104 32.1275766,5.96221212 L32.1275766,5.96221212 C31.9154875,5.55889177 31.6392479,5.22028571 31.4062117,4.8385368 L31.4062117,4.8385368 C31.1083705,4.35089177 30.917883,3.79918615 30.8327855,3.2481342 L30.8327855,3.2481342 C30.8118384,2.95201732 30.7483426,2.65459307 30.6206964,2.37939394 L30.6206964,2.37939394 C30.4930501,2.1878658 30.3235097,2.01856277 30.1323677,1.89174892 L30.1323677,1.89174892 C29.2827019,1.27663636 28.2425487,0.957640693 27.1801393,1.00078355 L27.1801393,1.00078355 C26.4371727,1.0217013 25.6942061,1.23349351 24.950585,1.1275974 L24.950585,1.1275974 C24.504805,1.04327273 24.0799721,0.936722944 23.6348468,0.788991342 L23.6348468,0.788991342 C23.190376,0.654987013 22.7099025,0.560857143 22.2418663,0.560857143 L22.2418663,0.560857143 C21.7483008,0.560857143 21.2671727,0.664792208 20.8528134,0.936722944 L20.8528134,0.936722944 Z M17.1798747,33.3154372 C17.0947772,33.2938658 17.0090251,33.2736017 16.9245822,33.2520303 L16.9245822,33.2520303 L18.9420474,30.1555498 C18.9629944,30.3045887 19.2182869,32.0008874 19.4722702,32.4460433 L19.4722702,32.4460433 C19.5364206,32.7434675 19.5573677,33.0402381 19.5364206,33.3370087 L19.5364206,33.3370087 C18.432117,33.2520303 17.2859192,33.2088874 17.2859192,33.2088874 L17.2859192,33.2088874 C17.3278134,33.2520303 17.349415,33.2938658 17.349415,33.3579264 L17.349415,33.3579264 L17.1798747,33.3154372 Z M16.351156,38.1918874 C16.1816156,37.8323636 11.3402228,36.1569827 11.3402228,36.1569827 L11.3402228,36.1569827 C11.3402228,36.1569827 11.1706825,36.0504329 10.8518942,35.923619 L10.8518942,35.923619 L12.1257382,36.1569827 L12.4870752,36.1144935 C13.2725905,36.3262857 14.0790529,36.474671 14.907117,36.5805671 L14.907117,36.5805671 L16.8185376,36.8779913 L16.9887326,36.8989091 C16.9245822,37.1956797 16.9029805,37.4924502 16.8820334,37.8101385 L16.8820334,37.8101385 C16.8820334,37.8323636 16.9245822,37.8741991 16.9887326,37.9166883 L16.9887326,37.9166883 C16.9671309,38.0650736 16.9455292,38.2141126 16.9455292,38.3618442 L16.9455292,38.3618442 C16.9671309,38.5108831 17.8802925,38.8501429 18.8994986,39.1044242 L18.8994986,39.1044242 C18.8778969,39.1678312 18.8778969,39.2103203 18.8569499,39.2521558 L18.8569499,39.2521558 C17.9437883,38.7860823 16.5206964,38.5527186 16.351156,38.1918874 L16.351156,38.1918874 Z" id="path-3"></path>
    </defs>
    <g id="Page-1" stroke="none" stroke-width="1" fill="none" fill-rule="evenodd">
        <g id="Desktop-HD-Copy" transform="translate(-727.000000, -387.000000)">
            <g id="Ilustración-/-GT" transform="translate(727.000000, 387.000000)">
                <g id="Group-166">
                    <g id="Group-82" transform="translate(0.000000, 0.388939)">
                        <path d="M179.113531,132.110815 C201.629018,132.110815 219.88243,136.193045 219.88243,141.228339 C219.88243,146.263633 201.629018,150.345863 179.113531,150.345863 C156.598043,150.345863 138.344631,146.263633 138.344631,141.228339 C138.344631,136.193045 156.598043,132.110815 179.113531,132.110815" id="Fill-1" fill="#EFEFF2"></path>
                        <path d="M132.739194,5.94743896 C132.739194,39.0471619 153.527202,65.82711 179.241046,65.82711" id="Fill-3" fill="#005C7C"></path>
                        <g id="Group-7" transform="translate(0.000000, 9.805195)">
                            <mask id="mask-2" fill="white">
                                <use xlink:href="#path-1"></use>
                            </mask>
                            <g id="Clip-6"></g>
                            <path d="M133.248993,18.0245628 C118.215539,18.1304589 103.797405,14.7594329 89.9959011,10.9635152 C76.1937423,7.16825108 62.4982827,2.92717749 47.783617,1.20996104 C38.3129206,0.0862857143 27.5264861,0.277160173 20.0732549,4.60255844 C12.8962632,8.77957143 10.7943552,15.6079091 9.73260028,21.9054589 C8.94708496,26.6544416 8.56480084,31.6374416 11.3252326,35.9419221 C13.2359986,38.9318528 16.5489095,41.3916494 18.8845084,44.2541126 C27.0165557,54.1776234 21.9630738,66.9635974 13.9154694,77.2257143 C10.1358315,82.0394113 5.71927159,86.6622338 2.85279526,91.7504762 C-0.0136810585,96.8393723 -1.22402925,102.58587 1.6208454,107.56887 C4.44542758,112.509381 10.857851,116.050364 17.7802047,118.488589 C31.8153997,123.387264 48.1868482,124.362554 64.1334638,124.680242 C99.4024471,125.358762 134.777475,123.280714 170.046458,121.182403 C183.10565,120.397333 196.206737,119.633835 209.010636,117.534216 C216.123478,116.368706 223.428116,114.693325 228.481597,111.046446 C234.894675,106.423623 236.274564,98.9389913 231.666862,93.5951602 C223.938046,84.6266753 203.426277,83.0571905 197.905414,73.3461255 C194.868742,68.0022944 197.565678,61.8106407 201.515511,56.6158485 C209.987294,45.4627662 224.510818,35.4124416 224.872155,22.986645 C225.105845,14.4626623 217.652614,6.17138961 206.462294,2.54542857 C194.741096,-1.27140693 178.689091,-0.167995671 170.386194,7.1257619 C161.871862,14.6103939 146.51962,17.9395844 133.248993,18.0245628" id="Fill-5" fill="#DFE8EB" mask="url(#mask-2)"></path>
                        </g>
                        <path d="M201.090482,6.88010909 L201.090482,116.801572 C201.090482,120.066702 197.926819,122.738945 194.040482,122.738945 L44.6616518,122.738945 C40.7550223,122.738945 37.6123064,120.088927 37.6123064,116.801572 L37.6123064,6.88010909 C37.6123064,3.59406147 40.7759694,0.264870996 44.6616518,0.264870996 L193.998588,0.625702165 C197.905217,0.625702165 201.090482,3.59406147 201.090482,6.88010909" id="Fill-8" fill="#FFFFFF"></path>
                        <path d="M201.090482,6.90181126 L201.090482,11.9907074 L37.6123064,11.9907074 L37.6123064,6.90181126 C37.6123064,3.23336104 40.5848273,0.265001732 44.2800223,0.265001732 L194.444368,0.265001732 C198.096359,0.265001732 201.090482,3.23336104 201.090482,6.90181126" id="Fill-10" fill="#005C7C"></path>
                        <path d="M45.532461,3.78467446 C46.8344526,3.78467446 47.8896616,4.83840606 47.8896616,6.13857489 C47.8896616,7.43809004 46.8344526,8.49182165 45.532461,8.49182165 C44.231124,8.49182165 43.1752604,7.43809004 43.1752604,6.13857489 C43.1752604,4.83840606 44.231124,3.78467446 45.532461,3.78467446" id="Fill-12" fill="#FF5858"></path>
                        <path d="M50.0667173,5.69211169 C50.3128454,4.41547532 51.5487228,3.58007273 52.8264944,3.82585628 C54.1049206,4.07163983 54.9414944,5.30578701 54.6953663,6.5817697 C54.4492382,7.85840606 53.2140153,8.69446234 51.9349345,8.44867879 C50.657163,8.20289524 49.8205891,6.96809437 50.0667173,5.69211169" id="Fill-14" fill="#FFD345"></path>
                        <path d="M59.2281825,3.78467446 C60.5301741,3.78467446 61.585383,4.83840606 61.585383,6.13857489 C61.585383,7.43809004 60.5301741,8.49182165 59.2281825,8.49182165 C57.9268454,8.49182165 56.8709819,7.43809004 56.8709819,6.13857489 C56.8709819,4.83840606 57.9268454,3.78467446 59.2281825,3.78467446" id="Fill-16" fill="#62D03E"></path>
                        <path d="M98.8925822,36.4597671 L110.125451,36.4597671 C111.12371,36.4597671 111.951774,37.2657541 111.951774,38.2835333 L111.951774,41.6977022 C111.951774,42.69391 111.144657,43.5208147 110.125451,43.5208147 L98.8925822,43.5208147 C97.8949777,43.5208147 97.0662591,42.7148277 97.0662591,41.6977022 L97.0662591,38.2835333 C97.0662591,37.2657541 97.873376,36.4597671 98.8925822,36.4597671" id="Fill-18" fill="#DFE8EB"></path>
                        <path d="M129.002104,36.4597671 L140.234974,36.4597671 C141.232578,36.4597671 142.060642,37.2657541 142.060642,38.2835333 L142.060642,41.6977022 C142.060642,42.69391 141.25418,43.5208147 140.234974,43.5208147 L129.002104,43.5208147 C128.0045,43.5208147 127.175781,42.7148277 127.175781,41.6977022 L127.175781,38.2835333 C127.175781,37.2657541 128.0045,36.4597671 129.002104,36.4597671" id="Fill-20" fill="#DFE8EB"></path>
                        <polyline id="Stroke-22" stroke="#3D3A56" points="104.455994 43.3514463 119.340855 62.7533121 134.671496 43.2455502"></polyline>
                        <path d="M109.785454,62.137742 L128.874786,62.137742 C129.873045,62.137742 130.701109,62.9430753 130.701109,63.9615082 L130.701109,71.0859628 C130.701109,72.0828242 129.893992,72.909729 128.874786,72.909729 L109.785454,72.909729 C108.78785,72.909729 107.959131,72.103742 107.959131,71.0859628 L107.959131,63.9615082 C107.980733,62.9430753 108.78785,62.137742 109.785454,62.137742" id="Fill-24" fill="#000000"></path>
                        <path d="M110.25277,62.3496649 L128.407338,62.3496649 C129.405597,62.3496649 130.233662,63.1556519 130.233662,64.1734312 L130.233662,70.8736476 C130.233662,71.8705091 129.427199,72.6974139 128.407338,72.6974139 L110.25277,72.6974139 C109.255166,72.6974139 108.426447,71.8920805 108.426447,70.8736476 L108.426447,64.1734312 C108.426447,63.1556519 109.255166,62.3496649 110.25277,62.3496649" id="Fill-26" fill="#005C7C"></path>
                        <line x1="104.56217" y1="36.4597671" x2="104.371028" y2="29.6105117" id="Stroke-28" stroke="#3D3A56"></line>
                        <polyline id="Stroke-30" stroke="#3D3A56" points="143.39844 29.9293113 134.671365 36.459571 125.477563 29.9293113"></polyline>
                        <path d="M98.8078774,22.8895082 L110.019145,22.8895082 C111.017404,22.8895082 111.845468,23.6948416 111.845468,24.7126208 L111.845468,28.1267896 C111.845468,29.1229974 111.038351,29.9505558 110.019145,29.9505558 L98.7862758,29.9505558 C97.7886713,29.9505558 96.9606072,29.1445688 96.9606072,28.1267896 L96.9606072,24.7126208 C96.9815543,23.6948416 97.7886713,22.8895082 98.8078774,22.8895082" id="Fill-32" fill="#DFE8EB"></path>
                        <path d="M137.792806,22.8895082 L149.025675,22.8895082 C150.02328,22.8895082 150.851344,23.6948416 150.851344,24.7126208 L150.851344,28.1267896 C150.851344,29.1229974 150.044882,29.9505558 149.025675,29.9505558 L137.792806,29.9505558 C136.795202,29.9505558 135.966483,29.1445688 135.966483,28.1267896 L135.966483,24.7126208 C135.966483,23.6948416 136.7736,22.8895082 137.792806,22.8895082" id="Fill-34" fill="#DFE8EB"></path>
                        <path d="M119.871602,22.8895082 L131.104471,22.8895082 C132.102075,22.8895082 132.930139,23.6948416 132.930139,24.7126208 L132.930139,28.1267896 C132.930139,29.1229974 132.123677,29.9505558 131.104471,29.9505558 L119.871602,29.9505558 C118.873997,29.9505558 118.045279,29.1445688 118.045279,28.1267896 L118.045279,24.7126208 C118.045279,23.6948416 118.852396,22.8895082 119.871602,22.8895082" id="Fill-36" fill="#DFE8EB"></path>
                        <line x1="119.340724" y1="72.6764307" x2="119.277228" y2="91.4416126" id="Stroke-38" stroke="#3D3A56"></line>
                        <polyline id="Stroke-40" stroke="#3D3A56" points="98.2133733 104.821585 119.234418 98.333161 140.34056 104.779096"></polyline>
                        <path d="M113.671529,91.4416126 L124.904398,91.4416126 C125.902003,91.4416126 126.730067,92.2469459 126.730067,93.2653788 L126.730067,96.6795476 C126.730067,97.6757554 125.92295,98.5026602 124.904398,98.5026602 L113.671529,98.5026602 C112.67327,98.5026602 111.845206,97.6966732 111.845206,96.6795476 L111.845206,93.2653788 C111.845206,92.2469459 112.67327,91.4416126 113.671529,91.4416126" id="Fill-42" fill="#DFE8EB"></path>
                        <path d="M183.784859,50.9843329 L183.784859,62.2014758 C183.784859,63.1983372 182.978397,64.025242 181.958536,64.025242 L178.540235,64.025242 C177.541976,64.025242 176.713912,63.219255 176.713912,62.2014758 L176.713912,50.9843329 C176.713912,49.9881251 177.521029,49.1612203 178.540235,49.1612203 L181.958536,49.1612203 C182.978397,49.1612203 183.784859,49.9881251 183.784859,50.9843329" id="Fill-44" fill="#DFE8EB"></path>
                        <path d="M176.735514,85.4410294 L176.735514,74.2245403 C176.735514,73.2270251 177.541976,72.400774 178.561837,72.400774 L181.980138,72.400774 C182.978397,72.400774 183.806461,73.2061074 183.806461,74.2245403 L183.806461,85.4410294 C183.806461,86.4372372 182.999344,87.2647957 181.980138,87.2647957 L178.561837,87.2647957 C177.541976,87.2647957 176.735514,86.4372372 176.735514,85.4410294" id="Fill-46" fill="#DFE8EB"></path>
                        <path d="M134.735253,104.736672 L145.968123,104.736672 C146.965727,104.736672 147.793791,105.542006 147.793791,106.559785 L147.793791,109.973954 C147.793791,110.970161 146.987329,111.79772 145.968123,111.79772 L134.735253,111.79772 C133.737649,111.79772 132.90893,110.991733 132.90893,109.973954 L132.90893,106.559785 C132.90893,105.542006 133.737649,104.736672 134.735253,104.736672" id="Fill-48" fill="#DFE8EB"></path>
                        <path d="M103.840085,111.776541 L92.6072159,111.776541 C91.6096114,111.776541 90.7815474,110.970554 90.7815474,109.952774 L90.7815474,106.538606 C90.7815474,105.542398 91.5886643,104.715493 92.6072159,104.715493 L103.840085,104.715493 C104.838344,104.715493 105.666408,105.52148 105.666408,106.538606 L105.666408,109.952774 C105.644806,110.970554 104.838344,111.776541 103.840085,111.776541" id="Fill-50" fill="#DFE8EB"></path>
                        <path d="M125.265015,111.776541 L114.032146,111.776541 C113.034542,111.776541 112.206478,110.970554 112.206478,109.952774 L112.206478,106.538606 C112.206478,105.542398 113.01294,104.715493 114.032146,104.715493 L125.265015,104.715493 C126.26262,104.715493 127.091338,105.52148 127.091338,106.538606 L127.091338,109.952774 C127.091338,110.970554 126.26262,111.776541 125.265015,111.776541" id="Fill-52" fill="#DFE8EB"></path>
                        <line x1="170.110609" y1="68.2232381" x2="176.735776" y2="79.7580693" id="Stroke-54" stroke="#3D3A56"></line>
                        <line x1="156.117635" y1="68.0751143" x2="163.060936" y2="68.0751143" id="Stroke-56" stroke="#3D3A56"></line>
                        <line x1="130.233596" y1="67.5024909" x2="149.195281" y2="68.0751143" id="Stroke-58" stroke="#3D3A56"></line>
                        <line x1="176.735514" y1="56.5827069" x2="170.152896" y2="68.1600273" id="Stroke-60" stroke="#3D3A56"></line>
                        <path d="M156.244889,62.4135294 L156.244889,73.6306723 C156.244889,74.6275338 155.438426,75.4537848 154.418565,75.4537848 L151.000265,75.4537848 C150.002006,75.4537848 149.173942,74.6484515 149.173942,73.6306723 L149.173942,62.4135294 C149.173942,61.4173216 149.981058,60.5897632 151.000265,60.5897632 L154.418565,60.5897632 C155.438426,60.6113346 156.244889,61.4173216 156.244889,62.4135294" id="Fill-62" fill="#DFE8EB"></path>
                        <path d="M170.110609,62.6043385 L170.110609,73.8208277 C170.110609,74.8183429 169.303492,75.6445939 168.284286,75.6445939 L164.865985,75.6445939 C163.867726,75.6445939 163.039662,74.8392606 163.039662,73.8208277 L163.039662,62.6043385 C163.039662,61.6081307 163.846779,60.7805723 164.865985,60.7805723 L168.284286,60.7805723 C169.303492,60.7805723 170.110609,61.6081307 170.110609,62.6043385" id="Fill-64" fill="#DFE8EB"></path>
                        <path d="M61.9462618,50.9843329 L61.9462618,62.2014758 C61.9462618,63.1983372 61.1391448,64.025242 60.1199387,64.025242 L56.722585,64.025242 C55.7249805,64.025242 54.8962618,63.219255 54.8962618,62.2014758 L54.8962618,50.9843329 C54.8962618,49.9881251 55.7033788,49.1612203 56.722585,49.1612203 L60.1199387,49.1612203 C61.1391448,49.1612203 61.9462618,49.9881251 61.9462618,50.9843329" id="Fill-66" fill="#DFE8EB"></path>
                        <path d="M54.8965891,85.4410294 L54.8965891,74.2245403 C54.8965891,73.2270251 55.7030515,72.400774 56.7229123,72.400774 L60.1196114,72.400774 C61.1178705,72.400774 61.9465891,73.2061074 61.9465891,74.2245403 L61.9465891,85.4410294 C61.9465891,86.4372372 61.1394721,87.2647957 60.1196114,87.2647957 L56.7229123,87.2647957 C55.7030515,87.2647957 54.8965891,86.4372372 54.8965891,85.4410294" id="Fill-68" fill="#DFE8EB"></path>
                        <line x1="68.5711671" y1="68.2232381" x2="61.946" y2="79.7580693" id="Stroke-70" stroke="#3D3A56"></line>
                        <line x1="82.5641407" y1="68.0751143" x2="75.6208398" y2="68.0751143" id="Stroke-72" stroke="#3D3A56"></line>
                        <line x1="108.426774" y1="67.5024909" x2="89.4860362" y2="68.0751143" id="Stroke-74" stroke="#3D3A56"></line>
                        <line x1="61.9462618" y1="56.5827069" x2="68.5288802" y2="68.1600273" id="Stroke-76" stroke="#3D3A56"></line>
                        <path d="M89.4862981,62.4345779 L89.4862981,73.630803 C89.4862981,74.6270108 88.6791811,75.4539156 87.6599749,75.4539156 L84.2416741,75.4539156 C83.243415,75.4539156 82.415351,74.6485823 82.415351,73.630803 L82.415351,62.4136602 C82.415351,61.4167987 83.222468,60.5898939 84.2416741,60.5898939 L87.6599749,60.5898939 C88.658234,60.6114654 89.4862981,61.4167987 89.4862981,62.4345779" id="Fill-78" fill="#DFE8EB"></path>
                        <path d="M75.620578,62.6043385 L75.620578,73.8208277 C75.620578,74.8183429 74.8141156,75.6445939 73.7942549,75.6445939 L70.375954,75.6445939 C69.377695,75.6445939 68.5496309,74.8392606 68.5496309,73.8208277 L68.5496309,62.6043385 C68.5496309,61.6081307 69.3567479,60.7805723 70.375954,60.7805723 L73.7942549,60.7805723 C74.8141156,60.7805723 75.620578,61.6081307 75.620578,62.6043385" id="Fill-80" fill="#DFE8EB"></path>
                    </g>
                    <g id="Group-85" transform="translate(155.139276, 90.596732)">
                        <mask id="mask-4" fill="white">
                            <use xlink:href="#path-3"></use>
                        </mask>
                        <g id="Clip-84"></g>
                        <path d="M20.8528134,0.936722944 C20.0456964,1.46751082 19.7275627,2.50620779 19.1966852,3.31154113 L19.1966852,3.31154113 C18.7083565,4.03320346 18.0079387,4.62674459 17.6466017,5.39024242 L17.6466017,5.39024242 L17.6466017,5.34709957 C17.5615042,5.51705628 17.4770613,5.70793074 17.4338579,5.89880519 L17.4338579,5.89880519 C17.2859192,6.493 17.4129109,7.1290303 17.5615042,7.701 L17.5615042,7.701 C17.6466017,8.01868831 17.7316992,8.33768398 18.0079387,8.50633333 L18.0079387,8.50633333 C18.2835237,8.67629004 18.6448607,8.63445455 18.9629944,8.69786147 L18.9629944,8.69786147 C18.9420474,8.74035065 18.9420474,8.80375758 18.9204457,8.84624675 L18.9204457,8.84624675 C18.2409749,12.0479697 20.1314485,15.2287749 23.2735097,16.1615758 L23.2735097,16.1615758 L23.2735097,16.3308788 C23.2735097,16.5008355 23.2525627,16.6492208 23.2525627,16.7976061 L23.2525627,16.7976061 C23.2525627,16.7976061 20.4914763,16.2249827 19.7485097,16.6067316 L19.7485097,16.6067316 C19.0061978,16.9884805 17.5615042,17.2852511 17.3278134,17.517961 L17.3278134,17.517961 C17.0947772,17.7519784 16.5638997,17.5826753 16.054624,18.8540823 L16.054624,18.8540823 C15.5656407,20.1477143 15.5014903,21.4629177 14.8652228,22.0564589 L14.8652228,22.0564589 C14.2283008,22.65 13.9095125,23.0735844 13.8669638,23.4978225 L13.8669638,23.4978225 C13.824415,23.9227143 13.9520613,24.0488745 13.6974234,24.176342 L13.6974234,24.176342 C13.4427855,24.3038095 13.1030501,24.8764329 13.2090947,25.1097965 L13.2090947,25.1097965 C13.2090947,25.1097965 13.3570334,25.6601948 12.9119081,25.9367013 L12.9119081,25.9367013 C12.6566156,26.1269221 12.5080223,26.4452641 12.529624,26.7636061 L12.529624,26.7636061 C12.529624,26.7636061 12.359429,27.3571472 11.9777994,27.5055325 L11.9777994,27.5055325 C11.5955153,27.6545714 11.3402228,28.5448831 11.3402228,28.5448831 L11.3402228,28.5448831 L10.0873259,29.965329 L7.62408078,27.2296797 C7.24179666,26.8060952 6.58392758,26.7636061 6.15909471,27.1662727 L6.15909471,27.1662727 L4.97034819,28.2690303 C4.50296657,28.3749264 4.0781337,28.6298615 3.7593454,28.990039 L3.7593454,28.990039 C3.48376045,29.2658918 3.27101671,29.5842338 3.12307799,29.9228398 L3.12307799,29.9228398 L2.46455432,30.516381 C2.25246518,30.7079091 2.12481894,30.9621905 2.12481894,31.2373896 L2.12481894,31.2373896 C1.95462396,31.6191385 2.01877437,32.0649481 2.29435933,32.3617186 L2.29435933,32.3617186 L3.86604457,34.1005065 L3.86604457,34.1214242 C3.31356546,34.1632597 2.76174095,34.3757056 2.33690808,34.7365368 L2.33690808,34.7365368 C-0.019637883,36.8139307 -0.0405849582,38.7226753 0.299150418,39.6136407 L0.299150418,39.6136407 C0.638231198,40.5032987 3.65330084,43.8540606 3.65330084,43.8540606 L3.65330084,43.8540606 C3.65330084,43.8540606 5.39518106,46.122329 7.90097493,47.3100649 L7.90097493,47.3100649 L7.87871866,47.3316364 C7.83616992,47.3741255 7.77267409,47.4375325 7.73012535,47.5009394 L7.73012535,47.5009394 L7.6882312,47.5434286 L7.64568245,47.5859177 L7.6031337,47.6493247 L7.56058496,47.6918139 L7.51869081,47.7761385 C7.51869081,47.79771 7.49643454,47.8192814 7.49643454,47.8192814 L7.49643454,47.8192814 C7.47614206,47.8617706 7.45454039,47.8826883 7.43359331,47.9251775 L7.43359331,47.9251775 L7.41264624,47.9676667 C7.39038997,48.0108095 7.37009749,48.0735628 7.34784123,48.1167056 L7.34784123,48.1167056 C7.32689415,48.1578874 7.32689415,48.1578874 7.32689415,48.1794589 L7.32689415,48.1794589 C7.32689415,48.2003766 7.30594708,48.2435195 7.2843454,48.285355 L7.2843454,48.285355 L7.26339833,48.3494156 C7.24179666,48.3912511 7.24179666,48.4128225 7.22084958,48.4553117 L7.22084958,48.4553117 C7.19990251,48.4984545 7.19990251,48.4984545 7.19990251,48.54029 L7.19990251,48.54029 L7.15735376,48.6671039 L7.13575209,48.7311645 C7.11480501,48.7945714 7.11480501,48.8579784 7.09385794,48.922039 L7.09385794,48.922039 L7.07225627,49.0063636 C7.07225627,49.0488528 7.05130919,49.0919957 7.05130919,49.1547489 L7.05130919,49.1547489 C7.05130919,49.2188095 7.05130919,49.2188095 7.02970752,49.260645 L7.02970752,49.260645 C7.00876045,49.3037879 7.02970752,49.3456234 7.00876045,49.3881126 L7.00876045,49.3881126 C6.98781337,49.4306017 7.00876045,49.4521732 7.00876045,49.4940087 L7.00876045,49.4940087 L7.00876045,49.6423939 L7.00876045,49.74829 L7.00876045,50.0032251 C6.94526462,53.2049481 7.13575209,53.6710216 7.13575209,53.6710216 L7.13575209,53.6710216 C7.13575209,53.6710216 7.51869081,54.6894545 8.60139276,54.7744329 L8.60139276,54.7744329 C8.74998607,54.7953506 8.92018106,54.7744329 9.06811978,54.7522078 L9.06811978,54.7522078 C10.4912117,54.4985801 13.8453621,53.9259567 15.0354178,54.1586667 L15.0354178,54.1586667 C15.7358357,54.2867879 17.0522284,54.0952597 17.986337,53.9259567 L17.986337,53.9259567 L18.2409749,53.8828139 L18.4111699,54.4351732 L18.9629944,54.2867879 L19.4310306,54.5404156 L19.7275627,54.7103723 C20.2584401,56.5550563 22.4670474,55.9183723 22.4670474,55.9183723 L22.4670474,55.9183723 L22.9972702,56.2157965 L28.3060446,56.3432641 C28.9004178,56.7034416 29.5379944,57.0002121 30.1749164,57.2342294 L30.1749164,57.2342294 C30.2593593,57.2551472 30.3444568,57.2760649 30.4295543,57.2969827 L30.4295543,57.2969827 C30.917883,57.3401255 31.4062117,57.3401255 31.9154875,57.3185541 L31.9154875,57.3185541 C32.3193733,57.3185541 32.6381616,57.2969827 32.6381616,57.2969827 L32.6381616,57.2969827 C32.6381616,57.2969827 32.5740111,55.855619 32.5098607,54.243645 L32.5098607,54.243645 C34.5273259,54.1586667 36.3327019,54.0318528 37.4154039,53.8409784 L37.4154039,53.8409784 C40.2393315,53.3533333 41.4071309,50.7667229 41.8529109,49.3881126 L41.8529109,49.3881126 C41.9805571,49.9398182 42.0656546,50.5117879 42.1291504,51.0844113 L42.1291504,51.0844113 C42.235195,51.5936277 42.3837883,52.0812727 42.5749304,52.5689177 L42.5749304,52.5689177 C42.7235237,52.9506667 42.9362674,53.3324156 43.1693036,53.6710216 L43.1693036,53.6710216 C45.2509192,52.9715844 43.9980223,51.8903983 43.5515877,51.4230173 L43.5515877,51.4230173 C43.1058078,50.9575974 43.849429,50.5751948 43.849429,50.5751948 L43.849429,50.5751948 C43.849429,50.5751948 44.4222006,50.1940996 44.3803064,49.8332684 L44.3803064,49.8332684 C44.3377577,49.4724372 44.2945543,49.0919957 46.1634262,49.1338312 L46.1634262,49.1338312 C48.0322981,49.1756667 47.9262535,47.6284069 47.9262535,47.6284069 L47.9262535,47.6284069 L42.0440529,39.1259957 C42.0440529,39.1259957 41.9380084,37.0263766 41.5557242,36.5171602 L41.5557242,36.5171602 C41.1740947,36.0085974 41.4706267,34.9267576 41.4706267,34.9267576 L41.4706267,34.9267576 C41.4706267,34.9267576 41.8745125,34.3332165 41.5347772,34.2691558 L41.5347772,34.2691558 C41.1943872,34.2064026 41.4706267,32.8702814 41.4706267,32.8702814 L41.4706267,32.8702814 L41.4496797,30.7288268 C41.4496797,30.7288268 41.768468,28.671697 41.5131755,28.1840519 L41.5131755,28.1840519 C41.3436351,27.9081991 41.3639276,27.5695931 41.5347772,27.314658 L41.5347772,27.314658 C41.5347772,27.314658 41.8529109,26.1484935 41.5347772,25.8308052 L41.5347772,25.8308052 C41.2159889,25.5124632 41.2801393,23.688697 41.3639276,22.2473333 L41.3639276,22.2473333 C41.4496797,20.805316 40.7918106,19.9784113 40.7918106,19.7659654 L40.7918106,19.7659654 C40.7918106,19.5535195 38.6250975,17.4120649 38.6250975,17.2218442 L38.6250975,17.2218442 C38.6250975,17.030316 37.2458635,16.2465541 36.4387465,16.0131905 L36.4387465,16.0131905 C35.6322841,15.7798268 35.2074513,15.6314416 35.2277437,15.5255455 L35.2277437,15.5255455 C35.2493454,15.4189957 33.9329526,14.9738398 33.9329526,14.9738398 L33.9329526,14.9738398 C33.9329526,14.9738398 32.7861003,14.8895152 32.3403203,14.3168918 L32.3403203,14.3168918 C31.8945404,13.7442684 30.556546,13.5749654 30.5139972,13.5749654 L30.5139972,13.5749654 C30.5139972,13.5324762 30.4930501,13.4893333 30.4930501,13.4684156 L30.4930501,13.4684156 L30.4714485,13.3416017 C30.5781476,13.171645 30.6625905,12.9807706 30.7483426,12.8114675 L30.7483426,12.8114675 L30.8327855,12.6415108 C31.3211142,12.6415108 31.7884958,12.4931255 32.191727,12.2172727 L32.191727,12.2172727 C32.5740111,11.8995844 32.828649,11.4119394 32.8502507,10.9033766 L32.8502507,10.9033766 C32.8711978,10.3941602 32.7651532,9.8855974 32.532117,9.44044156 L32.532117,9.44044156 C32.2977716,8.95214286 31.9370891,8.44358009 32.0640808,7.91279221 L32.0640808,7.91279221 C32.1066295,7.68008225 32.2558774,7.48920779 32.3193733,7.25649784 L32.3193733,7.25649784 C32.4254178,6.81068831 32.361922,6.34396104 32.1275766,5.96221212 L32.1275766,5.96221212 C31.9154875,5.55889177 31.6392479,5.22028571 31.4062117,4.8385368 L31.4062117,4.8385368 C31.1083705,4.35089177 30.917883,3.79918615 30.8327855,3.2481342 L30.8327855,3.2481342 C30.8118384,2.95201732 30.7483426,2.65459307 30.6206964,2.37939394 L30.6206964,2.37939394 C30.4930501,2.1878658 30.3235097,2.01856277 30.1323677,1.89174892 L30.1323677,1.89174892 C29.2827019,1.27663636 28.2425487,0.957640693 27.1801393,1.00078355 L27.1801393,1.00078355 C26.4371727,1.0217013 25.6942061,1.23349351 24.950585,1.1275974 L24.950585,1.1275974 C24.504805,1.04327273 24.0799721,0.936722944 23.6348468,0.788991342 L23.6348468,0.788991342 C23.190376,0.654987013 22.7099025,0.560857143 22.2418663,0.560857143 L22.2418663,0.560857143 C21.7483008,0.560857143 21.2671727,0.664792208 20.8528134,0.936722944 L20.8528134,0.936722944 Z M17.1798747,33.3154372 C17.0947772,33.2938658 17.0090251,33.2736017 16.9245822,33.2520303 L16.9245822,33.2520303 L18.9420474,30.1555498 C18.9629944,30.3045887 19.2182869,32.0008874 19.4722702,32.4460433 L19.4722702,32.4460433 C19.5364206,32.7434675 19.5573677,33.0402381 19.5364206,33.3370087 L19.5364206,33.3370087 C18.432117,33.2520303 17.2859192,33.2088874 17.2859192,33.2088874 L17.2859192,33.2088874 C17.3278134,33.2520303 17.349415,33.2938658 17.349415,33.3579264 L17.349415,33.3579264 L17.1798747,33.3154372 Z M16.351156,38.1918874 C16.1816156,37.8323636 11.3402228,36.1569827 11.3402228,36.1569827 L11.3402228,36.1569827 C11.3402228,36.1569827 11.1706825,36.0504329 10.8518942,35.923619 L10.8518942,35.923619 L12.1257382,36.1569827 L12.4870752,36.1144935 C13.2725905,36.3262857 14.0790529,36.474671 14.907117,36.5805671 L14.907117,36.5805671 L16.8185376,36.8779913 L16.9887326,36.8989091 C16.9245822,37.1956797 16.9029805,37.4924502 16.8820334,37.8101385 L16.8820334,37.8101385 C16.8820334,37.8323636 16.9245822,37.8741991 16.9887326,37.9166883 L16.9887326,37.9166883 C16.9671309,38.0650736 16.9455292,38.2141126 16.9455292,38.3618442 L16.9455292,38.3618442 C16.9671309,38.5108831 17.8802925,38.8501429 18.8994986,39.1044242 L18.8994986,39.1044242 C18.8778969,39.1678312 18.8778969,39.2103203 18.8569499,39.2521558 L18.8569499,39.2521558 C17.9437883,38.7860823 16.5206964,38.5527186 16.351156,38.1918874 L16.351156,38.1918874 Z" id="Fill-83" mask="url(#mask-4)"></path>
                    </g>
                    <g id="Group-165" transform="translate(151.211699, 91.250411)">
                        <path d="M45.6107507,48.1621364 C45.6107507,48.1621364 44.8461825,52.7633874 40.9821017,53.4419069 C37.1173663,54.1204264 24.2283691,53.9929589 24.2283691,53.9929589 C24.2283691,53.9929589 16.8602354,52.9326905 14.1849011,46.720119 C11.5095669,40.5075476 9.81088997,38.0261797 12.082993,37.9202835 C14.3544415,37.8143874 26.6916142,42.0763788 27.4136337,42.1397857 C28.1356532,42.2038463 46.2902214,32.640513 45.6107507,48.1621364" id="Fill-86" fill="#67617F"></path>
                        <path d="M45.6107507,48.1621364 C45.6107507,48.1621364 44.8461825,52.7633874 40.9821017,53.4419069 C37.1173663,54.1204264 24.2283691,53.9929589 24.2283691,53.9929589 C24.2283691,53.9929589 16.8602354,52.9326905 14.1849011,46.720119 C11.5095669,40.5075476 9.81088997,38.0261797 12.082993,37.9202835 C14.3544415,37.8143874 26.6916142,42.0763788 27.4136337,42.1397857 C28.1356532,42.2038463 46.2902214,32.640513 45.6107507,48.1621364" id="Fill-88" fill="#000000"></path>
                        <path d="M11.0210418,53.2722117 C11.0210418,53.2722117 11.4033259,54.2899909 12.4650808,54.3533978 C12.6136741,54.3749693 12.7832145,54.3533978 12.9318078,54.3324801 C14.3548997,54.077545 17.667156,53.5264931 18.8349554,53.738939 C19.5360279,53.8657528 20.8524206,53.6748784 21.7655822,53.5049216 C22.3809025,53.3990255 22.827337,53.2722117 22.827337,53.2722117 C22.827337,53.2722117 21.7439805,49.6671684 21.5953872,49.5403545 C21.4467939,49.412887 16.6904986,46.5713416 16.6904986,46.5713416 L12.9108607,46.3170602 C12.4009304,46.4020385 11.9551504,46.6563199 11.6370167,47.0589866 C11.2331309,47.5466316 10.8940501,48.3310472 10.8724485,49.6253329 C10.8298997,52.8054844 11.0210418,53.2722117 11.0210418,53.2722117" id="Fill-90" fill="#3D3A56"></path>
                        <path d="M11.0210418,53.2722117 C11.0210418,53.2722117 11.4033259,54.2899909 12.4650808,54.3533978 C12.1037437,53.8866706 11.7640084,53.3781078 11.4458747,52.869545 L11.4668217,50.2397918 C11.3182284,48.7768567 11.8700529,47.3139216 12.9534095,46.3170602 L12.9318078,46.3170602 C12.9318078,46.3170602 10.957546,46.4445277 10.8940501,49.6253329 C10.8298997,52.8054844 11.0210418,53.2722117 11.0210418,53.2722117" id="Fill-92" fill="#000000"></path>
                        <path d="M27.370954,47.5046 L30.875007,44.7689506 L36.3952159,39.3414485 C36.3952159,39.3414485 35.8008426,39.3198771 34.9092827,39.2773879 C34.696539,39.4264268 34.059617,39.870929 34.0386699,40.4017169 C34.0170682,41.0586649 32.5520822,40.4435524 31.7875139,40.8253013 C31.0236003,41.2070502 27.3074582,45.9776043 26.6489345,45.9357688 C25.9910655,45.8932797 25.4811351,45.5965091 25.2048955,46.0625827 L25.1839485,46.0835004 L27.370954,47.5046 Z" id="Fill-94" fill="#000000"></path>
                        <path d="M11.6580947,47.0590519 C11.7857409,47.1231126 11.9127326,47.1865195 12.0403788,47.2290087 C14.7157131,48.3742554 18.0070223,50.7699913 18.2407131,51.1942294 C18.3893064,51.4485108 20.3000724,52.6146753 21.7650585,53.4840693 C22.3810334,53.3781732 22.8268134,53.2513593 22.8268134,53.2513593 C22.8268134,53.2513593 21.7441114,49.646316 21.5955181,49.5195022 C21.4469248,49.391381 16.6906295,46.5504892 16.6906295,46.5504892 L12.9109916,46.2962078 C12.422663,46.4021039 11.976883,46.6563853 11.6580947,47.0590519" id="Fill-96" fill="#000000"></path>
                        <path d="M4.24754318,39.2774532 C4.60822563,40.1468472 7.56045404,43.4969554 7.56045404,43.4969554 C7.56045404,43.4969554 9.42867131,45.9358342 12.1040056,47.081081 C14.7793398,48.2250203 18.070649,50.62141 18.3043398,51.0456481 C18.4529331,51.3215009 20.59739,52.5935615 22.0839777,53.4838732 L22.4237131,53.6747476 L23.1666797,54.0989857 L23.5489638,54.3323494 C23.5489638,54.3323494 24.4621253,53.5904229 25.3752869,52.8694143 C26.2877939,52.1477519 27.1584067,51.4064792 27.1800084,51.3849078 C27.2009554,51.3005831 27.5622925,50.3880463 27.477195,50.3246394 C27.4346462,50.3037216 27.2435042,49.9219727 26.9037688,49.4768169 C26.5430864,48.9885182 26.0541031,48.6067693 25.5238802,48.3315701 C24.2709833,47.7596004 23.7191588,46.4653147 23.7191588,46.4653147 C23.7191588,46.4653147 23.5915125,46.38099 23.4219721,46.2744403 C23.0606351,46.0201589 22.6358022,45.8292844 22.1900223,45.7233883 C21.595649,45.6599814 20.4703983,44.43041 20.4703983,44.43041 C20.4703983,44.43041 19.7058301,43.9427649 19.4086435,43.3269987 C19.1114568,42.7125398 14.9069861,39.8291589 14.5031003,39.5742238 L24.7383649,46.1476264 L27.1800084,47.7164576 L30.6834067,44.9814619 L36.2042702,39.5533061 C36.2042702,39.5533061 35.4613036,39.5101632 34.3779471,39.4683277 C31.6816657,39.3624316 26.9253705,39.1715571 26.3303426,39.298371 C25.8420139,39.4042671 25.3327382,39.44741 24.8444095,39.4042671 C24.8444095,39.4042671 23.485468,39.4683277 22.5932535,39.0016004 C21.7016936,38.5348732 20.2792563,38.3021632 20.1090613,37.9629035 C19.9395209,37.6236437 15.1190752,35.927345 15.1190752,35.927345 C15.1190752,35.927345 8.5580585,32.4497693 6.22245961,34.5062455 C3.88686072,36.5633753 3.88686072,38.4080593 4.24754318,39.2774532" id="Fill-98" fill="#67617F"></path>
                        <path d="M25.3962994,19.324274 L26.2453106,22.1233303 L27.3286671,28.4208801 L31.3203942,28.6967329 L32.4881936,26.788642 L33.635046,24.8798974 C33.635046,24.8798974 34.3570655,22.3351225 34.8663412,19.8759797 C35.3337228,17.6920359 35.6309095,15.5714991 35.1209791,15.3597069 C34.6751992,15.147261 34.3780125,14.4269061 34.2084721,13.6202654 C34.1868705,13.5143693 34.1659234,13.4293909 34.1443217,13.3234948 C34.0173301,12.6449753 33.9322326,11.9880273 33.8896838,11.28859 C33.8896838,11.28859 25.502344,10.8643519 26.6701435,14.2994385 C26.8828872,14.8929797 26.9889318,15.5080922 26.9889318,16.1441225 C26.9889318,16.2925078 26.9673301,16.4618108 26.9673301,16.6108498 C26.8403384,17.6920359 26.2669123,18.6882437 25.3962994,19.324274" id="Fill-100" fill="#FF8FA0"></path>
                        <path d="M23.6552702,18.8582658 L23.9524568,23.6079022 L24.6319276,27.6581013 L25.3964958,29.523703 L26.0759666,39.7864736 C26.0759666,39.7864736 32.6369833,40.5499714 34.2296156,39.7649022 C34.3356602,39.7230667 34.4417047,39.6380883 34.5268022,39.5321922 C36.4591699,36.6272398 35.8222479,28.2091532 35.8222479,28.2091532 L36.5652145,22.7809974 L36.0768858,19.9610234 L34.8881393,19.8335558 L33.9749777,19.7276597 C33.9749777,19.7276597 33.762234,19.9819411 33.4650474,20.36369 C32.6579304,21.4239584 31.1719972,23.5229238 31.2780418,24.3923177 C31.405688,25.5794 31.1085014,26.8096251 30.6411198,27.0004996 C30.1737382,27.191374 29.7921086,27.5090623 29.7279582,27.191374 C29.6644624,26.8736857 29.5584178,26.7887074 29.6428607,26.3219801 C29.7279582,25.8552528 29.2821783,24.4557247 29.2821783,24.4557247 C29.2821783,24.4557247 28.5385571,22.8019152 28.6027075,22.0815602 C28.6662033,21.3598978 28.51761,20.5545645 28.3055209,20.36369 C28.0927772,20.1728156 27.7955905,19.9819411 28.0292813,19.1125472 C28.2629721,18.2431532 26.9465794,16.5468545 26.9465794,16.5468545 L23.6552702,18.8582658 Z" id="Fill-102" fill="#E2E9F5"></path>
                        <path d="M32.3184568,30.7534706 L32.5946964,38.8747866 L34.165727,39.7441805 C34.2717716,39.7010377 34.3778162,39.6173667 34.4629136,39.5101632 C36.3952813,36.6058645 35.7583593,28.1877779 35.7583593,28.1877779 L36.5013259,22.7596221 L36.0129972,19.9396481 L34.8242507,19.8121805 C35.2916323,17.6282368 35.5888189,15.5083537 35.0788886,15.2959078 C34.6331086,15.0834619 34.335922,14.3631069 34.165727,13.5571199 L33.3167159,19.3029641 C33.3167159,19.3029641 33.3802117,19.8337519 33.4227604,20.3632325 C33.4653092,20.7031459 33.4437075,21.0424056 33.35861,21.3810117 C33.167468,21.8686567 33.2951142,22.7380506 33.2951142,22.7380506 C32.8067855,23.6074446 32.5521476,25.1978472 32.4461031,26.7457606 C32.254961,28.781319 32.3184568,30.7534706 32.3184568,30.7534706" id="Fill-104" fill="#000000"></path>
                        <path d="M34.1658579,13.4296524 C34.1658579,13.4296524 35.5457465,13.5996091 35.9705794,14.1722325 C36.3954123,14.7448558 37.5422646,14.8298342 37.5422646,14.8298342 C37.5422646,14.8298342 38.8580028,15.2534186 38.8161086,15.3802325 C38.7735599,15.5083537 39.1977382,15.6560853 40.0048552,15.8678775 C40.8119721,16.0803234 42.1918607,16.864739 42.1918607,17.0556134 C42.1918607,17.2464879 44.3579192,19.3670247 44.3579192,19.5788169 C44.3579192,19.7906091 45.0164429,20.6181675 44.9313454,22.0595312 C44.8462479,23.5015485 44.761805,25.3253147 45.1015404,25.6220853 C45.4412758,25.9188558 45.1015404,27.085674 45.1015404,27.085674 C44.9313454,27.3393017 44.9103983,27.6792152 45.0799387,27.955068 C45.3561783,28.442713 45.03739,30.4776177 45.03739,30.4776177 L45.0589916,32.5981545 C45.0589916,32.5981545 44.761805,33.9342758 45.1224875,33.9767649 C45.4831699,34.0186004 45.0589916,34.633713 45.0589916,34.633713 C45.0589916,34.633713 44.761805,35.7155528 45.1434345,36.2031978 C45.5257187,36.6908429 45.6317632,38.7898082 45.6317632,38.7898082 L51.4498134,47.2497303 C51.4498134,47.2497303 51.5349109,48.7976437 49.6876407,48.776726 C47.8403705,48.7558082 47.8613175,49.1375571 47.925468,49.4768169 C47.9889638,49.8160766 47.4155376,50.2187433 47.4155376,50.2187433 C47.4155376,50.2187433 46.672571,50.6004922 47.118351,51.0665658 C47.5641309,51.5332931 48.7960808,52.5935615 46.7360669,53.2929987 C46.502376,52.9543926 46.2902869,52.5935615 46.1416936,52.2118126 C45.9714986,51.7241675 45.8229053,51.2365225 45.7168607,50.7488775 C45.7168607,50.7488775 45.5257187,48.6917476 45.1434345,48.4158948 C44.761805,48.1413494 44.8253008,46.8470636 44.8253008,46.8470636 C44.8253008,46.8470636 45.3771253,45.7867952 44.6125571,45.3632108 C43.8486435,44.9389727 32.8069164,38.810726 32.8069164,38.810726 L32.5306769,30.6684922 C32.5306769,30.6684922 32.3395348,24.667713 33.4863872,22.6530723 C33.4863872,22.6530723 33.3587409,21.784332 33.549883,21.296687 C33.7410251,20.809042 33.5289359,19.2402108 33.5289359,19.2402108 L34.1658579,13.4296524 Z" id="Fill-106" fill="#003A4B"></path>
                        <path d="M27.0311532,16.6955013 C27.0311532,16.6955013 24.2923231,16.1228779 23.5703036,16.5046268 C22.8482841,16.8863758 21.4042451,17.1831463 21.1705543,17.3949385 C20.9368635,17.6073844 20.4059861,17.4374277 19.9176574,18.7304061 C19.4293287,20.0031203 19.3658329,21.3176701 18.7505125,21.9112113 C18.1345376,22.5054061 17.7948022,22.9080727 17.7732006,23.3538823 C17.7522535,23.7983844 17.8582981,23.9042805 17.6036602,24.0324017 C17.3483677,24.1592156 17.0086323,24.731839 17.1153315,24.9436312 C17.221376,25.1554234 22.7847883,29.9475489 22.7847883,29.9475489 C22.7847883,29.9475489 23.0603733,31.7706615 23.2940641,32.2373887 C23.5277549,32.704116 23.0184791,39.0657264 22.4876017,39.4893108 C21.9567242,39.9142026 26.1605404,39.8921768 26.1605404,39.8921768 C26.1605404,39.8921768 26.3516825,35.7156182 26.5218774,35.5031723 C26.6914178,35.2907264 26.4158329,30.8385143 26.4158329,30.8385143 C26.4158329,30.8385143 26.3942312,27.0425965 26.7339666,26.0248173 C27.0737019,25.0070381 27.0527549,21.6778476 27.0527549,21.6778476 C27.0527549,21.6778476 27.3708886,19.6638606 27.7531727,19.1971333 C28.1354568,18.7304061 27.0311532,16.6955013 27.0311532,16.6955013" id="Fill-108" fill="#000000"></path>
                        <path d="M26.9464485,16.6105883 C26.9464485,16.6105883 24.2069638,16.0379649 23.4849443,16.4197139 C22.7629248,16.8014628 21.3195404,17.0982333 21.1074513,17.3100255 C20.8947075,17.5224714 20.342883,17.3740861 19.8545543,18.6461468 C19.365571,19.918861 19.3020752,21.2327571 18.6861003,21.8262983 C18.0707799,22.4204931 17.7310446,22.8231597 17.7094429,23.2689693 C17.6884958,23.7134714 17.7945404,23.8193675 17.5399025,23.9474887 C17.2852646,24.0743026 16.9455292,24.646926 17.0515738,24.8796359 C17.1576184,25.1136532 22.7210306,29.8842074 22.7210306,29.8842074 C22.7210306,29.8842074 22.9966156,31.7079736 23.2303064,32.1747009 C23.4639972,32.6401208 22.9540669,39.0017312 22.423844,39.4259693 C21.8929666,39.8502074 26.0967827,39.8294581 26.0967827,39.8294581 C26.0967827,39.8294581 26.2879248,35.6516229 26.4581198,35.4398307 C26.6276602,35.2273848 26.3520752,30.774519 26.3520752,30.774519 C26.3520752,30.774519 26.3304735,26.979255 26.6702089,25.9614758 C27.0099443,24.9436965 26.9673955,21.6145061 26.9673955,21.6145061 C26.9673955,21.6145061 27.2861838,19.5998654 27.668468,19.1337918 C28.0507521,18.6670645 26.9464485,16.6105883 26.9464485,16.6105883" id="Fill-110" fill="#003A4B"></path>
                        <path d="M26.6703398,14.2991117 C26.882429,14.8926528 26.9884735,15.508419 26.9884735,16.1437957 C29.7495599,16.9707004 32.7004791,15.8051896 34.1445181,13.3238216 C34.0175265,12.6453022 33.932429,11.9883541 33.8898802,11.2882632 C33.8898802,11.2882632 25.5025404,10.8431074 26.6703398,14.2991117" id="Fill-112" fill="#000000"></path>
                        <path d="M22.5298886,10.0163333 C22.5298886,13.4514199 25.3112674,16.2289048 28.7727716,16.2289048 C32.2126741,16.2289048 34.9940529,13.4514199 34.9940529,9.9947619 C34.9940529,6.55967532 32.2126741,3.78219048 28.7511699,3.78219048 C25.7995961,3.78219048 23.2728552,5.83866667 22.6568802,8.7227013 C22.5724373,9.14693939 22.5298886,9.57052381 22.5298886,10.0163333" id="Fill-114" fill="#FF8FA0"></path>
                        <path d="M18.5377033,24.4132355 L17.0511156,24.8799628 C17.0511156,24.8799628 17.2003635,25.4316684 16.753929,25.6852961 C16.4992911,25.8761706 16.3506978,26.1729411 16.3716448,26.4919368 C16.3716448,26.4919368 16.2021045,27.0854779 15.8198203,27.2332095 C15.4375362,27.3822485 15.1828983,28.2725602 15.1828983,28.2725602 L13.9300014,29.7139238 C13.9300014,29.7139238 13.4632744,30.0956727 13.5477173,30.2865472 C13.6328148,30.4774216 13.0593886,30.5414823 13.0593886,30.5414823 L13.3356281,35.376097 L15.9258649,35.863742 L17.5400989,35.694439 L18.8564916,35.2067939 L20.0026894,34.5282745 L20.5126198,33.1921532 L22.8056699,29.7139238 L18.5377033,24.4132355 Z" id="Fill-116" fill="#003A4B"></path>
                        <path d="M13.4416072,30.9021827 C13.4416072,30.9021827 10.129351,26.1100571 7.64515877,28.6966675 C5.16096657,31.2832779 8.64276323,35.4609446 9.47148189,35.3334771 C10.2988914,35.2060095 14.1852284,34.9732996 14.1852284,34.9732996 L13.4416072,30.9021827 Z" id="Fill-118" fill="#FF8FA0"></path>
                        <path d="M6.47722841,21.3178662 L21.3620891,28.9083944 C21.5316295,28.9933727 21.5957799,29.1842472 21.5106825,29.3542039 L15.6710306,40.7824853 C15.5865877,40.952442 15.3954457,41.0165026 15.2252507,40.9315242 L0.340389972,33.3403424 C0.170849582,33.2560177 0.10735376,33.0651433 0.191796657,32.8951866 L6.03079387,21.4662515 C6.11589136,21.2969485 6.3286351,21.2328879 6.47722841,21.3178662" id="Fill-120" fill="#003A4B"></path>
                        <polygon id="Fill-122" fill="#005C7C" points="1.87587604 32.6711052 6.87633565 22.8881355 19.8883969 29.5203693 14.8879373 39.303339"></polygon>
                        <path d="M3.88666435,27.276287 C4.01561978,27.276287 4.12035515,27.3802221 4.12035515,27.508997 C4.12035515,27.6384255 4.01561978,27.7423606 3.88666435,27.7423606 C3.75770891,27.7423606 3.65297354,27.6384255 3.65297354,27.508997 C3.65297354,27.3802221 3.75770891,27.276287 3.88666435,27.276287" id="Fill-124" fill="#E6E9ED"></path>
                        <path d="M17.9646045,34.3155017 C18.1871671,34.3155017 18.3678357,34.4959173 18.3678357,34.7188221 C18.3678357,34.9410732 18.1871671,35.1214887 17.9646045,35.1214887 C17.7420418,35.1214887 17.5607187,34.9410732 17.5607187,34.7188221 C17.5607187,34.4959173 17.7420418,34.3155017 17.9646045,34.3155017" id="Fill-126" fill="#E6E9ED"></path>
                        <path d="M11.2971689,31.9197004 C11.2756142,35.5031723 18.7078983,36.2660165 18.7078983,36.2660165 L20.5977173,36.5634407 L21.4467284,36.6909082 L21.8080655,33.191761 C21.8080655,33.191761 21.4257813,33.1283541 20.9374526,33.022458 C20.2154331,32.853155 19.2813245,32.5557307 19.0901825,32.1524104 C18.7504471,31.4738909 11.318163,28.3146571 11.2971689,31.9197004" id="Fill-128" fill="#FF8FA0"></path>
                        <path d="M22.6784819,8.72237446 C22.8480223,8.74394589 23.0182173,8.80735281 23.1452089,8.93416667 C23.3579526,9.14661255 23.3579526,9.5499329 23.6335376,9.67674675 C23.7402368,9.71858225 23.8462813,9.74080736 23.9523259,9.71858225 C24.6743454,9.61268615 25.0991783,8.80735281 25.7995961,8.57398918 C26.2034819,8.46809307 26.6276602,8.51058225 27.0099443,8.68053896 C27.1585376,8.72237446 27.3071309,8.80735281 27.4131755,8.93416667 C27.6468663,9.23159091 27.4773259,9.67674675 27.5833705,10.0375779 C27.7319638,10.5461407 28.326337,10.7370152 28.8572145,10.8010758 C29.3880919,10.863829 29.9615181,10.9069719 30.3222006,11.2880671 C30.5558914,11.5854913 30.6409889,11.9665866 30.577493,12.3483355 C30.5558914,12.475803 30.5558914,12.6032706 30.577493,12.7300844 C30.7260864,13.1327511 31.4265042,13.0693442 31.6176462,12.7510022 C31.7452925,12.5182922 31.7236908,12.3274177 32.0208774,12.2633571 C32.2545682,12.2424394 32.4882591,12.2849286 32.6794011,12.3699069 C33.2318802,12.5601277 33.8262535,12.6451061 34.3996797,12.6241883 C35.8646657,9.50679004 34.5266713,5.79585065 31.4055571,4.33356926 C28.2837883,2.8706342 24.5683008,4.20610173 23.1026602,7.32284632 C22.9331198,7.81049134 22.7629248,8.25630087 22.6784819,8.72237446" id="Fill-130" fill="#000000"></path>
                        <path d="M30.5774276,12.5818952 C30.5558259,12.4544277 30.5558259,12.3269602 30.5774276,12.2001463 C30.6409234,11.8183974 30.5558259,11.4366485 30.3221351,11.1398779 C29.9614526,10.7372113 29.3880265,10.7162935 28.8578036,10.6522329 C28.3269262,10.5881723 27.7318983,10.3763801 27.583305,9.88873506 C27.4772604,9.52855758 27.6468008,9.08274805 27.4137646,8.78597749 C27.3070655,8.65916364 27.1584721,8.57418528 27.0098788,8.5316961 C26.6275947,8.36239307 26.2027618,8.31925022 25.7995306,8.4258 C25.0991128,8.65916364 24.6958816,9.46449697 23.9522604,9.57104675 C23.8462159,9.5919645 23.7185696,9.57104675 23.6341267,9.52855758 C23.3578872,9.40109004 23.3578872,8.99842338 23.1451435,8.78597749 C22.8054081,8.4258 22.1900877,8.65916364 21.7862019,8.40422857 C21.5315641,8.23492554 21.4255195,7.8956658 21.340422,7.59889524 C21.1918287,7.00535411 21.0857841,6.39024156 21.2134304,5.79604675 C21.4471212,4.77826753 22.3596281,4.09974805 22.9330543,3.23035411 C23.4639318,2.42502078 23.7827201,1.40724156 24.589837,0.877107359 C25.3962994,0.34697316 26.4364526,0.474440693 27.3496142,0.728722078 C27.7744471,0.877107359 28.1992799,0.983003463 28.6450599,1.06798182 C29.3880265,1.15296017 30.110046,0.962085714 30.8530125,0.940514286 C31.8938203,0.898025108 32.9346281,1.2163671 33.7836393,1.83147965 C33.9747813,1.95829351 34.1443217,2.12825022 34.2503663,2.31912468 C34.3780125,2.59497749 34.4415084,2.89174805 34.46311,3.18851861 C34.5482075,3.76114199 34.738695,4.29062251 35.0365362,4.77826753 C35.2695724,5.16001645 35.545812,5.49927619 35.7585557,5.90259654 C35.9915919,6.28369177 36.0557423,6.75041905 35.9496978,7.19622857 C35.8855474,7.40802078 35.736954,7.61981299 35.6944053,7.85317662 C35.5674136,8.38331082 35.9280961,8.89187359 36.1617869,9.38017229 C36.3954777,9.82532814 36.5015223,10.3345446 36.4805752,10.8221896 C36.4589735,11.3307524 36.2252827,11.7974797 35.8220515,12.115168 C35.4188203,12.3910208 34.929837,12.5394061 34.4415084,12.5394061 C33.8471351,12.5603238 33.2527618,12.4759991 32.6793357,12.2635532 C32.4672465,12.1792286 32.2335557,12.1360857 32.0214666,12.1576571 C31.7026783,12.2210641 31.745227,12.4119385 31.6175808,12.6453022 C31.4264387,12.921155 30.7044192,12.9845619 30.5774276,12.5818952" id="Fill-132" fill="#3D3A56"></path>
                        <path d="M27.2222953,47.674426 L30.7263482,44.9387766 L36.2465571,39.5106208 C36.2465571,39.5106208 35.5035905,39.4681316 34.4208886,39.4262961 C34.2081448,39.6171706 34.0595515,39.8923697 34.0386045,40.1682225 C34.0170028,40.8251706 32.5520167,40.2107117 31.7874485,40.5918069 C31.0235348,40.9735558 27.3073928,45.7447636 26.6495237,45.7022745 C25.991,45.6597853 25.4810696,45.3630147 25.2048301,45.829742 L25.183883,45.8506597 C25.0778384,45.9774736 24.9292451,46.0624519 24.7590501,46.1055948 L27.2222953,47.674426 Z" id="Fill-134" fill="#000000"></path>
                        <path d="M20.1304011,47.4835515 L21.8925738,53.1025818 L22.1688134,53.9928935 L23.0184791,53.7601835 L24.8650947,53.2509671 L33.1038412,50.982045 C34.144649,50.9395558 35.1638552,50.663703 36.0770167,50.1969758 C37.6271003,49.3282355 39.4108747,48.9464866 41.1939944,49.0739541 C42.277351,49.1798502 43.4876992,48.7131229 44.5062507,46.8468675 C44.5062507,46.8468675 46.7999554,40.1041619 41.0237994,38.1751532 C35.2489526,36.2454909 34.9727131,39.1922788 34.9727131,39.1922788 L34.8876156,39.2354216 C34.6755265,39.3831532 34.0386045,39.8289628 34.0170028,40.359097 C33.9960557,41.016045 32.530415,40.4015861 31.7665014,40.7826814 C31.0019331,41.1644303 27.264844,45.9356381 26.6069749,45.8931489 C25.9484513,45.8506597 25.4385209,45.5538892 25.1622813,46.0206165 L25.1413343,46.0415342 C24.9292451,46.317387 24.3342173,46.3807939 23.9309861,46.4023654 L23.5487019,46.4023654 L23.5068078,46.4232831 L23.0819749,46.550097 L20.1304011,47.4835515 Z" id="Fill-136" fill="#67617F"></path>
                        <path d="M20.59739,36.5631792 L21.4470557,36.6906468 L21.8077382,33.1921532 C21.8077382,33.1921532 21.425454,33.1280926 20.9371253,33.0221965 C21.0431699,33.5098416 20.767585,35.3970147 20.59739,36.5631792" id="Fill-138" fill="#000000"></path>
                        <path d="M42.8504499,20.1726195 C42.8504499,20.1726195 45.3771908,19.4306931 44.7612159,26.6185545 C44.1458955,33.806416 39.4530961,38.3233424 39.4530961,38.3233424 C39.4530961,38.3233424 34.0598788,40.6981606 31.6391825,40.3164117 C30.2586393,40.0830481 28.8578036,39.9346628 27.4556588,39.8503381 C26.6910905,39.4685892 25.8636811,39.2352255 25.0140153,39.1927364 C23.6550738,39.1502472 20.7885975,38.301771 20.7460487,38.0259182 C20.7035,37.7513727 21.4471212,33.7645805 21.1283329,33.46781 C21.1283329,33.46781 24.9295724,33.6155416 25.3112019,33.8913944 C25.6934861,34.1672472 26.2453106,33.9763727 26.6491964,33.8913944 C27.0524276,33.806416 28.3053245,32.7252299 30.7895167,33.6796022 C30.7895167,33.6796022 31.6391825,33.7645805 31.9573162,33.5527883 C32.2761045,33.3409961 32.8069819,33.4887277 32.8069819,33.4887277 C33.019071,33.4246671 33.2102131,33.318771 33.4013552,33.1919571 C33.4864526,33.086061 34.1443217,33.1919571 34.1443217,33.1919571 C34.292915,33.2560177 34.46311,33.2128749 34.5266058,33.0651433 C34.5266058,33.0435719 34.5482075,33.0220004 34.5482075,33.0010827 C34.6326504,32.7683727 34.7602967,32.5774983 34.929837,32.4075416 C34.929837,32.4075416 35.6734582,28.2730177 37.0540014,26.7244506 C37.0540014,26.7244506 37.4572326,26.3642732 37.351188,25.9400351 C37.2444889,25.5164506 39.5800877,19.3032255 42.8504499,20.1726195" id="Fill-140" fill="#000000"></path>
                        <path d="M42.7865613,19.6217636 C42.7865613,19.6217636 45.3133022,18.8791835 44.6973273,26.067045 C44.082007,33.2555602 39.3892075,37.7724866 39.3892075,37.7724866 C39.3892075,37.7724866 33.9959903,40.1466511 31.5752939,39.7649022 C29.1545975,39.3831532 27.3708231,39.2988286 27.3708231,39.2988286 C26.6069095,38.9170797 25.7788454,38.683716 24.9291797,38.6418805 C23.5702382,38.5987377 20.7037618,37.7502615 20.6612131,37.4750623 C20.6186643,37.1998632 21.3622855,33.213071 21.0434972,32.9163004 C21.0434972,32.9163004 24.8440822,33.0646857 25.2263663,33.3398848 C25.6086504,33.6157377 26.1611295,33.4248632 26.5643607,33.3398848 C26.9675919,33.2555602 28.2204889,32.174374 30.7046811,33.1280926 C30.7046811,33.1280926 31.5543468,33.213071 31.8724805,33.0012788 C32.1912688,32.7894866 32.7221462,32.9372182 32.7221462,32.9372182 C32.9342354,32.8738113 33.1253774,32.7679152 33.3165195,32.6404476 C33.401617,32.5345515 34.0594861,32.6404476 34.0594861,32.6404476 C34.208734,32.7045082 34.3782744,32.662019 34.4417702,32.5136338 C34.4417702,32.4920623 34.4633719,32.4711446 34.4633719,32.4495732 C34.5484694,32.237781 34.675461,32.0259887 34.845656,31.856032 C34.845656,31.856032 35.5886226,27.7215082 36.9685111,26.1729411 C36.9685111,26.1729411 37.3723969,25.8134173 37.2656978,25.3885255 C37.1596532,24.9649411 39.5168538,18.7523697 42.7865613,19.6217636" id="Fill-142" fill="#003A4B"></path>
                        <path d="M23.1243928,46.5930437 L26.7128886,50.9393597 L26.7338357,50.918442 C26.7554373,50.8334636 27.1161198,49.9222342 27.0310223,49.8581736 C26.9465794,49.794113 26.3306045,48.4377277 25.0777075,47.8651043 C24.4407855,47.5467623 23.9099081,47.0591173 23.548571,46.4655762 L23.1243928,46.5930437 Z" id="Fill-144" fill="#000000"></path>
                        <path d="M23.166876,54.098855 L23.5485056,54.3322186 C23.5485056,54.3322186 24.4623217,53.5902922 25.3754833,52.8692835 C26.2879903,52.1482749 27.1586031,51.4063485 27.1795501,51.3854307 C27.2011518,51.3004524 27.5618343,50.3879156 27.4767368,50.3251623 C27.4348426,50.3035909 27.2437006,49.921842 26.9039652,49.4766861 C24.4623217,48.7981667 26.0124053,50.4938117 26.2244944,50.5578723 C26.2244944,50.5578723 23.2513189,49.8793528 23.1027256,53.1026472 C23.0817786,53.4419069 23.1027256,53.7811667 23.166876,54.098855" id="Fill-146" fill="#000000"></path>
                        <path d="M26.1819457,55.4770732 L26.6912214,55.7738437 L31.9365,55.9013113 C32.5308733,56.2614887 33.1468482,56.5582593 33.8047173,56.7922766 L34.0600097,56.8550299 C34.5483384,56.8981727 35.0360125,56.8981727 35.5243412,56.877255 C35.928227,56.877255 36.2463607,56.8550299 36.2463607,56.8550299 C36.2463607,56.8550299 35.9917228,50.2397918 35.8221825,49.5403545 C35.737085,49.2004411 35.291305,49.2854195 34.8664721,49.4553762 C34.5483384,49.58219 34.2295501,49.7521468 33.9323635,49.9221035 C33.9323635,49.9221035 31.7028092,50.1338957 31.3414721,50.3247701 C30.9807897,50.5156446 29.9831852,50.218874 29.3672103,50.3247701 C28.7512354,50.4306662 27.6259847,49.58219 27.6259847,49.58219 C24.5683663,48.5859823 26.2879903,50.4522377 26.500734,50.5365623 C26.500734,50.5365623 23.5275585,49.8580429 23.3789652,53.0813372 C23.2303719,56.3046316 26.1819457,55.4770732 26.1819457,55.4770732" id="Fill-148" fill="#3D3A56"></path>
                        <path d="M33.7624958,52.9115113 C33.8259916,54.289468 34.8877465,55.9864203 35.5246685,56.876732 C35.9285543,56.876732 36.246688,56.8551606 36.246688,56.8551606 C36.246688,56.8551606 35.9920501,50.2399225 35.8218552,49.5404853 C35.7374123,49.2005719 35.2909777,49.2855502 34.8667994,49.4555069 C34.3143203,50.430797 33.7199471,51.8087537 33.7624958,52.9115113" id="Fill-150" fill="#56528A"></path>
                        <path d="M33.7624958,52.9115113 C33.8259916,54.289468 34.8877465,55.9864203 35.5246685,56.876732 C35.9285543,56.876732 36.246688,56.8551606 36.246688,56.8551606 C36.246688,56.8551606 35.9920501,50.2399225 35.8218552,49.5404853 C35.7374123,49.2005719 35.2909777,49.2855502 34.8667994,49.4555069 C34.3143203,50.430797 33.7199471,51.8087537 33.7624958,52.9115113" id="Fill-152" fill="#000000"></path>
                        <path d="M32.8704123,53.1023857 C33.2317493,54.4175892 33.2317493,55.901442 33.8045209,56.8133251 C33.8896184,56.8342429 33.9747159,56.8551606 34.0598134,56.876732 C34.5481421,56.9192212 35.0364708,56.9192212 35.5247994,56.8983035 C35.9280306,56.8983035 36.2468189,56.876732 36.2468189,56.876732 C36.2468189,56.876732 35.9921811,50.2608403 35.8219861,49.561403 C35.7368886,49.2221433 35.2911086,49.306468 34.8662758,49.4764247 C34.5481421,49.6032385 34.2293538,49.7731952 33.9321671,49.9431519 C33.9112201,49.9222342 32.4036852,51.406087 32.8704123,53.1023857" id="Fill-154" fill="#000000"></path>
                        <path d="M14.7581309,39.7012991 C14.7581309,39.7012991 17.3699694,40.5497753 19.5785766,43.5606238 L14.7581309,39.7012991 Z" id="Fill-156" fill="#000000"></path>
                        <g id="Group-162" transform="translate(20.947075, 4.575758)" fill="#000000">
                            <path d="M15.0023607,2.51437879 C15.0023607,2.53529654 15.0023607,2.55621429 14.9814136,2.57778571 C14.959812,2.66276407 14.9172632,2.726171 14.8963162,2.81114935 C14.9172632,2.70525325 14.959812,2.59935714 15.0023607,2.51437879" id="Fill-158"></path>
                            <path d="M0.244818942,1.19930606 C0.287367688,1.0084316 0.372465181,0.817557143 0.457562674,0.648254113 C0.435961003,0.69074329 0.435961003,0.732578788 0.415013928,0.796639394 C0.266420613,1.39018052 0.393412256,2.00463939 0.542005571,2.59948788 C0.606155989,2.89625844 0.712200557,3.2348645 0.987785515,3.40482121 C1.39167131,3.6591026 2.02859331,3.44665671 2.34672702,3.78657013 C2.55947075,3.99836234 2.55947075,4.401029 2.83571031,4.52849654 C2.94175487,4.57098571 3.04779944,4.59190346 3.15384401,4.57098571 C3.87586351,4.46508961 4.30069638,3.6591026 5.00111421,3.42573896 C5.405,3.31984286 5.82917827,3.36233203 6.2114624,3.53163506 C6.36005571,3.57412424 6.50864903,3.6591026 6.61469359,3.78657013 C6.8483844,4.08334069 6.67884401,4.52849654 6.78488858,4.88932771 C6.93348189,5.39789048 7.52785515,5.58876494 8.05938719,5.65217186 C8.58961003,5.71557879 9.16303621,5.75872165 9.52371866,6.14047056 C9.75740947,6.43724113 9.84250696,6.81899004 9.77901114,7.20008528 C9.75740947,7.32755281 9.75740947,7.45436667 9.77901114,7.5818342 C9.92760446,7.98450087 10.6280223,7.92109394 10.8191643,7.60340563 C10.9468106,7.36938831 10.9042618,7.17851385 11.2230501,7.11576061 C11.4560864,7.09418918 11.6897772,7.13667835 11.8809192,7.22165671 C12.4543454,7.41253117 13.0487187,7.49685584 13.6430919,7.4759381 C14.1314206,7.4759381 14.6197493,7.32755281 15.0236351,7.0517 C15.1931755,6.90331472 15.3417688,6.73401169 15.448468,6.54313723 C15.3633705,6.90331472 15.1506267,7.22165671 14.8534401,7.45436667 C14.4502089,7.73021948 13.9618802,7.87860476 13.4735515,7.87860476 C12.8791783,7.90017619 12.284805,7.79428009 11.7113788,7.60340563 C11.4986351,7.51842727 11.2649443,7.4759381 11.0528552,7.49750952 C10.7340669,7.56026277 10.7766156,7.75113723 10.649624,7.98450087 C10.4584819,8.30284286 9.75740947,8.36624978 9.60881616,7.96358312 C9.58786908,7.83611558 9.58786908,7.70930173 9.60881616,7.5818342 C9.67296657,7.20008528 9.58786908,6.81899004 9.35417827,6.52221948 C8.99349582,6.11824545 8.42006964,6.09732771 7.8891922,6.03392078 C7.35831476,5.97051385 6.76328691,5.75872165 6.61469359,5.27107662 C6.50864903,4.91024545 6.67884401,4.46508961 6.4451532,4.16831905 C6.33910864,4.04085152 6.19051532,3.95587316 6.04126741,3.91338398 C5.65963788,3.74408095 5.23480501,3.70159177 4.83157382,3.80748788 C4.13115599,4.04085152 3.72727019,4.84618485 2.98430362,4.95273463 C2.87760446,4.97365238 2.75061281,4.95273463 2.66551532,4.91024545 C2.38927577,4.78277792 2.38927577,4.38011126 2.17718663,4.16831905 C1.83745125,3.80748788 1.22147632,4.04085152 0.818245125,3.78657013 C0.563607242,3.61661342 0.457562674,3.27735368 0.372465181,2.98058312 C0.223871866,2.40861342 0.117827298,1.77192944 0.244818942,1.19930606" id="Fill-160"></path>
                        </g>
                        <path d="M36.3742033,27.5093238 C35.8858747,28.1878433 35.3124485,28.8029558 34.8666685,29.5239645 C34.4208886,30.2449732 34.1237019,31.0712242 34.2081448,31.8987827 C34.6755265,31.4320554 34.8666685,30.7960251 35.1638552,30.2018303 C35.6521838,29.2056225 36.3742033,28.3578 36.9895237,27.4452632 C37.0962228,27.2766139 37.8607911,26.258181 37.478507,26.2156918 C37.1597187,26.1732026 36.5437437,27.2975316 36.3742033,27.5093238" id="Fill-163" fill="#000000"></path>
                    </g>
                </g>
            </g>
        </g>
    </g>
</svg>