<?xml version="1.0" encoding="UTF-8"?>
<svg width="275px" height="299px" viewBox="0 0 275 299" version="1.1" xmlns="http://www.w3.org/2000/svg" xmlns:xlink="http://www.w3.org/1999/xlink">
    <!-- Generator: Sketch 60.1 (88133) - https://sketch.com -->
    <title>Group 70</title>
    <desc>Created with Sketch.</desc>
    <defs>
        <polygon id="path-1" points="0 294 270 294 270 0.477 0 0.477"></polygon>
    </defs>
    <g id="Page-1" stroke="none" stroke-width="1" fill="none" fill-rule="evenodd">
        <g id="v" transform="translate(-960.000000, -1207.000000)">
            <g id="Group-70" transform="translate(962.000000, 1209.000000)">
                <polygon id="Fill-1" fill="#2DCCCD" points="136.5 0.5006 1.5 46.1231 1.5 248.3996 136.5 294.0236 271.5 248.3996 271.5 46.1231"></polygon>
                <path d="M3,245.478311 L135.75,290 L268.5,245.478311 L268.5,48.0184477 L135.75,3.5 L3,48.0184477 L3,245.478311 Z M135.75,294.5 L0,248.789477 L0,46.2088987 L135.75,0.5 L271.5,46.2088987 L271.5,248.789477 L135.75,294.5 Z" id="Fill-2" stroke="#FFFFFF" stroke-width="3" fill="#FFFFFF"></path>
                <g id="Group-69" transform="translate(1.500000, 0.023000)">
                    <path d="M145.5,251.52465 L123,251.52465 C122.586,251.52465 122.25,251.18865 122.25,250.77465 C122.25,250.36065 122.586,250.02465 123,250.02465 L145.5,250.02465 C145.914,250.02465 146.25,250.36065 146.25,250.77465 C146.25,251.18865 145.914,251.52465 145.5,251.52465" id="Fill-3" fill="#1D355E"></path>
                    <path d="M145.5,247.02465 L123,247.02465 C122.586,247.02465 122.25,246.68865 122.25,246.27465 C122.25,245.86065 122.586,245.52465 123,245.52465 L145.5,245.52465 C145.914,245.52465 146.25,245.86065 146.25,246.27465 C146.25,246.68865 145.914,247.02465 145.5,247.02465" id="Fill-5" fill="#1D355E"></path>
                    <path d="M146.0427,50.0565 L140.2662,61.053 C140.1402,61.29 139.7847,61.29 139.6602,61.053 L133.8792,50.0565 C133.8207,49.947 133.7067,49.878 133.5822,49.878 L130.7892,49.878 C130.5987,49.878 130.4787,50.0805 130.5687,50.247 L139.6677,67.2795 C139.7937,67.515 140.1312,67.515 140.2572,67.2795 L149.3577,50.247 C149.4477,50.0805 149.3262,49.878 149.1372,49.878 L146.3382,49.878 C146.2137,49.878 146.1012,49.947 146.0427,50.0565" id="Fill-7" fill="#FFFFFF"></path>
                    <path d="M149.3217,64.7292 L155.0982,53.7342 C155.2227,53.4957 155.5782,53.4957 155.7042,53.7327 L161.4852,64.7292 C161.5437,64.8402 161.6577,64.9077 161.7807,64.9077 L164.5752,64.9077 C164.7642,64.9077 164.8857,64.7052 164.7957,64.5387 L155.6967,47.5062 C155.5707,47.2707 155.2317,47.2707 155.1057,47.5062 L146.0052,64.5387 C145.9152,64.7052 146.0367,64.9077 146.2272,64.9077 L149.0247,64.9077 C149.1492,64.9077 149.2632,64.8387 149.3217,64.7292" id="Fill-9" fill="#FFFFFF"></path>
                    <path d="M106.11465,64.90785 L100.90665,64.90785 C100.72215,64.90785 100.57215,64.75785 100.57215,64.57335 L100.57215,59.90385 C100.57215,59.71935 100.72215,59.56935 100.90665,59.56935 L106.11465,59.56935 C108.59565,59.56935 109.70565,60.27285 109.70565,62.23935 C109.70565,64.20435 108.61965,64.90785 106.11465,64.90785 M100.90965,52.42035 L106.04565,52.42035 C107.93715,52.42035 108.90165,53.22885 108.90165,54.72135 C108.90165,56.21985 107.94165,57.02385 106.04565,57.02385 L100.90965,57.02385 C100.72515,57.02385 100.57515,56.87385 100.57515,56.68935 L100.57515,52.75335 C100.57515,52.56885 100.72515,52.42035 100.90965,52.42035 M109.84965,57.98985 C111.05565,57.38685 111.80865,56.08035 111.80865,54.47385 C111.80865,51.73635 109.67415,49.87785 106.66065,49.87785 L98.00265,49.87785 C97.81665,49.87785 97.66815,50.02785 97.66815,50.21235 L97.66815,67.12185 C97.66815,67.30635 97.81665,67.45635 98.00265,67.45635 L106.28115,67.45635 C110.42415,67.45635 112.60965,65.67285 112.60965,62.18235 C112.60965,58.77585 109.84965,57.98985 109.84965,57.98985" id="Fill-11" fill="#FFFFFF"></path>
                    <path d="M123.876,64.90785 L118.6695,64.90785 C118.4835,64.90785 118.335,64.75785 118.335,64.57335 L118.335,59.90385 C118.335,59.71935 118.4835,59.56935 118.6695,59.56935 L123.876,59.56935 C126.3585,59.56935 127.467,60.27285 127.467,62.23935 C127.467,64.20435 126.3825,64.90785 123.876,64.90785 M118.6725,52.42035 L123.807,52.42035 C125.7,52.42035 126.663,53.22885 126.663,54.72135 C126.663,56.21985 125.703,57.02385 123.807,57.02385 L118.6725,57.02385 C118.488,57.02385 118.338,56.87385 118.338,56.68935 L118.338,52.75335 C118.338,52.56885 118.488,52.42035 118.6725,52.42035 M127.6125,57.98985 C128.817,57.38685 129.57,56.08035 129.57,54.47385 C129.57,51.73635 127.437,49.87785 124.4235,49.87785 L115.764,49.87785 C115.5795,49.87785 115.4295,50.02785 115.4295,50.21235 L115.4295,67.12185 C115.4295,67.30635 115.5795,67.45635 115.764,67.45635 L124.0425,67.45635 C128.187,67.45635 130.371,65.67285 130.371,62.18235 C130.371,58.77585 127.6125,57.98985 127.6125,57.98985" id="Fill-13" fill="#FFFFFF"></path>
                    <path d="M149.4411,76.5255 C149.4411,74.8485 148.5951,73.851 147.4206,73.851 C146.2476,73.851 145.4016,74.8485 145.4016,76.5255 C145.4016,78.201 146.2476,79.2075 147.4206,79.2075 C148.5951,79.2075 149.4411,78.201 149.4411,76.5255 M144.8061,76.5255 C144.8061,74.58 145.9206,73.3065 147.4206,73.3065 C148.9131,73.3065 150.0366,74.58 150.0366,76.5255 C150.0366,78.4695 148.9131,79.7445 147.4206,79.7445 C145.9206,79.7445 144.8061,78.4695 144.8061,76.5255" id="Fill-15" fill="#FFFFFF"></path>
                    <path d="M154.4106,77.42205 C154.4106,76.20705 153.8076,75.62055 153.0696,75.62055 C152.5251,75.62055 152.1381,75.89655 151.6941,76.34055 L151.6941,78.50355 C152.1471,78.96405 152.5581,79.21605 153.0861,79.21605 C153.8241,79.21605 154.4106,78.68805 154.4106,77.42205 L154.4106,77.42205 Z M151.1166,81.34605 L151.1166,75.21705 L151.6356,75.21705 L151.6941,75.83805 C152.0466,75.45255 152.5071,75.12555 153.1701,75.12555 C154.1841,75.12555 154.9896,75.87105 154.9896,77.41455 C154.9896,78.95505 154.1751,79.70205 153.1536,79.70205 C152.5506,79.70205 152.0886,79.42605 151.6941,79.02255 L151.6941,81.26205 L151.1166,81.34605 Z" id="Fill-17" fill="#FFFFFF"></path>
                    <path d="M158.9274,77.07855 C158.8689,76.24005 158.4669,75.61155 157.6779,75.61155 C157.0419,75.61155 156.4374,76.08855 156.3369,77.07855 L158.9274,77.07855 Z M155.7504,77.41455 C155.7504,75.85455 156.7554,75.12555 157.6869,75.12555 C158.7084,75.12555 159.4884,75.91305 159.4884,77.42205 L159.4884,77.53155 L156.3294,77.53155 C156.3369,78.61155 156.9579,79.23255 157.7784,79.23255 C158.3649,79.23255 158.7849,79.00755 159.1959,78.57855 L159.4809,78.95505 C158.9934,79.46655 158.5089,79.71855 157.7709,79.71855 C156.6549,79.71855 155.7504,78.92205 155.7504,77.41455 L155.7504,77.41455 Z" id="Fill-19" fill="#FFFFFF"></path>
                    <path d="M160.49415,79.6266 L160.49415,75.2181 L161.01315,75.2181 L161.07165,75.9126 C161.50815,75.4776 162.06915,75.1251 162.73965,75.1251 C163.62915,75.1251 164.07315,75.6021 164.07315,76.4241 L164.07315,79.6266 L163.49415,79.6266 L163.49415,76.5426 C163.49415,75.9216 163.22565,75.6111 162.60615,75.6111 C162.04365,75.6111 161.56665,75.9051 161.07165,76.3821 L161.07165,79.6266 L160.49415,79.6266 Z" id="Fill-21" fill="#FFFFFF"></path>
                    <mask id="mask-2" fill="white">
                        <use xlink:href="#path-1"></use>
                    </mask>
                    <g id="Clip-24"></g>
                    <polygon id="Fill-23" fill="#FFFFFF" mask="url(#mask-2)" points="167.298 79.626 167.8935 79.626 167.8935 73.4235 167.298 73.4235"></polygon>
                    <path d="M169.36005,79.6266 L169.36005,75.2181 L169.88055,75.2181 L169.93905,75.9126 C170.37405,75.4776 170.93655,75.1251 171.60705,75.1251 C172.49505,75.1251 172.93905,75.6021 172.93905,76.4241 L172.93905,79.6266 L172.36155,79.6266 L172.36155,76.5426 C172.36155,75.9216 172.09305,75.6111 171.47355,75.6111 C170.91105,75.6111 170.43255,75.9051 169.93905,76.3821 L169.93905,79.6266 L169.36005,79.6266 Z" id="Fill-25" fill="#FFFFFF" mask="url(#mask-2)"></path>
                    <path d="M174.14505,79.6266 L174.14505,75.2181 L174.66555,75.2181 L174.72405,75.9126 C175.15905,75.4776 175.72155,75.1251 176.39205,75.1251 C177.28005,75.1251 177.72405,75.6021 177.72405,76.4241 L177.72405,79.6266 L177.14655,79.6266 L177.14655,76.5426 C177.14655,75.9216 176.87805,75.6111 176.25705,75.6111 C175.69605,75.6111 175.21755,75.9051 174.72405,76.3821 L174.72405,79.6266 L174.14505,79.6266 Z" id="Fill-26" fill="#FFFFFF" mask="url(#mask-2)"></path>
                    <path d="M182.0991,77.42205 C182.0991,76.45005 181.6131,75.62055 180.6831,75.62055 C179.7861,75.62055 179.2566,76.38255 179.2566,77.42205 C179.2566,78.40305 179.7351,79.22505 180.6831,79.22505 C181.5711,79.22505 182.0991,78.46155 182.0991,77.42205 M178.6791,77.42205 C178.6791,75.94755 179.5926,75.12555 180.6831,75.12555 C181.7631,75.12555 182.6781,75.94755 182.6781,77.42205 C182.6781,78.88905 181.7631,79.71855 180.6831,79.71855 C179.6001,79.71855 178.6791,78.88905 178.6791,77.42205" id="Fill-27" fill="#FFFFFF" mask="url(#mask-2)"></path>
                    <polygon id="Fill-28" fill="#FFFFFF" mask="url(#mask-2)" points="184.8552 79.6515 183.2457 75.2685 183.8247 75.159 185.1567 78.939 185.1732 78.939 186.4737 75.2175 187.0602 75.2175 185.4342 79.6515"></polygon>
                    <path d="M190.5879,78.52875 L190.5879,77.15325 C188.6439,77.48925 188.1654,77.94975 188.1654,78.52125 C188.1654,78.98025 188.4669,79.22475 188.9694,79.22475 C189.5904,79.22475 190.1349,78.96525 190.5879,78.52875 M187.5954,78.58725 C187.5954,77.71575 188.3409,77.08725 190.5879,76.74375 L190.5879,76.51725 C190.5879,75.91275 190.2609,75.61125 189.6819,75.61125 C188.9949,75.61125 188.5179,75.88875 188.0484,76.30725 L187.7214,75.94725 C188.2494,75.46125 188.8284,75.12525 189.7239,75.12525 C190.7064,75.12525 191.1579,75.65325 191.1579,76.53375 L191.1579,79.62675 L190.6464,79.62675 L190.5879,78.99675 C190.0764,79.45125 189.5064,79.70175 188.8449,79.70175 C188.0574,79.70175 187.5954,79.27425 187.5954,78.58725" id="Fill-29" fill="#FFFFFF" mask="url(#mask-2)"></path>
                    <path d="M192.657,78.57855 L192.657,75.70305 L191.895,75.70305 L191.895,75.21705 L192.657,75.21705 L192.657,73.66755 L193.236,73.58205 L193.236,75.21705 L194.3835,75.21705 L194.3835,75.70305 L193.236,75.70305 L193.236,78.49455 C193.236,78.96405 193.4115,79.19955 193.923,79.19955 C194.082,79.19955 194.241,79.17405 194.3595,79.14105 L194.4255,79.63605 C194.283,79.66005 194.04,79.68555 193.8225,79.68555 C193.035,79.68555 192.657,79.38405 192.657,78.57855" id="Fill-30" fill="#FFFFFF" mask="url(#mask-2)"></path>
                    <path d="M195.381,79.626 L195.9585,79.626 L195.9585,75.2175 L195.381,75.2175 L195.381,79.626 Z M195.3135,73.8765 C195.3135,73.659 195.447,73.524 195.666,73.524 C195.8835,73.524 196.0185,73.659 196.0185,73.8765 C196.0185,74.103 195.8835,74.2455 195.666,74.2455 C195.447,74.2455 195.3135,74.103 195.3135,73.8765 L195.3135,73.8765 Z" id="Fill-31" fill="#FFFFFF" mask="url(#mask-2)"></path>
                    <path d="M200.42655,77.42205 C200.42655,76.45005 199.94055,75.62055 199.01055,75.62055 C198.11355,75.62055 197.58555,76.38255 197.58555,77.42205 C197.58555,78.40305 198.06255,79.22505 199.01055,79.22505 C199.89855,79.22505 200.42655,78.46155 200.42655,77.42205 M197.00655,77.42205 C197.00655,75.94755 197.92005,75.12555 199.01055,75.12555 C200.09205,75.12555 201.00555,75.94755 201.00555,77.42205 C201.00555,78.88905 200.09205,79.71855 199.01055,79.71855 C197.92755,79.71855 197.00655,78.88905 197.00655,77.42205" id="Fill-32" fill="#FFFFFF" mask="url(#mask-2)"></path>
                    <path d="M202.0092,79.6266 L202.0092,75.2181 L202.5297,75.2181 L202.5882,75.9126 C203.0232,75.4776 203.5857,75.1251 204.2562,75.1251 C205.1442,75.1251 205.5882,75.6021 205.5882,76.4241 L205.5882,79.6266 L205.0107,79.6266 L205.0107,76.5426 C205.0107,75.9216 204.7422,75.6111 204.1227,75.6111 C203.5602,75.6111 203.0817,75.9051 202.5882,76.3821 L202.5882,79.6266 L202.0092,79.6266 Z" id="Fill-33" fill="#FFFFFF" mask="url(#mask-2)"></path>
                    <path d="M69.7089,137.0763 C69.0369,137.4123 67.6914,137.7483 65.9694,137.7483 C61.9764,137.7483 58.9719,135.2268 58.9719,130.5828 C58.9719,126.1503 61.9764,123.1458 66.3684,123.1458 C68.1324,123.1458 69.2469,123.5238 69.7299,123.7758 L69.2889,125.2683 C68.5959,124.9308 67.6074,124.6788 66.4314,124.6788 C63.1119,124.6788 60.9054,126.8013 60.9054,130.5198 C60.9054,133.9878 62.9004,136.2153 66.3474,136.2153 C67.4604,136.2153 68.5959,135.9828 69.3309,135.6258 L69.7089,137.0763 Z" id="Fill-34" fill="#1D355E" mask="url(#mask-2)"></path>
                    <path d="M73.4838,130.5417 C73.4838,133.5672 75.1218,136.2777 78.0018,136.2777 C80.8998,136.2777 82.5393,133.6092 82.5393,130.3947 C82.5393,127.5792 81.0693,124.6377 78.0213,124.6377 C74.9958,124.6377 73.4838,127.4322 73.4838,130.5417 M84.4728,130.3107 C84.4728,135.1857 81.5103,137.7702 77.8953,137.7702 C74.1558,137.7702 71.5293,134.8707 71.5293,130.5837 C71.5293,126.0867 74.3238,123.1452 78.1068,123.1452 C81.9723,123.1452 84.4728,126.1077 84.4728,130.3107" id="Fill-35" fill="#1D355E" mask="url(#mask-2)"></path>
                    <path d="M87.21675,137.53845 L87.21675,123.37695 L89.21325,123.37695 L93.75075,130.54095 C94.80225,132.20145 95.62125,133.69395 96.29325,135.14295 L96.33675,135.12195 C96.16725,133.23045 96.12525,131.50845 96.12525,129.30195 L96.12525,123.37695 L97.84875,123.37695 L97.84875,137.53845 L95.99925,137.53845 L91.50225,130.35195 C90.51525,128.77695 89.57025,127.15845 88.85625,125.62545 L88.79325,125.64645 C88.89825,127.43145 88.94025,129.13395 88.94025,131.48745 L88.94025,137.53845 L87.21675,137.53845 Z" id="Fill-36" fill="#1D355E" mask="url(#mask-2)"></path>
                    <path d="M101.1606,135.31125 C101.9796,135.81525 103.1781,136.23525 104.4381,136.23525 C106.3086,136.23525 107.4006,135.24825 107.4006,133.81875 C107.4006,132.49575 106.6446,131.73975 104.7321,131.00325 C102.4206,130.18425 100.9926,128.98725 100.9926,126.99075 C100.9926,124.78425 102.8196,123.14625 105.5721,123.14625 C107.0226,123.14625 108.0726,123.48225 108.7041,123.83925 L108.1986,125.33175 C107.7366,125.07825 106.7916,124.65825 105.5091,124.65825 C103.5771,124.65825 102.8421,125.81325 102.8421,126.78075 C102.8421,128.10375 103.7031,128.75625 105.6576,129.51225 C108.0531,130.43625 109.2711,131.59275 109.2711,133.67175 C109.2711,135.85725 107.6526,137.74875 104.3121,137.74875 C102.9456,137.74875 101.4546,137.34975 100.6986,136.84425 L101.1606,135.31125 Z" id="Fill-37" fill="#1D355E" mask="url(#mask-2)"></path>
                    <polygon id="Fill-38" fill="#1D355E" mask="url(#mask-2)" points="114.8334 124.9314 110.5254 124.9314 110.5254 123.3774 121.0104 123.3774 121.0104 124.9314 116.6829 124.9314 116.6829 137.5389 114.8334 137.5389"></polygon>
                    <path d="M124.7871,130.01655 L126.6576,130.01655 C128.6106,130.01655 129.8511,128.94555 129.8511,127.32705 C129.8511,125.49855 128.5266,124.70055 126.5946,124.67955 C125.7111,124.67955 125.0811,124.76355 124.7871,124.84755 L124.7871,130.01655 Z M122.9586,123.56655 C123.8826,123.37755 125.2071,123.27105 126.4686,123.27105 C128.4216,123.27105 129.6831,123.62955 130.5651,124.42755 C131.2791,125.05755 131.6796,126.02355 131.6796,127.11705 C131.6796,128.98605 130.5021,130.22655 129.0096,130.73055 L129.0096,130.79355 C130.1031,131.17305 130.7541,132.18105 131.0901,133.65105 C131.5521,135.62655 131.8881,136.99155 132.1836,137.53905 L130.2921,137.53905 C130.0611,137.14005 129.7461,135.92055 129.3471,134.15505 C128.9271,132.20205 128.1696,131.46555 126.5091,131.40255 L124.7871,131.40255 L124.7871,137.53905 L122.9586,137.53905 L122.9586,123.56655 Z" id="Fill-39" fill="#1D355E" mask="url(#mask-2)"></path>
                    <path d="M136.46265,123.3771 L136.46265,131.7606 C136.46265,134.9331 137.86965,136.2786 139.76115,136.2786 C141.86265,136.2786 143.20815,134.8911 143.20815,131.7606 L143.20815,123.3771 L145.05615,123.3771 L145.05615,131.6346 C145.05615,135.9831 142.76565,137.7696 139.69815,137.7696 C136.79865,137.7696 134.61465,136.1091 134.61465,131.7186 L134.61465,123.3771 L136.46265,123.3771 Z" id="Fill-40" fill="#1D355E" mask="url(#mask-2)"></path>
                    <path d="M151.75125,137.53845 L151.75125,131.52945 L147.27675,123.37695 L149.35575,123.37695 L151.35225,127.28595 C151.89825,128.35695 152.31825,129.21795 152.75925,130.20495 L152.80275,130.20495 C153.20175,129.28095 153.68475,128.35695 154.23075,127.28595 L156.26925,123.37695 L158.34825,123.37695 L153.60075,131.50845 L153.60075,137.53845 L151.75125,137.53845 Z" id="Fill-41" fill="#1D355E" mask="url(#mask-2)"></path>
                    <polygon id="Fill-42" fill="#1D355E" mask="url(#mask-2)" points="167.67105 130.89915 162.16605 130.89915 162.16605 136.00515 168.30105 136.00515 168.30105 137.53815 160.33755 137.53815 160.33755 123.37665 167.98605 123.37665 167.98605 124.91115 162.16605 124.91115 162.16605 129.38565 167.67105 129.38565"></polygon>
                    <path d="M171.04755,137.53845 L171.04755,123.37695 L173.04405,123.37695 L177.58155,130.54095 C178.63305,132.20145 179.45205,133.69395 180.12405,135.14295 L180.16755,135.12195 C179.99805,133.23045 179.95605,131.50845 179.95605,129.30195 L179.95605,123.37695 L181.67955,123.37695 L181.67955,137.53845 L179.83005,137.53845 L175.33455,130.35195 C174.34605,128.77695 173.40105,127.15845 172.68705,125.62545 L172.62405,125.64645 C172.72905,127.43145 172.77105,129.13395 172.77105,131.48745 L172.77105,137.53845 L171.04755,137.53845 Z" id="Fill-43" fill="#1D355E" mask="url(#mask-2)"></path>
                    <path d="M187.07145,136.089 C187.53345,136.173 188.20545,136.194 188.92095,136.194 C192.82845,136.194 194.95095,134.0085 194.95095,130.1835 C194.97195,126.843 193.08045,124.722 189.21495,124.722 C188.26845,124.722 187.55445,124.806 187.07145,124.911 L187.07145,136.089 Z M185.24295,123.5655 C186.35745,123.3975 187.68045,123.2715 189.13095,123.2715 C191.75745,123.2715 193.62795,123.8805 194.86695,125.037 C196.12695,126.192 196.86195,127.8315 196.86195,130.1205 C196.86195,132.432 196.14795,134.3235 194.82495,135.6255 C193.50045,136.95 191.31645,137.664 188.56395,137.664 C187.26045,137.664 186.16845,137.601 185.24295,137.496 L185.24295,123.5655 Z" id="Fill-44" fill="#1D355E" mask="url(#mask-2)"></path>
                    <path d="M200.72085,130.5417 C200.72085,133.5672 202.35885,136.2777 205.23735,136.2777 C208.13685,136.2777 209.77635,133.6092 209.77635,130.3947 C209.77635,127.5792 208.30635,124.6377 205.25835,124.6377 C202.23285,124.6377 200.72085,127.4322 200.72085,130.5417 M211.70985,130.3107 C211.70985,135.1857 208.74735,137.7702 205.13235,137.7702 C201.39285,137.7702 198.76635,134.8707 198.76635,130.5837 C198.76635,126.0867 201.56085,123.1452 205.34385,123.1452 C209.20935,123.1452 211.70985,126.1077 211.70985,130.3107" id="Fill-45" fill="#1D355E" mask="url(#mask-2)"></path>
                    <polygon id="Fill-46" fill="#1D355E" mask="url(#mask-2)" points="78.7485 156.09885 73.2435 156.09885 73.2435 161.20485 79.3785 161.20485 79.3785 162.73935 71.415 162.73935 71.415 148.57635 79.0635 148.57635 79.0635 150.11085 73.2435 150.11085 73.2435 154.58535 78.7485 154.58535"></polygon>
                    <polygon id="Fill-47" fill="#1D355E" mask="url(#mask-2)" points="82.125 148.5768 83.9535 148.5768 83.9535 161.2053 90.0045 161.2053 90.0045 162.7383 82.125 162.7383"></polygon>
                    <polygon id="Fill-48" fill="#1D355E" mask="url(#mask-2)" points="97.24515 148.5768 104.87265 148.5768 104.87265 150.1098 99.07365 150.1098 99.07365 154.8168 104.43165 154.8168 104.43165 156.3303 99.07365 156.3303 99.07365 162.7383 97.24515 162.7383"></polygon>
                    <path d="M109.6779,148.5768 L109.6779,156.9603 C109.6779,160.1328 111.0849,161.4783 112.9764,161.4783 C115.0779,161.4783 116.4234,160.0908 116.4234,156.9603 L116.4234,148.5768 L118.2714,148.5768 L118.2714,156.8343 C118.2714,161.1828 115.9809,162.9708 112.9134,162.9708 C110.0139,162.9708 107.8299,161.3088 107.8299,156.9198 L107.8299,148.5768 L109.6779,148.5768 Z" id="Fill-49" fill="#1D355E" mask="url(#mask-2)"></path>
                    <polygon id="Fill-50" fill="#1D355E" mask="url(#mask-2)" points="124.5036 150.1311 120.1956 150.1311 120.1956 148.5771 130.6806 148.5771 130.6806 150.1311 126.3531 150.1311 126.3531 162.7386 124.5036 162.7386"></polygon>
                    <path d="M134.4573,148.5768 L134.4573,156.9603 C134.4573,160.1328 135.8643,161.4783 137.7558,161.4783 C139.8573,161.4783 141.2028,160.0908 141.2028,156.9603 L141.2028,148.5768 L143.0508,148.5768 L143.0508,156.8343 C143.0508,161.1828 140.7603,162.9708 137.6928,162.9708 C134.7933,162.9708 132.6093,161.3088 132.6093,156.9198 L132.6093,148.5768 L134.4573,148.5768 Z" id="Fill-51" fill="#1D355E" mask="url(#mask-2)"></path>
                    <path d="M148.4223,155.217 L150.2928,155.217 C152.2458,155.217 153.4863,154.1445 153.4863,152.5275 C153.4863,150.699 152.1618,149.901 150.2298,149.8785 C149.3463,149.8785 148.7163,149.964 148.4223,150.048 L148.4223,155.217 Z M146.5938,148.7655 C147.5178,148.5765 148.8423,148.4715 150.1038,148.4715 C152.0568,148.4715 153.3183,148.8285 154.2003,149.6265 C154.9143,150.258 155.3148,151.224 155.3148,152.316 C155.3148,154.1865 154.1373,155.427 152.6448,155.931 L152.6448,155.994 C153.7383,156.3735 154.3893,157.38 154.7253,158.8515 C155.1873,160.8255 155.5233,162.192 155.8188,162.7395 L153.9273,162.7395 C153.6963,162.339 153.3813,161.121 152.9823,159.3555 C152.5623,157.401 151.8048,156.666 150.1443,156.603 L148.4223,156.603 L148.4223,162.7395 L146.5938,162.7395 L146.5938,148.7655 Z" id="Fill-52" fill="#1D355E" mask="url(#mask-2)"></path>
                    <path d="M159.3837,155.7414 C159.3837,158.7684 161.0217,161.4774 163.9017,161.4774 C166.7997,161.4774 168.4392,158.8089 168.4392,155.5944 C168.4392,152.7789 166.9692,149.8374 163.9212,149.8374 C160.8957,149.8374 159.3837,152.6319 159.3837,155.7414 M170.3727,155.5104 C170.3727,160.3854 167.4102,162.9699 163.7952,162.9699 C160.0557,162.9699 157.4292,160.0704 157.4292,155.7834 C157.4292,151.2864 160.2237,148.3449 164.0067,148.3449 C167.8722,148.3449 170.3727,151.3089 170.3727,155.5104" id="Fill-53" fill="#1D355E" mask="url(#mask-2)"></path>
                    <polygon id="Fill-54" fill="#1D355E" mask="url(#mask-2)" points="185.28 156.09885 179.775 156.09885 179.775 161.20485 185.91 161.20485 185.91 162.73935 177.9465 162.73935 177.9465 148.57635 185.595 148.57635 185.595 150.11085 179.775 150.11085 179.775 154.58535 185.28 154.58535"></polygon>
                    <path d="M188.6565,162.7389 L188.6565,148.5774 L190.653,148.5774 L195.1905,155.7414 C196.242,157.4004 197.061,158.8944 197.733,160.3434 L197.7765,160.3224 C197.607,158.4309 197.565,156.7074 197.565,154.5024 L197.565,148.5774 L199.2885,148.5774 L199.2885,162.7389 L197.439,162.7389 L192.9435,155.5524 C191.955,153.9759 191.01,152.3589 190.296,150.8259 L190.233,150.8454 C190.338,152.6319 190.38,154.3329 190.38,156.6879 L190.38,162.7389 L188.6565,162.7389 Z" id="Fill-55" fill="#1D355E" mask="url(#mask-2)"></path>
                    <path d="M54.6687,186.5529 C55.0257,186.6159 55.5507,186.6369 56.2017,186.6369 C58.0932,186.6369 59.8377,185.9439 59.8377,183.8844 C59.8377,181.9509 58.1772,181.1514 56.1822,181.1514 L54.6687,181.1514 L54.6687,186.5529 Z M54.6687,179.7669 L56.3277,179.7669 C58.2627,179.7669 59.3967,178.7574 59.3967,177.3924 C59.3967,175.7319 58.1352,175.0809 56.2872,175.0809 C55.4457,175.0809 54.9627,175.1439 54.6687,175.2069 L54.6687,179.7669 Z M52.8402,173.9664 C53.6382,173.7984 54.8997,173.6724 56.1822,173.6724 C58.0092,173.6724 59.1867,173.9874 60.0687,174.7029 C60.8037,175.2489 61.2447,176.0874 61.2447,177.2034 C61.2447,178.5684 60.3417,179.7669 58.8507,180.3114 L58.8507,180.3534 C60.1947,180.6909 61.7697,181.8039 61.7697,183.9039 C61.7697,185.1234 61.2882,186.0474 60.5727,186.7419 C59.5857,187.6449 57.9882,188.0649 55.6767,188.0649 C54.4167,188.0649 53.4507,187.9809 52.8402,187.8969 L52.8402,173.9664 Z" id="Fill-56" fill="#1D355E" mask="url(#mask-2)"></path>
                    <path d="M66.4284,186.5529 C66.7854,186.6159 67.3104,186.6369 67.9614,186.6369 C69.8529,186.6369 71.5974,185.9439 71.5974,183.8844 C71.5974,181.9509 69.9369,181.1514 67.9419,181.1514 L66.4284,181.1514 L66.4284,186.5529 Z M66.4284,179.7669 L68.0874,179.7669 C70.0224,179.7669 71.1564,178.7574 71.1564,177.3924 C71.1564,175.7319 69.8949,175.0809 68.0469,175.0809 C67.2054,175.0809 66.7224,175.1439 66.4284,175.2069 L66.4284,179.7669 Z M64.5999,173.9664 C65.3979,173.7984 66.6594,173.6724 67.9419,173.6724 C69.7689,173.6724 70.9464,173.9874 71.8284,174.7029 C72.5634,175.2489 73.0044,176.0874 73.0044,177.2034 C73.0044,178.5684 72.1014,179.7669 70.6104,180.3114 L70.6104,180.3534 C71.9544,180.6909 73.5294,181.8039 73.5294,183.9039 C73.5294,185.1234 73.0479,186.0474 72.3324,186.7419 C71.3454,187.6449 69.7479,188.0649 67.4364,188.0649 C66.1764,188.0649 65.2104,187.9809 64.5999,187.8969 L64.5999,173.9664 Z" id="Fill-57" fill="#1D355E" mask="url(#mask-2)"></path>
                    <path d="M79.47,187.9386 L74.847,173.7786 L76.8225,173.7786 L79.029,180.7536 C79.638,182.6646 80.163,184.3881 80.541,186.0471 L80.583,186.0471 C80.982,184.4076 81.5715,182.6226 82.2015,180.7746 L84.597,173.7786 L86.5515,173.7786 L81.4875,187.9386 L79.47,187.9386 Z" id="Fill-58" fill="#1D355E" mask="url(#mask-2)"></path>
                    <path d="M95.3898,182.0559 L94.0038,177.9789 C93.6873,177.0549 93.4788,176.2134 93.2673,175.3959 L93.2253,175.3959 C93.0153,176.2359 92.7843,177.0969 92.5113,177.9594 L91.1253,182.0559 L95.3898,182.0559 Z M90.7458,183.4839 L89.2758,187.9389 L87.3843,187.9389 L92.1963,173.7774 L94.4028,173.7774 L99.2343,187.9389 L97.2813,187.9389 L95.7678,183.4839 L90.7458,183.4839 Z" id="Fill-59" fill="#1D355E" mask="url(#mask-2)"></path>
                    <path d="M107.6301,180.9426 C107.6301,183.9681 109.2681,186.6786 112.1466,186.6786 C115.0461,186.6786 116.6856,184.0101 116.6856,180.7941 C116.6856,177.9786 115.2156,175.0371 112.1676,175.0371 C109.1421,175.0371 107.6301,177.8331 107.6301,180.9426 M118.6191,180.7116 C118.6191,185.5866 115.6566,188.1696 112.0416,188.1696 C108.3021,188.1696 105.6756,185.2716 105.6756,180.9831 C105.6756,176.4876 108.4701,173.5461 112.2531,173.5461 C116.1186,173.5461 118.6191,176.5086 118.6191,180.7116" id="Fill-60" fill="#1D355E" mask="url(#mask-2)"></path>
                    <path d="M123.1911,180.77415 C123.5901,180.87915 124.0956,180.92115 124.7046,180.92115 C126.9096,180.92115 128.2551,179.85015 128.2551,177.89565 C128.2551,176.02515 126.9306,175.12215 124.9131,175.12215 C124.1151,175.12215 123.5061,175.18515 123.1911,175.26915 L123.1911,180.77415 Z M121.3626,173.94465 C122.2461,173.79915 123.4011,173.67315 124.8726,173.67315 C126.6786,173.67315 128.0031,174.09315 128.8431,174.84915 C129.6201,175.52115 130.0836,176.55165 130.0836,177.81165 C130.0836,179.09415 129.7041,180.10215 128.9901,180.83715 C128.0241,181.86765 126.4476,182.39115 124.6611,182.39115 C124.1151,182.39115 123.6111,182.37015 123.1911,182.26515 L123.1911,187.93815 L121.3626,187.93815 L121.3626,173.94465 Z" id="Fill-61" fill="#1D355E" mask="url(#mask-2)"></path>
                    <polygon id="Fill-62" fill="#1D355E" mask="url(#mask-2)" points="140.24565 181.30005 134.74065 181.30005 134.74065 186.40455 140.87565 186.40455 140.87565 187.93905 132.91215 187.93905 132.91215 173.77755 140.56065 173.77755 140.56065 175.31205 134.74065 175.31205 134.74065 179.78655 140.24565 179.78655"></polygon>
                    <path d="M143.62275,187.9386 L143.62275,173.7786 L145.61925,173.7786 L150.15675,180.9426 C151.20825,182.6016 152.02725,184.0941 152.69925,185.5431 L152.74275,185.5236 C152.57325,183.6321 152.53125,181.9086 152.53125,179.7021 L152.53125,173.7786 L154.25475,173.7786 L154.25475,187.9386 L152.40525,187.9386 L147.90975,180.7536 C146.92125,179.1771 145.97625,177.5586 145.26225,176.0256 L145.19925,176.0466 C145.30425,177.8331 145.34625,179.5341 145.34625,181.8876 L145.34625,187.9386 L143.62275,187.9386 Z" id="Fill-63" fill="#1D355E" mask="url(#mask-2)"></path>
                    <path d="M162.39615,185.71215 C163.21515,186.21615 164.41365,186.63615 165.67365,186.63615 C167.54415,186.63615 168.63615,185.64915 168.63615,184.21965 C168.63615,182.89665 167.88015,182.13915 165.96765,181.40415 C163.65615,180.58515 162.22815,179.38665 162.22815,177.39165 C162.22815,175.18515 164.05515,173.54715 166.80765,173.54715 C168.25815,173.54715 169.30815,173.88165 169.93965,174.24015 L169.43415,175.73265 C168.97215,175.47915 168.02715,175.05915 166.74465,175.05915 C164.81265,175.05915 164.07765,176.21415 164.07765,177.18165 C164.07765,178.50465 164.93865,179.15715 166.89315,179.91315 C169.28715,180.83715 170.50665,181.99365 170.50665,184.07265 C170.50665,186.25815 168.88815,188.14965 165.54765,188.14965 C164.18115,188.14965 162.69015,187.74915 161.93415,187.24515 L162.39615,185.71215 Z" id="Fill-64" fill="#1D355E" mask="url(#mask-2)"></path>
                    <path d="M175.20705,180.77415 C175.60605,180.87915 176.11155,180.92115 176.72055,180.92115 C178.92555,180.92115 180.27105,179.85015 180.27105,177.89565 C180.27105,176.02515 178.94655,175.12215 176.92905,175.12215 C176.13105,175.12215 175.52205,175.18515 175.20705,175.26915 L175.20705,180.77415 Z M173.37855,173.94465 C174.26205,173.79915 175.41705,173.67315 176.88855,173.67315 C178.69455,173.67315 180.01905,174.09315 180.85905,174.84915 C181.63605,175.52115 182.09955,176.55165 182.09955,177.81165 C182.09955,179.09415 181.72005,180.10215 181.00605,180.83715 C180.04005,181.86765 178.46355,182.39115 176.67705,182.39115 C176.13105,182.39115 175.62705,182.37015 175.20705,182.26515 L175.20705,187.93815 L173.37855,187.93815 L173.37855,173.94465 Z" id="Fill-65" fill="#1D355E" mask="url(#mask-2)"></path>
                    <path d="M191.86305,182.0559 L190.47705,177.9789 C190.16055,177.0549 189.95205,176.2134 189.74055,175.3959 L189.69855,175.3959 C189.48855,176.2359 189.25755,177.0969 188.98455,177.9594 L187.59855,182.0559 L191.86305,182.0559 Z M187.21905,183.4839 L185.74905,187.9389 L183.85755,187.9389 L188.66955,173.7774 L190.87605,173.7774 L195.70755,187.9389 L193.75455,187.9389 L192.24105,183.4839 L187.21905,183.4839 Z" id="Fill-66" fill="#1D355E" mask="url(#mask-2)"></path>
                    <path d="M208.0554,187.4772 C207.3834,187.8132 206.0379,188.1492 204.3159,188.1492 C200.3229,188.1492 197.3184,185.6277 197.3184,180.9837 C197.3184,176.5512 200.3229,173.5467 204.7149,173.5467 C206.4804,173.5467 207.5934,173.9247 208.0764,174.1767 L207.6354,175.6677 C206.9424,175.3317 205.9539,175.0797 204.7779,175.0797 C201.4584,175.0797 199.2519,177.2022 199.2519,180.9207 C199.2519,184.3872 201.2469,186.6162 204.6939,186.6162 C205.8069,186.6162 206.9424,186.3837 207.6774,186.0267 L208.0554,187.4772 Z" id="Fill-67" fill="#1D355E" mask="url(#mask-2)"></path>
                    <polygon id="Fill-68" fill="#1D355E" mask="url(#mask-2)" points="218.05005 181.30005 212.54505 181.30005 212.54505 186.40455 218.68005 186.40455 218.68005 187.93905 210.71655 187.93905 210.71655 173.77755 218.36505 173.77755 218.36505 175.31205 212.54505 175.31205 212.54505 179.78655 218.05005 179.78655"></polygon>
                </g>
            </g>
        </g>
    </g>
</svg>